<svg width="92" height="100" viewBox="0 0 92 100" fill="none" xmlns="http://www.w3.org/2000/svg">
<path d="M90.9899 41.6833C89.2207 18.4018 69.7101 0 45.9832 0C22.2564 0 2.74766 18.4018 0.978472 41.6833C0.895411 41.9086 0.847656 65.6451 0.847656 65.6451C0.847656 66.797 1.77949 67.7286 2.93092 67.7286H9.35194C14.493 67.7286 18.674 63.5478 18.674 58.4064V49.6439C18.674 44.5027 14.493 40.3217 9.35194 40.3217H5.29847C7.68888 19.9912 25.0205 4.16674 45.9832 4.16674C66.9458 4.16674 84.2793 19.9912 86.6697 40.3221H82.6164C77.4752 40.3221 73.2924 44.5029 73.2924 49.6443V58.4068C73.2924 63.548 77.4752 67.729 82.6164 67.729H86.5773C85.8717 72.2829 84.0779 78.2325 79.6499 83.108C74.506 88.7703 66.8479 91.8472 56.8668 92.2705C56.505 89.1388 53.8381 86.6988 50.6113 86.6988H42.8821C39.4093 86.6988 36.5834 89.5245 36.5834 92.9974C36.5834 93.3494 36.285 99.6982 42.8821 100H50.6113C53.0952 100 55.2479 98.5541 56.2726 96.459C67.7783 96.1205 76.6768 92.5764 82.7342 85.9094C88.5203 79.539 90.5558 71.7623 91.1205 66.4478C91.224 66.2002 91.0475 41.8388 90.9899 41.6833ZM9.35194 44.4886C12.194 44.4886 14.5075 46.8017 14.5075 49.6441V58.4066C14.5075 61.249 12.1942 63.5621 9.35194 63.5621H5.01439C5.01439 63.5621 5.01929 44.7043 5.02255 44.4888H9.35194V44.4886ZM50.6117 95.8333H42.8826C41.7064 95.8333 40.5275 94.7927 40.7505 92.997C40.8954 91.83 41.5389 90.865 42.8826 90.865H50.6117C51.9919 90.865 52.6262 91.8272 52.7438 92.997C52.937 94.9196 51.7877 95.8333 50.6117 95.8333ZM82.6166 63.5619C79.7721 63.5619 77.4591 61.2488 77.4591 58.4064V49.6439C77.4591 46.8015 79.7721 44.4884 82.6166 44.4884H86.9458C86.9493 44.7039 86.954 63.5617 86.954 63.5617H82.6166V63.5619Z" fill="#FAAA17"/>
<path d="M34.529 36.3117L26.7076 44.1693V47.8587H44.3431V43.6901H32.6472L38.6976 37.5291C40.5429 35.6358 41.8086 34.086 42.4976 32.8799C43.1866 31.6754 43.5303 30.4083 43.5303 29.0799C43.5303 26.7189 42.719 24.8568 41.0966 23.4905C39.4725 22.1256 37.5839 21.4434 35.4329 21.4434C33.2801 21.4434 31.5223 21.8746 30.1574 22.7352C28.7925 23.596 27.5437 24.8748 26.4121 26.5717L29.9178 28.6007C31.3188 26.4364 33.0768 25.354 35.1933 25.354C36.3978 25.354 37.3942 25.7174 38.1823 26.443C38.9686 27.1683 39.3619 28.047 39.3619 29.0799C39.3619 30.114 38.9933 31.1334 38.2548 32.143C37.5178 33.1509 36.2756 34.5405 34.529 36.3117Z" fill="#FAAA17"/>
<path d="M57.1447 22.0714L47.6626 37.5294V41.3657H58.7306V47.859H62.8628V41.3657H65.9624V37.4188H62.8628V32.6969H58.7306V37.4188H52.5695L61.9028 22.0714H57.1447Z" fill="#FAAA17"/>
<path d="M38.4991 68.6353C38.4991 67.5117 38.8262 66.6578 39.4789 66.0727C40.1315 65.488 40.8997 65.1953 41.7803 65.1953C43.6323 65.1953 44.5593 66.3107 44.5593 68.5443V75.1962H47.1103V67.7696C47.1103 66.19 46.6891 64.9823 45.8464 64.148C45.004 63.3119 43.8985 62.8939 42.5323 62.8939C41.6813 62.8939 40.8885 63.107 40.1515 63.5315C39.4146 63.9578 38.8644 64.5427 38.4993 65.2862V58.3156H35.9482V75.1962H38.4993V68.6353H38.4991Z" fill="#FAAA17"/>
<path d="M50.6646 63.0755V75.1961H53.2154V70.0016C53.2154 68.6204 53.5343 67.5183 54.1721 66.6989C54.8099 65.8777 55.7599 65.4679 57.0205 65.4679C57.065 65.4679 57.1113 65.4679 57.1576 65.4679L57.1345 62.894C56.3448 62.9087 55.5962 63.16 54.8909 63.6457C54.1837 64.1332 53.6254 64.7542 53.2154 65.5142V63.0755H50.6646Z" fill="#FAAA17"/>
</svg>
