<svg width="29" height="29" viewBox="0 0 29 29" fill="none" xmlns="http://www.w3.org/2000/svg">
<mask id="path-1-inside-1_2643_118" fill="white">
<path d="M1.1105 13.1381C1.1105 16.6858 -1.11359 20.354 1.10826 24.7946C3.3301 29.2352 13.1502 29.0615 13.1502 29.0615H29.478V7.25781H3.33156L1.1105 13.1381Z"/>
</mask>
<path d="M1.1105 13.1381C1.1105 16.6858 -1.11359 20.354 1.10826 24.7946C3.3301 29.2352 13.1502 29.0615 13.1502 29.0615H29.478V7.25781H3.33156L1.1105 13.1381Z" fill="white"/>
<path d="M1.10826 24.7946L-0.233195 25.4658L1.10826 24.7946ZM1.1105 13.1381L-0.292735 12.6081L-0.389496 12.8643V13.1381H1.1105ZM3.33156 7.25781V5.75781H2.29469L1.92832 6.72779L3.33156 7.25781ZM29.478 7.25781H30.978V5.75781H29.478V7.25781ZM29.478 29.0615V30.5615H30.978V29.0615H29.478ZM13.1502 29.0615V27.5615H13.1369L13.1237 27.5618L13.1502 29.0615ZM2.44971 24.1234C1.52576 22.2768 1.50706 20.5925 1.76061 18.8472C1.89359 17.9318 2.08519 17.0887 2.2712 16.1124C2.44899 15.1792 2.6105 14.1715 2.6105 13.1381H-0.389496C-0.389496 13.8786 -0.505998 14.6598 -0.675789 15.5509C-0.837358 16.399 -1.06292 17.4157 -1.20823 18.4159C-1.51126 20.5018 -1.53109 22.8718 -0.233195 25.4658L2.44971 24.1234ZM2.51374 13.6681L4.7348 7.78783L1.92832 6.72779L-0.292735 12.6081L2.51374 13.6681ZM3.33156 8.75781H29.478V5.75781H3.33156V8.75781ZM27.978 7.25781V29.0615H30.978V7.25781H27.978ZM29.478 27.5615H13.1502V30.5615H29.478V27.5615ZM-0.233195 25.4658C0.523792 26.9787 1.87108 27.9931 3.26364 28.6799C4.6652 29.3712 6.24725 29.7982 7.68637 30.0677C9.13509 30.3389 10.5 30.4615 11.4978 30.517C11.9987 30.5448 12.4117 30.556 12.7023 30.5602C12.8478 30.5622 12.9628 30.5626 13.0433 30.5624C13.0835 30.5623 13.1151 30.562 13.1375 30.5618C13.1487 30.5617 13.1576 30.5616 13.1642 30.5615C13.1675 30.5614 13.1701 30.5614 13.1722 30.5614C13.1733 30.5613 13.1742 30.5613 13.1749 30.5613C13.1753 30.5613 13.1758 30.5613 13.1759 30.5613C13.1764 30.5613 13.1767 30.5613 13.1502 29.0615C13.1237 27.5618 13.124 27.5618 13.1242 27.5617C13.1243 27.5617 13.1245 27.5617 13.1246 27.5617C13.1247 27.5617 13.1247 27.5617 13.1246 27.5617C13.1243 27.5617 13.1234 27.5618 13.122 27.5618C13.1191 27.5618 13.1139 27.5619 13.1064 27.562C13.0916 27.5621 13.0677 27.5623 13.0355 27.5624C12.971 27.5626 12.8729 27.5623 12.7455 27.5605C12.4904 27.5568 12.1189 27.5468 11.6643 27.5216C10.7515 27.4708 9.52251 27.3593 8.23847 27.1189C6.94484 26.8767 5.65527 26.5145 4.59066 25.9894C3.51706 25.4599 2.80364 24.8308 2.44971 24.1234L-0.233195 25.4658Z" fill="#252525" mask="url(#path-1-inside-1_2643_118)"/>
<path d="M13.6819 8.53812V20.744L0.75 20.8398V7.0338C0.75 3.38393 3.6667 0.75 7.42293 0.75C9.19057 0.75 10.7408 1.69621 11.875 3.18079C13.0125 4.6696 13.6819 6.64403 13.6819 8.53812Z" fill="white" stroke="#252525" stroke-width="1.5"/>
<circle cx="7.21593" cy="20.9073" r="6.46593" fill="white" stroke="#252525" stroke-width="1.5"/>
<circle cx="7.21676" cy="20.9082" r="2.77536" fill="#252525"/>
</svg>
