<svg width="30" height="30" viewBox="0 0 30 30" fill="none" xmlns="http://www.w3.org/2000/svg">
<g clip-path="url(#clip0_2529_9571)">
<path d="M28.5 20.25C28.9142 20.25 29.25 19.9142 29.25 19.5C29.25 19.0858 28.9142 18.75 28.5 18.75V20.25ZM19.5 18.75H18.75V20.25H19.5V18.75ZM28.5 18.75H19.5V20.25H28.5V18.75Z" fill="#252525"/>
<path d="M10.5 11V7H19.5V11" stroke="#252525" stroke-width="1.5" stroke-linecap="round"/>
<rect x="12.75" y="16.25" width="4.5" height="6.5" stroke="#252525" stroke-width="1.5"/>
<path d="M29 29.5V30.25H29.75V29.5H29ZM1 29.5H0.25V30.25H1V29.5ZM1 14.5L0.46967 13.9697L0.25 14.1893V14.5H1ZM4.5 11V10.25H4.18934L3.96967 10.4697L4.5 11ZM25 11L25.4939 10.4356L25.2818 10.25H25V11ZM29 14.5H29.75V14.1597L29.4939 13.9356L29 14.5ZM10.5 20.25H11.25V18.75H10.5V20.25ZM29 28.75H1V30.25H29V28.75ZM1.53033 15.0303L5.03033 11.5303L3.96967 10.4697L0.46967 13.9697L1.53033 15.0303ZM4.5 11.75H25V10.25H4.5V11.75ZM24.5061 11.5644L28.5061 15.0644L29.4939 13.9356L25.4939 10.4356L24.5061 11.5644ZM28.25 14.5V29.5H29.75V14.5H28.25ZM1.75 29.5V19.5H0.25V29.5H1.75ZM1.75 19.5V14.5H0.25V19.5H1.75ZM1 20.25H10.5V18.75H1V20.25Z" fill="#252525"/>
</g>
<defs>
<clipPath id="clip0_2529_9571">
<rect width="30" height="30" fill="white"/>
</clipPath>
</defs>
</svg>
