<svg width="30" height="30" viewBox="0 0 30 30" fill="none" xmlns="http://www.w3.org/2000/svg">
<path d="M30 0.00821733L0 0.00146926L0.00117103 0V0.00146926V29.2106C0.00117103 29.42 0.00140375 30 0.00140375 30C0.00140375 30 0.442024 30 0.601148 30H29.4C29.5591 30 30 30 30 30C30 30 30 29.42 30 29.2106V0.00498542V0.00821733ZM8.40084 18.9483V11.0542H21.6003V18.9483H8.40084ZM1.20112 18.9483V11.0542H7.20089V18.9483H1.20112ZM22.8003 11.0542H28.8V18.9483H22.8003V11.0542ZM28.8 9.47542H15.6006V1.58135H28.8V9.47542ZM14.4006 1.58135V9.47542H1.20112V1.58135H14.4006ZM1.20112 20.5271H14.4006V28.4212H1.20112V20.5271ZM15.6006 28.4212V20.5271H28.8V28.4212H15.6006Z" fill="#252525"/>
</svg>
