<svg width="30" height="31" viewBox="0 0 30 31" fill="none" xmlns="http://www.w3.org/2000/svg">
<path d="M4.25243 12.2959L25.75 12.2075L25.75 24.3257C25.75 25.7358 24.729 27.0892 22.7024 28.1318C20.6969 29.1636 17.8643 29.793 14.6715 29.793C11.4784 29.793 8.82127 29.1635 6.99115 28.1436C5.16225 27.1244 4.25008 25.7805 4.25002 24.3258C4.25002 24.3258 4.25002 24.3257 4.25002 24.3257L4.25243 12.2959Z" fill="white" stroke="#252525" stroke-width="1.5"/>
<path d="M4.25 10.9648C4.25 10.6225 4.42431 10.2159 4.91305 9.76377C5.40265 9.31082 6.15227 8.86841 7.14157 8.4813C9.11555 7.70887 11.8937 7.21484 15 7.21484C18.1063 7.21484 20.8845 7.70887 22.8584 8.4813C23.8477 8.86842 24.5973 9.31082 25.0869 9.76378C25.5757 10.2159 25.75 10.6225 25.75 10.9648C25.75 11.3072 25.5757 11.7138 25.0869 12.1659C24.5973 12.6189 23.8477 13.0613 22.8584 13.4484C20.8845 14.2208 18.1063 14.7148 15 14.7148C11.8937 14.7148 9.11555 14.2208 7.14157 13.4484C6.15227 13.0613 5.40265 12.6189 4.91305 12.1659C4.42431 11.7138 4.25 11.3072 4.25 10.9648Z" fill="white" stroke="#252525" stroke-width="1.5"/>
<path d="M21.75 23.6279C17.5449 25.9273 12.4551 25.9273 8.25 23.6279V18.6589C12.5508 20.5447 17.4492 20.5447 21.75 18.6589V23.6279Z" fill="white" stroke="#252525" stroke-width="1.5"/>
<path d="M25.6935 12.6785C26.4864 5.65295 21.6359 1.45703 15.0423 1.45703C9.98721 1.45703 3.79326 4.31857 4.28648 12.6785" stroke="#252525" stroke-width="1.5"/>
</svg>
