<svg width="40" height="41" viewBox="0 0 40 41" fill="none" xmlns="http://www.w3.org/2000/svg">
<path d="M14.4836 21.0046C14.3333 21.0046 14.1831 20.9446 14.0629 20.8244L8.23334 14.9947C8.08309 14.8444 8.02299 14.6341 8.08309 14.4238C8.14319 14.2134 8.29341 14.0632 8.50375 14.0331C9.85599 13.7326 11.088 13.0715 12.0495 12.0799C13.0111 11.1183 13.7023 9.88626 14.0028 8.53403C14.0629 8.32368 14.2132 8.17346 14.3935 8.11336C14.6039 8.05326 14.8142 8.11336 14.9644 8.26361L20.794 14.0932C20.9142 14.2134 20.9743 14.4238 20.9443 14.6041C20.9142 14.7844 20.794 14.9647 20.6137 15.0248C19.3816 15.5957 18.2698 16.377 17.2781 17.3386C16.3166 18.3002 15.5354 19.412 14.9644 20.6741C14.8743 20.8544 14.724 20.9746 14.5438 21.0046C14.5438 21.0046 14.5136 21.0046 14.4836 21.0046ZM9.76575 14.8745L14.3333 19.442C14.9043 18.3603 15.6556 17.3987 16.497 16.5273C17.3384 15.6558 18.36 14.9346 19.4117 14.3637L14.8442 9.79617C14.4236 10.9681 13.7624 12.0499 12.8609 12.9213C12.0196 13.7927 10.9377 14.4538 9.76575 14.8745Z" fill="#252525"/>
<path d="M6.91138 15.3553C4.68771 15.3553 2.58429 14.4838 0.961616 12.8912L0.180298 12.11C-0.0600992 11.8696 -0.0600992 11.509 0.180298 11.2986L11.2986 0.180298C11.539 -0.0600992 11.8997 -0.0600992 12.11 0.180298L12.8914 0.961543C14.9347 3.00492 15.7761 5.94978 15.1451 8.77444C14.7845 10.337 14.0032 11.7493 12.8914 12.8912C11.7795 14.0031 10.3371 14.7843 8.77451 15.1449C8.17352 15.2952 7.54242 15.3553 6.91138 15.3553ZM1.41236 11.6892L1.77301 12.0499C3.54594 13.8228 6.07011 14.544 8.53417 14.0031C9.88641 13.7026 11.1184 13.0415 12.08 12.0499C13.0416 11.0883 13.7327 9.85625 14.0332 8.50402C14.5741 6.03995 13.8529 3.51579 12.08 1.74286L11.7193 1.38228L1.41236 11.6892Z" fill="#252525"/>
<path d="M39.4255 40.0261C39.3053 40.0261 39.2151 39.996 39.0949 39.9359L23.5593 29.7491C23.4091 29.659 23.3188 29.5088 23.2888 29.3285C23.2587 29.1482 23.3188 28.9678 23.4691 28.8476L28.818 23.4988C28.9382 23.3786 29.1184 23.3185 29.2987 23.3185C29.479 23.3486 29.6293 23.4387 29.7195 23.589L39.9063 39.1246C40.0565 39.365 40.0264 39.6655 39.816 39.8458C39.7259 39.966 39.5757 40.0261 39.4255 40.0261ZM24.7912 29.1481L37.4121 37.4118L29.1484 24.7909L24.7912 29.1481Z" fill="#F49300"/>
<path d="M18.1801 26.8944C17.5791 26.8944 16.9482 26.654 16.4975 26.2032C15.5659 25.2717 15.5659 23.7692 16.4975 22.8377C17.429 21.9062 18.9314 21.9062 19.8629 22.8377C20.7945 23.7692 20.7945 25.2717 19.8629 26.2032C19.4122 26.654 18.7811 26.8944 18.1801 26.8944ZM18.1801 23.2584C17.8796 23.2584 17.5491 23.3786 17.3087 23.619C16.8279 24.0998 16.8279 24.881 17.3087 25.3618C17.7895 25.8426 18.5709 25.8426 19.0517 25.3618C19.5325 24.881 19.5325 24.0998 19.0517 23.619C18.8113 23.3786 18.4806 23.2584 18.1801 23.2584Z" fill="#F49300"/>
<path d="M18.1203 35.6088C17.97 35.6088 17.8198 35.5487 17.6996 35.4285L16.4976 34.2265C12.8015 30.5304 11.7798 24.8811 13.9434 20.1633C14.5744 18.8111 15.4158 17.549 16.4976 16.4972C17.5794 15.4455 18.8113 14.5741 20.1636 13.943C24.9114 11.7794 30.5608 12.8011 34.2269 16.4972L35.4288 17.6992C35.549 17.8194 35.609 17.9697 35.609 18.12C35.609 18.2702 35.549 18.4204 35.4288 18.5406L18.5108 35.4586C18.3906 35.5487 18.2705 35.6088 18.1203 35.6088ZM25.3622 14.0032C23.7696 14.0032 22.1769 14.3337 20.6745 15.0248C19.4424 15.5958 18.3306 16.3771 17.3389 17.3386C16.3773 18.3002 15.596 19.4121 15.0251 20.6742C13.0718 24.9713 14.0034 30.1097 17.3389 33.4453L18.1203 34.2265L34.2269 18.12L33.4455 17.3386C31.2519 15.145 28.3071 14.0032 25.3622 14.0032Z" fill="#252525"/>
</svg>
