<svg width="41" height="40" viewBox="0 0 41 40" fill="none" xmlns="http://www.w3.org/2000/svg">
<path d="M35.3391 40H5.11751C4.78705 40 4.54675 39.7296 4.54675 39.4292V18.0698H0.581279C0.340948 18.0698 0.130681 17.9196 0.0405574 17.6793C-0.0495666 17.439 0.0105087 17.1986 0.220798 17.0484L19.8979 0.135186C20.1081 -0.045062 20.4386 -0.045062 20.6489 0.135186L40.3259 17.0484C40.5062 17.1986 40.5663 17.469 40.5062 17.6793C40.4161 17.9196 40.2058 18.0698 39.9654 18.0698H35.9098V39.4292C35.9098 39.7597 35.6395 40 35.3391 40ZM5.6883 38.8284H34.7383V17.469C34.7383 17.1386 35.0086 16.8982 35.309 16.8982H38.3733L20.2583 1.33684L2.14345 16.8982H5.11751C5.44796 16.8982 5.6883 17.1686 5.6883 17.469V38.8284Z" fill="#252525"/>
<path d="M20.4086 32.4596C20.2885 32.4596 20.1383 32.4296 20.0482 32.3395C19.7778 32.0991 13.1987 26.6616 13.1987 19.7521C13.1987 12.8426 19.7778 7.40518 20.0482 7.16485C20.2585 6.9846 20.5589 6.9846 20.7692 7.16485C21.0395 7.40518 27.6186 12.8426 27.6186 19.7521C27.6186 26.6616 21.0395 32.0991 20.7692 32.3395C20.649 32.3995 20.5288 32.4596 20.4086 32.4596ZM20.4086 8.3665C19.0568 9.59819 14.3403 14.2846 14.3403 19.7221C14.3403 25.1896 19.0267 29.846 20.4086 31.0777C21.7605 29.846 26.477 25.1596 26.477 19.7221C26.477 14.2846 21.7605 9.62824 20.4086 8.3665Z" fill="#F49300"/>
<path d="M20.4087 37.7769C20.0782 37.7769 19.8379 37.5066 19.8379 37.2062V7.61547C19.8379 7.28502 20.1083 7.04468 20.4087 7.04468C20.7391 7.04468 20.9795 7.31506 20.9795 7.61547V37.2062C20.9795 37.5066 20.7091 37.7769 20.4087 37.7769Z" fill="#F49300"/>
<path d="M20.4088 19.4818C20.2586 19.4818 20.1084 19.4217 19.9882 19.3015L16.5635 15.8768C16.3232 15.6365 16.3232 15.276 16.5635 15.0657C16.8039 14.8254 17.1644 14.8254 17.3746 15.0657L20.7994 18.4904C21.0397 18.7307 21.0397 19.0912 20.7994 19.3015C20.7092 19.4217 20.559 19.4818 20.4088 19.4818Z" fill="#F49300"/>
<path d="M20.4088 24.8892C20.2586 24.8892 20.1084 24.8291 19.9882 24.709L16.5635 21.2843C16.3232 21.0439 16.3232 20.6834 16.5635 20.4732C16.8039 20.2328 17.1644 20.2328 17.3746 20.4732L20.7994 23.8979C21.0397 24.1382 21.0397 24.4987 20.7994 24.709C20.7092 24.8291 20.559 24.8892 20.4088 24.8892Z" fill="#F49300"/>
<path d="M20.4085 19.7221C20.2582 19.7221 20.108 19.662 19.9879 19.5419C19.7475 19.3015 19.7475 18.941 19.9879 18.7308L23.4126 15.306C23.6529 15.0657 24.0134 15.0657 24.2237 15.306C24.464 15.5464 24.464 15.9069 24.2237 16.1172L20.799 19.5419C20.7089 19.662 20.5587 19.7221 20.4085 19.7221Z" fill="#F49300"/>
<path d="M20.4085 25.0995C20.2582 25.0995 20.108 25.0394 19.9879 24.9192C19.7475 24.6789 19.7475 24.3184 19.9879 24.1081L23.4126 20.6834C23.6529 20.4431 24.0134 20.4431 24.2237 20.6834C24.464 20.9238 24.464 21.2842 24.2237 21.4945L20.799 24.9192C20.7089 25.0394 20.5587 25.0995 20.4085 25.0995Z" fill="#F49300"/>
</svg>
