<svg width="40" height="40" viewBox="0 0 40 40" fill="none" xmlns="http://www.w3.org/2000/svg">
<path d="M20.0148 39.7035C19.8962 39.7035 19.8073 39.6739 19.7183 39.6146L18.6805 38.9622C13.6397 35.8488 9.45885 31.8755 6.28613 27.2202C5.15937 25.5894 4.18082 23.8696 3.35057 22.0905C3.11336 21.5864 2.87618 21.0527 2.63896 20.4893C0.889519 16.2491 0 11.831 0 7.35361V0.563388C0 0.23722 0.266836 0 0.563352 0H39.4366C39.7628 0 40 0.266872 40 0.563388V7.35361C40 11.8014 39.1105 16.2195 37.361 20.4893L37.2721 20.7265C37.2128 20.9044 37.1238 21.0823 37.0645 21.2602C33.9214 28.4359 28.4952 34.5441 21.3492 38.9919L20.3114 39.6442C20.2224 39.6739 20.1038 39.7035 20.0148 39.7035ZM1.15638 1.12678V7.35361C1.15638 11.6828 2.01631 15.9229 3.70645 20.0445C3.94366 20.6079 4.15117 21.112 4.38838 21.616C5.18897 23.3358 6.13786 24.9963 7.23497 26.5975C10.3187 31.1342 14.381 34.9593 19.2736 38.0134L20.0148 38.4878L20.7561 38.0134C27.6946 33.7139 32.9726 27.7539 36.0267 20.8155C36.086 20.6375 36.175 20.4893 36.2343 20.3114L36.3232 20.0742C38.0134 15.9526 38.8732 11.6827 38.8732 7.38326V1.15642H1.15638V1.12678ZM20.0148 35.5523C19.8962 35.5523 19.8072 35.5227 19.6886 35.4634C15.5671 32.7354 12.0978 29.3551 9.42916 25.4115C8.421 23.9289 7.5018 22.3573 6.76051 20.7265C6.55295 20.2817 6.3454 19.8073 6.10819 19.2736C4.507 15.4188 3.70645 11.4159 3.70645 7.35361V3.97332C3.70645 3.64716 3.97329 3.40994 4.2698 3.40994H35.7005C36.0267 3.40994 36.2639 3.67681 36.2639 3.97332V7.35361C36.2639 11.4159 35.4633 15.4188 33.8621 19.2736L33.7435 19.5701C33.6842 19.6887 33.6545 19.8369 33.5952 19.9556C30.8969 26.1231 26.301 31.4604 20.3114 35.4337C20.2224 35.5226 20.1038 35.5523 20.0148 35.5523ZM4.89252 4.53671V7.35361C4.89252 11.2676 5.6634 15.1223 7.20528 18.8288C7.41285 19.3625 7.62044 19.8073 7.828 20.2521C8.56929 21.794 9.42917 23.3062 10.4077 24.7591C12.9281 28.4655 16.1601 31.668 20.0148 34.2773C25.6783 30.4522 30.0074 25.3521 32.5574 19.5108C32.6167 19.3922 32.6464 19.2736 32.7057 19.155L32.8243 18.8585C34.3662 15.1224 35.1372 11.2676 35.1372 7.38326V4.56636H4.89252V4.53671Z" fill="#252525"/>
<path d="M20.0277 20.6782C17.8369 20.6782 16.04 18.8813 16.04 16.6905C16.04 16.4198 16.2615 16.2229 16.5077 16.2229C16.7538 16.2229 16.9754 16.4444 16.9754 16.6905C16.9754 18.3644 18.3293 19.7182 20.0031 19.7182C21.6769 19.7182 23.0307 18.3644 23.0307 16.6905C23.0307 15.0167 21.6769 13.6629 20.0031 13.6629C19.7323 13.6629 19.5354 13.4414 19.5354 13.1952C19.5354 12.9245 19.7569 12.7275 20.0031 12.7275C22.1938 12.7275 23.9907 14.5244 23.9907 16.7152C24.0153 18.9059 22.2184 20.6782 20.0277 20.6782Z" fill="#F49300"/>
<path d="M20.0516 26.028C19.4855 26.028 18.9439 25.9787 18.3778 25.8803C18.2547 25.8557 18.1317 25.7818 18.0579 25.6833C17.984 25.5849 17.9594 25.4618 17.984 25.3388L18.2794 23.6895C17.7378 23.5665 17.2209 23.3696 16.704 23.1234L15.8671 24.5757C15.7932 24.6741 15.6948 24.7726 15.5717 24.7972C15.4486 24.8218 15.3256 24.8218 15.2025 24.748C14.2179 24.1818 13.3564 23.468 12.6426 22.6065C12.5687 22.508 12.5194 22.385 12.5441 22.2619C12.5441 22.1388 12.6179 22.0157 12.7164 21.9419L13.9964 20.8588C13.6764 20.4157 13.381 19.9234 13.1594 19.4065L11.5841 19.9727C11.338 20.0711 11.0672 19.9481 10.9687 19.6773C10.5749 18.6189 10.3779 17.5112 10.3779 16.3789C10.3779 16.1081 10.5995 15.9112 10.8457 15.9112H12.4948C12.5195 15.3697 12.6179 14.8035 12.7902 14.262L11.2149 13.6959C11.0918 13.6466 10.9933 13.5728 10.9441 13.4497C10.8949 13.3266 10.8949 13.2036 10.9195 13.0805C11.3133 12.022 11.8548 11.0374 12.5933 10.1759C12.7656 9.97898 13.061 9.95438 13.2579 10.1267L14.5379 11.1851C14.9317 10.7913 15.3502 10.4221 15.8179 10.1021L14.981 8.67439C14.8579 8.45286 14.9317 8.15748 15.1533 8.03441C16.1379 7.46826 17.1963 7.07444 18.304 6.87752C18.4271 6.8529 18.5501 6.8775 18.6486 6.95134C18.7471 7.02519 18.8209 7.12367 18.8455 7.24674L19.1409 8.87132C19.707 8.79748 20.224 8.79748 20.8147 8.87132L21.0855 7.2221C21.1347 6.95134 21.3809 6.77904 21.627 6.82827C22.7347 7.02519 23.7931 7.39441 24.7777 7.96055C24.9992 8.08363 25.0731 8.37903 24.9501 8.60056L24.1131 10.0528C24.5808 10.3728 24.9992 10.7174 25.3931 11.1113L26.6731 10.0282C26.87 9.85591 27.1654 9.88054 27.3377 10.0775C28.0761 10.939 28.6423 11.9236 29.0361 12.9574C29.1346 13.2036 29.0115 13.4743 28.7654 13.5728L27.2146 14.1389C27.3869 14.6805 27.4854 15.2466 27.51 15.7881L29.1592 15.7635C29.2823 15.7635 29.4054 15.8127 29.5038 15.9112C29.6023 16.0097 29.6515 16.1327 29.6515 16.2558C29.6515 17.4127 29.4546 18.5204 29.0607 19.5788C29.0115 19.7019 28.9377 19.8004 28.8146 19.8496C28.6915 19.8988 28.5684 19.8988 28.4454 19.8742L26.87 19.3081C26.6484 19.825 26.3777 20.3173 26.0331 20.7603L27.3131 21.8188C27.51 21.9911 27.5346 22.2865 27.3623 22.4834C26.6484 23.3449 25.7869 24.0588 24.8023 24.6249C24.5808 24.748 24.2854 24.6741 24.1623 24.4526L23.3254 23.0003C22.8331 23.2465 22.2916 23.4434 21.7501 23.5665L22.0455 25.2157C22.0701 25.3388 22.0455 25.4618 21.9716 25.5603C21.8978 25.6587 21.7993 25.7326 21.6762 25.7572C21.1839 25.9787 20.6178 26.028 20.0516 26.028ZM19.0178 24.9941C19.707 25.068 20.3962 25.068 21.0855 24.9941L20.7901 23.3942C20.7409 23.1234 20.9132 22.8772 21.1839 22.8526C21.947 22.7295 22.6608 22.4588 23.3254 22.065C23.4239 21.9911 23.5716 21.9911 23.6947 22.0157C23.8177 22.0403 23.9162 22.1388 23.99 22.2372L24.8023 23.6649C25.3931 23.2957 25.91 22.828 26.3777 22.3357L25.1223 21.2773C25.0239 21.2034 24.9747 21.0804 24.9501 20.9573C24.9501 20.8342 24.9746 20.7111 25.0485 20.6127C25.5408 20.0219 25.91 19.3573 26.1808 18.6435C26.2793 18.3973 26.55 18.2742 26.7962 18.3481L28.3469 18.9142C28.5438 18.2496 28.6669 17.5604 28.7161 16.8466L27.0915 16.8712C26.9439 16.8712 26.8454 16.822 26.7469 16.7235C26.6484 16.6251 26.5992 16.502 26.5992 16.3789C26.5992 15.6158 26.4516 14.8527 26.1808 14.1143C26.1316 13.9912 26.1315 13.8681 26.2054 13.7451C26.2546 13.622 26.3531 13.5482 26.4762 13.4989L28.0023 12.9328C27.7315 12.2928 27.3869 11.702 26.9685 11.1359L25.7131 12.1943C25.5162 12.3667 25.2208 12.342 25.0485 12.1451C24.5562 11.5543 23.9654 11.0621 23.3008 10.6928C23.0793 10.5698 23.0054 10.2744 23.1285 10.0528L23.9408 8.62517C23.3254 8.30518 22.6609 8.08364 21.9963 7.91133L21.7255 9.51131C21.7008 9.63438 21.627 9.75747 21.5285 9.83131C21.4301 9.90516 21.307 9.92976 21.1839 9.90514C20.347 9.75745 19.707 9.75745 18.8947 9.90514C18.7717 9.92976 18.6486 9.90516 18.5502 9.83131C18.4517 9.75747 18.3778 9.65899 18.3532 9.53592L18.0579 7.93594C17.3686 8.08363 16.7286 8.32979 16.1132 8.64978L16.9255 10.0528C17.0486 10.2744 16.9748 10.5698 16.7532 10.6928C16.0886 11.0867 15.4979 11.579 15.0056 12.1697C14.8333 12.3667 14.5379 12.3913 14.341 12.219L13.0856 11.1605C12.6671 11.7266 12.3225 12.3174 12.0518 12.9574L13.6025 13.5236C13.7256 13.5728 13.8241 13.6466 13.8733 13.7697C13.9225 13.8928 13.9225 14.0159 13.8979 14.1389C13.6271 14.8528 13.5041 15.6158 13.5041 16.3543V16.3789C13.5041 16.6497 13.2825 16.8466 13.0364 16.8466H11.4118C11.461 17.5358 11.5841 18.225 11.781 18.8896L13.3071 18.3235C13.5533 18.225 13.8241 18.3481 13.9225 18.6189C14.1933 19.3573 14.5625 20.0219 15.0548 20.5881C15.1286 20.6865 15.1779 20.8096 15.1533 20.9327C15.1287 21.0557 15.0794 21.1788 14.981 21.2526L13.7256 22.3111C14.1933 22.828 14.7348 23.2711 15.3256 23.6403L16.1379 22.2126C16.2117 22.1142 16.3102 22.0157 16.4332 21.9911C16.5563 21.9665 16.6794 21.9665 16.8025 22.0403C17.4671 22.4342 18.1809 22.6803 18.944 22.828C19.2147 22.8772 19.3871 23.1234 19.3378 23.3696L19.0178 24.9941Z" fill="#F49300"/>
</svg>
