<svg width="40" height="40" viewBox="0 0 40 40" fill="none" xmlns="http://www.w3.org/2000/svg">
<path d="M19.9885 21.7847C19.4775 21.7847 18.9664 21.5742 18.5456 21.1835C17.7641 20.402 17.7641 19.1095 18.5456 18.328C19.3271 17.5464 20.6196 17.5464 21.4011 18.328C22.1827 19.1095 22.1827 20.402 21.4011 21.1835C21.0104 21.5742 20.4995 21.7847 19.9885 21.7847ZM19.9885 18.8991C19.7781 18.8991 19.5376 18.9892 19.3873 19.1395C19.0567 19.4702 19.0567 20.0112 19.3873 20.3418C19.718 20.6725 20.259 20.6725 20.5897 20.3418C20.9203 20.0112 20.9203 19.4702 20.5897 19.1395C20.4093 18.9892 20.1989 18.8991 19.9885 18.8991Z" fill="#252525"/>
<path d="M19.9889 40C19.8086 40 19.6583 39.9098 19.5381 39.7896L11.7829 30.3213C11.6327 30.1409 11.6027 29.9005 11.6928 29.69C11.783 29.4796 11.9933 29.3594 12.2037 29.3594H15.7808V10.6331H12.2639C12.0535 10.6331 11.843 10.5129 11.7529 10.3025C11.6627 10.0921 11.6928 9.85159 11.8431 9.67124L19.5981 0.202893C19.8085 -0.067631 20.2894 -0.067631 20.4998 0.202893L28.2549 9.67124C28.4052 9.85159 28.4352 10.0921 28.3451 10.3025C28.2549 10.5129 28.0444 10.6331 27.834 10.6331H24.2571V29.3594H27.8041C28.0145 29.3594 28.2248 29.4796 28.315 29.69C28.4051 29.9005 28.3752 30.1409 28.2249 30.3213L20.4697 39.7896C20.3195 39.9098 20.1392 40 19.9889 40ZM13.4362 30.5317L19.9588 38.4971L26.4814 30.5317H23.5959C23.2653 30.5317 23.0247 30.2611 23.0247 29.9605V10.062C23.0247 9.73137 23.2953 9.49089 23.5959 9.49089H26.5416L20.0189 1.52546L13.4963 9.49089H16.3819C16.7126 9.49089 16.953 9.76143 16.953 10.062V29.9605C16.953 30.2912 16.6825 30.5317 16.3819 30.5317H13.4362Z" fill="#252525"/>
<path d="M29.9379 28.3676C29.8477 28.3676 29.7576 28.3375 29.6975 28.3074C29.4871 28.2173 29.3668 28.0069 29.3668 27.7965V24.2195H10.6406V27.7664C10.6406 27.9768 10.5203 28.1872 10.3099 28.2774C10.0995 28.3676 9.85901 28.3375 9.67866 28.1872L0.21032 20.4322C0.0900866 20.312 0 20.1617 0 19.9813C0 19.801 0.0900866 19.6507 0.21032 19.5304L9.67866 11.7754C9.85901 11.6251 10.0995 11.5951 10.3099 11.6853C10.5203 11.7754 10.6406 11.9858 10.6406 12.1962V15.7732H29.3668V12.2263C29.3668 12.0159 29.4871 11.8055 29.6975 11.7153C29.9079 11.6251 30.1484 11.6552 30.3287 11.8055L35.0478 15.683L39.767 19.5605C39.8872 19.6807 39.9774 19.831 39.9774 20.0114C39.9774 20.1917 39.8872 20.342 39.767 20.4622L30.2986 28.2173C30.2085 28.3075 30.0882 28.3676 29.9379 28.3676ZM10.0394 23.0472H29.9379C30.2685 23.0472 30.5091 23.3178 30.5091 23.6184V26.5641L38.4745 20.0414L30.5091 13.5188V16.4044C30.5091 16.735 30.2385 16.9755 29.9379 16.9755H10.0394C9.70878 16.9755 9.46834 16.705 9.46834 16.4044V13.4587L1.50291 19.9813L9.46834 26.5039V23.6184C9.46834 23.3178 9.73884 23.0472 10.0394 23.0472Z" fill="#F49300"/>
</svg>
