<svg width="45" height="40" viewBox="0 0 45 40" fill="none" xmlns="http://www.w3.org/2000/svg">
<path d="M5.41546 21.2625C5.28257 21.2625 5.1829 21.2292 5.08323 21.1628C4.8839 21.0299 4.78418 20.8305 4.78418 20.6312V17.7408C4.78418 7.9734 12.5583 0 22.0932 0C31.6281 0 39.4021 7.9734 39.4021 17.7408V20.3322C39.4021 20.5648 39.3025 20.7642 39.1032 20.8638C38.9038 20.9967 38.6713 20.9967 38.472 20.897C37.575 20.4651 36.6447 20.1993 35.6812 20.1329C35.349 20.0996 35.0832 19.8339 35.0832 19.5017V17.7408C35.0832 10.3986 29.2693 4.41862 22.0932 4.41862C14.9171 4.41862 9.10312 10.3986 9.10312 17.7408V19.8006C9.10312 20.1329 8.83732 20.4319 8.5051 20.4319C7.54164 20.4984 6.57822 20.7642 5.71443 21.196C5.61476 21.2293 5.51513 21.2625 5.41546 21.2625ZM22.0932 1.26248C13.256 1.26248 6.07991 8.6379 6.07991 17.7077V19.6345C6.64469 19.4352 7.24264 19.2691 7.84064 19.2027V17.7077C7.84064 9.63458 14.2526 3.08972 22.1264 3.08972C30.0001 3.08972 36.4121 9.63458 36.4121 17.7077V18.9036C37.0101 18.9701 37.6081 19.1362 38.1729 19.3355V17.7077C38.1065 8.6379 30.9304 1.26248 22.0932 1.26248Z" fill="#252525"/>
<path d="M9.46845 37.7077H9.06979C4.05318 37.7077 0 33.5216 0 28.4054C0 24.8173 1.96013 21.5947 5.14951 20.0333C6.17941 19.5349 7.27572 19.2359 8.43851 19.1362H8.50494C8.70428 19.1362 8.90363 19.103 9.10297 19.103H9.50162C9.86707 19.103 10.1329 19.402 10.1329 19.7342V37.0432C10.0997 37.4087 9.83389 37.7077 9.46845 37.7077ZM8.83717 20.3987C8.7375 20.3987 8.67112 20.3987 8.57145 20.4319H8.50494C7.54149 20.4984 6.57806 20.7642 5.71427 21.1961C2.99002 22.5582 1.29565 25.3157 1.29565 28.4054C1.29565 32.7243 4.65112 36.2791 8.83717 36.412V20.3987Z" fill="#F49300"/>
<path d="M35.1496 37.4086H34.7508C34.3854 37.4086 34.1196 37.1097 34.1196 36.7774V19.4684C34.1196 19.103 34.4186 18.8372 34.7508 18.8372H35.1496C35.3157 18.8372 35.515 18.8373 35.6811 18.8705H35.7808C36.9103 18.9369 38.0399 19.2359 39.0698 19.7675C42.2259 21.2957 44.2525 24.5847 44.2525 28.1396C44.2193 33.2226 40.133 37.4086 35.1496 37.4086ZM35.3821 20.0997V36.113C39.5682 35.9801 42.9236 32.4252 42.9236 28.1063C42.9236 25.0498 41.1629 22.1927 38.4718 20.8638C37.5748 20.4319 36.6445 20.1661 35.6811 20.0997H35.5814C35.5149 20.0997 35.4485 20.0997 35.3821 20.0997Z" fill="#F49300"/>
<path d="M11.6277 40C10.0994 40 8.83691 38.7376 8.83691 37.2093V20.1661C8.83691 18.6379 10.0994 17.3754 11.6277 17.3754C13.1559 17.3754 14.4183 18.6379 14.4183 20.1661V37.2093C14.4183 38.7708 13.1559 40 11.6277 40ZM11.6277 18.6711C10.7971 18.6711 10.1326 19.3355 10.1326 20.1661V37.2093C10.1326 38.0399 10.7971 38.7043 11.6277 38.7043C12.4582 38.7043 13.1227 38.0399 13.1227 37.2093V20.1661C13.1227 19.3355 12.4582 18.6711 11.6277 18.6711Z" fill="#252525"/>
<path d="M32.5914 39.7011C31.0632 39.7011 29.8008 38.4385 29.8008 36.9103V19.8672C29.8008 18.3389 31.0632 17.0764 32.5914 17.0764C34.1197 17.0764 35.3822 18.3389 35.3822 19.8672V36.9103C35.3822 38.4718 34.1197 39.7011 32.5914 39.7011ZM32.5914 18.3721C31.7609 18.3721 31.0964 19.0366 31.0964 19.8672V36.9103C31.0964 37.7409 31.7609 38.4053 32.5914 38.4053C33.422 38.4053 34.0865 37.7409 34.0865 36.9103V19.8672C34.0865 19.0366 33.422 18.3721 32.5914 18.3721Z" fill="#252525"/>
</svg>
