<svg width="39" height="40" viewBox="0 0 39 40" fill="none" xmlns="http://www.w3.org/2000/svg">
<path d="M19.2467 3.83928C18.9193 3.83928 18.6812 3.57142 18.6812 3.2738V0.565482C18.6812 0.238102 18.9491 0 19.2467 0C19.5443 0 19.8121 0.267864 19.8121 0.565482V3.2738C19.8419 3.60118 19.5741 3.83928 19.2467 3.83928Z" fill="#252525"/>
<path d="M16.0024 40C13.8893 40 12.1929 38.2738 12.1929 36.1905V34.0476C12.1929 33.7203 12.4608 33.4821 12.7584 33.4821C13.0858 33.4821 13.3238 33.75 13.3238 34.0476V36.1905C13.3238 37.6488 14.5143 38.8691 16.0024 38.8691C17.4607 38.8691 18.681 37.6786 18.681 36.1905V21.9346C18.681 21.6072 18.9489 21.3691 19.2465 21.3691C19.5441 21.3691 19.8119 21.6369 19.8119 21.9346V36.1905C19.8417 38.3036 18.1155 40 16.0024 40Z" fill="#252525"/>
<path d="M37.937 22.5297C37.6097 22.5297 37.3716 22.2619 37.3716 21.9643C37.3716 11.9941 29.2466 3.86907 19.2764 3.86907C9.30618 3.86907 1.18118 11.9941 1.18118 21.9643C1.18118 22.2916 0.913357 22.5297 0.615739 22.5297C0.288359 22.5297 0.050293 22.2619 0.050293 21.9643C0.050293 11.3393 8.68121 2.70837 19.3062 2.70837C29.9312 2.70837 38.5621 11.3393 38.5621 21.9643C38.5025 22.2619 38.2347 22.5297 37.937 22.5297Z" fill="#F49300"/>
<path d="M37.9368 22.5297C37.788 22.5297 37.669 22.4702 37.55 22.3809L36.2404 21.2202C34.544 19.7023 31.9845 19.7023 30.288 21.2202L28.9786 22.3809C28.7702 22.5892 28.4428 22.5892 28.2047 22.3809L26.8952 21.2202C25.1988 19.7023 22.6393 19.7023 20.9429 21.2202L19.6333 22.3809C19.425 22.5892 19.0976 22.5892 18.8595 22.3809L17.55 21.2202C15.8535 19.7023 13.294 19.7023 11.5976 21.2202L10.2881 22.3809C10.0798 22.5892 9.75237 22.5892 9.51427 22.3809L8.20478 21.2202C6.50836 19.7023 3.94884 19.7023 2.25241 21.2202L0.942922 22.3809C0.704827 22.5892 0.347627 22.5595 0.139294 22.3214C-0.0690387 22.0833 -0.0392187 21.7261 0.198876 21.5178L1.50837 20.3571C3.65122 18.4523 6.86548 18.4523 9.00834 20.3571L9.93098 21.1904L10.8536 20.3571C12.9964 18.4523 16.2107 18.4523 18.3536 20.3571L19.2762 21.1904L20.1988 20.3571C22.3417 18.4523 25.5559 18.4523 27.6988 20.3571L28.6214 21.1904L29.544 20.3571C31.6869 18.4523 34.9012 18.4523 37.0142 20.3571L38.3237 21.5178C38.5618 21.7261 38.5916 22.0833 38.3833 22.3214C38.2344 22.4404 38.0856 22.5297 37.9368 22.5297Z" fill="#F49300"/>
</svg>
