<svg width="84" height="60" viewBox="0 0 84 60" fill="none" xmlns="http://www.w3.org/2000/svg">
<path fill-rule="evenodd" clip-rule="evenodd" d="M32.6707 15H7.32931C5.59727 15 4.22507 16.4626 4.3354 18.1911L6.6971 55.1911C6.79792 56.7705 8.10835 58 9.69101 58H30.309C31.8916 58 33.202 56.7705 33.3029 55.1911L35.6646 18.1911C35.7749 16.4626 34.4027 15 32.6707 15ZM7.32931 13C4.44258 13 2.15558 15.4376 2.33946 18.3185L4.70117 55.3185C4.86919 57.9509 7.05325 60 9.69101 60H30.309C32.9467 60 35.1308 57.9509 35.2988 55.3185L37.6605 18.3185C37.8444 15.4376 35.5574 13 32.6707 13H7.32931Z" fill="#020202"/>
<path d="M0 8C0 7.44772 0.447715 7 1 7H39C39.5523 7 40 7.44772 40 8V15C40 15.5523 39.5523 16 39 16H0.999999C0.447714 16 0 15.5523 0 15V8Z" fill="white"/>
<path fill-rule="evenodd" clip-rule="evenodd" d="M2 9V14H38V9H2ZM1 7C0.447715 7 0 7.44772 0 8V15C0 15.5523 0.447714 16 0.999999 16H39C39.5523 16 40 15.5523 40 15V8C40 7.44772 39.5523 7 39 7H1Z" fill="#020202"/>
<path d="M7 4.5C7 2.01472 9.01472 0 11.5 0H28.5C30.9853 0 33 2.01472 33 4.5C33 6.98528 30.9853 9 28.5 9H11.5C9.01472 9 7 6.98528 7 4.5Z" fill="white"/>
<path fill-rule="evenodd" clip-rule="evenodd" d="M28.5 2H11.5C10.1193 2 9 3.11929 9 4.5C9 5.88071 10.1193 7 11.5 7H28.5C29.8807 7 31 5.88071 31 4.5C31 3.11929 29.8807 2 28.5 2ZM11.5 0C9.01472 0 7 2.01472 7 4.5C7 6.98528 9.01472 9 11.5 9H28.5C30.9853 9 33 6.98528 33 4.5C33 2.01472 30.9853 0 28.5 0H11.5Z" fill="#020202"/>
<path fill-rule="evenodd" clip-rule="evenodd" d="M76.6707 15H51.3293C49.5973 15 48.2251 16.4626 48.3354 18.1911L50.6971 55.1911C50.7979 56.7705 52.1084 58 53.691 58H74.309C75.8916 58 77.202 56.7705 77.3029 55.1911L79.6646 18.1911C79.7749 16.4626 78.4027 15 76.6707 15ZM51.3293 13C48.4426 13 46.1556 15.4376 46.3395 18.3185L48.7012 55.3185C48.8692 57.9509 51.0532 60 53.691 60H74.309C76.9467 60 79.1308 57.9509 79.2988 55.3185L81.6605 18.3185C81.8444 15.4376 79.5574 13 76.6707 13H51.3293Z" fill="#F49300"/>
<path d="M44 8C44 7.44772 44.4477 7 45 7H83C83.5523 7 84 7.44772 84 8V15C84 15.5523 83.5523 16 83 16H45C44.4477 16 44 15.5523 44 15V8Z" fill="white"/>
<path fill-rule="evenodd" clip-rule="evenodd" d="M46 9V14H82V9H46ZM45 7C44.4477 7 44 7.44772 44 8V15C44 15.5523 44.4477 16 45 16H83C83.5523 16 84 15.5523 84 15V8C84 7.44772 83.5523 7 83 7H45Z" fill="#F49300"/>
<path d="M51 4.5C51 2.01472 53.0147 0 55.5 0H72.5C74.9853 0 77 2.01472 77 4.5C77 6.98528 74.9853 9 72.5 9H55.5C53.0147 9 51 6.98528 51 4.5Z" fill="white"/>
<path fill-rule="evenodd" clip-rule="evenodd" d="M72.5 2H55.5C54.1193 2 53 3.11929 53 4.5C53 5.88071 54.1193 7 55.5 7H72.5C73.8807 7 75 5.88071 75 4.5C75 3.11929 73.8807 2 72.5 2ZM55.5 0C53.0147 0 51 2.01472 51 4.5C51 6.98528 53.0147 9 55.5 9H72.5C74.9853 9 77 6.98528 77 4.5C77 2.01472 74.9853 0 72.5 0H55.5Z" fill="#F49300"/>
<path fill-rule="evenodd" clip-rule="evenodd" d="M27.0711 42.3431L20.7072 48.7071C20.3166 49.0976 19.6835 49.0976 19.2929 48.7071L12.929 42.3431C12.5385 41.9526 12.5385 41.3195 12.929 40.9289C13.3195 40.5384 13.9527 40.5384 14.3432 40.9289L19.0001 45.5858L19.0001 27L21.0001 27L21.0001 45.5858L25.6569 40.9289C26.0474 40.5384 26.6806 40.5384 27.0711 40.9289C27.4616 41.3195 27.4616 41.9526 27.0711 42.3431Z" fill="#F49300"/>
<path fill-rule="evenodd" clip-rule="evenodd" d="M71.0711 42.3431L64.7072 48.7071C64.3166 49.0976 63.6835 49.0976 63.2929 48.7071L56.929 42.3431C56.5385 41.9526 56.5385 41.3195 56.929 40.9289C57.3195 40.5384 57.9527 40.5384 58.3432 40.9289L63.0001 45.5858L63.0001 27L65.0001 27L65.0001 45.5858L69.6569 40.9289C70.0474 40.5384 70.6806 40.5384 71.0711 40.9289C71.4616 41.3195 71.4616 41.9526 71.0711 42.3431Z" fill="black"/>
</svg>
