<svg width="122" height="40" viewBox="0 0 122 40" fill="none" xmlns="http://www.w3.org/2000/svg">
<path d="M79.2252 24.2129H76.2228V2.71169H68.5715C68.3778 4.35818 68.1841 6.10152 67.8935 7.94172C67.603 9.78191 67.4093 11.5253 67.1187 13.1717C66.8282 14.8182 66.6344 16.271 66.3439 17.4332C66.0533 18.9829 65.6659 20.242 65.2785 21.3073C64.8911 22.3727 64.31 23.1475 63.5352 23.7286C62.8572 24.3098 61.8887 24.5035 60.7265 24.5035C60.339 24.5035 59.9516 24.5035 59.5642 24.4066C59.1768 24.3098 58.8863 24.2129 58.5957 24.116V21.5979C58.8863 21.6947 59.08 21.7916 59.4674 21.8884C59.7579 21.9853 60.1453 21.9853 60.4359 21.9853C61.1139 21.9853 61.5981 21.6947 61.9855 21.2105C62.3729 20.6294 62.6635 19.9514 62.9541 19.1766C63.1478 18.3049 63.3415 17.5301 63.5352 16.7553C63.7289 15.8836 63.9226 14.6245 64.2131 12.978C64.5037 11.3315 64.7942 9.3945 65.0848 7.1669C65.3754 4.93929 65.7628 2.61484 66.0533 0.0966797H79.2252V24.2129ZM100.339 24.2129H86.8766V0.0966797H100.339V2.80854H89.879V10.363H99.7579V12.978H89.879V21.5979H100.339V24.2129ZM114.286 24.2129H111.283V2.71169H103.729V0.0966797H121.84V2.80854H114.286V24.2129Z" fill="white"/>
<path d="M65.3751 27.7967V36.4166H66.6342V40.0001H65.472V37.482H58.7892V40.0001H57.627V36.4166H58.4018C58.6923 35.8355 59.0797 35.2544 59.3703 34.5764C59.6609 33.8984 59.9514 33.1236 60.1451 32.4456C60.3388 31.6708 60.5325 30.896 60.7262 30.1212C60.8231 29.3464 60.9199 28.5715 61.0168 27.8936H65.3751V27.7967ZM61.9853 28.8621C61.9853 29.3464 61.8885 30.0243 61.6948 30.6054C61.5979 31.2834 61.4042 31.9614 61.2105 32.6393C61.0168 33.3173 60.7262 33.9953 60.5325 34.6732C60.242 35.3512 60.0483 35.8355 59.7577 36.3197H64.3098V28.8621H61.9853ZM76.7069 32.5425C76.7069 33.511 76.5132 34.3827 76.2226 35.1575C75.932 35.9323 75.3509 36.5134 74.7698 36.9008C74.0918 37.2883 73.317 37.482 72.3485 37.482C71.38 37.482 70.5083 37.2883 69.8303 36.9008C69.1524 36.5134 68.6681 35.9323 68.3776 35.1575C68.087 34.3827 67.8933 33.511 67.8933 32.5425C67.8933 31.574 68.087 30.7023 68.3776 29.9275C68.6681 29.1527 69.1524 28.5716 69.8303 28.1841C70.5083 27.7967 71.38 27.603 72.3485 27.603C73.317 27.603 74.0918 27.7967 74.7698 28.1841C75.4478 28.5716 75.932 29.1527 76.2226 29.9275C76.5132 30.7023 76.7069 31.574 76.7069 32.5425ZM69.0555 32.5425C69.0555 33.8016 69.3461 34.6732 69.8303 35.4481C70.3146 36.126 71.1863 36.5134 72.2516 36.5134C73.317 36.5134 74.1887 36.126 74.673 35.4481C75.1572 34.7701 75.4478 33.8016 75.4478 32.5425C75.4478 31.2834 75.1572 30.4117 74.673 29.7338C74.1887 29.0558 73.4139 28.6684 72.2516 28.6684C71.1863 28.6684 70.3146 29.0558 69.8303 29.7338C69.3461 30.4117 69.0555 31.3803 69.0555 32.5425ZM81.5495 27.7967C82.7117 27.7967 83.6802 27.9904 84.2613 28.3778C84.8425 28.7653 85.2299 29.3464 85.2299 30.218C85.2299 30.7992 85.0362 31.2834 84.7456 31.6708C84.455 32.0582 83.9708 32.2519 83.3897 32.3488V32.4456C83.7771 32.5425 84.1645 32.6393 84.455 32.8331C84.7456 33.0268 85.0362 33.2205 85.2299 33.6079C85.4236 33.8984 85.5204 34.2858 85.5204 34.867C85.5204 35.7386 85.2299 36.4166 84.6487 36.9008C84.0676 37.3851 83.196 37.5788 82.2274 37.5788H78.8376V27.8936H81.5495V27.7967ZM81.84 31.8645C82.7117 31.8645 83.196 31.7677 83.5834 31.4771C83.8739 31.1866 84.0676 30.7992 84.0676 30.3149C84.0676 29.8306 83.8739 29.4432 83.4865 29.1527C83.0991 28.959 82.518 28.7653 81.7432 28.7653H80.1935V31.8645H81.84ZM79.9998 32.9299V36.4166H81.9369C82.8086 36.4166 83.3897 36.2229 83.6802 35.9323C83.9708 35.6418 84.1645 35.1575 84.1645 34.5764C84.1645 34.0921 83.9708 33.7047 83.6802 33.3173C83.2928 33.0268 82.7117 32.8331 81.84 32.8331H79.9998V32.9299ZM92.978 37.3851H87.5543V27.6999H92.978V28.7653H88.8134V31.7677H92.7843V32.9299H88.8134V36.4166H92.978V37.3851ZM97.7238 27.7967C98.9829 27.7967 99.9514 28.0873 100.533 28.5716C101.114 29.0558 101.404 29.7338 101.404 30.7023C101.404 31.1866 101.307 31.7677 101.017 32.2519C100.823 32.7362 100.339 33.1236 99.8546 33.4142C99.2734 33.7047 98.4986 33.8016 97.5301 33.8016H96.4647V37.5788H95.2057V27.8936H97.7238V27.7967ZM97.627 28.7653H96.3679V32.5425H97.3364C98.3049 32.5425 98.9829 32.3488 99.3703 32.0582C99.8546 31.7677 100.048 31.2834 100.048 30.5086C100.048 29.9275 99.8546 29.4432 99.4671 29.1527C99.0797 28.959 98.4986 28.7653 97.627 28.7653ZM103.341 27.7967H104.503V33.1236C104.503 33.4142 104.503 33.8016 104.503 34.0921C104.503 34.4795 104.503 34.7701 104.503 35.0607C104.503 35.3512 104.503 35.5449 104.503 35.7386H104.6L109.927 27.6999H111.283V37.3851H110.121V32.1551C110.121 31.8645 110.121 31.4771 110.121 31.0897C110.121 30.7023 110.121 30.4117 110.218 30.0243C110.218 29.7338 110.218 29.4432 110.218 29.3464H110.121L104.794 37.3851H103.438V27.7967H103.341ZM116.61 33.4142L114.092 37.3851H112.639L115.351 33.1236C114.964 33.0268 114.673 32.8331 114.382 32.6393C114.092 32.4456 113.801 32.1551 113.608 31.7677C113.414 31.3803 113.317 30.896 113.317 30.4117C113.317 29.5401 113.608 28.8621 114.189 28.3778C114.77 27.8936 115.738 27.6999 116.901 27.6999H119.612V37.3851H118.353V33.4142H116.61ZM117.094 28.7653C116.319 28.7653 115.738 28.8621 115.351 29.1527C114.964 29.4432 114.77 29.8306 114.77 30.5086C114.77 31.0897 114.964 31.574 115.351 31.8645C115.738 32.1551 116.319 32.3488 117.191 32.3488H118.644V28.7653H117.094Z" fill="white"/>
<g clip-path="url(#clip0)">
<path d="M14.8 0.100098H13.8L2.3 9.2001L0 11.0001L1.8 13.2001L5.2 17.5001L7 19.7001L9.2 17.9001L10.6 16.8001C10.6 16.8001 10.6 16.8001 10.6 16.9001V36.1001V39.0001H13.5H20.5H23.4V36.1001V3.0001V0.100098H20.5H14.8Z" fill="white"/>
<path d="M20.4999 36.1999H13.4999V16.8999C13.4999 16.0999 13.4999 15.0999 13.4999 13.6999C13.5999 12.3999 13.5999 11.2999 13.5999 10.1999C13.3999 10.3999 13.0999 10.6999 12.4999 11.2999C11.9999 11.7999 11.4999 12.1999 11.0999 12.5999L7.2999 15.6999L3.8999 11.3999L14.5999 2.8999H20.3999V36.1999H20.4999Z" fill="#F47321"/>
<path d="M40.3998 39C38.1998 39 36.2998 38.7 34.5998 38.1C32.7998 37.5 31.2998 36.6 30.0998 35.6C28.7998 34.5 27.8998 33.2 27.1998 31.7C26.5998 30.3 26.2998 28.7 26.2998 27.2C26.2998 24.6 26.9998 22.3 28.3998 20.5C28.7998 19.9 29.2998 19.3 29.8998 18.8C29.4998 18.3 29.1998 17.8 28.8998 17.3C27.8998 15.6 27.3998 13.8 27.3998 11.9C27.3998 10.1 27.7998 8.4 28.4998 6.9C29.1998 5.4 30.2998 4.2 31.4998 3.1C32.6998 2.1 34.1998 1.3 35.8998 0.8C37.2998 0.3 38.9998 0 40.7998 0C42.7998 0 44.5998 0.3 46.1998 0.9C47.7998 1.5 49.1998 2.3 50.2998 3.3C51.3998 4.3 52.2998 5.6 52.8998 6.9C53.4998 8.2 53.7998 9.6 53.7998 11.1C53.7998 12.9 53.2998 14.7 52.3998 16.4C52.0998 17 51.6998 17.5 51.2998 18C51.7998 18.4 52.1998 18.9 52.5998 19.4C54.0998 21.3 54.8998 23.6 54.8998 26.4C54.8998 28.3 54.4998 30 53.7998 31.6C53.0998 33.2 51.9998 34.5 50.5998 35.7C49.2998 36.8 47.7998 37.6 45.9998 38.2C44.2998 38.7 42.3998 39 40.3998 39Z" fill="white"/>
<path d="M40.8996 3C42.4996 3 43.9996 3.2 45.1996 3.7C46.3996 4.2 47.4996 4.8 48.2996 5.5C49.0996 6.3 49.6996 7.1 50.0996 8.1C50.4996 9.1 50.6996 10.1 50.6996 11.1C50.6996 12.4 50.3996 13.7 49.6996 15C48.9996 16.3 47.8996 17.3 46.2996 18.2V18.3C47.7996 19 49.1996 20 50.1996 21.3C51.2996 22.6 51.7996 24.3 51.7996 26.4C51.7996 27.8 51.4996 29.2 50.9996 30.3C50.3996 31.5 49.6996 32.5 48.5996 33.3C47.5996 34.1 46.3996 34.8 44.9996 35.2C43.5996 35.7 42.0996 35.9 40.2996 35.9C38.4996 35.9 36.7996 35.7 35.3996 35.2C33.9996 34.7 32.7996 34.1 31.8996 33.2C30.9996 32.4 30.2996 31.4 29.7996 30.4C29.2996 29.3 29.0996 28.2 29.0996 27.1C29.0996 25.1 29.5996 23.5 30.5996 22.1C31.5996 20.8 32.8996 19.7 34.4996 18.9V18.8C33.0996 18 31.9996 17 31.2996 15.7C30.5996 14.5 30.1996 13.2 30.1996 11.8C30.1996 10.5 30.4996 9.2 30.9996 8.2C31.4996 7.2 32.2996 6.2 33.1996 5.4C34.1996 4.6 35.2996 4 36.5996 3.6C37.9996 3.2 39.2996 3 40.8996 3ZM40.5996 31.1C41.7996 31.1 42.7996 30.7 43.5996 29.9C44.2996 29.1 44.6996 28.1 44.6996 26.9C44.6996 25.5 44.1996 24.3 43.2996 23.4C42.3996 22.5 41.2996 21.9 39.9996 21.5C38.8996 21.9 37.9996 22.5 37.3996 23.4C36.7996 24.3 36.4996 25.3 36.4996 26.5C36.4996 27.1 36.5996 27.7 36.7996 28.3C36.9996 28.9 37.2996 29.4 37.5996 29.8C37.9996 30.2 38.3996 30.6 38.8996 30.8C39.2996 30.9 39.8996 31.1 40.5996 31.1ZM40.4996 7.8C39.2996 7.8 38.3996 8.2 37.7996 8.9C37.1996 9.7 36.8996 10.5 36.8996 11.5C36.8996 12.6 37.2996 13.5 38.0996 14.3C38.8996 15 39.8996 15.6 41.0996 16.1C41.8996 15.8 42.5996 15.3 43.1996 14.5C43.7996 13.7 44.0996 12.9 44.0996 11.9C44.0996 10.9 43.7996 10 43.2996 9.1C42.6996 8.2 41.7996 7.8 40.4996 7.8Z" fill="#F47321"/>
</g>
<defs>
<clipPath id="clip0">
<rect width="54.9" height="39" fill="white"/>
</clipPath>
</defs>
</svg>
