<svg width="122" height="40" viewBox="0 0 122 40" fill="none" xmlns="http://www.w3.org/2000/svg">
<g clip-path="url(#clip0)">
<path d="M14.8184 0H13.8499L2.32446 9.10412L0 10.9443L1.84019 13.1719L5.23002 17.4334L7.07022 19.661L9.29782 17.8208L10.6538 16.7554C10.6538 16.7554 10.6538 16.7554 10.6538 16.8523V36.0291V38.9346H13.5593H20.5327H23.4383V36.0291V2.90557V0H20.5327H14.8184Z" fill="white"/>
<path d="M52.9781 0H29.2493H26.3438V2.90557V8.81356V11.7191H29.2493H41.0653L30.5084 34.8668L28.6682 38.9346H33.2203H40.581H42.5181L43.2929 37.1913L55.8837 7.94189V7.36077V2.90557V0H52.9781Z" fill="white"/>
<path d="M20.5328 36.1258H13.5594V16.8522C13.5594 16.0774 13.5594 15.012 13.5594 13.6561C13.6562 12.397 13.6562 11.2347 13.6562 10.1694C13.4625 10.3631 13.172 10.6536 12.5909 11.2347C12.1066 11.719 11.6224 12.1064 11.2349 12.4938L7.4577 15.5931L4.06787 11.3316L14.7216 2.80859H20.5328V36.1258ZM33.1236 36.1258L45.6175 8.81344H29.2495V2.90545H53.0751V7.36065L40.4843 36.1258H33.1236Z" fill="#F47321"/>
<path d="M79.2252 24.2129H76.2228V2.71169H68.5715C68.3778 4.35818 68.1841 6.10152 67.8935 7.94172C67.603 9.78191 67.4093 11.5253 67.1187 13.1717C66.8282 14.8182 66.6344 16.271 66.3439 17.4332C66.0533 18.9829 65.6659 20.242 65.2785 21.3073C64.8911 22.3727 64.31 23.1475 63.5352 23.7286C62.8572 24.3098 61.8887 24.5035 60.7265 24.5035C60.339 24.5035 59.9516 24.5035 59.5642 24.4066C59.1768 24.3098 58.8863 24.2129 58.5957 24.116V21.5979C58.8863 21.6947 59.08 21.7916 59.4674 21.8884C59.7579 21.9853 60.1453 21.9853 60.4359 21.9853C61.1139 21.9853 61.5981 21.6947 61.9855 21.2105C62.3729 20.6294 62.6635 19.9514 62.9541 19.1766C63.1478 18.3049 63.3415 17.5301 63.5352 16.7553C63.7289 15.8836 63.9226 14.6245 64.2131 12.978C64.5037 11.3315 64.7942 9.3945 65.0848 7.1669C65.3754 4.93929 65.7628 2.61484 66.0533 0.0966797H79.2252V24.2129ZM100.339 24.2129H86.8766V0.0966797H100.339V2.80854H89.879V10.363H99.7579V12.978H89.879V21.5979H100.339V24.2129ZM114.286 24.2129H111.283V2.71169H103.729V0.0966797H121.84V2.80854H114.286V24.2129Z" fill="white"/>
<path d="M65.3751 27.7967V36.4166H66.6342V40.0001H65.472V37.482H58.7892V40.0001H57.627V36.4166H58.4018C58.6923 35.8355 59.0797 35.2544 59.3703 34.5764C59.6609 33.8984 59.9514 33.1236 60.1451 32.4456C60.3388 31.6708 60.5325 30.896 60.7262 30.1212C60.8231 29.3464 60.9199 28.5715 61.0168 27.8936H65.3751V27.7967ZM61.9853 28.8621C61.9853 29.3464 61.8885 30.0243 61.6948 30.6054C61.5979 31.2834 61.4042 31.9614 61.2105 32.6393C61.0168 33.3173 60.7262 33.9953 60.5325 34.6732C60.242 35.3512 60.0483 35.8355 59.7577 36.3197H64.3098V28.8621H61.9853ZM76.7069 32.5425C76.7069 33.511 76.5132 34.3827 76.2226 35.1575C75.932 35.9323 75.3509 36.5134 74.7698 36.9008C74.0918 37.2883 73.317 37.482 72.3485 37.482C71.38 37.482 70.5083 37.2883 69.8303 36.9008C69.1524 36.5134 68.6681 35.9323 68.3776 35.1575C68.087 34.3827 67.8933 33.511 67.8933 32.5425C67.8933 31.574 68.087 30.7023 68.3776 29.9275C68.6681 29.1527 69.1524 28.5716 69.8303 28.1841C70.5083 27.7967 71.38 27.603 72.3485 27.603C73.317 27.603 74.0918 27.7967 74.7698 28.1841C75.4478 28.5716 75.932 29.1527 76.2226 29.9275C76.5132 30.7023 76.7069 31.574 76.7069 32.5425ZM69.0555 32.5425C69.0555 33.8016 69.3461 34.6732 69.8303 35.4481C70.3146 36.126 71.1863 36.5134 72.2516 36.5134C73.317 36.5134 74.1887 36.126 74.673 35.4481C75.1572 34.7701 75.4478 33.8016 75.4478 32.5425C75.4478 31.2834 75.1572 30.4117 74.673 29.7338C74.1887 29.0558 73.4139 28.6684 72.2516 28.6684C71.1863 28.6684 70.3146 29.0558 69.8303 29.7338C69.3461 30.4117 69.0555 31.3803 69.0555 32.5425ZM81.5495 27.7967C82.7117 27.7967 83.6802 27.9904 84.2613 28.3778C84.8425 28.7653 85.2299 29.3464 85.2299 30.218C85.2299 30.7992 85.0362 31.2834 84.7456 31.6708C84.455 32.0582 83.9708 32.2519 83.3897 32.3488V32.4456C83.7771 32.5425 84.1645 32.6393 84.455 32.8331C84.7456 33.0268 85.0362 33.2205 85.2299 33.6079C85.4236 33.8984 85.5204 34.2858 85.5204 34.867C85.5204 35.7386 85.2299 36.4166 84.6487 36.9008C84.0676 37.3851 83.196 37.5788 82.2274 37.5788H78.8376V27.8936H81.5495V27.7967ZM81.84 31.8645C82.7117 31.8645 83.196 31.7677 83.5834 31.4771C83.8739 31.1866 84.0676 30.7992 84.0676 30.3149C84.0676 29.8306 83.8739 29.4432 83.4865 29.1527C83.0991 28.959 82.518 28.7653 81.7432 28.7653H80.1935V31.8645H81.84ZM79.9998 32.9299V36.4166H81.9369C82.8086 36.4166 83.3897 36.2229 83.6802 35.9323C83.9708 35.6418 84.1645 35.1575 84.1645 34.5764C84.1645 34.0921 83.9708 33.7047 83.6802 33.3173C83.2928 33.0268 82.7117 32.8331 81.84 32.8331H79.9998V32.9299ZM92.978 37.3851H87.5543V27.6999H92.978V28.7653H88.8134V31.7677H92.7843V32.9299H88.8134V36.4166H92.978V37.3851ZM97.7238 27.7967C98.9829 27.7967 99.9514 28.0873 100.533 28.5716C101.114 29.0558 101.404 29.7338 101.404 30.7023C101.404 31.1866 101.307 31.7677 101.017 32.2519C100.823 32.7362 100.339 33.1236 99.8546 33.4142C99.2734 33.7047 98.4986 33.8016 97.5301 33.8016H96.4647V37.5788H95.2057V27.8936H97.7238V27.7967ZM97.627 28.7653H96.3679V32.5425H97.3364C98.3049 32.5425 98.9829 32.3488 99.3703 32.0582C99.8546 31.7677 100.048 31.2834 100.048 30.5086C100.048 29.9275 99.8546 29.4432 99.4671 29.1527C99.0797 28.959 98.4986 28.7653 97.627 28.7653ZM103.341 27.7967H104.503V33.1236C104.503 33.4142 104.503 33.8016 104.503 34.0921C104.503 34.4795 104.503 34.7701 104.503 35.0607C104.503 35.3512 104.503 35.5449 104.503 35.7386H104.6L109.927 27.6999H111.283V37.3851H110.121V32.1551C110.121 31.8645 110.121 31.4771 110.121 31.0897C110.121 30.7023 110.121 30.4117 110.218 30.0243C110.218 29.7338 110.218 29.4432 110.218 29.3464H110.121L104.794 37.3851H103.438V27.7967H103.341ZM116.61 33.4142L114.092 37.3851H112.639L115.351 33.1236C114.964 33.0268 114.673 32.8331 114.382 32.6393C114.092 32.4456 113.801 32.1551 113.608 31.7677C113.414 31.3803 113.317 30.896 113.317 30.4117C113.317 29.5401 113.608 28.8621 114.189 28.3778C114.77 27.8936 115.738 27.6999 116.901 27.6999H119.612V37.3851H118.353V33.4142H116.61ZM117.094 28.7653C116.319 28.7653 115.738 28.8621 115.351 29.1527C114.964 29.4432 114.77 29.8306 114.77 30.5086C114.77 31.0897 114.964 31.574 115.351 31.8645C115.738 32.1551 116.319 32.3488 117.191 32.3488H118.644V28.7653H117.094Z" fill="white"/>
</g>
<defs>
<clipPath id="clip0">
<rect width="121.743" height="40" fill="white"/>
</clipPath>
</defs>
</svg>
