<svg width="127" height="41" viewBox="0 0 127 41" fill="none" xmlns="http://www.w3.org/2000/svg">
<path d="M84.3482 24.2407H81.3459V2.73953H73.6945C73.5008 4.38602 73.3071 6.12936 73.0166 7.96955C72.726 9.80972 72.5322 11.5531 72.2417 13.1996C71.9511 14.846 71.7575 16.2988 71.4669 17.4611C71.1764 19.0107 70.789 20.2698 70.4016 21.3351C70.0142 22.4005 69.433 23.1753 68.6582 23.7565C67.9802 24.3376 67.0116 24.5313 65.8494 24.5313C65.462 24.5313 65.0747 24.5313 64.6873 24.4344C64.2999 24.3376 64.0092 24.2407 63.7188 24.1439V21.6257C64.0092 21.7226 64.203 21.8194 64.5904 21.9163C64.881 22.0131 65.2683 22.0131 65.5588 22.0131C66.2368 22.0131 66.7212 21.7226 67.1086 21.2383C67.496 20.6572 67.7865 19.9792 68.0771 19.2044C68.2708 18.3327 68.4645 17.5579 68.6582 16.7831C68.8519 15.9114 69.0455 14.6523 69.3361 13.0058C69.6266 11.3594 69.9173 9.42232 70.2079 7.19473C70.4984 4.96713 70.8857 2.64267 71.1763 0.124512H84.3482V24.2407ZM105.462 24.2407H91.9996V0.124512H105.462V2.83638H95.0019V10.3908H104.881V13.0058H95.0019V21.6257H105.462V24.2407ZM119.409 24.2407H116.406V2.73953H108.852V0.124512H126.963V2.83638H119.409V24.2407Z" fill="white"/>
<path d="M70.4982 27.8246V36.4445H71.7573V40.028H70.595V37.5099H63.9122V40.028H62.75V36.4445H63.5248C63.8154 35.8634 64.2028 35.2823 64.4933 34.6043C64.7839 33.9263 65.0745 33.1515 65.2682 32.4736C65.4619 31.6987 65.6556 30.9239 65.8493 30.1491C65.9461 29.3743 66.043 28.5995 66.1398 27.9215H70.4982V27.8246ZM67.1084 28.89C67.1084 29.3743 67.0115 30.0523 66.8178 30.6334C66.7209 31.3113 66.5272 31.9893 66.3335 32.6673C66.1398 33.3452 65.8493 34.0232 65.6556 34.7012C65.365 35.3791 65.1713 35.8634 64.8808 36.3477H69.4328V28.89H67.1084ZM81.8299 32.5704C81.8299 33.5389 81.6362 34.4106 81.3456 35.1854C81.0551 35.9602 80.474 36.5414 79.8929 36.9288C79.2149 37.3162 78.4401 37.5099 77.4715 37.5099C76.503 37.5099 75.6314 37.3162 74.9534 36.9288C74.2754 36.5414 73.7912 35.9602 73.5006 35.1854C73.21 34.4106 73.0163 33.5389 73.0163 32.5704C73.0163 31.6019 73.21 30.7302 73.5006 29.9554C73.7912 29.1806 74.2754 28.5995 74.9534 28.2121C75.6314 27.8246 76.503 27.6309 77.4715 27.6309C78.4401 27.6309 79.2149 27.8246 79.8929 28.2121C80.5708 28.5995 81.0551 29.1806 81.3456 29.9554C81.6362 30.7302 81.8299 31.6019 81.8299 32.5704ZM74.1786 32.5704C74.1786 33.8295 74.4691 34.7012 74.9534 35.476C75.4377 36.1539 76.3093 36.5414 77.3747 36.5414C78.4401 36.5414 79.3117 36.1539 79.796 35.476C80.2803 34.798 80.5708 33.8295 80.5708 32.5704C80.5708 31.3113 80.2803 30.4397 79.796 29.7617C79.3117 29.0837 78.5369 28.6963 77.3747 28.6963C76.3093 28.6963 75.4377 29.0837 74.9534 29.7617C74.4691 30.4397 74.1786 31.4082 74.1786 32.5704ZM86.6725 27.8246C87.8347 27.8246 88.8033 28.0184 89.3844 28.4058C89.9655 28.7932 90.3529 29.3743 90.3529 30.246C90.3529 30.8271 90.1592 31.3113 89.8686 31.6987C89.5781 32.0861 89.0938 32.2799 88.5127 32.3767V32.4736C88.9001 32.5704 89.2875 32.6673 89.5781 32.861C89.8686 33.0547 90.1592 33.2484 90.3529 33.6358C90.5466 33.9263 90.6435 34.3138 90.6435 34.8949C90.6435 35.7665 90.3529 36.4445 89.7718 36.9288C89.1907 37.413 88.319 37.6067 87.3505 37.6067H83.9607V27.9215H86.6725V27.8246ZM86.9631 31.8924C87.8347 31.8924 88.319 31.7956 88.7064 31.505C88.997 31.2145 89.1907 30.8271 89.1907 30.3428C89.1907 29.8585 88.997 29.4711 88.6096 29.1806C88.2222 28.9869 87.641 28.7932 86.8662 28.7932H85.3166V31.8924H86.9631ZM85.1229 32.9578V36.4445H87.0599C87.9316 36.4445 88.5127 36.2508 88.8033 35.9602C89.0938 35.6697 89.2875 35.1854 89.2875 34.6043C89.2875 34.12 89.0938 33.7326 88.8033 33.3452C88.4159 33.0547 87.8347 32.861 86.9631 32.861H85.1229V32.9578ZM98.1011 37.413H92.6774V27.7278H98.1011V28.7932H93.9364V31.7956H97.9074V32.9578H93.9364V36.4445H98.1011V37.413ZM102.847 27.8246C104.106 27.8246 105.074 28.1152 105.656 28.5995C106.237 29.0837 106.527 29.7617 106.527 30.7302C106.527 31.2145 106.43 31.7956 106.14 32.2799C105.946 32.7641 105.462 33.1515 104.978 33.4421C104.396 33.7326 103.622 33.8295 102.653 33.8295H101.588V37.6067H100.329V27.9215H102.847V27.8246ZM102.75 28.7932H101.491V32.5704H102.459C103.428 32.5704 104.106 32.3767 104.493 32.0861C104.978 31.7956 105.171 31.3113 105.171 30.5365C105.171 29.9554 104.978 29.4711 104.59 29.1806C104.203 28.9869 103.622 28.7932 102.75 28.7932ZM108.464 27.8246H109.627V33.1515C109.627 33.4421 109.627 33.8295 109.627 34.12C109.627 34.5075 109.627 34.798 109.627 35.0886C109.627 35.3791 109.627 35.5728 109.627 35.7665H109.723L115.05 27.7278H116.406V37.413H115.244V32.183C115.244 31.8924 115.244 31.505 115.244 31.1176C115.244 30.7302 115.244 30.4397 115.341 30.0523C115.341 29.7617 115.341 29.4711 115.341 29.3743H115.244L109.917 37.413H108.561V27.8246H108.464ZM121.733 33.4421L119.215 37.413H117.762L120.474 33.1515C120.087 33.0547 119.796 32.861 119.505 32.6673C119.215 32.4736 118.924 32.183 118.731 31.7956C118.537 31.4082 118.44 30.9239 118.44 30.4397C118.44 29.568 118.731 28.89 119.312 28.4058C119.893 27.9215 120.861 27.7278 122.024 27.7278H124.735V37.413H123.476V33.4421H121.733ZM122.217 28.7932C121.443 28.7932 120.861 28.89 120.474 29.1806C120.087 29.4711 119.893 29.8585 119.893 30.5365C119.893 31.1176 120.087 31.6019 120.474 31.8924C120.861 32.183 121.442 32.3767 122.314 32.3767H123.767V28.7932H122.217Z" fill="white"/>
<path d="M26.5837 38.4694H0.106122V32.898L9.60408 23.2939C11.5143 21.3129 13.0531 19.668 14.2204 18.3592C15.3878 17.015 16.2367 15.8122 16.7673 14.751C17.298 13.6544 17.5633 12.4871 17.5633 11.249C17.5633 9.72789 17.1388 8.59592 16.2898 7.85306C15.4762 7.1102 14.3619 6.73877 12.9469 6.73877C11.4966 6.73877 10.0816 7.07483 8.70204 7.74694C7.32245 8.41905 5.87211 9.37415 4.35102 10.6122L0 5.4653C1.06122 4.54558 2.21088 3.67891 3.44898 2.86531C4.68708 2.01633 6.10204 1.34422 7.69388 0.848978C9.32109 0.318366 11.2667 0.0530605 13.5306 0.0530605C16.0068 0.0530605 18.1292 0.512925 19.898 1.43265C21.702 2.31701 23.0816 3.53741 24.0367 5.09388C25.0272 6.61497 25.5225 8.3483 25.5225 10.2939C25.5225 12.381 25.098 14.2912 24.249 16.0245C23.4354 17.7578 22.2327 19.4735 20.6408 21.1714C19.0844 22.8694 17.1918 24.7442 14.9633 26.7959L10.0816 31.3592V31.7306H26.5837V38.4694Z" fill="#F47321"/>
<path d="M56.7365 19.5265C56.7365 23.5946 56.2944 27.0789 55.41 29.9796C54.561 32.8803 53.1638 35.1088 51.2182 36.6653C49.2726 38.2218 46.6903 39 43.4712 39C38.908 39 35.5651 37.2844 33.4427 33.8531C31.3202 30.4218 30.259 25.6463 30.259 19.5265C30.259 15.4585 30.6835 11.9741 31.5325 9.07347C32.3814 6.13741 33.7787 3.89116 35.7243 2.33469C37.6699 0.778231 40.2522 0 43.4712 0C47.9991 0 51.342 1.71565 53.4998 5.14694C55.6576 8.57823 56.7365 13.3714 56.7365 19.5265ZM38.2182 19.5265C38.2182 23.8422 38.5896 27.0966 39.3325 29.2898C40.0753 31.4476 41.4549 32.5265 43.4712 32.5265C45.4522 32.5265 46.8318 31.4476 47.61 29.2898C48.3882 27.132 48.7774 23.8776 48.7774 19.5265C48.7774 15.2109 48.3882 11.9565 47.61 9.76327C46.8318 7.57007 45.4522 6.47347 43.4712 6.47347C41.4549 6.47347 40.0753 7.57007 39.3325 9.76327C38.5896 11.9565 38.2182 15.2109 38.2182 19.5265Z" fill="#F47321"/>
</svg>
