<svg width="126" height="42" viewBox="0 0 126 42" fill="none" xmlns="http://www.w3.org/2000/svg">
<path d="M19.9256 40.32H11.4865V16.9953C11.4865 16.0577 11.4865 14.7684 11.4865 13.1274C11.6037 11.6037 11.6037 10.1972 11.6037 8.90791C11.3693 9.14233 11.0177 9.49395 10.3144 10.1972C9.72837 10.7833 9.14233 11.2521 8.67349 11.7209L4.10233 15.4716L0 10.3144L12.893 0H19.9256V40.32ZM35.1628 40.32L50.2828 7.26698H30.4744V0.117209H59.3079V5.50884L44.0707 40.32H35.1628Z" fill="#F47321"/>
<path d="M83.1574 26.1162H80.1549V4.61501H72.5036C72.3099 6.2615 72.1162 8.00484 71.8257 9.84504C71.5351 11.6852 71.3414 13.4286 71.0508 15.0751C70.7603 16.7215 70.5666 18.1743 70.276 19.3366C69.9855 20.8862 69.5981 22.1453 69.2106 23.2107C68.8232 24.276 68.2421 25.0508 67.4673 25.632C66.7893 26.2131 65.8208 26.4068 64.6586 26.4068C64.2712 26.4068 63.8838 26.4068 63.4964 26.3099C63.1089 26.2131 62.8184 26.1162 62.5278 26.0194V23.5012C62.8184 23.5981 63.0121 23.6949 63.3995 23.7918C63.6901 23.8886 64.0775 23.8886 64.368 23.8886C65.046 23.8886 65.5303 23.5981 65.9177 23.1138C66.3051 22.5327 66.5956 21.8547 66.8862 21.0799C67.0799 20.2082 67.2736 19.4334 67.4673 18.6586C67.661 17.7869 67.8547 16.5278 68.1453 14.8814C68.4358 13.2349 68.7264 11.2978 69.0169 9.07022C69.3075 6.84262 69.6949 4.51816 69.9855 2H83.1574V26.1162ZM104.271 26.1162H90.8087V2H104.271V4.71186H93.8111V12.2663H103.69V14.8814H93.8111V23.5012H104.271V26.1162ZM118.218 26.1162H115.215V4.61501H107.661V2H125.772V4.71186H118.218V26.1162Z" fill="#252525"/>
<path d="M69.3073 29.6997V38.3196H70.5663V41.9031H69.4041V39.385H62.7213V41.9031H61.5591V38.3196H62.3339C62.6245 37.7385 63.0119 37.1574 63.3024 36.4794C63.593 35.8014 63.8835 35.0266 64.0772 34.3487C64.2709 33.5738 64.4647 32.799 64.6584 32.0242C64.7552 31.2494 64.8521 30.4746 64.9489 29.7966H69.3073V29.6997ZM65.9174 30.7651C65.9174 31.2494 65.8206 31.9274 65.6269 32.5085C65.53 33.1864 65.3363 33.8644 65.1426 34.5424C64.9489 35.2203 64.6584 35.8983 64.4647 36.5763C64.1741 37.2542 63.9804 37.7385 63.6898 38.2228H68.2419V30.7651H65.9174ZM80.639 34.4455C80.639 35.414 80.4453 36.2857 80.1547 37.0605C79.8642 37.8353 79.2831 38.4165 78.7019 38.8039C78.024 39.1913 77.2492 39.385 76.2806 39.385C75.3121 39.385 74.4404 39.1913 73.7625 38.8039C73.0845 38.4165 72.6002 37.8353 72.3097 37.0605C72.0191 36.2857 71.8254 35.414 71.8254 34.4455C71.8254 33.477 72.0191 32.6053 72.3097 31.8305C72.6002 31.0557 73.0845 30.4746 73.7625 30.0872C74.4404 29.6997 75.3121 29.506 76.2806 29.506C77.2492 29.506 78.024 29.6997 78.7019 30.0872C79.3799 30.4746 79.8642 31.0557 80.1547 31.8305C80.4453 32.6053 80.639 33.477 80.639 34.4455ZM72.9877 34.4455C72.9877 35.7046 73.2782 36.5763 73.7625 37.3511C74.2467 38.029 75.1184 38.4165 76.1838 38.4165C77.2492 38.4165 78.1208 38.029 78.6051 37.3511C79.0893 36.6731 79.3799 35.7046 79.3799 34.4455C79.3799 33.1864 79.0893 32.3148 78.6051 31.6368C78.1208 30.9588 77.346 30.5714 76.1838 30.5714C75.1184 30.5714 74.2467 30.9588 73.7625 31.6368C73.2782 32.3148 72.9877 33.2833 72.9877 34.4455ZM85.4816 29.6997C86.6438 29.6997 87.6124 29.8935 88.1935 30.2809C88.7746 30.6683 89.162 31.2494 89.162 32.1211C89.162 32.7022 88.9683 33.1864 88.6777 33.5738C88.3872 33.9612 87.9029 34.155 87.3218 34.2518V34.3487C87.7092 34.4455 88.0966 34.5424 88.3872 34.7361C88.6777 34.9298 88.9683 35.1235 89.162 35.5109C89.3557 35.8014 89.4525 36.1889 89.4525 36.77C89.4525 37.6416 89.162 38.3196 88.5809 38.8039C87.9998 39.2881 87.1281 39.4818 86.1596 39.4818H82.7697V29.7966H85.4816V29.6997ZM85.7722 33.7675C86.6438 33.7675 87.1281 33.6707 87.5155 33.3801C87.8061 33.0896 87.9998 32.7022 87.9998 32.2179C87.9998 31.7336 87.8061 31.3462 87.4186 31.0557C87.0312 30.862 86.4501 30.6683 85.6753 30.6683H84.1257V33.7675H85.7722ZM83.932 34.8329V38.3196H85.869C86.7407 38.3196 87.3218 38.1259 87.6124 37.8353C87.9029 37.5448 88.0966 37.0605 88.0966 36.4794C88.0966 35.9951 87.9029 35.6077 87.6124 35.2203C87.2249 34.9298 86.6438 34.7361 85.7722 34.7361H83.932V34.8329ZM96.9102 39.2881H91.4864V29.6029H96.9102V30.6683H92.7455V33.6707H96.7165V34.8329H92.7455V38.3196H96.9102V39.2881ZM101.656 29.6997C102.915 29.6997 103.884 29.9903 104.465 30.4746C105.046 30.9588 105.336 31.6368 105.336 32.6053C105.336 33.0896 105.239 33.6707 104.949 34.155C104.755 34.6392 104.271 35.0266 103.787 35.3172C103.206 35.6077 102.431 35.7046 101.462 35.7046H100.397V39.4818H99.1378V29.7966H101.656V29.6997ZM101.559 30.6683H100.3V34.4455H101.269C102.237 34.4455 102.915 34.2518 103.302 33.9612C103.787 33.6707 103.98 33.1864 103.98 32.4116C103.98 31.8305 103.787 31.3462 103.399 31.0557C103.012 30.862 102.431 30.6683 101.559 30.6683ZM107.273 29.6997H108.436V35.0266C108.436 35.3172 108.436 35.7046 108.436 35.9951C108.436 36.3826 108.436 36.6731 108.436 36.9637C108.436 37.2542 108.436 37.4479 108.436 37.6416H108.532L113.859 29.6029H115.215V39.2881H114.053V34.0581C114.053 33.7675 114.053 33.3801 114.053 32.9927C114.053 32.6053 114.053 32.3148 114.15 31.9274C114.15 31.6368 114.15 31.3462 114.15 31.2494H114.053L108.726 39.2881H107.37V29.6997H107.273ZM120.542 35.3172L118.024 39.2881H116.571L119.283 35.0266C118.896 34.9298 118.605 34.7361 118.315 34.5424C118.024 34.3487 117.733 34.0581 117.54 33.6707C117.346 33.2833 117.249 32.799 117.249 32.3148C117.249 31.4431 117.54 30.7651 118.121 30.2809C118.702 29.7966 119.67 29.6029 120.833 29.6029H123.545V39.2881H122.285V35.3172H120.542ZM121.026 30.6683C120.252 30.6683 119.67 30.7651 119.283 31.0557C118.896 31.3462 118.702 31.7336 118.702 32.4116C118.702 32.9927 118.896 33.477 119.283 33.7675C119.67 34.0581 120.252 34.2518 121.123 34.2518H122.576V30.6683H121.026Z" fill="#252525"/>
</svg>
