<svg width="27" height="27" viewBox="0 0 27 27" fill="none" xmlns="http://www.w3.org/2000/svg">
<path d="M25.1595 22.2221C24.0863 23.6842 22.2074 25.8234 20.3272 25.9459C20.2155 25.9532 20.1077 25.9616 19.9965 25.9747C14.4402 26.6316 1.0725 14.3274 1.0725 7.00682C0.938658 4.83113 3.2314 2.87267 4.757 1.81819C5.50781 1.29923 6.50157 1.47112 7.11705 2.14507L10.7955 6.17302C11.4726 6.91445 11.495 8.04299 10.8479 8.81071L9.92565 9.90484C9.50396 10.4051 9.33873 11.0871 9.60445 11.685C10.6877 14.1224 13.2379 16.4951 15.149 17.3407C15.7088 17.5883 16.3342 17.3949 16.7884 16.9846L17.9285 15.9549C18.689 15.2679 19.8457 15.267 20.6073 15.9528L24.8548 19.7773C25.5604 20.4127 25.7213 21.4566 25.1595 22.2221Z" stroke="#252525" stroke-width="1.5" stroke-linecap="round"/>
<path d="M3.84176 6.6478C3.84176 6.6478 3.28669 9.46639 5.50628 11.1654" stroke="#252525" stroke-width="1.5" stroke-linecap="round"/>
</svg>
