<svg width="20" height="28" viewBox="0 0 20 28" fill="none" xmlns="http://www.w3.org/2000/svg">
<path d="M9.8149 28C8.1349 28 6.6649 27.02 5.9649 25.48L0.924899 14.35C0.574899 13.58 0.294899 12.74 0.154899 11.9V11.62C-0.405101 8.4 0.574899 5.11 2.7449 2.94C4.6349 1.05 7.1549 0 9.8149 0C12.4749 0 14.9249 1.05 16.8149 2.94C18.9849 5.11 20.0349 8.4 19.4749 11.62L19.4049 11.97C19.2649 12.81 18.9849 13.65 18.6349 14.42L13.6649 25.55C12.9649 27.02 11.4949 28 9.8149 28ZM9.8149 1.4C7.5049 1.4 5.4049 2.31 3.7949 3.92C1.9049 5.81 1.0649 8.61 1.5549 11.41V11.69C1.6949 12.39 1.9049 13.16 2.1849 13.79L7.1549 24.92C7.6449 25.97 8.6249 26.6 9.7449 26.6C10.8649 26.6 11.8449 25.97 12.3349 24.92L17.3049 13.79C17.5849 13.09 17.7949 12.39 17.9349 11.69L18.0049 11.34C18.4949 8.54 17.6549 5.74 15.7649 3.85C14.2249 2.31 12.0549 1.4 9.8149 1.4Z" fill="#252525"/>
<path d="M9.81496 16.0299C6.38496 16.0299 3.58496 13.2299 3.58496 9.79995C3.58496 9.37995 3.86496 9.09995 4.28496 9.09995C4.70496 9.09995 4.98496 9.37995 4.98496 9.79995C4.98496 12.4599 7.15496 14.6299 9.81496 14.6299C12.475 14.6299 14.645 12.4599 14.645 9.79995C14.645 7.13995 12.475 4.96995 9.81496 4.96995C9.39496 4.96995 9.11496 4.68995 9.11496 4.26995C9.11496 3.84995 9.39496 3.56995 9.81496 3.56995C13.245 3.56995 16.045 6.36995 16.045 9.79995C16.045 13.2299 13.245 16.0299 9.81496 16.0299Z" fill="#252525"/>
</svg>
