<svg width="28" height="28" viewBox="0 0 28 28" fill="none" xmlns="http://www.w3.org/2000/svg">
<rect x="0.5" y="0.5" width="27" height="27" rx="4.5" stroke="#252525"/>
<path fill-rule="evenodd" clip-rule="evenodd" d="M22.9951 20.345H5.0048C3.959 20.345 3.11108 19.5078 3.11108 18.4752V7.25651C3.11108 6.22392 3.959 5.38672 5.0048 5.38672H22.9951C24.041 5.38672 24.8889 6.22392 24.8889 7.25651V18.4752C24.8889 19.5078 24.041 20.345 22.9951 20.345ZM4.05794 11.4635H23.942V9.59374H4.05794V11.4635ZM23.942 7.25651C23.942 6.74045 23.5178 6.32161 22.9951 6.32161H5.0048C4.48214 6.32161 4.05794 6.74045 4.05794 7.25651V8.65885H23.942V7.25651ZM23.942 12.3984H4.05794V18.4752C4.05794 18.9913 4.48214 19.4101 5.0048 19.4101H22.9951C23.5178 19.4101 23.942 18.9913 23.942 18.4752V12.3984ZM14.9468 15.2031H13.0531C12.7913 15.2031 12.5797 14.9942 12.5797 14.7357C12.5797 14.4776 12.7913 14.2682 13.0531 14.2682H14.9468C15.2086 14.2682 15.4203 14.4776 15.4203 14.7357C15.4203 14.9942 15.2086 15.2031 14.9468 15.2031ZM10.686 15.2031H6.42509C6.16329 15.2031 5.95166 14.9942 5.95166 14.7357C5.95166 14.4776 6.16329 14.2682 6.42509 14.2682H10.686C10.9478 14.2682 11.1594 14.4776 11.1594 14.7357C11.1594 14.9942 10.9478 15.2031 10.686 15.2031ZM6.42509 16.6054H9.26567C9.52748 16.6054 9.7391 16.8149 9.7391 17.0729C9.7391 17.3314 9.52748 17.5403 9.26567 17.5403H6.42509C6.16329 17.5403 5.95166 17.3314 5.95166 17.0729C5.95166 16.8149 6.16329 16.6054 6.42509 16.6054Z" fill="#252525"/>
</svg>
