<svg width="22" height="20" viewBox="0 0 22 20" fill="none" xmlns="http://www.w3.org/2000/svg">
<path d="M0.45423 3.56343H11.6424C11.8636 5.06284 13.1549 6.21886 14.7148 6.21886C15.5451 6.21886 16.3259 5.89545 16.9137 5.30858C17.0913 5.13098 17.0913 4.8439 16.9137 4.6663C16.7361 4.48824 16.4486 4.4887 16.2714 4.66585C15.8553 5.08192 15.3025 5.31085 14.7148 5.31085C13.5011 5.31085 12.5136 4.32336 12.5136 3.10966C12.5136 1.89595 13.5011 0.908459 14.7148 0.908459C15.9285 0.908459 16.916 1.89595 16.916 3.10966C16.916 3.36039 17.119 3.56389 17.3702 3.56389H21.0554C21.3066 3.56389 21.5096 3.36039 21.5096 3.10966C21.5096 2.85892 21.3066 2.65543 21.0554 2.65543H17.7876C17.5669 1.15601 16.2751 0 14.7152 0C13.1554 0 11.8636 1.15556 11.6428 2.65543H0.45423C0.203495 2.65543 0 2.85892 0 3.10966C0 3.35994 0.203495 3.56343 0.45423 3.56343Z" fill="#252525"/>
<path d="M21.0554 9.54556H9.86723C9.64602 8.04615 8.35465 6.89014 6.79482 6.89014C5.235 6.89014 3.94317 8.0457 3.72241 9.54556H0.45423C0.203495 9.54556 0 9.74906 0 9.99979C0 10.2505 0.203495 10.454 0.45423 10.454H4.1394C4.39013 10.454 4.59363 10.2505 4.59363 9.99979C4.59363 8.78609 5.58112 7.7986 6.79482 7.7986C8.00852 7.7986 8.99602 8.78609 8.99602 9.99979C8.99602 11.2135 8.00852 12.201 6.79482 12.201C6.20705 12.201 5.65425 11.9721 5.23863 11.556C5.06148 11.3784 4.77395 11.3784 4.59635 11.556C4.41875 11.7331 4.41875 12.0211 4.59635 12.1983C5.18367 12.7856 5.96449 13.109 6.79482 13.109C8.35465 13.109 9.64648 11.953 9.86723 10.4536H21.0554C21.3066 10.4536 21.5096 10.2501 21.5096 9.99934C21.5096 9.74906 21.3066 9.54556 21.0554 9.54556Z" fill="#252525"/>
<path d="M21.0554 16.4367H17.7876C17.5669 14.9373 16.2751 13.7812 14.7152 13.7812C13.1554 13.7812 11.8636 14.9368 11.6428 16.4367H0.45423C0.203495 16.4367 0 16.6402 0 16.8909C0 17.1416 0.203495 17.3451 0.45423 17.3451H11.6424C11.8636 18.8445 13.1549 20.0001 14.7148 20.0001C15.5451 20.0001 16.3259 19.6767 16.9137 19.0898C17.0913 18.9122 17.0913 18.6247 16.9137 18.4476C16.7361 18.2695 16.4486 18.2699 16.2714 18.4471C15.8553 18.8632 15.3025 19.0917 14.7148 19.0917C13.5011 19.0917 12.5136 18.1046 12.5136 16.8909C12.5136 15.6772 13.5011 14.6897 14.7148 14.6897C15.9285 14.6897 16.916 15.6772 16.916 16.8909C16.916 17.1416 17.119 17.3451 17.3702 17.3451H21.0554C21.3066 17.3451 21.5096 17.1416 21.5096 16.8909C21.5096 16.6402 21.3066 16.4367 21.0554 16.4367Z" fill="#252525"/>
</svg>
