<svg width="36" height="36" viewBox="0 0 36 36" fill="none" xmlns="http://www.w3.org/2000/svg">
<rect x="0.75" y="0.75" width="34.5" height="34.5" rx="4.25" stroke="white" stroke-width="1.5"/>
<path d="M31.4498 11.69C30.8663 11.0334 30.0638 10.5957 29.1884 10.5957H17.9544C17.5897 10.5957 17.2249 10.8875 17.2249 11.3252C17.2249 11.7629 17.5897 12.0547 17.9544 12.0547H29.1884C29.6261 12.0547 30.0638 12.2736 30.3556 12.5653C30.6474 12.9301 30.7933 13.3678 30.6474 13.8055L29.9909 17.4529H21.9666C21.6018 17.4529 21.2371 17.7447 21.2371 18.1824C21.2371 18.6201 21.6018 18.9119 21.9666 18.9119H29.772L29.1155 22.4134C29.0426 22.924 28.5319 23.2888 28.0213 23.2888H14.0152C13.5046 23.2888 13.0669 22.924 12.921 22.4134L10.076 6.58359C10.003 6.21885 9.71125 6 9.34651 6H3.72948C3.36474 6 3 6.29179 3 6.72948C3 7.16717 3.36474 7.45897 3.72948 7.45897H8.76292L11.535 22.7781C11.6809 23.7994 12.4103 24.5289 13.3587 24.8207C12.9939 25.3313 12.7021 25.9878 12.7021 26.7173C12.7021 28.541 14.1611 30 15.9848 30C17.8085 30 19.2675 28.541 19.2675 26.7173C19.2675 26.0608 19.0486 25.4043 18.6839 24.8936H23.1337C22.769 25.4043 22.5502 26.0608 22.5502 26.7173C22.5502 28.541 24.0091 30 25.8328 30C27.6565 30 29.1155 28.541 29.1155 26.7173C29.1155 25.9878 28.8967 25.3313 28.5319 24.8207C29.4802 24.6018 30.2827 23.7994 30.5015 22.7781L32.1064 14.1702C32.2523 13.2948 32.0334 12.4195 31.4498 11.69ZM17.8085 26.6444C17.8085 27.6657 17.0061 28.4681 15.9848 28.4681C14.9635 28.4681 14.1611 27.6657 14.1611 26.6444C14.1611 25.6231 14.9635 24.8207 15.9848 24.8207C17.0061 24.8207 17.8085 25.6231 17.8085 26.6444ZM25.9058 28.4681C24.8845 28.4681 24.0821 27.6657 24.0821 26.6444C24.0821 25.6231 24.8845 24.8207 25.9058 24.8207C26.9271 24.8207 27.7295 25.6231 27.7295 26.6444C27.7295 27.6657 26.9271 28.4681 25.9058 28.4681Z" fill="white"/>
</svg>
