<svg width="28" height="28" viewBox="0 0 28 28" fill="none" xmlns="http://www.w3.org/2000/svg">
<path d="M11.4349 19.9344C6.84058 19.9344 3.11108 16.1777 3.11108 11.55C3.11108 6.92219 6.84058 3.11108 11.4349 3.11108C16.0292 3.11108 19.8127 6.92219 19.8127 11.55C19.8127 12.2033 19.7587 12.8566 19.5965 13.51C19.5425 13.7822 19.2182 14 18.9479 13.8911C18.6777 13.8366 18.4615 13.51 18.5696 13.2377C18.6777 12.6933 18.7858 12.1489 18.7858 11.55C18.7858 7.52108 15.5427 4.19997 11.4889 4.19997C7.43514 4.19997 4.1921 7.52108 4.1921 11.55C4.1921 15.5788 7.43514 18.9 11.4889 18.9C12.0835 18.9 12.624 18.8455 13.2186 18.6822C13.4888 18.6277 13.8131 18.7911 13.8672 19.0633C13.9212 19.3355 13.7591 19.6622 13.4888 19.7166C12.7862 19.88 12.1375 19.9344 11.4349 19.9344Z" fill="#252525"/>
<path d="M22.8398 24.8889C22.3534 24.8889 21.8669 24.6711 21.4886 24.3445L15.543 18.3556C15.3268 18.1378 15.3268 17.8111 15.543 17.5934C15.7592 17.3756 16.0835 17.3756 16.2997 17.5934L22.2453 23.5822C22.5696 23.9089 23.1101 23.9089 23.3803 23.5822C23.7046 23.2556 23.7046 22.7111 23.3803 22.4389L17.4348 16.45C17.2186 16.2323 17.2186 15.9056 17.4348 15.6878C17.651 15.47 17.9753 15.47 18.1915 15.6878L24.137 21.6767C24.8938 22.4389 24.8938 23.6367 24.137 24.3989C23.8127 24.6711 23.3263 24.8889 22.8398 24.8889Z" fill="#252525"/>
<path d="M11.4346 17.8111C8.02938 17.8111 5.21875 14.98 5.21875 11.55C5.21875 8.12005 8.02938 5.28894 11.4346 5.28894C14.8397 5.28894 17.6504 8.12005 17.6504 11.55C17.6504 14.98 14.8938 17.8111 11.4346 17.8111ZM11.4346 6.37783C8.62393 6.37783 6.29976 8.71893 6.29976 11.55C6.29976 14.3811 8.62393 16.7223 11.4346 16.7223C14.2452 16.7223 16.5694 14.3811 16.5694 11.55C16.5694 8.71893 14.2992 6.37783 11.4346 6.37783Z" fill="#252525"/>
<rect x="0.5" y="0.5" width="27" height="27" rx="4.5" stroke="#252525"/>
</svg>
