<svg width="39" height="45" viewBox="0 0 39 45" fill="none" xmlns="http://www.w3.org/2000/svg">
<path d="M10.9469 44.9998C10.9042 44.9998 10.8615 44.9952 10.8197 44.9868C10.7789 44.9785 10.7381 44.9664 10.6982 44.9497C10.6592 44.9339 10.6212 44.9135 10.5868 44.8903C10.5507 44.8662 10.5173 44.8393 10.4876 44.8096C10.367 44.689 10.2974 44.521 10.2974 44.3503C10.2974 44.3076 10.302 44.265 10.3104 44.2232C10.3187 44.1824 10.3308 44.1416 10.3475 44.1017C10.3632 44.0627 10.3837 44.0246 10.4068 43.9894C10.431 43.9541 10.4579 43.9207 10.4876 43.891C10.5173 43.8613 10.5507 43.8335 10.5859 43.8103C10.6212 43.7871 10.6592 43.7667 10.6982 43.7509C10.7372 43.7342 10.7789 43.7222 10.8197 43.7138C10.9032 43.6971 10.9905 43.6971 11.074 43.7138C11.1157 43.7222 11.1565 43.7342 11.1955 43.7509C11.2345 43.7667 11.2725 43.7871 11.3078 43.8103C11.343 43.8335 11.3764 43.8613 11.4061 43.891C11.4358 43.9207 11.4637 43.9541 11.4869 43.9894C11.51 44.0246 11.5305 44.0627 11.5462 44.1017C11.5629 44.1416 11.575 44.1824 11.5833 44.2232C11.5917 44.265 11.5963 44.3076 11.5963 44.3503C11.5963 44.521 11.5268 44.689 11.4061 44.8096C11.3764 44.8393 11.343 44.8662 11.3078 44.8903C11.2725 44.9135 11.2345 44.9339 11.1955 44.9497C11.1565 44.9664 11.1157 44.9785 11.074 44.9868C11.0322 44.9952 10.9895 44.9998 10.9469 44.9998Z" fill="#FAAA17"/>
<path d="M37.6342 16.8186H35.5772C35.2181 16.8186 34.9277 16.5282 34.9277 16.1691C34.9277 15.8101 35.2181 15.5197 35.5772 15.5197H37.6342C37.9933 15.5197 38.2837 15.8101 38.2837 16.1691C38.2837 16.5282 37.9933 16.8186 37.6342 16.8186Z" fill="#FAAA17"/>
<path d="M37.6342 21.574H35.5772C35.2181 21.574 34.9277 21.2836 34.9277 20.9245C34.9277 20.5654 35.2181 20.275 35.5772 20.275H37.6342C37.9933 20.275 38.2837 20.5654 38.2837 20.9245C38.2837 21.2836 37.9933 21.574 37.6342 21.574Z" fill="#FAAA17"/>
<path d="M37.6342 26.3291H35.5772C35.2181 26.3291 34.9277 26.0387 34.9277 25.6796C34.9277 25.3206 35.2181 25.0302 35.5772 25.0302H37.6342C37.9933 25.0302 38.2837 25.3206 38.2837 25.6796C38.2837 26.0387 37.9933 26.3291 37.6342 26.3291Z" fill="#FAAA17"/>
<path d="M37.6342 31.0834H35.5772C35.2181 31.0834 34.9277 30.793 34.9277 30.4339C34.9277 30.0748 35.2181 29.7844 35.5772 29.7844H37.6342C37.9933 29.7844 38.2837 30.0748 38.2837 30.4339C38.2837 30.793 37.9933 31.0834 37.6342 31.0834Z" fill="#FAAA17"/>
<path d="M37.6342 35.8384H35.5772C35.2181 35.8384 34.9277 35.548 34.9277 35.1889C34.9277 34.8298 35.2181 34.5394 35.5772 34.5394H37.6342C37.9933 34.5394 38.2837 34.8298 38.2837 35.1889C38.2837 35.548 37.9933 35.8384 37.6342 35.8384Z" fill="#FAAA17"/>
<path d="M37.6342 40.5938H35.5772C35.2181 40.5938 34.9277 40.3034 34.9277 39.9443C34.9277 39.5852 35.2181 39.2948 35.5772 39.2948H37.6342C37.9933 39.2948 38.2837 39.5852 38.2837 39.9443C38.2837 40.3034 37.9933 40.5938 37.6342 40.5938Z" fill="#FAAA17"/>
<path d="M30.5614 37.927C30.2024 37.927 29.912 37.6366 29.912 37.2775V27.0462L20.3311 36.628H27.2574C27.6165 36.628 27.9069 36.9184 27.9069 37.2775C27.9069 37.6366 27.6165 37.927 27.2574 37.927H18.7631C18.5005 37.927 18.2639 37.7683 18.1627 37.5262C18.0625 37.2831 18.1182 37.0038 18.3038 36.8182L30.1022 25.0198C30.2877 24.8343 30.567 24.7786 30.8101 24.8788C31.0532 24.979 31.2109 25.2165 31.2109 25.4791V37.2775C31.2109 37.6357 30.9205 37.927 30.5614 37.927Z" fill="#FAAA17"/>
<path d="M37.6344 45H13.0671C12.708 45 12.4176 44.7096 12.4176 44.3506C12.4176 43.9915 12.708 43.7011 13.0671 43.7011H36.9849V9.97043L3.25517 43.7011H8.72014C9.07921 43.7011 9.36963 43.9915 9.36963 44.3506C9.36963 44.7096 9.07921 45 8.72014 45H1.68712C1.42454 45 1.18795 44.8414 1.08681 44.5992C0.986604 44.3561 1.04227 44.0768 1.22784 43.8913L37.1751 7.94403C37.3607 7.75846 37.6399 7.70279 37.883 7.803C38.1261 7.9032 38.2839 8.14073 38.2839 8.40331V44.3506C38.2839 44.7096 37.9935 45 37.6344 45Z" fill="#FAAA17"/>
<path d="M30.8351 8.91815C30.6968 8.91815 30.5576 8.87454 30.4407 8.78454C30.1958 8.59712 30.1178 8.26495 30.2477 7.99031C30.3275 7.79732 30.4955 7.65351 30.6996 7.60619C30.9186 7.55515 31.1487 7.6201 31.3073 7.77969L31.3157 7.78804C31.569 8.04134 31.569 8.4533 31.3157 8.7066L31.2943 8.72794C31.1682 8.85413 31.0021 8.91815 30.8351 8.91815Z" fill="#FAAA17"/>
<path d="M4.77402 34.1313C4.0837 34.1313 3.39432 33.8687 2.86916 33.3436L0.84462 31.319C-0.205694 30.2687 -0.205694 28.5596 0.84462 27.5093L2.64834 25.7056C2.90164 25.4523 3.3136 25.4523 3.5669 25.7056C3.8202 25.9589 3.8202 26.3709 3.5669 26.6242L1.76318 28.4279C1.21947 28.9716 1.21947 29.8567 1.76318 30.4005L3.78772 32.425C4.33144 32.9687 5.2166 32.9687 5.76031 32.425L28.8292 9.35615C28.4896 9.23924 28.1723 9.04532 27.9041 8.7781C27.4328 8.30676 27.1758 7.65542 27.1989 6.98923C26.5337 7.01243 25.8823 6.75542 25.4101 6.28407C25.1419 6.01593 24.948 5.69861 24.8311 5.35902L5.39103 24.8C5.13773 25.0533 4.72577 25.0533 4.47247 24.8C4.21917 24.5467 4.21917 24.1348 4.47247 23.8815L25.1494 3.20458C25.3822 2.97169 25.7515 2.95035 26.0095 3.15355C26.2683 3.35674 26.3342 3.72138 26.1626 4.00159C25.8953 4.44046 25.964 5.0018 26.3286 5.36644C26.5513 5.58912 26.8473 5.70603 27.1618 5.69211C27.5181 5.67727 27.867 5.81366 28.1203 6.06696C28.3745 6.32026 28.5118 6.67005 28.497 7.02727C28.484 7.34274 28.5991 7.63779 28.8227 7.8614C29.1864 8.22511 29.7468 8.29377 30.1857 8.02841C30.4668 7.85862 30.8305 7.92542 31.0328 8.18336C31.235 8.44223 31.2128 8.81058 30.9808 9.04347L6.67887 33.3436C6.15371 33.8687 5.46433 34.1313 4.77402 34.1313Z" fill="#FAAA17"/>
<path d="M5.56527 29.2721C5.39919 29.2721 5.2331 29.209 5.10599 29.0819C4.85269 28.8286 4.85269 28.4167 5.10599 28.1634L23.5885 9.68082C23.8418 9.42752 24.2538 9.42752 24.5071 9.68082C24.7604 9.93412 24.7604 10.3461 24.5071 10.5994L6.02455 29.0819C5.89836 29.2081 5.73228 29.2721 5.56527 29.2721Z" fill="#FAAA17"/>
<path d="M25.5936 9.24378C25.5518 9.24378 25.5091 9.23914 25.4674 9.23079C25.4256 9.22244 25.3848 9.21038 25.3458 9.19367C25.3059 9.1779 25.2688 9.15749 25.2336 9.13429C25.1974 9.11017 25.1649 9.08326 25.1343 9.05357C25.0137 8.93202 24.9441 8.76501 24.9441 8.59429C24.9441 8.55161 24.9487 8.50893 24.9571 8.46718C24.9654 8.42542 24.9784 8.3846 24.9942 8.34563C25.01 8.30666 25.0304 8.26862 25.0536 8.23336C25.0777 8.1981 25.1046 8.1647 25.1343 8.13501C25.1649 8.10532 25.1974 8.07748 25.2336 8.05429C25.2688 8.03109 25.3059 8.01068 25.3458 7.99491C25.3848 7.97821 25.4256 7.96614 25.4674 7.95779C25.678 7.91511 25.9025 7.98377 26.0529 8.13501C26.0835 8.1647 26.1104 8.1981 26.1336 8.23336C26.1577 8.26862 26.1772 8.30666 26.1939 8.34563C26.2097 8.3846 26.2227 8.42542 26.231 8.46718C26.2394 8.50893 26.2431 8.55161 26.2431 8.59429C26.2431 8.76501 26.1744 8.93202 26.0529 9.05357C25.9322 9.17419 25.7652 9.24378 25.5936 9.24378Z" fill="#FAAA17"/>
<path d="M4.77396 34.1879C4.11891 34.1879 3.46385 33.9383 2.96468 33.4401L0.74807 31.2235C-0.249357 30.226 -0.249357 28.6032 0.74807 27.6058L2.64828 25.7056C2.90158 25.4523 3.31354 25.4523 3.56684 25.7056L8.48253 30.6213C8.73583 30.8746 8.73583 31.2866 8.48253 31.5399L6.58232 33.4401C6.08407 33.9383 5.42902 34.1879 4.77396 34.1879ZM3.88324 32.5206C4.37406 33.0114 5.17293 33.0114 5.66376 32.5206L7.10469 31.0796L3.10756 27.0825L1.66663 28.5234C1.1758 29.0143 1.1758 29.8131 1.66663 30.304L3.88324 32.5206Z" fill="#FAAA17"/>
<path d="M29.6085 9.48602C28.985 9.48602 28.3699 9.24385 27.9041 8.77808C27.4328 8.30674 27.1757 7.65539 27.1989 6.98921C26.5328 7.01147 25.8823 6.75539 25.4101 6.28405C24.6205 5.49446 24.4739 4.27806 25.0529 3.32517C25.0863 3.27043 25.1206 3.22032 25.1558 3.17022C25.2774 3.00043 25.4398 2.86403 25.6272 2.77125C25.6532 2.75826 25.6801 2.7462 25.707 2.73599C25.7803 2.70537 25.8564 2.68125 25.9362 2.66548L33.3199 0.0378372C33.5556 -0.0465961 33.82 0.0127856 33.9972 0.190931C34.1744 0.369076 34.2338 0.631654 34.1503 0.868253L31.5208 8.25478C31.505 8.33086 31.4818 8.40509 31.4531 8.4756C31.441 8.50715 31.428 8.53777 31.4123 8.56653C31.3213 8.74932 31.1877 8.9089 31.0254 9.02767C30.9715 9.06571 30.9205 9.10004 30.8639 9.1353C30.4724 9.37097 30.0391 9.48602 29.6085 9.48602ZM27.2147 5.69023C27.5515 5.69023 27.88 5.8257 28.1203 6.06601C28.3745 6.31931 28.5118 6.6691 28.497 7.02632C28.484 7.34178 28.5991 7.63684 28.8227 7.86045C29.1864 8.22416 29.7468 8.29282 30.1857 8.02746C30.2042 8.0154 30.2274 8.00055 30.2515 7.98478C30.258 7.94488 30.2673 7.90498 30.2812 7.86694L32.4691 1.72094L26.3221 3.90878C26.2841 3.9227 26.2451 3.93198 26.2052 3.93847C26.1904 3.95981 26.1755 3.98208 26.1616 4.00528C25.8963 4.44136 25.964 5.0027 26.3286 5.36734C26.5513 5.59002 26.8482 5.706 27.1618 5.69301C27.1795 5.69023 27.1971 5.69023 27.2147 5.69023Z" fill="#FAAA17"/>
<path d="M32.1895 5.08901C32.0234 5.08901 31.8574 5.02591 31.7302 4.8988L29.2891 2.45766C29.0358 2.20436 29.0358 1.7924 29.2891 1.5391C29.5424 1.2858 29.9544 1.2858 30.2077 1.5391L32.6488 3.98024C32.9021 4.23354 32.9021 4.6455 32.6488 4.8988C32.5217 5.02591 32.3556 5.08901 32.1895 5.08901Z" fill="#FAAA17"/>
</svg>
