<svg width="42" height="40" viewBox="0 0 42 40" fill="none" xmlns="http://www.w3.org/2000/svg">
<path d="M0 5V40H0.620968H0.846774H23.7097V31.8145H8.18548V5H0ZM7.05645 6.12903V32.1532L1.12903 38.0806V34.3548H3.3871V33.2258H1.12903V31.5323H3.3871V30.4032H1.12903V28.7097H3.3871V27.5806H1.12903V25.8871H3.3871V24.7581H1.12903V23.0645H3.3871V21.9355H1.12903V20.2419H3.3871V19.1129H1.12903V17.4194H3.3871V16.2903H1.12903V14.5968H3.3871V13.4677H1.12903V11.7742H3.3871V10.6452H1.12903V8.95161H3.3871V7.82258H1.12903V6.12903H7.05645ZM22.5806 38.871H1.91936L7.84677 32.9435H22.5806V38.871Z" fill="#FAAA17"/>
<path d="M23.2819 6.65351H25.3517V8.51003H26.736V10.6933V11.7949V13.997V25.0385V37.4576C26.736 38.8594 27.8766 40 29.2785 40H29.372C30.7739 40 31.9143 38.8594 31.9143 37.4576V25.0385V17.6342V17.6341H30.8128V17.6342V23.937H27.8376V15.0986H30.8128V15.8954V16.4604H31.9143V15.8954V13.997V11.7949V10.6933V8.51003H33.0566V5.05155C34.3084 4.94414 37.7923 4.76459 40.9136 5.70634C41.2649 5.81228 41.6379 5.65016 41.7998 5.32042C41.9617 4.99086 41.8627 4.59668 41.5639 4.38316L40.6504 3.72993C37.7744 1.6732 32.3254 0 28.5041 0H25.3517V1.50512H23.2819V0.551246H18V7.38624H23.2819V6.65351ZM30.8128 25.0385V37.4576C30.8128 38.252 30.1665 38.8984 29.372 38.8984H29.2785C28.484 38.8984 27.8376 38.252 27.8376 37.4576V25.0385H30.8128ZM30.8128 13.997H27.8376V11.7949H30.8128V13.997ZM30.8128 10.6933H27.8376V8.51003H30.8128V10.6933ZM39.3799 4.20985C35.88 3.57277 32.5962 3.98651 32.4346 4.00762L31.9551 4.07022V7.40854H31.9145H28.1512V1.10157H28.5042C31.807 1.10157 36.5724 2.4869 39.3799 4.20985ZM26.4533 1.10157H27.0495V7.40854H26.736H26.4536V2.75908H26.4533V1.50512V1.10157ZM25.3517 2.6066V5.55194H23.2819V2.6066H25.3517ZM19.1016 1.65282H22.1803V6.28467H19.1016V1.65282Z" fill="#FAAA17"/>
<path d="M29.876 30.3704H28.7744V36.456H29.876V30.3704Z" fill="#FAAA17"/>
<path d="M29.876 27.1536H28.7744V29.233H29.876V27.1536Z" fill="#FAAA17"/>
</svg>
