<svg width="35" height="45" viewBox="0 0 35 45" fill="none" xmlns="http://www.w3.org/2000/svg">
<path d="M22.9124 9.19081C22.8707 9.19081 22.828 9.18617 22.7853 9.17782C22.7445 9.16947 22.7037 9.15741 22.6638 9.14071C22.6248 9.12494 22.5877 9.10452 22.5524 9.08133C22.5162 9.05813 22.4828 9.0303 22.4531 9.00061C22.4235 8.97092 22.3965 8.93752 22.3724 8.90226C22.3492 8.867 22.3288 8.82896 22.313 8.79C22.2963 8.75103 22.2843 8.70928 22.2759 8.66845C22.2676 8.6267 22.2629 8.58402 22.2629 8.54134C22.2629 8.37062 22.3325 8.20269 22.4531 8.08207C22.4828 8.05238 22.5162 8.02548 22.5524 8.00135C22.5877 7.97816 22.6248 7.95774 22.6638 7.94197C22.7037 7.92527 22.7445 7.91321 22.7853 7.90486C22.8697 7.88816 22.956 7.88816 23.0395 7.90486C23.0803 7.91321 23.1221 7.92527 23.1611 7.94197C23.2 7.95774 23.2381 7.97816 23.2733 8.00135C23.3086 8.02548 23.342 8.05238 23.3717 8.08207C23.4932 8.20269 23.5619 8.37062 23.5619 8.54134C23.5619 8.58402 23.5582 8.6267 23.5498 8.66845C23.5415 8.70928 23.5285 8.75103 23.5127 8.79C23.496 8.82896 23.4756 8.867 23.4524 8.90226C23.4292 8.93752 23.4014 8.97092 23.3717 9.00061C23.342 9.0303 23.3086 9.05813 23.2733 9.08133C23.2381 9.10452 23.2 9.12494 23.1611 9.14071C23.1221 9.15741 23.0813 9.16947 23.0395 9.17782C22.9978 9.18617 22.9551 9.19081 22.9124 9.19081Z" fill="#FAAA17"/>
<path d="M16.9652 21.1737C16.4642 21.1737 15.9632 21.1273 15.4751 21.0355C13.2057 20.6124 11.223 19.2262 10.0344 17.2323C9.58536 16.4799 9.26434 15.6643 9.08156 14.8089C8.96187 14.2522 8.90063 13.6797 8.90063 13.1091C8.90063 12.533 8.96187 11.9605 9.08156 11.4075C9.46196 9.63353 10.4501 8.01913 11.8641 6.86307C13.2976 5.69032 15.1096 5.04456 16.9643 5.04456C18.652 5.04456 20.2673 5.56042 21.6377 6.53648C21.9299 6.74431 21.9977 7.14977 21.7898 7.44203C21.582 7.73429 21.1766 7.80202 20.8843 7.59419C19.7357 6.77586 18.3801 6.3435 16.9643 6.3435C13.7958 6.3435 11.0142 8.58788 10.3508 11.6812C10.2497 12.1451 10.1996 12.6248 10.1996 13.1082C10.1996 13.5879 10.2506 14.0685 10.3508 14.5361C10.5039 15.2524 10.773 15.9353 11.1497 16.5662C12.1471 18.2399 13.8106 19.4034 15.7136 19.7579C16.5328 19.9119 17.3966 19.9119 18.2131 19.7579C20.1179 19.4034 21.7815 18.2399 22.778 16.5671C23.1547 15.9362 23.4237 15.2524 23.5768 14.537C23.677 14.0685 23.7281 13.5888 23.7281 13.1082C23.7281 12.6248 23.677 12.1451 23.5768 11.6831C23.4942 11.2962 23.3764 10.9158 23.227 10.5502C23.0916 10.2181 23.2502 9.83858 23.5824 9.70312C23.9145 9.56766 24.294 9.72724 24.4295 10.0585C24.6076 10.4945 24.7477 10.9482 24.8461 11.4084C24.9658 11.9596 25.027 12.532 25.027 13.1082C25.027 13.6797 24.9658 14.2522 24.8461 14.8089C24.6633 15.6634 24.3423 16.479 23.8932 17.2323C22.7056 19.2262 20.7219 20.6114 18.4516 21.0345C17.9672 21.1273 17.4662 21.1737 16.9652 21.1737Z" fill="#FAAA17"/>
<path d="M16.9652 17.5459C16.6154 17.5459 16.2684 17.5051 15.9344 17.4253C14.6122 17.1108 13.4859 16.182 12.9245 14.9415C12.662 14.3654 12.5293 13.7484 12.5293 13.1091C12.5293 12.4708 12.662 11.8538 12.9245 11.2767C12.9691 11.1783 13.0183 11.079 13.0711 10.9835C13.8496 9.55928 15.3424 8.67322 16.9661 8.67322C18.5898 8.67322 20.0826 9.55928 20.862 10.9853C20.914 11.079 20.9641 11.1792 21.0086 11.2795C21.2693 11.8547 21.4029 12.4708 21.4029 13.1091C21.4029 13.7484 21.2693 14.3644 21.0067 14.9415C20.4445 16.182 19.3191 17.1098 17.996 17.4253C17.662 17.5051 17.315 17.5459 16.9652 17.5459ZM16.9652 9.97216C15.8165 9.97216 14.7607 10.5994 14.2086 11.6088C14.1715 11.6766 14.1372 11.7443 14.1066 11.8129C13.921 12.2221 13.8273 12.6573 13.8273 13.1091C13.8273 13.5619 13.921 13.997 14.1066 14.4043C14.5046 15.283 15.2998 15.9389 16.2359 16.1616C16.7091 16.2748 17.2231 16.2748 17.6935 16.1616C18.6306 15.9389 19.4267 15.282 19.8238 14.4053C19.8238 14.4053 19.8238 14.4043 19.8247 14.4043C20.0103 13.997 20.104 13.5609 20.104 13.1091C20.104 12.6573 20.0103 12.2212 19.8256 11.8139C19.7941 11.7443 19.7607 11.6766 19.7245 11.6107C19.1697 10.5994 18.1129 9.97216 16.9652 9.97216Z" fill="#FAAA17"/>
<path d="M16.9652 17.5459C16.6154 17.5459 16.2684 17.5051 15.9344 17.4253C14.6122 17.1108 13.4859 16.182 12.9245 14.9415C12.662 14.3654 12.5293 13.7484 12.5293 13.1091C12.5293 12.4708 12.662 11.8538 12.9245 11.2767C12.9691 11.1783 13.0183 11.079 13.0711 10.9835C13.8496 9.55928 15.3424 8.67322 16.9661 8.67322C18.5898 8.67322 20.0826 9.55928 20.862 10.9853C20.914 11.079 20.9641 11.1792 21.0086 11.2795C21.2693 11.8547 21.4029 12.4708 21.4029 13.1091C21.4029 13.7484 21.2693 14.3654 21.0067 14.9425C20.4454 16.182 19.32 17.1108 17.996 17.4253C17.662 17.5051 17.315 17.5459 16.9652 17.5459ZM16.9652 9.97216C15.8165 9.97216 14.7607 10.5994 14.2086 11.6088C14.1715 11.6766 14.1372 11.7443 14.1066 11.8129C13.921 12.2221 13.8273 12.6573 13.8273 13.1091C13.8273 13.5619 13.921 13.997 14.1066 14.4043C14.5046 15.283 15.2998 15.9389 16.2359 16.1616C16.7091 16.2748 17.2231 16.2748 17.6935 16.1616C18.6306 15.9389 19.4267 15.282 19.8238 14.4053C20.0093 13.997 20.104 13.5609 20.104 13.1091C20.104 12.6573 20.0103 12.2212 19.8256 11.8139C19.7941 11.7443 19.7607 11.6766 19.7245 11.6107C19.1697 10.5994 18.1129 9.97216 16.9652 9.97216Z" fill="#FAAA17"/>
<path d="M0.649441 45C0.553876 45 0.456455 44.9786 0.365529 44.9341C0.0667727 44.7884 -0.0742549 44.4414 0.0389386 44.1287L5.00182 30.4258C5.0946 30.1688 5.33862 29.9972 5.61232 29.9972H9.19926C9.43492 29.9972 9.65296 30.1252 9.76708 30.3312C9.8812 30.5372 9.87471 30.7895 9.75038 30.99L1.20056 44.6938C1.07902 44.8905 0.867477 45 0.649441 45ZM6.06881 31.2971L3.35588 38.7873L8.02928 31.2971H6.06881Z" fill="#FAAA17"/>
<path d="M11.3482 27.854H6.8604C6.64885 27.854 6.4503 27.751 6.32876 27.5775C6.20721 27.404 6.17752 27.1822 6.24989 26.9837L9.98249 16.6793C10.0679 16.4437 10.2812 16.2776 10.5318 16.2544C10.7813 16.2312 11.0226 16.3528 11.1515 16.5689C12.1489 18.2427 13.8116 19.4053 15.7155 19.7597C16.068 19.8256 16.3009 20.1642 16.235 20.5168C16.1692 20.8694 15.8314 21.1013 15.4779 21.0364C13.6325 20.6921 11.9764 19.7124 10.7832 18.2863L7.78728 26.5559H10.9892L13.1946 23.0219C13.3848 22.7176 13.7856 22.6248 14.089 22.815C14.3933 23.0052 14.4861 23.4051 14.2959 23.7094L11.9003 27.5496C11.7806 27.738 11.5718 27.854 11.3482 27.854Z" fill="#FAAA17"/>
<path d="M27.0702 27.8541H22.5823C22.3578 27.8541 22.15 27.7381 22.0312 27.5488L17.7837 20.7414C17.6695 20.5596 17.6538 20.3323 17.7401 20.1365C17.8263 19.9398 18.0045 19.7988 18.216 19.7598C20.119 19.4054 21.7825 18.2419 22.7799 16.569C22.908 16.3538 23.1492 16.2313 23.3997 16.2545C23.6493 16.2786 23.8636 16.4438 23.949 16.6794L27.6816 26.9838C27.754 27.1832 27.7243 27.405 27.6027 27.5776C27.4803 27.7511 27.2817 27.8541 27.0702 27.8541ZM22.9423 26.5551H26.1442L23.1483 18.2855C22.1537 19.474 20.838 20.3527 19.3591 20.8119L22.9423 26.5551Z" fill="#FAAA17"/>
<path d="M33.2799 45C33.0619 45 32.8504 44.8905 32.7288 44.6938L24.179 30.9909C24.0537 30.7905 24.0472 30.5382 24.1623 30.3322C24.2764 30.1262 24.4945 29.9982 24.7301 29.9982H28.3171C28.6761 29.9982 28.9665 30.2886 28.9665 30.6476C28.9665 31.0067 28.6761 31.2971 28.3171 31.2971H25.901L30.5744 38.7874L28.6798 33.5554C28.5574 33.2186 28.7318 32.8456 29.0695 32.7232C29.4063 32.6016 29.7793 32.7751 29.9018 33.1128L33.8914 44.1288C34.0046 44.4415 33.8635 44.7885 33.5648 44.9341C33.472 44.9787 33.3755 45 33.2799 45Z" fill="#FAAA17"/>
<path d="M33.4904 29.5759H30.8943C30.5353 29.5759 30.2449 29.2855 30.2449 28.9264C30.2449 28.5674 30.5353 28.277 30.8943 28.277H33.4904C33.8494 28.277 34.1398 28.5674 34.1398 28.9264C34.1398 29.2855 33.8485 29.5759 33.4904 29.5759Z" fill="#FAAA17"/>
<path d="M3.03573 29.5759H0.973201C0.614137 29.5759 0.32373 29.2855 0.32373 28.9264C0.32373 28.5674 0.614137 28.277 0.973201 28.277H3.03573C3.3948 28.277 3.68521 28.5674 3.68521 28.9264C3.68521 29.2855 3.39387 29.5759 3.03573 29.5759Z" fill="#FAAA17"/>
<path d="M19.0025 29.5759H14.9275C14.5685 29.5759 14.2781 29.2855 14.2781 28.9264C14.2781 28.5674 14.5685 28.277 14.9275 28.277H19.0025C19.3616 28.277 19.652 28.5674 19.652 28.9264C19.652 29.2855 19.3606 29.5759 19.0025 29.5759Z" fill="#FAAA17"/>
<path d="M9.71644 15.323H6.05157C5.69251 15.323 5.4021 15.0326 5.4021 14.6735V11.5458C5.4021 11.1868 5.69251 10.8964 6.05157 10.8964H9.71644C9.91314 10.8964 10.0987 10.9854 10.2221 11.1385C10.3455 11.2916 10.3928 11.492 10.3511 11.6841C10.2509 12.1461 10.1998 12.6258 10.1998 13.1092C10.1998 13.5889 10.2509 14.0695 10.3511 14.5371C10.3919 14.7292 10.3446 14.9296 10.2212 15.0817C10.0978 15.2339 9.91221 15.323 9.71644 15.323ZM6.70104 14.024H8.95285C8.91852 13.7206 8.90089 13.4145 8.90089 13.1092C8.90089 12.803 8.91852 12.4968 8.95192 12.1953H6.70104V14.024Z" fill="#FAAA17"/>
<path d="M27.8775 15.323H24.2127C24.016 15.323 23.8304 15.2339 23.707 15.0817C23.5836 14.9296 23.5363 14.7292 23.5771 14.5371C23.6773 14.0695 23.7283 13.5889 23.7283 13.1092C23.7283 12.6258 23.6773 12.1461 23.5771 11.6841C23.5354 11.492 23.5827 11.2916 23.7061 11.1385C23.8295 10.9854 24.015 10.8964 24.2117 10.8964H27.8766C28.2357 10.8964 28.5261 11.1868 28.5261 11.5458V14.6735C28.527 15.0326 28.2357 15.323 27.8775 15.323ZM24.9763 14.024H27.2281V12.1953H24.9772C25.0115 12.4968 25.0282 12.803 25.0282 13.1092C25.0282 13.4145 25.0106 13.7206 24.9763 14.024Z" fill="#FAAA17"/>
<path d="M31.2865 17.8039H29.0792C28.0586 17.8039 27.2273 16.9735 27.2273 15.952V10.2663C27.2273 9.24575 28.0577 8.41443 29.0792 8.41443H31.2865C32.3071 8.41443 33.1384 9.24482 33.1384 10.2663V15.952C33.1384 16.9735 32.3071 17.8039 31.2865 17.8039ZM29.0792 9.7143C28.7749 9.7143 28.5262 9.96202 28.5262 10.2673V15.9529C28.5262 16.2582 28.774 16.5059 29.0792 16.5059H31.2865C31.5917 16.5059 31.8395 16.2582 31.8395 15.9529V10.2673C31.8395 9.96202 31.5917 9.7143 31.2865 9.7143H29.0792Z" fill="#FAAA17"/>
<path d="M4.84948 17.8039H2.6422C1.62161 17.8039 0.790283 16.9735 0.790283 15.952V15.2775C0.790283 14.9184 1.08069 14.628 1.43975 14.628C1.79882 14.628 2.08922 14.9184 2.08922 15.2775V15.952C2.08922 16.2573 2.33695 16.505 2.6422 16.505H4.84948C5.15473 16.505 5.40245 16.2573 5.40245 15.952V10.2663C5.40245 9.9611 5.15473 9.71337 4.84948 9.71337H2.6422C2.33695 9.71337 2.08922 9.9611 2.08922 10.2663V11.4744C2.08922 11.8334 1.79882 12.1238 1.43975 12.1238C1.08069 12.1238 0.790283 11.8334 0.790283 11.4744V10.2663C0.790283 9.24575 1.62068 8.41443 2.6422 8.41443H4.84948C5.87007 8.41443 6.7014 9.24482 6.7014 10.2663V15.952C6.7014 16.9735 5.87007 17.8039 4.84948 17.8039Z" fill="#FAAA17"/>
<path d="M1.43951 14.0787C1.39776 14.0787 1.35508 14.075 1.31333 14.0667C1.27158 14.0583 1.23075 14.0453 1.19178 14.0296C1.15189 14.0129 1.11477 13.9934 1.07952 13.9693C1.04333 13.9461 1.01086 13.9192 0.980241 13.8885C0.950551 13.8589 0.923644 13.8254 0.899521 13.7902C0.876326 13.7549 0.856842 13.7169 0.840141 13.6779C0.824368 13.639 0.811379 13.5981 0.803028 13.5564C0.794678 13.5146 0.790039 13.472 0.790039 13.4293C0.790039 13.3875 0.794678 13.3448 0.803028 13.3031C0.811379 13.2613 0.824368 13.2205 0.840141 13.1815C0.856842 13.1416 0.876326 13.1045 0.899521 13.0693C0.923644 13.0331 0.950551 13.0006 0.980241 12.97C1.01086 12.9403 1.04333 12.9134 1.07952 12.8893C1.11477 12.8661 1.15189 12.8466 1.19178 12.8299C1.23075 12.8141 1.27158 12.8011 1.31333 12.7928C1.52394 12.7501 1.74847 12.8197 1.89878 12.97C2.02032 13.0915 2.08991 13.2586 2.08991 13.4293C2.08991 13.6009 2.02032 13.7679 1.89878 13.8885C1.77816 14.0101 1.61116 14.0787 1.43951 14.0787Z" fill="#FAAA17"/>
<path d="M15.0406 6.34432C14.6815 6.34432 14.3911 6.05391 14.3911 5.69485V3.2547C14.3911 2.89563 14.6815 2.60522 15.0406 2.60522C15.3996 2.60522 15.6901 2.89563 15.6901 3.2547V5.69485C15.6901 6.05391 15.3996 6.34432 15.0406 6.34432Z" fill="#FAAA17"/>
<path d="M18.8882 6.34444C18.5292 6.34444 18.2388 6.05404 18.2388 5.69497V3.25482C18.2388 2.89575 18.5292 2.60535 18.8882 2.60535C19.2473 2.60535 19.5377 2.89575 19.5377 3.25482V5.69497C19.5377 6.05404 19.2473 6.34444 18.8882 6.34444Z" fill="#FAAA17"/>
<path d="M14.9275 31.2971H3.0357C2.67664 31.2971 2.38623 31.0067 2.38623 30.6476V27.2045C2.38623 26.8455 2.67664 26.5551 3.0357 26.5551H14.9275C15.2866 26.5551 15.577 26.8455 15.577 27.2045V30.6476C15.577 31.0067 15.2856 31.2971 14.9275 31.2971ZM3.68517 29.9982H14.278V27.854H3.68517V29.9982Z" fill="#FAAA17"/>
<path d="M30.8946 31.2971H19.0027C18.6437 31.2971 18.3533 31.0067 18.3533 30.6476V27.2045C18.3533 26.8455 18.6437 26.5551 19.0027 26.5551H30.8946C31.2536 26.5551 31.544 26.8455 31.544 27.2045V30.6476C31.544 31.0067 31.2527 31.2971 30.8946 31.2971ZM19.6522 29.9982H30.2451V27.854H19.6522V29.9982Z" fill="#FAAA17"/>
<path d="M21.7193 3.90425H12.2092C11.1329 3.90425 10.2571 3.02839 10.2571 1.95212C10.2571 0.875858 11.1329 0 12.2092 0H21.7193C22.7956 0 23.6714 0.875858 23.6714 1.95212C23.6714 3.02839 22.7956 3.90425 21.7193 3.90425ZM12.2101 1.29987C11.8501 1.29987 11.5569 1.59306 11.5569 1.95305C11.5569 2.31304 11.8501 2.60623 12.2101 2.60623H21.7202C22.0802 2.60623 22.3734 2.31304 22.3734 1.95305C22.3734 1.59306 22.0802 1.29987 21.7202 1.29987H12.2101Z" fill="#FAAA17"/>
</svg>
