<svg width="45" height="45" viewBox="0 0 45 45" fill="none" xmlns="http://www.w3.org/2000/svg">
<path d="M12.8124 28.816C12.5677 28.816 12.3348 28.6725 12.2319 28.4332C11.6641 27.1125 11.3752 25.7061 11.3752 24.2518C11.3752 18.3994 16.1362 13.6384 21.9886 13.6384C22.338 13.6384 22.6205 13.921 22.6205 14.2703C22.6205 14.6197 22.338 14.9022 21.9886 14.9022C16.8331 14.9022 12.6391 19.0963 12.6391 24.2518C12.6391 25.5328 12.8927 26.7713 13.3928 27.934C13.531 28.2545 13.3829 28.6264 13.0624 28.7645C12.9803 28.7988 12.8954 28.816 12.8124 28.816Z" fill="#FAAA17"/>
<path d="M21.9886 34.8651C20.5361 34.8651 19.1297 34.5772 17.809 34.0102C17.6167 33.9272 17.4777 33.7548 17.438 33.5489C17.3982 33.3431 17.4632 33.131 17.6113 32.9829L30.7198 19.8753C30.8678 19.7273 31.08 19.6623 31.2858 19.702C31.4916 19.7417 31.6641 19.8807 31.7471 20.073C32.3149 21.3946 32.602 22.8002 32.602 24.2518C32.602 30.1041 27.841 34.8651 21.9886 34.8651ZM19.201 33.1797C20.0974 33.4596 21.0317 33.6013 21.9886 33.6013C27.1441 33.6013 31.3382 29.4072 31.3382 24.2518C31.3382 23.2958 31.1964 22.3614 30.9166 21.465L19.201 33.1797Z" fill="#FAAA17"/>
<path d="M9.32058 32.3068C9.10392 32.3068 8.89269 32.1949 8.77533 31.9945C8.06308 30.7821 7.52505 29.4849 7.17209 28.1308L4.48376 27.8203C4.1651 27.7833 3.92407 27.5133 3.92407 27.1929V21.865C3.92407 21.5445 4.1642 21.2746 4.48286 21.2376L7.03487 20.9415C7.37881 19.3825 7.96017 17.8993 8.76901 16.5199L7.08723 14.3967C6.88773 14.1448 6.90849 13.7847 7.13598 13.5572L10.9031 9.79009C11.1296 9.56351 11.4907 9.54274 11.7426 9.74134L13.7566 11.3374C15.1053 10.4753 16.565 9.83703 18.1095 9.43442L18.4201 6.74609C18.4571 6.42743 18.727 6.1864 19.0475 6.1864H24.3754C24.6958 6.1864 24.9658 6.42653 25.0028 6.74519L25.2989 9.2972C26.8606 9.64204 28.3492 10.2261 29.7294 11.0377C30.0301 11.2146 30.1312 11.6019 29.9542 11.9025C29.7773 12.2031 29.39 12.3042 29.0894 12.1273C27.701 11.3103 26.1926 10.7452 24.6074 10.4455C24.3356 10.394 24.1289 10.1719 24.0973 9.89752L23.813 7.44932H19.6117L19.3156 10.0149C19.2849 10.2803 19.0899 10.4987 18.829 10.5583C17.1265 10.9492 15.5286 11.6488 14.0807 12.6382C13.8523 12.7944 13.549 12.7835 13.3323 12.612L11.4005 11.081L8.42959 14.0519L10.0346 16.0776C10.2007 16.287 10.217 16.5786 10.0753 16.8052C9.14545 18.2893 8.50993 19.9133 8.18585 21.6312C8.13439 21.9029 7.91232 22.1096 7.63789 22.1421L5.1897 22.4265V26.6278L7.75525 26.9239C8.02065 26.9546 8.23911 27.1495 8.29869 27.4104C8.61645 28.7961 9.14455 30.1222 9.86673 31.3526C10.0437 31.6533 9.94256 32.0405 9.64195 32.2175C9.53994 32.2779 9.42981 32.3068 9.32058 32.3068Z" fill="#FAAA17"/>
<path d="M24.9285 42.3164H19.6006C19.2802 42.3164 19.0102 42.0762 18.9732 41.7576L18.6771 39.2056C17.1154 38.8607 15.6277 38.2767 14.2475 37.466C14.0786 37.3667 13.9658 37.1952 13.9405 37.0011C13.9162 36.807 13.9821 36.6129 14.1202 36.4739L17.6101 32.9831L34.2104 16.3846C34.3485 16.2465 34.5435 16.1797 34.7376 16.205C34.9317 16.2302 35.1032 16.3431 35.2025 16.5119C35.9138 17.7252 36.4519 19.0224 36.8048 20.3747L39.4931 20.6852C39.8118 20.7222 40.0528 20.9921 40.0528 21.3126V26.6405C40.0528 26.961 39.8127 27.2309 39.494 27.2679L36.942 27.564C36.5981 29.123 36.0167 30.6062 35.2079 31.9855L36.8897 34.1079C37.0892 34.3597 37.0684 34.7199 36.8409 34.9474L33.0738 38.7145C32.8473 38.9411 32.4862 38.9618 32.2343 38.7632L30.2203 37.1672C28.7462 38.1097 27.1375 38.7858 25.4314 39.1767C25.091 39.2552 24.7525 39.0422 24.674 38.7018C24.5954 38.3615 24.8085 38.023 25.1488 37.9445C26.8513 37.5536 28.4492 36.854 29.8971 35.8646C30.1255 35.7084 30.4289 35.7192 30.6455 35.8907L32.5773 37.4218L35.5482 34.4509L33.9432 32.4252C33.7771 32.2157 33.7608 31.9242 33.9025 31.6976C34.8324 30.2135 35.4679 28.5895 35.792 26.8716C35.8434 26.5999 36.0655 26.3932 36.3399 26.3607L38.7881 26.0763V21.875L36.2226 21.5789C35.9572 21.5482 35.7387 21.3532 35.6791 21.0923C35.4227 19.9757 35.0301 18.896 34.5074 17.8741L15.6097 36.7718C16.7941 37.3775 18.0552 37.8081 19.3695 38.0564C19.6413 38.1078 19.848 38.3299 19.8796 38.6044L20.1639 41.0525H24.367C24.4257 40.7267 24.7281 40.4992 25.0612 40.5371C25.4079 40.5768 25.6561 40.891 25.6164 41.2376L25.5559 41.7567C25.5189 42.0753 25.249 42.3164 24.9285 42.3164Z" fill="#FAAA17"/>
<path d="M7.57824 44.9802C6.69537 44.9802 5.84049 44.8024 5.03706 44.4512C4.7175 44.3113 4.57126 43.9394 4.71028 43.6189C4.8502 43.2993 5.22212 43.1531 5.54259 43.293C6.18533 43.5737 6.8705 43.7164 7.57824 43.7164C10.3884 43.7164 12.6741 41.4307 12.6741 38.6205C12.6741 38.486 12.6696 38.365 12.6597 38.2495C12.6444 38.0644 12.7112 37.882 12.8429 37.7512L17.6103 32.9838L35.1015 15.4935C35.2198 15.3752 35.3805 15.3084 35.5484 15.3084H39.9862L43.7361 11.5576L43.737 7.33555L38.9146 12.1579C38.7964 12.2762 38.6357 12.343 38.4678 12.343C38.2999 12.343 38.1392 12.2762 38.0209 12.1579L34.085 8.22022C33.8386 7.97378 33.8386 7.57297 34.085 7.32652L38.9074 2.50415L34.6844 2.50505L30.9354 6.25498L30.9345 10.6937C30.9345 10.8616 30.8677 11.0223 30.7495 11.1405L20.4611 21.4271C20.2146 21.6736 19.8138 21.6736 19.5674 21.4271C19.3209 21.1807 19.3209 20.7799 19.5674 20.5334L29.6698 10.4301L29.6707 5.99139C29.6707 5.82348 29.7375 5.66279 29.8558 5.54454L33.9749 1.42449C34.0932 1.30623 34.2538 1.23943 34.4218 1.23943L40.248 1.23853C40.4159 1.23853 40.5765 1.30533 40.6948 1.42358L40.7869 1.51566C41.0333 1.76211 41.0333 2.16292 40.7869 2.40936L35.4238 7.77247L38.4669 10.8156L43.83 5.45156C43.9482 5.3333 44.1089 5.2665 44.2768 5.2665C44.2777 5.2665 44.2777 5.2665 44.2786 5.2665C44.4465 5.2665 44.6081 5.3342 44.7264 5.45426L44.8176 5.54634C44.9349 5.6646 44.9999 5.82438 44.9999 5.99048L44.999 11.8167C44.999 11.9846 44.9322 12.1453 44.814 12.2635L40.6939 16.3845C40.5756 16.5027 40.415 16.5695 40.2471 16.5695H35.8092L13.9352 38.4454C13.9371 38.5022 13.938 38.56 13.938 38.6205C13.938 42.1276 11.0844 44.9802 7.57824 44.9802Z" fill="#FAAA17"/>
<path d="M3.61287 43.2172C3.57224 43.2172 3.53072 43.2127 3.48919 43.2046C3.44947 43.1965 3.40975 43.1847 3.37094 43.1685C3.33302 43.1531 3.29601 43.1333 3.26261 43.1107C3.2274 43.0881 3.1949 43.0611 3.16602 43.0322C3.13713 43.0033 3.11095 42.9708 3.08748 42.9365C3.06491 42.9022 3.04505 42.8652 3.0297 42.8272C3.01346 42.7893 3.00172 42.7496 2.9936 42.709C2.98547 42.6684 2.98096 42.6268 2.98096 42.5853C2.98096 42.5447 2.98547 42.5032 2.9936 42.4616C3.00172 42.4219 3.01346 42.3822 3.0297 42.3434C3.04505 42.3055 3.06491 42.2685 3.08748 42.2351C3.11095 42.1998 3.13713 42.1674 3.16602 42.1385C3.1949 42.1096 3.2274 42.0834 3.26261 42.0599C3.29601 42.0374 3.33302 42.0175 3.37094 42.0022C3.40975 41.9859 3.44947 41.9742 3.48919 41.966C3.57134 41.9498 3.65529 41.9498 3.73654 41.966C3.77716 41.9742 3.81688 41.9859 3.8548 42.0022C3.89271 42.0175 3.92972 42.0374 3.96403 42.0599C3.99833 42.0834 4.03083 42.1096 4.05972 42.1385C4.0886 42.1674 4.11569 42.1998 4.13825 42.2351C4.16082 42.2685 4.18068 42.3055 4.19603 42.3434C4.21228 42.3822 4.22401 42.4219 4.23214 42.4616C4.24117 42.5032 4.24478 42.5447 4.24478 42.5853C4.24478 42.6268 4.24117 42.6684 4.23214 42.709C4.22401 42.7496 4.21228 42.7893 4.19603 42.8272C4.18068 42.8652 4.16082 42.9022 4.13825 42.9365C4.11569 42.9708 4.0886 43.0033 4.05972 43.0322C4.03083 43.0611 3.99833 43.0881 3.96403 43.1107C3.92972 43.1333 3.89271 43.1531 3.8548 43.1685C3.81688 43.1847 3.77716 43.1965 3.73654 43.2046C3.69592 43.2127 3.65439 43.2172 3.61287 43.2172Z" fill="#FAAA17"/>
<path d="M2.37063 41.6392C2.13141 41.6392 1.90211 41.5029 1.79559 41.2709C1.41284 40.4367 1.21875 39.5449 1.21875 38.6205C1.21875 35.1134 4.07137 32.2607 7.57847 32.2607C7.66423 32.2607 7.74998 32.2625 7.83574 32.2662L16.353 23.7489C16.5994 23.5025 17.0002 23.5025 17.2467 23.7489C17.4931 23.9954 17.4931 24.3962 17.2467 24.6426L8.52723 33.3621C8.39453 33.4948 8.20857 33.5616 8.02261 33.5444C7.87727 33.5309 7.72832 33.5246 7.57847 33.5246C4.76827 33.5246 2.48257 35.8103 2.48257 38.6205C2.48257 39.3616 2.63784 40.0757 2.94477 40.7437C3.0901 41.0605 2.95108 41.4361 2.63423 41.5814C2.54847 41.6202 2.4591 41.6392 2.37063 41.6392Z" fill="#FAAA17"/>
<path d="M7.57836 41.7168C7.42761 41.7168 7.27866 41.7059 7.13422 41.6843C5.78555 41.4929 4.70588 40.4141 4.51451 39.06C4.49374 38.921 4.48291 38.7712 4.48291 38.6204C4.48291 36.9133 5.87221 35.524 7.57927 35.524C9.28632 35.524 10.6756 36.9133 10.6756 38.6204C10.6756 40.3275 9.28542 41.7168 7.57836 41.7168ZM7.57836 36.7879C6.56821 36.7879 5.74583 37.6103 5.74583 38.6204C5.74583 38.708 5.75215 38.7946 5.76478 38.8777C5.87853 39.6829 6.51676 40.3202 7.31657 40.434C7.40414 40.4475 7.4908 40.4529 7.57836 40.4529C8.58852 40.4529 9.4109 39.6306 9.4109 38.6204C9.4109 37.6103 8.58852 36.7879 7.57836 36.7879Z" fill="#FAAA17"/>
<path d="M7.57836 41.7168C7.42761 41.7168 7.27866 41.7059 7.13422 41.6843C5.78555 41.4929 4.70588 40.4141 4.51451 39.06C4.49374 38.921 4.48291 38.7712 4.48291 38.6204C4.48291 36.9133 5.87221 35.524 7.57927 35.524C9.28632 35.524 10.6756 36.9133 10.6756 38.6204C10.6756 40.3275 9.28542 41.7168 7.57836 41.7168ZM7.57836 36.7879C6.56821 36.7879 5.74583 37.6103 5.74583 38.6204C5.74583 38.708 5.75215 38.7946 5.76478 38.8777C5.87853 39.6829 6.51676 40.3202 7.31657 40.434C7.40414 40.4475 7.4908 40.4529 7.57836 40.4529C8.58852 40.4529 9.4109 39.6306 9.4109 38.6204C9.4109 37.6103 8.58852 36.7879 7.57836 36.7879Z" fill="#FAAA17"/>
</svg>
