<svg width="28" height="28" viewBox="0 0 28 28" fill="none" xmlns="http://www.w3.org/2000/svg">
<path d="M10.702 21.63C4.79507 21.63 0 16.8 0 10.85C0 4.89999 4.79507 0 10.702 0C16.609 0 21.4736 4.89999 21.4736 10.85C21.4736 11.69 21.4041 12.53 21.1956 13.37C21.1261 13.72 20.7091 14 20.3617 13.86C20.0142 13.79 19.7362 13.37 19.8752 13.02C20.0142 12.32 20.1532 11.62 20.1532 10.85C20.1532 5.66999 15.9836 1.4 10.7715 1.4C5.5595 1.4 1.38987 5.66999 1.38987 10.85C1.38987 16.03 5.5595 20.3 10.7715 20.3C11.536 20.3 12.2309 20.23 12.9953 20.02C13.3428 19.95 13.7598 20.16 13.8292 20.51C13.8987 20.86 13.6903 21.28 13.3428 21.35C12.4394 21.56 11.6054 21.63 10.702 21.63Z" fill="#808080"/>
<path d="M25.3655 28C24.7401 28 24.1146 27.72 23.6282 27.3L15.9839 19.6C15.7059 19.32 15.7059 18.9 15.9839 18.62C16.2618 18.34 16.6788 18.34 16.9568 18.62L24.6011 26.32C25.018 26.74 25.713 26.74 26.0604 26.32C26.4774 25.9 26.4774 25.2 26.0604 24.85L18.4161 17.15C18.1382 16.87 18.1382 16.45 18.4161 16.17C18.6941 15.89 19.1111 15.89 19.3891 16.17L27.0333 23.87C28.0063 24.85 28.0063 26.39 27.0333 27.37C26.6164 27.72 25.9909 28 25.3655 28Z" fill="#808080"/>
<path d="M10.7017 18.9001C6.32363 18.9001 2.70996 15.2601 2.70996 10.8501C2.70996 6.44007 6.32363 2.80008 10.7017 2.80008C15.0798 2.80008 18.6935 6.44007 18.6935 10.8501C18.6935 15.2601 15.1493 18.9001 10.7017 18.9001ZM10.7017 4.20008C7.08806 4.20008 4.09983 7.21007 4.09983 10.8501C4.09983 14.4901 7.08806 17.5001 10.7017 17.5001C14.3154 17.5001 17.3036 14.4901 17.3036 10.8501C17.3036 7.21007 14.3849 4.20008 10.7017 4.20008Z" fill="#808080"/>
</svg>
