<svg width="17" height="20" viewBox="0 0 17 20" fill="none" xmlns="http://www.w3.org/2000/svg">
<path d="M5.01074 6.22131H6.26335V16.2422H5.01074V6.22131Z" fill="#808080"/>
<path d="M7.51562 6.22131H8.76823V16.2422H7.51562V6.22131Z" fill="#808080"/>
<path d="M10.021 6.22131H11.2736V16.2422H10.021V6.22131Z" fill="#808080"/>
<path d="M0 2.4635H16.2839V3.71611H0V2.4635Z" fill="#808080"/>
<path d="M11.2318 3.08977H10.0627V1.83716C10.0627 1.46138 9.77041 1.1691 9.39462 1.1691H6.8894C6.51362 1.1691 6.22134 1.46138 6.22134 1.83716V3.08977H5.05225V1.83716C5.05225 0.835071 5.88732 0 6.8894 0H9.39462C10.3967 0 11.2318 0.835071 11.2318 1.83716V3.08977Z" fill="#808080"/>
<path d="M11.8996 20.0001H4.38397C3.38188 20.0001 2.50505 19.165 2.42155 18.1629L1.25244 3.1316L2.50505 3.0481L3.67415 18.0794C3.71591 18.4552 4.04994 18.7475 4.38397 18.7475H11.8996C12.2754 18.7475 12.6094 18.4134 12.6094 18.0794L13.7785 3.0481L15.0311 3.1316L13.862 18.1629C13.7785 19.2068 12.9017 20.0001 11.8996 20.0001Z" fill="#808080"/>
</svg>
