<svg width="25" height="25" viewBox="0 0 25 25" fill="none" xmlns="http://www.w3.org/2000/svg">
<path d="M1.64068 6.5625H5.35162C5.50787 6.5625 5.66412 6.67969 5.70318 6.79688C6.13287 7.85156 7.81256 11.9922 9.37506 12.3438C10.5469 12.3438 10.1172 6.83594 8.63287 6.83594C8.24225 6.83594 9.33599 6.13281 9.37506 6.13281C10.7422 5.74219 12.1876 5.74219 13.5547 6.13281C14.2969 6.44531 14.4141 7.30469 14.4532 8.04688C14.4532 8.78906 13.6329 11.9141 14.7266 12.2656C16.1719 12.6953 18.0469 8.16406 18.4766 7.03125C18.5157 6.875 18.6719 6.79688 18.8282 6.79688H22.9688C23.1641 6.79688 23.3594 6.95313 23.3594 7.1875C23.3594 7.22656 23.3594 7.30469 23.3204 7.34375C22.461 9.29688 21.4454 11.1719 20.2735 12.9297C20.0782 13.2422 20.1172 13.6328 20.3516 13.9062C21.6016 15.2344 25.0001 18.9844 23.0469 18.9844H18.9844C18.7501 18.9844 18.5547 18.9063 18.3985 18.7109C17.7344 18.0078 15.8594 16.0156 15.0001 16.1719C14.2969 16.2891 14.2188 17.5 14.2579 18.2813C14.2969 18.7109 13.9454 19.0625 13.5547 19.1016C12.8126 19.1406 11.7969 19.1406 11.7188 19.1406C8.75006 18.9453 7.03131 16.9922 5.35162 14.7656C3.59381 12.4219 2.22662 9.84375 1.28912 7.07031C1.21099 6.875 1.32818 6.64062 1.52349 6.5625C1.56256 6.60156 1.60162 6.5625 1.64068 6.5625Z" fill="#828282"/>
</svg>
