<svg width="30" height="25" viewBox="0 0 30 25" fill="none" xmlns="http://www.w3.org/2000/svg">
<path d="M26.015 24.0602H3.98496C1.80451 24.0602 0 22.2556 0 20.0752V3.98496C0 1.80451 1.80451 0 3.98496 0H26.015C28.1955 0 30 1.80451 30 3.98496V20C30 22.2556 28.1955 24.0602 26.015 24.0602ZM3.98496 1.50376C2.55639 1.50376 1.42857 2.63158 1.42857 3.98496V20C1.42857 21.3534 2.55639 22.4812 3.90977 22.4812H25.9398C27.2932 22.4812 28.4211 21.3534 28.4211 20V3.98496C28.4211 2.63158 27.2932 1.50376 25.9398 1.50376H3.98496Z" fill="#FAAA17"/>
<path d="M14.9624 14.5864C13.6842 14.5864 12.4812 13.9849 11.5789 13.0074L4.43609 4.43598C4.13534 4.13523 4.21052 3.6841 4.51128 3.38335C4.81203 3.0826 5.33834 3.15779 5.56391 3.45854L12.782 12.1052C13.3083 12.7818 14.1353 13.1578 14.9624 13.1578C15.7895 13.1578 16.6165 12.7818 17.1429 12.1052L24.2857 3.53373C24.5865 3.23298 25.0376 3.15779 25.3383 3.45854C25.6391 3.75929 25.7143 4.21042 25.4135 4.51117L18.2707 13.0826C17.5188 14.06 16.3158 14.5864 14.9624 14.5864Z" fill="#FAAA17"/>
<path d="M26.6167 20.5262C26.3911 20.5262 26.1655 20.451 26.0152 20.2254L20.8272 14.06C20.5264 13.7593 20.6016 13.2329 20.9024 13.0074C21.2031 12.7066 21.7295 12.7818 21.955 13.0826L27.143 19.248C27.4437 19.5487 27.3686 20.075 27.0678 20.3006C26.9926 20.451 26.7671 20.5262 26.6167 20.5262Z" fill="#FAAA17"/>
<path d="M3.30835 20.4515C3.15797 20.4515 2.93241 20.3763 2.85722 20.3011C2.55647 20.0004 2.48128 19.5492 2.78203 19.2485L7.89482 13.1582C8.19557 12.8575 8.6467 12.7823 8.94745 13.0831C9.2482 13.3838 9.32339 13.8349 9.02264 14.1357L3.90985 20.2259C3.75948 20.3763 3.53391 20.4515 3.30835 20.4515Z" fill="#FAAA17"/>
</svg>
