<svg width="28" height="28" viewBox="0 0 28 28" fill="none" xmlns="http://www.w3.org/2000/svg">
<rect x="0.5" y="0.5" width="27" height="27" rx="4.5" stroke="#252525"/>
<path d="M24.4609 9.09222C24.007 8.58158 23.3829 8.24115 22.702 8.24115H13.9645C13.6808 8.24115 13.3971 8.4681 13.3971 8.80853C13.3971 9.14896 13.6808 9.37591 13.9645 9.37591H22.702C23.0425 9.37591 23.3829 9.54612 23.6098 9.77307C23.8368 10.0568 23.9503 10.3972 23.8368 10.7376L23.3262 13.5745H17.085C16.8013 13.5745 16.5176 13.8014 16.5176 14.1419C16.5176 14.4823 16.8013 14.7092 17.085 14.7092H23.1559L22.6453 17.4326C22.5886 17.8298 22.1914 18.1135 21.7942 18.1135H10.9006C10.5035 18.1135 10.163 17.8298 10.0496 17.4326L7.8368 5.12059C7.78006 4.8369 7.55311 4.66669 7.26942 4.66669H2.90063C2.61694 4.66669 2.33325 4.89364 2.33325 5.23406C2.33325 5.57449 2.61694 5.80144 2.90063 5.80144H6.81552L8.97155 17.7163C9.08503 18.5107 9.6524 19.078 10.39 19.305C10.1063 19.7021 9.87935 20.2128 9.87935 20.7802C9.87935 22.1986 11.0141 23.3334 12.4325 23.3334C13.851 23.3334 14.9857 22.1986 14.9857 20.7802C14.9857 20.2695 14.8155 19.7589 14.5318 19.3617H17.9928C17.7091 19.7589 17.5389 20.2695 17.5389 20.7802C17.5389 22.1986 18.6737 23.3334 20.0921 23.3334C21.5106 23.3334 22.6453 22.1986 22.6453 20.7802C22.6453 20.2128 22.4751 19.7021 22.1914 19.305C22.929 19.1348 23.5531 18.5107 23.7233 17.7163L24.9715 11.0213C25.085 10.3404 24.9148 9.65959 24.4609 9.09222ZM13.851 20.7234C13.851 21.5177 13.2269 22.1419 12.4325 22.1419C11.6382 22.1419 11.0141 21.5177 11.0141 20.7234C11.0141 19.9291 11.6382 19.305 12.4325 19.305C13.2269 19.305 13.851 19.9291 13.851 20.7234ZM20.1489 22.1419C19.3545 22.1419 18.7304 21.5177 18.7304 20.7234C18.7304 19.9291 19.3545 19.305 20.1489 19.305C20.9432 19.305 21.5673 19.9291 21.5673 20.7234C21.5673 21.5177 20.9432 22.1419 20.1489 22.1419Z" fill="#252525"/>
</svg>
