<svg width="36" height="36" viewBox="0 0 36 36" fill="none" xmlns="http://www.w3.org/2000/svg">
<rect x="0.75" y="0.75" width="34.5" height="34.5" rx="4.25" stroke="white" stroke-width="1.5"/>
<path d="M4.59049 9.63242H19.1349C19.4225 11.5816 21.1013 13.0844 23.129 13.0844C24.2084 13.0844 25.2235 12.664 25.9876 11.9011C26.2185 11.6702 26.2185 11.297 25.9876 11.0661C25.7567 10.8347 25.3829 10.8352 25.1526 11.0655C24.6117 11.6064 23.8931 11.904 23.129 11.904C21.5512 11.904 20.2675 10.6203 20.2675 9.04251C20.2675 7.46472 21.5512 6.18099 23.129 6.18099C24.7068 6.18099 25.9906 7.46472 25.9906 9.04251C25.9906 9.36847 26.2545 9.63301 26.581 9.63301H31.3717C31.6983 9.63301 31.9622 9.36847 31.9622 9.04251C31.9622 8.71656 31.6983 8.45202 31.3717 8.45202H27.1237C26.8367 6.5028 25.1574 5 23.1296 5C21.1019 5 19.4225 6.50221 19.1355 8.45202H4.59049C4.26454 8.45202 4 8.71656 4 9.04251C4 9.36788 4.26454 9.63242 4.59049 9.63242Z" fill="white"/>
<path d="M31.3717 17.4092H16.8273C16.5397 15.46 14.8609 13.9572 12.8332 13.9572C10.8054 13.9572 9.12607 15.4594 8.83909 17.4092H4.59049C4.26454 17.4092 4 17.6737 4 17.9997C4 18.3256 4.26454 18.5902 4.59049 18.5902H9.38116C9.70712 18.5902 9.97166 18.3256 9.97166 17.9997C9.97166 16.4219 11.2554 15.1381 12.8332 15.1381C14.411 15.1381 15.6947 16.4219 15.6947 17.9997C15.6947 19.5775 14.411 20.8612 12.8332 20.8612C12.0691 20.8612 11.3505 20.5636 10.8102 20.0227C10.5799 19.7918 10.2061 19.7918 9.9752 20.0227C9.74432 20.253 9.74432 20.6274 9.9752 20.8577C10.7387 21.6212 11.7538 22.0416 12.8332 22.0416C14.8609 22.0416 16.5403 20.5388 16.8273 18.5896H31.3717C31.6983 18.5896 31.9622 18.325 31.9622 17.9991C31.9622 17.6737 31.6983 17.4092 31.3717 17.4092Z" fill="white"/>
<path d="M31.3717 26.3675H27.1237C26.8367 24.4183 25.1574 22.9155 23.1296 22.9155C21.1019 22.9155 19.4225 24.4177 19.1355 26.3675H4.59049C4.26454 26.3675 4 26.6321 4 26.958C4 27.284 4.26454 27.5485 4.59049 27.5485H19.1349C19.4225 29.4978 21.1013 31 23.129 31C24.2084 31 25.2235 30.5795 25.9876 29.8166C26.2185 29.5857 26.2185 29.212 25.9876 28.9817C25.7567 28.7502 25.3829 28.7508 25.1526 28.9811C24.6117 29.522 23.8931 29.819 23.129 29.819C21.5512 29.819 20.2675 28.5358 20.2675 26.958C20.2675 25.3802 21.5512 24.0965 23.129 24.0965C24.7068 24.0965 25.9906 25.3802 25.9906 26.958C25.9906 27.284 26.2545 27.5485 26.581 27.5485H31.3717C31.6983 27.5485 31.9622 27.284 31.9622 26.958C31.9622 26.6321 31.6983 26.3675 31.3717 26.3675Z" fill="white"/>
</svg>
