<svg width="68" height="66" viewBox="0 0 68 66" fill="none" xmlns="http://www.w3.org/2000/svg">
<path d="M2.28125 55.875H0.09375C0.09375 61.0156 4.25 65.1719 9.39062 65.1719H67.9062V8.29688H10.4844V0.09375H9.39062C4.25 0.09375 0.09375 4.25 0.09375 9.39062V55.875H2.28125C2.28125 51.9375 5.45312 48.7656 9.39062 48.7656H10.4844V10.4844H65.7188V62.9844H9.39062C5.45312 62.9844 2.28125 59.8125 2.28125 55.875ZM8.29688 24.4297C8.29688 34 8.29688 43.5703 8.29688 46.6328C5.89062 46.9062 3.75781 48.1094 2.28125 49.8594V9.39062C2.28125 5.83594 4.90625 2.88281 8.29688 2.39062V24.4297Z" fill="#FAAA17"/>
<path d="M13.7656 0.09375V5.5625H61.5625L67.9609 2.82812L61.5625 0.09375H13.7656ZM15.9531 2.28125H19.2344V3.375H15.9531V2.28125ZM61.125 3.375H21.4219V2.28125H61.125L62.3828 2.82812L61.125 3.375Z" fill="#FAAA17"/>
<path d="M24.4297 38.6484V54.7812H51.2266V38.6484H49.0391V52.5938H26.6172V38.6484H24.4297Z" fill="#FAAA17"/>
<path d="M44.9375 22.5156V26.4531L37.8281 19.3438L20.6562 36.5156L22.1875 38.0469L37.8281 22.4062L47.125 31.7031V24.7031H49.0391V33.6172L53.4688 38.0469L55 36.5156L51.2266 32.7422V22.5156H44.9375Z" fill="#FAAA17"/>
</svg>
