<svg width="45" height="43" viewBox="0 0 45 43" fill="none" xmlns="http://www.w3.org/2000/svg">
<path d="M2.10938 36.5625H0.703125C0.703125 39.8672 3.375 42.5391 6.67969 42.5391H44.2969V5.97656H7.38281V0.703125H6.67969C3.375 0.703125 0.703125 3.375 0.703125 6.67969V36.5625H2.10938C2.10938 34.0312 4.14844 31.9922 6.67969 31.9922H7.38281V7.38281H42.8906V41.1328H6.67969C4.14844 41.1328 2.10938 39.0938 2.10938 36.5625ZM5.97656 16.3477C5.97656 22.5 5.97656 28.6523 5.97656 30.6211C4.42969 30.7969 3.05859 31.5703 2.10938 32.6953V6.67969C2.10938 4.39453 3.79688 2.49609 5.97656 2.17969V16.3477Z" fill="#FAAA17"/>
<path d="M9.49219 0.703125V4.21875H40.2188L44.332 2.46094L40.2188 0.703125H9.49219ZM10.8984 2.10938H13.0078V2.8125H10.8984V2.10938ZM39.9375 2.8125H14.4141V2.10938H39.9375L40.7461 2.46094L39.9375 2.8125Z" fill="#FAAA17"/>
<path d="M16.3477 25.4883V35.8594H33.5742V25.4883H32.168V34.4531H17.7539V25.4883H16.3477Z" fill="#FAAA17"/>
<path d="M29.5313 15.1172V17.6484L24.9609 13.0781L13.9219 24.1172L14.9063 25.1016L24.9609 15.0469L30.9375 21.0234V16.5234H32.168V22.2539L35.0156 25.1016L36 24.1172L33.5742 21.6914V15.1172H29.5313Z" fill="#FAAA17"/>
</svg>
