<svg width="20" height="20" viewBox="0 0 20 20" fill="none" xmlns="http://www.w3.org/2000/svg">
<path d="M19.7266 10.0393C19.7266 11.3987 19.6992 12.7619 19.7344 14.1213C19.793 16.5276 18.2812 18.3869 16.3555 19.2151C15.582 19.5471 14.7695 19.7229 13.9297 19.7229C11.3008 19.7268 8.66797 19.7619 6.03906 19.7112C4.05859 19.6721 2.42969 18.844 1.26172 17.2112C0.648437 16.3518 0.355469 15.3752 0.355469 14.3166C0.355469 11.5158 0.355469 8.71897 0.355469 5.91819C0.355469 3.63303 1.46875 2.03538 3.44531 0.996313C4.30469 0.547094 5.23828 0.355688 6.21094 0.351782C8.76172 0.351782 11.3164 0.336157 13.8672 0.359594C15.8477 0.375219 17.5 1.13303 18.7188 2.72678C19.3984 3.61741 19.7266 4.64084 19.7266 5.76585C19.7266 7.18772 19.7266 8.6135 19.7266 10.0393ZM1.79688 10.0393C1.79688 11.4729 1.79688 12.9026 1.79688 14.3362C1.79688 14.9768 1.94531 15.5783 2.27734 16.1213C3.14844 17.5471 4.46484 18.2424 6.09766 18.2698C8.71875 18.3088 11.3438 18.2854 13.9688 18.2776C14.6133 18.2776 15.2383 18.1448 15.8203 17.8674C17.4062 17.1096 18.293 15.9026 18.2852 14.0901C18.2695 11.3166 18.2812 8.54319 18.2812 5.76975C18.2812 4.98459 18.0586 4.26584 17.5938 3.63303C16.6953 2.41819 15.4531 1.82053 13.9688 1.80491C11.3516 1.77366 8.73438 1.79319 6.11719 1.79709C5.55859 1.79709 5.01953 1.91038 4.49609 2.10569C3.05859 2.64084 1.72266 3.99631 1.78516 5.99241C1.83203 7.34397 1.79688 8.69163 1.79688 10.0393Z" fill="#828282"/>
<path d="M10.0625 14.1797C7.54298 14.1797 5.51172 12.1719 5.50782 9.67188C5.50391 7.21094 7.55079 5.19532 10.0547 5.19532C12.5664 5.19141 14.6055 7.20313 14.6094 9.6836C14.6094 12.1602 12.5742 14.1758 10.0625 14.1797ZM10.0625 12.7344C11.7774 12.7344 13.168 11.3633 13.1641 9.67579C13.1602 8.00391 11.7695 6.63672 10.0625 6.63672C8.34767 6.63672 6.94923 8.00001 6.94923 9.6836C6.95313 11.3711 8.34767 12.7383 10.0625 12.7344Z" fill="#828282"/>
<path d="M15.1367 3.82812C15.6641 3.82812 16.0938 4.27734 16.0938 4.82812C16.0899 5.3789 15.6563 5.82422 15.1289 5.82031C14.6094 5.8164 14.1836 5.37109 14.1836 4.83203C14.1797 4.28125 14.6094 3.82812 15.1367 3.82812Z" fill="#828282"/>
</svg>
