<svg width="36" height="36" viewBox="0 0 36 36" fill="none" xmlns="http://www.w3.org/2000/svg">
<path d="M14.702 25.63C8.79507 25.63 4 20.8 4 14.85C4 8.89999 8.79507 4 14.702 4C20.609 4 25.4736 8.89999 25.4736 14.85C25.4736 15.69 25.4041 16.53 25.1956 17.37C25.1261 17.72 24.7091 18 24.3617 17.86C24.0142 17.79 23.7362 17.37 23.8752 17.02C24.0142 16.32 24.1532 15.62 24.1532 14.85C24.1532 9.66999 19.9836 5.4 14.7715 5.4C9.5595 5.4 5.38987 9.66999 5.38987 14.85C5.38987 20.03 9.5595 24.3 14.7715 24.3C15.536 24.3 16.2309 24.23 16.9953 24.02C17.3428 23.95 17.7598 24.16 17.8292 24.51C17.8987 24.86 17.6903 25.28 17.3428 25.35C16.4394 25.56 15.6054 25.63 14.702 25.63Z" fill="white"/>
<path d="M29.3655 32C28.7401 32 28.1146 31.72 27.6282 31.3L19.9839 23.6C19.7059 23.32 19.7059 22.9 19.9839 22.62C20.2618 22.34 20.6788 22.34 20.9568 22.62L28.6011 30.32C29.018 30.74 29.713 30.74 30.0604 30.32C30.4774 29.9 30.4774 29.2 30.0604 28.85L22.4161 21.15C22.1382 20.87 22.1382 20.45 22.4161 20.17C22.6941 19.89 23.1111 19.89 23.3891 20.17L31.0333 27.87C32.0063 28.85 32.0063 30.39 31.0333 31.37C30.6164 31.72 29.9909 32 29.3655 32Z" fill="white"/>
<path d="M14.7017 22.9C10.3236 22.9 6.70996 19.26 6.70996 14.85C6.70996 10.44 10.3236 6.80005 14.7017 6.80005C19.0798 6.80005 22.6935 10.44 22.6935 14.85C22.6935 19.26 19.1493 22.9 14.7017 22.9ZM14.7017 8.20005C11.0881 8.20005 8.09983 11.21 8.09983 14.85C8.09983 18.49 11.0881 21.5 14.7017 21.5C18.3154 21.5 21.3036 18.49 21.3036 14.85C21.3036 11.21 18.3849 8.20005 14.7017 8.20005Z" fill="white"/>
<rect x="0.75" y="0.75" width="34.5" height="34.5" rx="4.25" stroke="white" stroke-width="1.5"/>
</svg>
