<svg width="30" height="30" viewBox="0 0 30 30" fill="none" xmlns="http://www.w3.org/2000/svg">
<path d="M15 30C23.3 30 30 23.3 30 15C30 6.7 23.3 0 15 0C6.7 0 0 6.7 0 15C0 23.3 6.7 30 15 30Z" fill="#25D366"/>
<path fill-rule="evenodd" clip-rule="evenodd" d="M10.8849 21.7379L10.5957 21.5663L7.59897 22.3525L8.39886 19.4306L8.2106 19.1311C7.418 17.8704 6.99939 16.4134 7 14.9173C7.00173 10.5517 10.5537 7 14.9212 7C17.0361 7.00073 19.0241 7.82536 20.519 9.32202C22.0139 10.8187 22.8367 12.808 22.8359 14.9237C22.8342 19.2896 19.2822 22.8416 14.9181 22.8416H14.9149C13.4941 22.8411 12.1006 22.4594 10.8849 21.7379ZM18.7367 16.8081C18.8781 16.8817 18.9736 16.9314 19.0143 17.0047C19.065 17.0957 19.065 17.5329 18.8962 18.0431C18.7272 18.5531 17.9173 19.0186 17.5278 19.0813C17.1786 19.1375 16.7366 19.161 16.251 18.9948C15.9566 18.8941 15.579 18.7598 15.0954 18.5348C13.195 17.6509 11.9107 15.6669 11.668 15.2919C11.651 15.2656 11.6391 15.2472 11.6324 15.2377L11.6308 15.2354C11.5235 15.0812 10.8047 14.0481 10.8047 12.9789C10.8047 11.9731 11.2634 11.4459 11.4745 11.2032C11.489 11.1866 11.5023 11.1713 11.5142 11.1573C11.7 10.9387 11.9196 10.884 12.0547 10.884C12.1899 10.884 12.3252 10.8854 12.4433 10.8918C12.4578 10.8926 12.473 10.8925 12.4887 10.8924C12.6068 10.8916 12.7541 10.8907 12.8994 11.2666C12.9553 11.4113 13.037 11.6257 13.1233 11.8519C13.2977 12.3093 13.4905 12.8148 13.5244 12.8879C13.5751 12.9972 13.6088 13.1247 13.5413 13.2705C13.5311 13.2923 13.5217 13.313 13.5128 13.3327C13.462 13.4443 13.4247 13.5264 13.3386 13.6347C13.3047 13.6773 13.2697 13.7232 13.2347 13.7692C13.1649 13.8606 13.0952 13.9521 13.0345 14.0173C12.933 14.1262 12.8274 14.2443 12.9456 14.4629C13.0639 14.6815 13.4707 15.3965 14.0733 15.9755C14.7211 16.5979 15.2842 16.861 15.5695 16.9944C15.6253 17.0204 15.6704 17.0415 15.7035 17.0593C15.9062 17.1687 16.0244 17.1504 16.1427 17.0047C16.2609 16.859 16.6494 16.3671 16.7845 16.1485C16.9197 15.93 17.0549 15.9664 17.2406 16.0392C17.4265 16.1122 18.4231 16.6403 18.6258 16.7496C18.6654 16.771 18.7024 16.7902 18.7367 16.8081Z" fill="white"/>
</svg>
