<svg width="45" height="45" viewBox="0 0 45 45" fill="none" xmlns="http://www.w3.org/2000/svg">
<path d="M12.8124 28.816C12.5677 28.816 12.3348 28.6725 12.2319 28.4332C11.6641 27.1125 11.3752 25.7061 11.3752 24.2518C11.3752 18.3994 16.1362 13.6384 21.9886 13.6384C22.338 13.6384 22.6205 13.921 22.6205 14.2703C22.6205 14.6197 22.338 14.9022 21.9886 14.9022C16.8331 14.9022 12.6391 19.0963 12.6391 24.2518C12.6391 25.5328 12.8927 26.7713 13.3928 27.934C13.531 28.2545 13.3829 28.6264 13.0624 28.7645C12.9803 28.7988 12.8954 28.816 12.8124 28.816Z" fill="#FAAA17"/>
<path d="M21.9886 34.8652C20.5361 34.8652 19.1297 34.5773 17.809 34.0103C17.6167 33.9273 17.4777 33.7549 17.438 33.549C17.3982 33.3432 17.4632 33.1311 17.6113 32.983L30.7198 19.8754C30.8678 19.7274 31.08 19.6624 31.2858 19.7021C31.4916 19.7418 31.6641 19.8808 31.7471 20.0731C32.3149 21.3947 32.602 22.8003 32.602 24.2519C32.602 30.1042 27.841 34.8652 21.9886 34.8652ZM19.201 33.1798C20.0974 33.4597 21.0317 33.6014 21.9886 33.6014C27.1441 33.6014 31.3382 29.4073 31.3382 24.2519C31.3382 23.2959 31.1964 22.3615 30.9166 21.4651L19.201 33.1798Z" fill="#FAAA17"/>
<path d="M9.32058 32.3067C9.10392 32.3067 8.89269 32.1948 8.77533 31.9944C8.06308 30.782 7.52505 29.4848 7.17209 28.1307L4.48376 27.8202C4.1651 27.7832 3.92407 27.5132 3.92407 27.1928V21.8649C3.92407 21.5444 4.1642 21.2745 4.48286 21.2375L7.03487 20.9414C7.37881 19.3824 7.96017 17.8992 8.76901 16.5198L7.08723 14.3966C6.88773 14.1447 6.90849 13.7846 7.13598 13.5571L10.9031 9.78997C11.1296 9.56339 11.4907 9.54262 11.7426 9.74122L13.7566 11.3373C15.1053 10.4752 16.565 9.83691 18.1095 9.4343L18.4201 6.74597C18.4571 6.42731 18.727 6.18628 19.0475 6.18628H24.3754C24.6958 6.18628 24.9658 6.42641 25.0028 6.74507L25.2989 9.29708C26.8606 9.64192 28.3492 10.226 29.7294 11.0376C30.0301 11.2145 30.1312 11.6018 29.9542 11.9024C29.7773 12.203 29.39 12.3041 29.0894 12.1272C27.701 11.3102 26.1926 10.7451 24.6074 10.4454C24.3356 10.3939 24.1289 10.1718 24.0973 9.8974L23.813 7.4492H19.6117L19.3156 10.0148C19.2849 10.2802 19.0899 10.4986 18.829 10.5582C17.1265 10.9491 15.5286 11.6487 14.0807 12.6381C13.8523 12.7943 13.549 12.7834 13.3323 12.6119L11.4005 11.0809L8.42959 14.0518L10.0346 16.0775C10.2007 16.2869 10.217 16.5785 10.0753 16.8051C9.14545 18.2892 8.50993 19.9132 8.18585 21.6311C8.13439 21.9028 7.91232 22.1095 7.63789 22.142L5.1897 22.4264V26.6277L7.75525 26.9238C8.02065 26.9545 8.23911 27.1494 8.29869 27.4103C8.61645 28.796 9.14455 30.1221 9.86673 31.3525C10.0437 31.6532 9.94256 32.0404 9.64195 32.2174C9.53994 32.2778 9.42981 32.3067 9.32058 32.3067Z" fill="#FAAA17"/>
<path d="M24.9285 42.3164H19.6006C19.2802 42.3164 19.0102 42.0763 18.9732 41.7576L18.6771 39.2056C17.1154 38.8608 15.6277 38.2767 14.2475 37.466C14.0786 37.3667 13.9658 37.1952 13.9405 37.0011C13.9162 36.8071 13.9821 36.613 14.1202 36.474L17.6101 32.9831L34.2104 16.3846C34.3485 16.2465 34.5435 16.1797 34.7376 16.205C34.9317 16.2303 35.1032 16.3431 35.2025 16.5119C35.9138 17.7252 36.4519 19.0224 36.8048 20.3747L39.4931 20.6852C39.8118 20.7223 40.0528 20.9922 40.0528 21.3126V26.6405C40.0528 26.961 39.8127 27.2309 39.494 27.2679L36.942 27.564C36.5981 29.123 36.0167 30.6062 35.2079 31.9856L36.8897 34.1079C37.0892 34.3598 37.0684 34.72 36.8409 34.9474L33.0738 38.7145C32.8473 38.9411 32.4862 38.9619 32.2343 38.7633L30.2203 37.1672C28.7462 38.1097 27.1375 38.7858 25.4314 39.1767C25.091 39.2553 24.7525 39.0422 24.674 38.7019C24.5954 38.3616 24.8085 38.023 25.1488 37.9445C26.8513 37.5536 28.4492 36.854 29.8971 35.8646C30.1255 35.7084 30.4289 35.7193 30.6455 35.8908L32.5773 37.4218L35.5482 34.4509L33.9432 32.4252C33.7771 32.2158 33.7608 31.9242 33.9025 31.6976C34.8324 30.2135 35.4679 28.5895 35.792 26.8716C35.8434 26.5999 36.0655 26.3932 36.3399 26.3607L38.7881 26.0763V21.875L36.2226 21.5789C35.9572 21.5483 35.7387 21.3533 35.6791 21.0924C35.4227 19.9757 35.0301 18.896 34.5074 17.8741L15.6097 36.7718C16.7941 37.3776 18.0552 37.8082 19.3695 38.0564C19.6413 38.1079 19.848 38.33 19.8796 38.6044L20.1639 41.0526H24.367C24.4257 40.7267 24.7281 40.4992 25.0612 40.5371C25.4079 40.5768 25.6561 40.891 25.6164 41.2376L25.5559 41.7567C25.5189 42.0754 25.249 42.3164 24.9285 42.3164Z" fill="#FAAA17"/>
<path d="M7.57824 44.9802C6.69537 44.9802 5.84049 44.8023 5.03706 44.4512C4.7175 44.3112 4.57126 43.9393 4.71028 43.6188C4.8502 43.2993 5.22212 43.153 5.54259 43.293C6.18533 43.5737 6.8705 43.7163 7.57824 43.7163C10.3884 43.7163 12.6741 41.4306 12.6741 38.6204C12.6741 38.4859 12.6696 38.365 12.6597 38.2494C12.6444 38.0644 12.7112 37.882 12.8429 37.7511L17.6103 32.9838L35.1015 15.4935C35.2198 15.3752 35.3805 15.3084 35.5484 15.3084H39.9862L43.7361 11.5576L43.737 7.33555L38.9146 12.1579C38.7964 12.2761 38.6357 12.3429 38.4678 12.3429C38.2999 12.3429 38.1392 12.2761 38.0209 12.1579L34.085 8.22021C33.8386 7.97377 33.8386 7.57297 34.085 7.32652L38.9074 2.50415L34.6844 2.50505L30.9354 6.25498L30.9345 10.6937C30.9345 10.8616 30.8677 11.0222 30.7495 11.1405L20.4611 21.4271C20.2146 21.6735 19.8138 21.6735 19.5674 21.4271C19.3209 21.1806 19.3209 20.7798 19.5674 20.5334L29.6698 10.4301L29.6707 5.99139C29.6707 5.82348 29.7375 5.66279 29.8558 5.54454L33.9749 1.42449C34.0932 1.30623 34.2538 1.23943 34.4218 1.23943L40.248 1.23853C40.4159 1.23853 40.5765 1.30533 40.6948 1.42359L40.7869 1.51566C41.0333 1.76211 41.0333 2.16292 40.7869 2.40936L35.4238 7.77247L38.4669 10.8155L43.83 5.45156C43.9482 5.3333 44.1089 5.2665 44.2768 5.2665C44.2777 5.2665 44.2777 5.2665 44.2786 5.2665C44.4465 5.2665 44.6081 5.3342 44.7264 5.45426L44.8176 5.54634C44.9349 5.6646 44.9999 5.82438 44.9999 5.99048L44.999 11.8166C44.999 11.9846 44.9322 12.1452 44.814 12.2635L40.6939 16.3845C40.5756 16.5027 40.415 16.5695 40.2471 16.5695H35.8092L13.9352 38.4453C13.9371 38.5022 13.938 38.56 13.938 38.6204C13.938 42.1275 11.0844 44.9802 7.57824 44.9802Z" fill="#FAAA17"/>
<path d="M3.61287 43.2172C3.57224 43.2172 3.53072 43.2127 3.48919 43.2046C3.44947 43.1965 3.40975 43.1847 3.37094 43.1685C3.33302 43.1531 3.29601 43.1333 3.26261 43.1107C3.2274 43.0881 3.1949 43.0611 3.16602 43.0322C3.13713 43.0033 3.11095 42.9708 3.08748 42.9365C3.06491 42.9022 3.04505 42.8652 3.0297 42.8272C3.01346 42.7893 3.00172 42.7496 2.9936 42.709C2.98547 42.6684 2.98096 42.6268 2.98096 42.5853C2.98096 42.5447 2.98547 42.5032 2.9936 42.4616C3.00172 42.4219 3.01346 42.3822 3.0297 42.3434C3.04505 42.3055 3.06491 42.2685 3.08748 42.2351C3.11095 42.1998 3.13713 42.1674 3.16602 42.1385C3.1949 42.1096 3.2274 42.0834 3.26261 42.0599C3.29601 42.0374 3.33302 42.0175 3.37094 42.0022C3.40975 41.9859 3.44947 41.9742 3.48919 41.966C3.57134 41.9498 3.65529 41.9498 3.73654 41.966C3.77716 41.9742 3.81688 41.9859 3.8548 42.0022C3.89271 42.0175 3.92972 42.0374 3.96403 42.0599C3.99833 42.0834 4.03083 42.1096 4.05972 42.1385C4.0886 42.1674 4.11569 42.1998 4.13825 42.2351C4.16082 42.2685 4.18068 42.3055 4.19603 42.3434C4.21228 42.3822 4.22401 42.4219 4.23214 42.4616C4.24117 42.5032 4.24478 42.5447 4.24478 42.5853C4.24478 42.6268 4.24117 42.6684 4.23214 42.709C4.22401 42.7496 4.21228 42.7893 4.19603 42.8272C4.18068 42.8652 4.16082 42.9022 4.13825 42.9365C4.11569 42.9708 4.0886 43.0033 4.05972 43.0322C4.03083 43.0611 3.99833 43.0881 3.96403 43.1107C3.92972 43.1333 3.89271 43.1531 3.8548 43.1685C3.81688 43.1847 3.77716 43.1965 3.73654 43.2046C3.69592 43.2127 3.65439 43.2172 3.61287 43.2172Z" fill="#FAAA17"/>
<path d="M2.37063 41.6393C2.13141 41.6393 1.90211 41.503 1.79559 41.271C1.41284 40.4368 1.21875 39.545 1.21875 38.6206C1.21875 35.1135 4.07137 32.2608 7.57847 32.2608C7.66423 32.2608 7.74998 32.2626 7.83574 32.2663L16.353 23.749C16.5994 23.5026 17.0002 23.5026 17.2467 23.749C17.4931 23.9955 17.4931 24.3963 17.2467 24.6427L8.52723 33.3622C8.39453 33.4949 8.20857 33.5617 8.02261 33.5445C7.87727 33.531 7.72832 33.5247 7.57847 33.5247C4.76827 33.5247 2.48257 35.8104 2.48257 38.6206C2.48257 39.3617 2.63784 40.0758 2.94477 40.7438C3.0901 41.0606 2.95108 41.4362 2.63423 41.5815C2.54847 41.6203 2.4591 41.6393 2.37063 41.6393Z" fill="#FAAA17"/>
<path d="M7.57836 41.7167C7.42761 41.7167 7.27866 41.7058 7.13422 41.6842C5.78555 41.4928 4.70588 40.414 4.51451 39.0599C4.49374 38.9209 4.48291 38.7711 4.48291 38.6203C4.48291 36.9132 5.87221 35.5239 7.57927 35.5239C9.28632 35.5239 10.6756 36.9132 10.6756 38.6203C10.6756 40.3274 9.28542 41.7167 7.57836 41.7167ZM7.57836 36.7878C6.56821 36.7878 5.74583 37.6102 5.74583 38.6203C5.74583 38.7079 5.75215 38.7945 5.76478 38.8776C5.87853 39.6828 6.51676 40.3201 7.31657 40.4339C7.40414 40.4474 7.4908 40.4528 7.57836 40.4528C8.58852 40.4528 9.4109 39.6305 9.4109 38.6203C9.4109 37.6102 8.58852 36.7878 7.57836 36.7878Z" fill="#FAAA17"/>
<path d="M7.57836 41.7167C7.42761 41.7167 7.27866 41.7058 7.13422 41.6842C5.78555 41.4928 4.70588 40.414 4.51451 39.0599C4.49374 38.9209 4.48291 38.7711 4.48291 38.6203C4.48291 36.9132 5.87221 35.5239 7.57927 35.5239C9.28632 35.5239 10.6756 36.9132 10.6756 38.6203C10.6756 40.3274 9.28542 41.7167 7.57836 41.7167ZM7.57836 36.7878C6.56821 36.7878 5.74583 37.6102 5.74583 38.6203C5.74583 38.7079 5.75215 38.7945 5.76478 38.8776C5.87853 39.6828 6.51676 40.3201 7.31657 40.4339C7.40414 40.4474 7.4908 40.4528 7.57836 40.4528C8.58852 40.4528 9.4109 39.6305 9.4109 38.6203C9.4109 37.6102 8.58852 36.7878 7.57836 36.7878Z" fill="#FAAA17"/>
</svg>
