<svg width="37" height="45" viewBox="0 0 37 45" fill="none" xmlns="http://www.w3.org/2000/svg">
<path d="M32.5625 44.2969H4.4375C2.49898 44.2969 0.921875 42.7198 0.921875 40.7812V4.21875C0.921875 2.28023 2.49898 0.703125 4.4375 0.703125H18.7415C19.6805 0.703125 20.5637 1.0691 21.2271 1.73285L35.0484 15.5542C35.7125 16.2183 36.0781 17.1007 36.0781 18.0397V40.7812C36.0781 42.7198 34.501 44.2969 32.5625 44.2969ZM4.4375 2.10938C3.27418 2.10938 2.32812 3.05543 2.32812 4.21875V40.7812C2.32812 41.9446 3.27418 42.8906 4.4375 42.8906H32.5625C33.7258 42.8906 34.6719 41.9446 34.6719 40.7812V18.0397C34.6719 17.4846 34.4465 16.9411 34.0542 16.5484L20.2329 2.72707C19.8345 2.32875 19.3047 2.10938 18.7415 2.10938H4.4375Z" fill="#FD4233"/>
<path d="M29.4723 28.2375C29.4477 28.0582 29.3036 27.8332 29.1489 27.682C28.7059 27.2461 27.7321 27.0176 26.2485 26.9965C25.243 26.9859 24.0336 27.0738 22.761 27.2531C22.1914 26.9262 21.6043 26.5676 21.1438 26.1352C19.9028 24.9785 18.8692 23.3719 18.2223 21.6035C18.2645 21.4383 18.2996 21.2941 18.3348 21.1465C18.3348 21.1465 19.0309 17.1809 18.8481 15.8379C18.8235 15.6551 18.8059 15.6023 18.7567 15.4582L18.6969 15.3035C18.5071 14.8641 18.1344 14.4 17.5508 14.4246L17.2063 14.4141H17.1993C16.5453 14.4141 16.018 14.748 15.8774 15.2438C15.4555 16.8047 15.8914 19.1426 16.6825 22.166L16.4786 22.6582C15.9125 24.0434 15.2024 25.4355 14.5766 26.6625L14.4957 26.8207C13.8348 28.1109 13.2371 29.2078 12.6922 30.1359L12.1332 30.4312C12.0911 30.4523 11.1313 30.9621 10.9063 31.0957C8.9973 32.2383 7.73168 33.532 7.52074 34.5586C7.45394 34.8891 7.50316 35.3074 7.84418 35.5008L8.38558 35.775C8.62113 35.891 8.87074 35.9508 9.12386 35.9508C10.4844 35.9508 12.0629 34.2563 14.2391 30.4594C16.7493 29.6438 19.611 28.9617 22.1176 28.5891C24.0266 29.6613 26.375 30.4102 27.8586 30.4102C28.1223 30.4102 28.3508 30.3855 28.5336 30.3363C28.8184 30.259 29.0575 30.0973 29.2051 29.8793C29.4934 29.4469 29.5496 28.8492 29.4723 28.2375ZM8.82855 34.9207C9.07464 34.2422 10.059 32.8992 11.511 31.7109C11.6024 31.6371 11.8274 31.4262 12.0313 31.2293C10.5125 33.6516 9.49652 34.6148 8.82855 34.9207ZM17.4278 15.1172C17.8637 15.1172 18.1133 16.2176 18.1344 17.2512C18.1555 18.2848 17.9129 19.009 17.6141 19.5469C17.3645 18.7523 17.245 17.5008 17.245 16.6816C17.245 16.6816 17.2274 15.1172 17.4278 15.1172ZM14.8614 29.2289C15.1672 28.684 15.4836 28.1074 15.8071 27.4992C16.5981 26.0051 17.0973 24.8379 17.4664 23.8781C18.2047 25.2211 19.1258 26.3637 20.2051 27.2777C20.3422 27.3902 20.4864 27.5062 20.634 27.6223C18.4368 28.0547 16.5348 28.5855 14.8614 29.2289ZM28.7235 29.1059C28.5899 29.1867 28.2067 29.2359 27.9606 29.2359C27.1661 29.2359 26.1782 28.8738 24.7965 28.2797C25.3274 28.241 25.8161 28.2199 26.252 28.2199C27.05 28.2199 27.2856 28.2164 28.0696 28.4168C28.85 28.6172 28.8606 29.0215 28.7235 29.1059Z" fill="#FF402F"/>
</svg>
