<svg width="36" height="36" viewBox="0 0 36 36" fill="none" xmlns="http://www.w3.org/2000/svg">
<rect x="0.75" y="0.75" width="34.5" height="34.5" rx="4.25" stroke="white" stroke-width="1.5"/>
<path fill-rule="evenodd" clip-rule="evenodd" d="M29.5652 23.1974H6.43478C5.09017 23.1974 4 22.1519 4 20.8624V6.85223C4 5.56272 5.09017 4.51721 6.43478 4.51721H29.5652C30.9098 4.51721 32 5.56272 32 6.85223V20.8624C32 22.1519 30.9098 23.1974 29.5652 23.1974ZM5.21739 12.106H30.7826V9.77101H5.21739V12.106ZM30.7826 6.85223C30.7826 6.20777 30.2372 5.68472 29.5652 5.68472H6.43478C5.76278 5.68472 5.21739 6.20777 5.21739 6.85223V8.6035H30.7826V6.85223ZM30.7826 13.2735H5.21739V20.8624C5.21739 21.5068 5.76278 22.0299 6.43478 22.0299H29.5652C30.2372 22.0299 30.7826 21.5068 30.7826 20.8624V13.2735ZM19.2174 16.7761H16.7826C16.446 16.7761 16.1739 16.5151 16.1739 16.1923C16.1739 15.8701 16.446 15.6086 16.7826 15.6086H19.2174C19.554 15.6086 19.8261 15.8701 19.8261 16.1923C19.8261 16.5151 19.554 16.7761 19.2174 16.7761ZM13.7391 16.7761H8.26087C7.92426 16.7761 7.65217 16.5151 7.65217 16.1923C7.65217 15.8701 7.92426 15.6086 8.26087 15.6086H13.7391C14.0757 15.6086 14.3478 15.8701 14.3478 16.1923C14.3478 16.5151 14.0757 16.7761 13.7391 16.7761ZM8.26087 18.5273H11.913C12.2497 18.5273 12.5217 18.7889 12.5217 19.1111C12.5217 19.4339 12.2497 19.6949 11.913 19.6949H8.26087C7.92426 19.6949 7.65217 19.4339 7.65217 19.1111C7.65217 18.7889 7.92426 18.5273 8.26087 18.5273Z" fill="white"/>
</svg>
