<svg width="32" height="32" viewBox="0 0 32 32" fill="none" xmlns="http://www.w3.org/2000/svg">
<path d="M30.5238 19.5715C30.3333 19.381 30.1428 19.2858 29.8571 19.2858C29.6666 19.2858 29.4762 19.381 29.3809 19.4762C29.1905 19.5715 29.0952 19.8572 29.0952 20.0477C29.0952 20.2381 29.0952 20.5239 29.2857 20.7143C29.2857 20.8096 29.3809 20.8096 29.3809 20.9048V28.9048C29.3809 29.0953 29.1905 29.2858 29 29.2858H13.8571C13.381 29.2858 13 29.6667 13 30.1429C13 30.6191 13.381 31 13.8571 31H28.8095C29.9524 31 30.9047 30.0477 30.9047 28.9048V20.9048C30.9047 20.3334 30.8095 19.9524 30.5238 19.5715Z" fill="#808080" stroke="white" stroke-width="0.4"/>
<path d="M21.0954 24.3334C20.6192 24.3334 20.2383 24.7143 20.2383 25.1905V27.1906C20.2383 28.0477 21.0002 28.7144 21.8573 28.7144H26.9049C27.2859 28.7144 27.7621 28.5239 28.0478 28.2382C28.3335 27.9525 28.524 27.5715 28.524 27.0953V22.4286C28.524 21.6667 28.0478 21.0953 27.2859 20.9048C27.1907 20.9048 27.1907 20.9048 27.0954 20.9048C26.7145 20.9048 26.3335 21.1905 26.2383 21.5715C26.143 21.7619 26.2383 22.0477 26.3335 22.2381C26.4288 22.4286 26.6192 22.5238 26.8097 22.6191V27.0953H22.0478V25.2858C21.9526 24.7143 21.5716 24.3334 21.0954 24.3334Z" fill="#808080" stroke="white" stroke-width="0.4"/>
<path d="M15.5713 27.8572C15.5713 28.3334 15.9522 28.7143 16.4284 28.7143H17.857C18.2379 28.7143 18.6189 28.5238 18.9046 28.2381C19.1903 27.9524 19.2856 27.5715 19.2856 27.1905V26.7143C19.2856 26.2381 18.9046 25.8572 18.4284 25.8572C17.9522 25.8572 17.5713 26.2381 17.5713 26.7143V27.0953H16.3332C15.9522 27.0953 15.5713 27.4762 15.5713 27.8572Z" fill="#808080" stroke="white" stroke-width="0.4"/>
<path d="M23.5712 9.85714C23.6665 10.0476 23.8569 10.1428 24.1426 10.2381C24.2379 10.2381 24.3331 10.3333 24.4284 10.4286L28.4284 17.3809C28.5236 17.4762 28.5236 17.5714 28.4284 17.6666C28.4284 17.7619 28.3331 17.8571 28.2379 17.9524L13.7617 26.3333C13.5712 26.4285 13.3808 26.619 13.3808 26.8095C13.2855 26.9999 13.3808 27.2857 13.476 27.4761C13.6665 27.7618 13.9522 27.8571 14.2379 27.8571C14.4284 27.8571 14.5236 27.8571 14.6189 27.7618L22.6188 23.0952L29.095 19.3809C29.5712 19.0952 29.9522 18.619 30.0474 18.1428C30.2379 17.5714 30.1426 17 29.8569 16.5238L25.8569 9.57143C25.5712 9 24.9998 8.61904 24.4284 8.5238C24.3331 8.5238 24.3331 8.5238 24.2379 8.5238C23.8569 8.5238 23.476 8.80951 23.3807 9.19047C23.3807 9.47618 23.3807 9.66667 23.5712 9.85714Z" fill="#808080" stroke="white" stroke-width="0.4"/>
<path d="M20.0476 17.5715C19.8572 17.2857 19.5714 17.1905 19.2857 17.1905C19.0953 17.1905 19 17.1905 18.9048 17.2857C18.7143 17.381 18.5238 17.5715 18.5238 17.7619C18.4286 17.9524 18.5238 18.2381 18.6191 18.4286L19.7619 20.4286C20.0476 20.9048 20.5238 21.1905 21.0952 21.1905C21.381 21.1905 21.6667 21.0953 21.8572 21L26.2381 18.5238C27 18.0476 27.1905 17.0953 26.8095 16.3334L24.4286 12.2381C24.1429 11.7619 23.5714 11.4762 23.0952 11.4762C22.8095 11.4762 22.5238 11.5714 22.3333 11.6667L21.9524 11.8571C21.7619 11.9524 21.5714 12.1429 21.5714 12.3333C21.4762 12.5238 21.5714 12.8095 21.6667 13C21.8572 13.2857 22.1429 13.381 22.4286 13.381C22.6191 13.381 22.7143 13.381 22.9048 13.2857L23.0952 13.0952L25.2857 17L21.0952 19.381L20.0476 17.5715Z" fill="#808080" stroke="white" stroke-width="0.4"/>
<path d="M15.381 23.1905C15.2858 23.3809 15.381 23.6667 15.4762 23.8571C15.6667 24.1428 15.9524 24.2381 16.2381 24.2381C16.4286 24.2381 16.5239 24.2381 16.6191 24.1428L18.4286 23.0952C18.7143 22.9047 19 22.619 19.0953 22.3333C19.2858 21.8571 19.2858 21.2857 19 20.9047L18.5239 20.1428C18.3334 19.8571 18.0477 19.6666 17.7619 19.6666C17.5715 19.6666 17.4762 19.6666 17.381 19.7619C17.1905 19.8571 17 20.0476 17 20.2381C16.9048 20.4285 17 20.7143 17.0953 20.9047L17.4762 21.5714L15.762 22.5238C15.5715 22.7143 15.4762 22.9047 15.381 23.1905Z" fill="#808080" stroke="white" stroke-width="0.4"/>
<path d="M13.762 16.4286L14.5239 16.8096L13.4763 18.6191C13.2858 19.0001 13.381 19.5715 13.762 19.762C13.8572 19.8572 14.0477 19.8572 14.1429 19.8572C14.4287 19.8572 14.7144 19.6667 14.9048 19.4762L15.9525 17.6667C16.0477 17.4762 16.1429 17.2858 16.1429 17.1905C16.3334 16.5239 15.9525 15.8572 15.381 15.4762L14.5239 15C14.4287 14.9048 14.2382 14.9048 14.1429 14.9048C13.8572 14.9048 13.5715 15.0953 13.381 15.2857C13.1906 15.6667 13.2858 16.1429 13.762 16.4286Z" fill="#808080" stroke="white" stroke-width="0.4"/>
<path d="M14.1429 3.76201C14.2381 3.76201 14.4286 3.76202 14.5239 3.66678C14.6191 3.66678 14.6191 3.66678 14.7143 3.66678C14.8096 3.66678 14.8096 3.66677 14.9048 3.76201L21.8572 7.762C21.9524 7.85723 22.0477 7.85724 22.0477 8.04771C22.0477 8.14295 22.0477 8.23819 22.0477 8.33343L20.8096 10.4287L18.6191 14.2382L17.6667 15.9525L16.2381 18.5239L13.5715 23.0953C13.381 23.4762 13.4762 24.0477 13.8572 24.2381C13.9524 24.3334 14.1429 24.3334 14.2381 24.3334C14.5239 24.3334 14.8096 24.1429 14.9048 23.9524L16.5239 21.1905L23.4762 9.28581C23.7619 8.80962 23.8572 8.23819 23.6667 7.66677C23.4762 7.09534 23.1905 6.61914 22.7143 6.33343L15.7619 2.33345C15.4762 2.14297 15.0953 2.04773 14.7143 2.04773C14.4286 2.04773 14.1429 2.14298 13.8572 2.23822C13.6667 2.33345 13.4762 2.52393 13.381 2.71441C13.2858 2.90488 13.2858 3.19059 13.381 3.38107C13.4762 3.57154 13.762 3.76201 14.1429 3.76201Z" fill="#808080" stroke="white" stroke-width="0.4"/>
<path d="M14.5237 11.9523C14.4285 11.8571 14.238 11.8571 14.1428 11.8571C13.8571 11.8571 13.5714 12.0476 13.3809 12.2381C13.1904 12.619 13.2856 13.1904 13.6666 13.3809L15.7618 14.619C15.9523 14.7142 16.238 14.8095 16.5237 14.8095C17.0952 14.8095 17.5714 14.5238 17.8571 14.0476L20.4285 9.66663C20.619 9.28568 20.7142 8.90474 20.619 8.52379C20.5237 8.14284 20.238 7.76189 19.8571 7.57141L15.7618 5.19047C15.5714 5.09523 15.2856 5 14.9999 5C14.4285 5 13.9523 5.28572 13.6666 5.7619L13.3809 6.23809C13.1904 6.61904 13.2856 7.19046 13.6666 7.38094C13.7618 7.47618 13.9523 7.47618 14.1428 7.47618C14.4285 7.47618 14.7142 7.2857 14.9047 7.09522L15.0952 6.71428L18.9047 8.90475L16.5237 13.0952L14.5237 11.9523Z" fill="#808080" stroke="white" stroke-width="0.4"/>
<path d="M13.1905 3.09523C13.1905 1.95238 12.2381 1 11.0952 1H3.09524C1.95238 1 1 1.95238 1 3.09523V28.8095C1 29.9524 1.95238 30.9047 3.09524 30.9047H11H11.0952C12.2381 30.9047 13.1905 29.9524 13.1905 28.8095V3.09523ZM2.71428 3.09523C2.71428 2.90476 2.90476 2.71429 3.09524 2.71429H11.0952C11.2857 2.71429 11.4762 2.90476 11.4762 3.09523V28.8095C11.4762 29 11.2857 29.1905 11.0952 29.1905H3.09524C2.90476 29.1905 2.71428 29 2.71428 28.8095V3.09523Z" fill="#808080" stroke="white" stroke-width="0.4"/>
<path d="M4.7145 11.7618H9.38116C10.2383 11.7618 11.0002 11.0951 11.0002 10.1427V5.09513C11.0002 4.23799 10.3335 3.47607 9.38116 3.47607H4.7145C3.85736 3.47607 3.09546 4.14275 3.09546 5.09513V10.1427C3.1907 10.9999 3.85736 11.7618 4.7145 11.7618ZM4.90498 10.0475V5.28561H9.28593V10.0475H4.90498Z" fill="#808080" stroke="white" stroke-width="0.4"/>
<path d="M4.7145 20.8094H9.38116C10.2383 20.8094 11.0002 20.1427 11.0002 19.1903V14.1427C11.0002 13.2856 10.3335 12.5237 9.38116 12.5237H4.7145C3.85736 12.5237 3.09546 13.1904 3.09546 14.1427V19.1903C3.1907 20.0475 3.85736 20.8094 4.7145 20.8094ZM4.90498 19.0951V14.3332H9.28593V19.0951H4.90498Z" fill="#808080" stroke="white" stroke-width="0.4"/>
<path d="M7.09519 24.5239C6.04757 24.5239 5.19043 25.3811 5.19043 26.4287C5.19043 27.4763 6.04757 28.3335 7.09519 28.3335C8.14281 28.3335 8.99995 27.4763 8.99995 26.4287C8.99995 25.3811 8.14281 24.5239 7.09519 24.5239ZM7.09519 26.2382C7.19043 26.2382 7.28566 26.3335 7.28566 26.4287C7.28566 26.5239 7.19043 26.6192 7.09519 26.6192C6.99995 26.6192 6.90471 26.5239 6.90471 26.4287C6.90471 26.3335 6.99995 26.2382 7.09519 26.2382Z" fill="#808080" stroke="white" stroke-width="0.4"/>
</svg>
