<svg width="28" height="28" viewBox="0 0 28 28" fill="none" xmlns="http://www.w3.org/2000/svg">
<path d="M24.0206 28C18.5324 28 12.6165 25.2 7.69847 20.2462C1.85387 14.2872 -1.06843 6.60513 0.357084 0.717949C0.42836 0.287179 0.784738 0 1.21239 0H9.76547C10.1931 0 10.5495 0.287179 10.6208 0.717949L12.0463 7.89744C12.1176 8.18462 12.0463 8.4718 11.8325 8.68718L9.40909 11.1282L9.69419 11.6308C10.692 13.3538 11.9037 14.8615 13.4005 16.2256C13.6144 16.3692 13.6856 16.5846 13.6856 16.8718C13.6856 17.0872 13.6144 17.3744 13.4718 17.5179C13.3292 17.7333 13.0441 17.8051 12.8303 17.8051C12.6165 17.8051 12.4027 17.7333 12.2601 17.5897C11.9037 17.3026 11.6186 17.0154 11.2623 16.6564C9.76547 15.1487 8.48251 13.3538 7.55592 11.4154C7.41337 11.0564 7.48465 10.6256 7.69847 10.4103L10.1931 7.89744L9.05271 1.79487H1.92515L1.85387 2.44103C1.28367 7.68205 3.92087 13.8564 8.98143 18.9538C13.5431 23.5487 19.0313 26.2051 24.0206 26.2051C24.4482 26.2051 24.9472 26.2051 25.3748 26.1333L26.0163 26.0615V18.8821L20.0292 17.6615L17.5345 20.1744C17.392 20.3179 17.1069 20.4615 16.893 20.4615C16.6792 20.4615 16.4654 20.3897 16.2515 20.1744C15.8952 19.8154 15.8952 19.241 16.2515 18.8821L19.1026 16.0103C19.2451 15.8667 19.5302 15.7231 19.7441 15.7231C19.8153 15.7231 19.8866 15.7231 19.8866 15.7231L27.0142 17.159C27.4418 17.2308 27.7269 17.5897 27.7269 18.0205V26.6359C27.7269 27.0667 27.4418 27.4256 27.0142 27.4974C26.1589 27.8564 25.0897 28 24.0206 28Z" fill="#252525"/>
</svg>
