<svg width="25" height="20" viewBox="0 0 25 20" fill="none" xmlns="http://www.w3.org/2000/svg">
<path d="M23.7082 4.74164C23.2219 4.19453 22.5532 3.82979 21.8237 3.82979H12.462C12.1581 3.82979 11.8541 4.07295 11.8541 4.43769C11.8541 4.80243 12.1581 5.04559 12.462 5.04559H21.8237C22.1884 5.04559 22.5532 5.22796 22.7964 5.47112C23.0395 5.77508 23.1611 6.13982 23.0395 6.50456L22.4924 9.54407H15.8055C15.5015 9.54407 15.1976 9.78723 15.1976 10.152C15.1976 10.5167 15.5015 10.7599 15.8055 10.7599H22.31L21.7629 13.6778C21.7021 14.1033 21.2766 14.4073 20.8511 14.4073H9.17933C8.7538 14.4073 8.38906 14.1033 8.26748 13.6778L5.89666 0.486322C5.83587 0.182371 5.59271 0 5.28875 0H0.607903C0.303951 0 0 0.243161 0 0.607903C0 0.972644 0.303951 1.21581 0.607903 1.21581H4.80243L7.11246 13.9818C7.23404 14.8328 7.84195 15.4407 8.63222 15.6839C8.32827 16.1094 8.08511 16.6565 8.08511 17.2644C8.08511 18.7842 9.30091 20 10.8207 20C12.3404 20 13.5562 18.7842 13.5562 17.2644C13.5562 16.7173 13.3739 16.1702 13.0699 15.7447H16.7781C16.4742 16.1702 16.2918 16.7173 16.2918 17.2644C16.2918 18.7842 17.5076 20 19.0274 20C20.5471 20 21.7629 18.7842 21.7629 17.2644C21.7629 16.6565 21.5805 16.1094 21.2766 15.6839C22.0669 15.5015 22.7356 14.8328 22.9179 13.9818L24.2553 6.80851C24.3769 6.07903 24.1945 5.34954 23.7082 4.74164ZM12.3404 17.2036C12.3404 18.0547 11.6717 18.7234 10.8207 18.7234C9.96961 18.7234 9.30091 18.0547 9.30091 17.2036C9.30091 16.3526 9.96961 15.6839 10.8207 15.6839C11.6717 15.6839 12.3404 16.3526 12.3404 17.2036ZM19.0881 18.7234C18.2371 18.7234 17.5684 18.0547 17.5684 17.2036C17.5684 16.3526 18.2371 15.6839 19.0881 15.6839C19.9392 15.6839 20.6079 16.3526 20.6079 17.2036C20.6079 18.0547 19.9392 18.7234 19.0881 18.7234Z" fill="#252525"/>
</svg>
