<svg width="43" height="27" viewBox="0 0 43 27" fill="none" xmlns="http://www.w3.org/2000/svg">
<path d="M8.38019 26.0001C10.1124 26.0001 11.5167 24.5958 11.5167 22.8636C11.5167 21.1313 10.1124 19.7271 8.38019 19.7271C6.64793 19.7271 5.24365 21.1313 5.24365 22.8636C5.24365 24.5958 6.64793 26.0001 8.38019 26.0001Z" stroke="#808080" stroke-width="1.5" stroke-miterlimit="10"/>
<path d="M33.4722 26.0001C35.2045 26.0001 36.6088 24.5958 36.6088 22.8636C36.6088 21.1313 35.2045 19.7271 33.4722 19.7271C31.74 19.7271 30.3357 21.1313 30.3357 22.8636C30.3357 24.5958 31.74 26.0001 33.4722 26.0001Z" stroke="#808080" stroke-width="1.5" stroke-miterlimit="10"/>
<path d="M13.8229 23.048H24.8008C24.893 23.048 24.893 22.9557 24.893 22.9557V1.09225C24.893 1 24.8008 1 24.8008 1H1.09225C0.999999 1 1 1.09225 1 1.09225V22.9557C1 23.048 1.09225 23.048 1.09225 23.048H3.85978" stroke="#808080" stroke-width="1.5" stroke-miterlimit="10"/>
<path d="M28.9519 22.8636H27.6604V4.78237C27.6604 4.69012 27.7527 4.50562 27.9372 4.50562H37.1622C37.2545 4.50562 37.3468 4.59787 37.3468 4.59787L41.4058 12.6237V22.5868C41.4058 22.6791 41.3135 22.7713 41.2213 22.7713H38.4538" stroke="#808080" stroke-width="1.5" stroke-miterlimit="10"/>
<path d="M31.8118 4.59766V12.3467H38.3616" stroke="#808080" stroke-width="1.5" stroke-miterlimit="10"/>
<path d="M30.8892 15.5757H32.8264" stroke="#808080" stroke-width="1.5" stroke-miterlimit="10"/>
<path d="M38.7305 18.0664H40.76" stroke="#808080" stroke-width="1.5" stroke-miterlimit="10"/>
<path d="M12.9927 19.7271H24.7085" stroke="#808080" stroke-width="1.5" stroke-miterlimit="10"/>
<path d="M1 15.5757H3.85978V18.7122H1" stroke="#808080" stroke-width="1.5" stroke-miterlimit="10"/>
<path d="M3.85986 5.33569H25.0776" stroke="#808080" stroke-width="1.5" stroke-miterlimit="10"/>
<path d="M12.9927 12.3469H25.0776" stroke="#808080" stroke-width="1.5" stroke-miterlimit="10"/>
<path d="M11.1475 12.3469H9.21021" stroke="#808080" stroke-width="1.5" stroke-miterlimit="10"/>
</svg>
