<svg width="53" height="65" viewBox="0 0 53 65" fill="none" xmlns="http://www.w3.org/2000/svg">
<path d="M47.1774 65H5.24194C2.35153 65 0 62.6485 0 59.7581V5.24194C0 2.35153 2.35153 0 5.24194 0H26.5698C27.9699 0 29.2867 0.545685 30.2759 1.53536L50.884 22.1435C51.8742 23.1337 52.4194 24.4494 52.4194 25.8496V59.7581C52.4194 62.6485 50.0678 65 47.1774 65ZM5.24194 2.09677C3.50738 2.09677 2.09677 3.50738 2.09677 5.24194V59.7581C2.09677 61.4926 3.50738 62.9032 5.24194 62.9032H47.1774C48.912 62.9032 50.3226 61.4926 50.3226 59.7581V25.8496C50.3226 25.0219 49.9866 24.2115 49.4016 23.6259L28.7934 3.01778C28.1995 2.42387 27.4096 2.09677 26.5698 2.09677H5.24194Z" fill="#FD4233"/>
<path d="M42.5699 41.0549C42.5332 40.7876 42.3183 40.4521 42.0876 40.2267C41.4271 39.5767 39.9751 39.2359 37.763 39.2045C36.2638 39.1888 34.4606 39.3198 32.563 39.5872C31.7138 39.0997 30.8384 38.565 30.1517 37.9202C28.3013 36.1956 26.7602 33.8001 25.7957 31.1634C25.8586 30.917 25.911 30.7021 25.9634 30.4819C25.9634 30.4819 27.0013 24.569 26.7287 22.5666C26.692 22.294 26.6658 22.2154 26.5925 22.0005L26.5033 21.7698C26.2203 21.1146 25.6646 20.4226 24.7945 20.4593L24.2808 20.4436H24.2703C23.2953 20.4436 22.509 20.9416 22.2993 21.6807C21.6703 24.0081 22.3203 27.494 23.4997 32.0021L23.1957 32.7359C22.3517 34.8013 21.2929 36.8771 20.3598 38.7065L20.2392 38.9424C19.2537 40.8662 18.3626 42.5017 17.5501 43.8855L16.7166 44.3259C16.6537 44.3573 15.2227 45.1174 14.8872 45.3166C12.0408 47.0202 10.1537 48.9493 9.83923 50.4799C9.73963 50.9726 9.81302 51.5964 10.3215 51.8847L11.1287 52.2936C11.48 52.4666 11.8521 52.5557 12.2296 52.5557C14.2582 52.5557 16.6118 50.0291 19.8566 44.3678C23.5993 43.1517 27.8662 42.1347 31.6037 41.5791C34.4501 43.1779 37.9517 44.2944 40.1638 44.2944C40.557 44.2944 40.8977 44.2577 41.1703 44.1843C41.5949 44.069 41.9513 43.8279 42.1715 43.5029C42.6013 42.8581 42.6852 41.967 42.5699 41.0549ZM11.7892 51.0198C12.1562 50.0081 13.6239 48.0057 15.7888 46.2339C15.9251 46.1238 16.2606 45.8093 16.5646 45.5158C14.3001 49.1275 12.7852 50.5638 11.7892 51.0198ZM24.611 21.492C25.261 21.492 25.6332 23.1327 25.6646 24.6738C25.6961 26.215 25.3344 27.2948 24.8888 28.0968C24.5166 26.9122 24.3384 25.046 24.3384 23.8247C24.3384 23.8247 24.3122 21.492 24.611 21.492ZM20.7844 42.5331C21.2404 41.7206 21.7122 40.8609 22.1945 39.9541C23.3739 37.7263 24.1183 35.9859 24.6687 34.5549C25.7695 36.5573 27.1429 38.2609 28.7521 39.6238C28.9566 39.7916 29.1715 39.9646 29.3916 40.1376C26.1154 40.7823 23.2796 41.5738 20.7844 42.5331ZM41.4533 42.3497C41.2541 42.4702 40.6828 42.5436 40.3158 42.5436C39.1312 42.5436 37.6582 42.0037 35.5981 41.1178C36.3896 41.0601 37.1183 41.0287 37.7683 41.0287C38.9582 41.0287 39.3094 41.0234 40.4783 41.3222C41.642 41.621 41.6578 42.2238 41.4533 42.3497Z" fill="#FF402F"/>
</svg>
