<svg width="30" height="30" viewBox="0 0 30 30" fill="none" xmlns="http://www.w3.org/2000/svg">
<path d="M15 30C23.3 30 30 23.3 30 15C30 6.7 23.3 0 15 0C6.7 0 0 6.7 0 15C0 23.3 6.7 30 15 30Z" fill="#7F4DA0"/>
<path d="M19.0125 13.1873C18.9478 12.6717 18.7863 12.2668 18.4994 11.9082C18.1269 11.4464 17.6509 11.1699 16.9461 11.0059C16.4868 10.8966 16.3012 10.9091 16.1351 11.058C15.9803 11.1975 15.9501 11.4771 16.0684 11.6581C16.1515 11.7895 16.2475 11.8366 16.5143 11.888C16.8696 11.9521 17.1151 12.0354 17.3385 12.1607C17.8126 12.4292 18.0334 12.8495 18.057 13.5299C18.0681 13.8494 18.0962 13.9476 18.21 14.0609C18.4208 14.268 18.7959 14.2277 18.955 13.9799C19.0134 13.8864 19.0223 13.8458 19.0285 13.6289C19.0326 13.4946 19.0267 13.2947 19.0125 13.1873Z" fill="white"/>
<path d="M20.8695 13.7679C20.7759 12.1882 20.1461 10.9172 19.0189 10.023C18.3838 9.5205 17.6162 9.17499 16.7747 9.00696C16.4665 8.94687 15.899 8.89816 15.8016 8.92602C15.7097 8.95182 15.5798 9.04941 15.5219 9.13767C15.4606 9.23338 15.4468 9.44706 15.4991 9.57067C15.5834 9.7773 15.7403 9.8503 16.1796 9.88801C16.857 9.94614 17.5556 10.1796 18.0834 10.5252C18.686 10.9187 19.1651 11.457 19.475 12.0894C19.7427 12.6329 19.9074 13.416 19.9028 14.1173C19.9013 14.3709 19.9412 14.5141 20.0452 14.6189C20.2022 14.7799 20.4309 14.8151 20.6328 14.7082C20.8566 14.5927 20.9089 14.3901 20.8695 13.7679Z" fill="white"/>
<path d="M22.9236 19.8512C22.8921 19.7609 22.8186 19.6216 22.7661 19.5416C22.4353 19.0516 20.6581 17.6871 19.7707 17.2409C19.2641 16.9855 18.8887 16.9004 18.6104 16.9803C18.3111 17.0629 18.1536 17.1996 17.6522 17.8109C17.4501 18.056 17.2427 18.2855 17.1876 18.3216C17.0511 18.4145 16.7833 18.4893 16.5943 18.4893C16.1559 18.4867 15.3604 18.2081 14.7488 17.8418C14.2736 17.5582 13.6646 17.05 13.1973 16.547C12.646 15.9564 12.2706 15.4353 11.974 14.8472C11.5907 14.0915 11.4936 13.6298 11.6537 13.2919C11.6931 13.2068 11.7456 13.1165 11.7692 13.0881C11.7928 13.0623 12.0396 12.8637 12.3126 12.647C12.8482 12.2292 12.9348 12.1338 13.0345 11.8475C13.1605 11.4837 13.1264 11.1123 12.9322 10.7383C12.7825 10.4546 12.3914 9.83557 12.1079 9.43578C11.7325 8.90961 10.7979 7.78501 10.6115 7.63278C10.2755 7.36456 9.84498 7.3181 9.36978 7.49869C8.86841 7.68957 7.92857 8.43241 7.52691 8.95087C7.16464 9.4203 7.02555 9.75303 7.00453 10.1915C6.98616 10.5526 7.01765 10.7022 7.21192 11.1639C8.7319 14.7853 11 17.6768 14.1161 19.9724C15.7437 21.1718 17.4317 22.0849 19.1827 22.7091C20.2039 23.0728 20.6475 23.0908 21.1699 22.7917C21.3904 22.6627 21.9365 22.1133 22.241 21.7135C22.745 21.048 22.9314 20.7411 22.9839 20.496C23.0207 20.3284 22.9918 20.0369 22.9236 19.8512Z" fill="white"/>
<path d="M22.76 14.13C22.7263 13.2364 22.573 12.5035 22.2532 11.6863C21.9375 10.8824 21.618 10.3579 21.0146 9.64844C20.4441 8.98323 20.001 8.60341 19.2982 8.18062C18.3177 7.59155 17.1245 7.20173 15.7873 7.03779C15.3312 6.98049 15.2281 6.98458 15.0881 7.07617C14.817 7.24966 14.8206 7.6824 15.0926 7.85329C15.1826 7.90765 15.2625 7.92746 15.6273 7.9743C16.1873 8.04826 16.5474 8.11797 16.9746 8.23233C18.65 8.68165 19.9384 9.60008 20.7998 10.9635C21.5206 12.0998 21.8198 13.2363 21.7774 14.6878C21.7626 15.1784 21.7733 15.2648 21.8498 15.3827C21.9962 15.6024 22.3823 15.6459 22.5804 15.4636C22.7037 15.3524 22.7269 15.269 22.7512 14.849C22.7628 14.6299 22.7653 14.3065 22.76 14.13Z" fill="white"/>
</svg>
