<svg width="46" height="29" viewBox="0 0 46 29" fill="none" xmlns="http://www.w3.org/2000/svg">
<path d="M9.0001 28.1C10.8779 28.1 12.4001 26.5778 12.4001 24.7C12.4001 22.8223 10.8779 21.3 9.0001 21.3C7.12233 21.3 5.6001 22.8223 5.6001 24.7C5.6001 26.5778 7.12233 28.1 9.0001 28.1Z" stroke="#FAAA17" stroke-width="1.5" stroke-miterlimit="10"/>
<path d="M36.1998 28.1C38.0776 28.1 39.5998 26.5778 39.5998 24.7C39.5998 22.8223 38.0776 21.3 36.1998 21.3C34.322 21.3 32.7998 22.8223 32.7998 24.7C32.7998 26.5778 34.322 28.1 36.1998 28.1Z" stroke="#FAAA17" stroke-width="1.5" stroke-miterlimit="10"/>
<path d="M14.9 24.9H26.8C26.9 24.9 26.9 24.8 26.9 24.8V1.1C26.9 1 26.8 1 26.8 1H1.1C0.999999 1 1 1.1 1 1.1V24.8C1 24.9 1.1 24.9 1.1 24.9H4.1" stroke="#FAAA17" stroke-width="1.5" stroke-miterlimit="10"/>
<path d="M31.2999 24.7H29.8999V5.10005C29.8999 5.00005 29.9999 4.80005 30.1999 4.80005H40.1999C40.2999 4.80005 40.3999 4.90005 40.3999 4.90005L44.7999 13.6V24.4C44.7999 24.5 44.6999 24.6 44.5999 24.6H41.5999" stroke="#FAAA17" stroke-width="1.5" stroke-miterlimit="10"/>
<path d="M34.3999 4.8999V13.2999H41.4999" stroke="#FAAA17" stroke-width="1.5" stroke-miterlimit="10"/>
<path d="M33.3999 16.8H35.4999" stroke="#FAAA17" stroke-width="1.5" stroke-miterlimit="10"/>
<path d="M41.8999 19.5H44.0999" stroke="#FAAA17" stroke-width="1.5" stroke-miterlimit="10"/>
<path d="M14 21.3H26.7" stroke="#FAAA17" stroke-width="1.5" stroke-miterlimit="10"/>
<path d="M1 16.8H4.1V20.2H1" stroke="#FAAA17" stroke-width="1.5" stroke-miterlimit="10"/>
<path d="M4.1001 5.69995H27.1001" stroke="#FAAA17" stroke-width="1.5" stroke-miterlimit="10"/>
<path d="M14 13.3H27.1" stroke="#FAAA17" stroke-width="1.5" stroke-miterlimit="10"/>
<path d="M11.9999 13.3H9.8999" stroke="#FAAA17" stroke-width="1.5" stroke-miterlimit="10"/>
</svg>
