<svg width="34" height="45" viewBox="0 0 34 45" fill="none" xmlns="http://www.w3.org/2000/svg">
<path d="M26.8952 8.60143C26.6234 8.60143 26.3775 8.42979 26.2847 8.17094C26.204 7.97889 26.2207 7.75808 26.3321 7.57902C26.4508 7.3879 26.6596 7.271 26.8841 7.271H26.8961C27.2552 7.271 27.5456 7.56139 27.5456 7.92044V7.95106C27.5456 8.27578 27.3053 8.55133 26.9833 8.59493C26.9527 8.59957 26.924 8.60143 26.8952 8.60143Z" fill="#FAAA17"/>
<path d="M24.8513 32.4657H21.9882C20.5028 32.4657 19.2949 31.2578 19.2949 29.7724V27.221C19.2949 26.8619 19.5853 26.5716 19.9443 26.5716C20.3034 26.5716 20.5938 26.8619 20.5938 27.221V29.7724C20.5938 30.5415 21.2191 31.1668 21.9882 31.1668H24.8513C25.6205 31.1668 26.2458 30.5415 26.2458 29.7724V10.1388C25.9229 10.2965 25.562 10.3837 25.1835 10.3837C24.5164 10.3837 23.8744 10.1044 23.4198 9.61829C22.9652 10.1054 22.3231 10.3837 21.6561 10.3837C21.2766 10.3837 20.9148 10.2965 20.5928 10.1388V24.6408C20.5928 24.9999 20.3024 25.2903 19.9434 25.2903C19.5843 25.2903 19.2939 24.9999 19.2939 24.6408V8.39084C19.2939 8.0624 19.5398 7.785 19.8664 7.74603C20.192 7.70614 20.4973 7.91767 20.5743 8.23775C20.6958 8.7369 21.1402 9.08481 21.6561 9.08481C21.9715 9.08481 22.2619 8.95771 22.4753 8.72576C22.7165 8.46413 23.0598 8.3129 23.4179 8.3129H23.4188C23.777 8.3129 24.1212 8.4632 24.3633 8.72576C24.5767 8.95771 24.868 9.08481 25.1825 9.08481C25.6965 9.08481 26.1409 8.7369 26.2643 8.23961C26.3432 7.92045 26.6475 7.7117 26.9732 7.75067C27.2988 7.79057 27.5447 8.06704 27.5447 8.39548V29.7724C27.5447 31.2578 26.3367 32.4657 24.8513 32.4657Z" fill="#FAAA17"/>
<path d="M23.42 27.8705C23.0609 27.8705 22.7705 27.5801 22.7705 27.221V14.0735C22.7705 13.7145 23.0609 13.4241 23.42 13.4241C23.779 13.4241 24.0694 13.7145 24.0694 14.0735V27.221C24.0694 27.5801 23.779 27.8705 23.42 27.8705Z" fill="#FAAA17"/>
<path d="M23.42 12.5361C23.2492 12.5361 23.0822 12.4674 22.9607 12.3459C22.931 12.3162 22.9041 12.2828 22.88 12.2476C22.8568 12.2123 22.8364 12.1752 22.8206 12.1353C22.8039 12.0963 22.7918 12.0555 22.7835 12.0138C22.7751 11.972 22.7705 11.9293 22.7705 11.8876C22.7705 11.8449 22.7751 11.8022 22.7835 11.7605C22.7918 11.7187 22.8039 11.6779 22.8206 11.6389C22.8364 11.6 22.8568 11.5619 22.88 11.5267C22.9041 11.4914 22.931 11.458 22.9607 11.4283C23.1119 11.2771 23.3365 11.2084 23.5471 11.2502C23.5888 11.2585 23.6296 11.2715 23.6686 11.2873C23.7076 11.304 23.7456 11.3235 23.7809 11.3476C23.8161 11.3708 23.8495 11.3977 23.8792 11.4283C23.9089 11.458 23.9367 11.4914 23.9599 11.5267C23.9831 11.5619 24.0035 11.6 24.0202 11.6389C24.036 11.6779 24.049 11.7187 24.0573 11.7605C24.0657 11.8022 24.0694 11.8449 24.0694 11.8876C24.0694 12.0583 24.0007 12.2253 23.8792 12.3459C23.8495 12.3765 23.8161 12.4034 23.7809 12.4266C23.7456 12.4507 23.7076 12.4702 23.6686 12.4869C23.6296 12.5027 23.5888 12.5157 23.5471 12.524C23.5053 12.5324 23.4626 12.5361 23.42 12.5361Z" fill="#FAAA17"/>
<path d="M25.1834 10.3837C24.5163 10.3837 23.8743 10.1044 23.4197 9.61826C22.9651 10.1053 22.3231 10.3837 21.656 10.3837C20.539 10.3837 19.575 9.62754 19.3115 8.5439C19.2967 8.48266 19.2846 8.42236 19.2744 8.36112C19.2401 8.15516 19.2586 7.94362 19.3264 7.74508C19.3356 7.71725 19.3458 7.69034 19.3579 7.66344C19.3876 7.59014 19.4256 7.5187 19.4702 7.45097L22.8334 0.371111C22.941 0.144733 23.1692 0 23.4197 0C23.6702 0 23.8984 0.144733 24.0061 0.371111L27.3693 7.45376C27.4119 7.5187 27.4481 7.58736 27.4778 7.65787C27.4917 7.68849 27.5038 7.72003 27.5131 7.75157C27.578 7.94548 27.5966 8.15237 27.565 8.35185C27.5539 8.4205 27.5409 8.48174 27.527 8.54204C27.2598 9.63032 26.2968 10.3837 25.1834 10.3837ZM23.4197 8.31288C23.7778 8.31288 24.122 8.46318 24.3642 8.72574C24.5776 8.95768 24.8689 9.08479 25.1834 9.08479C25.6974 9.08479 26.1418 8.73687 26.2652 8.23958C26.2698 8.21825 26.2763 8.19134 26.281 8.16258V8.16165C26.2578 8.12918 26.2364 8.09485 26.2188 8.05774L23.4197 2.16543L20.6206 8.05774C20.603 8.09392 20.5826 8.12825 20.5594 8.16072C20.564 8.18577 20.5687 8.21175 20.5752 8.23773C20.6958 8.73502 21.1411 9.08293 21.6569 9.08293C21.9724 9.08293 22.2628 8.95583 22.4762 8.72388C22.7174 8.46225 23.0607 8.31102 23.4188 8.31102C23.4188 8.31288 23.4197 8.31288 23.4197 8.31288Z" fill="#FAAA17"/>
<path d="M25.1466 4.93573H21.6944C21.3353 4.93573 21.0449 4.64533 21.0449 4.28628C21.0449 3.92723 21.3353 3.63684 21.6944 3.63684H25.1466C25.5057 3.63684 25.7961 3.92723 25.7961 4.28628C25.7961 4.64533 25.5047 4.93573 25.1466 4.93573Z" fill="#FAAA17"/>
<path d="M24.9868 32.4657H21.8528C20.4426 32.4657 19.2949 31.318 19.2949 29.9078V27.221C19.2949 26.8619 19.5853 26.5715 19.9444 26.5715H26.8962C27.2552 26.5715 27.5456 26.8619 27.5456 27.221V29.9078C27.5447 31.318 26.398 32.4657 24.9868 32.4657ZM20.5929 27.8704V29.9078C20.5929 30.6018 21.1579 31.1668 21.8519 31.1668H24.9868C25.6808 31.1668 26.2458 30.6018 26.2458 29.9078V27.8704H20.5929Z" fill="#FAAA17"/>
<path d="M26.8953 36.8559C26.8535 36.8559 26.8109 36.8513 26.7691 36.8429C26.7274 36.8346 26.6865 36.8225 26.6476 36.8058C26.6077 36.79 26.5706 36.7696 26.5353 36.7464C26.4991 36.7223 26.4667 36.6954 26.436 36.6657C26.4064 36.636 26.3795 36.6026 26.3553 36.5665C26.3321 36.5321 26.3127 36.4941 26.296 36.4551C26.2802 36.4152 26.2672 36.3744 26.2588 36.3336C26.2505 36.2918 26.2458 36.2492 26.2458 36.2065C26.2458 36.1638 26.2505 36.1211 26.2588 36.0794C26.2672 36.0385 26.2802 35.9968 26.296 35.9578C26.3127 35.9189 26.3321 35.8808 26.3553 35.8456C26.3795 35.8103 26.4064 35.7769 26.436 35.7472C26.4667 35.7175 26.4991 35.6897 26.5353 35.6665C26.5706 35.6433 26.6077 35.6229 26.6476 35.6071C26.6865 35.5904 26.7274 35.5784 26.7691 35.57C26.8526 35.5533 26.9389 35.5533 27.0224 35.57C27.0642 35.5784 27.105 35.5904 27.1439 35.6071C27.1829 35.6229 27.2209 35.6433 27.2562 35.6665C27.2915 35.6897 27.3249 35.7175 27.3545 35.7472C27.3852 35.7769 27.4121 35.8103 27.4353 35.8456C27.4594 35.8808 27.4789 35.9189 27.4956 35.9578C27.5113 35.9968 27.5243 36.0385 27.5327 36.0794C27.541 36.1211 27.5447 36.1638 27.5447 36.2065C27.5447 36.2492 27.541 36.2918 27.5327 36.3336C27.5243 36.3744 27.5113 36.4152 27.4956 36.4551C27.4789 36.4941 27.4594 36.5321 27.4353 36.5665C27.4121 36.6026 27.3852 36.636 27.3545 36.6657C27.3249 36.6954 27.2915 36.7223 27.2562 36.7464C27.2209 36.7696 27.1829 36.79 27.1439 36.8058C27.105 36.8225 27.0642 36.8346 27.0224 36.8429C26.9807 36.8513 26.938 36.8559 26.8953 36.8559Z" fill="#FAAA17"/>
<path d="M0.920354 44.9999H0.649444C0.290394 44.9999 0 44.7095 0 44.3505V1.11795C0 0.7589 0.290394 0.468506 0.649444 0.468506H12.2327C12.5918 0.468506 12.8822 0.7589 12.8822 1.11795V31.8162C12.8822 32.1753 12.5918 32.4657 12.2327 32.4657C11.8737 32.4657 11.5833 32.1753 11.5833 31.8162V1.76739H1.29889V43.278L11.8533 35.6795C12.1446 35.4698 12.55 35.5357 12.7597 35.827C12.9694 36.1183 12.9035 36.5238 12.6122 36.7334L1.29981 44.8775C1.18941 44.9573 1.05674 44.9999 0.920354 44.9999Z" fill="#FAAA17"/>
<path d="M4.86619 6.29864H0.649444C0.290394 6.29864 0 6.00825 0 5.6492C0 5.29015 0.290394 4.99976 0.649444 4.99976H4.86619C5.22524 4.99976 5.51563 5.29015 5.51563 5.6492C5.51563 6.00825 5.22431 6.29864 4.86619 6.29864Z" fill="#FAAA17"/>
<path d="M4.86619 12.6002H0.649444C0.290394 12.6002 0 12.3098 0 11.9507C0 11.5917 0.290394 11.3013 0.649444 11.3013H4.86619C5.22524 11.3013 5.51563 11.5917 5.51563 11.9507C5.51563 12.3098 5.22431 12.6002 4.86619 12.6002Z" fill="#FAAA17"/>
<path d="M4.86624 18.9007C4.82356 18.9007 4.78088 18.896 4.73913 18.8877C4.69738 18.8793 4.65656 18.8673 4.6176 18.8506C4.57863 18.8348 4.54059 18.8144 4.50534 18.7912C4.47008 18.768 4.43668 18.7402 4.40699 18.7105C4.28545 18.5899 4.2168 18.4219 4.2168 18.2512C4.2168 18.2095 4.22051 18.1668 4.22886 18.1241C4.23721 18.0833 4.2502 18.0425 4.26597 18.0026C4.28267 17.9636 4.30215 17.9265 4.32627 17.8913C4.34947 17.8551 4.37637 17.8217 4.40699 17.792C4.43668 17.7623 4.47008 17.7354 4.50534 17.7113C4.54059 17.6881 4.57863 17.6677 4.6176 17.6519C4.65656 17.6352 4.69738 17.6231 4.73913 17.6148C4.94974 17.5721 5.17426 17.6408 5.32549 17.792C5.35518 17.8217 5.38208 17.8551 5.40621 17.8913C5.4294 17.9265 5.44981 17.9636 5.46558 18.0026C5.48229 18.0425 5.49435 18.0833 5.5027 18.1241C5.51105 18.1668 5.51568 18.2095 5.51568 18.2512C5.51568 18.4219 5.4461 18.5899 5.32549 18.7105C5.29487 18.7402 5.2624 18.768 5.22622 18.7912C5.19096 18.8144 5.15385 18.8348 5.11396 18.8506C5.07499 18.8673 5.03417 18.8793 4.99335 18.8877C4.95067 18.896 4.90799 18.9007 4.86624 18.9007Z" fill="#FAAA17"/>
<path d="M2.75735 18.9006H0.649444C0.290394 18.9006 0 18.6102 0 18.2511C0 17.8921 0.290394 17.6017 0.649444 17.6017H2.75735C3.1164 17.6017 3.4068 17.8921 3.4068 18.2511C3.4068 18.6102 3.1164 18.9006 2.75735 18.9006Z" fill="#FAAA17"/>
<path d="M4.86619 25.2021H0.649444C0.290394 25.2021 0 24.9117 0 24.5526C0 24.1936 0.290394 23.9032 0.649444 23.9032H4.86619C5.22524 23.9032 5.51563 24.1936 5.51563 24.5526C5.51563 24.9117 5.22431 25.2021 4.86619 25.2021Z" fill="#FAAA17"/>
<path d="M4.86619 31.5026H0.649444C0.290394 31.5026 0 31.2122 0 30.8532C0 30.4941 0.290394 30.2037 0.649444 30.2037H4.86619C5.22524 30.2037 5.51563 30.4941 5.51563 30.8532C5.51563 31.2122 5.22431 31.5026 4.86619 31.5026Z" fill="#FAAA17"/>
<path d="M4.86619 37.8041H0.649444C0.290394 37.8041 0 37.5137 0 37.1547C0 36.7956 0.290394 36.5052 0.649444 36.5052H4.86619C5.22524 36.5052 5.51563 36.7956 5.51563 37.1547C5.51563 37.5137 5.22431 37.8041 4.86619 37.8041Z" fill="#FAAA17"/>
<path d="M32.6279 45H0.920152C0.638108 45 0.388535 44.8182 0.302252 44.5501C0.215969 44.2819 0.312458 43.9888 0.540691 43.8236L11.8531 35.6796C11.9635 35.5998 12.0962 35.5571 12.2325 35.5571H24.7158C25.0748 35.5571 25.3652 35.8475 25.3652 36.2066C25.3652 36.5656 25.0748 36.856 24.7158 36.856H12.4413L2.93343 43.7012H31.9784V36.856H29.0429C28.6839 36.856 28.3935 36.5656 28.3935 36.2066C28.3935 35.8475 28.6839 35.5571 29.0429 35.5571H32.6279C32.9869 35.5571 33.2773 35.8475 33.2773 36.2066V44.3506C33.2773 44.7096 32.9869 45 32.6279 45Z" fill="#FAAA17"/>
</svg>
