<svg width="45" height="38" viewBox="0 0 45 38" fill="none" xmlns="http://www.w3.org/2000/svg">
<path d="M9.98351 32.3796C9.62443 32.3796 9.33402 32.0892 9.33402 31.7301C9.33402 29.5144 7.53217 27.7126 5.3165 27.7126C3.10083 27.7126 1.29897 29.5144 1.29897 31.7301C1.29897 32.0892 1.00856 32.3796 0.649485 32.3796C0.290412 32.3796 0 32.0892 0 31.7301V5.31649C0 2.38454 2.38454 0 5.3165 0C8.24845 0 10.633 2.38454 10.633 5.31649V31.7301C10.633 32.0892 10.3426 32.3796 9.98351 32.3796ZM5.3165 26.4136C6.91887 26.4136 8.35887 27.1262 9.33402 28.2516V5.31649C9.33402 3.10083 7.53217 1.29897 5.3165 1.29897C3.10083 1.29897 1.29897 3.10083 1.29897 5.31649V28.2516C2.27412 27.1262 3.71412 26.4136 5.3165 26.4136Z" fill="#FAAA17"/>
<path d="M44.3505 37.0466C43.9914 37.0466 43.701 36.7562 43.701 36.3971V5.96596H10.633V31.7301C10.633 32.0892 10.3426 32.3796 9.98351 32.3796C9.62443 32.3796 9.33402 32.0892 9.33402 31.7301C9.33402 29.5144 7.53217 27.7126 5.31649 27.7126C3.10083 27.7126 1.29897 29.5144 1.29897 31.7301C1.29897 33.9458 3.10083 35.7476 5.31649 35.7476H40.6364C40.9955 35.7476 41.2859 36.038 41.2859 36.3971C41.2859 36.7562 40.9955 37.0466 40.6364 37.0466H5.31649C2.38546 37.0466 0 34.662 0 31.7301C0 28.7981 2.38546 26.4136 5.31649 26.4136C6.91887 26.4136 8.35887 27.1262 9.33402 28.2516V5.31648C9.33402 4.9574 9.62443 4.66699 9.98351 4.66699H44.3505C44.7096 4.66699 45 4.9574 45 5.31648V36.3971C45 36.7562 44.7096 37.0466 44.3505 37.0466Z" fill="#FAAA17"/>
<path d="M19.837 16.638H13.4879C13.1288 16.638 12.8384 16.3476 12.8384 15.9885V9.63935C12.8384 9.28028 13.1288 8.98987 13.4879 8.98987H19.837C20.1961 8.98987 20.4865 9.28028 20.4865 9.63935V15.9885C20.4865 16.3476 20.1952 16.638 19.837 16.638ZM14.1373 15.339H19.1876V10.2888H14.1373V15.339Z" fill="#FAAA17"/>
<path d="M25.3326 32.4158H20.5236C20.1646 32.4158 19.8742 32.1254 19.8742 31.7663C19.8742 31.4072 20.1646 31.1168 20.5236 31.1168H24.6831V20.5711H14.1373V31.1168H15.0039C15.363 31.1168 15.6534 31.4072 15.6534 31.7663C15.6534 32.1254 15.363 32.4158 15.0039 32.4158H13.4879C13.1288 32.4158 12.8384 32.1254 12.8384 31.7663V19.9216C12.8384 19.5625 13.1288 19.2721 13.4879 19.2721H25.3326C25.6917 19.2721 25.9821 19.5625 25.9821 19.9216V31.7663C25.9821 32.1245 25.6917 32.4158 25.3326 32.4158Z" fill="#FAAA17"/>
<path d="M17.4564 32.4158C17.2847 32.4158 17.1177 32.3462 16.9971 32.2256C16.9674 32.195 16.9396 32.1625 16.9164 32.1263C16.8932 32.091 16.8728 32.0539 16.8561 32.014C16.8403 31.9751 16.8282 31.9342 16.8199 31.8925C16.8106 31.8507 16.8069 31.8081 16.8069 31.7663C16.8069 31.7236 16.8106 31.6809 16.8199 31.6392C16.8282 31.5974 16.8403 31.5566 16.8561 31.5176C16.8728 31.4787 16.8932 31.4406 16.9164 31.4054C16.9396 31.3701 16.9674 31.3367 16.9971 31.307C17.1177 31.1855 17.2847 31.1168 17.4564 31.1168C17.6271 31.1168 17.7941 31.1855 17.9156 31.307C17.9453 31.3367 17.9722 31.3701 17.9964 31.4054C18.0196 31.4406 18.04 31.4787 18.0558 31.5176C18.0725 31.5566 18.0845 31.5974 18.0929 31.6392C18.1012 31.6809 18.1059 31.7236 18.1059 31.7663C18.1059 31.8081 18.1012 31.8507 18.0929 31.8925C18.0845 31.9342 18.0725 31.9751 18.0558 32.014C18.04 32.0539 18.0196 32.091 17.9964 32.1263C17.9722 32.1625 17.9453 32.195 17.9156 32.2256C17.7941 32.3462 17.6271 32.4158 17.4564 32.4158Z" fill="#FAAA17"/>
<path d="M39.2623 16.6379H22.5001C22.141 16.6379 21.8506 16.3475 21.8506 15.9884V9.63923C21.8506 9.28016 22.141 8.98975 22.5001 8.98975H30.7021C31.0612 8.98975 31.3516 9.28016 31.3516 9.63923C31.3516 9.9983 31.0612 10.2887 30.7021 10.2887H23.1496V15.3389H38.6129V10.2887H35.6141C35.255 10.2887 34.9646 9.9983 34.9646 9.63923C34.9646 9.28016 35.255 8.98975 35.6141 8.98975H39.2623C39.6214 8.98975 39.9118 9.28016 39.9118 9.63923V15.9884C39.9118 16.3475 39.6214 16.6379 39.2623 16.6379Z" fill="#FAAA17"/>
<path d="M33.0088 10.2897C32.9661 10.2897 32.9235 10.285 32.8817 10.2767C32.8399 10.2683 32.7991 10.2563 32.7601 10.2396C32.7212 10.2238 32.6831 10.2034 32.6479 10.1802C32.6126 10.1561 32.5792 10.1292 32.5495 10.0995C32.5189 10.0689 32.492 10.0364 32.4688 10.0002C32.4447 9.96494 32.4252 9.92782 32.4085 9.88886C32.3927 9.84896 32.3797 9.80813 32.3714 9.76731C32.363 9.72463 32.3584 9.68195 32.3584 9.6402C32.3584 9.59751 32.363 9.55483 32.3714 9.51308C32.3797 9.47133 32.3927 9.43051 32.4085 9.39154C32.4252 9.35257 32.4447 9.31453 32.4688 9.27927C32.492 9.24401 32.5189 9.21061 32.5495 9.18092C32.5792 9.15123 32.6126 9.12339 32.6479 9.1002C32.6831 9.077 32.7212 9.05659 32.7601 9.03989C32.7991 9.02411 32.8399 9.01205 32.8817 9.0037C32.9652 8.98607 33.0515 8.98607 33.135 9.0037C33.1767 9.01205 33.2176 9.02411 33.2565 9.03989C33.2955 9.05659 33.3336 9.077 33.3688 9.1002C33.4041 9.12339 33.4375 9.15123 33.4672 9.18092C33.4978 9.21061 33.5247 9.24401 33.5488 9.27927C33.572 9.31453 33.5915 9.35257 33.6082 9.39154C33.624 9.43051 33.637 9.47133 33.6453 9.51308C33.6537 9.55483 33.6574 9.59751 33.6574 9.6402C33.6574 9.68195 33.6537 9.72463 33.6453 9.76731C33.637 9.80813 33.624 9.84896 33.6082 9.88886C33.5915 9.92782 33.572 9.96494 33.5488 10.0002C33.5247 10.0364 33.4978 10.0689 33.4672 10.0995C33.4375 10.1292 33.4041 10.1561 33.3688 10.1802C33.3336 10.2034 33.2955 10.2238 33.2565 10.2396C33.2176 10.2563 33.1767 10.2683 33.135 10.2767C33.0932 10.285 33.0506 10.2897 33.0088 10.2897Z" fill="#FAAA17"/>
<path d="M32.9131 32.7229H29.3594C29.0004 32.7229 28.71 32.4325 28.71 32.0734V19.9216C28.71 19.5625 29.0004 19.2721 29.3594 19.2721H32.9131C33.2721 19.2721 33.5625 19.5625 33.5625 19.9216V32.0744C33.5625 32.4325 33.2721 32.7229 32.9131 32.7229ZM30.0099 31.424H32.2645V20.5711H30.0099V31.424Z" fill="#FAAA17"/>
<path d="M39.2622 32.7229H35.7086C35.3495 32.7229 35.0591 32.4325 35.0591 32.0734V19.9216C35.0591 19.5625 35.3495 19.2721 35.7086 19.2721H39.2622C39.6212 19.2721 39.9117 19.5625 39.9117 19.9216V32.0744C39.9117 32.4325 39.6212 32.7229 39.2622 32.7229ZM36.3581 31.424H38.6127V20.5711H36.3581V31.424Z" fill="#FAAA17"/>
<path d="M5.03913 23.9854C4.68006 23.9854 4.38965 23.695 4.38965 23.3359V6.02717C4.38965 5.6681 4.68006 5.37769 5.03913 5.37769C5.3982 5.37769 5.68862 5.6681 5.68862 6.02717V23.3359C5.68862 23.695 5.39728 23.9854 5.03913 23.9854Z" fill="#FAAA17"/>
<path d="M5.03913 4.62805C4.86748 4.62805 4.70047 4.55846 4.57985 4.43784C4.45924 4.31629 4.38965 4.14928 4.38965 3.97856C4.38965 3.80691 4.45924 3.6399 4.57985 3.51928C4.73016 3.36805 4.9547 3.29939 5.16625 3.34114C5.20707 3.34949 5.2479 3.36248 5.28779 3.37825C5.32676 3.39495 5.36388 3.41444 5.39913 3.43856C5.43532 3.46176 5.46872 3.48866 5.49841 3.51928C5.61903 3.6399 5.68862 3.80691 5.68862 3.97856C5.68862 4.14928 5.61903 4.31629 5.49841 4.43784C5.46872 4.46753 5.43532 4.49444 5.39913 4.51856C5.36388 4.54176 5.32676 4.56217 5.28779 4.57794C5.2479 4.59464 5.20707 4.60671 5.16625 4.61506C5.12449 4.62341 5.08181 4.62805 5.03913 4.62805Z" fill="#FAAA17"/>
</svg>
