<svg width="28" height="28" viewBox="0 0 28 28" fill="none" xmlns="http://www.w3.org/2000/svg">
<rect x="0.5" y="0.5" width="27" height="27" rx="4.5" stroke="#252525"/>
<path d="M3.57036 7.49191H14.8827C15.1064 9.00796 16.4121 10.1768 17.9892 10.1768C18.8288 10.1768 19.6183 9.84981 20.2125 9.25643C20.3921 9.07685 20.3921 8.78659 20.2125 8.60702C20.033 8.42698 19.7423 8.42744 19.5631 8.60656C19.1424 9.02725 18.5835 9.25873 17.9892 9.25873C16.762 9.25873 15.7636 8.26027 15.7636 7.03309C15.7636 5.80592 16.762 4.80746 17.9892 4.80746C19.2164 4.80746 20.2148 5.80592 20.2148 7.03309C20.2148 7.28661 20.4201 7.49237 20.6741 7.49237H24.4002C24.6542 7.49237 24.8595 7.28661 24.8595 7.03309C24.8595 6.77958 24.6542 6.57382 24.4002 6.57382H21.0962C20.873 5.05776 19.5668 3.88892 17.9897 3.88892C16.4125 3.88892 15.1064 5.0573 14.8832 6.57382H3.57036C3.31684 6.57382 3.11108 6.77958 3.11108 7.03309C3.11108 7.28615 3.31684 7.49191 3.57036 7.49191Z" fill="#252525"/>
<path d="M24.4002 13.5405H13.0879C12.8642 12.0244 11.5585 10.8556 9.98134 10.8556C8.4042 10.8556 7.09803 12.024 6.87482 13.5405H3.57036C3.31684 13.5405 3.11108 13.7463 3.11108 13.9998C3.11108 14.2533 3.31684 14.459 3.57036 14.459H7.29643C7.54995 14.459 7.75571 14.2533 7.75571 13.9998C7.75571 12.7726 8.75416 11.7741 9.98134 11.7741C11.2085 11.7741 12.207 12.7726 12.207 13.9998C12.207 15.2269 11.2085 16.2254 9.98134 16.2254C9.38704 16.2254 8.82811 15.9939 8.40787 15.5732C8.22876 15.3937 7.93804 15.3937 7.75846 15.5732C7.57889 15.7524 7.57889 16.0435 7.75846 16.2226C8.3523 16.8165 9.14179 17.1435 9.98134 17.1435C11.5585 17.1435 12.8647 15.9746 13.0879 14.4586H24.4002C24.6542 14.4586 24.8595 14.2528 24.8595 13.9993C24.8595 13.7463 24.6542 13.5405 24.4002 13.5405Z" fill="#252525"/>
<path d="M24.4002 20.5081H21.0962C20.873 18.992 19.5668 17.8232 17.9897 17.8232C16.4125 17.8232 15.1064 18.9916 14.8832 20.5081H3.57036C3.31684 20.5081 3.11108 20.7138 3.11108 20.9674C3.11108 21.2209 3.31684 21.4266 3.57036 21.4266H14.8827C15.1064 22.9427 16.4121 24.1111 17.9892 24.1111C18.8288 24.1111 19.6183 23.7841 20.2125 23.1907C20.3921 23.0111 20.3921 22.7204 20.2125 22.5413C20.033 22.3613 19.7423 22.3617 19.5631 22.5408C19.1424 22.9615 18.5835 23.1925 17.9892 23.1925C16.762 23.1925 15.7636 22.1945 15.7636 20.9674C15.7636 19.7402 16.762 18.7417 17.9892 18.7417C19.2164 18.7417 20.2148 19.7402 20.2148 20.9674C20.2148 21.2209 20.4201 21.4266 20.6741 21.4266H24.4002C24.6542 21.4266 24.8595 21.2209 24.8595 20.9674C24.8595 20.7138 24.6542 20.5081 24.4002 20.5081Z" fill="#252525"/>
</svg>
