<svg width="14" height="15" viewBox="0 0 14 15" fill="none" xmlns="http://www.w3.org/2000/svg">
<path d="M7.25 13.958C10.7018 13.958 13.5 11.1598 13.5 7.70801C13.5 4.25623 10.7018 1.45801 7.25 1.45801C3.79822 1.45801 1 4.25623 1 7.70801C1 11.1598 3.79822 13.958 7.25 13.958Z" fill="white" stroke="#252525" stroke-linecap="round" stroke-linejoin="round"/>
<path d="M5.43164 5.83581C5.57858 5.4181 5.86861 5.06587 6.25036 4.84151C6.63211 4.61715 7.08095 4.53514 7.51738 4.61C7.9538 4.68486 8.34965 4.91176 8.63481 5.25051C8.91998 5.58926 9.07605 6.01801 9.07539 6.46081C9.07539 7.71081 7.20039 8.33581 7.20039 8.33581" stroke="#252525" stroke-linecap="round" stroke-linejoin="round"/>
<path d="M7.25 10.833H7.2564" stroke="#252525" stroke-linecap="round" stroke-linejoin="round"/>
</svg>
