<svg width="159" height="63" viewBox="0 0 159 63" fill="none" xmlns="http://www.w3.org/2000/svg">
<path fill-rule="evenodd" clip-rule="evenodd" d="M152.746 3.75144C151.163 3.75144 149.83 4.25143 148.83 5.33473C147.83 6.33471 147.413 7.58468 147.413 9.08464C147.413 10.5846 147.913 11.8346 148.83 12.8346C149.83 13.9179 151.163 14.4178 152.746 14.4178C154.33 14.4178 155.663 13.9179 156.663 12.8346C157.663 11.8346 158.08 10.5846 158.08 9.08464C158.08 7.58468 157.58 6.33471 156.663 5.33473C155.663 4.33476 154.33 3.75144 152.746 3.75144ZM154.413 10.9179C153.996 11.4179 153.496 11.6679 152.746 11.6679C152.08 11.6679 151.496 11.4179 151.08 10.9179C150.746 10.4179 150.58 9.83462 150.58 9.16797C150.58 8.50132 150.746 7.918 151.08 7.50135C151.496 7.00136 151.996 6.75136 152.746 6.75136C153.413 6.75136 153.996 7.00136 154.413 7.50135C154.746 8.00133 154.913 8.50132 154.913 9.16797C154.913 9.83462 154.746 10.4179 154.413 10.9179ZM125.58 8.41799C125.58 9.75129 125.997 11.0013 126.83 12.2512C125.247 11.0013 124.247 9.41797 124.247 7.66801V7.58468C124.33 3.25145 130.33 -0.0818025 137.663 0.00152877C142.247 0.0848601 146.33 1.50149 148.746 3.58477C146.33 1.91815 142.83 0.834843 138.83 0.751512C131.58 0.66818 125.664 4.08476 125.58 8.41799ZM147.33 11.5846C147.58 11.8346 147.746 12.1679 147.746 12.5012C147.746 13.1679 147.247 13.6679 146.33 14.0845C145.58 14.4178 144.83 14.5845 143.997 14.5845C142.413 14.5845 141.08 14.0845 140.08 13.0012C139.08 12.0012 138.663 10.7513 138.663 9.2513C138.663 7.75134 139.163 6.50137 140.163 5.41806C141.163 4.41809 142.413 3.83477 143.997 3.83477C144.913 3.83477 145.747 3.9181 146.413 4.25142C147.33 4.58475 147.83 5.08474 147.83 5.83472C147.83 6.16805 147.747 6.50137 147.497 6.8347C147.247 7.08469 146.913 7.25135 146.58 7.25135C146.33 7.25135 145.913 7.16802 145.497 7.00136C144.997 6.8347 144.663 6.75136 144.33 6.75136C143.58 6.75136 142.997 7.00136 142.58 7.50135C142.163 7.918 141.997 8.50132 141.997 9.2513C141.997 9.91795 142.163 10.5013 142.497 11.0013C142.913 11.5012 143.413 11.8346 144.163 11.8346C144.497 11.8346 144.913 11.7512 145.413 11.5846C145.913 11.4179 146.33 11.3346 146.58 11.3346C146.747 11.1679 147.08 11.3346 147.33 11.5846ZM137.913 9.83462C138.163 9.66796 138.247 9.33463 138.247 8.83465C138.247 7.50135 137.747 6.25138 136.747 5.2514C135.747 4.25142 134.58 3.75144 133.08 3.75144C131.497 3.75144 130.164 4.25143 129.164 5.33473C128.08 6.41804 127.58 7.66801 127.58 9.08464C127.58 10.6679 128.08 11.9179 129.08 12.9179C130.08 13.9179 131.414 14.4178 133.08 14.4178C134.08 14.4178 135.163 14.2512 136.08 13.9179C137.413 13.5012 137.997 12.8346 137.997 12.0012C137.997 11.6679 137.83 11.3346 137.58 11.0846C137.33 10.8346 136.997 10.6679 136.663 10.6679C136.497 10.6679 135.997 10.8346 135.247 11.1679C134.497 11.5013 133.914 11.6679 133.414 11.6679C132.747 11.6679 132.164 11.5846 131.747 11.3346C131.164 11.0013 130.914 10.5846 130.914 10.0013H136.663C137.247 10.1679 137.663 10.0013 137.913 9.83462ZM130.997 8.08467H135.08C135.08 7.66801 134.83 7.25135 134.413 6.8347C133.997 6.50137 133.497 6.25138 132.997 6.25138C132.497 6.25138 131.997 6.41804 131.58 6.8347C131.247 7.25135 130.997 7.66801 130.997 8.08467Z" fill="#252525"/>
<path d="M113.831 30.584V26.4175H112.081V25.6675H116.247V26.4175H114.497V30.584H113.831Z" fill="#252525"/>
<path d="M120.164 27.8341C120.497 28.0841 120.747 28.5841 120.747 29.0841C120.747 29.9174 120.08 30.584 119.164 30.584H116.831V25.6675H119.164C119.914 25.6675 120.497 26.2508 120.497 27.0008C120.497 27.3341 120.414 27.6674 120.164 27.8341ZM119.331 27.5008C119.58 27.5008 119.83 27.2508 119.83 26.9174C119.83 26.5841 119.58 26.3341 119.247 26.3341H117.664V27.5008H119.331ZM117.664 29.834H119.247C119.664 29.834 120.08 29.5007 120.08 29.0841C120.08 28.6674 119.747 28.3341 119.331 28.2507H117.664V29.834Z" fill="#252525"/>
<path d="M124.414 30.584H121.331V25.6675H124.414V26.4175H122.081V27.5008H124.414V28.2507H122.081V29.834H124.414V30.584Z" fill="#252525"/>
<path d="M125.081 30.584V25.6675H126.997C127.831 25.6675 128.497 26.3341 128.497 27.1674C128.497 28.0008 127.831 28.6674 126.997 28.6674H125.747V30.5007H125.081V30.584ZM126.997 28.0008C127.414 28.0008 127.831 27.6674 127.831 27.1674C127.831 26.7508 127.497 26.3341 126.997 26.3341H125.747V27.9174L126.997 28.0008Z" fill="#252525"/>
<path d="M128.914 31.5007V29.834H129.33C129.997 28.9174 130.247 27.7508 130.247 26.5841V25.6675H133.08V29.834H133.497V31.5007H132.83V30.584H129.58V31.5007H128.914ZM130.247 29.834H132.33C132.33 28.7507 132.33 27.5008 132.33 26.3341H130.997V26.5841C130.997 27.7508 130.747 28.9174 130.247 29.834Z" fill="#252525"/>
<path d="M136.414 25.584C137.83 25.584 138.913 26.6673 138.913 28.0839C138.913 29.5006 137.747 30.5839 136.414 30.5839C134.997 30.5839 133.914 29.5006 133.914 28.0839C133.914 26.7506 135.08 25.584 136.414 25.584ZM136.414 29.9172C137.413 29.9172 138.163 29.1672 138.163 28.1673C138.163 27.1673 137.413 26.4173 136.414 26.4173C135.414 26.4173 134.664 27.1673 134.664 28.1673C134.664 29.0839 135.497 29.9172 136.414 29.9172Z" fill="#252525"/>
<path d="M143.246 26.834C142.496 26.084 141.33 26.084 140.663 26.834C139.913 27.5839 139.913 28.7506 140.663 29.4172C141.413 30.1672 142.496 30.1672 143.246 29.4172L143.746 29.9172C142.746 30.9172 141.163 30.9172 140.163 29.9172C139.163 28.9172 139.163 27.3339 140.163 26.334C141.163 25.334 142.746 25.334 143.746 26.334L143.246 26.834Z" fill="#252525"/>
<path d="M145.997 30.584V26.4175H144.247V25.6675H148.496V26.4175H146.747V30.584H145.997Z" fill="#252525"/>
<path d="M149.08 25.6675H149.83V27.5008H150.83C151.663 27.5008 152.33 28.1674 152.33 29.0007C152.33 29.834 151.663 30.5007 150.83 30.5007H149.08V25.6675ZM149.83 28.2507V29.834H150.83C151.246 29.834 151.663 29.5007 151.663 29.0007C151.663 28.5841 151.33 28.1674 150.83 28.1674H150.58L149.83 28.2507Z" fill="#252525"/>
<path d="M158.08 25.6675V30.584H157.413V27.5008L154.996 30.584H154.163V25.6675H154.913V29.5007L157.663 25.6675H158.08Z" fill="#252525"/>
<path d="M117.331 33.917L114.331 37.0836L117.914 40.6668H116.497L113.164 37.3336V40.6668H112.164V33.917H113.164V36.8336L115.997 33.917H117.331Z" fill="#252525"/>
<path d="M118.664 40.667V34.0005H121.247C122.413 34.0005 123.33 34.9171 123.33 36.0838C123.33 37.2504 122.413 38.1671 121.247 38.1671H119.664V40.667H118.664ZM121.247 37.0837C121.83 37.0837 122.33 36.5838 122.33 36.0004C122.33 35.4171 121.83 34.9171 121.247 34.9171H119.664V37.0837H121.247Z" fill="#252525"/>
<path d="M126.664 33.917H127.747L130.497 40.5835H129.413L128.663 38.6669H125.747L124.997 40.5835H123.914L126.664 33.917ZM126.164 37.8336H128.247L127.163 35.2503L126.164 37.8336Z" fill="#252525"/>
<path d="M136.246 35.5006C135.246 34.5006 133.663 34.5006 132.663 35.5006C131.663 36.5006 131.663 38.0839 132.663 39.0005C133.663 40.0005 135.246 40.0005 136.163 39.0005L136.83 39.6672C135.496 41.0005 133.33 41.0005 131.997 39.6672C130.663 38.3339 130.663 36.1673 131.997 34.834C133.33 33.5007 135.58 33.5007 136.913 34.834L136.246 35.5006Z" fill="#252525"/>
<path d="M140.997 33.834C142.913 33.834 144.413 35.3339 144.413 37.2506C144.413 39.1672 142.913 40.6672 140.997 40.6672C139.08 40.6672 137.58 39.1672 137.58 37.2506C137.58 35.3339 139.08 33.834 140.997 33.834ZM140.997 39.6672C142.33 39.6672 143.413 38.5839 143.413 37.2506C143.413 35.9173 142.33 34.834 140.997 34.834C139.663 34.834 138.58 35.9173 138.58 37.2506C138.58 38.5839 139.663 39.6672 140.997 39.6672Z" fill="#252525"/>
<path d="M147.496 40.6668V34.917H145.163V33.917H150.83V34.917H148.496V40.6668H147.496Z" fill="#252525"/>
<path d="M154.33 33.917H155.413L158.163 40.5835H157.079L156.329 38.6669H153.496L152.746 40.5835H151.58L154.33 33.917ZM153.83 37.8336H155.913L154.83 35.2503L153.83 37.8336Z" fill="#252525"/>
<path d="M115.497 43.917C117.414 43.917 118.914 45.417 118.914 47.3336C118.914 49.2502 117.414 50.7502 115.497 50.7502C113.581 50.7502 112.081 49.2502 112.081 47.3336C112.081 45.417 113.581 43.917 115.497 43.917ZM115.497 49.7502C116.83 49.7502 117.914 48.6669 117.914 47.3336C117.914 46.0003 116.83 44.917 115.497 44.917C114.164 44.917 113.081 46.0003 113.081 47.3336C113.081 48.6669 114.164 49.7502 115.497 49.7502Z" fill="#252525"/>
<path d="M121.997 50.6665V45H119.664V44H125.331V45H122.997V50.6665H121.997Z" fill="#252525"/>
<path d="M112.164 61.1665V54H117.497V61.1665H116.414V55.0833H113.247V61.1665H112.164Z" fill="#252525"/>
<path d="M118.414 61.1665V54H121.164C122.414 54 123.414 55 123.414 56.2499C123.414 57.4999 122.414 58.4999 121.164 58.4999H119.414V61.1665H118.414ZM121.164 57.4166C121.831 57.4166 122.331 56.9166 122.331 56.2499C122.331 55.5833 121.831 55.0833 121.164 55.0833H119.414V57.4166H121.164Z" fill="#252525"/>
<path d="M129.914 54V61.1665H128.914V56.6666L125.414 61.1665H124.247V54H125.247V59.5832L129.33 54H129.914Z" fill="#252525"/>
<path d="M130.914 61.1665V54H133.664C134.913 54 135.913 55 135.913 56.2499C135.913 57.4999 134.913 58.4999 133.664 58.4999H131.914V61.1665H130.914ZM133.664 57.4166C134.33 57.4166 134.83 56.9166 134.83 56.2499C134.83 55.5833 134.33 55.0833 133.664 55.0833H131.914V57.4166H133.664Z" fill="#252525"/>
<path d="M140.247 53.9165C142.247 53.9165 143.913 55.5831 143.913 57.5831C143.913 59.583 142.247 61.2497 140.247 61.2497C138.247 61.2497 136.58 59.583 136.58 57.5831C136.58 55.5831 138.247 53.9165 140.247 53.9165ZM140.247 60.1664C141.663 60.1664 142.83 58.9997 142.83 57.5831C142.83 56.1665 141.663 54.9998 140.247 54.9998C138.83 54.9998 137.663 56.1665 137.663 57.5831C137.663 58.9997 138.83 60.1664 140.247 60.1664Z" fill="#252525"/>
<path d="M144.58 62.4998V60.1665H145.163C146.163 58.8332 146.496 57.0833 146.496 55.4166V54H150.579V60.0832H151.246V62.4165H150.246V61.0832H145.496V62.4165H144.58V62.4998ZM146.413 60.1665H149.496C149.496 58.5832 149.496 56.8333 149.496 55.0833H147.58V55.4166C147.58 56.9999 147.246 58.7499 146.413 60.1665Z" fill="#252525"/>
<path d="M151.913 54H152.996V56.7499H154.413C155.663 56.7499 156.663 57.7499 156.663 58.9999C156.663 60.2498 155.663 61.2498 154.413 61.2498H151.996L151.913 54ZM152.913 57.7499V60.0832H154.33C154.996 60.0832 155.496 59.5832 155.496 58.9165C155.496 58.2499 154.996 57.7499 154.33 57.7499H153.913H152.913ZM158.163 61.1665H157.163V54H158.163V61.1665Z" fill="#252525"/>
<path d="M38.7493 25.6675H47.2491C49.4991 25.6675 51.4157 25.7508 52.999 26.0008C54.5823 26.1675 55.9989 26.6675 57.3322 27.4174C59.0822 28.4174 60.4988 29.834 61.4155 31.5007C62.3321 33.2506 62.8321 35.1672 62.8321 37.2505C62.8321 39.1671 62.3321 40.9171 61.4155 42.5004C60.4988 44.0837 59.2488 45.417 57.5822 46.417C55.9989 47.4169 54.249 47.9169 52.3323 47.9169L62.3321 61.1666H57.9156L45.8325 45.0837H46.9158C48.6658 45.0837 50.0824 45.0003 51.3324 44.917C52.5823 44.8337 53.6656 44.5004 54.6656 44.0837C56.0823 43.417 57.2489 42.4171 58.0822 41.1671C58.9155 39.9171 59.3322 38.5005 59.3322 36.8339C59.3322 35.5839 58.9988 34.4173 58.4155 33.2506C57.8322 32.084 56.9989 31.1673 55.9989 30.5007C54.999 29.7507 53.8323 29.2507 52.5823 29.0841C51.3324 28.9174 49.8324 28.8341 47.9158 28.8341H42.2493V61.1666H38.666V25.6675H38.7493Z" fill="#252525"/>
<path d="M72.7485 28.9174H64.582V25.6675H84.4149V28.9174H76.3317V61.1666H72.7485V28.9174Z" fill="#252525"/>
<path d="M88.3311 25.6675H107.747V28.9174H91.9143V41.6671H107.247V44.917H91.9143V58H107.747V61.1666H88.3311V25.6675Z" fill="#252525"/>
<path d="M19.7495 46.0836H10.4164L17.3329 29.7507L24.1661 46.0836L25.5827 49.2502L30.6659 61.1666H34.4992L19.3329 25.6675H15.333L0 61.1666H3.91658L8.99978 49.2502H21.3328L19.7495 46.0836Z" fill="#252525"/>
<path d="M15.083 0.00146484H17.2496V19.501H26.0827V21.4176H15.083V0.00146484Z" fill="#252525"/>
<path d="M44.2489 21.4179H42.1657V18.418C41.749 19.168 41.249 19.7513 40.5824 20.2513C39.9157 20.7513 39.2491 21.1679 38.4157 21.4179C37.5824 21.6679 36.8325 21.8346 35.9991 21.8346C34.7492 21.8346 33.4992 21.5846 32.3326 21.0012C31.0826 20.4179 29.9993 19.5846 28.9993 18.5013C28.666 18.0847 28.2493 17.418 27.916 16.5014C27.5827 15.5847 27.416 14.5847 27.416 13.5014C27.416 12.5015 27.5827 11.5848 27.9993 10.5848C28.416 9.58486 28.7493 9.00154 29.0826 8.66821C31.1659 6.41827 33.4159 5.33496 35.9158 5.33496C37.2491 5.33496 38.4157 5.58495 39.5824 6.16827C40.749 6.75159 41.5823 7.58491 42.1657 8.66821V5.66828H44.2489V21.4179ZM29.666 13.5848C29.666 14.6681 29.9993 15.7514 30.5826 16.668C31.1659 17.5847 31.9992 18.3346 32.9159 18.918C33.9159 19.5013 34.9158 19.7513 36.0825 19.7513C37.1658 19.7513 38.1658 19.5013 39.0824 18.918C39.999 18.3346 40.749 17.5847 41.3323 16.668C41.9157 15.7514 42.1657 14.7514 42.1657 13.6681C42.1657 12.5015 41.9157 11.5015 41.3323 10.5015C40.749 9.50152 40.0824 8.75154 39.0824 8.16822C38.1658 7.5849 37.0824 7.33491 35.9158 7.33491C34.7492 7.33491 33.7492 7.5849 32.7492 8.16822C31.7492 8.75154 30.9993 9.50152 30.4159 10.4182C29.916 11.3348 29.666 12.4181 29.666 13.5848Z" fill="#252525"/>
<path d="M47.9155 0.00146484H50.0821V8.50126C50.5821 7.41795 51.4154 6.66797 52.4988 6.08465C53.6654 5.50133 54.832 5.25134 56.082 5.25134C57.582 5.25134 58.9986 5.58466 60.3319 6.33464C61.6652 7.08462 62.6652 8.00127 63.4985 9.33457C64.2485 10.5845 64.6651 12.0012 64.6651 13.5011C64.6651 14.5844 64.4985 15.5844 64.0818 16.5011C63.6651 17.501 63.2485 18.251 62.7485 18.751C61.7485 19.9176 60.6652 20.751 59.6652 21.1676C58.6653 21.5843 57.4986 21.8343 56.2487 21.8343C54.9987 21.8343 53.832 21.5843 52.5821 21.001C51.4154 20.4176 50.4988 19.6677 49.9155 18.751V21.5009H47.9155V0.00146484ZM51.5821 9.16791C50.4988 10.2512 49.9155 11.7512 49.9155 13.5845C49.9155 14.7511 50.1655 15.7511 50.7488 16.6677C51.3321 17.5844 52.0821 18.3343 53.0821 18.8343C54.082 19.3343 55.082 19.6676 56.2487 19.6676C57.332 19.6676 58.4153 19.4177 59.3319 18.8343C60.3319 18.251 61.0819 17.501 61.5819 16.5844C62.1652 15.5844 62.4152 14.5844 62.4152 13.4178C62.4152 12.5012 62.2485 11.7512 61.9152 10.9179C61.5819 10.1679 61.1652 9.50123 60.5819 8.91791C59.9986 8.33459 59.3319 7.91794 58.5819 7.66794C57.8319 7.33462 56.9986 7.16795 56.082 7.16795C54.332 7.25129 52.8321 7.91794 51.5821 9.16791Z" fill="#252525"/>
</svg>
