<svg width="148" height="54" viewBox="0 0 148 54" fill="none" xmlns="http://www.w3.org/2000/svg">
<path d="M88.2342 18.2476C88.3112 11.2413 85.8474 9.47043 79.226 9.47043C73.8365 9.47043 71.2188 12.7811 71.2188 12.7811V0.154297H62.0566V35.725H71.2188V20.6344C71.2188 16.7848 73.6826 15.8608 75.5304 15.8608C78.3791 15.8608 78.9181 17.6317 78.9181 20.7114V35.725H88.1572C88.2342 19.4025 88.2342 19.5565 88.2342 18.2476Z" fill="#252525"/>
<path d="M115.104 15.0902C115.104 11.0096 112.871 9.46973 108.56 9.46973C102.323 9.46973 99.6285 12.7804 99.6285 12.7804V9.54672H90.4663V35.7243H99.6285C99.6285 35.7243 99.6285 20.6337 99.6285 20.4797C99.6285 17.554 100.629 15.7831 102.862 15.7831C105.172 15.7831 105.865 16.7071 105.865 19.9408V24.6373H115.104V15.0902Z" fill="#252525"/>
<path d="M142.052 16.5529V19.2477H132.889V18.0928C132.889 14.3201 131.119 14.0892 129.425 14.0892C127.731 14.0892 126.114 14.8591 126.114 17.1689C126.114 18.0928 126.499 19.7096 129.425 20.1716C131.734 20.4796 137.047 20.4026 140.05 22.3274C141.667 23.3283 142.282 24.9452 142.282 27.1779C142.282 27.5629 142.282 27.9479 142.282 28.4868C142.282 34.8002 137.971 36.3401 129.425 36.3401C120.878 36.3401 116.952 35.5702 116.952 28.4868V25.7151H126.114V27.3319C126.114 30.7966 127.269 31.5665 129.425 31.5665C131.58 31.5665 133.12 30.4886 133.12 28.2558C133.12 27.101 132.735 25.7151 129.425 24.8682C127.423 24.3292 123.111 24.7912 120.032 23.0973C118.03 22.0194 116.567 20.0946 116.567 16.5529C116.567 9.54658 122.572 9.16162 129.425 9.16162C136.277 9.16162 142.052 9.54658 142.052 16.5529Z" fill="#252525"/>
<path d="M46.0419 0.154297H36.8027V7.16065H46.0419V0.154297Z" fill="#252525"/>
<path d="M57.6679 0.154297H48.4287V7.16065H57.6679V0.154297Z" fill="#252525"/>
<path d="M59.9007 16.4763C59.9007 23.5596 59.9007 35.7245 59.9007 35.7245H50.7386V34.0306C50.7386 34.0306 47.1199 36.8024 40.7295 36.4174C33.9542 36.0324 33.5692 32.2598 33.4922 29.2571C33.4152 26.1774 33.3382 22.8667 36.7259 21.6348C38.5737 20.9418 43.4243 20.9418 45.965 20.7879C48.5058 20.6339 50.7386 20.1719 50.7386 17.8621C50.7386 15.0904 49.8917 14.0895 46.889 14.0895C43.7322 14.0895 43.0393 15.1674 43.0393 18.2471C43.0393 18.7091 43.0393 19.017 43.0393 19.248H33.8002C33.8002 19.248 33.8002 18.2471 33.8002 16.9382C33.8002 9.93187 40.3446 9.54691 47.3509 9.54691C54.2803 9.54691 59.9007 9.46992 59.9007 16.4763ZM46.273 24.6375C43.9632 24.6375 42.9623 25.4844 42.9623 27.7172C42.9623 29.95 43.8862 31.5669 46.812 31.3359C49.9687 31.0279 50.7386 28.9491 50.7386 25.8694V25.1765C50.7386 24.8685 50.5076 24.6375 50.1996 24.6375H46.273Z" fill="#252525"/>
<path d="M34.2618 35.725H22.1739L9.16215 18.5556V35.725H0V0.154297H9.16215V16.7847L22.1739 0.154297H33.4919L21.019 16.5538C20.8651 16.7847 20.8651 17.1697 21.019 17.4007L34.2618 35.725Z" fill="#252525"/>
<path d="M4.92736 53.1252C4.69638 53.1252 4.61939 53.1252 4.46541 53.1252C3.15653 53.1252 2.54059 52.6632 2.46359 51.5853C1.00073 51.3544 0.153809 49.9685 0.153809 47.8127C0.153809 45.5029 1.15472 44.04 2.84856 44.04C4.46541 44.04 5.54331 45.4259 5.54331 47.7357C5.54331 49.9685 4.69638 51.3544 3.15652 51.5853C3.23352 52.2013 3.54149 52.4323 4.31142 52.4323C4.4654 52.4323 4.69638 52.4323 4.92736 52.4323V53.1252ZM1.38569 45.5799C1.07772 46.1188 0.923737 46.8888 0.923737 47.8897C0.923737 49.8145 1.61667 50.9694 2.84856 50.9694C3.61849 50.9694 4.23443 50.5074 4.46541 49.6605C4.69638 49.1216 4.77338 48.5826 4.77338 47.6587C4.77338 46.7348 4.69639 46.1189 4.38841 45.6569C4.00345 45.041 3.4645 44.656 2.84856 44.656C2.23262 44.733 1.69366 45.1179 1.38569 45.5799Z" fill="#252525"/>
<path d="M8.16153 48.9672C8.16153 49.5062 8.16153 49.8141 8.31552 50.1221C8.4695 50.7381 9.00845 51.046 9.70139 51.046C10.8563 51.046 11.3182 50.4301 11.3182 49.1212V44.3477H12.0882V49.0442C12.0882 50.0451 12.0112 50.4301 11.7032 50.892C11.3182 51.431 10.5483 51.739 9.70139 51.739C8.93146 51.739 8.23853 51.431 7.85356 50.969C7.4686 50.5071 7.3916 50.0451 7.3916 49.0442V44.4246H8.16153V48.9672Z" fill="#252525"/>
<path d="M14.0898 51.5082H13.3198L15.4756 44.1938H16.5535L18.5553 51.5082H17.7854L17.1695 49.1984H14.7827L14.0898 51.5082ZM17.0155 48.5054L16.1686 45.3487C16.0916 44.9638 16.0916 44.9638 16.0146 44.7328C16.0146 44.8868 16.0146 44.8868 15.9376 45.1178L15.8606 45.3487L14.9367 48.5054H17.0155Z" fill="#252525"/>
<path d="M20.8651 50.8149H24.0219V51.5078H20.0952V44.2705H20.8651V50.8149Z" fill="#252525"/>
<path d="M26.2543 44.2705H25.4844V51.5078H26.2543V44.2705Z" fill="#252525"/>
<path d="M32.6446 44.2705V44.8865H30.6428V51.5078H29.7959V44.8865H27.8711V44.2705H32.6446Z" fill="#252525"/>
<path d="M36.5717 48.2745V51.4312H35.8018V48.3515L33.646 44.1938H34.4929L36.0328 47.2736C36.0328 47.3506 36.1098 47.5045 36.1868 47.6585C36.2637 47.4275 36.2638 47.3506 36.3407 47.2736L37.8036 44.1938H38.6505L36.5717 48.2745Z" fill="#252525"/>
<path d="M44.1938 44.2705H43.4238V51.5078H44.1938V44.2705Z" fill="#252525"/>
<path d="M51.2003 51.5082H50.5844L47.6586 45.6567C47.6586 45.5797 47.5816 45.5027 47.5816 45.4257L47.5046 45.1948L47.4276 44.9638C47.4276 44.8868 47.3507 44.8098 47.3507 44.7328C47.4276 45.2717 47.4276 45.6567 47.4276 46.5036V51.4312H46.6577V44.1938H47.7356L50.2764 49.1214C50.4304 49.4294 50.5844 49.7373 50.7383 50.1223C50.6613 49.5833 50.5844 49.0444 50.5844 48.3515V44.1938H51.3543V51.5082H51.2003Z" fill="#252525"/>
<path d="M57.8219 48.8901L57.8989 49.1211C58.0529 49.968 58.0529 49.968 58.0529 50.5069C58.1299 49.968 58.1299 49.814 58.3609 48.9671L59.5158 44.2705H60.2087L61.2096 48.8901C61.3636 49.737 61.4406 49.891 61.4406 50.5069C61.4406 50.045 61.5176 49.814 61.6716 49.1211C61.6716 49.0441 61.6716 48.9671 61.7486 48.8901L62.7495 44.2705H63.4424L61.7486 51.5848H61.1326L60.0547 46.6573C59.9007 45.8874 59.8237 45.5024 59.8237 45.3484C59.8237 45.7334 59.7467 45.9643 59.5928 46.6573L58.3609 51.5848H57.7449L56.2051 44.2705H56.975L57.8219 48.8901Z" fill="#252525"/>
<path d="M69.2939 45.3489C69.6789 45.9649 69.8329 46.8118 69.8329 47.7357C69.8329 50.1225 68.832 51.5853 67.1381 51.5853C65.5213 51.5853 64.4434 50.1225 64.4434 47.8127C64.4434 45.5029 65.4443 44.04 67.1381 44.04C68.062 44.117 68.9089 44.579 69.2939 45.3489ZM65.7522 45.5799C65.4443 46.1188 65.2903 46.8888 65.2903 47.8897C65.2903 49.8145 65.9832 50.9694 67.2151 50.9694C67.985 50.9694 68.601 50.5074 68.8319 49.6605C69.0629 49.1216 69.1399 48.5826 69.1399 47.6587C69.1399 46.7348 69.0629 46.1189 68.755 45.6569C68.37 45.041 67.831 44.656 67.2151 44.656C66.5992 44.733 66.0602 45.1179 65.7522 45.5799Z" fill="#252525"/>
<path d="M76.2226 45.3489C76.6076 45.9649 76.7616 46.8118 76.7616 47.7357C76.7616 50.1225 75.7607 51.5853 74.0668 51.5853C72.45 51.5853 71.3721 50.1225 71.3721 47.8127C71.3721 45.5029 72.373 44.04 74.0668 44.04C74.9907 44.117 75.7607 44.579 76.2226 45.3489ZM72.6039 45.5799C72.296 46.1188 72.142 46.8888 72.142 47.8897C72.142 49.8145 72.8349 50.9694 74.0668 50.9694C74.8367 50.9694 75.4527 50.5074 75.6837 49.6605C75.9146 49.1216 75.9916 48.5826 75.9916 47.6587C75.9916 46.7348 75.9146 46.1189 75.6067 45.6569C75.2217 45.041 74.6828 44.656 74.0668 44.656C73.5279 44.733 72.9119 45.1179 72.6039 45.5799Z" fill="#252525"/>
<path d="M79.9186 44.2705C81.1505 44.2705 81.7665 44.4245 82.3054 44.8095C83.1524 45.4254 83.5373 46.4263 83.5373 47.8892C83.5373 49.429 83.0754 50.5839 82.1514 51.1229C81.6895 51.3539 80.9966 51.5078 80.2266 51.5078H78.6868V44.2705H79.9186ZM79.4567 50.8149H79.9956C80.8426 50.8149 80.9196 50.8149 81.3045 50.6609C82.3054 50.3529 82.7674 49.429 82.7674 47.8122C82.7674 46.5033 82.4594 45.7334 81.9205 45.2714C81.5355 44.9634 80.9196 44.8095 80.1496 44.8095H79.5337V50.8149H79.4567Z" fill="#252525"/>
<path d="M92.0834 46.1185C91.8524 45.1946 91.3134 44.7326 90.5435 44.7326C89.7736 44.7326 89.2346 45.2716 89.2346 45.9645C89.2346 46.4265 89.4656 46.8114 89.9276 47.0424C90.0815 47.1194 90.3125 47.1964 90.6975 47.3504C91.4674 47.6584 91.7754 47.7354 92.0834 47.9663C92.6223 48.2743 92.8533 48.8903 92.8533 49.5062C92.8533 50.7381 92.0064 51.585 90.6975 51.585C89.4656 51.585 88.5417 50.8921 88.1567 49.6602L88.8497 49.4292C89.0037 49.8142 89.0806 49.9682 89.2346 50.1991C89.5426 50.6611 90.0815 50.9691 90.6975 50.9691C91.5444 50.9691 92.0834 50.4301 92.0834 49.6602C92.0834 49.1982 91.9294 48.8903 91.5444 48.5823C91.3904 48.4283 91.0825 48.3513 90.6205 48.1973C90.0816 47.9663 89.7736 47.8893 89.4656 47.7354C88.7727 47.3504 88.3877 46.8114 88.3877 46.0415C88.3877 44.8866 89.3116 44.1167 90.5435 44.1167C91.6214 44.1167 92.3913 44.7326 92.6993 45.9645L92.0834 46.1185Z" fill="#252525"/>
<path d="M95.548 44.2705H94.7781V51.5078H95.548V44.2705Z" fill="#252525"/>
<path d="M102.554 51.5082H101.938L99.0126 45.6567C99.0126 45.5797 98.9356 45.5027 98.9356 45.4257L98.8586 45.1948L98.7816 44.9638C98.7816 44.8868 98.7047 44.8098 98.7047 44.7328C98.7817 45.2717 98.7816 45.6567 98.7816 46.5036V51.4312H98.0117V44.1938H99.0896L101.63 49.1214C101.784 49.4294 101.938 49.7373 102.092 50.1223C102.015 49.5833 101.938 49.0444 101.938 48.3515V44.1938H102.708V51.5082H102.554Z" fill="#252525"/>
<path d="M108.714 46.4265C108.483 45.2716 107.944 44.7326 107.097 44.7326C105.865 44.7326 105.249 45.8875 105.249 47.9663C105.249 48.6593 105.326 49.1212 105.48 49.6602C105.711 50.5071 106.404 51.0461 107.097 51.0461C107.713 51.0461 108.175 50.7381 108.56 50.0451C108.714 49.8142 108.791 49.5832 108.791 49.2752L109.561 49.4292C109.253 50.8151 108.329 51.662 107.097 51.662C105.48 51.662 104.479 50.3531 104.479 48.0433C104.479 45.5796 105.48 44.1167 107.097 44.1167C108.252 44.1167 109.022 44.8096 109.407 46.2725L108.714 46.4265Z" fill="#252525"/>
<path d="M115.489 44.2705V44.8865H112.256V47.3502H114.642V48.0432H112.256V50.8149H115.643V51.5078H111.486V44.2705H115.489Z" fill="#252525"/>
<path d="M123.189 50.8152H124.113V51.5082H121.341V50.8152H122.419V45.0408L121.264 45.1948V44.7328L122.65 44.1938H123.189V50.8152Z" fill="#252525"/>
<path d="M130.426 49.5832C130.426 50.8151 129.502 51.585 128.116 51.585C126.807 51.585 125.884 50.8151 125.884 49.5832C125.884 48.7363 126.422 48.0433 127.423 47.5814C126.499 47.1194 126.115 46.5805 126.115 45.8875C126.115 44.8866 126.961 44.1167 128.193 44.1167C129.348 44.1167 130.195 44.8096 130.195 45.8875C130.195 46.6575 129.81 47.1964 128.886 47.5814C129.964 48.1203 130.426 48.7363 130.426 49.5832ZM127.346 48.2743C126.884 48.5823 126.576 49.0442 126.576 49.5832C126.576 50.3531 127.269 50.9691 128.193 50.9691C129.117 50.9691 129.81 50.4301 129.81 49.5832C129.81 49.1212 129.579 48.6593 129.04 48.3513C128.809 48.1973 128.578 48.1203 128.039 47.8893C127.654 48.1203 127.5 48.1973 127.346 48.2743ZM129.502 45.9645C129.502 45.2716 128.963 44.8096 128.193 44.8096C127.423 44.8096 126.807 45.2716 126.807 45.9645C126.807 46.4265 127.038 46.7345 127.5 47.0424C127.731 47.1194 127.808 47.1964 128.27 47.4274C129.194 46.9654 129.502 46.5805 129.502 45.9645Z" fill="#252525"/>
<path d="M135.893 44.8868H133.198L133.044 47.1966C133.352 46.8116 133.814 46.6576 134.353 46.6576C135.585 46.6576 136.354 47.5815 136.354 49.0444C136.354 50.5842 135.431 51.5852 134.122 51.5852C133.275 51.5852 132.505 51.1232 132.12 50.2763L132.736 49.8913C133.121 50.6612 133.583 50.9692 134.199 50.9692C135.123 50.9692 135.662 50.1993 135.662 48.9674C135.662 47.8895 135.123 47.1966 134.276 47.1966C133.66 47.1966 133.121 47.5815 132.967 48.1975L132.351 48.0435L132.582 44.1938H135.893V44.8868Z" fill="#252525"/>
<path d="M141.821 44.2705V44.6555L139.126 51.5078H138.356L141.051 44.8865H137.74V44.2705H141.821Z" fill="#252525"/>
<path d="M143.514 8.46921C141.205 8.46921 139.28 6.54439 139.28 4.23461C139.28 1.92482 141.205 0 143.514 0C145.824 0 147.749 1.92482 147.749 4.23461C147.749 6.54439 145.824 8.46921 143.514 8.46921ZM143.514 0.692937C141.513 0.692937 139.973 2.30979 139.973 4.23461C139.973 6.15943 141.59 7.77628 143.514 7.77628C145.516 7.77628 147.056 6.15943 147.056 4.23461C147.056 2.30979 145.439 0.692937 143.514 0.692937ZM144.515 6.39041L143.36 4.69656H142.667V6.39041H141.975V2.00181H143.514C144.515 2.00181 145.131 2.38678 145.131 3.31069C145.131 3.84964 144.9 4.3116 144.13 4.61957L145.439 6.4674H144.515V6.39041ZM143.36 2.46377H142.667V4.15761H143.36C143.976 4.15761 144.361 3.92663 144.361 3.31069C144.361 2.69475 143.976 2.46377 143.36 2.46377Z" fill="#252525"/>
</svg>
