<svg width="157" height="50" viewBox="0 0 157 50" fill="none" xmlns="http://www.w3.org/2000/svg">
<path d="M149.02 50H7.7451C3.43137 50 0 46.5686 0 42.2549V7.7451C0 3.43137 3.43137 0 7.7451 0H149.02C153.333 0 156.765 3.43137 156.765 7.7451V42.2549C156.667 46.5686 153.235 50 149.02 50ZM7.7451 1.66667C4.41177 1.66667 1.66667 4.41176 1.66667 7.7451V42.2549C1.66667 45.5882 4.41177 48.3333 7.7451 48.3333H149.02C152.353 48.3333 155.098 45.5882 155.098 42.2549V7.7451C155.098 4.41176 152.353 1.66667 149.02 1.66667H7.7451Z" fill="#F47321"/>
<path d="M60.098 13.9216C58.1372 16.5686 56.0784 19.1177 53.7254 21.6667C51.1764 24.4118 48.4313 27.0588 45.196 29.6079C42.9411 31.4706 40.4901 33.3334 37.745 35.1961C34.8038 37.2549 31.6666 39.1177 28.1372 41.1765C26.3725 41.1765 24.7058 41.1765 22.647 41.1765C27.4509 38.7255 31.3725 36.6667 35.098 34.3137C38.5293 32.1569 41.5685 30 44.3136 27.8432C47.647 25.1961 50.4901 22.549 53.1372 19.902C55.4901 17.353 57.647 14.8039 59.6078 12.0588C59.8038 12.7451 59.9019 13.3333 60.098 13.9216Z" fill="#F47321"/>
<path d="M59.0196 10.1961C56.9608 12.9412 54.7059 15.4902 52.2549 18.0392C49.5098 20.7843 46.4706 23.4314 42.9412 26.0785C39.7059 28.5294 35.9804 30.9804 31.8627 33.4314C27.2549 36.1765 22.7451 38.4314 16.5686 41.2745C13.8235 41.3726 11.6667 41.1765 8.62744 41.2745C17.1569 37.8432 22.549 35.5883 28.4314 32.451C33.6274 29.7059 38.1372 26.9608 41.9608 24.2157C45.5882 21.6667 48.7255 19.0196 51.4706 16.2745C54.0196 13.7255 56.3725 11.0785 58.4314 8.4314C58.6274 9.01963 58.8235 9.60787 59.0196 10.1961Z" fill="#F47321"/>
<path d="M58.2353 22.8434C58.3334 24.5101 58.4314 26.1767 58.4314 27.8434C58.4314 29.5101 58.3334 31.1767 58.1373 32.9414C58.0393 34.2159 57.8432 35.4904 57.6471 36.765C57.451 38.0395 57.1569 39.9022 56.8628 41.2748C56.3726 41.2748 55.9804 41.2748 55.4902 41.2748C55.9804 38.8238 56.3726 35.8826 56.5687 33.5297C56.7647 32.0591 56.7647 30.4904 56.8628 29.0199C56.8628 27.5493 56.8628 26.0787 56.7647 24.6081C57.2549 24.1179 57.7451 23.4316 58.2353 22.8434Z" fill="#F47321"/>
<path d="M55.0982 26.5686C55.1963 29.2157 55.1963 31.8627 54.9022 34.6078C54.7061 36.5686 54.412 39.1176 54.0198 41.1764C53.5296 41.1764 53.0394 41.1764 52.4512 41.1764C52.7453 39.3137 53.0394 37.1568 53.1374 35.3921C53.3335 32.9412 53.4316 30.5882 53.3335 28.1372C53.9218 27.7451 54.51 27.1568 55.0982 26.5686Z" fill="#F47321"/>
<path d="M61.0786 18.8235C61.0786 19.2157 61.1766 19.6079 61.1766 20C61.3727 21.8628 61.4708 23.7255 61.4708 25.5883C61.4708 27.451 61.3727 29.3137 61.1766 31.1765C61.0786 32.6471 60.7845 34.2157 60.5884 35.7843C60.2943 37.353 60.0002 39.6079 59.608 41.1765C59.2158 41.1765 58.8237 41.1765 58.3335 41.1765C58.7257 39.6079 59.0198 37.549 59.2159 36.0784C59.4119 34.6079 59.608 33.1373 59.8041 31.7647C60.0002 29.902 60.0982 28.0392 60.0982 26.1765C60.0982 24.3137 60.0002 22.451 59.8041 20.5883C60.1962 20.0981 60.5884 19.5098 61.0786 18.8235Z" fill="#F47321"/>
<path d="M60.9804 17.6471C59.2157 20.1961 57.2549 22.7451 55.0981 25.1961C52.7451 27.8432 50.1961 30.3922 47.353 33.0392C44.3137 35.7843 40.8824 38.5294 36.8628 41.2745C35.5883 41.2745 34.2157 41.3726 32.7451 41.3726C35.4902 39.6079 38.0392 37.9412 40.3922 36.1765C42.549 34.6079 44.6079 32.9412 46.4706 31.3726C49.5098 28.8236 52.1569 26.1765 54.5098 23.5294C56.7647 21.0785 58.7255 18.5294 60.5883 15.8824C60.6863 16.3726 60.8824 17.0589 60.9804 17.6471Z" fill="#F47321"/>
<path d="M75 23.5294C72.7451 23.5294 70.9804 22.8431 69.7059 21.4706C68.4314 20.098 67.7451 18.2353 67.7451 15.8823C67.7451 13.5294 68.3334 11.6667 69.6079 10.2941C70.8824 8.92157 72.6471 8.23529 74.902 8.23529C77.1569 8.23529 78.9216 8.92157 80.1961 10.2941C81.4706 11.6667 82.1569 13.5294 82.1569 15.8823C82.1569 18.2353 81.5687 20.098 80.2941 21.4706C79.0196 22.8431 77.2549 23.5294 75 23.5294ZM75 10.4902C73.8236 10.4902 72.9412 10.9804 72.2549 11.8627C71.5686 12.7451 71.1765 14.1176 71.1765 15.7843C71.1765 17.451 71.5686 18.8235 72.2549 19.7059C72.9412 20.5882 73.8236 21.0784 75 21.0784C76.1765 21.0784 77.0589 20.5882 77.7451 19.7059C78.4314 18.7255 78.8236 17.451 78.8236 15.7843C78.8236 14.1176 78.5294 12.7451 77.7451 11.8627C77.0589 10.9804 76.1765 10.4902 75 10.4902Z" fill="#252525"/>
<path d="M97.4511 23.1372H94.2158V10.8823H89.4119L89.2158 13.6274C89.1178 14.8039 89.0197 15.8823 88.9217 16.9608C88.8236 18.0392 88.5295 19.0196 88.2354 19.9019C87.9413 20.7843 87.5491 21.5686 87.157 21.9608C86.7648 22.451 86.3727 22.7451 85.8825 22.9412C85.4903 23.1372 85.0001 23.2353 84.4119 23.2353C84.1178 23.2353 83.6276 23.2353 82.8433 23.1372V20.1961H82.9413C83.1374 20.1961 83.3335 20.1961 83.4315 20.1961C83.8237 20.1961 84.1178 20.1961 84.3138 20.098C84.5099 20 84.804 19.8039 85.0001 19.5098C85.1962 19.2157 85.3923 18.8235 85.5884 18.3333C85.6864 17.8431 85.8825 17.2549 85.9805 16.4706C86.0786 15.6863 86.1766 14.8039 86.1766 13.8235C86.2746 12.8431 86.2746 10.9804 86.3727 8.33331H97.3531V23.1372H97.4511Z" fill="#252525"/>
<path d="M113.725 23.1373H110.588V12.8431L103.922 23.1373H100.882V8.52942H104.02V18.1373L110.294 8.52942H113.725V23.1373Z" fill="#252525"/>
<path d="M131.863 23.1373H128.725V12.8431L125.49 19.7059H123.431L120.196 12.8431V23.1373H117.255V8.52942H120.882L124.608 16.2745L128.235 8.52942H131.863V23.1373Z" fill="#252525"/>
<path d="M147.941 23.1373H144.804V10.8824H138.627V23.1373H135.392V8.52942H147.941V23.1373Z" fill="#252525"/>
<path d="M77.2549 41.2745H75.3922V31.3725H69.5098V41.2745H67.7451V29.8039H77.2549V41.2745Z" fill="#252525"/>
<path d="M87.5488 41.2742V39.9997C86.5684 40.686 85.7841 41.0781 85.1959 41.2742C84.6076 41.4703 83.9214 41.5683 83.3331 41.5683C82.3527 41.5683 81.4704 41.2742 80.7841 40.588C80.0978 39.9017 79.8037 39.0193 79.8037 38.0389C79.8037 36.6664 80.2939 35.686 81.2743 34.9997C82.2547 34.3134 84.4116 33.9213 87.5488 33.8232V33.4311C87.5488 32.6468 87.3527 32.0585 86.8625 31.6664C86.3723 31.2742 85.588 31.0781 84.4116 31.0781C83.3331 31.0781 82.1567 31.3723 80.8821 31.8625H80.7841V29.9997C82.0586 29.6076 83.2351 29.5095 84.4116 29.5095C86.0782 29.5095 87.3527 29.8036 88.137 30.4899C88.9214 31.0781 89.3135 32.0585 89.3135 33.4311V41.2742H87.5488ZM87.5488 38.5291V35.1958C84.9998 35.2938 83.4312 35.588 82.6469 36.0781C81.9606 36.5683 81.5684 37.1566 81.5684 37.9409C81.5684 39.3134 82.3527 39.9997 84.0194 39.9997C85.2939 39.9997 86.3723 39.5095 87.5488 38.5291Z" fill="#252525"/>
<path d="M94.5098 40.6863V45.5882H92.7451V29.902H94.5098V31.1765C95.7843 30.098 97.0588 29.6078 98.3334 29.6078C99.7059 29.6078 100.784 30.098 101.569 31.1765C102.353 32.2549 102.745 33.6275 102.745 35.4902C102.745 37.2549 102.255 38.7255 101.275 39.902C100.294 41.0784 99.1177 41.5686 97.6471 41.5686C96.5686 41.5686 95.4902 41.2745 94.5098 40.6863ZM94.5098 32.549V39.2157C95.4902 39.7059 96.4706 39.902 97.353 39.902C98.4314 39.902 99.3137 39.5098 100 38.7255C100.588 37.9412 100.98 36.8628 100.98 35.4902C100.98 32.6471 99.902 31.1765 97.8432 31.1765C96.6667 31.1765 95.5883 31.6667 94.5098 32.549Z" fill="#252525"/>
<path d="M115.49 41.2745H113.137L108.431 35.9804H107.255V41.2745H105.49V29.8039H107.255V34.8039C107.941 34.8039 108.529 34.7059 108.922 34.4117C109.314 34.2157 109.608 33.8235 110 33.2353C110.294 32.647 110.49 32.1568 110.686 31.7647C110.882 31.3725 111.078 30.9804 111.471 30.6862C111.765 30.3921 112.157 30.098 112.549 30C112.941 29.8039 113.529 29.8039 114.118 29.8039H114.902V31.3725H114.02C113.529 31.3725 113.039 31.4706 112.745 31.7647C112.451 31.9608 112.157 32.451 111.961 33.0392C111.471 34.1176 110.882 34.9019 110.196 35.2941L115.49 41.2745Z" fill="#252525"/>
<path d="M122.152 41.5686C120.29 41.5686 118.721 41.0784 117.741 40C116.662 38.9215 116.172 37.549 116.172 35.5882C116.172 33.7255 116.662 32.2549 117.642 31.0784C118.623 30 119.995 29.4117 121.662 29.4117C123.133 29.4117 124.309 29.9019 125.191 30.7843C126.074 31.6666 126.466 32.9412 126.466 34.7059V35.6863H118.035C118.035 37.0588 118.427 38.1372 119.113 38.8235C119.897 39.6078 120.878 39.9019 122.25 39.9019C123.525 39.9019 124.897 39.4117 126.172 38.5294H126.27V40.4902C124.603 41.2745 123.231 41.5686 122.152 41.5686ZM117.937 34.4117H124.701C124.603 32.1568 123.623 30.9804 121.564 30.9804C120.486 30.9804 119.701 31.2745 119.113 31.8627C118.427 32.451 118.035 33.3333 117.937 34.4117Z" fill="#252525"/>
<path d="M137.451 31.3725H133.334V41.2745H131.569V31.3725H127.451V29.8039H137.451V31.3725Z" fill="#252525"/>
<path d="M146.177 41.2742V39.9997C145.196 40.686 144.412 41.0781 143.824 41.2742C143.236 41.4703 142.549 41.5683 141.961 41.5683C140.981 41.5683 140.098 41.2742 139.412 40.588C138.726 39.9017 138.432 39.0193 138.432 38.0389C138.432 36.6664 138.922 35.686 139.902 34.9997C140.883 34.3134 143.039 33.9213 146.177 33.8232V33.4311C146.177 32.6468 145.981 32.0585 145.49 31.6664C145 31.2742 144.216 31.0781 143.039 31.0781C141.961 31.0781 140.785 31.3723 139.51 31.8625H139.412V29.9997C140.687 29.6076 141.863 29.5095 143.039 29.5095C144.706 29.5095 145.981 29.8036 146.765 30.4899C147.549 31.0781 147.941 32.0585 147.941 33.4311V41.2742H146.177ZM146.177 38.5291V35.1958C143.628 35.2938 142.059 35.588 141.275 36.0781C140.589 36.5683 140.196 37.1566 140.196 37.9409C140.196 39.3134 140.981 39.9997 142.647 39.9997C143.824 39.9997 145 39.5095 146.177 38.5291Z" fill="#252525"/>
<path d="M148.137 25.6863H67.7451V26.8627H148.137V25.6863Z" fill="#252525"/>
</svg>
