<svg width="144" height="50" viewBox="0 0 144 50" fill="none" xmlns="http://www.w3.org/2000/svg">
<rect width="144" height="50" rx="9.5" fill="white"/>
<path d="M134.137 47H9.81568C6.01961 47 3 43.9804 3 40.1843V9.81569C3 6.01961 6.01961 3 9.81568 3H134.137C137.933 3 140.953 6.01961 140.953 9.81569V40.1843C140.867 43.9804 137.847 47 134.137 47ZM9.81568 4.46667C6.88235 4.46667 4.46667 6.88235 4.46667 9.81569V40.1843C4.46667 43.1176 6.88235 45.5333 9.81568 45.5333H134.137C137.071 45.5333 139.486 43.1176 139.486 40.1843V9.81569C139.486 6.88235 137.071 4.46667 134.137 4.46667H9.81568Z" fill="#F47321"/>
<path d="M55.8851 15.251C54.1596 17.5804 52.3478 19.8236 50.2772 22.0667C48.0341 24.4824 45.6184 26.8118 42.7714 29.055C40.787 30.6942 38.6302 32.3334 36.2145 33.9726C33.6263 35.7844 30.8655 37.4236 27.7596 39.2353C26.2067 39.2353 24.74 39.2353 22.9282 39.2353C27.1557 37.0785 30.6067 35.2667 33.8851 33.1961C36.9047 31.2981 39.5792 29.4 41.9949 27.502C44.9282 25.1726 47.4302 22.8432 49.7596 20.5138C51.8302 18.2706 53.7282 16.0275 55.4537 13.6118C55.6263 14.2157 55.7125 14.7334 55.8851 15.251Z" fill="#F47321"/>
<path d="M54.9384 11.9724C53.1266 14.3881 51.1423 16.6312 48.9854 18.8743C46.5697 21.29 43.8952 23.6194 40.7893 25.9488C37.9423 28.1057 34.6639 30.2626 31.0403 32.4194C26.9854 34.8351 23.0168 36.8194 17.5815 39.3214C15.1658 39.4077 13.2678 39.2351 10.5933 39.3214C18.0991 36.3018 22.8442 34.3175 28.0207 31.5567C32.5933 29.141 36.5619 26.7253 39.9266 24.3096C43.1188 22.0665 45.8795 19.7371 48.2952 17.3214C50.5384 15.0783 52.6089 12.7488 54.4207 10.4194C54.5933 10.9371 54.7658 11.4547 54.9384 11.9724Z" fill="#F47321"/>
<path d="M54.2467 23.1021C54.333 24.5687 54.4193 26.0354 54.4193 27.5021C54.4193 28.9687 54.333 30.4354 54.1605 31.9883C54.0742 33.1099 53.9016 34.2315 53.7291 35.353C53.5565 36.4746 53.2977 38.1138 53.0389 39.3217C52.6075 39.3217 52.2624 39.3217 51.8311 39.3217C52.2624 37.1648 52.6075 34.5766 52.7801 32.506C52.9526 31.2119 52.9526 29.8315 53.0389 28.5373C53.0389 27.2432 53.0389 25.9491 52.9526 24.655C53.384 24.2236 53.8154 23.6197 54.2467 23.1021Z" fill="#F47321"/>
<path d="M51.4876 26.3804C51.5739 28.7098 51.5739 31.0392 51.3151 33.4549C51.1425 35.1804 50.8837 37.4235 50.5386 39.2353C50.1072 39.2353 49.6758 39.2353 49.1582 39.2353C49.417 37.5961 49.6759 35.698 49.7621 34.1451C49.9347 31.9882 50.0209 29.9176 49.9347 27.7608C50.4523 27.4157 50.97 26.898 51.4876 26.3804Z" fill="#F47321"/>
<path d="M56.7502 19.5649C56.7502 19.91 56.8364 20.2551 56.8364 20.6002C57.009 22.2394 57.0953 23.8787 57.0953 25.5179C57.0953 27.1571 57.009 28.7963 56.8364 30.4355C56.7502 31.7296 56.4913 33.11 56.3188 34.4904C56.06 35.8708 55.8011 37.8551 55.456 39.2355C55.1109 39.2355 54.7658 39.2355 54.3345 39.2355C54.6796 37.8551 54.9384 36.0434 55.1109 34.7493C55.2835 33.4551 55.456 32.161 55.6286 30.9532C55.8011 29.314 55.8874 27.6747 55.8874 26.0355C55.8874 24.3963 55.8011 22.7571 55.6286 21.1179C55.9737 20.6865 56.3188 20.1689 56.7502 19.5649Z" fill="#F47321"/>
<path d="M56.6635 18.5295C55.1105 20.7726 53.385 23.0158 51.487 25.1726C49.4164 27.5021 47.1733 29.7452 44.6713 32.0746C41.9968 34.4903 38.9772 36.906 35.4399 39.3217C34.3184 39.3217 33.1105 39.4079 31.8164 39.4079C34.2321 37.855 36.4752 36.3883 38.5458 34.8354C40.4439 33.455 42.2556 31.9883 43.8948 30.6079C46.5693 28.3648 48.8988 26.0354 50.9693 23.706C52.9537 21.5491 54.6792 19.306 56.3184 16.9766C56.4046 17.4079 56.5772 18.0119 56.6635 18.5295Z" fill="#F47321"/>
<path d="M68.9996 23.7059C67.0152 23.7059 65.4623 23.102 64.3407 21.8941C63.2192 20.6863 62.6152 19.0471 62.6152 16.9765C62.6152 14.9059 63.1329 13.2667 64.2545 12.0588C65.376 10.851 66.929 10.2471 68.9133 10.2471C70.8976 10.2471 72.4505 10.851 73.5721 12.0588C74.6937 13.2667 75.2976 14.9059 75.2976 16.9765C75.2976 19.0471 74.7799 20.6863 73.6584 21.8941C72.5368 23.102 70.9839 23.7059 68.9996 23.7059ZM68.9996 12.2314C67.9643 12.2314 67.1878 12.6628 66.5839 13.4392C65.9799 14.2157 65.6348 15.4235 65.6348 16.8902C65.6348 18.3569 65.9799 19.5647 66.5839 20.3412C67.1878 21.1177 67.9643 21.549 68.9996 21.549C70.0348 21.549 70.8113 21.1177 71.4152 20.3412C72.0192 19.4784 72.3643 18.3569 72.3643 16.8902C72.3643 15.4235 72.1054 14.2157 71.4152 13.4392C70.8113 12.6628 70.0348 12.2314 68.9996 12.2314Z" fill="#252525"/>
<path d="M88.7577 23.3609H85.9107V12.5766H81.6832L81.5107 14.9923C81.4244 16.0276 81.3381 16.9766 81.2518 17.9257C81.1656 18.8747 80.9068 19.7374 80.6479 20.5139C80.3891 21.2904 80.044 21.9806 79.6989 22.3257C79.3538 22.757 79.0087 23.0158 78.5773 23.1884C78.2322 23.3609 77.8009 23.4472 77.2832 23.4472C77.0244 23.4472 76.593 23.4472 75.9028 23.3609V20.7727H75.9891C76.1617 20.7727 76.3342 20.7727 76.4205 20.7727C76.7656 20.7727 77.0244 20.7727 77.1969 20.6864C77.3695 20.6002 77.6283 20.4276 77.8009 20.1688C77.9734 19.91 78.146 19.5649 78.3185 19.1335C78.4048 18.7021 78.5773 18.1845 78.6636 17.4943C78.7499 16.8041 78.8362 16.0276 78.8362 15.1649C78.9224 14.3021 78.9224 12.6629 79.0087 10.3335H88.6715V23.3609H88.7577Z" fill="#252525"/>
<path d="M103.079 23.3608H100.318V14.3019L94.4514 23.3608H91.7769V10.5059H94.5376V18.9608L100.059 10.5059H103.079V23.3608Z" fill="#252525"/>
<path d="M119.038 23.3608H116.278V14.3019L113.431 20.3412H111.619L108.772 14.3019V23.3608H106.184V10.5059H109.376L112.654 17.3215L115.846 10.5059H119.038V23.3608Z" fill="#252525"/>
<path d="M133.187 23.3608H130.426V12.5764H124.991V23.3608H122.144V10.5059H133.187V23.3608Z" fill="#252525"/>
<path d="M70.9839 39.3217H69.3447V30.6079H64.1682V39.3217H62.6152V29.2275H70.9839V39.3217Z" fill="#252525"/>
<path d="M80.0423 39.3212V38.1996C79.1795 38.8036 78.4893 39.1486 77.9717 39.3212C77.454 39.4937 76.8501 39.58 76.3324 39.58C75.4697 39.58 74.6932 39.3212 74.0893 38.7173C73.4854 38.1134 73.2266 37.3369 73.2266 36.4741C73.2266 35.2663 73.6579 34.4036 74.5207 33.7996C75.3834 33.1957 77.2815 32.8506 80.0423 32.7643V32.4192C80.0423 31.729 79.8697 31.2114 79.4383 30.8663C79.007 30.5212 78.3168 30.3487 77.2815 30.3487C76.3324 30.3487 75.2972 30.6075 74.1756 31.0388H74.0893V29.3996C75.2109 29.0545 76.2462 28.9683 77.2815 28.9683C78.7481 28.9683 79.8697 29.2271 80.5599 29.831C81.2501 30.3487 81.5952 31.2114 81.5952 32.4192V39.3212H80.0423ZM80.0423 36.9055V33.9722C77.7991 34.0585 76.4187 34.3173 75.7285 34.7487C75.1246 35.18 74.7795 35.6977 74.7795 36.3879C74.7795 37.5957 75.4697 38.1996 76.9364 38.1996C78.0579 38.1996 79.007 37.7683 80.0423 36.9055Z" fill="#252525"/>
<path d="M86.1682 38.8037V43.1174H84.6152V29.3135H86.1682V30.4351C87.2897 29.4861 88.4113 29.0547 89.5329 29.0547C90.7407 29.0547 91.6897 29.4861 92.3799 30.4351C93.0701 31.3841 93.4152 32.5919 93.4152 34.2312C93.4152 35.7841 92.9839 37.0782 92.1211 38.1135C91.2584 39.1488 90.2231 39.5802 88.929 39.5802C87.9799 39.5802 87.0309 39.3214 86.1682 38.8037ZM86.1682 31.6429V37.5096C87.0309 37.941 87.8937 38.1135 88.6701 38.1135C89.6192 38.1135 90.3956 37.7684 90.9995 37.0782C91.5172 36.388 91.8623 35.439 91.8623 34.2312C91.8623 31.7292 90.9133 30.4351 89.1015 30.4351C88.0662 30.4351 87.1172 30.8665 86.1682 31.6429Z" fill="#252525"/>
<path d="M104.631 39.3217H102.56L98.4193 34.6628H97.384V39.3217H95.8311V29.2275H97.384V33.6275C97.9879 33.6275 98.5056 33.5413 98.8507 33.2824C99.1958 33.1099 99.4546 32.7648 99.7997 32.2471C100.059 31.7295 100.231 31.2981 100.404 30.953C100.576 30.6079 100.749 30.2628 101.094 30.004C101.353 29.7452 101.698 29.4864 102.043 29.4001C102.388 29.2275 102.906 29.2275 103.423 29.2275H104.113V30.6079H103.337C102.906 30.6079 102.474 30.6942 102.215 30.953C101.957 31.1256 101.698 31.557 101.525 32.0746C101.094 33.0236 100.576 33.7138 99.9722 34.0589L104.631 39.3217Z" fill="#252525"/>
<path d="M110.495 39.5804C108.856 39.5804 107.476 39.149 106.613 38.2C105.664 37.2509 105.232 36.0431 105.232 34.3176C105.232 32.6784 105.664 31.3843 106.527 30.349C107.389 29.4 108.597 28.8823 110.064 28.8823C111.358 28.8823 112.393 29.3137 113.17 30.0902C113.946 30.8666 114.291 31.9882 114.291 33.5411V34.4039H106.872C106.872 35.6117 107.217 36.5608 107.821 37.1647C108.511 37.8549 109.374 38.1137 110.581 38.1137C111.703 38.1137 112.911 37.6823 114.032 36.9059H114.119V38.6313C112.652 39.3215 111.444 39.5804 110.495 39.5804ZM106.785 33.2823H112.738C112.652 31.298 111.789 30.2627 109.978 30.2627C109.029 30.2627 108.338 30.5215 107.821 31.0392C107.217 31.5568 106.872 32.3333 106.785 33.2823Z" fill="#252525"/>
<path d="M123.958 30.6079H120.335V39.3217H118.782V30.6079H115.158V29.2275H123.958V30.6079Z" fill="#252525"/>
<path d="M131.636 39.3212V38.1996C130.773 38.8036 130.083 39.1486 129.565 39.3212C129.048 39.4937 128.444 39.58 127.926 39.58C127.063 39.58 126.287 39.3212 125.683 38.7173C125.079 38.1134 124.82 37.3369 124.82 36.4741C124.82 35.2663 125.252 34.4036 126.114 33.7996C126.977 33.1957 128.875 32.8506 131.636 32.7643V32.4192C131.636 31.729 131.463 31.2114 131.032 30.8663C130.601 30.5212 129.911 30.3487 128.875 30.3487C127.926 30.3487 126.891 30.6075 125.769 31.0388H125.683V29.3996C126.805 29.0545 127.84 28.9683 128.875 28.9683C130.342 28.9683 131.463 29.2271 132.154 29.831C132.844 30.3487 133.189 31.2114 133.189 32.4192V39.3212H131.636ZM131.636 36.9055V33.9722C129.393 34.0585 128.012 34.3173 127.322 34.7487C126.718 35.18 126.373 35.6977 126.373 36.3879C126.373 37.5957 127.063 38.1996 128.53 38.1996C129.565 38.1996 130.601 37.7683 131.636 36.9055Z" fill="#252525"/>
<path d="M133.36 25.604H62.6152V26.6393H133.36V25.604Z" fill="#252525"/>
</svg>
