<svg width="35" height="35" viewBox="0 0 35 35" fill="none" xmlns="http://www.w3.org/2000/svg">
<path d="M35 32.7187C35 33.9742 33.9742 35 32.7187 35H2.28128C1.02581 35 0 33.9742 0 32.7187V2.28128C0 1.02581 1.02581 0 2.28128 0H32.7187C33.9742 0 35 1.02581 35 2.28128V32.7187Z" fill="white"/>
<path d="M32.7187 0.765529C33.5531 0.765529 34.2345 1.44685 34.2345 2.28128V32.7187C34.2345 33.5531 33.5531 34.2345 32.7187 34.2345H2.28128C1.44685 34.2345 0.765529 33.5531 0.765529 32.7187V2.28128C0.765529 1.44685 1.44685 0.765529 2.28128 0.765529H32.7187ZM32.7187 0H2.28128C1.02581 0 0 1.02581 0 2.28128V32.7187C0 33.9742 1.02581 35 2.28128 35H32.7187C33.9742 35 35 33.9742 35 32.7187V2.28128C35 1.02581 33.9742 0 32.7187 0Z" fill="#F6743F"/>
<path d="M29.9553 5.98641C29.0443 7.24188 28.0491 8.46673 26.9391 9.6533C25.7525 10.9317 24.4128 12.1949 22.8971 13.4427C21.8177 14.3307 20.6464 15.2187 19.3527 16.1144C17.9671 17.0636 16.4973 17.9746 14.7978 18.9545C13.9404 18.9545 13.1595 18.9545 12.2026 18.9545C14.4916 17.8062 16.3212 16.811 18.0972 15.6933C19.7278 14.6675 21.1823 13.6417 22.4837 12.6082C24.0377 11.3681 25.4157 10.105 26.6405 8.81887C27.7735 7.62465 28.7993 6.39214 29.718 5.11371C29.7945 5.41227 29.8787 5.70317 29.9553 5.98641Z" fill="#F6743F"/>
<path d="M29.45 4.2257C28.4855 5.50413 27.4214 6.74429 26.2272 7.94617C24.9411 9.23991 23.4866 10.5183 21.833 11.7585C20.2866 12.9145 18.5489 14.0781 16.5738 15.234C14.3844 16.5124 12.2716 17.6071 9.33192 18.9392C8.03052 18.9698 7.02768 18.9085 5.55786 18.9392C9.60751 17.3162 12.1491 16.2292 14.9509 14.767C17.4159 13.4733 19.5364 12.1642 21.3737 10.8475C23.0732 9.62268 24.566 8.36721 25.8827 7.07346C27.0999 5.87924 28.1869 4.63143 29.1744 3.34534C29.2586 3.64389 29.3505 3.93479 29.45 4.2257Z" fill="#F6743F"/>
<path d="M29.0903 10.1891C29.1515 10.9776 29.1821 11.7738 29.1745 12.5699C29.1668 13.3584 29.1209 14.1622 29.0444 14.966C28.9831 15.5708 28.9142 16.1756 28.8147 16.7957C28.7152 17.4157 28.6003 18.3038 28.4626 18.9468C28.2405 18.9468 28.0262 18.9468 27.8042 18.9468C28.0492 17.7755 28.2252 16.3899 28.3248 15.2952C28.3937 14.5756 28.4396 13.8713 28.4472 13.1747C28.4626 12.4704 28.4396 11.7738 28.3937 11.0772C28.6233 10.7863 28.8606 10.4877 29.0903 10.1891Z" fill="#F6743F"/>
<path d="M27.5669 11.9882C27.6281 13.2436 27.5899 14.5221 27.475 15.8235C27.3832 16.7651 27.2454 17.9593 27.0617 18.9545C26.8167 18.9621 26.5794 18.9468 26.3191 18.9545C26.4799 18.0894 26.587 17.0254 26.6636 16.1986C26.7708 15.035 26.8014 13.902 26.7631 12.7767C27.0387 12.5164 27.3066 12.2561 27.5669 11.9882Z" fill="#F6743F"/>
<path d="M30.3993 8.29828C30.4223 8.48201 30.4376 8.67339 30.4606 8.85711C30.5448 9.74513 30.5907 10.6331 30.583 11.5212C30.583 12.4015 30.5371 13.2895 30.4452 14.1852C30.3763 14.9048 30.2845 15.632 30.1543 16.367C30.0319 17.1095 29.8711 18.166 29.6874 18.9468C29.4883 18.9468 29.2969 18.9391 29.0979 18.9468C29.274 18.2195 29.4118 17.2167 29.5266 16.5201C29.6414 15.8234 29.7333 15.1421 29.8022 14.4761C29.8941 13.5804 29.9323 12.7001 29.9323 11.835C29.9323 10.9547 29.8787 10.0743 29.7945 9.2016C29.9936 8.90305 30.2003 8.60449 30.3993 8.29828Z" fill="#F6743F"/>
<path d="M30.3765 7.72415C29.5344 8.94135 28.6005 10.1279 27.5746 11.2992C26.4799 12.5393 25.2627 13.7795 23.8848 15.0043C22.4379 16.2904 20.7997 17.5918 18.9318 18.9085C18.3194 18.9239 17.6764 18.9392 17.0027 18.9545C18.3117 18.1277 19.506 17.3086 20.6083 16.5048C21.6494 15.7393 22.6064 14.9814 23.502 14.2158C24.9259 12.9987 26.1814 11.7585 27.3144 10.4954C28.3708 9.31646 29.32 8.11457 30.1851 6.86676C30.2463 7.15766 30.3152 7.44091 30.3765 7.72415Z" fill="#F6743F"/>
<path d="M6.60661 24.8567C5.8717 24.8567 5.29755 24.6347 4.87651 24.1831C4.45547 23.7391 4.24878 23.1266 4.24878 22.3458C4.24878 21.565 4.45547 20.9449 4.87651 20.5009C5.2899 20.0569 5.8717 19.8272 6.60661 19.8272C7.34152 19.8272 7.92332 20.0492 8.33671 20.5009C8.75775 20.9525 8.96444 21.565 8.96444 22.3458C8.96444 23.119 8.75775 23.7314 8.33671 24.1831C7.93098 24.6347 7.34917 24.8567 6.60661 24.8567ZM6.61427 20.5927C6.2315 20.5927 5.92529 20.7458 5.70329 21.0521C5.47363 21.3583 5.36645 21.787 5.36645 22.3458C5.36645 22.9046 5.48128 23.3333 5.70329 23.6395C5.92529 23.9458 6.2315 24.0989 6.61427 24.0989C6.99703 24.0989 7.29559 23.9458 7.52525 23.6395C7.7549 23.3333 7.86208 22.9046 7.86208 22.3458C7.86208 21.787 7.74725 21.3583 7.52525 21.0521C7.29559 20.7458 6.99703 20.5927 6.61427 20.5927Z" fill="black"/>
<path d="M13.9711 24.7572H12.9146V20.7305H11.3376L11.2917 21.6338C11.2687 22.0166 11.2381 22.3764 11.1922 22.7209C11.1462 23.0654 11.0697 23.3869 10.9625 23.6931C10.8553 23.9993 10.7405 24.2213 10.6104 24.3744C10.4802 24.5275 10.3424 24.6347 10.2046 24.696C10.0669 24.7572 9.90609 24.7878 9.73767 24.7878C9.63815 24.7878 9.46974 24.7802 9.23242 24.7572V23.8003H9.27835C9.34725 23.8079 9.39318 23.8156 9.43146 23.8156C9.55394 23.8156 9.65346 23.8003 9.73002 23.7773C9.80657 23.7544 9.88312 23.6931 9.95202 23.6012C10.0209 23.5094 10.0822 23.3869 10.1281 23.2261C10.174 23.0654 10.2123 22.8663 10.2429 22.6137C10.2735 22.3611 10.2965 22.0625 10.3118 21.7334C10.3271 21.3965 10.3501 20.7994 10.3654 19.942H13.9711V24.7572Z" fill="black"/>
<path d="M19.3374 24.7572H18.3116V21.3735L16.1068 24.7572H15.127V19.9343H16.1528V23.1113L18.2197 19.9343H19.3374V24.7572Z" fill="black"/>
<path d="M25.278 24.7572H24.2369V21.3659L23.1957 23.6165H22.4915L21.4503 21.3735V24.7495H20.4705V19.9267H21.6647L22.8819 22.4912L24.0991 19.9267H25.2856V24.7572H25.278Z" fill="black"/>
<path d="M30.5601 24.7572H29.5037V20.7305H27.4827V24.7572H26.4263V19.9343H30.5601V24.7572Z" fill="black"/>
<path d="M7.34154 30.7054H6.75974V27.4366H4.81529V30.7054H4.22583V26.939H7.34154V30.7054Z" fill="black"/>
<path d="M10.7482 30.7054V30.2843C10.4343 30.514 10.1817 30.6518 9.97501 30.713C9.77597 30.7743 9.56927 30.8049 9.36258 30.8049C9.02575 30.8049 8.75016 30.6977 8.52815 30.4681C8.30615 30.2461 8.19897 29.9628 8.19897 29.626C8.19897 29.1896 8.36739 28.8604 8.69657 28.6384C9.02575 28.4164 9.71472 28.2863 10.7558 28.2404V28.1255C10.7558 27.8653 10.6793 27.6662 10.5262 27.5437C10.3731 27.4213 10.0975 27.36 9.70707 27.36C9.36258 27.36 8.97982 27.4519 8.55877 27.6279H8.53581V27.0155C8.94919 26.9007 9.34727 26.8471 9.73769 26.8471C10.2965 26.8471 10.7023 26.9543 10.9625 27.161C11.2228 27.3677 11.353 27.6892 11.353 28.1255V30.6977H10.7482V30.7054ZM10.7482 29.8097V28.715C9.92142 28.7533 9.38555 28.8451 9.14823 28.9906C8.91092 29.136 8.79609 29.3351 8.79609 29.5877C8.79609 30.0394 9.07168 30.2614 9.61521 30.2614C9.98266 30.269 10.3654 30.1159 10.7482 29.8097Z" fill="black"/>
<path d="M13.014 30.4834V32.091H12.4246V26.939H13.014V27.3523C13.4427 27.0079 13.8561 26.8318 14.2618 26.8318C14.7058 26.8318 15.058 27.0079 15.3183 27.3523C15.5785 27.6968 15.7087 28.1715 15.7087 28.7762C15.7087 29.3657 15.5479 29.848 15.2341 30.2231C14.9202 30.5982 14.5221 30.7819 14.0551 30.7819C13.703 30.7743 13.3585 30.6824 13.014 30.4834ZM13.014 27.8346V30.0317C13.3509 30.1771 13.6571 30.2537 13.9403 30.2537C14.3078 30.2537 14.591 30.1236 14.7977 29.8709C15.0044 29.6183 15.1116 29.2585 15.1116 28.7915C15.1116 27.8499 14.7747 27.383 14.0934 27.383C13.7413 27.383 13.3815 27.5361 13.014 27.8346Z" fill="black"/>
<path d="M19.8886 30.7054H19.1154L17.5614 28.9676H17.171V30.7054H16.5815V26.939H17.171V28.5925C17.4083 28.5925 17.5844 28.5542 17.7145 28.4777C17.8447 28.4011 17.9518 28.271 18.0514 28.0949C18.1432 27.8959 18.2121 27.7351 18.281 27.6126C18.3423 27.4901 18.4265 27.3677 18.526 27.2605C18.6255 27.1533 18.7556 27.0691 18.8934 27.0232C19.0389 26.9772 19.2073 26.9466 19.414 26.9466H19.659V27.4442H19.3834C19.2073 27.4442 19.0695 27.4825 18.97 27.559C18.8705 27.6356 18.7786 27.7734 18.7021 27.9724C18.5566 28.3399 18.3576 28.5849 18.1126 28.715L19.8886 30.7054Z" fill="black"/>
<path d="M22.0932 30.7896C21.4655 30.7896 20.9832 30.6212 20.6387 30.2843C20.2942 29.9475 20.1182 29.4652 20.1182 28.8451C20.1182 28.2327 20.2866 27.7428 20.6158 27.3753C20.9449 27.0155 21.3813 26.8318 21.9325 26.8318C22.4301 26.8318 22.8128 26.9772 23.0884 27.2758C23.364 27.5743 23.5018 27.9954 23.5018 28.5466V28.8681H20.7229C20.7229 29.3198 20.8454 29.6719 21.0904 29.9092C21.3354 30.1542 21.6722 30.2767 22.1085 30.2767C22.5372 30.2767 22.9659 30.1236 23.4023 29.825H23.4329V30.4604C22.8894 30.6824 22.4454 30.7896 22.0932 30.7896ZM20.7229 28.4317H22.9277C22.9123 27.6815 22.5679 27.3064 21.9018 27.3064C21.565 27.3064 21.2894 27.4059 21.0827 27.605C20.8684 27.8117 20.7536 28.0873 20.7229 28.4317Z" fill="black"/>
<path d="M27.1 27.4442H25.7527V30.6977H25.1632V27.4442H23.8159V26.939H27.1V27.4442Z" fill="black"/>
<path d="M29.9629 30.7054V30.2843C29.649 30.514 29.3887 30.6518 29.1897 30.713C28.9906 30.7743 28.784 30.8049 28.5696 30.8049C28.2328 30.8049 27.9572 30.6977 27.7352 30.4681C27.5132 30.2461 27.406 29.9628 27.406 29.626C27.406 29.1896 27.5744 28.8604 27.9036 28.6384C28.2328 28.4164 28.9218 28.2863 29.9705 28.2404V28.1255C29.9705 27.8653 29.894 27.6662 29.7332 27.5437C29.5801 27.4213 29.3045 27.36 28.9141 27.36C28.5696 27.36 28.1868 27.4519 27.7658 27.6279H27.7352V27.0155C28.1486 26.9007 28.5543 26.8471 28.9371 26.8471C29.4959 26.8471 29.9016 26.9543 30.1619 27.161C30.4222 27.3677 30.5523 27.6892 30.5523 28.1255V30.6977H29.9629V30.7054ZM29.9629 29.8097V28.715C29.1361 28.7533 28.6002 28.8451 28.3629 28.9906C28.1256 29.136 28.0108 29.3351 28.0108 29.5877C28.0108 30.0394 28.2864 30.2614 28.8299 30.2614C29.1973 30.269 29.5801 30.1159 29.9629 29.8097Z" fill="black"/>
<path d="M30.606 25.5916H4.22583V25.9973H30.606V25.5916Z" fill="black"/>
</svg>
