<svg width="162" height="40" viewBox="0 0 162 40" fill="none" xmlns="http://www.w3.org/2000/svg">
<path d="M152.533 19.7333C152.533 25.9048 147.886 32.4571 139.581 32.4571C131.276 32.4571 126.629 25.6762 126.629 19.9619C126.629 13.7905 131.657 7.1619 139.581 7.1619C147.276 7.2381 152.533 13.5619 152.533 19.7333ZM139.581 0C128.686 0 119.162 8.60952 119.162 20.1143C119.162 31.619 128.457 39.8476 139.81 39.8476C151.238 39.8476 160 31.0857 160 19.8095C160.076 8.38095 150.476 0 139.581 0ZM7.54286 39.4667H0V0.990475H14.6286C14.6286 0.990475 19.2 0.609524 22.3238 4.72381C25.4476 8.83809 24.9905 12.419 24.9905 12.419C24.9905 12.419 25.4476 18.4381 20.4952 22.3238C18.4381 23.9238 15.7714 24.6857 12.4952 24.6857C10.8952 24.6857 9.29524 24.6857 7.61905 24.6857L7.54286 39.4667ZM12.2667 18.5905C12.9524 18.5905 17.0667 17.6762 17.0667 12.8C17.0667 7.92381 12.9524 7.54286 12.9524 7.54286H7.54286V18.5905C7.54286 18.5905 11.1238 18.5905 12.2667 18.5905ZM27.2762 39.4667V0.914286H47.7714V8H34.819V16.4571H47.6952V23.4667H34.8952V32.3048H47.7714V39.4667H27.2762ZM62.4 0.914286C69.8667 0.914286 76.9524 3.04762 76.8762 12.4952C76.8 21.9429 68.1143 23.4667 68.1143 23.4667L80 39.4667H70.7048L59.8857 23.6952V39.4667H52.2667V0.914286H62.4ZM59.7333 18.5143H63.1619C63.1619 18.5143 68.7238 18.2857 68.8762 12.9524C69.0286 7.54286 64.3048 7.54286 64.3048 7.54286H59.7333V18.5143Z" fill="#252525"/>
<path d="M115.505 8.99047C115.505 8.99047 111.543 0.228571 98.6669 0.228571C85.7907 0.228571 78.1716 10.0571 78.1716 20.3429C78.1716 30.6286 86.0954 40 97.9812 40C109.867 40 117.867 31.619 117.41 18.2095C117.41 18.1333 98.2097 18.2095 98.2097 18.2095V25.1429H108.724C108.724 25.1429 108.343 32.9143 98.5145 32.9143C88.6859 32.9143 86.1716 23.6952 86.1716 20.1905C86.1716 15.7714 89.6764 7.54286 98.6669 7.54286C106.514 7.54286 109.486 14.1714 109.562 14.1714C109.714 14.1714 115.505 8.99047 115.505 8.99047ZM155.048 3.35238C155.048 1.44762 156.572 0 158.476 0C160.305 0 161.829 1.44762 161.829 3.35238C161.829 5.25714 160.305 6.70476 158.476 6.70476C156.648 6.70476 155.048 5.25714 155.048 3.35238ZM158.476 6.17143C160 6.17143 161.143 5.02857 161.143 3.35238C161.143 1.75238 159.924 0.609523 158.476 0.609523C156.953 0.609523 155.734 1.82857 155.734 3.35238C155.734 4.95238 156.953 6.17143 158.476 6.17143ZM157.714 5.25714H157.105V1.44762H158.553C159.467 1.44762 159.924 1.75238 159.924 2.51429C159.924 3.2 159.467 3.50476 158.934 3.58095L160 5.25714H159.314L158.324 3.58095H157.638L157.714 5.25714ZM158.476 3.12381C158.934 3.12381 159.391 3.12381 159.391 2.51429C159.391 2.05714 158.934 1.98095 158.553 1.98095H157.791V3.2H158.476V3.12381Z" fill="#252525"/>
</svg>
