<svg width="158" height="69" viewBox="0 0 158 69" fill="none" xmlns="http://www.w3.org/2000/svg">
<path fill-rule="evenodd" clip-rule="evenodd" d="M69.8945 1.98389C71.1917 1.98389 72.3362 3.12845 72.3362 4.50193C72.3362 5.7991 71.1917 6.94367 69.8945 6.94367C68.521 6.94367 67.3765 5.7991 67.3765 4.50193C67.3765 3.12845 68.521 1.98389 69.8945 1.98389Z" fill="#252525"/>
<path fill-rule="evenodd" clip-rule="evenodd" d="M64.8586 44.8668H69.7421V7.93555L64.8586 44.8668Z" fill="#252525"/>
<path fill-rule="evenodd" clip-rule="evenodd" d="M0.076306 47.9954C0.15261 49.5978 0.763045 50.7423 1.755 51.4291C2.59435 52.0395 4.19674 52.2684 6.33326 52.2684H108.123L101.79 27.8511L104.537 12.8191L100.416 27.8511L105.681 47.9191H1.98391C0.839349 47.9191 0.152609 47.0034 0 46.6982C0 47.0034 0.076306 47.7665 0.076306 47.9954ZM7.85934 23.578V17.6263C7.85934 17.0922 7.70673 16.7106 7.55412 16.558C7.32521 16.4054 6.94369 16.3291 6.40956 16.3291C5.79913 16.3291 5.41761 16.4054 5.18869 16.558C4.95978 16.7106 4.88347 17.0922 4.88347 17.6263V40.136C4.88347 40.6702 4.95978 41.0517 5.18869 41.2043C5.41761 41.3569 5.79913 41.4332 6.40956 41.4332C7.01999 41.4332 7.40152 41.3569 7.55412 41.2043C7.78304 41.0517 7.85934 40.6702 7.85934 40.136V33.345H12.6665V40.136C12.6665 41.128 12.5902 41.891 12.4376 42.4252C11.9035 44.1802 9.84325 45.0958 6.40956 45.0958C4.19674 45.0958 2.67065 44.7906 1.8313 44.2565C0.68674 43.4934 0.152609 42.12 0.152609 40.136V17.6263C0.152609 15.5661 0.68674 14.1926 1.8313 13.5059C2.67065 12.8954 4.27304 12.6665 6.40956 12.6665C9.91956 12.6665 11.9035 13.5822 12.4376 15.3372C12.5902 15.9476 12.6665 16.7106 12.6665 17.6263V23.578H7.85934ZM14.9556 17.6263C14.9556 15.5661 15.4898 14.1926 16.6343 13.5059C17.4737 12.8954 19.0761 12.6665 21.2126 12.6665C24.7226 12.6665 26.7828 13.5822 27.2406 15.3372C27.3932 15.9476 27.4695 16.7106 27.4695 17.6263V40.136C27.4695 41.128 27.3932 41.891 27.2406 42.4252C26.7065 44.1802 24.7226 45.0958 21.2126 45.0958C19.0761 45.0958 17.55 44.7906 16.6343 44.2565C15.4898 43.5697 14.9556 42.12 14.9556 40.136V17.6263ZM22.7387 40.136V17.6263C22.7387 17.0922 22.6624 16.7106 22.4335 16.558C22.2045 16.4054 21.823 16.3291 21.2126 16.3291C20.6022 16.3291 20.2206 16.4054 19.9917 16.558C19.7628 16.7106 19.6865 17.0922 19.6865 17.6263V40.136C19.6865 40.6702 19.8391 41.0517 19.9917 41.2043C20.2206 41.3569 20.6022 41.4332 21.2126 41.4332C21.823 41.4332 22.2045 41.3569 22.4335 41.2043C22.6624 41.0517 22.7387 40.6702 22.7387 40.136ZM29.9876 32.9634H34.7184V40.136C34.7184 40.6702 34.8711 41.0517 35.0237 41.2043C35.2526 41.3569 35.6341 41.4332 36.2445 41.4332C36.855 41.4332 37.2365 41.3569 37.4654 41.2043C37.6943 41.0517 37.7706 40.6702 37.7706 40.136V36.3208C37.7706 35.4052 37.618 34.6421 37.2365 34.0317C37.0076 33.5739 36.7024 33.0397 36.2445 32.5056C36.0919 32.2767 35.1 31.0558 33.2687 28.843C31.9715 27.2406 31.1321 26.0198 30.598 25.1041C30.1402 24.3411 29.9876 23.1202 29.9876 21.5178V17.4737C29.9876 15.4135 30.598 14.1163 31.6663 13.4295C32.5056 12.8954 34.108 12.6665 36.2445 12.6665C39.8308 12.6665 41.8147 13.5822 42.2726 15.3372C42.4252 15.9476 42.5015 16.7106 42.5015 17.6263V24.1121H37.6943V17.6263C37.6943 17.0922 37.618 16.7106 37.3891 16.558C37.1602 16.4054 36.7787 16.3291 36.1682 16.3291C35.5578 16.3291 35.2526 16.4054 34.9474 16.558C34.7184 16.7106 34.6421 17.0922 34.6421 17.6263V21.2889C34.6421 22.0519 34.8711 22.7387 35.1763 23.3491C35.3289 23.6543 35.7104 24.1121 36.1682 24.7989C37.1602 26.0198 38.1521 27.2406 39.1441 28.4615C40.4413 30.0639 41.3569 31.361 41.7384 32.2004C42.1963 33.1924 42.4252 34.4132 42.4252 35.9393V40.2887C42.4252 42.3489 41.8147 43.646 40.7465 44.3328C39.9071 44.8669 38.3811 45.0958 36.1682 45.0958C32.6582 45.0958 30.6743 44.1802 30.1402 42.4252C29.9876 41.8147 29.9113 41.0517 29.9113 40.136V32.9634H29.9876ZM60.7382 12.8954H64.6297L61.4249 44.8669H56.3125L54.7102 20.9837H54.6339L52.3447 44.8669H47.0034L43.9513 12.8954H48.911L50.3608 36.0156L52.1921 12.8954H57.3045L58.9832 36.0156H59.1358L60.7382 12.8954ZM80.3484 23.578V17.6263C80.3484 17.0922 80.1958 16.7106 80.0432 16.558C79.8143 16.4054 79.4328 16.3291 78.8986 16.3291C78.2882 16.3291 77.9067 16.4054 77.6777 16.558C77.4488 16.7106 77.3725 17.0922 77.3725 17.6263V40.136C77.3725 40.6702 77.4488 41.0517 77.6777 41.2043C77.9067 41.3569 78.2882 41.4332 78.8986 41.4332C79.5091 41.4332 79.8906 41.3569 80.0432 41.2043C80.2721 41.0517 80.3484 40.6702 80.3484 40.136V33.345H85.1556V40.136C85.1556 41.128 85.0793 41.891 84.9267 42.4252C84.3925 44.1802 82.3323 45.0958 78.8986 45.0958C76.6858 45.0958 75.1597 44.7906 74.3204 44.2565C73.1758 43.4934 72.6417 42.12 72.6417 40.136V17.6263C72.6417 15.5661 73.2521 14.1926 74.3204 13.5059C75.1597 12.8954 76.7621 12.6665 78.8986 12.6665C82.4086 12.6665 84.3925 13.5822 84.9267 15.3372C85.0793 15.9476 85.1556 16.7106 85.1556 17.6263V23.578H80.3484ZM92.4045 44.8669H87.6736V12.8954H92.4045V26.6302L96.2197 12.8954H100.798L96.7538 27.8511L101.103 44.8669H96.0671L92.4808 28.9956V44.8669H92.4045Z" fill="#252525"/>
<path fill-rule="evenodd" clip-rule="evenodd" d="M4.19709 61.5011V61.1959C4.19709 60.6618 4.12079 60.2803 3.96818 59.975C3.73927 59.7461 3.43405 59.5935 2.97622 59.5935C2.5184 59.5935 2.13687 59.7461 1.90796 59.8987C1.67905 60.1276 1.60275 60.5092 1.60275 60.967C1.60275 61.3485 1.67905 61.6537 1.90796 61.8826C2.13687 62.1116 2.5184 62.4168 3.20514 62.722C4.2734 63.3324 4.88383 63.7903 5.26535 64.0955C5.57057 64.477 5.72318 65.0111 5.72318 65.6979C5.72318 66.6898 5.49426 67.3766 5.03644 67.8344C4.50231 68.3685 3.81557 68.5211 2.89992 68.5211C1.83166 68.5211 1.14492 68.2922 0.687094 67.8344C0.305572 67.3766 0.0766602 66.6898 0.0766602 65.6979V65.4689V65.24H1.45014V65.5453C1.45014 66.3083 1.52644 66.8424 1.75535 67.1476C1.98427 67.4529 2.36579 67.6055 2.89992 67.6055C3.43405 67.6055 3.89187 67.4529 4.04448 67.2239C4.2734 66.995 4.426 66.5372 4.426 66.0031C4.426 65.6216 4.3497 65.24 4.12079 65.0111C3.89187 64.7822 3.43405 64.4007 2.671 64.0192C1.83166 63.5613 1.14492 63.1035 0.839703 62.722C0.458182 62.3405 0.305572 61.8063 0.305572 61.1959C0.305572 60.3566 0.534486 59.6698 0.992312 59.212C1.45014 58.8305 2.13687 58.6016 3.05253 58.6016C4.04448 58.6016 4.73122 58.7542 5.11274 59.212C5.49427 59.5935 5.64687 60.204 5.64687 61.0433V61.2722V61.5774H4.19709V61.5011ZM9.15687 68.6737C8.39382 68.6737 7.8597 68.4448 7.47818 68.0633C7.17296 67.6818 6.94404 66.9187 6.94404 66.0031V64.0192C6.94404 63.1798 7.09665 62.5694 7.47818 62.1116C7.8597 61.6537 8.39382 61.4248 9.15687 61.4248C9.91991 61.4248 10.454 61.6537 10.8356 62.0353C11.2171 62.4168 11.3697 63.1035 11.3697 63.9429V65.9268C11.3697 66.9187 11.2171 67.5292 10.8356 67.987C10.5303 68.4448 9.91991 68.6737 9.15687 68.6737ZM9.15687 67.7581C9.46208 67.7581 9.7673 67.6055 9.91991 67.3766C10.0725 67.1476 10.1488 66.6898 10.1488 66.1557V64.1718C10.1488 63.5613 10.0725 63.1798 9.91991 62.8746C9.7673 62.6457 9.53839 62.4931 9.23317 62.4931C8.92795 62.4931 8.62274 62.6457 8.54644 62.8746C8.39383 63.1035 8.31752 63.5613 8.31752 64.0955V66.0794C8.31752 66.6898 8.39383 67.1476 8.54644 67.3002C8.54644 67.6055 8.77535 67.7581 9.15687 67.7581ZM12.7432 58.6016H13.4299H14.0403V68.5211H13.4299H12.7432V58.6016ZM15.4138 61.6537H16.0243H16.711V68.5211H16.0243H15.4138V61.6537ZM15.4138 58.6779H16.711V59.975H15.4138V58.6779ZM19.8395 68.6737C19.229 68.6737 18.7712 68.5211 18.466 68.1396C18.1608 67.7581 18.0082 67.1476 18.0082 66.3846V64.1718C18.0082 63.2561 18.1608 62.5694 18.466 62.1879C18.7712 61.73 19.229 61.5011 19.8395 61.5011C20.4499 61.5011 20.9077 61.73 21.1366 62.1116V58.6016H21.8234H22.4338V68.5211H21.8234H21.1366V67.9107C20.8314 68.4448 20.3736 68.6737 19.8395 68.6737ZM20.2973 62.4931C19.9921 62.4931 19.6869 62.6457 19.5342 62.7983C19.3816 63.0272 19.3053 63.4087 19.3053 63.8666V66.3846C19.3053 66.9187 19.3816 67.2239 19.4579 67.4529C19.6106 67.6055 19.8395 67.6818 20.1447 67.6818C20.5262 67.6818 20.8314 67.5292 20.9077 67.3002C21.0603 66.995 21.1366 66.5372 21.1366 65.7742V63.7903C21.2129 63.3324 21.1366 63.0272 20.984 62.7983C20.8314 62.6457 20.6025 62.4931 20.2973 62.4931ZM27.241 58.6016H27.9277H28.6145V62.8746H31.514V58.6016H32.2008H32.8875V68.5211H32.2008H31.514V63.9429H28.6145V68.5211H27.9277H27.241V58.6016ZM36.016 68.6737C35.4818 68.6737 35.1003 68.5211 34.8714 68.1396C34.5662 67.8344 34.4899 67.3002 34.4899 66.6898V66.7661C34.4899 65.8505 34.7188 65.1637 35.1766 64.8585C35.6345 64.477 36.3975 64.3244 37.5421 64.3244H37.6947V63.485C37.6947 63.1798 37.6184 62.8746 37.4658 62.722C37.3131 62.5694 37.1605 62.4931 36.8553 62.4931C36.5501 62.4931 36.3212 62.5694 36.1686 62.7983C36.016 62.9509 35.9397 63.2561 35.9397 63.6376H34.7188C34.6425 62.9509 34.8714 62.4931 35.2529 62.1116C35.6345 61.73 36.1686 61.5011 36.8553 61.5011C37.6184 61.5011 38.1525 61.6537 38.534 61.9589C38.8392 62.3405 39.0681 62.7983 39.0681 63.5613V68.5211H37.771V67.7581C37.771 67.8344 37.6947 67.9107 37.6947 67.987C37.2368 68.4448 36.7027 68.6737 36.016 68.6737ZM37.6184 65.24H37.3895C36.8553 65.24 36.4738 65.3926 36.1686 65.6216C35.8634 65.8505 35.7871 66.232 35.7871 66.6898C35.7871 67.0713 35.8634 67.3002 35.9397 67.4529C36.0923 67.6055 36.2449 67.6818 36.5501 67.6818C36.9316 67.6818 37.2368 67.5292 37.3895 67.2239C37.6184 66.9187 37.6947 66.4609 37.6184 65.8505V65.24ZM40.3653 61.6537H40.9758H41.6625V62.4931L41.8151 62.2642C42.1966 61.73 42.6544 61.5011 43.1886 61.5011V62.7983C42.5781 62.7983 42.1966 62.9509 41.9677 63.2561C41.7388 63.485 41.6625 64.0192 41.6625 64.7822V68.5974H40.9758H40.3653V61.6537ZM46.0881 68.6737C45.4777 68.6737 44.9436 68.5211 44.6384 68.1396C44.3331 67.7581 44.2568 67.1476 44.2568 66.3846V64.1718C44.2568 63.2561 44.4094 62.5694 44.7147 62.1879C45.0199 61.73 45.4777 61.5011 46.0881 61.5011C46.6986 61.5011 47.0801 61.73 47.3853 62.1116V58.6016H48.0721H48.6825V68.5211H48.0721H47.3853V67.9107C47.0038 68.4448 46.546 68.6737 46.0881 68.6737ZM46.4697 62.4931C46.1644 62.4931 45.8592 62.6457 45.7066 62.7983C45.554 63.0272 45.4777 63.4087 45.4777 63.8666V66.3846C45.4777 66.9187 45.4777 67.2239 45.6303 67.4529C45.7829 67.6055 46.0118 67.6818 46.3171 67.6818C46.6986 67.6818 47.0038 67.5292 47.0801 67.3002C47.2327 66.995 47.309 66.5372 47.309 65.7742V63.7903C47.3853 63.3324 47.2327 63.0272 47.0801 62.7983C47.0801 62.6457 46.8512 62.4931 46.4697 62.4931ZM51.2005 68.5211L49.7508 61.6537H50.3612H51.0479L52.1162 67.6055L53.1844 61.6537H54.0238H54.8631L56.0077 67.6055L57.076 61.6537H57.6101H58.2205L56.8471 68.5211H56.0077H55.0921L53.9475 62.722L52.9555 68.5211H52.0399H51.2005ZM61.5779 68.6737C60.8149 68.6737 60.2044 68.4448 59.8992 68.0633C59.594 67.6818 59.4414 66.9187 59.4414 66.0031V64.0192C59.4414 63.1798 59.594 62.5694 59.9755 62.1116C60.357 61.6537 60.9675 61.4248 61.6542 61.4248C62.4173 61.4248 62.9514 61.6537 63.3329 62.0353C63.7144 62.4168 63.867 63.1035 63.867 63.9429V65.9268C63.867 66.9187 63.7144 67.5292 63.3329 67.987C62.9514 68.4448 62.341 68.6737 61.5779 68.6737ZM61.5779 67.7581C61.8831 67.7581 62.1884 67.6055 62.341 67.3766C62.4936 67.1476 62.5699 66.6898 62.5699 66.1557V64.1718C62.5699 63.5613 62.4936 63.1798 62.341 62.8746C62.1884 62.6457 61.9594 62.4931 61.6542 62.4931C61.349 62.4931 61.0438 62.6457 60.9675 62.8746C60.8149 63.1035 60.7386 63.5613 60.7386 64.0955V66.0794C60.7386 66.6898 60.8149 67.1476 60.9675 67.3002C60.9675 67.6055 61.2727 67.7581 61.5779 67.7581ZM67.377 68.6737C66.614 68.6737 66.0799 68.4448 65.6983 68.0633C65.3168 67.6818 65.1642 66.9187 65.1642 66.0031V64.0192C65.1642 63.1798 65.3168 62.5694 65.7747 62.1116C66.1562 61.6537 66.6903 61.4248 67.377 61.4248C68.1401 61.4248 68.7505 61.6537 69.0557 62.0353C69.4373 62.4168 69.5899 63.1035 69.5899 63.9429V65.9268C69.5899 66.9187 69.4373 67.5292 69.0557 67.987C68.7505 68.4448 68.2164 68.6737 67.377 68.6737ZM67.377 67.7581C67.7586 67.7581 67.9875 67.6055 68.1401 67.3766C68.2927 67.1476 68.369 66.6898 68.369 66.1557V64.1718C68.369 63.5613 68.2927 63.1798 68.1401 62.8746C67.9875 62.6457 67.7586 62.4931 67.377 62.4931C67.0718 62.4931 66.8429 62.6457 66.6903 62.8746C66.5377 63.1035 66.4614 63.5613 66.4614 64.0955V66.0794C66.4614 66.6898 66.5377 67.1476 66.6903 67.3002C66.7666 67.6055 67.0718 67.7581 67.377 67.7581ZM72.7946 68.6737C72.1079 68.6737 71.6501 68.5211 71.4212 68.1396C71.1159 67.7581 71.0396 67.1476 71.0396 66.3846V64.1718C71.0396 63.2561 71.1923 62.5694 71.4212 62.1879C71.7264 61.73 72.1842 61.5011 72.7946 61.5011C73.3288 61.5011 73.7866 61.73 74.0918 62.1116V58.6016H74.7786H75.389V68.5211H74.7786H74.0918V67.9107C73.7866 68.4448 73.3288 68.6737 72.7946 68.6737ZM73.2525 62.4931C72.8709 62.4931 72.642 62.6457 72.4894 62.7983C72.3368 63.0272 72.2605 63.4087 72.2605 63.8666V66.3846C72.2605 66.9187 72.3368 67.2239 72.4131 67.4529C72.5657 67.6055 72.7946 67.6818 73.0999 67.6818C73.4814 67.6818 73.7866 67.5292 73.8629 67.3002C74.0155 66.995 74.0918 66.5372 74.0918 65.7742V63.7903C74.1681 63.3324 74.0155 63.0272 73.8629 62.7983C73.7866 62.6457 73.5577 62.4931 73.2525 62.4931ZM80.2725 68.5211V58.6016H84.5455V59.212V59.7461H81.5696V62.8746H84.3929V63.4087V63.9429H81.5696V68.5211H80.8829H80.2725ZM85.8427 58.6016H86.4531H87.0635V68.5211H86.4531H85.8427V58.6016ZM90.7262 68.6737C89.9631 68.6737 89.429 68.4448 89.0475 68.0633C88.6659 67.6818 88.5133 66.9187 88.5133 66.0031V64.0192C88.5133 63.1798 88.6659 62.5694 89.1238 62.1116C89.5053 61.6537 90.0394 61.4248 90.7262 61.4248C91.4892 61.4248 92.0996 61.6537 92.4048 62.0353C92.7864 62.4168 92.939 63.1035 92.939 63.9429V65.9268C92.939 66.9187 92.7864 67.5292 92.4048 67.987C92.0233 68.4448 91.4892 68.6737 90.7262 68.6737ZM90.7262 67.7581C91.1077 67.7581 91.3366 67.6055 91.4892 67.3766C91.6418 67.1476 91.7181 66.6898 91.7181 66.1557V64.1718C91.7181 63.5613 91.6418 63.1798 91.4892 62.8746C91.3366 62.6457 91.1077 62.4931 90.7262 62.4931C90.4209 62.4931 90.192 62.6457 90.0394 62.8746C89.8868 63.1035 89.8105 63.5613 89.8105 64.0955V66.0794C89.8105 66.6898 89.8868 67.1476 90.0394 67.3002C90.1157 67.6055 90.3446 67.7581 90.7262 67.7581ZM96.5253 68.6737C95.7622 68.6737 95.2281 68.4448 94.8466 68.0633C94.465 67.6818 94.3124 66.9187 94.3124 66.0031V64.0192C94.3124 63.1798 94.5414 62.5694 94.9229 62.1116C95.3044 61.6537 95.8385 61.4248 96.6016 61.4248C97.3646 61.4248 97.8987 61.6537 98.2803 62.0353C98.6618 62.4168 98.8144 63.1035 98.8144 63.9429V65.9268C98.8144 66.9187 98.6618 67.5292 98.2803 67.987C97.8987 68.4448 97.3646 68.6737 96.5253 68.6737ZM96.5253 67.7581C96.8305 67.7581 97.1357 67.6055 97.212 67.3766C97.3646 67.1476 97.4409 66.6898 97.4409 66.1557V64.1718C97.4409 63.5613 97.3646 63.1798 97.212 62.8746C97.0594 62.6457 96.8305 62.4931 96.5253 62.4931C96.2201 62.4931 95.9148 62.6457 95.7622 62.8746C95.6096 63.1035 95.5333 63.5613 95.5333 64.0955V66.0794C95.5333 66.6898 95.6096 67.1476 95.7622 67.3002C95.9148 67.6055 96.1438 67.7581 96.5253 67.7581ZM100.188 61.6537H100.875H101.485V62.4931L101.714 62.2642C102.095 61.73 102.553 61.5011 103.164 61.5011V62.7983C102.553 62.7983 102.172 62.9509 101.943 63.2561C101.714 63.485 101.561 64.0192 101.561 64.7822V68.5974H100.951H100.264V61.6537H100.188ZM106.826 63.6376V63.4087C106.903 63.1035 106.75 62.7983 106.674 62.6457C106.521 62.4931 106.369 62.4168 106.063 62.4168C105.834 62.4168 105.682 62.4931 105.529 62.5694C105.377 62.6457 105.3 62.8746 105.3 63.1035C105.3 63.3324 105.377 63.485 105.529 63.7139C105.682 63.8666 105.911 64.0955 106.369 64.4007C107.055 64.9348 107.589 65.3163 107.818 65.6216C108.047 65.9268 108.124 66.3083 108.124 66.6898C108.124 67.3766 107.971 67.8344 107.589 68.2159C107.208 68.5974 106.674 68.75 105.987 68.75C105.224 68.75 104.69 68.5974 104.385 68.2159C104.003 67.9107 103.85 67.4529 103.85 66.8424V66.6898V66.4609H105.148V66.6898C105.071 67.0713 105.224 67.3002 105.3 67.4529C105.453 67.6818 105.682 67.7581 105.987 67.7581C106.292 67.7581 106.521 67.6818 106.674 67.5292C106.826 67.3766 106.903 67.1476 106.903 66.9187C106.903 66.6898 106.826 66.4609 106.674 66.232C106.521 66.0031 106.216 65.6979 105.758 65.3926C105.071 64.9348 104.69 64.5533 104.461 64.3244C104.232 64.0192 104.156 63.7139 104.156 63.2561C104.156 62.6457 104.308 62.2642 104.69 61.9589C105.071 61.6537 105.529 61.5011 106.216 61.5011C106.903 61.5011 107.437 61.6537 107.742 61.9589C108.047 62.2642 108.2 62.722 108.2 63.3324V63.485V63.7139H106.826V63.6376Z" fill="#252525"/>
<path d="M131.243 0L124.299 68.5975H157.034V0H131.243Z" fill="#252525"/>
</svg>
