<svg width="66" height="66" viewBox="0 0 66 66" fill="none" xmlns="http://www.w3.org/2000/svg">
<path d="M63.7641 54.3246H1.60566C1.06685 54.3246 0.674805 53.8838 0.674805 53.394C0.674805 52.8552 1.11584 52.4634 1.60566 52.4634H63.7641C64.3029 52.4634 64.6947 52.9042 64.6947 53.394C64.6947 53.8838 64.3029 54.3246 63.7641 54.3246Z" fill="#F49300"/>
<path d="M53.9663 41.7776H39.2717C38.7329 41.7776 38.341 41.3367 38.341 40.8469C38.2921 37.81 35.7938 35.3609 32.7569 35.3609C29.72 35.3609 27.2219 37.81 27.1729 40.8469C27.1729 41.3857 26.7322 41.7776 26.2423 41.7776H11.5477C11.1068 41.7776 10.764 41.4837 10.617 41.0918C10.5191 40.6999 10.666 40.2591 11.0578 40.0142L13.605 38.4958L11.4986 36.4385C11.2537 36.1936 11.1557 35.8508 11.2537 35.5569C11.3517 35.214 11.5967 34.969 11.8906 34.8711L14.7315 33.9894L13.213 31.4914C13.0171 31.1975 13.017 30.8545 13.164 30.5606C13.3109 30.2667 13.6049 30.0708 13.9477 30.0708L16.8867 29.9239L16.0051 27.1319C15.9071 26.838 15.9561 26.4462 16.201 26.2012C16.4459 25.9563 16.7397 25.8583 17.0826 25.9073L19.9727 26.4462L19.7766 23.5072C19.7766 23.1643 19.9237 22.8705 20.1686 22.6746C20.4625 22.4786 20.8053 22.4786 21.0992 22.5766L23.7932 23.8012L24.3321 20.9111C24.3811 20.5683 24.6258 20.3234 24.9197 20.1764C25.2136 20.0784 25.6057 20.1274 25.8506 20.3234L28.1526 22.1357L29.3281 19.4417C29.4751 19.1478 29.769 18.9029 30.0629 18.9029C30.4057 18.854 30.6998 19.0009 30.9447 19.2458L32.7569 21.597L34.5693 19.2458C34.7652 19.0009 35.108 18.854 35.4509 18.9029C35.7938 18.9519 36.0877 19.1478 36.1856 19.4417L37.3614 22.1357L39.6634 20.3234C39.9083 20.1274 40.3001 20.0784 40.594 20.1764C40.8879 20.2744 41.1329 20.5683 41.1819 20.9111L41.7208 23.8012L44.4148 22.5766C44.7087 22.4297 45.0515 22.4786 45.3454 22.6746C45.6393 22.8705 45.7862 23.1643 45.7372 23.5072L45.5413 26.4462L48.4312 25.9073C48.7741 25.8583 49.1171 25.9563 49.313 26.2012C49.5579 26.4462 49.6069 26.789 49.5089 27.1319L48.6273 29.9239L51.5663 30.0708C51.9091 30.0708 52.2028 30.2667 52.3498 30.5606C52.4967 30.8545 52.4969 31.1975 52.301 31.4914L50.7825 33.9894L53.6234 34.8711C53.9662 34.969 54.2113 35.214 54.2603 35.5569C54.3582 35.8998 54.2603 36.2426 54.0154 36.4385L51.909 38.4958L54.4562 40.0142C54.799 40.2102 54.9949 40.651 54.897 41.0918C54.75 41.5326 54.4072 41.7776 53.9663 41.7776ZM40.1532 39.9163H50.5376L49.9007 39.5244C49.6558 39.3775 49.4599 39.1326 49.4599 38.8387C49.4109 38.5448 49.5089 38.2509 49.7538 38.0549L51.615 36.2426L49.1659 35.5079C48.872 35.4099 48.6763 35.214 48.5783 34.9201C48.4803 34.6262 48.4802 34.3324 48.6761 34.0874L50.0478 31.8832L47.4516 31.7363C47.1577 31.7363 46.9128 31.5893 46.7168 31.3444C46.5699 31.0995 46.521 30.8056 46.57 30.5117L47.3537 28.0626L44.8066 28.5524C44.5127 28.6014 44.2187 28.5034 44.0228 28.3075C43.8269 28.1116 43.6801 27.8176 43.7291 27.5237L43.925 24.9277L41.5737 26.0054C41.3288 26.1033 40.986 26.1033 40.7411 26.0054C40.4962 25.8584 40.3003 25.6134 40.2513 25.3195L39.8105 22.7725L37.8022 24.3889C37.5573 24.5849 37.2633 24.6338 36.9694 24.5848C36.6755 24.5358 36.4307 24.34 36.3327 24.0461L35.3041 21.6949L33.7365 23.7521C33.3936 24.193 32.6101 24.193 32.2183 23.7521L30.6507 21.6949L29.6221 24.0461C29.5241 24.291 29.2793 24.4868 28.9854 24.5848C28.6915 24.6338 28.3975 24.5849 28.1526 24.3889L26.1443 22.7725L25.7035 25.3195C25.6545 25.6134 25.4586 25.8584 25.2137 26.0054C24.9687 26.1523 24.626 26.1523 24.3811 26.0054L22.0298 24.9277L22.2257 27.5237C22.2257 27.8176 22.1279 28.1116 21.932 28.3075C21.7361 28.5034 21.3931 28.6014 21.1482 28.5524L18.6011 28.0626L19.3848 30.5117C19.4828 30.8056 19.4339 31.0995 19.238 31.3444C19.091 31.5893 18.7971 31.7363 18.5032 31.7363L15.907 31.8832L17.2787 34.0874C17.4256 34.3324 17.4745 34.6262 17.3765 34.9201C17.2785 35.214 17.0338 35.4099 16.7889 35.5079L14.3397 36.2426L16.201 38.0549C16.3969 38.2509 16.4949 38.5448 16.4949 38.8387C16.4459 39.1326 16.299 39.3775 16.0541 39.5244L15.4172 39.9163H25.8015C26.2914 36.2916 29.4263 33.4506 33.1979 33.4506C36.5287 33.4506 39.6634 36.2916 40.1532 39.9163Z" fill="#252525"/>
<path d="M35.4519 41.7812H30.015C29.7701 41.7812 29.525 41.6832 29.3291 41.4873C29.1332 41.2914 29.0354 41.0465 29.0354 40.8016C29.0354 38.7933 30.7008 37.1279 32.7091 37.1279C34.7173 37.1279 36.3827 38.7933 36.3827 40.8016C36.3827 41.0465 36.2847 41.2914 36.0888 41.4873C35.9419 41.6832 35.7458 41.7812 35.4519 41.7812ZM31.2396 39.9199H34.2273C33.9334 39.4301 33.3458 39.0872 32.7091 39.0872C32.0723 39.0872 31.5825 39.4301 31.2396 39.9199Z" fill="#F49300"/>
<path d="M63.7641 65.0015H1.60566C1.06685 65.0015 0.674805 64.5608 0.674805 64.0709V40.9023C0.674805 40.3635 1.11584 39.9717 1.60566 39.9717H63.7641C64.3029 39.9717 64.6947 40.4125 64.6947 40.9023V64.0709C64.6947 64.5608 64.3029 65.0015 63.7641 65.0015ZM2.53627 63.0913H62.7845V41.784H2.53627V63.0913Z" fill="#252525"/>
<path d="M8.95084 41.7858H1.65229C1.11349 41.7858 0.72168 41.3449 0.72168 40.8551V35.5161C0.72168 34.9773 1.16247 34.5854 1.65229 34.5854H4.00359C7.23642 34.5854 9.88146 37.2305 9.88146 40.4633V40.9041C9.88146 41.3939 9.44067 41.7858 8.95084 41.7858ZM2.58315 39.9245H7.9712C7.72629 37.9652 6.01186 36.4467 4.00359 36.4467H2.58315V39.9245Z" fill="#252525"/>
<path d="M63.7621 41.7802H56.4638C55.925 41.7802 55.533 41.3392 55.533 40.8494V40.4086C55.533 37.1758 58.178 34.5308 61.4108 34.5308H63.7621C64.3009 34.5308 64.6927 34.9716 64.6927 35.4614V40.8005C64.6927 41.3393 64.3009 41.7802 63.7621 41.7802ZM57.4435 39.8698H62.8315V36.3921H61.4108C59.3536 36.3921 57.6884 37.9105 57.4435 39.8698Z" fill="#252525"/>
<path d="M31.9727 13.962H0.966748C0.427943 13.962 0.0361328 13.5212 0.0361328 13.0314C0.0361328 12.4926 0.476925 12.1007 0.966748 12.1007H31.0418V2.30422H0.966748C0.427943 2.30422 0.0361328 1.86343 0.0361328 1.37361C0.0361328 0.834801 0.476925 0.442871 0.966748 0.442871H31.9727C32.5115 0.442871 32.9033 0.883783 32.9033 1.37361V13.0803C32.9523 13.5212 32.5115 13.962 31.9727 13.962Z" fill="#252525"/>
<path d="M0.967447 13.8119C0.771518 13.8119 0.575542 13.763 0.428595 13.6161C-0.0122456 13.3222 -0.11021 12.7344 0.183683 12.2936L0.820596 11.4119L0.183683 10.5302C-0.0612278 10.1873 -0.0612278 9.74647 0.183683 9.45257L0.820596 8.57087L0.183683 7.68916C0.0367367 7.49324 -0.0121499 7.19934 0.0368324 6.95443C0.0858146 6.70952 0.232714 6.46458 0.477625 6.31764L1.40824 5.7789L0.428595 5.09308C0.232666 4.94613 0.0858146 4.7503 0.0368324 4.45641C-0.0121499 4.2115 0.0367367 3.96658 0.183683 3.72167L0.820596 2.83997L0.183683 1.95826C-0.11021 1.51742 -0.0122456 0.92966 0.428595 0.635767C0.869435 0.341873 1.45732 0.439838 1.75121 0.880678L2.77989 2.30112C3.0248 2.64399 3.0248 3.08481 2.77989 3.3787L2.33909 4.0155L3.75953 4.99514C4.00444 5.19107 4.15129 5.48494 4.15129 5.82781C4.15129 6.17069 3.95541 6.46463 3.7105 6.61158L2.38789 7.39534L2.82892 7.98311C3.07383 8.32598 3.07383 8.7668 2.82892 9.06069L2.192 9.9424L2.82892 10.8241C3.07383 11.167 3.07383 11.6078 2.82892 11.9017L1.80024 13.3221C1.55533 13.665 1.26134 13.8119 0.967447 13.8119Z" fill="#252525"/>
<path d="M4.74008 9.4999H1.99702C1.45822 9.4999 1.06641 9.05911 1.06641 8.56929C1.06641 8.03048 1.5072 7.63867 1.99702 7.63867H4.74008C5.27888 7.63867 5.67069 8.07946 5.67069 8.56929C5.67069 9.10809 5.27888 9.4999 4.74008 9.4999Z" fill="#252525"/>
<path d="M64.2033 13.5192H35.1569C34.6181 13.5192 34.2261 13.0782 34.2261 12.5884C34.2261 12.0496 34.6671 11.6578 35.1569 11.6578H63.2237V1.86135H35.1569C34.6181 1.86135 34.2261 1.42044 34.2261 0.930615C34.2261 0.39181 34.6671 0 35.1569 0H64.2033C64.7421 0 65.1339 0.440793 65.1339 0.930615V12.6374C65.1339 13.0783 64.6931 13.5192 64.2033 13.5192Z" fill="#252525"/>
<path d="M35.1576 13.3695C34.9617 13.3695 34.8147 13.3205 34.6188 13.2226C34.1779 12.9287 34.08 12.3409 34.3739 11.9001L34.9615 11.0184L34.3739 10.1367C34.1779 9.84277 34.1779 9.402 34.3739 9.10811L34.9615 8.22641L34.3739 7.3447C34.2269 7.14877 34.1778 6.85488 34.2268 6.60997C34.2758 6.36506 34.4229 6.12017 34.6678 6.0222L35.5494 5.43444L34.5697 4.69971C34.1779 4.40581 34.0799 3.81798 34.3248 3.42612L34.9127 2.54441L34.3248 1.66271C34.0309 1.22187 34.1779 0.634107 34.5697 0.340213C35.0106 0.0463198 35.5985 0.193267 35.8924 0.585125L36.823 2.00568C37.0189 2.29958 37.0189 2.74034 36.823 3.03424L36.3822 3.72006L37.7046 4.69971C37.9495 4.89564 38.0966 5.18946 38.0966 5.48335C38.0966 5.77724 37.9004 6.07119 37.6555 6.26711L36.431 7.05076L36.823 7.68755C37.0189 7.98145 37.0189 8.42233 36.823 8.71623L36.2351 9.59793L36.823 10.4795C37.0189 10.7734 37.0189 11.2143 36.823 11.5082L35.8924 12.9286C35.7944 13.2225 35.5005 13.3695 35.1576 13.3695Z" fill="#252525"/>
<path d="M38.6831 9.05764H36.1362C35.5974 9.05764 35.2053 8.61685 35.2053 8.12702C35.2053 7.58822 35.6464 7.19629 36.1362 7.19629H38.6831C39.2219 7.19629 39.6137 7.6372 39.6137 8.12702C39.6137 8.66583 39.2219 9.05764 38.6831 9.05764Z" fill="#252525"/>
</svg>
