<svg width="66" height="67" viewBox="0 0 66 67" fill="none" xmlns="http://www.w3.org/2000/svg">
<path d="M58.7227 66.0036H7.2276C3.26257 66.0036 0 62.7593 0 58.7041V18.76C0 14.7554 3.21238 11.4604 7.2276 11.4604H58.7227C62.6877 11.4604 65.9503 14.7047 65.9503 18.76V58.7041C65.9001 62.7593 62.6877 66.0036 58.7227 66.0036ZM7.2276 13.4881C4.31657 13.4881 1.95762 15.8705 1.95762 18.8106V58.7548C1.95762 61.6949 4.31657 64.0773 7.2276 64.0773H58.7227C61.6337 64.0773 63.9927 61.6949 63.9927 58.7548V18.8106C63.9927 15.8705 61.6337 13.4881 58.7227 13.4881H7.2276Z" fill="#252525"/>
<path d="M54.907 44.348H43.9151C43.363 44.348 42.9616 43.8917 42.9616 43.3848V38.5692H22.9357V43.3848C22.9357 43.9424 22.484 44.348 21.9821 44.348H10.9905C10.4384 44.348 10.0367 43.8917 10.0367 43.3848V38.5692H1.0024C0.450302 38.5692 0.0488281 38.1131 0.0488281 37.6061V18.7999C0.0488281 14.7953 3.26096 11.5005 7.27619 11.5005H58.7715C62.7366 11.5005 65.9989 14.7446 65.9989 18.7999V37.6061C65.9989 38.1637 65.5472 38.5692 65.0453 38.5692H56.0111V43.3848C55.8605 43.9424 55.4591 44.348 54.907 44.348ZM44.9189 42.4218H53.9532V37.6061C53.9532 37.0486 54.4051 36.643 54.907 36.643H63.9413V18.7999C63.9413 15.8598 61.5823 13.4774 58.6713 13.4774H7.17595C4.26491 13.4774 1.90597 15.8598 1.90597 18.7999V36.643H10.9402C11.4923 36.643 11.8938 37.0992 11.8938 37.6061V42.4218H20.9281V37.6061C20.9281 37.0486 21.3797 36.643 21.8816 36.643H43.8149C44.367 36.643 44.7685 37.0992 44.7685 37.6061V42.4218H44.9189Z" fill="#252525"/>
<path d="M18.5718 40.9545H14.5065C13.9545 40.9545 13.5527 40.4983 13.5527 39.9914C13.5527 39.4338 14.0046 39.0283 14.5065 39.0283H18.5718C19.1239 39.0283 19.5256 39.4845 19.5256 39.9914C19.5758 40.4983 19.1239 40.9545 18.5718 40.9545Z" fill="#F49300"/>
<path d="M51.4448 40.9545H47.3796C46.8275 40.9545 46.4258 40.4983 46.4258 39.9914C46.4258 39.4338 46.8777 39.0283 47.3796 39.0283H51.4448C51.9969 39.0283 52.3986 39.4845 52.3986 39.9914C52.3986 40.4983 51.9969 40.9545 51.4448 40.9545Z" fill="#F49300"/>
<path d="M44.0172 13.4836H21.8833C21.3312 13.4836 20.9297 13.0275 20.9297 12.5206V0.963072C20.9297 0.405475 21.3814 0 21.8833 0H44.0172C44.5693 0 44.9708 0.456166 44.9708 0.963072V12.5206C44.9708 13.0275 44.5191 13.4836 44.0172 13.4836ZM22.8368 11.5067H43.0134V1.92614H22.8368V11.5067Z" fill="#252525"/>
<path d="M56.4142 58.2971C56.3138 58.2971 56.1631 58.2971 56.0627 58.2971L38.7471 56.9284C38.2452 56.8777 37.8438 56.4722 37.8438 55.9653V50.6935C37.8438 50.1866 38.2452 49.781 38.7471 49.7303L56.0627 48.3617C57.1167 48.2603 58.1206 48.6151 58.9237 49.3755C59.9275 50.2879 60.5296 51.7579 60.5296 53.38C60.5296 55.0021 59.9275 56.4215 58.9237 57.3846C58.221 57.9422 57.3176 58.2971 56.4142 58.2971ZM39.8011 55.0022L56.2132 56.3201C56.8657 56.3708 57.3176 56.0666 57.6187 55.8132C58.221 55.2556 58.5723 54.3432 58.5723 53.2787C58.5723 52.2142 58.221 51.3017 57.6187 50.7441C57.3176 50.4907 56.8657 50.1865 56.2132 50.2372L39.8011 51.5552V55.0022Z" fill="#F49300"/>
<path d="M15.0583 57.8787H8.03169C7.4796 57.8787 7.07812 57.4224 7.07812 56.9155V49.6668C7.07812 49.1092 7.52979 48.7036 8.03169 48.7036H15.0583C15.2591 48.7036 15.46 48.7544 15.6607 48.9064L18.12 50.8326H38.8488C39.4008 50.8326 39.8023 51.2889 39.8023 51.7958V54.7865C39.8023 55.3441 39.3507 55.7497 38.8488 55.7497H18.12L15.6607 57.6758C15.46 57.7772 15.2591 57.8787 15.0583 57.8787ZM8.9855 55.9017H14.7072L17.1664 53.9755C17.317 53.8234 17.5681 53.7727 17.7688 53.7727H37.8449V52.7589H17.7688C17.5681 52.7589 17.3672 52.7082 17.1664 52.5561L14.7072 50.6299H8.9855V55.9017Z" fill="#F49300"/>
<path d="M34.079 34.3654H31.8204C30.7664 34.3654 29.913 33.5038 29.913 32.4393C29.2605 33.1996 27.9556 33.1996 27.2028 32.4393L25.5966 30.8171C24.8437 30.0567 24.8437 28.8402 25.5966 28.0798C24.5426 28.0798 23.6895 27.2181 23.6895 26.1536V23.8725C23.6895 22.808 24.5426 21.9462 25.5966 21.9462C24.8437 21.2366 24.8437 19.9693 25.5966 19.209L27.2028 17.5869C27.9556 16.8266 29.1602 16.8266 29.913 17.5869C29.8628 16.5224 30.7664 15.6606 31.8204 15.6606H34.079C35.1329 15.6606 35.9861 16.5224 35.9861 17.5869C36.6888 16.8266 37.9435 16.8266 38.6963 17.5869L40.3025 19.209C40.6538 19.5638 40.8546 20.0707 40.8546 20.5776C40.8546 21.0845 40.6538 21.5407 40.3025 21.9462C41.3565 21.9462 42.2096 22.808 42.2096 23.8725V26.1536C42.2096 27.2181 41.3565 28.0798 40.3025 28.0798C40.6538 28.4347 40.8546 28.8909 40.8546 29.3978C40.8546 29.9048 40.6538 30.4116 40.3025 30.7665L38.6963 32.3885C37.9936 33.0982 36.6888 33.0982 35.9861 32.3885C35.9861 33.5037 35.1329 34.3654 34.079 34.3654ZM29.913 30.4623C30.164 30.4623 30.4149 30.513 30.6659 30.6144C31.3685 30.9185 31.8704 31.6282 31.8704 32.3885H34.1289C34.1289 31.6282 34.5808 30.9185 35.2835 30.6144C35.9861 30.3102 36.8392 30.4623 37.3913 31.0199L38.9473 29.3978C38.3952 28.8403 38.2447 28.0292 38.5458 27.3195C38.847 26.6098 39.5496 26.103 40.3025 26.103V23.8725C39.5496 23.8725 38.847 23.4163 38.5458 22.656C38.2447 21.9463 38.3952 21.0846 38.9473 20.527L37.3413 18.9555C36.8394 19.5131 35.9861 19.6652 35.2835 19.3611C34.5808 19.0569 34.079 18.3473 34.079 17.5869H31.8204C31.8204 18.3473 31.3685 19.0569 30.6659 19.3611C29.9632 19.6652 29.1101 19.5131 28.558 18.9555L27.0021 20.5776C27.5542 21.1352 27.7046 21.9463 27.4035 22.656C27.1023 23.3656 26.3997 23.8725 25.6468 23.8725V26.1536C26.3997 26.1536 27.1023 26.6098 27.4035 27.3195C27.7046 28.0292 27.5542 28.8909 27.0021 29.4485L28.608 31.0199C28.9092 30.6651 29.4111 30.4623 29.913 30.4623Z" fill="#252525"/>
<path d="M32.9236 28.2372C31.167 28.2372 29.7617 26.8178 29.7617 25.0437C29.7617 24.4861 30.2134 24.0806 30.7153 24.0806C31.2172 24.0806 31.6689 24.5368 31.6689 25.0437C31.6689 25.7026 32.2209 26.2602 32.8734 26.2602C33.5258 26.2602 34.0781 25.7026 34.0781 25.0437C34.0781 24.3847 33.5258 23.8271 32.8734 23.8271C32.3213 23.8271 31.9198 23.3709 31.9198 22.864C31.9198 22.3064 32.3715 21.9009 32.8734 21.9009C34.63 21.9009 36.0355 23.3202 36.0355 25.0944C36.0355 26.8686 34.6803 28.2372 32.9236 28.2372Z" fill="#F49300"/>
</svg>
