<svg width="66" height="67" viewBox="0 0 66 67" fill="none" xmlns="http://www.w3.org/2000/svg">
<path d="M2.97154 17.3144H0.991333C0.446775 17.3144 0.0507812 16.867 0.0507812 16.3699C0.0507812 15.823 0.49628 15.4253 0.991333 15.4253H2.97154C3.5161 15.4253 3.9121 15.8727 3.9121 16.3699C3.9121 16.867 3.4666 17.3144 2.97154 17.3144Z" fill="#F49300"/>
<path d="M2.97154 24.2154H0.991333C0.446775 24.2154 0.0507812 23.7679 0.0507812 23.2707C0.0507812 22.7239 0.49628 22.3262 0.991333 22.3262H2.97154C3.5161 22.3262 3.9121 22.7736 3.9121 23.2707C3.9121 23.7679 3.4666 24.2154 2.97154 24.2154Z" fill="#F49300"/>
<path d="M2.97154 31.1163H0.991333C0.446775 31.1163 0.0507812 30.6689 0.0507812 30.1717C0.0507812 29.6746 0.49628 29.2271 0.991333 29.2271H2.97154C3.5161 29.2271 3.9121 29.6746 3.9121 30.1717C3.9121 30.6689 3.4666 31.1163 2.97154 31.1163Z" fill="#F49300"/>
<path d="M2.97154 38.0406H0.991333C0.446775 38.0406 0.0507812 37.5931 0.0507812 37.0959C0.0507812 36.5491 0.49628 36.1514 0.991333 36.1514H2.97154C3.5161 36.1514 3.9121 36.5988 3.9121 37.0959C3.9121 37.5931 3.4666 38.0406 2.97154 38.0406Z" fill="#F49300"/>
<path d="M2.97154 44.9259H0.991333C0.446775 44.9259 0.0507812 44.4785 0.0507812 43.9813C0.0507812 43.4841 0.49628 43.0366 0.991333 43.0366H2.97154C3.5161 43.0366 3.9121 43.4841 3.9121 43.9813C3.9121 44.4785 3.4666 44.9259 2.97154 44.9259Z" fill="#F49300"/>
<path d="M2.97154 51.8501H0.991333C0.446775 51.8501 0.0507812 51.4027 0.0507812 50.9055C0.0507812 50.3586 0.49628 49.9609 0.991333 49.9609H2.97154C3.5161 49.9609 3.9121 50.4083 3.9121 50.9055C3.9121 51.4027 3.4666 51.8501 2.97154 51.8501Z" fill="#F49300"/>
<path d="M2.97154 58.7667H0.991333C0.446775 58.7667 0.0507812 58.3192 0.0507812 57.822C0.0507812 57.2751 0.49628 56.8774 0.991333 56.8774H2.97154C3.5161 56.8774 3.9121 57.3248 3.9121 57.822C3.9121 58.3192 3.4666 58.7667 2.97154 58.7667Z" fill="#F49300"/>
<path d="M4.95053 13.8408H0.940552C0.395994 13.8408 0 13.3934 0 12.8962C0 12.3493 0.445499 11.9517 0.940552 11.9517H4.95053C5.49508 11.9517 5.89108 12.3991 5.89108 12.8962C5.89108 13.4431 5.49508 13.8408 4.95053 13.8408Z" fill="#F49300"/>
<path d="M4.95053 20.7807H0.940552C0.395994 20.7807 0 20.3333 0 19.8362C0 19.2893 0.445499 18.8916 0.940552 18.8916H4.95053C5.49508 18.8916 5.89108 19.339 5.89108 19.8362C5.89108 20.3333 5.49508 20.7807 4.95053 20.7807Z" fill="#F49300"/>
<path d="M4.95053 27.6974H0.940552C0.395994 27.6974 0 27.2498 0 26.7527C0 26.2555 0.445499 25.8081 0.940552 25.8081H4.95053C5.49508 25.8081 5.89108 26.2555 5.89108 26.7527C5.89108 27.2498 5.49508 27.6974 4.95053 27.6974Z" fill="#F49300"/>
<path d="M4.95053 34.6139H0.940552C0.395994 34.6139 0 34.1665 0 33.6693C0 33.1224 0.445499 32.7246 0.940552 32.7246H4.95053C5.49508 32.7246 5.89108 33.1721 5.89108 33.6693C5.89108 34.1665 5.49508 34.6139 4.95053 34.6139Z" fill="#F49300"/>
<path d="M4.95053 41.5221H0.940552C0.395994 41.5221 0 41.0746 0 40.5774C0 40.0305 0.445499 39.6328 0.940552 39.6328H4.95053C5.49508 39.6328 5.89108 40.0802 5.89108 40.5774C5.89108 41.0746 5.49508 41.5221 4.95053 41.5221Z" fill="#F49300"/>
<path d="M4.95053 48.4156H0.940552C0.395994 48.4156 0 47.9682 0 47.4711C0 46.9242 0.445499 46.5264 0.940552 46.5264H4.95053C5.49508 46.5264 5.89108 46.9739 5.89108 47.4711C5.89108 47.9682 5.49508 48.4156 4.95053 48.4156Z" fill="#F49300"/>
<path d="M4.95053 55.332H0.940552C0.395994 55.332 0 54.8846 0 54.3874C0 53.8406 0.445499 53.4429 0.940552 53.4429H4.95053C5.49508 53.4429 5.89108 53.8903 5.89108 54.3874C5.89108 54.8846 5.49508 55.332 4.95053 55.332Z" fill="#F49300"/>
<path d="M4.95053 62.2252H0.940552C0.395994 62.2252 0 61.7777 0 61.2805C0 60.7336 0.445499 60.3359 0.940552 60.3359H4.95053C5.49508 60.3359 5.89108 60.7833 5.89108 61.2805C5.89108 61.7777 5.49508 62.2252 4.95053 62.2252Z" fill="#F49300"/>
<path d="M47.0808 67H0.991333C0.446775 67 0.0507812 66.5528 0.0507812 66.0558V0.952151C0.0507812 0.554572 0.298211 0.156968 0.694253 0.0575728C1.0903 -0.0915195 1.53594 0.0575486 1.78347 0.405431L47.8729 65.5091C48.0709 65.8073 48.1203 66.2048 47.9222 66.503C47.7737 66.8012 47.4273 67 47.0808 67ZM1.93188 65.0619H45.1994L1.93188 3.934V65.0619ZM30.0015 58.8497H10.744C10.1994 58.8497 9.80317 58.4024 9.80317 57.9055V30.6712C9.80317 30.2737 10.0508 29.8761 10.4469 29.7767C10.8429 29.6276 11.2883 29.7766 11.5359 30.1245L30.7936 57.3587C30.9916 57.6569 31.0409 58.0545 30.8429 58.3527C30.6449 58.6509 30.348 58.8497 30.0015 58.8497ZM11.635 56.9115H28.1201L11.635 33.6531V56.9115Z" fill="#252525"/>
<path d="M46.9311 40.1592C38.6143 40.1592 31.832 33.3506 31.832 25.0015C31.832 16.6523 38.6143 9.84375 46.9311 9.84375C55.248 9.84375 62.0302 16.6523 62.0302 25.0015C62.0302 33.3506 55.248 40.1592 46.9311 40.1592ZM46.9311 11.782C39.6539 11.782 33.7629 17.6959 33.7629 25.0015C33.7629 32.307 39.6539 38.221 46.9311 38.221C54.2084 38.221 60.0996 32.307 60.0996 25.0015C60.0996 17.6959 54.2084 11.782 46.9311 11.782Z" fill="#F49300"/>
<path d="M46.9777 50.4155C46.4331 50.4155 46.0371 49.9683 46.0371 49.4713V3.15319C46.0371 2.60652 46.4826 2.20898 46.9777 2.20898C47.5222 2.20898 47.9182 2.65621 47.9182 3.15319V49.4713C47.9677 50.018 47.5222 50.4155 46.9777 50.4155Z" fill="#252525"/>
<path d="M43.7578 6.97578L46.9757 3.6957L50.243 6.97578V4.19268L46.9757 0.912598L43.7578 4.19268V6.97578Z" fill="#252525"/>
<path d="M64.0607 26.151H25.0011C24.4565 26.151 24.0605 25.7036 24.0605 25.2064C24.0605 24.6595 24.506 24.2617 25.0011 24.2617H64.0607C64.6053 24.2617 65.0013 24.7092 65.0013 25.2064C65.0013 25.7036 64.6053 26.151 64.0607 26.151Z" fill="#252525"/>
<path d="M28.8618 28.4215L25.5946 25.1912L28.8618 21.9111H26.0897L22.8223 25.1912L26.0897 28.4215H28.8618Z" fill="#252525"/>
</svg>
