<svg width="63" height="65" viewBox="0 0 63 65" fill="none" xmlns="http://www.w3.org/2000/svg">
<path d="M52.3502 39.3905H51.4767C51.2826 39.3905 51.0885 39.1976 51.0885 39.0047V38.1368C51.0885 37.944 51.2826 37.7512 51.4767 37.7512H52.3502C52.5443 37.7512 52.7385 37.944 52.7385 38.1851C52.7385 38.6672 53.1266 39.0047 53.6119 39.0047C54.0972 39.0047 54.4854 38.619 54.4854 38.1368C54.4854 37.1243 53.7575 36.3047 52.7869 36.1118V35.485C52.7869 35.0029 52.3987 34.6172 51.9134 34.6172C51.4281 34.6172 51.04 35.0029 51.04 35.485V36.1118C50.0695 36.3047 49.3415 37.1243 49.3415 38.1368V39.0047C49.3415 40.1619 50.2635 41.078 51.4281 41.078H52.3017C52.4958 41.078 52.6899 41.2708 52.6899 41.4637V42.3316C52.6899 42.5244 52.4958 42.7172 52.3017 42.7172H51.4281C51.234 42.7172 51.04 42.5244 51.04 42.3316C51.04 41.8494 50.6518 41.4637 50.1665 41.4637C49.6812 41.4637 49.293 41.8494 49.293 42.3316C49.293 43.3441 50.0209 44.1637 50.9914 44.3566V44.8387C50.9914 45.3209 51.3797 45.7066 51.865 45.7066C52.3502 45.7066 52.7385 45.3209 52.7385 44.8387V44.3566C53.709 44.1637 54.4369 43.3441 54.4369 42.3316V41.4637C54.4369 40.3065 53.4664 39.3905 52.3502 39.3905Z" fill="#F49300"/>
<path d="M49.778 65.0003H12.0235C11.4897 65.0003 11.1016 64.5663 11.1016 64.0842V58.877C11.1016 58.3466 11.5383 57.9609 12.0235 57.9609H49.778C50.3118 57.9609 50.7 58.3948 50.7 58.877V64.0842C50.7 64.5663 50.2633 65.0003 49.778 65.0003ZM12.9456 63.1199H48.8561V59.7931H12.9456V63.1199Z" fill="#252525"/>
<path d="M33.5706 6.4126H28.8149C28.2811 6.4126 27.8928 5.97865 27.8928 5.4965V0.916094C27.8928 0.38573 28.3296 0 28.8149 0H33.5706C34.1045 0 34.4926 0.433945 34.4926 0.916094V5.4965C34.4926 5.97865 34.0559 6.4126 33.5706 6.4126ZM29.7369 4.53221H32.6001V1.83219H29.7369V4.53221Z" fill="#252525"/>
<path d="M33.5704 59.7787H28.8147C28.2809 59.7787 27.8926 59.3448 27.8926 58.8626V9.05672C27.8926 8.52636 28.3294 8.14062 28.8147 8.14062H33.5704C34.1042 8.14062 34.4924 8.57457 34.4924 9.05672V58.8626C34.4924 59.3448 34.0557 59.7787 33.5704 59.7787ZM29.7367 57.8983H32.5999V9.97281H29.7367V57.8983Z" fill="#252525"/>
<path d="M58.1739 9.97174H3.92002C3.38622 9.97174 2.99805 9.53779 2.99805 9.05564V5.43953C2.99805 4.90917 3.43475 4.52344 3.92002 4.52344H58.1739C58.7077 4.52344 59.0959 4.95738 59.0959 5.43953V9.05564C59.0959 9.58601 58.6592 9.97174 58.1739 9.97174ZM4.842 8.09135H57.2518V6.35562H4.842V8.09135Z" fill="#252525"/>
<path d="M51.962 48.3594C47.3518 48.3594 43.6152 44.6468 43.6152 40.0664C43.6152 39.2467 43.7123 38.4753 43.9549 37.7039C45.0225 34.1842 48.2739 31.7734 51.962 31.7734C55.6501 31.7734 58.9499 34.2324 59.969 37.7039C60.2117 38.4753 60.3087 39.2949 60.3087 40.0664C60.3572 44.6468 56.5721 48.3594 51.962 48.3594ZM52.0105 33.3646C49.0504 33.3646 46.3813 35.3413 45.5563 38.1378C45.3622 38.7646 45.2651 39.3914 45.2651 40.0664C45.2651 43.7789 48.2739 46.7682 52.0105 46.7682C55.7472 46.7682 58.7558 43.7789 58.7558 40.0664C58.7558 39.4396 58.6587 38.7646 58.4646 38.1378C57.5911 35.3413 54.9707 33.3646 52.0105 33.3646Z" fill="#F49300"/>
<path d="M52.8366 8.72699C52.691 8.38949 52.3513 8.14844 51.9631 8.14844C51.5748 8.14844 51.2351 8.38949 51.0895 8.72699L41.5296 36.4988C40.1223 40.5488 41.1414 45.1292 44.2957 48.0221C46.3338 49.8542 48.9543 51.0114 51.9145 51.0114C54.632 51.0114 57.1555 49.9989 59.1452 48.4078C62.6392 45.5149 63.8523 40.7416 62.3965 36.4505L52.8366 8.72699ZM60.9407 37.7042C61.4745 39.2952 61.5716 41.031 60.9892 42.5738C59.679 46.3346 56.0879 49.1311 51.9145 49.1311C47.7411 49.1311 44.1986 46.3346 42.9369 42.5256C42.4031 40.9828 42.5002 39.247 43.034 37.7042L52.0116 11.6199L60.9407 37.7042Z" fill="#252525"/>
<path d="M11.3931 39.3905H10.5197C10.3256 39.3905 10.1314 39.1976 10.1314 39.0047V38.1368C10.1314 37.944 10.3256 37.7512 10.5197 37.7512H11.3931C11.5872 37.7512 11.7813 37.944 11.7813 38.1851C11.7813 38.6672 12.1696 39.0047 12.6548 39.0047C13.1401 39.0047 13.5284 38.619 13.5284 38.1368C13.5284 37.1243 12.8005 36.3047 11.8299 36.1118V35.485C11.8299 35.0029 11.4417 34.6172 10.9564 34.6172C10.4711 34.6172 10.0829 35.0029 10.0829 35.485V36.1118C9.11231 36.3047 8.38439 37.1243 8.38439 38.1368V39.0047C8.38439 40.1619 9.30644 41.078 10.4711 41.078H11.3446C11.5387 41.078 11.7329 41.2708 11.7329 41.4637V42.3316C11.7329 42.5244 11.5387 42.7172 11.3446 42.7172H10.4711C10.277 42.7172 10.0829 42.5244 10.0829 42.3316C10.0829 41.8494 9.69462 41.4637 9.20934 41.4637C8.72406 41.4637 8.33594 41.8494 8.33594 42.3316C8.33594 43.3441 9.06385 44.1637 10.0344 44.3566V44.8387C10.0344 45.3209 10.4225 45.7066 10.9078 45.7066C11.3931 45.7066 11.7813 45.3209 11.7813 44.8387V44.3566C12.7519 44.1637 13.4798 43.3441 13.4798 42.3316V41.4637C13.5283 40.3065 12.5577 39.3905 11.3931 39.3905Z" fill="#F49300"/>
<path d="M11.0538 48.3594C6.44363 48.3594 2.70703 44.6468 2.70703 40.0664C2.70703 39.2467 2.80406 38.4753 3.0467 37.7039C4.11431 34.1842 7.36566 31.7734 11.0538 31.7734C14.7419 31.7734 18.0417 34.2324 19.0608 37.7039C19.3034 38.4753 19.4005 39.2949 19.4005 40.0664C19.4005 44.6468 15.6639 48.3594 11.0538 48.3594ZM11.0538 33.3646C8.09357 33.3646 5.42453 35.3413 4.59956 38.1378C4.40545 38.7646 4.30847 39.3914 4.30847 40.0664C4.30847 43.7789 7.31713 46.7682 11.0538 46.7682C14.7904 46.7682 17.7992 43.7789 17.7992 40.0664C17.7992 39.4396 17.7021 38.7646 17.508 38.1378C16.683 35.3413 14.0139 33.3646 11.0538 33.3646Z" fill="#F49300"/>
<path d="M11.9264 8.72699C11.7808 8.38949 11.4411 8.14844 11.0529 8.14844C10.6647 8.14844 10.325 8.38949 10.1794 8.72699L0.619474 36.4988C-0.787827 40.5488 0.231229 45.1292 3.38552 48.0221C5.42368 49.8542 8.04427 51.0114 11.0045 51.0114C13.722 51.0114 16.2454 49.9989 18.235 48.4078C21.729 45.5149 22.9422 40.7416 21.4863 36.4505L11.9264 8.72699ZM20.0305 37.7042C20.5643 39.2952 20.6614 41.031 20.0791 42.5738C18.7688 46.3346 15.1778 49.1311 11.0045 49.1311C6.83108 49.1311 3.28856 46.3346 2.02685 42.5256C1.49304 40.9828 1.59007 39.247 2.12388 37.7042L11.1015 11.6199L20.0305 37.7042Z" fill="#252525"/>
</svg>
