<svg width="95" height="80" viewBox="0 0 95 80" fill="none" xmlns="http://www.w3.org/2000/svg">
<path d="M21.0763 68.1676C20.3182 68.1676 19.7052 67.5562 19.7052 66.8002C19.7052 62.1356 15.9012 58.3423 11.2237 58.3423C6.5462 58.3423 2.74227 62.1356 2.74227 66.8002C2.74227 67.5562 2.12918 68.1676 1.37113 68.1676C0.613092 68.1676 0 67.5562 0 66.8002V11.1926C0 5.02009 5.03403 0 11.2237 0C17.4134 0 22.4474 5.02009 22.4474 11.1926V66.8002C22.4474 67.5562 21.8344 68.1676 21.0763 68.1676ZM11.2237 55.6076C14.6065 55.6076 17.6465 57.1078 19.7052 59.4771V11.1926C19.7052 6.52806 15.9012 2.73467 11.2237 2.73467C6.5462 2.73467 2.74227 6.52806 2.74227 11.1926V59.4771C4.80092 57.1078 7.84092 55.6076 11.2237 55.6076Z" fill="#252525"/>
<path d="M93.6288 77.9918C92.8707 77.9918 92.2577 77.3804 92.2577 76.6244V12.5589H22.4474V66.7992C22.4474 67.5552 21.8344 68.1665 21.0763 68.1665C20.3182 68.1665 19.7052 67.5552 19.7052 66.7992C19.7052 62.1346 15.9012 58.3413 11.2237 58.3413C6.5462 58.3413 2.74227 62.1346 2.74227 66.7992C2.74227 71.4638 6.5462 75.2571 11.2237 75.2571H85.788C86.5461 75.2571 87.1591 75.8684 87.1591 76.6244C87.1591 77.3804 86.5461 77.9918 85.788 77.9918H11.2237C5.03597 77.9918 0 72.9716 0 66.7992C0 60.6266 5.03597 55.6066 11.2237 55.6066C14.6065 55.6066 17.6465 57.1068 19.7052 59.476V11.1916C19.7052 10.4356 20.3182 9.82422 21.0763 9.82422H93.6288C94.3869 9.82422 95 10.4356 95 11.1916V76.6244C95 77.3804 94.3869 77.9918 93.6288 77.9918Z" fill="#252525"/>
<path d="M41.8783 35.0271H28.4747C27.7166 35.0271 27.1035 34.4157 27.1035 33.6597V20.2931C27.1035 19.5372 27.7166 18.9258 28.4747 18.9258H41.8783C42.6364 18.9258 43.2495 19.5372 43.2495 20.2931V33.6597C43.2495 34.4157 42.6345 35.0271 41.8783 35.0271ZM29.8456 32.2924H40.5074V21.6604H29.8456V32.2924Z" fill="#F49300"/>
<path d="M53.4802 68.2452H43.3278C42.5699 68.2452 41.9569 67.6338 41.9569 66.8778C41.9569 66.1218 42.5699 65.5104 43.3278 65.5104H52.109V43.309H29.8456V65.5104H31.6751C32.4332 65.5104 33.0463 66.1218 33.0463 66.8778C33.0463 67.6338 32.4332 68.2452 31.6751 68.2452H28.4747C27.7166 68.2452 27.1035 67.6338 27.1035 66.8778V41.9416C27.1035 41.1856 27.7166 40.5742 28.4747 40.5742H53.4802C54.2383 40.5742 54.8513 41.1856 54.8513 41.9416V66.8778C54.8513 67.6319 54.2383 68.2452 53.4802 68.2452Z" fill="#F49300"/>
<path d="M36.8516 68.2425C36.4892 68.2425 36.1366 68.096 35.882 67.8421C35.8193 67.7777 35.7606 67.7093 35.7116 67.6331C35.6627 67.5588 35.6196 67.4807 35.5843 67.3967C35.551 67.3148 35.5254 67.2287 35.5079 67.1409C35.4883 67.0529 35.4805 66.9632 35.4805 66.8752C35.4805 66.7853 35.4883 66.6954 35.5079 66.6076C35.5254 66.5196 35.551 66.4337 35.5843 66.3516C35.6196 66.2697 35.6627 66.1895 35.7116 66.1154C35.7606 66.0411 35.8193 65.9708 35.882 65.9082C36.1366 65.6524 36.4892 65.5078 36.8516 65.5078C37.212 65.5078 37.5646 65.6524 37.8211 65.9082C37.8838 65.9708 37.9405 66.0411 37.9916 66.1154C38.0406 66.1895 38.0837 66.2697 38.117 66.3516C38.1523 66.4337 38.1776 66.5196 38.1954 66.6076C38.2129 66.6954 38.2228 66.7853 38.2228 66.8752C38.2228 66.9632 38.2129 67.0529 38.1954 67.1409C38.1776 67.2287 38.1523 67.3148 38.117 67.3967C38.0837 67.4807 38.0406 67.5588 37.9916 67.6331C37.9405 67.7093 37.8838 67.7777 37.8211 67.8421C37.5646 68.096 37.212 68.2425 36.8516 68.2425Z" fill="#F49300"/>
<path d="M82.8872 35.0271H47.5001C46.7422 35.0271 46.1289 34.4157 46.1289 33.6597V20.2931C46.1289 19.5372 46.7422 18.9258 47.5001 18.9258H64.8156C65.5737 18.9258 66.1868 19.5372 66.1868 20.2931C66.1868 21.049 65.5737 21.6604 64.8156 21.6604H48.8712V32.2924H81.516V21.6604H75.1852C74.4273 21.6604 73.8142 21.049 73.8142 20.2931C73.8142 19.5372 74.4273 18.9258 75.1852 18.9258H82.8872C83.6453 18.9258 84.2583 19.5372 84.2583 20.2931V33.6597C84.2583 34.4157 83.6453 35.0271 82.8872 35.0271Z" fill="#F49300"/>
<path d="M69.6856 21.6609C69.5954 21.6609 69.5055 21.6512 69.4172 21.6337C69.329 21.616 69.2429 21.5905 69.1605 21.5554C69.0784 21.5223 68.998 21.4794 68.9237 21.4305C68.8491 21.3796 68.7786 21.323 68.7159 21.2604C68.6513 21.196 68.5945 21.1276 68.5456 21.0516C68.4947 20.9773 68.4535 20.8992 68.4183 20.8171C68.3849 20.7331 68.3575 20.6472 68.3399 20.5612C68.3222 20.4714 68.3125 20.3815 68.3125 20.2936C68.3125 20.2038 68.3222 20.1139 68.3399 20.026C68.3575 19.9381 68.3849 19.8522 68.4183 19.7701C68.4535 19.6881 68.4947 19.608 68.5456 19.5338C68.5945 19.4595 68.6513 19.3892 68.7159 19.3267C68.7786 19.2642 68.8491 19.2056 68.9237 19.1568C68.998 19.1079 69.0784 19.065 69.1605 19.0298C69.2429 18.9966 69.329 18.9712 69.4172 18.9536C69.5935 18.9165 69.7757 18.9165 69.952 18.9536C70.04 18.9712 70.1264 18.9966 70.2085 19.0298C70.2908 19.065 70.3713 19.1079 70.4456 19.1568C70.5201 19.2056 70.5906 19.2642 70.6533 19.3267C70.7179 19.3892 70.7747 19.4595 70.8256 19.5338C70.8746 19.608 70.9157 19.6881 70.951 19.7701C70.9843 19.8522 71.0118 19.9381 71.0293 20.026C71.047 20.1139 71.0548 20.2038 71.0548 20.2936C71.0548 20.3815 71.047 20.4714 71.0293 20.5612C71.0118 20.6472 70.9843 20.7331 70.951 20.8171C70.9157 20.8992 70.8746 20.9773 70.8256 21.0516C70.7747 21.1276 70.7179 21.196 70.6533 21.2604C70.5906 21.323 70.5201 21.3796 70.4456 21.4305C70.3713 21.4794 70.2908 21.5223 70.2085 21.5554C70.1264 21.5905 70.04 21.616 69.952 21.6337C69.8637 21.6512 69.7738 21.6609 69.6856 21.6609Z" fill="#F49300"/>
<path d="M69.4826 68.8917H61.9803C61.2224 68.8917 60.6094 68.2803 60.6094 67.5243V41.9416C60.6094 41.1856 61.2224 40.5742 61.9803 40.5742H69.4826C70.2405 40.5742 70.8535 41.1856 70.8535 41.9416V67.5264C70.8535 68.2803 70.2405 68.8917 69.4826 68.8917ZM63.3536 66.1572H68.1133V43.309H63.3536V66.1572Z" fill="#F49300"/>
<path d="M82.8869 68.8917H75.3848C74.6267 68.8917 74.0137 68.2803 74.0137 67.5243V41.9416C74.0137 41.1856 74.6267 40.5742 75.3848 40.5742H82.8869C83.6448 40.5742 84.258 41.1856 84.258 41.9416V67.5264C84.258 68.2803 83.6448 68.8917 82.8869 68.8917ZM76.756 66.1572H81.5157V43.309H76.756V66.1572Z" fill="#F49300"/>
<path d="M10.6387 50.4944C9.88067 50.4944 9.26758 49.8831 9.26758 49.1271V12.6876C9.26758 11.9317 9.88067 11.3203 10.6387 11.3203C11.3967 11.3203 12.0098 11.9317 12.0098 12.6876V49.1271C12.0098 49.8831 11.3948 50.4944 10.6387 50.4944Z" fill="#F49300"/>
<path d="M10.6387 9.74243C10.2763 9.74243 9.92375 9.59593 9.66911 9.34199C9.41449 9.0861 9.26758 8.7345 9.26758 8.37509C9.26758 8.01372 9.41449 7.66212 9.66911 7.40818C9.98643 7.0898 10.4605 6.94526 10.9071 7.03315C10.9932 7.05073 11.0794 7.07808 11.1637 7.11128C11.2459 7.14643 11.3243 7.18747 11.3987 7.23825C11.4751 7.28709 11.5456 7.34372 11.6083 7.40818C11.8629 7.66212 12.0098 8.01372 12.0098 8.37509C12.0098 8.7345 11.8629 9.0861 11.6083 9.34199C11.5456 9.4045 11.4751 9.46115 11.3987 9.51193C11.3243 9.56077 11.2459 9.60374 11.1637 9.63694C11.0794 9.6721 10.9932 9.69751 10.9071 9.71509C10.8189 9.73267 10.7288 9.74243 10.6387 9.74243Z" fill="#F49300"/>
</svg>
