<svg width="331" height="374" viewBox="0 0 331 374" fill="none" xmlns="http://www.w3.org/2000/svg">
<g clip-path="url(#clip0_2106_5586)">
<path d="M222.5 285.09V342.001H223.502H223.86H260.652V328.712H235.671V285.09H222.5Z" fill="#252525"/>
<path d="M229.085 286.969H224.289V334.058H229.085V286.969Z" fill="#F49300"/>
<path d="M233.881 286.969V329.219L224.289 338.897V332.83H227.94V331.024H224.289V328.208H227.94V326.402H224.289V323.658H227.94V321.852H224.289V319.035H227.94V317.23H224.289V314.485H227.94V312.68H224.289V309.863H227.94V308.058H224.289V305.313H227.94V303.508H224.289V300.691H227.94V298.885H224.289V296.141H227.94V294.335H224.289V291.519H227.94V289.713H224.289V286.969H233.881Z" fill="#EDEDED"/>
<path d="M258.862 340.197H225.578L235.17 330.52H258.862V340.197Z" fill="#EDEDED"/>
<path d="M289.354 284.078L287.851 282.994C283.198 279.672 274.466 277 268.31 277H263.228V279.456H259.864V277.939H251.346L251.417 289.061H259.935V287.906H263.299V290.939H265.518V294.478V296.283V299.894L265.59 317.806L265.661 337.956C265.661 340.267 267.523 342.072 269.741 342.072H269.885C272.175 342.072 273.965 340.194 273.965 337.956L273.893 317.806L273.821 305.744H272.032L272.104 309.717L272.175 337.956C272.175 339.256 271.173 340.267 269.885 340.339H269.741C268.453 340.339 267.451 339.328 267.379 338.028L267.308 309.717L267.236 290.939H272.032L272.104 302.928V303.867H273.893V302.928V299.822V296.211V294.406V290.867H275.754V285.233C277.758 285.017 283.413 284.728 288.424 286.244C288.996 286.389 289.569 286.172 289.855 285.594C289.998 285.017 289.855 284.367 289.354 284.078ZM253.207 287.256V279.744H258.146V287.256H253.207ZM259.935 286.1V281.333H263.299V286.1H259.935ZM274.609 283.5L273.821 283.572V288.989H273.75L264.946 289.133V281.478V279.456V278.806H268.238C273.535 278.806 281.266 280.972 285.775 283.789C280.192 282.778 274.895 283.428 274.609 283.5Z" fill="#252525"/>
<path d="M270.602 326.328H268.812V336.223H270.602V326.328Z" fill="#F49300"/>
<path d="M270.602 321.129H268.812V324.523H270.602V321.129Z" fill="#F49300"/>
<path d="M267.81 289.132H266.092V278.805H267.81V289.132Z" fill="#F49300"/>
<path d="M272.032 293.899H267.236V292.094H272.032V293.899Z" fill="#F49300"/>
<path d="M272.104 303.577H267.309V301.844H272.104V303.577Z" fill="#F49300"/>
<path d="M272.177 319.899H267.381V318.094H272.177V319.899Z" fill="#F49300"/>
</g>
<path d="M228.236 365.656C227.916 366.381 227.575 367.011 227.212 367.544C226.86 368.067 226.407 368.467 225.852 368.744C225.297 369.021 224.572 369.16 223.676 369.16C223.399 369.16 223.095 369.139 222.764 369.096C222.433 369.053 222.129 368.995 221.852 368.92V366.84C222.108 366.947 222.391 367.021 222.7 367.064C223.009 367.107 223.297 367.128 223.564 367.128C223.916 367.128 224.199 367.069 224.412 366.952C224.636 366.835 224.812 366.675 224.94 366.472C225.079 366.259 225.191 366.029 225.276 365.784L221.324 357.576H223.884L226.012 362.52C226.065 362.627 226.129 362.765 226.204 362.936C226.279 363.107 226.353 363.283 226.428 363.464C226.503 363.645 226.561 363.805 226.604 363.944H226.684C226.727 363.816 226.78 363.661 226.844 363.48C226.919 363.288 226.993 363.096 227.068 362.904C227.153 362.701 227.228 362.525 227.292 362.376L229.276 357.576H231.772L228.236 365.656ZM238.749 360.264H241.373L237.917 364.456L241.677 369H238.973L235.405 364.568V369H233.021V360.264H235.405V364.504L238.749 360.264ZM250.752 369H248.368V362.056H246.176C246.069 363.336 245.936 364.429 245.776 365.336C245.626 366.232 245.434 366.963 245.2 367.528C244.976 368.093 244.688 368.509 244.336 368.776C243.984 369.032 243.552 369.16 243.04 369.16C242.762 369.16 242.512 369.139 242.288 369.096C242.064 369.053 241.861 368.989 241.68 368.904V367C241.797 367.043 241.92 367.08 242.048 367.112C242.176 367.144 242.309 367.16 242.448 367.16C242.597 367.16 242.736 367.101 242.864 366.984C243.002 366.867 243.13 366.659 243.248 366.36C243.376 366.061 243.493 365.651 243.6 365.128C243.706 364.605 243.802 363.949 243.888 363.16C243.984 362.36 244.069 361.395 244.144 360.264H250.752V369ZM256.824 360.088C257.998 360.088 258.894 360.344 259.512 360.856C260.142 361.357 260.456 362.131 260.456 363.176V369H258.792L258.328 367.816H258.264C258.019 368.125 257.763 368.381 257.496 368.584C257.24 368.787 256.942 368.931 256.6 369.016C256.27 369.112 255.859 369.16 255.368 369.16C254.856 369.16 254.392 369.064 253.976 368.872C253.571 368.669 253.251 368.365 253.016 367.96C252.782 367.544 252.664 367.021 252.664 366.392C252.664 365.464 252.99 364.781 253.64 364.344C254.291 363.896 255.267 363.651 256.568 363.608L258.088 363.56V363.176C258.088 362.717 257.966 362.381 257.72 362.168C257.486 361.955 257.155 361.848 256.728 361.848C256.302 361.848 255.886 361.912 255.48 362.04C255.075 362.157 254.67 362.307 254.264 362.488L253.48 360.872C253.95 360.627 254.467 360.435 255.032 360.296C255.608 360.157 256.206 360.088 256.824 360.088ZM257.16 364.984C256.392 365.005 255.859 365.144 255.56 365.4C255.262 365.656 255.112 365.992 255.112 366.408C255.112 366.771 255.219 367.032 255.432 367.192C255.646 367.341 255.923 367.416 256.264 367.416C256.776 367.416 257.208 367.267 257.56 366.968C257.912 366.659 258.088 366.227 258.088 365.672V364.952L257.16 364.984ZM270.752 360.264V367.256H272.032V372.136H269.888V369H264.016V372.136H261.872V367.256H262.608C262.992 366.669 263.318 366.003 263.584 365.256C263.851 364.499 264.064 363.693 264.224 362.84C264.384 361.987 264.502 361.128 264.576 360.264H270.752ZM266.576 362.056C266.491 362.696 266.384 363.32 266.256 363.928C266.128 364.525 265.968 365.101 265.776 365.656C265.595 366.211 265.371 366.744 265.104 367.256H268.368V362.056H266.576ZM279.249 360.264H281.873L278.417 364.456L282.177 369H279.473L275.905 364.568V369H273.521V360.264H275.905V364.504L279.249 360.264ZM287.012 360.088C288.185 360.088 289.081 360.344 289.7 360.856C290.329 361.357 290.644 362.131 290.644 363.176V369H288.98L288.516 367.816H288.452C288.206 368.125 287.95 368.381 287.684 368.584C287.428 368.787 287.129 368.931 286.788 369.016C286.457 369.112 286.046 369.16 285.556 369.16C285.044 369.16 284.58 369.064 284.164 368.872C283.758 368.669 283.438 368.365 283.204 367.96C282.969 367.544 282.852 367.021 282.852 366.392C282.852 365.464 283.177 364.781 283.828 364.344C284.478 363.896 285.454 363.651 286.756 363.608L288.276 363.56V363.176C288.276 362.717 288.153 362.381 287.908 362.168C287.673 361.955 287.342 361.848 286.916 361.848C286.489 361.848 286.073 361.912 285.668 362.04C285.262 362.157 284.857 362.307 284.452 362.488L283.668 360.872C284.137 360.627 284.654 360.435 285.22 360.296C285.796 360.157 286.393 360.088 287.012 360.088ZM287.348 364.984C286.58 365.005 286.046 365.144 285.748 365.4C285.449 365.656 285.3 365.992 285.3 366.408C285.3 366.771 285.406 367.032 285.62 367.192C285.833 367.341 286.11 367.416 286.452 367.416C286.964 367.416 287.396 367.267 287.748 366.968C288.1 366.659 288.276 366.227 288.276 365.672V364.952L287.348 364.984Z" fill="#252525"/>
<path d="M150.22 245.854C150.571 245.209 151.159 244.931 151.529 245.144L185.964 265.005C186.37 265.24 186.379 265.938 186.06 266.524C185.709 267.17 185.121 267.447 184.752 267.234L150.316 247.373C149.878 247.197 149.869 246.499 150.22 245.854Z" fill="#252525"/>
<path d="M182.719 259.45L184.285 265.511L178.219 267.244L181.442 269.105L187.507 267.371L185.942 261.311L182.719 259.45Z" fill="#252525"/>
<path d="M69.9376 236.69C62.464 236.69 56.3672 230.644 56.3672 223.232C56.3672 215.82 62.464 209.773 69.9376 209.773C77.4111 209.773 83.508 215.82 83.508 223.232C83.508 230.644 77.4603 236.69 69.9376 236.69ZM69.9376 211.626C63.4966 211.626 58.2847 216.795 58.2847 223.183C58.2847 229.571 63.4966 234.74 69.9376 234.74C76.3786 234.74 81.5904 229.571 81.5904 223.183C81.6396 216.844 76.3786 211.626 69.9376 211.626Z" fill="#F49300"/>
<path d="M69.4443 229.804C69.4443 229.804 69.3951 229.804 69.4443 229.804C69.0018 229.804 68.7068 229.56 68.5593 229.17L65.855 221.856C65.6583 221.368 65.9042 220.832 66.3958 220.637C66.8875 220.442 67.4284 220.686 67.625 221.173L69.5426 226.391L73.9186 217.223C74.1644 216.736 74.7053 216.541 75.197 216.785C75.6886 217.028 75.8853 217.565 75.6395 218.052L70.2801 229.268C70.1326 229.56 69.7885 229.804 69.4443 229.804Z" fill="#F49300"/>
<path d="M73.3773 190.754H63.2487C62.7078 190.754 62.3145 190.315 62.3145 189.828C62.3145 187.146 64.527 185 67.1821 185H69.4438C72.1481 185 74.3115 187.194 74.3115 189.828C74.3607 190.315 73.9181 190.754 73.3773 190.754ZM64.3795 188.852H72.2956C71.9022 187.682 70.7714 186.853 69.4438 186.853H67.1821C65.8546 186.853 64.7728 187.682 64.3795 188.852Z" fill="#252525"/>
<path d="M74.9989 205.231H61.9693C61.4285 205.231 61.0352 204.792 61.0352 204.305V199.477C61.0352 198.941 61.4776 198.551 61.9693 198.551H74.9989C75.5397 198.551 75.9331 198.99 75.9331 199.477V204.305C75.9331 204.792 75.4905 205.231 74.9989 205.231ZM62.8544 203.329H74.0155V200.404H62.8544V203.329Z" fill="#252525"/>
<path d="M93.2416 250.002H43.4342C42.8934 250.002 42.5 249.563 42.5 249.075V192.657C42.5 192.121 42.9425 191.73 43.4342 191.73H58.0863C58.3322 191.73 58.578 191.828 58.7747 192.023C58.9713 192.218 59.0697 192.462 59.0205 192.706C59.0205 192.754 59.0205 192.803 59.0205 192.852V196.509C59.0205 196.607 59.0205 196.607 59.0205 196.655C59.0205 196.899 58.9713 197.192 58.7747 197.387C58.578 197.582 58.3322 197.679 58.0863 197.679H49.2361V243.37H87.7347V197.679H78.5894C78.3436 197.679 78.0486 197.582 77.9011 197.387C77.7044 197.192 77.6552 196.948 77.6552 196.655C77.6552 196.607 77.6552 196.558 77.6552 196.509V192.803C77.6552 192.754 77.6552 192.706 77.6552 192.706C77.6552 192.462 77.7536 192.218 77.9011 192.023C78.0978 191.828 78.3436 191.73 78.5894 191.73H93.2416C93.7824 191.73 94.1757 192.169 94.1757 192.657V249.075C94.1757 249.563 93.7333 250.002 93.2416 250.002ZM44.3684 248.1H92.2582V193.583H79.5237V195.778H88.6689C89.2098 195.778 89.6031 196.217 89.6031 196.704V244.297C89.6031 244.833 89.1606 245.223 88.6689 245.223H48.3019C47.761 245.223 47.3677 244.784 47.3677 244.297V196.704C47.3677 196.168 47.8102 195.778 48.3019 195.778H57.103V193.583H44.3684V248.1Z" fill="#252525"/>
<path d="M88.6684 245.27H48.3014C47.7605 245.27 47.3672 244.831 47.3672 244.343V196.751C47.3672 196.214 47.8097 195.824 48.3014 195.824H58.0859C58.5776 195.824 58.9708 196.214 59.02 196.702C59.1184 197.775 60.0034 198.555 61.036 198.555H75.5406C76.6223 198.555 77.5073 197.775 77.5565 196.702C77.6056 196.214 77.999 195.824 78.4907 195.824H88.6193C89.1601 195.824 89.5535 196.263 89.5535 196.751V244.343C89.6027 244.88 89.2093 245.27 88.6684 245.27ZM49.2356 243.417H87.7342V197.726H79.3265C78.8348 199.335 77.3106 200.457 75.5897 200.457H61.0851C59.3151 200.457 57.84 199.335 57.3483 197.726H49.2848V243.417H49.2356Z" fill="#252525"/>
<path d="M75.5888 200.408H61.0842C59.0191 200.408 57.3474 198.848 57.1507 196.8C57.1507 196.654 57.1016 196.556 57.1016 196.459V192.753C57.1016 192.704 57.1016 192.606 57.1016 192.558C57.1999 190.509 58.9208 188.852 61.035 188.852H75.5396C77.6539 188.852 79.3747 190.509 79.4731 192.606C79.4731 192.655 79.4731 192.753 79.4731 192.801V196.507C79.4731 196.605 79.4731 196.702 79.4731 196.8C79.3256 198.897 77.6538 200.408 75.5888 200.408ZM59.0191 192.85V196.507C59.0191 196.605 59.0191 196.605 59.0191 196.654C59.1174 197.726 60.0025 198.507 61.035 198.507H75.5396C76.6213 198.507 77.5063 197.726 77.5555 196.654C77.5555 196.605 77.5555 196.556 77.5555 196.507V192.801C77.5555 192.753 77.5555 192.704 77.5555 192.704C77.5063 191.631 76.6213 190.753 75.4904 190.753H60.9858C59.9041 190.753 58.9699 191.631 58.9208 192.704C59.0191 192.704 59.0191 192.801 59.0191 192.85Z" fill="#252525"/>
<path d="M103.321 244.004H97.0768C96.5359 244.004 96.1426 243.565 96.1426 243.077V199.727C96.1426 199.191 96.5851 198.801 97.0768 198.801H103.321C103.862 198.801 104.255 199.24 104.255 199.727V243.077C104.255 243.614 103.862 244.004 103.321 244.004ZM98.011 242.151H102.338V200.703H98.011V242.151Z" fill="#252525"/>
<path d="M106.566 241.076H103.321C102.78 241.076 102.387 240.637 102.387 240.15C102.387 239.613 102.829 239.223 103.321 239.223H105.632V224.594C105.632 224.058 106.074 223.668 106.566 223.668C107.107 223.668 107.5 224.107 107.5 224.594V240.15C107.5 240.686 107.107 241.076 106.566 241.076Z" fill="#252525"/>
<path d="M103.222 200.655H97.1256C96.8306 200.655 96.5356 200.509 96.3881 200.265C96.1914 200.021 96.1422 199.729 96.2406 199.436L99.289 188.952C99.3873 188.562 99.7807 188.27 100.223 188.27C100.666 188.27 101.01 188.562 101.157 188.952L104.206 199.436C104.304 199.729 104.255 200.021 104.058 200.265C103.812 200.509 103.517 200.655 103.222 200.655ZM98.404 198.754H101.944L100.174 192.658L98.404 198.754Z" fill="#252525"/>
<path d="M101.65 248.833H98.6998C98.159 248.833 97.7656 248.394 97.7656 247.906V243.079C97.7656 242.542 98.2082 242.152 98.6998 242.152H101.65C102.191 242.152 102.584 242.591 102.584 243.079V247.906C102.633 248.443 102.191 248.833 101.65 248.833ZM99.6832 246.98H100.716V244.054H99.6832V246.98Z" fill="#252525"/>
<path d="M22.9755 267.432C22.5168 267.432 22.1062 267.523 21.7435 267.704C21.3915 267.885 21.0928 268.147 20.8475 268.488C20.6022 268.819 20.4155 269.224 20.2875 269.704C20.1702 270.184 20.1115 270.723 20.1115 271.32C20.1115 272.131 20.2075 272.824 20.3995 273.4C20.6022 273.965 20.9168 274.397 21.3435 274.696C21.7702 274.995 22.3142 275.144 22.9755 275.144C23.4448 275.144 23.9088 275.091 24.3675 274.984C24.8368 274.877 25.3435 274.728 25.8875 274.536V276.568C25.3862 276.771 24.8902 276.92 24.3995 277.016C23.9088 277.112 23.3595 277.16 22.7515 277.16C21.5782 277.16 20.6075 276.92 19.8395 276.44C19.0822 275.949 18.5222 275.267 18.1595 274.392C17.7968 273.507 17.6155 272.477 17.6155 271.304C17.6155 270.44 17.7328 269.651 17.9675 268.936C18.2022 268.211 18.5435 267.587 18.9915 267.064C19.4502 266.541 20.0102 266.136 20.6715 265.848C21.3435 265.56 22.1115 265.416 22.9755 265.416C23.5408 265.416 24.1062 265.491 24.6715 265.64C25.2475 265.779 25.7968 265.971 26.3195 266.216L25.5355 268.184C25.1088 267.981 24.6768 267.805 24.2395 267.656C23.8128 267.507 23.3915 267.432 22.9755 267.432ZM36.059 272.616C36.059 273.341 35.9577 273.987 35.755 274.552C35.563 275.117 35.2803 275.597 34.907 275.992C34.5443 276.376 34.1017 276.669 33.579 276.872C33.0563 277.064 32.4643 277.16 31.803 277.16C31.195 277.16 30.6297 277.064 30.107 276.872C29.595 276.669 29.1523 276.376 28.779 275.992C28.4057 275.597 28.1123 275.117 27.899 274.552C27.6963 273.987 27.595 273.341 27.595 272.616C27.595 271.645 27.7657 270.829 28.107 270.168C28.4483 269.496 28.939 268.984 29.579 268.632C30.219 268.28 30.9763 268.104 31.851 268.104C32.6723 268.104 33.3977 268.28 34.027 268.632C34.6563 268.984 35.1523 269.496 35.515 270.168C35.8777 270.829 36.059 271.645 36.059 272.616ZM30.027 272.616C30.027 273.192 30.0857 273.677 30.203 274.072C30.331 274.456 30.5283 274.749 30.795 274.952C31.0617 275.144 31.4083 275.24 31.835 275.24C32.2617 275.24 32.603 275.144 32.859 274.952C33.1257 274.749 33.3177 274.456 33.435 274.072C33.563 273.677 33.627 273.192 33.627 272.616C33.627 272.04 33.563 271.56 33.435 271.176C33.3177 270.792 33.1257 270.504 32.859 270.312C32.5923 270.12 32.2457 270.024 31.819 270.024C31.1897 270.024 30.731 270.243 30.443 270.68C30.1657 271.107 30.027 271.752 30.027 272.616ZM44.0613 268.264V270.056H40.4133V277H38.0293V268.264H44.0613ZM53.0095 277H50.6255V270.056H48.4335C48.3268 271.336 48.1935 272.429 48.0335 273.336C47.8842 274.232 47.6922 274.963 47.4575 275.528C47.2335 276.093 46.9455 276.509 46.5935 276.776C46.2415 277.032 45.8095 277.16 45.2975 277.16C45.0202 277.16 44.7695 277.139 44.5455 277.096C44.3215 277.053 44.1188 276.989 43.9375 276.904V275C44.0548 275.043 44.1775 275.08 44.3055 275.112C44.4335 275.144 44.5668 275.16 44.7055 275.16C44.8548 275.16 44.9935 275.101 45.1215 274.984C45.2602 274.867 45.3882 274.659 45.5055 274.36C45.6335 274.061 45.7508 273.651 45.8575 273.128C45.9642 272.605 46.0602 271.949 46.1455 271.16C46.2415 270.36 46.3268 269.395 46.4015 268.264H53.0095V277ZM59.082 268.088C60.2553 268.088 61.1513 268.344 61.77 268.856C62.3993 269.357 62.714 270.131 62.714 271.176V277H61.05L60.586 275.816H60.522C60.2767 276.125 60.0207 276.381 59.754 276.584C59.498 276.787 59.1993 276.931 58.858 277.016C58.5273 277.112 58.1167 277.16 57.626 277.16C57.114 277.16 56.65 277.064 56.234 276.872C55.8287 276.669 55.5087 276.365 55.274 275.96C55.0393 275.544 54.922 275.021 54.922 274.392C54.922 273.464 55.2473 272.781 55.898 272.344C56.5487 271.896 57.5247 271.651 58.826 271.608L60.346 271.56V271.176C60.346 270.717 60.2233 270.381 59.978 270.168C59.7433 269.955 59.4127 269.848 58.986 269.848C58.5593 269.848 58.1433 269.912 57.738 270.04C57.3327 270.157 56.9273 270.307 56.522 270.488L55.738 268.872C56.2073 268.627 56.7247 268.435 57.29 268.296C57.866 268.157 58.4633 268.088 59.082 268.088ZM59.418 272.984C58.65 273.005 58.1167 273.144 57.818 273.4C57.5193 273.656 57.37 273.992 57.37 274.408C57.37 274.771 57.4767 275.032 57.69 275.192C57.9033 275.341 58.1807 275.416 58.522 275.416C59.034 275.416 59.466 275.267 59.818 274.968C60.17 274.659 60.346 274.227 60.346 273.672V272.952L59.418 272.984ZM68.7063 277.16C67.8423 277.16 67.1063 277.005 66.4983 276.696C65.8903 276.376 65.4263 275.885 65.1063 275.224C64.7863 274.563 64.6263 273.715 64.6263 272.68C64.6263 271.613 64.8076 270.744 65.1703 270.072C65.5329 269.4 66.0343 268.904 66.6743 268.584C67.3249 268.264 68.0716 268.104 68.9143 268.104C69.5116 268.104 70.0289 268.163 70.4663 268.28C70.9143 268.397 71.3036 268.536 71.6343 268.696L70.9303 270.536C70.5569 270.387 70.2049 270.264 69.8743 270.168C69.5543 270.072 69.2343 270.024 68.9143 270.024C68.4983 270.024 68.1516 270.125 67.8743 270.328C67.5969 270.52 67.3889 270.813 67.2503 271.208C67.1223 271.592 67.0583 272.077 67.0583 272.664C67.0583 273.24 67.1276 273.72 67.2663 274.104C67.4156 274.477 67.6289 274.76 67.9062 274.952C68.1836 275.133 68.5196 275.224 68.9143 275.224C69.4156 275.224 69.8583 275.16 70.2423 275.032C70.6263 274.893 70.9996 274.707 71.3623 274.472V276.504C70.9996 276.739 70.6156 276.904 70.2103 277C69.8156 277.107 69.3143 277.16 68.7063 277.16ZM81.309 272.616C81.309 273.341 81.2077 273.987 81.005 274.552C80.813 275.117 80.5303 275.597 80.157 275.992C79.7943 276.376 79.3517 276.669 78.829 276.872C78.3063 277.064 77.7143 277.16 77.053 277.16C76.445 277.16 75.8797 277.064 75.357 276.872C74.845 276.669 74.4023 276.376 74.029 275.992C73.6557 275.597 73.3623 275.117 73.149 274.552C72.9463 273.987 72.845 273.341 72.845 272.616C72.845 271.645 73.0157 270.829 73.357 270.168C73.6983 269.496 74.189 268.984 74.829 268.632C75.469 268.28 76.2263 268.104 77.101 268.104C77.9223 268.104 78.6477 268.28 79.277 268.632C79.9063 268.984 80.4023 269.496 80.765 270.168C81.1277 270.829 81.309 271.645 81.309 272.616ZM75.277 272.616C75.277 273.192 75.3357 273.677 75.453 274.072C75.581 274.456 75.7783 274.749 76.045 274.952C76.3117 275.144 76.6583 275.24 77.085 275.24C77.5117 275.24 77.853 275.144 78.109 274.952C78.3757 274.749 78.5677 274.456 78.685 274.072C78.813 273.677 78.877 273.192 78.877 272.616C78.877 272.04 78.813 271.56 78.685 271.176C78.5677 270.792 78.3757 270.504 78.109 270.312C77.8423 270.12 77.4957 270.024 77.069 270.024C76.4397 270.024 75.981 270.243 75.693 270.68C75.4157 271.107 75.277 271.752 75.277 272.616ZM91.0233 270.552C91.0233 271.021 90.8739 271.421 90.5753 271.752C90.2873 272.083 89.8553 272.296 89.2793 272.392V272.456C89.8873 272.531 90.3726 272.739 90.7353 273.08C91.1086 273.421 91.2953 273.859 91.2953 274.392C91.2953 274.765 91.2206 275.112 91.0712 275.432C90.9326 275.752 90.7086 276.029 90.3993 276.264C90.0899 276.499 89.6899 276.68 89.1993 276.808C88.7193 276.936 88.1326 277 87.4393 277H83.2793V268.264H87.4393C88.1219 268.264 88.7299 268.339 89.2633 268.488C89.8073 268.627 90.2339 268.861 90.5433 269.192C90.8633 269.523 91.0233 269.976 91.0233 270.552ZM88.8313 274.264C88.8313 273.923 88.6979 273.677 88.4313 273.528C88.1646 273.368 87.7646 273.288 87.2313 273.288H85.6633V275.352H87.2793C87.7273 275.352 88.0953 275.272 88.3833 275.112C88.6819 274.941 88.8313 274.659 88.8313 274.264ZM88.6073 270.744C88.6073 270.467 88.5006 270.264 88.2873 270.136C88.0739 270.008 87.7593 269.944 87.3433 269.944H85.6633V271.672H87.0713C87.5726 271.672 87.9513 271.603 88.2073 271.464C88.4739 271.315 88.6073 271.075 88.6073 270.744ZM96.9258 268.088C98.0991 268.088 98.9951 268.344 99.6138 268.856C100.243 269.357 100.558 270.131 100.558 271.176V277H98.8938L98.4298 275.816H98.3658C98.1204 276.125 97.8644 276.381 97.5978 276.584C97.3418 276.787 97.0431 276.931 96.7018 277.016C96.3711 277.112 95.9604 277.16 95.4698 277.16C94.9578 277.16 94.4938 277.064 94.0778 276.872C93.6724 276.669 93.3524 276.365 93.1178 275.96C92.8831 275.544 92.7658 275.021 92.7658 274.392C92.7658 273.464 93.0911 272.781 93.7418 272.344C94.3924 271.896 95.3684 271.651 96.6698 271.608L98.1898 271.56V271.176C98.1898 270.717 98.0671 270.381 97.8218 270.168C97.5871 269.955 97.2564 269.848 96.8298 269.848C96.4031 269.848 95.9871 269.912 95.5818 270.04C95.1764 270.157 94.7711 270.307 94.3658 270.488L93.5818 268.872C94.0511 268.627 94.5684 268.435 95.1338 268.296C95.7098 268.157 96.3071 268.088 96.9258 268.088ZM97.2618 272.984C96.4938 273.005 95.9604 273.144 95.6618 273.4C95.3631 273.656 95.2138 273.992 95.2138 274.408C95.2138 274.771 95.3204 275.032 95.5338 275.192C95.7471 275.341 96.0244 275.416 96.3658 275.416C96.8778 275.416 97.3098 275.267 97.6618 274.968C98.0138 274.659 98.1898 274.227 98.1898 273.672V272.952L97.2618 272.984ZM105.382 268.264V271.624H108.71V268.264H111.094V277H108.71V273.4H105.382V277H102.998V268.264H105.382ZM115.896 271.72C115.896 271.901 115.885 272.125 115.864 272.392C115.853 272.659 115.837 272.931 115.816 273.208C115.805 273.485 115.789 273.731 115.768 273.944C115.746 274.157 115.73 274.307 115.72 274.392L119.752 268.264H122.616V277H120.312V273.512C120.312 273.224 120.322 272.909 120.344 272.568C120.365 272.216 120.386 271.891 120.408 271.592C120.44 271.283 120.461 271.048 120.472 270.888L116.456 277H113.592V268.264H115.896V271.72ZM128.707 268.104C129.518 268.104 130.211 268.259 130.787 268.568C131.374 268.877 131.827 269.325 132.147 269.912C132.467 270.499 132.627 271.219 132.627 272.072V273.224H126.995C127.017 273.896 127.214 274.424 127.587 274.808C127.971 275.192 128.499 275.384 129.171 275.384C129.737 275.384 130.249 275.331 130.707 275.224C131.166 275.107 131.641 274.931 132.131 274.696V276.536C131.705 276.749 131.251 276.904 130.771 277C130.302 277.107 129.731 277.16 129.059 277.16C128.185 277.16 127.411 277 126.739 276.68C126.067 276.349 125.539 275.853 125.155 275.192C124.771 274.531 124.579 273.699 124.579 272.696C124.579 271.672 124.75 270.824 125.091 270.152C125.443 269.469 125.929 268.957 126.547 268.616C127.166 268.275 127.886 268.104 128.707 268.104ZM128.723 269.8C128.265 269.8 127.881 269.949 127.571 270.248C127.273 270.547 127.097 271.011 127.043 271.64H130.387C130.387 271.288 130.323 270.973 130.195 270.696C130.078 270.419 129.897 270.2 129.651 270.04C129.406 269.88 129.097 269.8 128.723 269.8ZM39.6797 290.264H42.2877L43.9357 295.176C43.989 295.336 44.0317 295.496 44.0637 295.656C44.1064 295.816 44.1384 295.981 44.1597 296.152C44.1917 296.323 44.213 296.504 44.2237 296.696H44.2717C44.3037 296.419 44.3464 296.157 44.3997 295.912C44.4637 295.656 44.533 295.411 44.6077 295.176L46.2237 290.264H48.7837L45.0877 300.12C44.8637 300.717 44.5704 301.219 44.2077 301.624C43.8557 302.029 43.445 302.333 42.9757 302.536C42.5064 302.739 41.9944 302.84 41.4397 302.84C41.173 302.84 40.9384 302.824 40.7357 302.792C40.5437 302.771 40.373 302.744 40.2237 302.712V300.824C40.341 300.845 40.4797 300.867 40.6397 300.888C40.8104 300.909 40.9864 300.92 41.1677 300.92C41.4984 300.92 41.781 300.851 42.0157 300.712C42.261 300.573 42.4637 300.381 42.6237 300.136C42.7837 299.901 42.9117 299.645 43.0077 299.368L43.1517 298.936L39.6797 290.264ZM53.5891 299.16C52.7251 299.16 51.9891 299.005 51.3811 298.696C50.7731 298.376 50.3091 297.885 49.9891 297.224C49.6691 296.563 49.5091 295.715 49.5091 294.68C49.5091 293.613 49.6904 292.744 50.0531 292.072C50.4157 291.4 50.9171 290.904 51.5571 290.584C52.2077 290.264 52.9544 290.104 53.7971 290.104C54.3944 290.104 54.9117 290.163 55.3491 290.28C55.7971 290.397 56.1864 290.536 56.5171 290.696L55.8131 292.536C55.4397 292.387 55.0877 292.264 54.7571 292.168C54.4371 292.072 54.1171 292.024 53.7971 292.024C53.3811 292.024 53.0344 292.125 52.7571 292.328C52.4797 292.52 52.2717 292.813 52.1331 293.208C52.0051 293.592 51.9411 294.077 51.9411 294.664C51.9411 295.24 52.0104 295.72 52.1491 296.104C52.2984 296.477 52.5117 296.76 52.7891 296.952C53.0664 297.133 53.4024 297.224 53.7971 297.224C54.2984 297.224 54.7411 297.16 55.1251 297.032C55.5091 296.893 55.8824 296.707 56.2451 296.472V298.504C55.8824 298.739 55.4984 298.904 55.0931 299C54.6984 299.107 54.1971 299.16 53.5891 299.16ZM66.0798 299H63.6958V292.056H61.5038C61.3971 293.336 61.2638 294.429 61.1038 295.336C60.9545 296.232 60.7625 296.963 60.5278 297.528C60.3038 298.093 60.0158 298.509 59.6638 298.776C59.3118 299.032 58.8798 299.16 58.3678 299.16C58.0905 299.16 57.8398 299.139 57.6158 299.096C57.3918 299.053 57.1891 298.989 57.0078 298.904V297C57.1251 297.043 57.2478 297.08 57.3758 297.112C57.5038 297.144 57.6371 297.16 57.7758 297.16C57.9251 297.16 58.0638 297.101 58.1918 296.984C58.3305 296.867 58.4585 296.659 58.5758 296.36C58.7038 296.061 58.8211 295.651 58.9278 295.128C59.0345 294.605 59.1305 293.949 59.2158 293.16C59.3118 292.36 59.3971 291.395 59.4718 290.264H66.0798V299ZM76.5043 294.616C76.5043 295.341 76.403 295.987 76.2003 296.552C76.0083 297.117 75.7256 297.597 75.3523 297.992C74.9896 298.376 74.547 298.669 74.0243 298.872C73.5016 299.064 72.9096 299.16 72.2483 299.16C71.6403 299.16 71.075 299.064 70.5523 298.872C70.0403 298.669 69.5976 298.376 69.2243 297.992C68.851 297.597 68.5576 297.117 68.3443 296.552C68.1416 295.987 68.0403 295.341 68.0403 294.616C68.0403 293.645 68.211 292.829 68.5523 292.168C68.8936 291.496 69.3843 290.984 70.0243 290.632C70.6643 290.28 71.4216 290.104 72.2963 290.104C73.1176 290.104 73.843 290.28 74.4723 290.632C75.1016 290.984 75.5976 291.496 75.9603 292.168C76.323 292.829 76.5043 293.645 76.5043 294.616ZM70.4723 294.616C70.4723 295.192 70.531 295.677 70.6483 296.072C70.7763 296.456 70.9736 296.749 71.2403 296.952C71.507 297.144 71.8536 297.24 72.2803 297.24C72.707 297.24 73.0483 297.144 73.3043 296.952C73.571 296.749 73.763 296.456 73.8803 296.072C74.0083 295.677 74.0723 295.192 74.0723 294.616C74.0723 294.04 74.0083 293.56 73.8803 293.176C73.763 292.792 73.571 292.504 73.3043 292.312C73.0376 292.12 72.691 292.024 72.2643 292.024C71.635 292.024 71.1763 292.243 70.8883 292.68C70.611 293.107 70.4723 293.752 70.4723 294.616ZM86.2186 292.552C86.2186 293.021 86.0692 293.421 85.7706 293.752C85.4826 294.083 85.0506 294.296 84.4746 294.392V294.456C85.0826 294.531 85.5679 294.739 85.9306 295.08C86.3039 295.421 86.4906 295.859 86.4906 296.392C86.4906 296.765 86.4159 297.112 86.2666 297.432C86.1279 297.752 85.9039 298.029 85.5946 298.264C85.2852 298.499 84.8852 298.68 84.3946 298.808C83.9146 298.936 83.3279 299 82.6346 299H78.4746V290.264H82.6346C83.3172 290.264 83.9252 290.339 84.4586 290.488C85.0026 290.627 85.4292 290.861 85.7386 291.192C86.0586 291.523 86.2186 291.976 86.2186 292.552ZM84.0266 296.264C84.0266 295.923 83.8932 295.677 83.6266 295.528C83.3599 295.368 82.9599 295.288 82.4266 295.288H80.8586V297.352H82.4746C82.9226 297.352 83.2906 297.272 83.5786 297.112C83.8772 296.941 84.0266 296.659 84.0266 296.264ZM83.8026 292.744C83.8026 292.467 83.6959 292.264 83.4826 292.136C83.2692 292.008 82.9546 291.944 82.5386 291.944H80.8586V293.672H82.2666C82.7679 293.672 83.1466 293.603 83.4026 293.464C83.6692 293.315 83.8026 293.075 83.8026 292.744ZM90.8411 293.72C90.8411 293.901 90.8304 294.125 90.8091 294.392C90.7984 294.659 90.7824 294.931 90.7611 295.208C90.7504 295.485 90.7344 295.731 90.7131 295.944C90.6917 296.157 90.6757 296.307 90.6651 296.392L94.6971 290.264H97.5611V299H95.2571V295.512C95.2571 295.224 95.2677 294.909 95.2891 294.568C95.3104 294.216 95.3317 293.891 95.3531 293.592C95.3851 293.283 95.4064 293.048 95.4171 292.888L91.4011 299H88.5371V290.264H90.8411V293.72ZM108.421 286.504C108.367 287.059 108.213 287.549 107.957 287.976C107.701 288.392 107.301 288.717 106.757 288.952C106.213 289.187 105.482 289.304 104.565 289.304C103.626 289.304 102.89 289.192 102.357 288.968C101.834 288.733 101.461 288.408 101.237 287.992C101.013 287.576 100.879 287.08 100.837 286.504H102.965C103.018 287.091 103.167 287.48 103.413 287.672C103.658 287.864 104.058 287.96 104.613 287.96C105.071 287.96 105.445 287.859 105.733 287.656C106.031 287.443 106.207 287.059 106.261 286.504H108.421ZM102.357 293.72C102.357 293.901 102.346 294.125 102.325 294.392C102.314 294.659 102.298 294.931 102.277 295.208C102.266 295.485 102.25 295.731 102.229 295.944C102.207 296.157 102.191 296.307 102.181 296.392L106.213 290.264H109.077V299H106.773V295.512C106.773 295.224 106.783 294.909 106.805 294.568C106.826 294.216 106.847 293.891 106.869 293.592C106.901 293.283 106.922 293.048 106.933 292.888L102.917 299H100.053V290.264H102.357V293.72ZM19.5364 315.72C19.5364 315.901 19.5257 316.125 19.5044 316.392C19.4937 316.659 19.4777 316.931 19.4564 317.208C19.4457 317.485 19.4297 317.731 19.4084 317.944C19.387 318.157 19.371 318.307 19.3604 318.392L23.3924 312.264H26.2564V321H23.9524V317.512C23.9524 317.224 23.963 316.909 23.9844 316.568C24.0057 316.216 24.027 315.891 24.0484 315.592C24.0804 315.283 24.1017 315.048 24.1124 314.888L20.0964 321H17.2324V312.264H19.5364V315.72ZM40.8403 312.264V321H38.4563V314.056H35.2883V321H32.9043V312.264H40.8403ZM51.2778 316.616C51.2778 317.341 51.1764 317.987 50.9738 318.552C50.7818 319.117 50.4991 319.597 50.1258 319.992C49.7631 320.376 49.3204 320.669 48.7978 320.872C48.2751 321.064 47.6831 321.16 47.0218 321.16C46.4138 321.16 45.8484 321.064 45.3258 320.872C44.8138 320.669 44.3711 320.376 43.9978 319.992C43.6244 319.597 43.3311 319.117 43.1178 318.552C42.9151 317.987 42.8138 317.341 42.8138 316.616C42.8138 315.645 42.9844 314.829 43.3258 314.168C43.6671 313.496 44.1578 312.984 44.7978 312.632C45.4378 312.28 46.1951 312.104 47.0698 312.104C47.8911 312.104 48.6164 312.28 49.2458 312.632C49.8751 312.984 50.3711 313.496 50.7338 314.168C51.0964 314.829 51.2778 315.645 51.2778 316.616ZM45.2458 316.616C45.2458 317.192 45.3044 317.677 45.4218 318.072C45.5498 318.456 45.7471 318.749 46.0138 318.952C46.2804 319.144 46.6271 319.24 47.0538 319.24C47.4804 319.24 47.8218 319.144 48.0778 318.952C48.3444 318.749 48.5364 318.456 48.6538 318.072C48.7818 317.677 48.8458 317.192 48.8458 316.616C48.8458 316.04 48.7818 315.56 48.6538 315.176C48.5364 314.792 48.3444 314.504 48.0778 314.312C47.8111 314.12 47.4644 314.024 47.0378 314.024C46.4084 314.024 45.9498 314.243 45.6618 314.68C45.3844 315.107 45.2458 315.752 45.2458 316.616ZM61.104 312.264V319.256H62.384V324.136H60.24V321H54.368V324.136H52.224V319.256H52.96C53.344 318.669 53.6693 318.003 53.936 317.256C54.2027 316.499 54.416 315.693 54.576 314.84C54.736 313.987 54.8533 313.128 54.928 312.264H61.104ZM56.928 314.056C56.8427 314.696 56.736 315.32 56.608 315.928C56.48 316.525 56.32 317.101 56.128 317.656C55.9467 318.211 55.7227 318.744 55.456 319.256H58.72V314.056H56.928ZM71.809 312.264V321H69.425V314.056H66.257V321H63.873V312.264H71.809ZM76.6145 315.72C76.6145 315.901 76.6038 316.125 76.5825 316.392C76.5718 316.659 76.5558 316.931 76.5345 317.208C76.5238 317.485 76.5078 317.731 76.4865 317.944C76.4652 318.157 76.4492 318.307 76.4385 318.392L80.4705 312.264H83.3345V321H81.0305V317.512C81.0305 317.224 81.0412 316.909 81.0625 316.568C81.0838 316.216 81.1052 315.891 81.1265 315.592C81.1585 315.283 81.1798 315.048 81.1905 314.888L77.1745 321H74.3105V312.264H76.6145V315.72ZM89.3781 321.16C88.5141 321.16 87.7781 321.005 87.1701 320.696C86.5621 320.376 86.0981 319.885 85.7781 319.224C85.4581 318.563 85.2981 317.715 85.2981 316.68C85.2981 315.613 85.4795 314.744 85.8421 314.072C86.2048 313.4 86.7061 312.904 87.3461 312.584C87.9968 312.264 88.7435 312.104 89.5861 312.104C90.1835 312.104 90.7008 312.163 91.1381 312.28C91.5861 312.397 91.9755 312.536 92.3061 312.696L91.6021 314.536C91.2288 314.387 90.8768 314.264 90.5461 314.168C90.2261 314.072 89.9061 314.024 89.5861 314.024C89.1701 314.024 88.8235 314.125 88.5461 314.328C88.2688 314.52 88.0608 314.813 87.9221 315.208C87.7941 315.592 87.7301 316.077 87.7301 316.664C87.7301 317.24 87.7995 317.72 87.9381 318.104C88.0875 318.477 88.3008 318.76 88.5781 318.952C88.8555 319.133 89.1915 319.224 89.5861 319.224C90.0875 319.224 90.5301 319.16 90.9141 319.032C91.2981 318.893 91.6715 318.707 92.0341 318.472V320.504C91.6715 320.739 91.2875 320.904 90.8821 321C90.4875 321.107 89.9861 321.16 89.3781 321.16ZM97.6289 312.088C98.8022 312.088 99.6982 312.344 100.317 312.856C100.946 313.357 101.261 314.131 101.261 315.176V321H99.5969L99.1329 319.816H99.0689C98.8235 320.125 98.5675 320.381 98.3009 320.584C98.0449 320.787 97.7462 320.931 97.4049 321.016C97.0742 321.112 96.6635 321.16 96.1729 321.16C95.6609 321.16 95.1969 321.064 94.7809 320.872C94.3755 320.669 94.0555 320.365 93.8209 319.96C93.5862 319.544 93.4689 319.021 93.4689 318.392C93.4689 317.464 93.7942 316.781 94.4449 316.344C95.0955 315.896 96.0715 315.651 97.3729 315.608L98.8929 315.56V315.176C98.8929 314.717 98.7702 314.381 98.5249 314.168C98.2902 313.955 97.9595 313.848 97.5329 313.848C97.1062 313.848 96.6902 313.912 96.2849 314.04C95.8795 314.157 95.4742 314.307 95.0689 314.488L94.2849 312.872C94.7542 312.627 95.2715 312.435 95.8369 312.296C96.4129 312.157 97.0102 312.088 97.6289 312.088ZM97.9649 316.984C97.1969 317.005 96.6635 317.144 96.3649 317.4C96.0662 317.656 95.9169 317.992 95.9169 318.408C95.9169 318.771 96.0235 319.032 96.2369 319.192C96.4502 319.341 96.7275 319.416 97.0689 319.416C97.5809 319.416 98.0129 319.267 98.3649 318.968C98.7169 318.659 98.8929 318.227 98.8929 317.672V316.952L97.9649 316.984ZM106.085 312.264V315.624H109.413V312.264H111.797V321H109.413V317.4H106.085V321H103.701V312.264H106.085ZM116.599 315.72C116.599 315.901 116.588 316.125 116.567 316.392C116.556 316.659 116.54 316.931 116.519 317.208C116.508 317.485 116.492 317.731 116.471 317.944C116.45 318.157 116.434 318.307 116.423 318.392L120.455 312.264H123.319V321H121.015V317.512C121.015 317.224 121.026 316.909 121.047 316.568C121.068 316.216 121.09 315.891 121.111 315.592C121.143 315.283 121.164 315.048 121.175 314.888L117.159 321H114.295V312.264H116.599V315.72ZM129.411 312.104C130.221 312.104 130.915 312.259 131.491 312.568C132.077 312.877 132.531 313.325 132.851 313.912C133.171 314.499 133.331 315.219 133.331 316.072V317.224H127.699C127.72 317.896 127.917 318.424 128.291 318.808C128.675 319.192 129.203 319.384 129.875 319.384C130.44 319.384 130.952 319.331 131.411 319.224C131.869 319.107 132.344 318.931 132.835 318.696V320.536C132.408 320.749 131.955 320.904 131.475 321C131.005 321.107 130.435 321.16 129.763 321.16C128.888 321.16 128.115 321 127.443 320.68C126.771 320.349 126.243 319.853 125.859 319.192C125.475 318.531 125.283 317.699 125.283 316.696C125.283 315.672 125.453 314.824 125.795 314.152C126.147 313.469 126.632 312.957 127.251 312.616C127.869 312.275 128.589 312.104 129.411 312.104ZM129.427 313.8C128.968 313.8 128.584 313.949 128.275 314.248C127.976 314.547 127.8 315.011 127.747 315.64H131.091C131.091 315.288 131.027 314.973 130.899 314.696C130.781 314.419 130.6 314.2 130.355 314.04C130.109 313.88 129.8 313.8 129.427 313.8ZM45.2681 334.264V341.256H46.5481V346.136H44.4041V343H38.5321V346.136H36.3881V341.256H37.1241C37.5081 340.669 37.8334 340.003 38.1001 339.256C38.3667 338.499 38.5801 337.693 38.7401 336.84C38.9001 335.987 39.0174 335.128 39.0921 334.264H45.2681ZM41.0921 336.056C41.0067 336.696 40.9001 337.32 40.7721 337.928C40.6441 338.525 40.4841 339.101 40.2921 339.656C40.1107 340.211 39.8867 340.744 39.6201 341.256H42.8841V336.056H41.0921ZM55.9731 338.616C55.9731 339.341 55.8717 339.987 55.6691 340.552C55.4771 341.117 55.1944 341.597 54.8211 341.992C54.4584 342.376 54.0157 342.669 53.4931 342.872C52.9704 343.064 52.3784 343.16 51.7171 343.16C51.1091 343.16 50.5437 343.064 50.0211 342.872C49.5091 342.669 49.0664 342.376 48.6931 341.992C48.3197 341.597 48.0264 341.117 47.8131 340.552C47.6104 339.987 47.5091 339.341 47.5091 338.616C47.5091 337.645 47.6797 336.829 48.0211 336.168C48.3624 335.496 48.8531 334.984 49.4931 334.632C50.1331 334.28 50.8904 334.104 51.7651 334.104C52.5864 334.104 53.3117 334.28 53.9411 334.632C54.5704 334.984 55.0664 335.496 55.4291 336.168C55.7917 336.829 55.9731 337.645 55.9731 338.616ZM49.9411 338.616C49.9411 339.192 49.9997 339.677 50.1171 340.072C50.2451 340.456 50.4424 340.749 50.7091 340.952C50.9757 341.144 51.3224 341.24 51.7491 341.24C52.1757 341.24 52.5171 341.144 52.7731 340.952C53.0397 340.749 53.2317 340.456 53.3491 340.072C53.4771 339.677 53.5411 339.192 53.5411 338.616C53.5411 338.04 53.4771 337.56 53.3491 337.176C53.2317 336.792 53.0397 336.504 52.7731 336.312C52.5064 336.12 52.1597 336.024 51.7331 336.024C51.1037 336.024 50.6451 336.243 50.3571 336.68C50.0797 337.107 49.9411 337.752 49.9411 338.616ZM63.9753 334.264V336.056H60.3273V343H57.9433V334.264H63.9753ZM73.3637 338.616C73.3637 339.341 73.2624 339.987 73.0597 340.552C72.8677 341.117 72.585 341.597 72.2117 341.992C71.849 342.376 71.4064 342.669 70.8837 342.872C70.361 343.064 69.769 343.16 69.1077 343.16C68.4997 343.16 67.9344 343.064 67.4117 342.872C66.8997 342.669 66.457 342.376 66.0837 341.992C65.7104 341.597 65.417 341.117 65.2037 340.552C65.001 339.987 64.8997 339.341 64.8997 338.616C64.8997 337.645 65.0704 336.829 65.4117 336.168C65.753 335.496 66.2437 334.984 66.8837 334.632C67.5237 334.28 68.281 334.104 69.1557 334.104C69.977 334.104 70.7024 334.28 71.3317 334.632C71.961 334.984 72.457 335.496 72.8197 336.168C73.1824 336.829 73.3637 337.645 73.3637 338.616ZM67.3317 338.616C67.3317 339.192 67.3904 339.677 67.5077 340.072C67.6357 340.456 67.833 340.749 68.0997 340.952C68.3664 341.144 68.713 341.24 69.1397 341.24C69.5664 341.24 69.9077 341.144 70.1637 340.952C70.4304 340.749 70.6224 340.456 70.7397 340.072C70.8677 339.677 70.9317 339.192 70.9317 338.616C70.9317 338.04 70.8677 337.56 70.7397 337.176C70.6224 336.792 70.4304 336.504 70.1637 336.312C69.897 336.12 69.5504 336.024 69.1237 336.024C68.4944 336.024 68.0357 336.243 67.7477 336.68C67.4704 337.107 67.3317 337.752 67.3317 338.616ZM83.0779 336.552C83.0779 337.021 82.9286 337.421 82.6299 337.752C82.3419 338.083 81.9099 338.296 81.3339 338.392V338.456C81.9419 338.531 82.4273 338.739 82.7899 339.08C83.1633 339.421 83.3499 339.859 83.3499 340.392C83.3499 340.765 83.2753 341.112 83.1259 341.432C82.9873 341.752 82.7633 342.029 82.4539 342.264C82.1446 342.499 81.7446 342.68 81.2539 342.808C80.7739 342.936 80.1873 343 79.4939 343H75.3339V334.264H79.4939C80.1766 334.264 80.7846 334.339 81.3179 334.488C81.8619 334.627 82.2886 334.861 82.5979 335.192C82.9179 335.523 83.0779 335.976 83.0779 336.552ZM80.8859 340.264C80.8859 339.923 80.7526 339.677 80.4859 339.528C80.2193 339.368 79.8193 339.288 79.2859 339.288H77.7179V341.352H79.3339C79.7819 341.352 80.1499 341.272 80.4379 341.112C80.7366 340.941 80.8859 340.659 80.8859 340.264ZM80.6619 336.744C80.6619 336.467 80.5553 336.264 80.3419 336.136C80.1286 336.008 79.8139 335.944 79.3979 335.944H77.7179V337.672H79.1259C79.6273 337.672 80.0059 337.603 80.2619 337.464C80.5286 337.315 80.6619 337.075 80.6619 336.744ZM93.3324 338.616C93.3324 339.341 93.2311 339.987 93.0284 340.552C92.8364 341.117 92.5538 341.597 92.1804 341.992C91.8178 342.376 91.3751 342.669 90.8524 342.872C90.3298 343.064 89.7378 343.16 89.0764 343.16C88.4684 343.16 87.9031 343.064 87.3804 342.872C86.8684 342.669 86.4258 342.376 86.0524 341.992C85.6791 341.597 85.3858 341.117 85.1724 340.552C84.9698 339.987 84.8684 339.341 84.8684 338.616C84.8684 337.645 85.0391 336.829 85.3804 336.168C85.7218 335.496 86.2124 334.984 86.8524 334.632C87.4924 334.28 88.2498 334.104 89.1244 334.104C89.9458 334.104 90.6711 334.28 91.3004 334.632C91.9298 334.984 92.4258 335.496 92.7884 336.168C93.1511 336.829 93.3324 337.645 93.3324 338.616ZM87.3004 338.616C87.3004 339.192 87.3591 339.677 87.4764 340.072C87.6044 340.456 87.8018 340.749 88.0684 340.952C88.3351 341.144 88.6818 341.24 89.1084 341.24C89.5351 341.24 89.8764 341.144 90.1324 340.952C90.3991 340.749 90.5911 340.456 90.7084 340.072C90.8364 339.677 90.9004 339.192 90.9004 338.616C90.9004 338.04 90.8364 337.56 90.7084 337.176C90.5911 336.792 90.3991 336.504 90.1324 336.312C89.8658 336.12 89.5191 336.024 89.0924 336.024C88.4631 336.024 88.0044 336.243 87.7164 336.68C87.4391 337.107 87.3004 337.752 87.3004 338.616ZM100.167 334.104C101.148 334.104 101.943 334.488 102.551 335.256C103.159 336.013 103.463 337.133 103.463 338.616C103.463 339.608 103.319 340.445 103.031 341.128C102.743 341.8 102.348 342.307 101.847 342.648C101.345 342.989 100.764 343.16 100.103 343.16C99.6867 343.16 99.324 343.107 99.0147 343C98.716 342.893 98.46 342.755 98.2467 342.584C98.0334 342.413 97.8467 342.232 97.6867 342.04H97.5587C97.6014 342.243 97.6334 342.456 97.6547 342.68C97.676 342.893 97.6867 343.107 97.6867 343.32V346.84H95.3027V334.264H97.2387L97.5747 335.4H97.6867C97.8467 335.165 98.0387 334.952 98.2627 334.76C98.4867 334.557 98.7534 334.397 99.0627 334.28C99.3827 334.163 99.7507 334.104 100.167 334.104ZM99.3987 336.008C98.9827 336.008 98.652 336.093 98.4067 336.264C98.1614 336.435 97.98 336.696 97.8627 337.048C97.756 337.389 97.6974 337.821 97.6867 338.344V338.6C97.6867 339.165 97.74 339.645 97.8467 340.04C97.9534 340.424 98.1347 340.717 98.3907 340.92C98.6467 341.123 98.9934 341.224 99.4307 341.224C99.7934 341.224 100.092 341.123 100.327 340.92C100.561 340.717 100.737 340.419 100.855 340.024C100.972 339.629 101.031 339.149 101.031 338.584C101.031 337.731 100.897 337.091 100.631 336.664C100.375 336.227 99.964 336.008 99.3987 336.008ZM109.012 334.088C110.185 334.088 111.081 334.344 111.7 334.856C112.329 335.357 112.644 336.131 112.644 337.176V343H110.98L110.516 341.816H110.452C110.206 342.125 109.95 342.381 109.684 342.584C109.428 342.787 109.129 342.931 108.788 343.016C108.457 343.112 108.046 343.16 107.556 343.16C107.044 343.16 106.58 343.064 106.164 342.872C105.758 342.669 105.438 342.365 105.204 341.96C104.969 341.544 104.852 341.021 104.852 340.392C104.852 339.464 105.177 338.781 105.828 338.344C106.478 337.896 107.454 337.651 108.756 337.608L110.276 337.56V337.176C110.276 336.717 110.153 336.381 109.908 336.168C109.673 335.955 109.342 335.848 108.916 335.848C108.489 335.848 108.073 335.912 107.668 336.04C107.262 336.157 106.857 336.307 106.452 336.488L105.668 334.872C106.137 334.627 106.654 334.435 107.22 334.296C107.796 334.157 108.393 334.088 109.012 334.088ZM109.348 338.984C108.58 339.005 108.046 339.144 107.748 339.4C107.449 339.656 107.3 339.992 107.3 340.408C107.3 340.771 107.406 341.032 107.62 341.192C107.833 341.341 108.11 341.416 108.452 341.416C108.964 341.416 109.396 341.267 109.748 340.968C110.1 340.659 110.276 340.227 110.276 339.672V338.952L109.348 338.984Z" fill="#252525"/>
<path d="M177.52 153.854C177.169 153.209 176.581 152.931 176.212 153.144L141.776 173.005C141.37 173.24 141.361 173.938 141.68 174.524C142.031 175.17 142.619 175.447 142.989 175.234L177.424 155.373C177.862 155.197 177.871 154.499 177.52 153.854Z" fill="#252525"/>
<path d="M145.021 167.45L143.456 173.511L149.521 175.244L146.298 177.105L140.233 175.371L141.798 169.311L145.021 167.45Z" fill="#252525"/>
<path d="M234.305 148.238C233.682 148.238 233.179 147.734 233.179 147.11C233.179 143.262 230.056 140.132 226.215 140.132C222.375 140.132 219.252 143.262 219.252 147.11C219.252 147.734 218.748 148.238 218.126 148.238C217.503 148.238 217 147.734 217 147.11V101.234C217 96.1416 221.133 92 226.215 92C231.297 92 235.431 96.1416 235.431 101.234V147.11C235.431 147.734 234.927 148.238 234.305 148.238ZM226.215 137.876C228.993 137.876 231.489 139.114 233.179 141.069V101.234C233.179 97.3857 230.056 94.2561 226.215 94.2561C222.375 94.2561 219.252 97.3857 219.252 101.234V141.069C220.942 139.114 223.438 137.876 226.215 137.876Z" fill="#252525"/>
<path d="M293.874 156.344C293.252 156.344 292.748 155.839 292.748 155.216V102.362H235.431V147.11C235.431 147.734 234.927 148.238 234.305 148.238C233.682 148.238 233.179 147.734 233.179 147.11C233.179 143.261 230.056 140.132 226.215 140.132C222.375 140.132 219.252 143.261 219.252 147.11C219.252 150.958 222.375 154.088 226.215 154.088H287.436C288.059 154.088 288.562 154.592 288.562 155.216C288.562 155.839 288.059 156.344 287.436 156.344H226.215C221.135 156.344 217 152.202 217 147.11C217 142.017 221.135 137.876 226.215 137.876C228.993 137.876 231.489 139.114 233.179 141.068V101.234C233.179 100.61 233.682 100.105 234.305 100.105H293.874C294.497 100.105 295 100.61 295 101.234V155.216C295 155.839 294.497 156.344 293.874 156.344Z" fill="#252525"/>
<path d="M251.385 120.897H240.38C239.757 120.897 239.254 120.392 239.254 119.769V108.741C239.254 108.118 239.757 107.613 240.38 107.613H251.385C252.007 107.613 252.511 108.118 252.511 108.741V119.769C252.511 120.392 252.006 120.897 251.385 120.897ZM241.505 118.641H250.259V109.869H241.505V118.641Z" fill="#F49300"/>
<path d="M260.911 148.301H252.575C251.953 148.301 251.449 147.797 251.449 147.173C251.449 146.549 251.953 146.045 252.575 146.045H259.785V127.729H241.505V146.045H243.007C243.63 146.045 244.133 146.549 244.133 147.173C244.133 147.797 243.63 148.301 243.007 148.301H240.38C239.757 148.301 239.254 147.797 239.254 147.173V126.601C239.254 125.977 239.757 125.473 240.38 125.473H260.911C261.533 125.473 262.036 125.977 262.036 126.601V147.173C262.036 147.795 261.533 148.301 260.911 148.301Z" fill="#F49300"/>
<path d="M247.259 148.303C246.961 148.303 246.672 148.182 246.462 147.973C246.411 147.92 246.363 147.863 246.323 147.8C246.282 147.739 246.247 147.674 246.218 147.605C246.191 147.538 246.17 147.467 246.155 147.394C246.139 147.322 246.133 147.248 246.133 147.175C246.133 147.101 246.139 147.027 246.155 146.954C246.17 146.882 246.191 146.811 246.218 146.743C246.247 146.675 246.282 146.609 246.323 146.548C246.363 146.487 246.411 146.429 246.462 146.377C246.672 146.166 246.961 146.047 247.259 146.047C247.554 146.047 247.844 146.166 248.055 146.377C248.106 146.429 248.153 146.487 248.195 146.548C248.235 146.609 248.27 146.675 248.298 146.743C248.327 146.811 248.347 146.882 248.362 146.954C248.376 147.027 248.384 147.101 248.384 147.175C248.384 147.248 248.376 147.322 248.362 147.394C248.347 147.467 248.327 147.538 248.298 147.605C248.27 147.674 248.235 147.739 248.195 147.8C248.153 147.863 248.106 147.92 248.055 147.973C247.844 148.182 247.554 148.303 247.259 148.303Z" fill="#F49300"/>
<path d="M285.054 120.897H255.999C255.377 120.897 254.873 120.392 254.873 119.769V108.741C254.873 108.118 255.377 107.613 255.999 107.613H270.216C270.838 107.613 271.342 108.118 271.342 108.741C271.342 109.365 270.838 109.869 270.216 109.869H257.125V118.641H283.928V109.869H278.73C278.108 109.869 277.604 109.365 277.604 108.741C277.604 108.118 278.108 107.613 278.73 107.613H285.054C285.676 107.613 286.179 108.118 286.179 108.741V119.769C286.179 120.392 285.676 120.897 285.054 120.897Z" fill="#F49300"/>
<path d="M274.215 109.87C274.141 109.87 274.067 109.862 273.995 109.847C273.922 109.833 273.852 109.812 273.784 109.783C273.717 109.755 273.651 109.72 273.59 109.68C273.529 109.638 273.471 109.591 273.419 109.539C273.366 109.486 273.319 109.43 273.279 109.367C273.237 109.306 273.204 109.241 273.175 109.174C273.147 109.104 273.125 109.033 273.11 108.963C273.096 108.888 273.088 108.814 273.088 108.742C273.088 108.668 273.096 108.593 273.11 108.521C273.125 108.448 273.147 108.378 273.175 108.31C273.204 108.242 273.237 108.176 273.279 108.115C273.319 108.054 273.366 107.996 273.419 107.944C273.471 107.892 273.529 107.844 273.59 107.804C273.651 107.764 273.717 107.728 273.784 107.699C273.852 107.672 273.922 107.651 273.995 107.636C274.14 107.606 274.289 107.606 274.434 107.636C274.506 107.651 274.577 107.672 274.645 107.699C274.712 107.728 274.778 107.764 274.839 107.804C274.9 107.844 274.958 107.892 275.01 107.944C275.063 107.996 275.109 108.054 275.151 108.115C275.191 108.176 275.225 108.242 275.254 108.31C275.282 108.378 275.304 108.448 275.319 108.521C275.333 108.593 275.339 108.668 275.339 108.742C275.339 108.814 275.333 108.888 275.319 108.963C275.304 109.033 275.282 109.104 275.254 109.174C275.225 109.241 275.191 109.306 275.151 109.367C275.109 109.43 275.063 109.486 275.01 109.539C274.958 109.591 274.9 109.638 274.839 109.68C274.778 109.72 274.712 109.755 274.645 109.783C274.577 109.812 274.506 109.833 274.434 109.847C274.362 109.862 274.288 109.87 274.215 109.87Z" fill="#F49300"/>
<path d="M274.049 148.835H267.889C267.267 148.835 266.764 148.33 266.764 147.706V126.601C266.764 125.977 267.267 125.473 267.889 125.473H274.049C274.671 125.473 275.175 125.977 275.175 126.601V147.708C275.175 148.33 274.671 148.835 274.049 148.835ZM269.017 146.579H272.925V127.729H269.017V146.579Z" fill="#F49300"/>
<path d="M285.055 148.835H278.895C278.273 148.835 277.77 148.33 277.77 147.706V126.601C277.77 125.977 278.273 125.473 278.895 125.473H285.055C285.677 125.473 286.181 125.977 286.181 126.601V147.708C286.181 148.33 285.677 148.835 285.055 148.835ZM280.021 146.579H283.929V127.729H280.021V146.579Z" fill="#F49300"/>
<path d="M225.735 133.658C225.113 133.658 224.609 133.154 224.609 132.53V102.468C224.609 101.844 225.113 101.34 225.735 101.34C226.358 101.34 226.861 101.844 226.861 102.468V132.53C226.861 133.154 226.356 133.658 225.735 133.658Z" fill="#F49300"/>
<path d="M225.735 100.037C225.438 100.037 225.148 99.9164 224.939 99.7069C224.73 99.4958 224.609 99.2058 224.609 98.9093C224.609 98.6111 224.73 98.3211 224.939 98.1116C225.2 97.8489 225.589 97.7296 225.955 97.8022C226.026 97.8167 226.097 97.8392 226.166 97.8666C226.234 97.8956 226.298 97.9295 226.359 97.9714C226.422 98.0117 226.48 98.0584 226.531 98.1116C226.74 98.3211 226.861 98.6111 226.861 98.9093C226.861 99.2058 226.74 99.4958 226.531 99.7069C226.48 99.7585 226.422 99.8053 226.359 99.8471C226.298 99.8874 226.234 99.9229 226.166 99.9503C226.097 99.9793 226.026 100 225.955 100.015C225.883 100.029 225.809 100.037 225.735 100.037Z" fill="#F49300"/>
<path d="M188.851 175.432C188.392 175.432 187.981 175.523 187.619 175.704C187.267 175.885 186.968 176.147 186.723 176.488C186.477 176.819 186.291 177.224 186.163 177.704C186.045 178.184 185.987 178.723 185.987 179.32C185.987 180.131 186.083 180.824 186.275 181.4C186.477 181.965 186.792 182.397 187.219 182.696C187.645 182.995 188.189 183.144 188.851 183.144C189.32 183.144 189.784 183.091 190.243 182.984C190.712 182.877 191.219 182.728 191.763 182.536V184.568C191.261 184.771 190.765 184.92 190.275 185.016C189.784 185.112 189.235 185.16 188.627 185.16C187.453 185.16 186.483 184.92 185.715 184.44C184.957 183.949 184.397 183.267 184.035 182.392C183.672 181.507 183.491 180.477 183.491 179.304C183.491 178.44 183.608 177.651 183.843 176.936C184.077 176.211 184.419 175.587 184.867 175.064C185.325 174.541 185.885 174.136 186.547 173.848C187.219 173.56 187.987 173.416 188.851 173.416C189.416 173.416 189.981 173.491 190.547 173.64C191.123 173.779 191.672 173.971 192.195 174.216L191.411 176.184C190.984 175.981 190.552 175.805 190.115 175.656C189.688 175.507 189.267 175.432 188.851 175.432ZM205.006 176.264V185H202.782V180.712C202.782 180.285 202.787 179.869 202.798 179.464C202.819 179.059 202.846 178.685 202.878 178.344H202.83L200.414 185H198.622L196.174 178.328H196.11C196.153 178.68 196.179 179.059 196.19 179.464C196.211 179.859 196.222 180.296 196.222 180.776V185H193.998V176.264H197.374L199.55 182.184L201.758 176.264H205.006ZM211.098 176.104C211.909 176.104 212.602 176.259 213.178 176.568C213.765 176.877 214.218 177.325 214.538 177.912C214.858 178.499 215.018 179.219 215.018 180.072V181.224H209.386C209.407 181.896 209.605 182.424 209.978 182.808C210.362 183.192 210.89 183.384 211.562 183.384C212.127 183.384 212.639 183.331 213.098 183.224C213.557 183.107 214.031 182.931 214.522 182.696V184.536C214.095 184.749 213.642 184.904 213.162 185C212.693 185.107 212.122 185.16 211.45 185.16C210.575 185.16 209.802 185 209.13 184.68C208.458 184.349 207.93 183.853 207.546 183.192C207.162 182.531 206.97 181.699 206.97 180.696C206.97 179.672 207.141 178.824 207.482 178.152C207.834 177.469 208.319 176.957 208.938 176.616C209.557 176.275 210.277 176.104 211.098 176.104ZM211.114 177.8C210.655 177.8 210.271 177.949 209.962 178.248C209.663 178.547 209.487 179.011 209.434 179.64H212.778C212.778 179.288 212.714 178.973 212.586 178.696C212.469 178.419 212.287 178.2 212.042 178.04C211.797 177.88 211.487 177.8 211.114 177.8ZM224.183 178.056H221.319V185H218.935V178.056H216.071V176.264H224.183V178.056ZM229.379 176.088C230.552 176.088 231.448 176.344 232.067 176.856C232.696 177.357 233.011 178.131 233.011 179.176V185H231.347L230.883 183.816H230.819C230.574 184.125 230.318 184.381 230.051 184.584C229.795 184.787 229.496 184.931 229.155 185.016C228.824 185.112 228.414 185.16 227.923 185.16C227.411 185.16 226.947 185.064 226.531 184.872C226.126 184.669 225.806 184.365 225.571 183.96C225.336 183.544 225.219 183.021 225.219 182.392C225.219 181.464 225.544 180.781 226.195 180.344C226.846 179.896 227.822 179.651 229.123 179.608L230.643 179.56V179.176C230.643 178.717 230.52 178.381 230.275 178.168C230.04 177.955 229.71 177.848 229.283 177.848C228.856 177.848 228.44 177.912 228.035 178.04C227.63 178.157 227.224 178.307 226.819 178.488L226.035 176.872C226.504 176.627 227.022 176.435 227.587 176.296C228.163 176.157 228.76 176.088 229.379 176.088ZM229.715 180.984C228.947 181.005 228.414 181.144 228.115 181.4C227.816 181.656 227.667 181.992 227.667 182.408C227.667 182.771 227.774 183.032 227.987 183.192C228.2 183.341 228.478 183.416 228.819 183.416C229.331 183.416 229.763 183.267 230.115 182.968C230.467 182.659 230.643 182.227 230.643 181.672V180.952L229.715 180.984ZM242.791 176.104C243.421 176.104 244.007 176.189 244.551 176.36C245.106 176.52 245.549 176.771 245.879 177.112C246.221 177.453 246.391 177.891 246.391 178.424C246.391 178.947 246.231 179.363 245.911 179.672C245.602 179.981 245.181 180.205 244.647 180.344V180.424C245.021 180.509 245.357 180.632 245.655 180.792C245.954 180.941 246.189 181.149 246.359 181.416C246.541 181.672 246.631 182.019 246.631 182.456C246.631 182.936 246.477 183.384 246.167 183.8C245.869 184.205 245.399 184.536 244.759 184.792C244.13 185.037 243.319 185.16 242.327 185.16C241.858 185.16 241.415 185.139 240.999 185.096C240.583 185.053 240.205 184.995 239.863 184.92C239.522 184.835 239.223 184.733 238.967 184.616V182.648C239.33 182.819 239.773 182.973 240.295 183.112C240.829 183.251 241.394 183.32 241.991 183.32C242.429 183.32 242.818 183.288 243.159 183.224C243.511 183.16 243.789 183.053 243.991 182.904C244.205 182.755 244.311 182.557 244.311 182.312C244.311 182.077 244.221 181.885 244.039 181.736C243.858 181.576 243.586 181.459 243.223 181.384C242.861 181.309 242.397 181.272 241.831 181.272H240.903V179.624H241.783C242.573 179.624 243.181 179.56 243.607 179.432C244.045 179.304 244.263 179.064 244.263 178.712C244.263 178.435 244.125 178.227 243.847 178.088C243.57 177.939 243.117 177.864 242.487 177.864C242.071 177.864 241.618 177.912 241.127 178.008C240.637 178.104 240.173 178.243 239.735 178.424L239.031 176.76C239.533 176.568 240.082 176.413 240.679 176.296C241.277 176.168 241.981 176.104 242.791 176.104ZM252.066 176.088C253.24 176.088 254.136 176.344 254.754 176.856C255.384 177.357 255.698 178.131 255.698 179.176V185H254.034L253.57 183.816H253.506C253.261 184.125 253.005 184.381 252.738 184.584C252.482 184.787 252.184 184.931 251.842 185.016C251.512 185.112 251.101 185.16 250.61 185.16C250.098 185.16 249.634 185.064 249.218 184.872C248.813 184.669 248.493 184.365 248.258 183.96C248.024 183.544 247.906 183.021 247.906 182.392C247.906 181.464 248.232 180.781 248.882 180.344C249.533 179.896 250.509 179.651 251.81 179.608L253.33 179.56V179.176C253.33 178.717 253.208 178.381 252.962 178.168C252.728 177.955 252.397 177.848 251.97 177.848C251.544 177.848 251.128 177.912 250.722 178.04C250.317 178.157 249.912 178.307 249.506 178.488L248.722 176.872C249.192 176.627 249.709 176.435 250.274 176.296C250.85 176.157 251.448 176.088 252.066 176.088ZM252.402 180.984C251.634 181.005 251.101 181.144 250.802 181.4C250.504 181.656 250.354 181.992 250.354 182.408C250.354 182.771 250.461 183.032 250.674 183.192C250.888 183.341 251.165 183.416 251.506 183.416C252.018 183.416 252.45 183.267 252.802 182.968C253.154 182.659 253.33 182.227 253.33 181.672V180.952L252.402 180.984ZM271.719 185H268.951L266.295 180.68L263.639 185H261.047L264.839 179.112L261.287 173.576H263.959L266.423 177.688L268.839 173.576H271.447L267.863 179.24L271.719 185ZM288.131 176.264V185H285.907V180.712C285.907 180.285 285.912 179.869 285.923 179.464C285.944 179.059 285.971 178.685 286.003 178.344H285.955L283.539 185H281.747L279.299 178.328H279.235C279.278 178.68 279.304 179.059 279.315 179.464C279.336 179.859 279.347 180.296 279.347 180.776V185H277.123V176.264H280.499L282.675 182.184L284.883 176.264H288.131ZM292.927 179.72C292.927 179.901 292.916 180.125 292.895 180.392C292.884 180.659 292.868 180.931 292.847 181.208C292.836 181.485 292.82 181.731 292.799 181.944C292.778 182.157 292.762 182.307 292.751 182.392L296.783 176.264H299.647V185H297.343V181.512C297.343 181.224 297.354 180.909 297.375 180.568C297.396 180.216 297.418 179.891 297.439 179.592C297.471 179.283 297.492 179.048 297.503 178.888L293.487 185H290.623V176.264H292.927V179.72ZM304.523 176.264V179.624H307.851V176.264H310.235V185H307.851V181.4H304.523V185H302.139V176.264H304.523ZM311.484 176.264H314.092L315.74 181.176C315.794 181.336 315.836 181.496 315.868 181.656C315.911 181.816 315.943 181.981 315.964 182.152C315.996 182.323 316.018 182.504 316.028 182.696H316.076C316.108 182.419 316.151 182.157 316.204 181.912C316.268 181.656 316.338 181.411 316.412 181.176L318.028 176.264H320.588L316.892 186.12C316.668 186.717 316.375 187.219 316.012 187.624C315.66 188.029 315.25 188.333 314.78 188.536C314.311 188.739 313.799 188.84 313.244 188.84C312.978 188.84 312.743 188.824 312.54 188.792C312.348 188.771 312.178 188.744 312.028 188.712V186.824C312.146 186.845 312.284 186.867 312.444 186.888C312.615 186.909 312.791 186.92 312.972 186.92C313.303 186.92 313.586 186.851 313.82 186.712C314.066 186.573 314.268 186.381 314.428 186.136C314.588 185.901 314.716 185.645 314.812 185.368L314.956 184.936L311.484 176.264ZM329.074 178.056H326.21V185H323.826V178.056H320.962V176.264H329.074V178.056Z" fill="#252525"/>
<path d="M147.22 51.8539C147.571 51.2087 148.159 50.9314 148.529 51.1445L182.964 71.0053C183.37 71.2397 183.379 71.9379 183.06 72.5244C182.709 73.1695 182.121 73.4469 181.752 73.2338L147.316 53.373C146.878 53.1972 146.869 52.499 147.22 51.8539Z" fill="#252525"/>
<path d="M179.719 65.4503L181.285 71.5105L175.219 73.2445L178.442 75.1052L184.507 73.3712L182.942 67.3109L179.719 65.4503Z" fill="#252525"/>
<path d="M46.1254 16.7852H44.1892C43.6567 16.7852 43.2695 16.3513 43.2695 15.8691C43.2695 15.3388 43.7051 14.9531 44.1892 14.9531H46.1254C46.6579 14.9531 47.0451 15.387 47.0451 15.8691C47.0451 16.3513 46.6095 16.7852 46.1254 16.7852Z" fill="#F49300"/>
<path d="M46.1254 23.4845H44.1892C43.6567 23.4845 43.2695 23.0505 43.2695 22.5684C43.2695 22.038 43.7051 21.6523 44.1892 21.6523H46.1254C46.6579 21.6523 47.0451 22.0862 47.0451 22.5684C47.0451 23.0505 46.6095 23.4845 46.1254 23.4845Z" fill="#F49300"/>
<path d="M46.1254 30.1954H44.1892C43.6567 30.1954 43.2695 29.7616 43.2695 29.2794C43.2695 28.7973 43.7051 28.3633 44.1892 28.3633H46.1254C46.6579 28.3633 47.0451 28.7973 47.0451 29.2794C47.0451 29.7616 46.6095 30.1954 46.1254 30.1954Z" fill="#F49300"/>
<path d="M46.1254 36.8907H44.1892C43.6567 36.8907 43.2695 36.4568 43.2695 35.9746C43.2695 35.4443 43.7051 35.0586 44.1892 35.0586H46.1254C46.6579 35.0586 47.0451 35.4925 47.0451 35.9746C47.0451 36.4568 46.6095 36.8907 46.1254 36.8907Z" fill="#F49300"/>
<path d="M46.1254 43.5939H44.1892C43.6567 43.5939 43.2695 43.16 43.2695 42.6779C43.2695 42.1957 43.7051 41.7617 44.1892 41.7617H46.1254C46.6579 41.7617 47.0451 42.1957 47.0451 42.6779C47.0451 43.16 46.6095 43.5939 46.1254 43.5939Z" fill="#F49300"/>
<path d="M46.1254 50.2891H44.1892C43.6567 50.2891 43.2695 49.8552 43.2695 49.373C43.2695 48.8427 43.7051 48.457 44.1892 48.457H46.1254C46.6579 48.457 47.0451 48.8909 47.0451 49.373C47.0451 49.8552 46.6095 50.2891 46.1254 50.2891Z" fill="#F49300"/>
<path d="M46.1254 56.9962H44.1892C43.6567 56.9962 43.2695 56.5622 43.2695 56.0801C43.2695 55.5497 43.7051 55.1641 44.1892 55.1641H46.1254C46.6579 55.1641 47.0451 55.5979 47.0451 56.0801C47.0451 56.5622 46.6095 56.9962 46.1254 56.9962Z" fill="#F49300"/>
<path d="M48.0632 13.4102H44.1423C43.6099 13.4102 43.2227 12.9763 43.2227 12.4941C43.2227 11.9638 43.6583 11.5781 44.1423 11.5781H48.0632C48.5957 11.5781 48.9829 12.012 48.9829 12.4941C48.9829 13.0245 48.5957 13.4102 48.0632 13.4102Z" fill="#F49300"/>
<path d="M48.0632 20.1641H44.1423C43.6099 20.1641 43.2227 19.7302 43.2227 19.248C43.2227 18.7177 43.6583 18.332 44.1423 18.332H48.0632C48.5957 18.332 48.9829 18.7659 48.9829 19.248C48.9829 19.7302 48.5957 20.1641 48.0632 20.1641Z" fill="#F49300"/>
<path d="M48.0632 26.8634H44.1423C43.6099 26.8634 43.2227 26.4294 43.2227 25.9473C43.2227 25.4651 43.6583 25.0312 44.1423 25.0312H48.0632C48.5957 25.0312 48.9829 25.4651 48.9829 25.9473C48.9829 26.4294 48.5957 26.8634 48.0632 26.8634Z" fill="#F49300"/>
<path d="M48.0632 33.5626H44.1423C43.6099 33.5626 43.2227 33.1287 43.2227 32.6466C43.2227 32.1163 43.6583 31.7305 44.1423 31.7305H48.0632C48.5957 31.7305 48.9829 32.1645 48.9829 32.6466C48.9829 33.1287 48.5957 33.5626 48.0632 33.5626Z" fill="#F49300"/>
<path d="M48.0632 40.2618H44.1423C43.6099 40.2618 43.2227 39.8278 43.2227 39.3457C43.2227 38.8154 43.6583 38.4297 44.1423 38.4297H48.0632C48.5957 38.4297 48.9829 38.8636 48.9829 39.3457C48.9829 39.8278 48.5957 40.2618 48.0632 40.2618Z" fill="#F49300"/>
<path d="M48.0632 46.9689H44.1423C43.6099 46.9689 43.2227 46.535 43.2227 46.0529C43.2227 45.5225 43.6583 45.1367 44.1423 45.1367H48.0632C48.5957 45.1367 48.9829 45.5707 48.9829 46.0529C48.9829 46.535 48.5957 46.9689 48.0632 46.9689Z" fill="#F49300"/>
<path d="M48.0632 53.6719H44.1423C43.6099 53.6719 43.2227 53.238 43.2227 52.7559C43.2227 52.2255 43.6583 51.8398 44.1423 51.8398H48.0632C48.5957 51.8398 48.9829 52.2737 48.9829 52.7559C48.9829 53.238 48.5957 53.6719 48.0632 53.6719Z" fill="#F49300"/>
<path d="M48.0632 60.3712H44.1423C43.6099 60.3712 43.2227 59.9372 43.2227 59.4551C43.2227 58.9247 43.6583 58.5391 44.1423 58.5391H48.0632C48.5957 58.5391 48.9829 58.9729 48.9829 59.4551C48.9829 59.9372 48.5957 60.3712 48.0632 60.3712Z" fill="#F49300"/>
<path d="M89.2547 65H44.1892C43.6567 65 43.2695 64.5661 43.2695 64.084V0.923729C43.2695 0.538017 43.5115 0.152282 43.8987 0.0558542C44.286 -0.0887876 44.7217 0.0558307 44.9637 0.393328L90.0293 63.5536C90.2229 63.8429 90.2711 64.2286 90.0775 64.5179C89.9323 64.8071 89.5936 65 89.2547 65ZM45.1088 63.1197H87.4152L45.1088 3.81656V63.1197ZM72.5548 57.093H53.7252C53.1927 57.093 52.8053 56.6591 52.8053 56.1769V29.7557C52.8053 29.37 53.0474 28.9842 53.4347 28.8878C53.8219 28.7432 54.2574 28.8878 54.4995 29.2253L73.3294 55.6465C73.523 55.9358 73.5712 56.3215 73.3776 56.6108C73.184 56.9001 72.8937 57.093 72.5548 57.093ZM54.5964 55.2127H70.7153L54.5964 32.6485V55.2127Z" fill="#252525"/>
<path d="M89.1113 38.9691C80.9792 38.9691 74.3477 32.3638 74.3477 24.2638C74.3477 16.1639 80.9792 9.55859 89.1113 9.55859C97.2434 9.55859 103.875 16.1639 103.875 24.2638C103.875 32.3638 97.2434 38.9691 89.1113 38.9691ZM89.1113 11.439C81.9957 11.439 76.2357 17.1764 76.2357 24.2638C76.2357 31.3513 81.9957 37.0888 89.1113 37.0888C96.2269 37.0888 101.987 31.3513 101.987 24.2638C101.987 17.1764 96.2269 11.439 89.1113 11.439Z" fill="#F49300"/>
<path d="M89.1579 48.8964C88.6255 48.8964 88.2383 48.4625 88.2383 47.9804V3.04492C88.2383 2.51457 88.6739 2.12891 89.1579 2.12891C89.6904 2.12891 90.0776 2.56278 90.0776 3.04492V47.9804C90.126 48.5108 89.6904 48.8964 89.1579 48.8964Z" fill="#252525"/>
<path d="M86.0117 6.75719L89.1581 3.57503L92.3529 6.75719V4.05717L89.1581 0.875L86.0117 4.05717V6.75719Z" fill="#252525"/>
<path d="M105.858 25.3673H67.6658C67.1333 25.3673 66.7461 24.9334 66.7461 24.4513C66.7461 23.9209 67.1817 23.5352 67.6658 23.5352H105.858C106.39 23.5352 106.777 23.9692 106.777 24.4513C106.777 24.9334 106.39 25.3673 105.858 25.3673Z" fill="#252525"/>
<path d="M71.4424 27.5817L68.2479 24.4478L71.4424 21.2656H68.7319L65.5371 24.4478L68.7319 27.5817H71.4424Z" fill="#252525"/>
<path d="M8.56231 80.576C9.57565 80.576 10.4236 80.672 11.1063 80.864C11.7996 81.0453 12.317 81.3493 12.6583 81.776C13.0103 82.192 13.1863 82.7573 13.1863 83.472C13.1863 83.8987 13.117 84.288 12.9783 84.64C12.8396 84.992 12.637 85.28 12.3703 85.504C12.1143 85.728 11.7996 85.872 11.4263 85.936V86.016C11.8103 86.0907 12.157 86.224 12.4663 86.416C12.7756 86.608 13.021 86.8853 13.2023 87.248C13.3836 87.6107 13.4743 88.0907 13.4743 88.688C13.4743 89.3813 13.3036 89.9787 12.9623 90.48C12.6316 90.9707 12.1516 91.3493 11.5223 91.616C10.893 91.872 10.1463 92 9.28231 92H5.01031V80.576H8.56231ZM8.83431 85.104C9.53831 85.104 10.0236 84.992 10.2903 84.768C10.5676 84.544 10.7063 84.2187 10.7063 83.792C10.7063 83.3547 10.5463 83.04 10.2263 82.848C9.90631 82.656 9.39965 82.56 8.70631 82.56H7.42631V85.104H8.83431ZM7.42631 87.024V90H9.01031C9.73565 90 10.2423 89.8613 10.5303 89.584C10.8183 89.296 10.9623 88.9173 10.9623 88.448C10.9623 88.16 10.8983 87.9093 10.7703 87.696C10.653 87.4827 10.445 87.3173 10.1463 87.2C9.84765 87.0827 9.44231 87.024 8.93031 87.024H7.42631ZM15.5683 92V83.264H17.9523V86.64H19.1043C20.0003 86.64 20.7363 86.736 21.3123 86.928C21.8883 87.1093 22.315 87.392 22.5923 87.776C22.8803 88.16 23.0243 88.64 23.0243 89.216C23.0243 89.7813 22.891 90.272 22.6243 90.688C22.3683 91.104 21.9576 91.4293 21.3923 91.664C20.8376 91.888 20.1016 92 19.1843 92H15.5683ZM19.0563 90.352C19.5256 90.352 19.9043 90.2667 20.1923 90.096C20.491 89.9253 20.6403 89.6427 20.6403 89.248C20.6403 88.9067 20.5016 88.6613 20.2243 88.512C19.9576 88.3627 19.5576 88.288 19.0243 88.288H17.9523V90.352H19.0563ZM24.2883 92V83.264H26.6723V92H24.2883ZM32.7621 83.104C33.5727 83.104 34.2661 83.2587 34.8421 83.568C35.4287 83.8773 35.8821 84.3253 36.2021 84.912C36.5221 85.4987 36.6821 86.2187 36.6821 87.072V88.224H31.0501C31.0714 88.896 31.2687 89.424 31.6421 89.808C32.0261 90.192 32.5541 90.384 33.2261 90.384C33.7914 90.384 34.3034 90.3307 34.7621 90.224C35.2207 90.1067 35.6954 89.9307 36.1861 89.696V91.536C35.7594 91.7493 35.3061 91.904 34.8261 92C34.3567 92.1067 33.7861 92.16 33.1141 92.16C32.2394 92.16 31.4661 92 30.7941 91.68C30.1221 91.3493 29.5941 90.8533 29.2101 90.192C28.8261 89.5307 28.6341 88.6987 28.6341 87.696C28.6341 86.672 28.8047 85.824 29.1461 85.152C29.4981 84.4693 29.9834 83.9573 30.6021 83.616C31.2207 83.2747 31.9407 83.104 32.7621 83.104ZM32.7781 84.8C32.3194 84.8 31.9354 84.9493 31.6261 85.248C31.3274 85.5467 31.1514 86.0107 31.0981 86.64H34.4421C34.4421 86.288 34.3781 85.9733 34.2501 85.696C34.1327 85.4187 33.9514 85.2 33.7061 85.04C33.4607 84.88 33.1514 84.8 32.7781 84.8ZM41.7992 83.104C42.4285 83.104 43.0152 83.1893 43.5592 83.36C44.1139 83.52 44.5565 83.7707 44.8872 84.112C45.2285 84.4533 45.3992 84.8907 45.3992 85.424C45.3992 85.9467 45.2392 86.3627 44.9192 86.672C44.6099 86.9813 44.1885 87.2053 43.6552 87.344V87.424C44.0285 87.5093 44.3645 87.632 44.6632 87.792C44.9619 87.9413 45.1965 88.1493 45.3672 88.416C45.5485 88.672 45.6392 89.0187 45.6392 89.456C45.6392 89.936 45.4845 90.384 45.1752 90.8C44.8765 91.2053 44.4072 91.536 43.7672 91.792C43.1379 92.0373 42.3272 92.16 41.3352 92.16C40.8659 92.16 40.4232 92.1387 40.0072 92.096C39.5912 92.0533 39.2125 91.9947 38.8712 91.92C38.5299 91.8347 38.2312 91.7333 37.9752 91.616V89.648C38.3379 89.8187 38.7805 89.9733 39.3032 90.112C39.8365 90.2507 40.4019 90.32 40.9992 90.32C41.4365 90.32 41.8259 90.288 42.1672 90.224C42.5192 90.16 42.7965 90.0533 42.9992 89.904C43.2125 89.7547 43.3192 89.5573 43.3192 89.312C43.3192 89.0773 43.2285 88.8853 43.0472 88.736C42.8659 88.576 42.5939 88.4587 42.2312 88.384C41.8685 88.3093 41.4045 88.272 40.8392 88.272H39.9112V86.624H40.7912C41.5805 86.624 42.1885 86.56 42.6152 86.432C43.0525 86.304 43.2712 86.064 43.2712 85.712C43.2712 85.4347 43.1325 85.2267 42.8552 85.088C42.5779 84.9387 42.1245 84.864 41.4952 84.864C41.0792 84.864 40.6259 84.912 40.1352 85.008C39.6445 85.104 39.1805 85.2427 38.7432 85.424L38.0392 83.76C38.5405 83.568 39.0899 83.4133 39.6872 83.296C40.2845 83.168 40.9885 83.104 41.7992 83.104ZM55.3462 83.264V90.256H56.6262V95.136H54.4822V92H48.6102V95.136H46.4662V90.256H47.2022C47.5862 89.6693 47.9115 89.0027 48.1782 88.256C48.4449 87.4987 48.6582 86.6933 48.8182 85.84C48.9782 84.9867 49.0955 84.128 49.1702 83.264H55.3462ZM51.1702 85.056C51.0849 85.696 50.9782 86.32 50.8502 86.928C50.7222 87.5253 50.5622 88.1013 50.3702 88.656C50.1889 89.2107 49.9649 89.744 49.6982 90.256H52.9622V85.056H51.1702ZM69.5034 85.056H66.6394V92H64.2554V85.056H61.3914V83.264H69.5034V85.056ZM74.5589 83.104C75.3696 83.104 76.0629 83.2587 76.6389 83.568C77.2256 83.8773 77.6789 84.3253 77.9989 84.912C78.3189 85.4987 78.4789 86.2187 78.4789 87.072V88.224H72.8469C72.8683 88.896 73.0656 89.424 73.4389 89.808C73.8229 90.192 74.3509 90.384 75.0229 90.384C75.5883 90.384 76.1003 90.3307 76.5589 90.224C77.0176 90.1067 77.4923 89.9307 77.9829 89.696V91.536C77.5563 91.7493 77.1029 91.904 76.6229 92C76.1536 92.1067 75.5829 92.16 74.9109 92.16C74.0363 92.16 73.2629 92 72.5909 91.68C71.9189 91.3493 71.3909 90.8533 71.0069 90.192C70.6229 89.5307 70.4309 88.6987 70.4309 87.696C70.4309 86.672 70.6016 85.824 70.9429 85.152C71.2949 84.4693 71.7803 83.9573 72.3989 83.616C73.0176 83.2747 73.7376 83.104 74.5589 83.104ZM74.5749 84.8C74.1163 84.8 73.7323 84.9493 73.4229 85.248C73.1243 85.5467 72.9483 86.0107 72.8949 86.64H76.2389C76.2389 86.288 76.1749 85.9733 76.0469 85.696C75.9296 85.4187 75.7483 85.2 75.5029 85.04C75.2576 84.88 74.9483 84.8 74.5749 84.8ZM82.2041 87.536L79.3881 83.264H82.0921L83.7881 86.048L85.5001 83.264H88.2041L85.3561 87.536L88.3321 92H85.6281L83.7881 89.008L81.9481 92H79.2441L82.2041 87.536ZM92.0461 83.264V86.624H95.3741V83.264H97.7581V92H95.3741V88.4H92.0461V92H89.6621V83.264H92.0461ZM108.192 87.616C108.192 88.3413 108.09 88.9867 107.888 89.552C107.696 90.1173 107.413 90.5973 107.04 90.992C106.677 91.376 106.234 91.6693 105.712 91.872C105.189 92.064 104.597 92.16 103.936 92.16C103.328 92.16 102.762 92.064 102.24 91.872C101.728 91.6693 101.285 91.376 100.912 90.992C100.538 90.5973 100.245 90.1173 100.032 89.552C99.8291 88.9867 99.7278 88.3413 99.7278 87.616C99.7278 86.6453 99.8985 85.8293 100.24 85.168C100.581 84.496 101.072 83.984 101.712 83.632C102.352 83.28 103.109 83.104 103.984 83.104C104.805 83.104 105.53 83.28 106.16 83.632C106.789 83.984 107.285 84.496 107.648 85.168C108.01 85.8293 108.192 86.6453 108.192 87.616ZM102.16 87.616C102.16 88.192 102.218 88.6773 102.336 89.072C102.464 89.456 102.661 89.7493 102.928 89.952C103.194 90.144 103.541 90.24 103.968 90.24C104.394 90.24 104.736 90.144 104.992 89.952C105.258 89.7493 105.45 89.456 105.568 89.072C105.696 88.6773 105.76 88.192 105.76 87.616C105.76 87.04 105.696 86.56 105.568 86.176C105.45 85.792 105.258 85.504 104.992 85.312C104.725 85.12 104.378 85.024 103.952 85.024C103.322 85.024 102.864 85.2427 102.576 85.68C102.298 86.1067 102.16 86.752 102.16 87.616ZM117.986 92H115.602V85.056H113.41C113.303 86.336 113.17 87.4293 113.01 88.336C112.861 89.232 112.669 89.9627 112.434 90.528C112.21 91.0933 111.922 91.5093 111.57 91.776C111.218 92.032 110.786 92.16 110.274 92.16C109.997 92.16 109.746 92.1387 109.522 92.096C109.298 92.0533 109.095 91.9893 108.914 91.904V90C109.031 90.0427 109.154 90.08 109.282 90.112C109.41 90.144 109.543 90.16 109.682 90.16C109.831 90.16 109.97 90.1013 110.098 89.984C110.237 89.8667 110.365 89.6587 110.482 89.36C110.61 89.0613 110.727 88.6507 110.834 88.128C110.941 87.6053 111.037 86.9493 111.122 86.16C111.218 85.36 111.303 84.3947 111.378 83.264H117.986V92ZM128.411 87.616C128.411 88.3413 128.309 88.9867 128.107 89.552C127.915 90.1173 127.632 90.5973 127.259 90.992C126.896 91.376 126.453 91.6693 125.931 91.872C125.408 92.064 124.816 92.16 124.155 92.16C123.547 92.16 122.981 92.064 122.459 91.872C121.947 91.6693 121.504 91.376 121.131 90.992C120.757 90.5973 120.464 90.1173 120.251 89.552C120.048 88.9867 119.947 88.3413 119.947 87.616C119.947 86.6453 120.117 85.8293 120.459 85.168C120.8 84.496 121.291 83.984 121.931 83.632C122.571 83.28 123.328 83.104 124.203 83.104C125.024 83.104 125.749 83.28 126.379 83.632C127.008 83.984 127.504 84.496 127.867 85.168C128.229 85.8293 128.411 86.6453 128.411 87.616ZM122.379 87.616C122.379 88.192 122.437 88.6773 122.555 89.072C122.683 89.456 122.88 89.7493 123.147 89.952C123.413 90.144 123.76 90.24 124.187 90.24C124.613 90.24 124.955 90.144 125.211 89.952C125.477 89.7493 125.669 89.456 125.787 89.072C125.915 88.6773 125.979 88.192 125.979 87.616C125.979 87.04 125.915 86.56 125.787 86.176C125.669 85.792 125.477 85.504 125.211 85.312C124.944 85.12 124.597 85.024 124.171 85.024C123.541 85.024 123.083 85.2427 122.795 85.68C122.517 86.1067 122.379 86.752 122.379 87.616ZM136.413 83.264V85.056H132.765V92H130.381V83.264H136.413ZM141.605 83.088C142.779 83.088 143.675 83.344 144.293 83.856C144.923 84.3573 145.237 85.1307 145.237 86.176V92H143.573L143.109 90.816H143.045C142.8 91.1253 142.544 91.3813 142.277 91.584C142.021 91.7867 141.723 91.9307 141.381 92.016C141.051 92.112 140.64 92.16 140.149 92.16C139.637 92.16 139.173 92.064 138.757 91.872C138.352 91.6693 138.032 91.3653 137.797 90.96C137.563 90.544 137.445 90.0213 137.445 89.392C137.445 88.464 137.771 87.7813 138.421 87.344C139.072 86.896 140.048 86.6507 141.349 86.608L142.869 86.56V86.176C142.869 85.7173 142.747 85.3813 142.501 85.168C142.267 84.9547 141.936 84.848 141.509 84.848C141.083 84.848 140.667 84.912 140.261 85.04C139.856 85.1573 139.451 85.3067 139.045 85.488L138.261 83.872C138.731 83.6267 139.248 83.4347 139.813 83.296C140.389 83.1573 140.987 83.088 141.605 83.088ZM141.941 87.984C141.173 88.0053 140.64 88.144 140.341 88.4C140.043 88.656 139.893 88.992 139.893 89.408C139.893 89.7707 140 90.032 140.213 90.192C140.427 90.3413 140.704 90.416 141.045 90.416C141.557 90.416 141.989 90.2667 142.341 89.968C142.693 89.6587 142.869 89.2267 142.869 88.672V87.952L141.941 87.984Z" fill="#252525"/>
<defs>
<clipPath id="clip0_2106_5586">
<rect width="68" height="65" fill="white" transform="translate(222.5 277)"/>
</clipPath>
</defs>
</svg>
