<svg width="95" height="90" viewBox="0 0 95 90" fill="none" xmlns="http://www.w3.org/2000/svg">
<g clip-path="url(#clip0_1939_5705)">
<path d="M0 11.1992V89.9992H1.4H1.9H53.3V71.5992H18.4V11.1992H0Z" fill="#252525"/>
<path d="M9.2 13.8008H2.5V79.0008H9.2V13.8008Z" fill="#F49300"/>
<path d="M15.9 13.8008V72.3008L2.5 85.7008V77.3008H7.6V74.8008H2.5V70.9008H7.6V68.4008H2.5V64.6008H7.6V62.1008H2.5V58.2008H7.6V55.7008H2.5V51.9008H7.6V49.4008H2.5V45.5008H7.6V43.0008H2.5V39.2008H7.6V36.7008H2.5V32.8008H7.6V30.3008H2.5V26.5008H7.6V24.0008H2.5V20.1008H7.6V17.6008H2.5V13.8008H15.9Z" fill="#EDEDED"/>
<path d="M50.8008 87.4977H4.30078L17.7008 74.0977H50.8008V87.4977Z" fill="#EDEDED"/>
<path d="M93.4008 9.8L91.3008 8.3C84.8008 3.7 72.6008 0 64.0008 0H56.9008V3.4H52.2008V1.3H40.3008L40.4008 16.7H52.3008V15.1H57.0008V19.3H60.1008V24.2V26.7V31.7L60.2008 56.5L60.3008 84.4C60.3008 87.6 62.9008 90.1 66.0008 90.1H66.2008C69.4008 90.1 71.9008 87.5 71.9008 84.4L71.8008 56.5L71.7008 39.8H69.2008L69.3008 45.3L69.4008 84.4C69.4008 86.2 68.0008 87.6 66.2008 87.7H66.0008C64.2008 87.7 62.8008 86.3 62.7008 84.5L62.6008 45.3L62.5008 19.3H69.2008L69.3008 35.9V37.2H71.8008V35.9V31.6V26.6V24.1V19.2H74.4008V11.4C77.2008 11.1 85.1008 10.7 92.1008 12.8C92.9008 13 93.7008 12.7 94.1008 11.9C94.3008 11.1 94.1008 10.2 93.4008 9.8ZM42.9008 14.2V3.8H49.8008V14.2H42.9008ZM52.3008 12.6V6H57.0008V12.6H52.3008ZM72.8008 9L71.7008 9.1V16.6H71.6008L59.3008 16.8V6.2V3.4V2.5H63.9008C71.3008 2.5 82.1008 5.5 88.4008 9.4C80.6008 8 73.2008 8.9 72.8008 9Z" fill="#252525"/>
<path d="M67.1992 68.3008H64.6992V82.0008H67.1992V68.3008Z" fill="#F49300"/>
<path d="M67.1992 61.1016H64.6992V65.8016H67.1992V61.1016Z" fill="#F49300"/>
<path d="M63.3004 16.8H60.9004V2.5H63.3004V16.8Z" fill="#F49300"/>
<path d="M69.2 23.3984H62.5V20.8984H69.2V23.3984Z" fill="#F49300"/>
<path d="M69.2996 36.7984H62.5996V34.3984H69.2996V36.7984Z" fill="#F49300"/>
<path d="M69.3992 59.3984H62.6992V56.8984H69.3992V59.3984Z" fill="#F49300"/>
</g>
<defs>
<clipPath id="clip0_1939_5705">
<rect width="95" height="90" fill="white"/>
</clipPath>
</defs>
</svg>
