<svg width="40" height="29" viewBox="0 0 40 29" fill="none" xmlns="http://www.w3.org/2000/svg">
<path d="M36.6443 3.50671H36.4933V3.25503C36.4933 2.39464 36.1527 1.56925 35.5459 0.959289C34.939 0.349332 34.1154 0.004435 33.255 0L3.25503 0C2.39175 0 1.56381 0.34294 0.953377 0.953377C0.34294 1.56381 0 2.39175 0 3.25503L0 21.5772C0 22.0046 0.0841939 22.4279 0.247775 22.8228C0.411355 23.2177 0.65112 23.5766 0.953377 23.8788C1.25564 24.1811 1.61447 24.4209 2.00939 24.5844C2.40431 24.748 2.82758 24.8322 3.25503 24.8322H3.50671V24.9832C3.50671 25.8732 3.86026 26.7267 4.48957 27.3561C5.11889 27.9854 5.97243 28.3389 6.86242 28.3389H36.6443C37.5343 28.3389 38.3878 27.9854 39.0171 27.3561C39.6465 26.7267 40 25.8732 40 24.9832V6.86242C40 5.97243 39.6465 5.11889 39.0171 4.48957C38.3878 3.86026 37.5343 3.50671 36.6443 3.50671ZM1.67785 5.83893H34.8322V9.2953H1.67785V5.83893ZM3.25503 1.67785H33.255C33.6733 1.67785 34.0745 1.84402 34.3703 2.1398C34.666 2.43558 34.8322 2.83674 34.8322 3.25503V4.16107H1.67785V3.25503C1.67785 2.83674 1.84402 2.43558 2.1398 2.1398C2.43558 1.84402 2.83674 1.67785 3.25503 1.67785ZM1.67785 21.5772V10.9732H34.8322V21.5772C34.8322 21.9955 34.666 22.3966 34.3703 22.6924C34.0745 22.9882 33.6733 23.1544 33.255 23.1544H3.25503C2.83674 23.1544 2.43558 22.9882 2.1398 22.6924C1.84402 22.3966 1.67785 21.9955 1.67785 21.5772ZM38.3221 24.9329C38.3221 25.3779 38.1454 25.8046 37.8307 26.1193C37.5161 26.434 37.0893 26.6107 36.6443 26.6107H6.86242C6.41742 26.6107 5.99065 26.434 5.676 26.1193C5.36134 25.8046 5.18456 25.3779 5.18456 24.9329V24.8322H33.255C33.6825 24.8322 34.1058 24.748 34.5007 24.5844C34.8956 24.4209 35.2544 24.1811 35.5567 23.8788C35.8589 23.5766 36.0987 23.2177 36.2623 22.8228C36.4259 22.4279 36.5101 22.0046 36.5101 21.5772V5.18456H36.6611C37.1061 5.18456 37.5328 5.36134 37.8475 5.676C38.1622 5.99065 38.3389 6.41742 38.3389 6.86242L38.3221 24.9329Z" fill="#FAAA17"/>
<path d="M25.3524 21.0067C25.7586 21.0166 26.1626 20.9445 26.5403 20.7946C26.918 20.6446 27.2615 20.4201 27.5503 20.1342C27.9673 20.5776 28.5078 20.8854 29.1018 21.0178C29.6958 21.1503 30.3159 21.1012 30.8816 20.8769C31.4474 20.6527 31.9327 20.2637 32.2747 19.7602C32.6167 19.2568 32.7995 18.6623 32.7995 18.0537C32.7995 17.4451 32.6167 16.8506 32.2747 16.3472C31.9327 15.8438 31.4474 15.4547 30.8816 15.2305C30.3159 15.0062 29.6958 14.9571 29.1018 15.0896C28.5078 15.222 27.9673 15.5298 27.5503 15.9732C27.2129 15.5961 26.7862 15.3098 26.3094 15.1407C25.8325 14.9715 25.3208 14.9249 24.8212 15.0051C24.3216 15.0852 23.8501 15.2896 23.4501 15.5995C23.0501 15.9094 22.7344 16.3148 22.5319 16.7785C22.3294 17.2422 22.2467 17.7493 22.2913 18.2533C22.3359 18.7573 22.5064 19.2421 22.7872 19.663C23.068 20.0839 23.45 20.4275 23.8982 20.6623C24.3464 20.8971 24.8464 21.0156 25.3524 21.0067ZM29.7315 16.6275C30.0003 16.6275 30.2631 16.7072 30.4866 16.8566C30.7101 17.0059 30.8843 17.2182 30.9872 17.4665C31.09 17.7148 31.1169 17.9881 31.0645 18.2517C31.0121 18.5154 30.8826 18.7575 30.6926 18.9476C30.5025 19.1377 30.2603 19.2671 29.9967 19.3195C29.7331 19.372 29.4598 19.3451 29.2115 19.2422C28.9631 19.1393 28.7509 18.9651 28.6015 18.7416C28.4522 18.5182 28.3725 18.2554 28.3725 17.9866C28.3725 17.6261 28.5157 17.2805 28.7705 17.0256C29.0254 16.7707 29.3711 16.6275 29.7315 16.6275ZM25.3524 16.6275C25.6212 16.6275 25.8839 16.7072 26.1074 16.8566C26.3309 17.0059 26.5051 17.2182 26.608 17.4665C26.7108 17.7148 26.7377 17.9881 26.6853 18.2517C26.6329 18.5154 26.5034 18.7575 26.3134 18.9476C26.1233 19.1377 25.8811 19.2671 25.6175 19.3195C25.3539 19.372 25.0806 19.3451 24.8323 19.2422C24.5839 19.1393 24.3717 18.9651 24.2223 18.7416C24.073 18.5182 23.9933 18.2554 23.9933 17.9866C23.9933 17.6261 24.1365 17.2805 24.3914 17.0256C24.6462 16.7707 24.9919 16.6275 25.3524 16.6275Z" fill="#FAAA17"/>
</svg>
