<svg width="30" height="38" viewBox="0 0 30 38" fill="none" xmlns="http://www.w3.org/2000/svg">
<path d="M28.992 0H0.8C0.587827 0 0.384344 0.0842855 0.234315 0.234315C0.0842855 0.384344 0 0.587827 0 0.8L0 37.2C0 37.4122 0.0842855 37.6157 0.234315 37.7657C0.384344 37.9157 0.587827 38 0.8 38H28.992C29.2042 38 29.4077 37.9157 29.5577 37.7657C29.7077 37.6157 29.792 37.4122 29.792 37.2V0.8C29.792 0.587827 29.7077 0.384344 29.5577 0.234315C29.4077 0.0842855 29.2042 0 28.992 0V0ZM28.192 36.4H1.6V1.6H28.192V36.4Z" fill="#FAAA17"/>
<path d="M6.49604 11.28H23.296C23.5082 11.28 23.7117 11.1957 23.8617 11.0457C24.0118 10.8957 24.096 10.6922 24.096 10.48V5.88801C24.096 5.67584 24.0118 5.47236 23.8617 5.32233C23.7117 5.1723 23.5082 5.08801 23.296 5.08801H6.49604C6.28387 5.08801 6.08039 5.1723 5.93036 5.32233C5.78033 5.47236 5.69604 5.67584 5.69604 5.88801V10.48C5.69604 10.6922 5.78033 10.8957 5.93036 11.0457C6.08039 11.1957 6.28387 11.28 6.49604 11.28ZM7.29604 6.68801H22.496V9.68001H7.29604V6.68801Z" fill="#FAAA17"/>
<path d="M7.5521 18.336C8.26786 18.336 8.8481 17.7558 8.8481 17.04C8.8481 16.3243 8.26786 15.744 7.5521 15.744C6.83634 15.744 6.2561 16.3243 6.2561 17.04C6.2561 17.7558 6.83634 18.336 7.5521 18.336Z" fill="#FAAA17"/>
<path d="M12.4479 18.336C13.1636 18.336 13.7439 17.7558 13.7439 17.04C13.7439 16.3243 13.1636 15.744 12.4479 15.744C11.7321 15.744 11.1519 16.3243 11.1519 17.04C11.1519 17.7558 11.7321 18.336 12.4479 18.336Z" fill="#FAAA17"/>
<path d="M17.3441 18.336C18.0599 18.336 18.6401 17.7558 18.6401 17.04C18.6401 16.3243 18.0599 15.744 17.3441 15.744C16.6283 15.744 16.0481 16.3243 16.0481 17.04C16.0481 17.7558 16.6283 18.336 17.3441 18.336Z" fill="#FAAA17"/>
<path d="M22.256 18.336C22.9717 18.336 23.552 17.7558 23.552 17.04C23.552 16.3243 22.9717 15.744 22.256 15.744C21.5402 15.744 20.96 16.3243 20.96 17.04C20.96 17.7558 21.5402 18.336 22.256 18.336Z" fill="#FAAA17"/>
<path d="M7.55199 24.432C8.27659 24.432 8.86399 23.8446 8.86399 23.12C8.86399 22.3954 8.27659 21.808 7.55199 21.808C6.82739 21.808 6.23999 22.3954 6.23999 23.12C6.23999 23.8446 6.82739 24.432 7.55199 24.432Z" fill="#FAAA17"/>
<path d="M12.448 24.432C13.1726 24.432 13.76 23.8446 13.76 23.12C13.76 22.3954 13.1726 21.808 12.448 21.808C11.7234 21.808 11.136 22.3954 11.136 23.12C11.136 23.8446 11.7234 24.432 12.448 24.432Z" fill="#FAAA17"/>
<path d="M17.344 24.432C18.0686 24.432 18.656 23.8446 18.656 23.12C18.656 22.3954 18.0686 21.808 17.344 21.808C16.6194 21.808 16.032 22.3954 16.032 23.12C16.032 23.8446 16.6194 24.432 17.344 24.432Z" fill="#FAAA17"/>
<path d="M22.2561 24.432C22.9807 24.432 23.5681 23.8446 23.5681 23.12C23.5681 22.3954 22.9807 21.808 22.2561 21.808C21.5315 21.808 20.9441 22.3954 20.9441 23.12C20.9441 23.8446 21.5315 24.432 22.2561 24.432Z" fill="#FAAA17"/>
<path d="M7.55199 30.5119C8.27659 30.5119 8.86399 29.9245 8.86399 29.1999C8.86399 28.4753 8.27659 27.8879 7.55199 27.8879C6.82739 27.8879 6.23999 28.4753 6.23999 29.1999C6.23999 29.9245 6.82739 30.5119 7.55199 30.5119Z" fill="#FAAA17"/>
<path d="M12.448 30.5119C13.1726 30.5119 13.76 29.9245 13.76 29.1999C13.76 28.4753 13.1726 27.8879 12.448 27.8879C11.7234 27.8879 11.136 28.4753 11.136 29.1999C11.136 29.9245 11.7234 30.5119 12.448 30.5119Z" fill="#FAAA17"/>
<path d="M17.344 30.5119C18.0686 30.5119 18.656 29.9245 18.656 29.1999C18.656 28.4753 18.0686 27.8879 17.344 27.8879C16.6194 27.8879 16.032 28.4753 16.032 29.1999C16.032 29.9245 16.6194 30.5119 17.344 30.5119Z" fill="#FAAA17"/>
<path d="M22.2561 30.5119C22.9807 30.5119 23.5681 29.9245 23.5681 29.1999C23.5681 28.4753 22.9807 27.8879 22.2561 27.8879C21.5315 27.8879 20.9441 28.4753 20.9441 29.1999C20.9441 29.9245 21.5315 30.5119 22.2561 30.5119Z" fill="#FAAA17"/>
</svg>
