<svg width="40" height="38" viewBox="0 0 40 38" fill="none" xmlns="http://www.w3.org/2000/svg">
<path d="M38.8225 32.6794H37.3287V29.8764C37.3287 29.6316 37.2314 29.3968 37.0583 29.2237C36.8852 29.0506 36.6503 28.9533 36.4055 28.9533H34.4921V11.7493H38.8393C39.025 11.7465 39.2046 11.6822 39.3498 11.5665C39.4951 11.4507 39.5979 11.29 39.642 11.1096C39.6862 10.9291 39.6692 10.7392 39.5938 10.5694C39.5184 10.3996 39.3888 10.2597 39.2253 10.1715L20.2253 0.100849C20.1039 0.0361955 19.9684 0.00238037 19.8309 0.00238037C19.6933 0.00238037 19.5579 0.0361955 19.4364 0.100849L0.453227 10.1883C0.297718 10.2801 0.175965 10.4196 0.10605 10.5861C0.0361359 10.7526 0.0217899 10.9372 0.0651431 11.1125C0.108496 11.2878 0.207236 11.4444 0.346697 11.5591C0.486158 11.6739 0.658902 11.7405 0.83927 11.7493H5.18644V28.9533H3.25623C3.0114 28.9533 2.77659 29.0506 2.60347 29.2237C2.43035 29.3968 2.33309 29.6316 2.33309 29.8764V32.6794H0.83927C0.724693 32.6792 0.611288 32.7025 0.506042 32.7478C0.400795 32.7931 0.305937 32.8594 0.227313 32.9428C0.148688 33.0261 0.0879615 33.1247 0.0488757 33.2324C0.00978994 33.3401 -0.00682753 33.4547 4.72597e-05 33.569V37.2113C4.72597e-05 37.4338 0.0884651 37.6473 0.24585 37.8047C0.403235 37.9621 0.616694 38.0505 0.83927 38.0505H38.8225C39.0451 38.0505 39.2585 37.9621 39.4159 37.8047C39.5733 37.6473 39.6617 37.4338 39.6617 37.2113V33.569C39.6686 33.4547 39.652 33.3401 39.6129 33.2324C39.5738 33.1247 39.5131 33.0261 39.4344 32.9428C39.3558 32.8594 39.2609 32.7931 39.1557 32.7478C39.0505 32.7025 38.937 32.6792 38.8225 32.6794ZM32.7969 28.9701H31.4709V11.7493H32.7969V28.9701ZM13.1926 11.7493V28.9533H9.83573V11.7493H13.1926ZM14.8711 11.7493H16.197V28.9533H14.8711V11.7493ZM17.8755 11.7493H21.8198V28.9533H17.8755V11.7493ZM23.4983 11.7493H24.8242V28.9533H23.4983V11.7493ZM26.5027 11.7493H29.8596V28.9533H26.5027V11.7493ZM19.7889 1.77929L35.4656 10.0708H4.21294L19.7889 1.77929ZM6.86489 11.7493H8.19086V28.9533H6.86489V11.7493ZM4.17938 30.7996H35.4824V32.5955H4.17938V30.7996ZM37.9833 36.3217H1.67849V34.3579H2.88697C3.0088 34.3828 3.1344 34.3828 3.25623 34.3579H36.4055C36.5273 34.3828 36.6529 34.3828 36.7748 34.3579H37.9833V36.3217Z" fill="#FAAA17"/>
<path d="M19.8393 8.86224C20.3306 8.86224 20.8109 8.71655 21.2194 8.4436C21.6279 8.17064 21.9463 7.78268 22.1343 7.32877C22.3223 6.87486 22.3715 6.37539 22.2757 5.89352C22.1798 5.41165 21.9432 4.96903 21.5958 4.62162C21.2484 4.27421 20.8058 4.03762 20.3239 3.94178C19.8421 3.84593 19.3426 3.89512 18.8887 4.08313C18.4348 4.27115 18.0468 4.58954 17.7739 4.99805C17.5009 5.40656 17.3552 5.88683 17.3552 6.37814C17.3552 6.70436 17.4195 7.02738 17.5443 7.32877C17.6692 7.63015 17.8521 7.904 18.0828 8.13467C18.3135 8.36534 18.5873 8.54831 18.8887 8.67315C19.1901 8.79799 19.5131 8.86224 19.8393 8.86224ZM19.8393 5.50535C19.9987 5.50535 20.1544 5.5526 20.2869 5.64113C20.4194 5.72966 20.5227 5.85548 20.5836 6.00269C20.6446 6.14991 20.6606 6.3119 20.6295 6.46818C20.5984 6.62446 20.5217 6.76802 20.409 6.88069C20.2963 6.99336 20.1528 7.07009 19.9965 7.10118C19.8402 7.13226 19.6782 7.11631 19.531 7.05533C19.3838 6.99435 19.258 6.89109 19.1694 6.7586C19.0809 6.62611 19.0337 6.47035 19.0337 6.31101C19.0505 6.10917 19.1428 5.9211 19.2921 5.78425C19.4414 5.64739 19.6368 5.57178 19.8393 5.57249V5.50535Z" fill="#FAAA17"/>
</svg>
