<svg width="40" height="25" viewBox="0 0 40 25" fill="none" xmlns="http://www.w3.org/2000/svg">
<path d="M39.1667 6.66667H36.6667V4.16667C36.6667 3.94565 36.5789 3.73369 36.4226 3.57741C36.2663 3.42113 36.0543 3.33333 35.8333 3.33333H33.3333V0.833333C33.3333 0.61232 33.2455 0.400358 33.0893 0.244078C32.933 0.0877974 32.721 0 32.5 0L0.833333 0C0.61232 0 0.400358 0.0877974 0.244078 0.244078C0.0877974 0.400358 0 0.61232 0 0.833333L0 17.35C0 17.571 0.0877974 17.783 0.244078 17.9393C0.400358 18.0955 0.61232 18.1833 0.833333 18.1833H3.33333V20.6833C3.33333 20.9043 3.42113 21.1163 3.57741 21.2726C3.73369 21.4289 3.94565 21.5167 4.16667 21.5167H6.66667V24.0167C6.66667 24.2377 6.75446 24.4496 6.91074 24.6059C7.06702 24.7622 7.27899 24.85 7.5 24.85H39.1667C39.3877 24.85 39.5996 24.7622 39.7559 24.6059C39.9122 24.4496 40 24.2377 40 24.0167V7.5C40 7.27899 39.9122 7.06702 39.7559 6.91074C39.5996 6.75446 39.3877 6.66667 39.1667 6.66667ZM26.3333 16.5167H7C6.81584 15.1671 6.19468 13.9149 5.23153 12.9518C4.26838 11.9886 3.01626 11.3675 1.66667 11.1833V7C3.01626 6.81584 4.26838 6.19468 5.23153 5.23153C6.19468 4.26838 6.81584 3.01626 7 1.66667H26.3333C26.5175 3.01626 27.1386 4.26838 28.1018 5.23153C29.065 6.19468 30.3171 6.81584 31.6667 7V11.1833C30.3171 11.3675 29.065 11.9886 28.1018 12.9518C27.1386 13.9149 26.5175 15.1671 26.3333 16.5167ZM31.6667 12.85V16.5167H27.9833C28.1561 15.6054 28.6002 14.7676 29.2575 14.1133C29.9149 13.459 30.7546 13.0186 31.6667 12.85ZM31.6667 1.66667V5.35C30.7524 5.1803 29.911 4.73748 29.2534 4.07993C28.5958 3.42238 28.153 2.58097 27.9833 1.66667H31.6667ZM1.66667 1.66667H5.35C5.1803 2.58097 4.73748 3.42238 4.07993 4.07993C3.42238 4.73748 2.58097 5.1803 1.66667 5.35V1.66667ZM1.66667 12.85C2.5787 13.0186 3.41847 13.459 4.07579 14.1133C4.7331 14.7676 5.17727 15.6054 5.35 16.5167H1.66667V12.85ZM5 18.2H32.5C32.721 18.2 32.933 18.1122 33.0893 17.9559C33.2455 17.7996 33.3333 17.5877 33.3333 17.3667V5H35V19.85H5V18.2ZM38.3333 23.2H8.33333V21.5333H35.8333C36.0543 21.5333 36.2663 21.4455 36.4226 21.2893C36.5789 21.133 36.6667 20.921 36.6667 20.7V8.33333H38.3333V23.2Z" fill="#FAAA17"/>
<path d="M16.6666 3.43335C15.5491 3.43335 14.4568 3.76472 13.5276 4.38555C12.5985 5.00638 11.8743 5.88879 11.4467 6.92119C11.019 7.95359 10.9072 9.08962 11.1252 10.1856C11.3432 11.2816 11.8813 12.2883 12.6715 13.0785C13.4616 13.8687 14.4684 14.4068 15.5643 14.6248C16.6603 14.8428 17.7964 14.7309 18.8288 14.3033C19.8612 13.8756 20.7436 13.1515 21.3644 12.2223C21.9852 11.2932 22.3166 10.2008 22.3166 9.08335C22.3122 7.58623 21.7155 6.15168 20.6569 5.09305C19.5983 4.03442 18.1637 3.43775 16.6666 3.43335ZM16.6666 13.0667C15.8788 13.0667 15.1086 12.8331 14.4536 12.3954C13.7985 11.9577 13.288 11.3356 12.9865 10.6077C12.685 9.87985 12.6061 9.07893 12.7598 8.30624C12.9135 7.53355 13.2929 6.82379 13.85 6.26671C14.407 5.70963 15.1168 5.33025 15.8895 5.17656C16.6622 5.02286 17.4631 5.10174 18.191 5.40323C18.9188 5.70472 19.5409 6.21527 19.9786 6.87033C20.4163 7.52538 20.6499 8.29552 20.6499 9.08335C20.6521 9.60785 20.5507 10.1276 20.3515 10.6128C20.1523 11.098 19.8593 11.5391 19.4892 11.9108C19.1191 12.2824 18.6792 12.5773 18.1948 12.7786C17.7105 12.9798 17.1911 13.0834 16.6666 13.0834V13.0667Z" fill="#FAAA17"/>
</svg>
