<svg width="32" height="32" viewBox="0 0 32 32" fill="none" xmlns="http://www.w3.org/2000/svg">
<path d="M16 32C24.8444 32 32 24.8444 32 16C32 7.15556 24.8444 0 16 0C7.15556 0 0 7.15556 0 16C0 24.8444 7.15556 32 16 32Z" fill="#3E6FA1"/>
<path d="M17.289 19.7333C17.3335 19.1111 17.6001 18.0889 18.3112 18.6667C18.7557 18.9778 19.0668 19.4667 19.4668 19.8667C19.8668 20.2667 20.3112 20.6222 21.1557 20.6222C21.6446 20.6222 23.1112 20.6667 23.4668 20.5333C24.5779 20.1333 22.5779 18.2667 22.089 17.8222C21.8668 17.6444 21.6446 17.3778 21.4668 17.2C21.2446 16.9778 21.1557 16.7555 21.3335 16.3555L22.089 15.2889C22.3112 15.0222 23.1557 13.8667 23.3335 13.5111C23.6446 13.0222 24.2223 12.1333 23.4668 11.9555C23.0224 11.8667 21.6446 11.9555 21.1112 11.9555C20.0446 11.9555 20.2668 11.8667 19.7779 13.0222C19.4224 13.8222 18.3557 15.6889 17.8224 15.9111C16.8001 16.3111 17.6001 12.5333 17.1557 11.8667C16.889 11.5111 15.6446 11.5555 15.0668 11.5555C14.4001 11.5555 13.4668 11.6 13.289 12.1333C13.3335 12.1778 13.289 12.1333 13.3779 12.1778C13.4668 12.2222 13.6001 12.2222 13.7335 12.3111C13.8668 12.3556 13.9557 12.4889 14.0446 12.6222C14.3557 13.1111 14.3112 15.2444 14.0446 15.7778C13.5557 16.7555 12.1335 14.0444 11.8668 13.5555C11.5112 12.8444 11.3779 12.1778 10.9779 12C10.7112 11.8667 9.0668 11.9555 8.62235 11.9555C8.22235 11.9555 7.8668 12.0444 8.04457 12.4889C8.13346 12.7111 8.31124 13.0667 8.40013 13.2889C9.0668 14.8 10.1335 16.6222 11.0668 17.8667C12.1335 19.2889 13.689 20.5333 15.689 20.5333C17.1112 20.5778 17.2001 20.6667 17.289 19.7333Z" fill="white"/>
</svg>
