<svg width="32" height="32" viewBox="0 0 32 32" fill="none" xmlns="http://www.w3.org/2000/svg">
<path d="M0 16C0 24.8366 7.16339 32 16 32C24.8366 32 32 24.8366 32 16C32 7.16339 24.8366 0 16 0C7.16339 0 0 7.16339 0 16Z" fill="#1D93D2"/>
<path d="M10.8306 17.1694L12.7289 22.4236C12.7289 22.4236 12.9662 22.915 13.2204 22.915C13.4746 22.915 17.2543 18.9828 17.2543 18.9828L21.4577 10.8642L10.8984 15.8133L10.8306 17.1694Z" fill="#C8DAEA"/>
<path d="M13.3474 18.5169L12.9829 22.3897C12.9829 22.3897 12.8304 23.5762 14.0168 22.3897C15.2033 21.2033 16.3389 20.2881 16.3389 20.2881" fill="#A9C6D8"/>
<path d="M10.8646 17.3571L6.96024 16.0848C6.96024 16.0848 6.4942 15.8957 6.6439 15.4662C6.67481 15.3777 6.73705 15.3024 6.92349 15.1724C7.78885 14.5694 22.9376 9.12441 22.9376 9.12441C22.9376 9.12441 23.3654 8.98041 23.6183 9.07614C23.7338 9.11994 23.8076 9.16943 23.8697 9.35004C23.8923 9.4158 23.9053 9.5556 23.9036 9.69472C23.9022 9.79506 23.89 9.88794 23.8811 10.0337C23.7888 11.5225 21.0282 22.6328 21.0282 22.6328C21.0282 22.6328 20.863 23.2829 20.2712 23.305C20.0553 23.3132 19.7933 23.2694 19.4801 22.9999C18.3187 22.0009 14.3042 19.303 13.4173 18.7098C13.3672 18.6764 13.353 18.6329 13.3445 18.5904C13.332 18.5281 13.3987 18.4502 13.3987 18.4502C13.3987 18.4502 20.3888 12.2367 20.5749 11.5847C20.5893 11.5342 20.5352 11.5092 20.4618 11.5311C19.9975 11.7019 11.9493 16.7839 11.0611 17.3453C11.0092 17.3781 10.8636 17.357 10.8636 17.357" fill="white"/>
</svg>
