<svg width="30" height="30" viewBox="0 0 30 30" fill="none" xmlns="http://www.w3.org/2000/svg">
<path d="M15 0C23.2917 0 30 6.70833 30 15C30 23.2917 23.2917 30 15 30C6.70833 30 0 23.2917 0 15C0 6.70833 6.70833 0 15 0Z" fill="#4460A0"/>
<path d="M21.3334 2.87498V6.74998H19.0417C17.2501 6.74998 16.8751 7.62498 16.8751 8.87498V11.6666H21.1667L20.6251 16H16.8751V27.2916H12.4167V16H8.66675V11.6666H12.4167V8.45831C12.4167 4.74998 14.6667 2.70831 18.0001 2.70831C19.5834 2.70831 20.9584 2.83331 21.3334 2.87498Z" fill="white"/>
</svg>
