<svg width="30" height="30" viewBox="0 0 30 30" fill="none" xmlns="http://www.w3.org/2000/svg">
<path d="M15 30C23.2917 30 30 23.2917 30 15C30 6.70833 23.2917 0 15 0C6.70833 0 0 6.70833 0 15C0 23.2917 6.70833 30 15 30Z" fill="#4DC8F1"/>
<path d="M22.9583 10.7084C23.2083 16.5 18.9167 22.9167 11.2917 22.9167C8.95834 22.9167 6.83333 22.25 5 21.0834C7.16667 21.3334 9.33334 20.75 11.0833 19.375C9.29167 19.3334 7.79166 18.1667 7.25 16.5417C7.875 16.6667 8.54167 16.625 9.08333 16.4584C7.125 16.0417 5.75 14.2917 5.79166 12.375C6.33333 12.6667 6.95833 12.875 7.66666 12.875C5.83333 11.6667 5.33333 9.25002 6.41666 7.41669C8.45833 9.91669 11.4583 11.5417 14.875 11.7084C14.2917 9.12502 16.2083 6.66669 18.875 6.66669C20.0417 6.66669 21.125 7.16669 21.875 7.95835C22.7917 7.79169 23.7083 7.41669 24.5 6.95835C24.2083 7.91669 23.5417 8.70835 22.7083 9.20835C23.5417 9.12502 24.3333 8.87502 25.0833 8.58335C24.4583 9.41669 23.75 10.125 22.9583 10.7084Z" fill="white"/>
</svg>
