<svg width="33" height="32" viewBox="0 0 33 32" fill="none" xmlns="http://www.w3.org/2000/svg">
<path fill-rule="evenodd" clip-rule="evenodd" d="M32.0039 15.5092C32.0039 11.2269 30.2554 7.34957 27.4286 4.54256C24.602 1.73595 20.6982 0 16.3871 0C12.0724 0 8.16664 1.73536 5.33877 4.54046C2.50964 7.34682 0.760249 11.2234 0.760249 15.5038C0.760249 16.9406 0.958969 18.3349 1.32976 19.6601C1.69821 20.9767 2.23721 22.2234 2.92045 23.374L0.213951 31.368L0 32L0.635711 31.7977L8.96015 29.1485C10.0622 29.7417 11.2414 30.2064 12.4793 30.5231C13.7265 30.8422 15.0337 31.0116 16.3821 31.0116C20.6949 31.0116 24.5995 29.2762 27.4266 26.4712C30.2549 23.665 32.0039 19.7888 32.0039 15.5092L32.0039 15.5092Z" fill="#54CC61"/>
<path fill-rule="evenodd" clip-rule="evenodd" d="M13.8467 11.2756C13.7781 11.1375 13.3823 10.1814 13.0174 9.30022C12.7842 8.73688 12.5617 8.19965 12.5181 8.09574C12.1072 7.11606 11.6531 7.1456 11.3048 7.16823C11.2819 7.1697 11.2599 7.17115 11.2304 7.17115C11.1089 7.17115 10.9894 7.16359 10.8656 7.15575C10.7108 7.14592 10.5502 7.13574 10.3984 7.13574C10.1965 7.13574 9.92161 7.17762 9.63213 7.31312C9.41744 7.4136 9.19596 7.5649 8.99326 7.78761C8.96369 7.81955 8.94142 7.84297 8.91724 7.86838C8.43493 8.37536 7.38354 9.48049 7.38354 11.6029C7.38354 13.8293 8.98905 15.9466 9.22498 16.2575L9.22413 16.2581L9.22631 16.261L9.22896 16.2637C9.23822 16.2756 9.27228 16.3254 9.32264 16.3991C9.91558 17.2663 12.6414 21.2529 16.7852 22.8713C20.5444 24.3382 21.2246 24.1736 21.8322 24.0266C21.9356 24.0015 22.0366 23.9771 22.1459 23.967C22.6379 23.9207 23.4428 23.5839 24.1202 23.1109C24.6821 22.7185 25.1726 22.2227 25.3604 21.7005C25.5279 21.2337 25.6227 20.8 25.6666 20.443C25.7304 19.9245 25.6799 19.5164 25.5855 19.3588L25.5842 19.3575C25.4408 19.1212 25.1926 19.004 24.8204 18.8282C24.7547 18.7973 24.6846 18.7642 24.6171 18.7315L24.6174 18.7311C24.3607 18.6005 23.4727 18.1664 22.7136 17.8075C22.2231 17.5757 21.7873 17.3765 21.6147 17.3145C21.3719 17.2273 21.1604 17.1614 20.9336 17.187C20.6765 17.216 20.4522 17.3484 20.2443 17.6633L20.2436 17.6629C20.1392 17.8197 19.9553 18.0549 19.7542 18.3012C19.4358 18.6913 19.0559 19.1293 18.894 19.3132V19.3145C18.8249 19.3932 18.7653 19.4361 18.7069 19.4431C18.6257 19.4529 18.5142 19.4197 18.3598 19.3439C18.2611 19.2945 18.1649 19.2529 18.0463 19.2017C17.446 18.9427 16.2768 18.4383 14.9443 17.2585C14.4676 16.8366 14.0482 16.3754 13.6978 15.9427C13.1308 15.2423 12.7476 14.6183 12.5954 14.3555C12.4752 14.1494 12.6087 14.0158 12.732 13.8925L12.7314 13.8917C12.8677 13.7556 13.022 13.5701 13.1769 13.384C13.2474 13.2993 13.3179 13.2145 13.4037 13.1157L13.405 13.1143C13.6138 12.8715 13.7004 12.6947 13.8172 12.456C13.8376 12.4145 13.8589 12.3709 13.8803 12.3281L13.8817 12.3268C13.9844 12.1198 14.0107 11.9228 13.9916 11.7383C13.9738 11.5665 13.9163 11.4132 13.8461 11.2759L13.8467 11.2756L13.8467 11.2756Z" fill="#FFFFFE"/>
</svg>
