<svg width="120" height="119" viewBox="0 0 120 119" fill="none" xmlns="http://www.w3.org/2000/svg">
<path d="M113.134 84.1254C112.071 84.1254 110.814 84.3188 109.46 84.7055L88.8636 91.861C88.8636 91.7643 88.8636 91.7644 88.8636 91.6677C88.8636 91.571 88.8636 91.4743 88.8636 91.3776C88.8636 91.1842 88.8636 91.0875 88.8636 90.8941C88.8636 90.7974 88.8636 90.7007 88.8636 90.7007V90.604V90.5073C88.8636 90.3139 88.7669 90.0238 88.7669 89.8304C88.7669 89.8304 88.7669 89.8304 88.7669 89.7337C87.8966 85.9626 84.4156 83.1584 80.3543 83.1584H64.0127C56.4704 73.5855 38.9685 73.4888 38.1949 73.4888H25.6244V68.8474H0V111.49H25.6244V107.429L57.3407 117.485C57.5341 117.582 62.2722 118.936 67.6872 118.936C70.9748 118.936 73.8757 118.452 76.3898 117.389C82.7717 114.778 108.396 101.047 116.132 96.8892C118.259 95.7289 121.16 92.4412 119.516 88.4767C118.259 85.5758 116.132 84.1254 113.134 84.1254ZM21.7566 107.526H3.86784V72.6186H21.7566V73.2954V105.979V107.526ZM114.198 93.4082C106.559 97.5661 81.0312 111.104 74.8427 113.714C72.9088 114.488 70.4913 114.971 67.6872 114.971C62.7557 114.971 58.4044 113.714 58.4044 113.714L25.5277 103.368V77.1633H38.0982C38.2916 77.1633 55.3101 77.26 61.3052 86.0593L61.8854 86.9296H80.1609C82.5783 86.9296 84.609 88.6701 84.899 90.9908V91.0875C84.899 91.2809 84.899 91.3776 84.899 91.571C84.899 91.7644 84.899 91.9577 84.8023 92.1511C84.8023 92.2478 84.8023 92.3445 84.8023 92.4412C84.8023 92.6346 84.7057 92.828 84.609 93.0214C84.609 93.1181 84.609 93.2148 84.5123 93.2148C84.4156 93.5049 84.3189 93.6983 84.1255 93.8917C83.3519 95.052 81.9982 95.8256 80.451 95.8256H55.3101V99.6934H80.451C83.0618 99.6934 85.4792 98.4364 87.0264 96.5025L110.523 88.38C111.49 88.0899 112.361 87.9932 113.134 87.9932C114.585 87.9932 115.262 88.4767 115.842 89.8304C116.615 91.6677 114.778 93.1181 114.198 93.4082Z" fill="#FAAA17"/>
<path d="M99.9837 67.4938V30.9427L104.528 35.4874L107.236 32.7799L99.9837 25.5277V5.99515H88.2835V13.7308L74.456 0L41.676 32.7799L44.3835 35.4874L48.9282 30.9427V67.4938H99.9837ZM92.1513 23.1103V9.86299H96.1158V26.9782V27.0749V63.6259H52.7961V27.0749L74.456 5.41497L92.1513 23.1103Z" fill="#FAAA17"/>
</svg>
