<svg width="120" height="109" viewBox="0 0 120 109" fill="none" xmlns="http://www.w3.org/2000/svg">
<path d="M119.505 78.1862C118.344 75.38 116.215 73.9285 113.215 73.9285C112.151 73.9285 110.893 74.1221 109.538 74.5091L88.9272 81.6698C88.9272 81.573 88.9272 81.573 88.9272 81.4762C88.9272 81.3795 88.9272 81.2827 88.9272 81.1859C88.9272 80.9924 88.9272 80.8956 88.9272 80.7021C88.9272 80.6053 88.9272 80.5086 88.9272 80.5086V80.4118V80.3151C88.9272 80.1215 88.8305 79.8312 88.8305 79.6377C88.8305 79.6377 88.8305 79.6377 88.8305 79.5409C87.9596 75.7671 84.476 72.9609 80.4119 72.9609H64.0586C56.5109 63.3811 38.9964 63.2844 38.2223 63.2844H25.6428V58.6396H0V101.313H25.6428V97.249L57.3818 107.313C57.5753 107.409 62.3168 108.764 67.7356 108.764C71.0257 108.764 73.9286 108.28 76.4445 107.216C82.831 104.603 108.474 90.8625 116.215 86.7016C118.344 85.4436 121.15 82.1536 119.505 78.1862ZM21.7722 97.3457H3.87061V62.4135H21.7722V63.0908V95.7975V97.3457ZM114.28 83.218C106.635 87.3789 81.0892 100.926 74.8963 103.539C72.961 104.313 70.5418 104.797 67.7356 104.797C62.8006 104.797 58.4462 103.539 58.4462 103.539L25.546 93.1848V66.9615H38.1255C38.319 66.9615 55.3497 67.0582 61.3491 75.8639L61.9297 76.7347H80.2184C82.6375 76.7347 84.6696 78.4765 84.9599 80.7989V80.8956C84.9599 81.0892 84.9599 81.1859 84.9599 81.3795C84.9599 81.573 84.9599 81.7665 84.8631 81.9601C84.8631 82.0568 84.8631 82.1536 84.8631 82.2504C84.8631 82.4439 84.7663 82.6374 84.6696 82.831C84.6696 82.9277 84.6696 83.0245 84.5728 83.0245C84.476 83.3148 84.3793 83.5083 84.1857 83.7018C83.4116 84.863 82.0569 85.6371 80.5087 85.6371H55.3497V89.5078H80.5087C83.1213 89.5078 85.5405 88.2498 87.0887 86.3145L110.603 78.1862C111.57 77.8959 112.441 77.7992 113.215 77.7992C114.667 77.7992 115.344 78.283 115.925 79.6377C116.699 81.4762 114.86 82.9277 114.28 83.218Z" fill="#FAAA17"/>
<path d="M93.9589 39.5771C94.7331 39.8674 95.604 40.0609 96.4748 40.0609C99.5713 40.0609 102.378 38.1256 103.442 35.2227C104.797 31.3521 102.861 27.1912 98.9907 25.7397C98.2166 25.4494 97.3457 25.2559 96.4748 25.2559C93.3784 25.2559 90.5722 27.1912 89.5077 30.0941C88.8304 31.9327 88.9272 33.9647 89.798 35.7065C90.5722 37.545 92.0236 38.8998 93.9589 39.5771ZM93.1848 31.4488C93.6687 30.0941 95.0234 29.1265 96.4748 29.1265C96.8619 29.1265 97.249 29.2232 97.636 29.32C99.4746 29.9974 100.442 32.0294 99.7649 33.7712C99.281 35.1259 97.9263 36.0936 96.4748 36.0936C96.0878 36.0936 95.7007 35.9968 95.3137 35.9C94.4428 35.6097 93.7654 34.9324 93.3784 34.0615C92.9913 33.1906 92.7978 32.3197 93.1848 31.4488Z" fill="#FAAA17"/>
<path d="M36.2869 20.9013L39.8673 19.2563L41.5123 22.8366L49.8341 25.8363L53.4144 24.1913L55.0594 27.7716L62.7038 30.5778C63.2844 39.6737 69.1871 47.9955 78.283 51.2856C80.8957 52.2532 83.6051 52.737 86.4113 52.737C96.3781 52.737 105.281 46.4473 108.667 37.1578C113.119 24.8687 106.829 11.2248 94.5396 6.77356C91.9269 5.80591 89.2175 5.32209 86.4113 5.32209C79.8313 5.32209 73.7351 8.12828 69.2839 12.6762L34.4484 0L23.2236 3.77384L27.6748 17.8048L36.2869 20.9013ZM86.5081 9.19269C88.8305 9.19269 91.0561 9.57976 93.2816 10.3539C103.539 14.1277 108.861 25.546 105.184 35.8031C102.378 43.6411 94.8299 48.8664 86.5081 48.8664C84.1857 48.8664 81.9601 48.4794 79.7345 47.7052C69.4774 43.9314 64.1553 32.5131 67.8324 22.256C70.7354 14.5148 78.283 9.19269 86.5081 9.19269ZM66.8647 15.8695C65.8003 17.4177 64.9294 19.1595 64.2521 20.9981C63.5747 22.8366 63.1877 24.6751 62.9941 26.6104L58.0591 24.7719L55.4464 19.0627L49.7373 21.6754L44.4152 19.7401L41.8026 14.031L36.0934 16.6436L30.9648 14.9018L28.836 8.22504L59.2203 19.2563L60.575 15.5792L31.6422 5.12856L34.5452 4.1609L66.8647 15.8695Z" fill="#FAAA17"/>
</svg>
