<svg width="72" height="66" viewBox="0 0 72 66" fill="none" xmlns="http://www.w3.org/2000/svg">
<path d="M26 18.7H20V22.2H26V18.7Z" fill="#252525"/>
<path d="M62.2 48.8H21C19.9 48.8 19 48.1 18.8 47.1L9.9 15.3H0V11.8H11.1C12.1 11.8 13 12.5 13.1 13.5L22 45.3H61.2L67.5 22.4H57.5V18.9H69.2C70.5 18.9 71.4 19.8 71.4 21.1V21.3L64.2 47.6L63.9 48C63.6 48.2001 63.1 48.8 62.2 48.8Z" fill="#252525"/>
<path d="M61.7001 27.5H56.6001V31H61.7001V27.5Z" fill="#252525"/>
<path d="M28.1 27.5H23V31H28.1V27.5Z" fill="#252525"/>
<path d="M58.0999 36.2H25.8999V39.7H58.0999V36.2Z" fill="#252525"/>
<path d="M29.7999 65.8C25.8999 65.8 22.7 62.6 22.7 58.7C22.7 54.8 25.8999 51.6 29.7999 51.6C33.6999 51.6 36.9 54.8 36.9 58.7C36.9 62.6 33.6999 65.8 29.7999 65.8ZM29.7999 55.1C27.7999 55.1 26.2 56.7 26.2 58.7C26.2 60.7 27.7999 62.3 29.7999 62.3C31.7999 62.3 33.4 60.7 33.4 58.7C33.4 56.7 31.7999 55.1 29.7999 55.1Z" fill="#252525"/>
<path d="M31.6001 56.9H28.1001V60.4H31.6001V56.9Z" fill="#252525"/>
<path d="M52.7999 65.8C48.8999 65.8 45.7 62.6 45.7 58.7C45.7 54.8 48.8999 51.6 52.7999 51.6C56.6999 51.6 59.9 54.8 59.9 58.7C59.9 62.6 56.6999 65.8 52.7999 65.8ZM52.7999 55.1C50.7999 55.1 49.2 56.7 49.2 58.7C49.2 60.7 50.7999 62.3 52.7999 62.3C54.7999 62.3 56.4 60.7 56.4 58.7C56.4 56.7 54.7999 55.1 52.7999 55.1Z" fill="#252525"/>
<path d="M54.6001 56.9H51.1001V60.4H54.6001V56.9Z" fill="#252525"/>
<path d="M49 18.3999H35.3V21.8999H49V18.3999Z" fill="#F8AA1B"/>
<path d="M43.8 13.3H40.3V27H43.8V13.3Z" fill="#F8AA1B"/>
<path d="M42.0999 34.4C34.2999 34.4 27.8999 28 27.8999 20.2C27.8999 12.4 34.1999 6 42.0999 6C49.9999 6 56.2999 12.4 56.2999 20.2C56.2999 28 49.8999 34.4 42.0999 34.4ZM42.0999 9.5C36.1999 9.5 31.3999 14.3 31.3999 20.2C31.3999 26.1 36.1999 30.9 42.0999 30.9C47.9999 30.9 52.7999 26.1 52.7999 20.2C52.7999 14.3 47.9999 9.5 42.0999 9.5Z" fill="#F8AA1B"/>
<path d="M27.2001 15.9L23.8 15.3C23.9 14.6 24.1 13.9 24.3 13.2L27.7001 14.2C27.4001 14.7 27.3001 15.3 27.2001 15.9ZM56.5 14.9C56.4001 14.3 56.2001 13.8 56 13.2L59.3 12C59.5 12.7 59.8001 13.4 59.9001 14.1L56.5 14.9ZM28.2001 12.5L25 11.1C25.3 10.4 25.6 9.8 26 9.1L29 10.9C28.7 11.4 28.5001 11.9 28.2001 12.5ZM55.3 11.6C55 11.1 54.7001 10.6 54.4001 10.1L57.3 8.2C57.7001 8.8 58.1001 9.4 58.4001 10.1L55.3 11.6ZM30 9.4L27.2001 7.3C27.6001 6.7 28.1 6.2 28.6 5.6L31.1 8C30.8 8.5 30.4 8.9 30 9.4ZM53.3 8.6C52.9 8.2 52.5 7.7 52.1 7.3L54.5 4.7C55 5.2 55.6 5.7 56 6.3L53.3 8.6ZM32.5 6.9L30.3 4.2C30.9 3.7 31.5 3.3 32.1 2.9L34 5.9C33.4 6.1 33 6.5 32.5 6.9ZM50.7001 6.2C50.2001 5.9 49.7001 5.5 49.2001 5.3L50.9001 2.2C51.5001 2.5 52.2 2.9 52.8 3.4L50.7001 6.2ZM35.5 5L34 1.8C34.7 1.5 35.3 1.2 36 1L37.1 4.3C36.6 4.5 36 4.7 35.5 5ZM47.6 4.5C47 4.3 46.5001 4.1 45.9001 4L46.8 0.6C47.5 0.8 48.2001 1 48.9001 1.3L47.6 4.5ZM38.9001 3.8L38.2001 0.4C38.9001 0.2 39.6001 0.1 40.4001 0.1L40.7001 3.6C40 3.6 39.4001 3.7 38.9001 3.8ZM44.2001 3.6C43.6 3.5 43.0001 3.5 42.4001 3.5L42.5 0C43.2001 0 44 0.1 44.7001 0.2L44.2001 3.6Z" fill="#F8AA1B"/>
</svg>
