<svg width="115" height="111" viewBox="0 0 115 111" fill="none" xmlns="http://www.w3.org/2000/svg">
<path d="M3.69983 94.3457H0C0 103.04 7.02968 110.07 15.7243 110.07H114.695V13.8744H17.5742V0H15.7243C7.02968 0 0 7.02968 0 15.7243V94.3457H3.69983C3.69983 87.686 9.06459 82.3213 15.7243 82.3213H17.5742V17.5742H110.995V106.37H15.7243C9.06459 106.37 3.69983 101.005 3.69983 94.3457ZM13.8744 41.1606C13.8744 57.3474 13.8744 73.5342 13.8744 78.7139C9.80455 79.1764 6.19722 81.2113 3.69983 84.1712V15.7243C3.69983 9.71206 8.13963 4.71729 13.8744 3.88482V41.1606Z" fill="#FAAA17"/>
<path d="M23.124 0V9.24958H103.965L114.787 4.62479L103.965 0H23.124ZM26.8239 3.69983H32.3736V5.54975H26.8239V3.69983ZM103.225 5.54975H36.0734V3.69983H103.225L105.353 4.62479L103.225 5.54975Z" fill="#FAAA17"/>
<path d="M41.1606 65.2095V92.4957H86.4836V65.2095H82.7837V88.7959H44.8605V65.2095H41.1606Z" fill="#FAAA17"/>
<path d="M75.8469 37.9229V44.5826L63.8225 32.5581L34.7788 61.6018L37.3687 64.1917L63.8225 37.7379L79.5468 53.4622V41.6227H82.7841V56.6995L90.2763 64.1917L92.8662 61.6018L86.484 55.2196V37.9229H75.8469Z" fill="#FAAA17"/>
</svg>
