<svg width="87" height="70" viewBox="0 0 87 70" fill="none" xmlns="http://www.w3.org/2000/svg">
<path d="M43.3999 69.5C38.2999 69.5 33.3999 68.4 28.7999 66.3L28.3999 66.1L29.9999 62.7L30.3999 62.9C34.4999 64.8 38.8999 65.8 43.3999 65.8C46.5999 65.8 49.8999 65.3 52.9999 64.3C60.8999 61.7 67.2999 56.3 70.9999 48.9C74.7999 41.5 75.3999 33.1 72.8999 25.3L72.2999 23.5L78.9999 21.3L71.6999 15.6L69.1999 24.5L70.5999 24L71.7999 27.6L63.6999 30.2L69.6999 9.09998L86.8999 22.7L76.9999 25.8C79.1999 34.1 78.2999 42.8 74.3999 50.5C70.1999 58.8 62.9999 64.9 54.1999 67.8C50.6999 68.9 47.0999 69.5 43.3999 69.5Z" fill="#252525"/>
<path d="M25.2001 64.3C23.2001 63 21.3001 61.6 19.5001 60L19.1001 59.7L21.7001 57L22.1001 57.3C23.6001 58.7 25.3001 60 27.2001 61.2L27.6001 61.5L25.6001 64.7L25.2001 64.3Z" fill="#252525"/>
<path d="M0 46.9L9.8 43.7C7.6 35.4 8.5 26.7 12.4 19C16.6 10.7 23.8 4.6 32.6 1.7C36.2 0.6 39.8 0 43.5 0C48.6 0 53.5 1.1 58.1 3.2L58.5 3.4L56.9 6.8L56.5 6.6C52.4 4.7 48 3.7 43.5 3.7C40.3 3.7 37 4.2 33.9 5.2C17.6 10.6 8.7 28.1 14 44.3L14.6 46.1L7.9 48.3L15.2 54L17.7 45.1L16.3 45.6L15.1 42L23.2 39.4L17.2 60.5L0 46.9Z" fill="#252525"/>
<path d="M64.6999 12.2C63.1999 10.8 61.4999 9.50005 59.5999 8.30005L59.2 8.00005L61.2 4.80005L61.5999 5.10005C63.5999 6.40005 65.5 7.80005 67.3 9.40005L67.6999 9.70005L65.0999 12.4L64.6999 12.2Z" fill="#252525"/>
<path d="M44.4001 56C33.5001 56 25.8 53.4 25.8 49.7C25.8 41.7 30.9 34.6 38.5 32.1C33.3 28.9 31.7 22.1 34.8 16.9C36.8 13.5 40.5001 11.5 44.4001 11.5C46.4001 11.5 48.4 12 50.1 13.1C55.4 16.3 57.1 23.2 54 28.4C53.1 29.9 51.8 31.2 50.3 32.1C57.9 34.7 63 41.8 63 49.8C63 53.4 55.2001 56 44.4001 56ZM41.6 34.1C34 35.5 28.5 42 28.5 49.8C28.5 51.2 35.3001 53.4 44.4001 53.4C53.2001 53.4 60.3 51.2 60.3 49.8C60.3 42.4 55.3 36 48 34.3C47.5 35.1 47.2001 35.7 47 36.2L49.6 48.1C49.7 48.6 49.5 49.2 49 49.5L45.5 51.7C45.3 51.8 45 51.9 44.8 51.9C44.6 51.9 44.3 51.8 44.1 51.7L40.6 49.5C40.1 49.2 39.9 48.6 40 48.1L42.6 36.2L41.6 34.1ZM44.4001 14.1C39.7001 14.1 35.9001 17.9 35.9001 22.6C35.9001 27.3 39.7001 31.1 44.4001 31.1C49.1001 31.1 52.9001 27.3 52.9001 22.6C52.9001 18 49.1001 14.1 44.4001 14.1Z" fill="#F49300"/>
</svg>
