<svg width="115" height="111" viewBox="0 0 115 111" fill="none" xmlns="http://www.w3.org/2000/svg">
<path d="M3.70286 94.4229H0C0 103.125 7.03543 110.16 15.7371 110.16H114.789V13.8857H17.5886V0H15.7371C7.03543 0 0 7.03543 0 15.7371V94.4229H3.70286C3.70286 87.7577 9.072 82.3886 15.7371 82.3886H17.5886V17.5886H111.086V106.457H15.7371C9.072 106.457 3.70286 101.088 3.70286 94.4229ZM13.8857 78.7783C9.81257 79.2411 6.20228 81.2777 3.70286 84.24V15.7371C3.70286 9.72 8.14628 4.72114 13.8857 3.888V78.7783Z" fill="#FAAA17"/>
<path d="M93.4972 24.9941H82.3887V87.4799L87.943 98.5884L93.4972 87.4799V24.9941ZM89.7944 28.697V38.8799H86.0915V28.697H89.7944ZM87.943 90.257L86.0915 86.5541V42.5827H89.7944V86.5541L87.943 90.257Z" fill="#FAAA17"/>
<path d="M37.0286 69.4284V73.1313H44.4343L39.8057 98.7736L43.416 99.4216L48.1371 73.1313H59.2457L63.9669 99.4216L67.5771 98.7736L62.9486 73.1313H70.3543V69.4284H62.3006L60.1714 57.209C63.0411 55.1724 64.8 51.7473 64.8 48.137C64.8 42.6753 60.8194 38.0467 55.5429 37.2136V24.9941H51.84V37.2136C46.5634 38.1393 42.5829 42.6753 42.5829 48.137C42.5829 51.7473 44.3417 55.0799 47.2114 57.209L45.0823 69.4284H37.0286ZM50.1737 54.617C47.7669 53.321 46.2857 50.8216 46.2857 48.137C46.2857 44.0639 49.6183 40.7313 53.6914 40.7313C57.7646 40.7313 61.0971 44.0639 61.0971 48.137C61.0971 50.8216 59.616 53.321 57.2091 54.617L56.0057 55.265L58.5977 69.4284H48.7851L51.2846 55.265L50.1737 54.617Z" fill="#FAAA17"/>
</svg>
