<svg width="75" height="75" viewBox="0 0 75 75" fill="none" xmlns="http://www.w3.org/2000/svg">
<path d="M37.5 75C16.8588 75 0 58.1412 0 37.5C0 16.8588 16.8588 0 37.5 0V3.78242C18.9121 3.78242 3.78242 18.9121 3.78242 37.5C3.78242 56.0879 18.9121 71.2176 37.5 71.2176C56.0879 71.2176 71.2176 56.0879 71.2176 37.5H75C75 58.1412 58.1412 75 37.5 75Z" fill="#252525"/>
<path d="M71.2176 37.5V37.2839H75V37.3919L71.2176 37.5ZM71.1095 35.3386C71.1095 34.6902 71.0014 33.9337 70.8934 33.2853L74.6758 32.853C74.7839 33.6095 74.7839 34.366 74.8919 35.1225L71.1095 35.3386ZM70.5692 31.232C70.4611 30.5836 70.353 29.9352 70.1369 29.2867L73.8112 28.4222C74.0274 29.1787 74.1354 29.9352 74.2435 30.5836L70.5692 31.232ZM69.5965 27.3415C69.3804 26.6931 69.1643 26.0447 68.9481 25.3963L72.5144 24.0994C72.7305 24.7478 73.0548 25.5043 73.2709 26.2608L69.5965 27.3415ZM68.1916 23.5591C67.8674 22.9107 67.6513 22.3703 67.3271 21.7219L70.6772 19.9928C71.0014 20.6412 71.3256 21.2896 71.6499 22.0461L68.1916 23.5591ZM66.2464 19.9928C65.9222 19.4524 65.4899 18.804 65.1657 18.2637L68.2997 16.1023C68.732 16.7507 69.1643 17.3991 69.4885 18.0476L66.2464 19.9928ZM63.9769 16.6427C63.5447 16.1023 63.1124 15.562 62.6801 15.1297L65.4899 12.6441C66.0303 13.1844 66.4625 13.8329 66.8948 14.3732L63.9769 16.6427ZM61.2752 13.6167C60.8429 13.1844 60.3026 12.6441 59.7622 12.2118L62.2478 9.40202C62.7882 9.94236 63.3285 10.3746 63.8689 10.915L61.2752 13.6167ZM58.2493 10.915C57.7089 10.4827 57.1686 10.0504 56.6282 9.72622L58.7896 6.59222C59.438 7.0245 59.9784 7.45677 60.6268 7.88905L58.2493 10.915ZM54.8991 8.64553C54.3588 8.32133 53.7104 7.99712 53.17 7.67291L54.8991 4.32277C55.5475 4.64697 56.196 5.07925 56.8444 5.40346L54.8991 8.64553ZM51.3329 6.70029C50.6844 6.37608 50.036 6.15994 49.4957 5.9438L50.7925 2.37752C51.549 2.59366 52.1974 2.91787 52.8458 3.24207L51.3329 6.70029ZM47.4424 5.29539C46.7939 5.07925 46.1455 4.86311 45.4971 4.75504L46.4697 1.08069C47.2262 1.29683 47.9827 1.51297 48.6311 1.72911L47.4424 5.29539ZM43.5519 4.32277C42.9035 4.2147 42.255 4.10663 41.4986 3.99856L41.9308 0.216138C42.6873 0.324207 43.4438 0.432277 44.2003 0.540346L43.5519 4.32277ZM39.5533 3.89049C38.9049 3.89049 38.2565 3.78242 37.5 3.78242V0C38.2565 0 39.013 0 39.7695 0.108069L39.5533 3.89049Z" fill="#F49300"/>
<path d="M37.1363 51.5785H23.3821V53.5434H37.1363V51.5785Z" fill="#F49300" stroke="#F49300" stroke-width="0.25"/>
<path d="M50.8908 51.5785V53.5434H54.8206V16.2104H25.3472V20.1402H27.3121V18.1753H52.8557V51.5785H50.8908Z" fill="#F49300" stroke="#F49300" stroke-width="0.25"/>
<path d="M44.9959 45.6838H23.3821V47.6487H44.9959V45.6838Z" fill="#F49300" stroke="#F49300" stroke-width="0.25"/>
<path d="M19.4525 22.5177V59.0255C19.4525 59.2533 19.6333 59.4381 19.8573 59.4381H48.5192C48.7451 59.4381 48.9259 59.2554 48.9259 59.0255V22.5177C48.9259 22.2898 48.7451 22.1051 48.5212 22.1051H19.8573C19.6333 22.1051 19.4525 22.2878 19.4525 22.5177ZM21.4174 24.07H46.961V57.4732H21.4174V24.07Z" fill="#F49300" stroke="#F49300" stroke-width="0.25"/>
<path d="M44.9959 27.9998H23.3821V29.9646H44.9959V27.9998Z" fill="#F49300" stroke="#F49300" stroke-width="0.25"/>
<path d="M44.9959 33.8945H23.3821V35.8594H44.9959V33.8945Z" fill="#F49300" stroke="#F49300" stroke-width="0.25"/>
<path d="M44.9959 39.7891H23.3821V41.754H44.9959V39.7891Z" fill="#F49300" stroke="#F49300" stroke-width="0.25"/>
</svg>
