<svg width="72" height="70" viewBox="0 0 72 70" fill="none" xmlns="http://www.w3.org/2000/svg">
<path d="M3.65532 41.3001C3.23532 41.3001 2.95532 41.1601 2.67532 40.8801C2.53532 40.7401 0.715315 38.7801 0.155314 35.0001C-0.544687 30.2401 1.13532 24.92 4.91532 19.18C4.49532 18.34 4.63532 17.36 5.19532 16.66L12.3353 9.52002C12.7553 9.10002 13.3153 8.96002 13.8753 8.96002C14.4353 8.96002 14.8553 9.10002 15.2753 9.52002L16.5353 8.26001L16.1153 7.84001C15.5553 7.28001 15.5553 6.44001 16.1153 5.88001L20.7354 1.26C21.4354 0.420001 22.5554 0 23.6754 0C24.7954 0 25.9154 0.420001 26.6154 1.26L32.6354 7.28001C33.4754 8.12001 33.8954 9.10002 33.8954 10.22C33.8954 11.34 33.4754 12.46 32.6354 13.16L28.0154 17.78C27.4554 18.34 26.6154 18.34 26.0554 17.78L25.7754 17.5L24.5154 18.76C24.7954 19.18 24.9354 19.6 24.9354 20.02C24.9354 20.58 24.6554 21.14 24.2354 21.56L17.2353 28.5601C16.5353 29.2601 15.5553 29.4001 14.8553 28.9801C14.7153 28.9801 14.7153 28.9801 14.5753 28.9801C10.2353 29.5401 5.75532 34.7201 5.05532 39.9001C4.91532 40.4601 4.63532 40.8801 4.07532 41.0201C3.93532 41.3001 3.79532 41.3001 3.65532 41.3001ZM7.71533 18.34C7.99533 19.04 7.99533 19.88 7.57533 20.44C4.07532 25.62 2.53532 30.3801 2.95532 34.4401C3.09532 35.0001 3.09532 35.5601 3.23532 35.9801C5.19532 31.0801 9.67533 26.88 14.1553 26.32C14.4353 26.32 14.7153 26.32 14.9953 26.32C15.1353 26.32 15.4153 26.32 15.5553 26.46L21.8554 20.16C21.5754 19.74 21.5754 19.32 21.5754 18.9C21.5754 18.2 21.8554 17.64 22.2754 17.22L24.2354 15.26C25.0754 14.42 26.1954 14.28 27.1754 14.84L30.8154 11.34C31.0954 11.06 31.2354 10.78 31.2354 10.36C31.2354 9.94002 31.0954 9.66002 30.8154 9.38002L24.6554 3.22001C24.3754 2.94001 24.0954 2.8 23.6754 2.8C23.2554 2.8 22.9754 2.94001 22.6954 3.22001L19.0553 6.86001C19.6153 7.84001 19.4753 9.24002 18.6353 10.08L17.0953 11.62C16.5353 12.18 15.8353 12.46 15.1353 12.46C14.7153 12.46 14.2953 12.32 13.8753 12.18L7.71533 18.34Z" fill="#252525"/>
<path d="M56.7153 69.7204C56.5753 69.7204 56.5753 69.7204 56.7153 69.7204C54.8953 69.7204 53.3553 69.0204 52.0953 67.7604L18.0753 30.8003C17.5153 30.2403 17.5153 29.4003 18.0753 28.8403L24.7953 22.1203C25.3553 21.5603 26.1953 21.5603 26.7553 22.1203L63.5754 56.1404C64.8354 57.2604 65.5354 58.9404 65.5354 60.6204C65.5354 62.3004 64.9754 63.9804 63.7154 65.1004L61.0554 67.7604C59.9354 69.0204 58.3954 69.7204 56.7153 69.7204ZM21.0153 29.9603L54.1953 65.8004C54.8953 66.5004 55.7353 66.9204 56.5754 66.9204C57.5554 66.9204 58.3954 66.6404 59.0954 65.9404L61.7554 63.2804C62.4554 62.5804 62.7354 61.7404 62.7354 60.7604C62.7354 59.7804 62.3154 58.9404 61.6154 58.3804L25.7753 25.2003L21.0153 29.9603Z" fill="#252525"/>
<path d="M16.9554 69.9999C15.2754 69.9999 13.5954 69.2999 12.1954 68.0399C10.9354 66.7799 10.2354 65.0999 10.2354 63.2799C10.2354 61.4599 10.9354 59.7799 12.1954 58.5199L27.1754 43.5399C27.4554 43.2599 27.8754 43.1199 28.1554 43.1199C28.5754 43.1199 28.8554 43.2599 29.1354 43.5399L36.2754 51.2399C36.8354 51.7999 36.8354 52.6399 36.2754 53.1999L21.7154 68.0399C20.3154 69.2999 18.6354 69.9999 16.9554 69.9999ZM28.1554 46.7599L14.2954 60.6199C13.5954 61.3199 13.1754 62.2999 13.1754 63.2799C13.1754 64.2599 13.5954 65.2399 14.2954 65.9399C15.8354 67.4799 18.2154 67.4799 19.6154 65.9399L33.3354 52.2199L28.1554 46.7599Z" fill="#252525"/>
<path d="M48.3153 40.8801C48.0353 40.8801 47.6153 40.7401 47.3353 40.4601L39.6353 33.3201C39.3553 33.0401 39.2153 32.6201 39.2153 32.34C39.2153 32.06 39.3553 31.64 39.6353 31.36L44.1153 26.88C42.5753 21.98 43.9753 16.52 47.6153 12.88C51.1154 9.38001 56.1554 7.84001 61.0554 9.10001C61.6154 9.24001 61.8954 9.66001 62.0354 10.08C62.1754 10.64 62.0354 11.06 61.6154 11.48L53.6354 19.46C53.3554 19.74 53.3554 20.02 53.4954 20.3L55.1754 24.78C55.1754 24.92 55.4554 25.2 55.5954 25.2L60.0754 26.88C60.3554 27.02 60.6354 26.88 60.9154 26.74L68.8954 18.76C69.3154 18.34 69.7354 18.2 70.2954 18.34C70.8554 18.48 71.1354 18.9 71.2754 19.32C72.5354 24.22 71.1354 29.12 67.4954 32.76C63.8554 36.4001 58.3954 37.8001 53.3554 36.2601L49.1553 40.4601C49.0153 40.7401 48.5953 40.8801 48.3153 40.8801ZM42.7153 32.34L48.3153 37.5201L52.2354 33.6001C52.6554 33.1801 53.2154 33.0401 53.7754 33.3201C57.9754 34.8601 62.5954 33.8801 65.8154 30.8C67.9154 28.7 69.1754 25.76 69.1754 22.82L63.0154 28.56C62.0354 29.54 60.4954 29.96 59.0954 29.4L54.6154 27.86C53.6354 27.44 52.7954 26.74 52.5154 25.76L50.8354 21.28C50.2754 19.88 50.6954 18.48 51.6754 17.36L57.5554 11.48C54.6154 11.34 51.8154 12.6 49.5754 14.7C46.4953 17.78 45.5153 22.54 47.0553 26.6C47.1953 27.16 47.0553 27.72 46.7753 28.14L42.7153 32.34Z" fill="#252525"/>
</svg>
