<svg width="219" height="66" viewBox="0 0 219 66" fill="none" xmlns="http://www.w3.org/2000/svg">
<path d="M80.1 17.7C79 17.7 78.1 18.1 77.5 19C76.9 19.9 76.6 21 76.6 22.6C76.6 25.8 77.8 27.4 80.2 27.4C81.2 27.4 82.4 27.2 83.8 26.7V29.2C82.6 29.7 81.3 29.9 79.9 29.9C77.8 29.9 76.2 29.3 75.2 28C74.2 26.7 73.6 24.9 73.6 22.6C73.6 21.1 73.9 19.8 74.4 18.7C74.9 17.6 75.7 16.7 76.7 16.1C77.7 15.5 78.9 15.2 80.2 15.2C81.6 15.2 83 15.5 84.4 16.2L83.4 18.7C82.9 18.4 82.3 18.2 81.8 18C81.1 17.8 80.6 17.7 80.1 17.7Z" fill="#252525"/>
<path d="M99.4 22.5C99.4 24.9 98.8 26.7 97.6 27.9C96.4 29.1 94.8 29.8 92.6 29.8C90.4 29.8 88.7 29.2 87.6 27.9C86.5 26.6 85.8 24.8 85.8 22.5C85.8 20.1 86.4 18.3 87.6 17.1C88.8 15.9 90.4 15.2 92.6 15.2C94.8 15.2 96.5 15.8 97.6 17.1C98.9 18.3 99.4 20.2 99.4 22.5ZM89.1 22.5C89.1 24.1 89.4 25.3 90 26.1C90.6 26.9 91.5 27.3 92.7 27.3C95.1 27.3 96.3 25.7 96.3 22.5C96.3 19.3 95.1 17.7 92.7 17.7C91.5 17.7 90.6 18.1 90 18.9C89.4 19.7 89.1 20.9 89.1 22.5Z" fill="#252525"/>
<path d="M105.4 20.9H106.6C108.5 20.9 109.9 21.3 110.9 22C111.9 22.8 112.4 23.8 112.4 25.2C112.4 28.2 110.4 29.6 106.5 29.6H102.4V15.4H111.4V17.9H105.4V20.9ZM105.4 27.2H106.4C107.4 27.2 108.2 27 108.6 26.7C109.1 26.4 109.3 25.9 109.3 25.2C109.3 24.5 109.1 24.1 108.6 23.8C108.1 23.5 107.3 23.4 106.1 23.4H105.3V27.2H105.4Z" fill="#252525"/>
<path d="M121.1 17.7C120 17.7 119.1 18.1 118.5 19C117.9 19.9 117.6 21 117.6 22.6C117.6 25.8 118.8 27.4 121.2 27.4C122.2 27.4 123.4 27.2 124.8 26.7V29.2C123.6 29.7 122.3 29.9 120.9 29.9C118.8 29.9 117.2 29.3 116.2 28C115.2 26.7 114.6 24.9 114.6 22.6C114.6 21.1 114.9 19.8 115.4 18.7C115.9 17.6 116.7 16.7 117.7 16.1C118.7 15.5 119.9 15.2 121.2 15.2C122.6 15.2 124 15.5 125.4 16.2L124.4 18.7C123.9 18.4 123.3 18.2 122.8 18C122.2 17.8 121.7 17.7 121.1 17.7Z" fill="#252525"/>
<path d="M133.3 29.6H130.3V17.9H126.4V15.4H137.1V17.9H133.2V29.6H133.3Z" fill="#252525"/>
<path d="M139.3 15.4H143.7C145.7 15.4 147.2 15.7 148.1 16.3C149 16.9 149.5 17.8 149.5 19C149.5 19.9 149.3 20.5 148.9 21.1C148.5 21.6 148 22 147.3 22.1V22.2C148.2 22.4 148.9 22.8 149.3 23.3C149.7 23.9 149.9 24.6 149.9 25.5C149.9 26.8 149.4 27.8 148.5 28.5C147.6 29.2 146.3 29.6 144.7 29.6H139.4V15.4H139.3ZM142.3 21.1H144.1C144.9 21.1 145.5 21 145.9 20.7C146.3 20.4 146.4 20 146.4 19.4C146.4 18.9 146.2 18.5 145.8 18.2C145.4 18 144.8 17.8 143.9 17.8H142.3V21.1ZM142.3 23.4V27.1H144.3C145.1 27.1 145.7 26.9 146.1 26.6C146.5 26.3 146.7 25.8 146.7 25.1C146.7 23.9 145.9 23.3 144.2 23.3H142.3V23.4Z" fill="#252525"/>
<path d="M160.9 29.6H152.7V15.4H160.9V17.9H155.7V21H160.5V23.5H155.7V27.2H160.9V29.6Z" fill="#252525"/>
<path d="M175.5 29.6H172.5V23.5H166.9V29.6H163.9V15.4H166.9V21H172.5V15.4H175.5V29.6Z" fill="#252525"/>
<path d="M190.8 29.6H187.8V23.5H182.2V29.6H179.2V15.4H182.2V21H187.8V15.4H190.8V29.6Z" fill="#252525"/>
<path d="M207.3 22.5C207.3 24.9 206.7 26.7 205.5 27.9C204.3 29.1 202.7 29.8 200.5 29.8C198.3 29.8 196.6 29.2 195.5 27.9C194.4 26.6 193.7 24.8 193.7 22.5C193.7 20.1 194.3 18.3 195.5 17.1C196.7 15.9 198.3 15.2 200.5 15.2C202.7 15.2 204.4 15.8 205.5 17.1C206.7 18.3 207.3 20.2 207.3 22.5ZM196.9 22.5C196.9 24.1 197.2 25.3 197.8 26.1C198.4 26.9 199.3 27.3 200.5 27.3C202.9 27.3 204.1 25.7 204.1 22.5C204.1 19.3 202.9 17.7 200.5 17.7C199.3 17.7 198.4 18.1 197.8 18.9C197.2 19.7 196.9 20.9 196.9 22.5Z" fill="#252525"/>
<path d="M218.4 29.6H210.2V15.4H218.4V17.9H213.2V21H218V23.5H213.2V27.2H218.4V29.6Z" fill="#252525"/>
<path d="M83.6 50.7H81V40.6H76.5V50.8H73.9V38.4H83.7V50.7H83.6Z" fill="#252525"/>
<path d="M95.2 42.2C95.2 43.5 94.8 44.5 94 45.2C93.2 45.9 92 46.3 90.5 46.3H89.4V50.7H86.8V38.4H90.7C92.2 38.4 93.3 38.7 94.1 39.4C94.8 40 95.2 41 95.2 42.2ZM89.3 44.2H90.2C91 44.2 91.6 44 92 43.7C92.4 43.4 92.6 42.9 92.6 42.3C92.6 41.7 92.4 41.2 92.1 40.9C91.8 40.6 91.2 40.5 90.5 40.5H89.3V44.2Z" fill="#252525"/>
<path d="M108.8 44.5C108.8 46.5 108.3 48.1 107.3 49.2C106.3 50.3 104.8 50.8 103 50.8C101.2 50.8 99.7 50.3 98.7 49.2C97.7 48.1 97.2 46.5 97.2 44.5C97.2 42.5 97.7 40.9 98.7 39.8C99.7 38.7 101.2 38.2 103.1 38.2C105 38.2 106.4 38.7 107.4 39.8C108.3 40.9 108.8 42.5 108.8 44.5ZM99.8 44.5C99.8 45.9 100.1 46.9 100.6 47.6C101.1 48.3 101.9 48.6 102.9 48.6C105 48.6 106 47.2 106 44.4C106 41.6 105 40.2 102.9 40.2C101.9 40.2 101.1 40.5 100.5 41.2C99.9 41.9 99.8 43.2 99.8 44.5Z" fill="#252525"/>
<path d="M111.3 38.4H113.7V44.4V46L113.6 47.8H113.7L119.4 38.4H122.5V50.7H120.2V44.8C120.2 44 120.3 42.8 120.4 41.3H120.3L114.6 50.7H111.5V38.4H111.3Z" fill="#252525"/>
<path d="M134 41.3C134 42.1 133.7 42.7 133.2 43.3C132.6 43.8 131.9 44.1 130.9 44.3V44.4C132 44.5 132.9 44.8 133.5 45.3C134.1 45.8 134.4 46.5 134.4 47.3C134.4 48.4 133.9 49.3 133 50C132.1 50.7 130.8 51 129.2 51C127.4 51 125.9 50.8 124.8 50.3V48C125.3 48.3 125.9 48.5 126.7 48.6C127.4 48.7 128.1 48.8 128.7 48.8C130.8 48.8 131.8 48.2 131.8 47C131.8 46.5 131.5 46 130.8 45.7C130.1 45.4 129.1 45.3 127.8 45.3H126.6V43.3H127.6C128.9 43.3 129.9 43.2 130.4 42.9C131 42.7 131.3 42.2 131.3 41.7C131.3 41.3 131.1 40.9 130.7 40.7C130.3 40.4 129.8 40.3 129 40.3C127.8 40.3 126.7 40.6 125.6 41.3L124.5 39.6C125.2 39.1 125.9 38.8 126.7 38.6C127.5 38.4 128.4 38.3 129.3 38.3C130.6 38.3 131.7 38.6 132.5 39.1C133.3 39.6 134 40.4 134 41.3Z" fill="#252525"/>
<path d="M136.7 38.4H140.5C142.2 38.4 143.5 38.6 144.3 39.1C145.1 39.6 145.5 40.4 145.5 41.5C145.5 42.2 145.3 42.8 145 43.3C144.7 43.8 144.2 44.1 143.6 44.2V44.3C144.4 44.5 144.9 44.8 145.3 45.3C145.6 45.8 145.8 46.4 145.8 47.2C145.8 48.3 145.4 49.2 144.6 49.8C143.8 50.4 142.7 50.7 141.3 50.7H136.7V38.4ZM139.3 43.3H140.8C141.5 43.3 142 43.2 142.3 43C142.6 42.8 142.8 42.4 142.8 41.9C142.8 41.4 142.6 41.1 142.3 40.9C142 40.7 141.4 40.6 140.7 40.6H139.3V43.3ZM139.3 45.3V48.5H141C141.7 48.5 142.3 48.4 142.6 48.1C142.9 47.8 143.1 47.4 143.1 46.8C143.1 45.8 142.4 45.3 140.9 45.3H139.3Z" fill="#252525"/>
<path d="M159.5 44.5C159.5 46.5 159 48.1 158 49.2C157 50.3 155.5 50.8 153.6 50.8C151.7 50.8 150.3 50.3 149.2 49.2C148.2 48.1 147.7 46.5 147.7 44.5C147.7 42.5 148.2 40.9 149.2 39.8C150.2 38.7 151.7 38.2 153.6 38.2C155.5 38.2 156.9 38.7 157.9 39.8C159 40.9 159.5 42.5 159.5 44.5ZM150.5 44.5C150.5 45.9 150.8 46.9 151.3 47.6C151.8 48.3 152.6 48.6 153.6 48.6C155.7 48.6 156.7 47.2 156.7 44.4C156.7 41.6 155.7 40.2 153.6 40.2C152.6 40.2 151.8 40.5 151.2 41.2C150.6 41.9 150.5 43.2 150.5 44.5Z" fill="#252525"/>
<path d="M160.4 48.5H161.4C162.2 46.9 162.9 45.2 163.3 43.6C163.8 42 164.1 40.2 164.4 38.3H171.6V48.5H173.2V54.3H170.7V50.7H163V54.3H160.5V48.5H160.4ZM166.4 40.6C166.2 41.9 165.9 43.2 165.5 44.7C165.1 46.2 164.6 47.4 164.1 48.6H168.9V40.6H166.4Z" fill="#252525"/>
<path d="M180.3 40.4C179.3 40.4 178.6 40.8 178 41.5C177.5 42.2 177.2 43.3 177.2 44.6C177.2 47.3 178.2 48.7 180.3 48.7C181.2 48.7 182.2 48.5 183.4 48.1V50.3C182.4 50.7 181.3 50.9 180 50.9C178.2 50.9 176.8 50.4 175.9 49.3C175 48.2 174.5 46.7 174.5 44.6C174.5 43.3 174.7 42.2 175.2 41.2C175.7 40.2 176.3 39.5 177.2 39C178.1 38.5 179.1 38.2 180.3 38.2C181.5 38.2 182.7 38.5 183.9 39.1L183.1 41.2C182.6 41 182.2 40.8 181.7 40.6C181.2 40.4 180.8 40.4 180.3 40.4Z" fill="#252525"/>
<path d="M190.8 50.7H188.2V40.6H184.9V38.4H194.2V40.6H190.9V50.7H190.8Z" fill="#252525"/>
<path d="M196.1 38.4H199.9C201.6 38.4 202.9 38.6 203.7 39.1C204.5 39.6 204.9 40.4 204.9 41.5C204.9 42.2 204.7 42.8 204.4 43.3C204.1 43.8 203.6 44.1 203 44.2V44.3C203.8 44.5 204.3 44.8 204.7 45.3C205 45.8 205.2 46.4 205.2 47.2C205.2 48.3 204.8 49.2 204 49.8C203.2 50.4 202.1 50.7 200.7 50.7H196.1V38.4ZM198.7 43.3H200.2C200.9 43.3 201.4 43.2 201.7 43C202 42.8 202.2 42.4 202.2 41.9C202.2 41.4 202 41.1 201.7 40.9C201.4 40.7 200.8 40.6 200.1 40.6H198.7V43.3ZM198.7 45.3V48.5H200.4C201.1 48.5 201.7 48.4 202 48.1C202.3 47.8 202.5 47.4 202.5 46.8C202.5 45.8 201.8 45.3 200.3 45.3H198.7Z" fill="#252525"/>
<path d="M218.9 44.5C218.9 46.5 218.4 48.1 217.4 49.2C216.4 50.3 214.9 50.8 213 50.8C211.1 50.8 209.7 50.3 208.7 49.2C207.7 48.1 207.2 46.5 207.2 44.5C207.2 42.5 207.7 40.9 208.7 39.8C209.7 38.7 211.2 38.2 213.1 38.2C215 38.2 216.4 38.7 217.4 39.8C218.4 40.9 218.9 42.5 218.9 44.5ZM209.9 44.5C209.9 45.9 210.2 46.9 210.7 47.6C211.2 48.3 212 48.6 213 48.6C215.1 48.6 216.1 47.2 216.1 44.4C216.1 41.6 215.1 40.2 213 40.2C212 40.2 211.2 40.5 210.6 41.2C210.1 42.1 209.9 43.2 209.9 44.5Z" fill="#252525"/>
<path d="M5.5 39.2V47H13.2V39.3H5.5V39.2ZM10.6 44.5H8V41.9H10.6V44.5Z" fill="#F8AA1B"/>
<path d="M26.2 39.2V47H34V39.3H26.2V39.2ZM31.5 44.5H28.9V41.9H31.5V44.5Z" fill="#F8AA1B"/>
<path d="M5.5 49.6V57.3H13.2V49.6H5.5ZM10.6 54.9H8V52.3H10.6V54.9Z" fill="#F8AA1B"/>
<path d="M15.9 49.6V57.3H23.6V49.6H15.9ZM21 54.9H18.5H18.4V52.3H21V54.9Z" fill="#F8AA1B"/>
<path d="M15.9 39.2V47H23.6V39.3H15.9V39.2ZM21 44.5H18.5H18.4V41.9H21V44.5Z" fill="#F8AA1B"/>
<path d="M26.2 49.6V57.3H34V49.6H26.2ZM31.5 54.9H28.9V52.3H31.5V54.9Z" fill="#F8AA1B"/>
<path d="M36.8 39.2V47H44.5V39.3H36.8V39.2ZM41.9001 44.5H39.3V41.9H41.9001V44.5Z" fill="#F8AA1B"/>
<path d="M36.8 49.6V57.3H44.5V49.6H36.8ZM41.9001 54.9H39.3V52.3H41.9001V54.9Z" fill="#F8AA1B"/>
<path d="M47 49.6V57.3H54.7V49.6H47ZM52.2 54.9H49.6V52.3H52.2V54.9Z" fill="#F8AA1B"/>
<path d="M47 39.2V47H54.7V39.3H47V39.2ZM52.2 44.5H49.6V41.9H52.2V44.5Z" fill="#F8AA1B"/>
<path d="M52.9 62.4H49.7V65.5H52.9V62.4Z" fill="#F8AA1B"/>
<path d="M34.9 62.4H31.7V65.5H34.9V62.4Z" fill="#F8AA1B"/>
<path d="M40.9 62.4H37.7V65.5H40.9V62.4Z" fill="#F8AA1B"/>
<path d="M46.9 62.4H43.7V65.5H46.9V62.4Z" fill="#F8AA1B"/>
<path d="M55.1 31.3V15.6H46.9V31.2H42.1V15.6H33.9V31.2H28.8L23.9 0.2V0H7.8L3.1 31.3H0V65.5H28.9V62.4H3.1V34.2H57.6V62.3H55.7V65.4H60.7V31.3H55.1ZM6.2 31.3L10.5 3.2H21.3L25.6 31.3H6.2ZM39 31.3H36.9V18.8H39V31.3ZM52 31.3H49.9V18.8H52V31.3Z" fill="#252525"/>
<path d="M11.7 24.7H8.5V27.8H11.7V24.7Z" fill="#F8AA1B"/>
<path d="M17.7 24.7H14.5V27.8H17.7V24.7Z" fill="#F8AA1B"/>
<path d="M23.7 24.7H20.5V27.8H23.7V24.7Z" fill="#F8AA1B"/>
<path d="M14.7 11.7H11.5V14.8H14.7V11.7Z" fill="#F8AA1B"/>
<path d="M20.7 11.7H17.5V14.8H20.7V11.7Z" fill="#F8AA1B"/>
</svg>
