<svg width="202" height="72" viewBox="0 0 202 72" fill="none" xmlns="http://www.w3.org/2000/svg">
<path d="M92.2 19V21.5H86.2V33.3H83.2V19H92.2Z" fill="#252525"/>
<path d="M102.6 33.3H94.4V19H102.6V21.5H97.4V24.6H102.2V27.1H97.4V30.8H102.6V33.3Z" fill="#252525"/>
<path d="M118.5 26.1C118.5 28.5 117.9 30.3 116.7 31.5C115.5 32.7 113.8 33.4 111.7 33.4C109.6 33.4 107.8 32.8 106.7 31.5C105.6 30.2 104.9 28.4 104.9 26C104.9 23.6 105.5 21.8 106.7 20.6C107.9 19.4 109.6 18.7 111.8 18.7C114 18.7 115.7 19.3 116.8 20.6C117.9 21.9 118.5 23.8 118.5 26.1ZM108.1 26.1C108.1 27.7 108.4 28.9 109 29.7C109.6 30.5 110.5 30.9 111.7 30.9C114.1 30.9 115.3 29.3 115.3 26.1C115.3 22.9 114.1 21.3 111.7 21.3C110.5 21.3 109.6 21.7 109 22.5C108.4 23.3 108.1 24.5 108.1 26.1Z" fill="#252525"/>
<path d="M130.5 19V21.5H124.5V33.3H121.5V19H130.5Z" fill="#252525"/>
<path d="M142.6 23.5C142.6 25 142.1 26.2 141.2 27C140.3 27.8 138.9 28.2 137.1 28.2H135.8V33.3H132.8V19H137.4C139.1 19 140.4 19.4 141.4 20.1C142.4 20.8 142.6 22 142.6 23.5ZM135.7 25.7H136.7C137.6 25.7 138.3 25.5 138.8 25.1C139.3 24.7 139.5 24.2 139.5 23.5C139.5 22.8 139.3 22.3 138.9 21.9C138.5 21.5 137.9 21.4 137.1 21.4H135.7V25.7Z" fill="#252525"/>
<path d="M153.5 33.3L152.5 29.9H147.3L146.3 33.3H143L148 19H151.7L156.8 33.3H153.5ZM151.7 27.3C150.7 24.2 150.2 22.5 150.1 22.1C150 21.7 149.9 21.4 149.8 21.1C149.6 21.9 149 24 148 27.3H151.7Z" fill="#252525"/>
<path d="M163.8 33.5V31.3H163.6C162.4 31.3 161.3 31.1 160.4 30.7C159.5 30.3 158.8 29.6 158.2 28.8C157.6 28 157.4 27 157.4 26C157.4 25 157.6 24.1 158.1 23.3C158.6 22.5 159.2 21.9 160.1 21.4C161 20.9 162 20.7 163.2 20.7H163.7V18.9H166.4V20.7H166.9C168.1 20.7 169.1 20.9 170 21.4C170.9 21.9 171.6 22.5 172 23.3C172.4 24.1 172.7 25 172.7 26C172.7 27 172.4 28 171.9 28.8C171.4 29.6 170.7 30.3 169.7 30.7C168.7 31.1 167.7 31.3 166.5 31.3H166.3V33.5H163.8ZM163.8 22.9H163.4C162.4 22.9 161.7 23.2 161.1 23.7C160.5 24.2 160.3 24.9 160.3 25.8C160.3 26.7 160.6 27.5 161.2 28C161.8 28.5 162.6 28.8 163.7 28.8H163.8V22.9ZM166.5 28.9H166.6C167.6 28.9 168.5 28.6 169.1 28.1C169.7 27.6 170 26.8 170 25.8C170 24.9 169.7 24.2 169.2 23.7C168.7 23.2 167.9 22.9 166.9 22.9H166.5V28.9Z" fill="#252525"/>
<path d="M175.6 19H178.3V25.9V27.7L178.2 29.8H178.3L184.9 19H188.5V33.3H185.8V26.4C185.8 25.5 185.9 24.1 186 22.3H185.9L179.3 33.2H175.7V19H175.6Z" fill="#252525"/>
<path d="M196.8 27.8L193.5 33.3H190.1L194.2 27C193.4 26.7 192.8 26.2 192.3 25.5C191.8 24.8 191.7 24 191.7 23.1C191.7 21.8 192.2 20.8 193.1 20.1C194 19.4 195.4 19 197.1 19H201.7V33.3H198.7V27.8H196.8ZM198.7 21.5H197.2C196.4 21.5 195.8 21.6 195.4 21.9C195 22.2 194.8 22.6 194.8 23.3C194.8 23.9 195 24.4 195.4 24.8C195.8 25.2 196.5 25.3 197.3 25.3H198.7V21.5Z" fill="#252525"/>
<path d="M92 52.8H89.5V43.2H85.2V52.8H82.7V41.2H92V52.8Z" fill="#252525"/>
<path d="M103 44.8C103 46.1 102.6 47 101.8 47.7C101 48.4 99.9 48.7 98.5 48.7H97.4V52.8H94.9V41.2H98.6C100 41.2 101.1 41.5 101.8 42.1C102.6 42.7 103 43.6 103 44.8ZM97.4 46.7H98.2C99 46.7 99.5 46.6 99.9 46.3C100.3 46 100.5 45.6 100.5 45C100.5 44.4 100.3 44 100 43.7C99.7 43.4 99.2 43.3 98.5 43.3H97.4V46.7Z" fill="#252525"/>
<path d="M105.2 41.2H107.4V46.8V48.3L107.3 50L112.7 41.2H115.7V52.8H113.5V47.2C113.5 46.5 113.5 45.3 113.6 43.9H113.5L108.1 52.8H105.1V41.2H105.2Z" fill="#252525"/>
<path d="M123.5 43.1C122.6 43.1 121.9 43.4 121.3 44.1C120.8 44.8 120.5 45.8 120.5 47C120.5 49.6 121.5 50.9 123.4 50.9C124.2 50.9 125.2 50.7 126.4 50.3V52.4C125.4 52.8 124.4 53 123.2 53C121.5 53 120.2 52.5 119.3 51.5C118.4 50.5 118 49 118 47.1C118 45.9 118.2 44.8 118.7 43.9C119.2 43 119.8 42.3 120.6 41.8C121.4 41.3 122.4 41.1 123.5 41.1C124.6 41.1 125.8 41.4 126.9 41.9L126.1 43.9C125.7 43.7 125.2 43.5 124.8 43.4C124.4 43.3 124 43.1 123.5 43.1Z" fill="#252525"/>
<path d="M138.3 41.2L134.7 49.4C134.2 50.4 133.8 51.2 133.4 51.6C133 52 132.5 52.4 132 52.6C131.5 52.8 130.8 52.9 130 52.9C129.3 52.9 128.7 52.8 128.1 52.7V50.6C128.6 50.8 129.2 50.9 129.8 50.9C130.2 50.9 130.6 50.8 130.9 50.6C131.2 50.4 131.4 50 131.6 49.5L127.6 41.1H130.2L133.1 47.6H133.2C133.3 47.3 133.5 46.8 133.7 46.2L135.7 41.1H138.3V41.2Z" fill="#252525"/>
<path d="M144.3 52.8H141.8V43.2H138.6V41.1H147.4V43.2H144.2V52.8H144.3Z" fill="#252525"/>
<path d="M154 43.1C153.1 43.1 152.4 43.4 151.8 44.1C151.3 44.8 151 45.8 151 47C151 49.6 152 50.9 153.9 50.9C154.7 50.9 155.7 50.7 156.9 50.3V52.4C155.9 52.8 154.9 53 153.7 53C152 53 150.7 52.5 149.8 51.5C148.9 50.5 148.5 49 148.5 47.1C148.5 45.9 148.7 44.8 149.2 43.9C149.7 43 150.3 42.3 151.1 41.8C151.9 41.3 152.9 41.1 154 41.1C155.1 41.1 156.3 41.4 157.4 41.9L156.6 43.9C156.2 43.7 155.7 43.5 155.3 43.4C154.9 43.3 154.4 43.1 154 43.1Z" fill="#252525"/>
<path d="M163.9 52.8H161.4V43.2H158.2V41.1H167V43.2H163.8V52.8H163.9Z" fill="#252525"/>
<path d="M168.9 41.2H172.5C174.2 41.2 175.3 41.4 176.1 41.9C176.8 42.4 177.2 43.1 177.2 44.1C177.2 44.8 177 45.4 176.7 45.8C176.4 46.2 175.9 46.5 175.4 46.6V46.7C176.1 46.9 176.7 47.2 177 47.6C177.3 48 177.5 48.7 177.5 49.4C177.5 50.5 177.1 51.3 176.4 51.9C175.6 52.5 174.6 52.8 173.3 52.8H168.9V41.2ZM171.4 45.8H172.8C173.5 45.8 174 45.7 174.3 45.5C174.6 45.3 174.8 45 174.8 44.5C174.8 44.1 174.6 43.7 174.3 43.5C174 43.3 173.5 43.2 172.8 43.2H171.5V45.8H171.4ZM171.4 47.8V50.8H173C173.7 50.8 174.2 50.7 174.5 50.4C174.8 50.1 175 49.7 175 49.2C175 48.2 174.3 47.8 172.9 47.8H171.4Z" fill="#252525"/>
<path d="M179.8 41.2H182V46.8V48.3V50L187.4 41.2H190.4V52.8H188.2V47.2C188.2 46.5 188.2 45.3 188.3 43.9H188.2L182.8 52.8H179.8V41.2Z" fill="#252525"/>
<path d="M197.2 48.4L194.5 52.9H191.8L195.1 47.8C194.4 47.5 193.9 47.1 193.6 46.6C193.3 46 193.1 45.4 193.1 44.6C193.1 43.5 193.5 42.7 194.2 42.1C195 41.5 196 41.2 197.5 41.2H201.3V52.8H198.8V48.3H197.2V48.4ZM198.7 43.2H197.5C196.9 43.2 196.4 43.3 196 43.5C195.7 43.7 195.5 44.1 195.5 44.6C195.5 45.1 195.7 45.5 196 45.8C196.3 46.1 196.9 46.2 197.6 46.2H198.8V43.2H198.7Z" fill="#252525"/>
<path d="M34.9 71.6C34.3 71.6 33.8 71.4 33.3 71C32.2 70 11 51 11.1 33.8C11.3 20.7 22 10 34.9 10C47.8 10 58.4 20.7 58.5 33.8C58.6 43.9 51.2 56.6 37 70.3C36.8 70.5 36.6 70.7 36.4 70.9C36.1 71.3 35.5 71.6 34.9 71.6ZM34.9 14C24.1 14 15.3 22.9 15.1 33.8C15 47.2 30.5 62.8 34.8 66.9C47.6 54.3 54.6 42.6 54.6 33.8C54.4 22.9 45.6 14 34.9 14Z" fill="#252525"/>
<path d="M34.7999 47.9C26.9999 47.9 20.7 41.6 20.7 33.8C20.7 26 26.9999 19.7 34.7999 19.7C42.5999 19.7 48.9 26 48.9 33.8C48.9 41.6 42.5 47.9 34.7999 47.9ZM34.7999 23.7C29.1999 23.7 24.7 28.2 24.7 33.8C24.7 39.4 29.1999 43.9 34.7999 43.9C40.4 43.9 44.9 39.4 44.9 33.8C44.9 28.3 40.2999 23.7 34.7999 23.7Z" fill="#F8AA1B"/>
<path d="M10.1 59.4C9.6 58.9 9.1 58.4 8.7 57.9L11.7 55.2C12.1 55.7 12.5 56.1 13 56.6L10.1 59.4ZM60.6 58.1L57.6 55.4C58 54.9 58.4 54.5 58.8 54L61.9 56.5C61.6 57 61.1 57.6 60.6 58.1ZM7.3 56.3C6.9 55.7 6.5 55.2 6.1 54.6L9.4 52.3C9.8 52.8 10.1 53.3 10.5 53.8L7.3 56.3ZM63.2 54.8L60 52.5C60.4 52 60.7 51.5 61 50.9L64.4 53C64 53.6 63.6 54.2 63.2 54.8ZM5 52.8C4.6 52.2 4.3 51.6 4 51L7.5 49.2C7.8 49.8 8.1 50.3 8.4 50.8L5 52.8ZM65.4 51.2L61.9 49.3C62.2 48.8 62.5 48.2 62.7 47.6L66.3 49.3C66.1 50 65.8 50.6 65.4 51.2ZM3 49C2.7 48.4 2.5 47.7 2.2 47.1L6 45.7C6.2 46.3 6.5 46.9 6.7 47.4L3 49ZM67.2 47.4L63.5 45.9C63.7 45.3 63.9 44.7 64.1 44.1L67.9 45.3C67.7 46.1 67.4 46.7 67.2 47.4ZM1.5 45.1C1.3 44.4 1.1 43.8 0.9 43.1L4.8 42.2C4.9 42.8 5.1 43.4 5.3 44L1.5 45.1ZM68.5 43.4L64.6 42.4C64.8 41.8 64.9 41.2 65 40.6L68.9 41.3C68.8 42 68.7 42.7 68.5 43.4ZM0.6 41C0.5 40.3 0.4 39.6 0.3 38.9L4.3 38.4C4.4 39 4.5 39.6 4.6 40.2L0.6 41ZM69.3 39.2L65.3 38.7C65.4 38.1 65.4 37.5 65.5 36.8L69.5 37.1C69.4 37.8 69.4 38.5 69.3 39.2ZM0.1 36.8C0 36.2 0 35.5 0 34.8H4C4 35.4 4 36.1 4.1 36.7L0.1 36.8ZM69.5 35H65.5V34.8C65.5 34.2 65.5 33.7 65.5 33.2L69.5 33C69.5 33.6 69.5 34.2 69.5 34.9V35ZM4.1 32.9L0.1 32.7C0.1 32 0.2 31.3 0.3 30.6L4.3 31.1C4.2 31.6 4.1 32.2 4.1 32.9ZM65.4 31.3C65.3 30.7 65.2 30.1 65.1 29.5L69 28.8C69.1 29.5 69.2 30.2 69.3 30.9L65.4 31.3ZM4.5 29.2L0.6 28.5C0.7 27.8 0.9 27.1 1 26.4L4.9 27.4C4.8 27.9 4.6 28.6 4.5 29.2ZM64.7 27.6C64.6 27 64.4 26.4 64.2 25.8L68 24.7C68.2 25.4 68.4 26 68.5 26.7L64.7 27.6ZM5.4 25.6L1.6 24.4C1.8 23.7 2 23.1 2.3 22.4L6 23.8C5.8 24.4 5.6 25 5.4 25.6ZM63.6 24C63.4 23.4 63.2 22.8 62.9 22.3L66.6 20.7C66.9 21.3 67.1 22 67.4 22.7L63.6 24ZM6.7 22.1L3.1 20.5C3.4 19.9 3.7 19.2 4 18.6L7.5 20.5C7.3 20.9 7 21.5 6.7 22.1ZM62.1 20.6C61.8 20 61.5 19.5 61.2 19L64.6 17C65 17.6 65.3 18.2 65.6 18.8L62.1 20.6ZM8.5 18.8L5 16.7C5.4 16.1 5.7 15.5 6.1 14.9L9.4 17.2C9.1 17.7 8.8 18.2 8.5 18.8ZM60.3 17.4C60 16.9 59.6 16.4 59.2 15.9L62.4 13.5C62.8 14.1 63.2 14.6 63.6 15.2L60.3 17.4ZM10.6 15.7L7.4 13.2C7.8 12.6 8.3 12.1 8.7 11.6L11.7 14.2C11.4 14.7 11 15.2 10.6 15.7ZM58 14.5C57.6 14 57.2 13.6 56.7 13.1L59.5 10.3C60 10.8 60.5 11.3 60.9 11.8L58 14.5ZM13 12.9L10.2 10.1C10.7 9.59999 11.2 9.09999 11.7 8.69999L14.3 11.7C13.9 12 13.5 12.5 13 12.9ZM55.4 11.8C54.9 11.4 54.5 11 54 10.6L56.5 7.39999C57.1 7.79999 57.6 8.29999 58.1 8.69999L55.4 11.8ZM15.8 10.4L13.4 7.19999C14 6.79999 14.5 6.39999 15.1 5.99999L17.4 9.29999C16.8 9.69999 16.3 10.1 15.8 10.4ZM52.4 9.49999C51.9 9.09999 51.4 8.79999 50.8 8.49999L52.9 5.09999C53.5 5.49999 54.1 5.79999 54.7 6.19999L52.4 9.49999ZM18.9 8.29999L16.9 4.89999C17.5 4.49999 18.1 4.19999 18.7 3.89999L20.5 7.49999C20 7.69999 19.4 7.99999 18.9 8.29999ZM49.2 7.59999C48.7 7.29999 48.1 6.99999 47.5 6.79999L49.2 3.19999C49.8 3.49999 50.5 3.79999 51.1 4.09999L49.2 7.59999ZM22.2 6.59999L20.6 2.99999C21.2 2.69999 21.9 2.49999 22.5 2.19999L23.9 5.99999C23.4 6.19999 22.8 6.39999 22.2 6.59999ZM45.8 5.99999C45.2 5.79999 44.6 5.59999 44 5.39999L45.2 1.59999C45.9 1.79999 46.5 1.99999 47.2 2.29999L45.8 5.99999ZM25.7 5.29999L24.5 1.49999C25.2 1.29999 25.8 1.09999 26.5 0.899994L27.4 4.79999C26.9 4.99999 26.3 5.19999 25.7 5.29999ZM42.3 4.89999C41.7 4.69999 41.1 4.59999 40.5 4.49999L41.2 0.599994C41.9 0.699994 42.6 0.899994 43.3 0.999994L42.3 4.89999ZM29.3 4.49999L28.6 0.599994C29.3 0.499994 30 0.399994 30.7 0.299994L31.2 4.29999C30.6 4.29999 29.9 4.39999 29.3 4.49999ZM38.6 4.19999C38 4.09999 37.4 4.09999 36.7 3.99999L37 -6.10203e-06C37.7 -6.10203e-06 38.4 0.0999939 39.1 0.199994L38.6 4.19999ZM33 3.99999L32.8 -6.10203e-06C33.4 -6.10203e-06 34.1 -0.100006 34.8 -0.100006H35V3.89999H34.9C34.2 3.99999 33.6 3.99999 33 3.99999Z" fill="#F8AA1B"/>
</svg>
