<svg width="200" height="66" viewBox="0 0 200 66" fill="none" xmlns="http://www.w3.org/2000/svg">
<path d="M97.9 30.8H102.3V19H105.3V33.3H87.3V19H90.3V30.8H94.7V19H97.7V30.8H97.9Z" fill="#252525"/>
<path d="M109.3 19H112V25.9V27.7L111.9 29.8H112L118.6 19H122.2V33.3H119.5V26.4C119.5 25.5 119.6 24.1 119.7 22.3H119.6L113 33.2H109.4V19H109.3Z" fill="#252525"/>
<path d="M135.9 23.5C135.9 25 135.4 26.2 134.5 27C133.6 27.8 132.2 28.2 130.4 28.2H129.1V33.3H126.1V19H130.7C132.4 19 133.7 19.4 134.7 20.1C135.7 20.8 135.9 22 135.9 23.5ZM129.1 25.7H130.1C131 25.7 131.7 25.5 132.2 25.1C132.7 24.7 132.9 24.2 132.9 23.5C132.9 22.8 132.7 22.3 132.3 21.9C131.9 21.5 131.3 21.4 130.5 21.4H129.1V25.7Z" fill="#252525"/>
<path d="M151.8 26.1C151.8 28.5 151.2 30.3 150 31.5C148.8 32.8 147.1 33.4 145 33.4C142.9 33.4 141.1 32.8 140 31.5C138.8 30.2 138.2 28.4 138.2 26C138.2 23.6 138.8 21.8 140 20.6C141.2 19.4 142.9 18.7 145.1 18.7C147.3 18.7 149 19.3 150.1 20.6C151.2 21.9 151.8 23.8 151.8 26.1ZM141.4 26.1C141.4 27.7 141.7 28.9 142.3 29.7C142.9 30.5 143.8 30.9 145 30.9C147.4 30.9 148.6 29.3 148.6 26.1C148.6 22.9 147.4 21.3 145 21.3C143.8 21.3 142.9 21.7 142.3 22.5C141.7 23.3 141.4 24.5 141.4 26.1Z" fill="#252525"/>
<path d="M166.7 33.3H163.3L158.1 26.1V33.3H155.1V19H158.1V25.9L163.2 19H166.4L161.2 25.9L166.7 33.3Z" fill="#252525"/>
<path d="M168.8 19H171.5V25.9V27.7L171.4 29.8H171.5L178.1 19H181.7V33.3H179V26.4C179 25.5 179.1 24.1 179.2 22.3H179.1L172.5 33.2H168.9V19H168.8Z" fill="#252525"/>
<path d="M185.6 19H188.3V25.9V27.7L188.2 29.8H188.3L194.9 19H198.5V33.3H195.8V26.4C195.8 25.5 195.9 24.1 196 22.3H195.9L189.3 33.2H185.7V19H185.6ZM196.8 14.4C196.7 15.6 196.2 16.5 195.4 17.1C194.6 17.7 193.5 17.9 192 17.9C190.5 17.9 189.3 17.6 188.6 17.1C187.9 16.6 187.4 15.7 187.4 14.4H190.1C190.1 15.1 190.3 15.5 190.6 15.8C190.9 16.1 191.4 16.2 192.2 16.2C192.9 16.2 193.3 16.1 193.7 15.8C194 15.5 194.2 15 194.3 14.4H196.8Z" fill="#252525"/>
<path d="M93.5001 51.3L92.7001 48.8H88.8001L88.0001 51.3H85.6001L89.4001 40.5H92.2001L96.0001 51.3H93.5001ZM92.2001 46.8C91.5001 44.5 91.1001 43.2 91.0001 42.9C90.9001 42.6 90.8001 42.4 90.8001 42.2C90.6001 42.8 90.2001 44.4 89.4001 46.8H92.2001Z" fill="#252525"/>
<path d="M101.9 42.3C101 42.3 100.4 42.6 99.8999 43.3C99.3999 43.9 99.1999 44.8 99.1999 46C99.1999 48.4 100.1 49.6 101.9 49.6C102.7 49.6 103.6 49.4 104.6 49V50.9C103.7 51.3 102.7 51.4 101.7 51.4C100.1 51.4 98.9999 50.9 98.0999 50C97.2999 49.1 96.8999 47.7 96.8999 45.9C96.8999 44.8 97.0999 43.8 97.4999 43C97.8999 42.2 98.4999 41.5 99.1999 41.1C99.9999 40.7 100.8 40.4 101.9 40.4C102.9 40.4 104 40.7 105 41.2L104.3 43C103.9 42.8 103.5 42.6 103.1 42.5C102.7 42.4 102.2 42.3 101.9 42.3Z" fill="#252525"/>
<path d="M111.3 42.3C110.4 42.3 109.8 42.6 109.3 43.3C108.8 43.9 108.6 44.8 108.6 46C108.6 48.4 109.5 49.6 111.3 49.6C112.1 49.6 113 49.4 114 49V50.9C113.1 51.3 112.1 51.4 111.1 51.4C109.5 51.4 108.4 50.9 107.5 50C106.7 49.1 106.3 47.7 106.3 45.9C106.3 44.8 106.5 43.8 106.9 43C107.3 42.2 107.9 41.5 108.6 41.1C109.4 40.7 110.2 40.4 111.3 40.4C112.3 40.4 113.4 40.7 114.4 41.2L113.7 43C113.3 42.8 112.9 42.6 112.5 42.5C112.1 42.4 111.7 42.3 111.3 42.3Z" fill="#252525"/>
<path d="M125.8 45.9C125.8 47.7 125.4 49 124.5 50C123.6 51 122.4 51.4 120.7 51.4C119 51.4 117.8 51 117 50C116.2 49 115.7 47.7 115.7 45.9C115.7 44.1 116.1 42.8 117 41.8C117.9 40.9 119.1 40.4 120.8 40.4C122.4 40.4 123.7 40.9 124.6 41.8C125.4 42.8 125.8 44.1 125.8 45.9ZM118 45.9C118 47.1 118.2 48 118.7 48.6C119.2 49.2 119.8 49.5 120.7 49.5C122.5 49.5 123.4 48.3 123.4 45.9C123.4 43.5 122.5 42.3 120.7 42.3C119.8 42.3 119.1 42.6 118.7 43.2C118.3 43.8 118 44.7 118 45.9Z" fill="#252525"/>
<path d="M135.5 43.9C135.5 45.1 135.1 45.9 134.4 46.5C133.7 47.1 132.7 47.4 131.3 47.4H130.3V51.2H128V40.6H131.4C132.7 40.6 133.7 40.9 134.4 41.4C135.1 42 135.5 42.8 135.5 43.9ZM130.3 45.6H131C131.7 45.6 132.2 45.5 132.6 45.2C132.9 44.9 133.1 44.5 133.1 44C133.1 43.5 133 43.1 132.7 42.8C132.4 42.5 132 42.4 131.3 42.4H130.3V45.6Z" fill="#252525"/>
<path d="M141.6 51.3H139.3V42.5H136.4V40.6H144.5V42.5H141.6V51.3Z" fill="#252525"/>
<path d="M146.2 40.6H148.2V45.8V47.2L148.1 48.8L153 40.7H155.7V51.4H153.7V46.3C153.7 45.6 153.7 44.6 153.8 43.2H153.7L148.7 51.4H146V40.6H146.2Z" fill="#252525"/>
<path d="M163 51.3L160.4 42.9H160.3C160.4 44.6 160.4 45.7 160.4 46.3V51.3H158.4V40.6H161.5L164 48.8L166.7 40.6H169.8V51.3H167.7V46.2C167.7 46 167.7 45.7 167.7 45.4C167.7 45.1 167.7 44.3 167.8 42.9H167.7L164.9 51.3H163Z" fill="#252525"/>
<path d="M178.8 51.3H172.6V40.6H178.8V42.5H174.9V44.9H178.5V46.8H174.9V49.6H178.8V51.3Z" fill="#252525"/>
<path d="M189.8 51.3H187.5V46.7H183.3V51.3H181V40.6H183.3V44.8H187.5V40.6H189.8V51.3Z" fill="#252525"/>
<path d="M196.7 51.3H194.4V42.5H191.5V40.6H199.6V42.5H196.7V51.3Z" fill="#252525"/>
<path d="M26 18.7H20V22.2H26V18.7Z" fill="#252525"/>
<path d="M62.2 48.8H21C19.9 48.8 19 48.1 18.8 47.1L9.9 15.3H0V11.8H11.1C12.1 11.8 13 12.5 13.1 13.5L22 45.3H61.2L67.5 22.4H57.5V18.9H69.2C70.5 18.9 71.4 19.8 71.4 21.1V21.3L64.2 47.6L63.9 48C63.6 48.2 63.1 48.8 62.2 48.8Z" fill="#252525"/>
<path d="M61.7001 27.5H56.6001V31H61.7001V27.5Z" fill="#252525"/>
<path d="M28.1 27.5H23V31H28.1V27.5Z" fill="#252525"/>
<path d="M58.0999 36.2H25.8999V39.7H58.0999V36.2Z" fill="#252525"/>
<path d="M29.7999 65.8C25.8999 65.8 22.7 62.6 22.7 58.7C22.7 54.8 25.8999 51.6 29.7999 51.6C33.6999 51.6 36.9 54.8 36.9 58.7C36.9 62.6 33.6999 65.8 29.7999 65.8ZM29.7999 55.1C27.7999 55.1 26.2 56.7 26.2 58.7C26.2 60.7 27.7999 62.3 29.7999 62.3C31.7999 62.3 33.4 60.7 33.4 58.7C33.4 56.7 31.7999 55.1 29.7999 55.1Z" fill="#252525"/>
<path d="M31.6001 56.9H28.1001V60.4H31.6001V56.9Z" fill="#252525"/>
<path d="M52.7999 65.8C48.8999 65.8 45.7 62.6 45.7 58.7C45.7 54.8 48.8999 51.6 52.7999 51.6C56.6999 51.6 59.9 54.8 59.9 58.7C59.9 62.6 56.6999 65.8 52.7999 65.8ZM52.7999 55.1C50.7999 55.1 49.2 56.7 49.2 58.7C49.2 60.7 50.7999 62.3 52.7999 62.3C54.7999 62.3 56.4 60.7 56.4 58.7C56.4 56.7 54.7999 55.1 52.7999 55.1Z" fill="#252525"/>
<path d="M54.6001 56.9H51.1001V60.4H54.6001V56.9Z" fill="#252525"/>
<path d="M49 18.4H35.3V21.9H49V18.4Z" fill="#F8AA1B"/>
<path d="M43.8 13.3H40.3V27H43.8V13.3Z" fill="#F8AA1B"/>
<path d="M42.0999 34.4C34.2999 34.4 27.8999 28 27.8999 20.2C27.8999 12.4 34.1999 6 42.0999 6C49.9999 6 56.2999 12.4 56.2999 20.2C56.2999 28 49.8999 34.4 42.0999 34.4ZM42.0999 9.5C36.1999 9.5 31.3999 14.3 31.3999 20.2C31.3999 26.1 36.1999 30.9 42.0999 30.9C47.9999 30.9 52.7999 26.1 52.7999 20.2C52.7999 14.3 47.9999 9.5 42.0999 9.5Z" fill="#F8AA1B"/>
<path d="M27.2001 15.9L23.8 15.3C23.9 14.6 24.1 13.9 24.3 13.2L27.7001 14.2C27.4001 14.7 27.3001 15.3 27.2001 15.9ZM56.5 14.9C56.4001 14.3 56.2001 13.8 56 13.2L59.3 12C59.5 12.7 59.8001 13.4 59.9001 14.1L56.5 14.9ZM28.2001 12.5L25 11.1C25.3 10.4 25.6 9.8 26 9.1L29 10.9C28.7 11.4 28.5001 11.9 28.2001 12.5ZM55.3 11.6C55 11.1 54.7001 10.6 54.4001 10.1L57.3 8.2C57.7001 8.8 58.1001 9.4 58.4001 10.1L55.3 11.6ZM30 9.4L27.2001 7.3C27.6001 6.7 28.1 6.2 28.6 5.6L31.1 8C30.8 8.5 30.4 8.9 30 9.4ZM53.3 8.6C52.9 8.2 52.5 7.7 52.1 7.3L54.5 4.7C55 5.2 55.6 5.7 56 6.3L53.3 8.6ZM32.5 6.9L30.3 4.2C30.9 3.7 31.5 3.3 32.1 2.9L34 5.9C33.4 6.1 33 6.5 32.5 6.9ZM50.7001 6.2C50.2001 5.9 49.7001 5.5 49.2001 5.3L50.9001 2.2C51.5001 2.5 52.2 2.9 52.8 3.4L50.7001 6.2ZM35.5 5L34 1.8C34.7 1.5 35.3 1.2 36 1L37.1 4.3C36.6 4.5 36 4.7 35.5 5ZM47.6 4.5C47 4.3 46.5001 4.1 45.9001 4L46.8 0.6C47.5 0.8 48.2001 1 48.9001 1.3L47.6 4.5ZM38.9001 3.8L38.2001 0.4C38.9001 0.2 39.6001 0.1 40.4001 0.1L40.7001 3.6C40 3.6 39.4001 3.7 38.9001 3.8ZM44.2001 3.6C43.6 3.5 43.0001 3.5 42.4001 3.5L42.5 0C43.2001 0 44 0.1 44.7001 0.2L44.2001 3.6Z" fill="#F8AA1B"/>
</svg>
