<svg width="71" height="65" viewBox="0 0 71 65" fill="none" xmlns="http://www.w3.org/2000/svg">
<path d="M26.0001 26V28.6277H5.25537V26H26.0001ZM22.4043 5.25537H8.85112V7.88303H22.4043V5.25537ZM24.3405 15.6277H6.63835V18.2554H24.3405V15.6277ZM5.25537 39.0001H13.0001V46.7447H5.25537V39.0001ZM7.74473 44.2554H10.3724V41.6277H7.74473V44.2554ZM26.0001 39.0001H33.7447V46.7447H26.0001V39.0001ZM28.6277 44.2554H31.2554V41.6277H28.6277V44.2554ZM5.25537 49.3724H13.0001V57.1171H5.25537V49.3724ZM7.74473 54.6277H10.3724V52H7.74473V54.6277ZM15.6277 49.3724H23.3724V57.1171H15.6277V49.3724ZM18.2554 54.6277H20.7447V52H18.1171V54.6277H18.2554ZM15.6277 39.0001H23.3724V46.7447H15.6277V39.0001ZM18.2554 44.2554H20.7447V41.6277H18.1171V44.2554H18.2554ZM26.0001 49.3724H33.7447V57.1171H26.0001V49.3724ZM28.6277 54.6277H31.2554V52H28.6277V54.6277ZM36.3724 39.0001H44.2554V46.7447H36.5107V39.0001H36.3724ZM39.0001 44.2554H41.6277V41.6277H39.0001V44.2554ZM36.3724 49.3724H44.2554V57.1171H36.5107V49.3724H36.3724ZM39.0001 54.6277H41.6277V52H39.0001V54.6277ZM46.7447 49.3724H54.4894V57.1171H46.7447V49.3724ZM49.3724 54.6277H52.0001V52H49.3724V54.6277ZM46.7447 39.0001H54.4894V46.7447H46.7447V39.0001ZM49.3724 44.2554H52.0001V41.6277H49.3724V44.2554ZM57.2554 49.3724H65.0001V57.1171H57.2554V49.3724ZM59.7447 54.6277H62.3724V52H59.7447V54.6277ZM65.0001 39.0001V46.7447H57.2554V39.0001H65.0001ZM62.3724 41.6277H59.7447V44.2554H62.3724V41.6277Z" fill="#808080"/>
<path d="M67.6277 15.6277H59.883V31.2553H54.6277V15.6277H46.883V31.2553H41.6277V15.6277H33.883V31.2553H28.3511L23.3723 0H7.74468L3.04255 31.2553H0V65H70.2553V31.2553H67.6277V15.6277ZM62.3723 18.2553H65V31.2553H62.3723V18.2553ZM49.3723 18.2553H52V31.2553H49.3723V18.2553ZM36.3723 18.2553H39V31.2553H36.3723V18.2553ZM10.0957 2.62766H21.2979L25.7234 31.2553H5.67021L10.0957 2.62766ZM67.6277 62.3723H2.62766V33.7447H67.6277V62.3723Z" fill="#808080"/>
</svg>
