<svg width="192" height="70" viewBox="0 0 192 70" fill="none" xmlns="http://www.w3.org/2000/svg">
<path d="M108.9 23.4C108.9 24.3 108.6 25.1 107.9 25.7C107.2 26.3 106.3 26.7 105.2 26.9V27C106.5 27.1 107.6 27.5 108.3 28.1C109 28.7 109.4 29.5 109.4 30.5C109.4 31.8 108.9 32.9 107.8 33.7C106.7 34.5 105.2 34.9 103.3 34.9C101.2 34.9 99.3999 34.6 98.0999 34.1V31.5C98.6999 31.8 99.4999 32 100.3 32.2C101.1 32.4 101.9 32.5 102.7 32.5C105.2 32.5 106.4 31.8 106.4 30.3C106.4 29.7 106 29.2 105.2 28.8C104.4 28.5 103.2 28.3 101.7 28.3H100.3V25.9H101.5C103 25.9 104.2 25.8 104.9 25.5C105.6 25.2 106 24.7 106 24C106 23.5 105.8 23.1 105.3 22.8C104.9 22.5 104.2 22.4 103.3 22.4C101.9 22.4 100.6 22.8 99.2999 23.6L97.8999 21.5C98.6999 20.9 99.5999 20.5 100.6 20.3C101.5 20 102.6 19.9 103.7 19.9C105.3 19.9 106.6 20.2 107.5 20.9C108.5 21.4 108.9 22.3 108.9 23.4Z" fill="#252525"/>
<path d="M123.5 34.6L122.4 31.1H117.1L116 34.6H112.7L117.9 19.9H121.7L126.9 34.6H123.5ZM121.7 28.5C120.7 25.3 120.2 23.6 120 23.1C119.9 22.7 119.8 22.4 119.7 22.1C119.5 23 118.8 25.1 117.8 28.4H121.7V28.5Z" fill="#252525"/>
<path d="M134.3 25.6H135.5C137.4 25.6 138.9 26 139.9 26.8C140.9 27.6 141.5 28.7 141.5 30.1C141.5 33.1 139.5 34.7 135.5 34.7H131.2V20H140.4V22.6H134.3V25.6ZM134.3 32.1H135.3C136.3 32.1 137.1 31.9 137.6 31.6C138.1 31.3 138.3 30.8 138.3 30.1C138.3 29.4 138.1 28.9 137.6 28.6C137.1 28.3 136.3 28.2 135.1 28.2H134.3V32.1Z" fill="#252525"/>
<path d="M160 27.3C160 29.7 159.4 31.6 158.2 32.9C157 34.2 155.3 34.9 153 34.9C150.7 34.9 149 34.2 147.8 32.9C146.6 31.6 146 29.7 146 27.3C146 24.9 146.6 23 147.8 21.7C149 20.4 150.7 19.8 153 19.8C155.3 19.8 157 20.4 158.2 21.7C159.4 23 160 24.8 160 27.3ZM149.3 27.3C149.3 28.9 149.6 30.2 150.2 31C150.8 31.8 151.7 32.2 153 32.2C155.5 32.2 156.7 30.6 156.7 27.3C156.7 24 155.5 22.4 153 22.4C151.8 22.4 150.8 22.8 150.2 23.6C149.6 24.4 149.3 25.6 149.3 27.3Z" fill="#252525"/>
<path d="M170.8 34.6H167.7V22.6H163.7V20H174.8V22.6H170.8V34.6Z" fill="#252525"/>
<path d="M187.8 34.6L186.7 31.1H181.4L180.3 34.6H177L182.2 19.9H186L191.2 34.6H187.8ZM186 28.5C185 25.3 184.5 23.6 184.3 23.1C184.2 22.7 184.1 22.4 184 22.1C183.8 23 183.1 25.1 182.1 28.4H186V28.5Z" fill="#252525"/>
<path d="M107.7 46.4C107.7 48.1 107.3 49.4 106.4 50.4C105.6 51.3 104.3 51.8 102.7 51.8C101.1 51.8 99.9 51.3 99 50.4C98.2 49.5 97.7 48.2 97.7 46.4C97.7 44.6 98.1 43.4 99 42.5C99.9 41.6 101.1 41.1 102.7 41.1C104.3 41.1 105.5 41.6 106.3 42.5C107.3 43.4 107.7 44.7 107.7 46.4ZM100.1 46.4C100.1 47.6 100.3 48.4 100.8 49C101.2 49.6 101.9 49.9 102.8 49.9C104.6 49.9 105.4 48.7 105.4 46.4C105.4 44.1 104.5 42.9 102.8 42.9C101.9 42.9 101.3 43.2 100.8 43.8C100.3 44.4 100.1 45.3 100.1 46.4Z" fill="#252525"/>
<path d="M122 51.6H119.5L115.7 46.4V51.6H113.5V41.3H115.7V46.3L119.4 41.3H121.7L117.9 46.3L122 51.6Z" fill="#252525"/>
<path d="M131.5 51.6H129.3V43.1H126.8L126.7 44C126.4 46.4 126.1 48.1 125.9 49.1C125.7 50.1 125.4 50.8 124.9 51.1C124.5 51.5 123.9 51.7 123.1 51.7C122.7 51.7 122.4 51.6 122.1 51.5V49.7C122.4 49.8 122.6 49.8 122.9 49.8C123.2 49.8 123.3 49.7 123.5 49.5C123.6 49.3 123.8 48.8 123.9 48.2C124 47.6 124.2 46.6 124.4 45.1C124.6 43.7 124.8 42.3 124.9 41.1H131.4V51.6H131.5Z" fill="#252525"/>
<path d="M134.1 41.3H136.1V46.3V47.6L136 49.1L140.8 41.2H143.4V51.6H141.4V46.6C141.4 45.9 141.4 44.9 141.5 43.6H141.4L136.6 51.5H134V41.3H134.1Z" fill="#252525"/>
<path d="M152 51.6H146V41.3H152V43.1H148.2V45.4H151.7V47.2H148.2V49.9H152V51.6Z" fill="#252525"/>
<path d="M162.7 51.6H160.5V47.1H156.4V51.6H154.2V41.3H156.4V45.4H160.5V41.3H162.7V51.6Z" fill="#252525"/>
<path d="M169.3 51.6H167.1V43.1H164.3V41.3H172.1V43.1H169.3V51.6Z" fill="#252525"/>
<path d="M179.5 51.6L178.7 49.1H175L174.2 51.6H171.8L175.5 41.2H178.2L181.9 51.6H179.5ZM178.2 47.3C177.5 45.1 177.1 43.8 177 43.5C176.9 43.2 176.8 43 176.8 42.8C176.6 43.4 176.2 44.9 175.5 47.3H178.2Z" fill="#252525"/>
<path d="M191.6 51.6H189.1L186.7 47.7L184.3 51.6H181.9L185.3 46.3L182.1 41.3H184.5L186.7 45L188.9 41.3H191.3L188 46.4L191.6 51.6Z" fill="#252525"/>
<path d="M43.4 69.5C38.3 69.5 33.4 68.4 28.8 66.3L28.4 66.1L30 62.7L30.4 62.9C34.5 64.8 38.9 65.8 43.4 65.8C46.6 65.8 49.9 65.3 53 64.3C60.9 61.7 67.3 56.3 71 48.9C74.8 41.5 75.4 33.1 72.9 25.3L72.3 23.5L79 21.3L71.7 15.6L69.2 24.5L70.6 24L71.8 27.6L63.7 30.2L69.7 9.09998L86.9 22.7L77 25.8C79.2 34.1 78.3 42.8 74.4 50.5C70.2 58.8 63 64.9 54.2 67.8C50.7 68.9 47.1 69.5 43.4 69.5Z" fill="#F8AA1B"/>
<path d="M25.2 64.3C23.2 63 21.3 61.6 19.5 60L19.1 59.7L21.7 57L22.1 57.3C23.6 58.7 25.3 60 27.2 61.2L27.6 61.5L25.6 64.7L25.2 64.3Z" fill="#F8AA1B"/>
<path d="M0 46.9L9.8 43.7C7.6 35.4 8.5 26.7 12.4 19C16.6 10.7 23.8 4.6 32.6 1.7C36.2 0.6 39.8 0 43.5 0C48.6 0 53.5 1.1 58.1 3.2L58.5 3.4L56.9 6.8L56.5 6.6C52.4 4.7 48 3.7 43.5 3.7C40.3 3.7 37 4.2 33.9 5.2C17.6 10.6 8.7 28.1 14 44.3L14.6 46.1L7.9 48.3L15.2 54L17.7 45.1L16.3 45.6L15.1 42L23.2 39.4L17.2 60.5L0 46.9Z" fill="#F8AA1B"/>
<path d="M64.6999 12.2C63.1999 10.8 61.4999 9.49999 59.5999 8.29999L59.2 7.99999L61.2 4.79999L61.5999 5.09999C63.5999 6.39999 65.5 7.79999 67.3 9.39999L67.6999 9.69999L65.0999 12.4L64.6999 12.2Z" fill="#F8AA1B"/>
<path d="M44.4001 56C33.5001 56 25.8 53.4 25.8 49.7C25.8 41.7 30.9 34.6 38.5 32.1C33.3 28.9 31.7 22.1 34.8 16.9C36.8 13.5 40.5001 11.5 44.4001 11.5C46.4001 11.5 48.4 12 50.1 13.1C55.4 16.3 57.1 23.2 54 28.4C53.1 29.9 51.8 31.2 50.3 32.1C57.9 34.7 63 41.8 63 49.8C63 53.4 55.2001 56 44.4001 56ZM41.6 34.1C34 35.5 28.5 42 28.5 49.8C28.5 51.2 35.3001 53.4 44.4001 53.4C53.2001 53.4 60.3 51.2 60.3 49.8C60.3 42.4 55.3 36 48 34.3C47.5 35.1 47.2001 35.7 47 36.2L49.6 48.1C49.7 48.6 49.5 49.2 49 49.5L45.5 51.7C45.3 51.8 45 51.9 44.8 51.9C44.6 51.9 44.3 51.8 44.1 51.7L40.6 49.5C40.1 49.2 39.9 48.6 40 48.1L42.6 36.2L41.6 34.1ZM44.4001 14.1C39.7001 14.1 35.9001 17.9 35.9001 22.6C35.9001 27.3 39.7001 31.1 44.4001 31.1C49.1001 31.1 52.9001 27.3 52.9001 22.6C52.9001 18 49.1001 14.1 44.4001 14.1Z" fill="#252525"/>
</svg>
