<svg width="192" height="70" viewBox="0 0 192 70" fill="#252525x" xmlns="http://www.w3.org/2000/svg">
<path d="M3.65532 41.3001C3.23532 41.3001 2.95532 41.1601 2.67532 40.8801C2.53532 40.7401 0.715315 38.7801 0.155314 35.0001C-0.544687 30.2401 1.13532 24.92 4.91532 19.18C4.49532 18.34 4.63532 17.36 5.19532 16.66L12.3353 9.52002C12.7553 9.10002 13.3153 8.96002 13.8753 8.96002C14.4353 8.96002 14.8553 9.10002 15.2753 9.52002L16.5353 8.26001L16.1153 7.84001C15.5553 7.28001 15.5553 6.44001 16.1153 5.88001L20.7354 1.26C21.4354 0.420001 22.5554 0 23.6754 0C24.7954 0 25.9154 0.420001 26.6154 1.26L32.6354 7.28001C33.4754 8.12001 33.8954 9.10002 33.8954 10.22C33.8954 11.34 33.4754 12.46 32.6354 13.16L28.0154 17.78C27.4554 18.34 26.6154 18.34 26.0554 17.78L25.7754 17.5L24.5154 18.76C24.7954 19.18 24.9354 19.6 24.9354 20.02C24.9354 20.58 24.6554 21.14 24.2354 21.56L17.2353 28.5601C16.5353 29.2601 15.5553 29.4001 14.8553 28.9801C14.7153 28.9801 14.7153 28.9801 14.5753 28.9801C10.2353 29.5401 5.75532 34.7201 5.05532 39.9001C4.91532 40.4601 4.63532 40.8801 4.07532 41.0201C3.93532 41.3001 3.79532 41.3001 3.65532 41.3001ZM7.71533 18.34C7.99533 19.04 7.99533 19.88 7.57533 20.44C4.07532 25.62 2.53532 30.3801 2.95532 34.4401C3.09532 35.0001 3.09532 35.5601 3.23532 35.9801C5.19532 31.0801 9.67533 26.88 14.1553 26.32C14.4353 26.32 14.7153 26.32 14.9953 26.32C15.1353 26.32 15.4153 26.32 15.5553 26.46L21.8554 20.16C21.5754 19.74 21.5754 19.32 21.5754 18.9C21.5754 18.2 21.8554 17.64 22.2754 17.22L24.2354 15.26C25.0754 14.42 26.1954 14.28 27.1754 14.84L30.8154 11.34C31.0954 11.06 31.2354 10.78 31.2354 10.36C31.2354 9.94002 31.0954 9.66002 30.8154 9.38002L24.6554 3.22001C24.3754 2.94001 24.0954 2.8 23.6754 2.8C23.2554 2.8 22.9754 2.94001 22.6954 3.22001L19.0553 6.86001C19.6153 7.84001 19.4753 9.24002 18.6353 10.08L17.0953 11.62C16.5353 12.18 15.8353 12.46 15.1353 12.46C14.7153 12.46 14.2953 12.32 13.8753 12.18L7.71533 18.34Z"   />
<path d="M56.7153 69.7204C56.5753 69.7204 56.5753 69.7204 56.7153 69.7204C54.8953 69.7204 53.3553 69.0204 52.0953 67.7604L18.0753 30.8003C17.5153 30.2403 17.5153 29.4003 18.0753 28.8403L24.7953 22.1203C25.3553 21.5603 26.1953 21.5603 26.7553 22.1203L63.5754 56.1404C64.8354 57.2604 65.5354 58.9404 65.5354 60.6204C65.5354 62.3004 64.9754 63.9804 63.7154 65.1004L61.0554 67.7604C59.9354 69.0204 58.3954 69.7204 56.7153 69.7204ZM21.0153 29.9603L54.1953 65.8004C54.8953 66.5004 55.7353 66.9204 56.5754 66.9204C57.5554 66.9204 58.3954 66.6404 59.0954 65.9404L61.7554 63.2804C62.4554 62.5804 62.7354 61.7404 62.7354 60.7604C62.7354 59.7804 62.3154 58.9404 61.6154 58.3804L25.7753 25.2003L21.0153 29.9603Z"   />
<path d="M16.9554 69.9999C15.2754 69.9999 13.5954 69.2999 12.1954 68.0399C10.9354 66.7799 10.2354 65.0999 10.2354 63.2799C10.2354 61.4599 10.9354 59.7799 12.1954 58.5199L27.1754 43.5399C27.4554 43.2599 27.8754 43.1199 28.1554 43.1199C28.5754 43.1199 28.8554 43.2599 29.1354 43.5399L36.2754 51.2399C36.8354 51.7999 36.8354 52.6399 36.2754 53.1999L21.7154 68.0399C20.3154 69.2999 18.6354 69.9999 16.9554 69.9999ZM28.1554 46.7599L14.2954 60.6199C13.5954 61.3199 13.1754 62.2999 13.1754 63.2799C13.1754 64.2599 13.5954 65.2399 14.2954 65.9399C15.8354 67.4799 18.2154 67.4799 19.6154 65.9399L33.3354 52.2199L28.1554 46.7599Z"   />
<path d="M48.3153 40.8801C48.0353 40.8801 47.6153 40.7401 47.3353 40.4601L39.6353 33.3201C39.3553 33.0401 39.2153 32.6201 39.2153 32.34C39.2153 32.06 39.3553 31.64 39.6353 31.36L44.1153 26.88C42.5753 21.98 43.9753 16.52 47.6153 12.88C51.1154 9.38001 56.1554 7.84001 61.0554 9.10001C61.6154 9.24001 61.8954 9.66001 62.0354 10.08C62.1754 10.64 62.0354 11.06 61.6154 11.48L53.6354 19.46C53.3554 19.74 53.3554 20.02 53.4954 20.3L55.1754 24.78C55.1754 24.92 55.4554 25.2 55.5954 25.2L60.0754 26.88C60.3554 27.02 60.6354 26.88 60.9154 26.74L68.8954 18.76C69.3154 18.34 69.7354 18.2 70.2954 18.34C70.8554 18.48 71.1354 18.9 71.2754 19.32C72.5354 24.22 71.1354 29.12 67.4954 32.76C63.8554 36.4001 58.3954 37.8001 53.3554 36.2601L49.1553 40.4601C49.0153 40.7401 48.5953 40.8801 48.3153 40.8801ZM42.7153 32.34L48.3153 37.5201L52.2354 33.6001C52.6554 33.1801 53.2154 33.0401 53.7754 33.3201C57.9754 34.8601 62.5954 33.8801 65.8154 30.8C67.9154 28.7 69.1754 25.76 69.1754 22.82L63.0154 28.56C62.0354 29.54 60.4954 29.96 59.0954 29.4L54.6154 27.86C53.6354 27.44 52.7954 26.74 52.5154 25.76L50.8354 21.28C50.2754 19.88 50.6954 18.48 51.6754 17.36L57.5554 11.48C54.6154 11.34 51.8154 12.6 49.5754 14.7C46.4953 17.78 45.5153 22.54 47.0553 26.6C47.1953 27.16 47.0553 27.72 46.7753 28.14L42.7153 32.34Z"   />
<path d="M95.6356 24.0801L99.1356 14.9801H103.476L96.6156 30.8001L96.0556 31.7801C95.0756 33.4601 93.5356 34.4401 91.4356 34.4401H90.0356V31.2201C90.3156 31.2201 90.5956 31.2201 91.0156 31.2201C91.5756 31.2201 91.9956 31.0801 92.4156 30.9401C92.6956 30.8001 92.9756 30.3801 93.2556 29.8201L93.6756 28.5601L86.9556 14.8401H91.2956L95.6356 24.0801Z"   />
<path d="M120.136 27.8601C119.996 29.9601 119.156 31.5001 117.896 32.7601C116.496 34.0201 114.676 34.5801 112.436 34.5801C109.916 34.5801 107.956 33.7401 106.556 32.0601C105.156 30.3801 104.316 28.0001 104.316 25.2001V24.0801C104.316 22.2601 104.596 20.5801 105.296 19.1801C105.996 17.7801 106.836 16.6601 108.096 15.9601C109.356 15.2601 110.756 14.8401 112.296 14.8401C114.536 14.8401 116.356 15.4001 117.616 16.6601C118.876 17.9201 119.716 19.4601 119.996 21.7001H116.216C116.076 20.4401 115.796 19.6001 115.236 19.0401C114.676 18.4801 113.696 18.2001 112.576 18.2001C111.316 18.2001 110.196 18.6201 109.636 19.6001C108.936 20.5801 108.656 21.9801 108.656 24.0801V25.4801C108.656 27.5801 108.936 29.1201 109.636 30.1001C110.336 31.0801 111.316 31.5001 112.576 31.5001C113.836 31.5001 114.676 31.2201 115.376 30.6601C115.936 30.1001 116.356 29.2601 116.356 28.0001H120.136V27.8601Z"   />
<path d="M138.336 14.9799V34.2999H134.416V18.1999H129.236L128.956 25.0599C128.816 27.2999 128.536 29.1199 128.116 30.5199C127.696 31.7799 126.996 32.7599 126.156 33.4599C125.316 34.0199 124.056 34.4399 122.656 34.4399H121.676V31.2199H122.376C123.356 31.0799 124.056 30.5199 124.476 29.5399C124.896 28.5599 125.176 26.7399 125.316 24.0799L125.596 15.2599H138.336V14.9799Z"   />
<path d="M149.116 24.0801L152.616 14.9801H156.956L150.096 30.8001L149.536 31.7801C148.556 33.4601 147.016 34.4401 144.916 34.4401H143.516V31.2201C143.796 31.2201 144.076 31.2201 144.496 31.2201C145.056 31.2201 145.476 31.0801 145.896 30.9401C146.176 30.8001 146.456 30.3801 146.736 29.8201L147.156 28.5601L140.436 14.8401H144.776L149.116 24.0801Z"   />
<path d="M171.656 18.1999H162.976V34.2999H159.056V14.9799H171.656V18.1999Z"   />
<path d="M185.656 14.9799H189.576V34.2999H185.656V21.5599L177.956 34.2999H174.036V14.9799H177.956V27.8599L185.656 14.9799Z"   />
<path d="M97.4556 45.0802H100.676V60.7602H97.4556V50.4002L91.1556 60.7602H87.9355V45.0802H91.1556V55.4402L97.4556 45.0802Z"   />
<path d="M121.256 55.4399C121.116 57.1199 120.556 58.5199 119.436 59.3599C118.316 60.3399 116.776 60.7599 114.956 60.7599C112.996 60.7599 111.316 60.0599 110.196 58.7999C109.076 57.3999 108.516 55.5799 108.516 53.1999V52.2199C108.516 50.6799 108.796 49.4199 109.356 48.2999C109.916 47.1799 110.616 46.3399 111.596 45.6399C112.576 45.0799 113.696 44.6599 115.096 44.6599C116.916 44.6599 118.316 45.0799 119.436 46.0599C120.556 47.0399 121.116 48.4399 121.396 50.1199H118.176C118.036 49.1399 117.756 48.4399 117.336 47.8799C116.916 47.4599 116.076 47.1799 115.096 47.1799C113.976 47.1799 113.276 47.5999 112.716 48.2999C112.156 49.1399 111.876 50.2599 111.876 51.9399V53.0599C111.876 54.7399 112.156 55.9999 112.576 56.8399C113.136 57.6799 113.836 57.9599 114.956 57.9599C115.936 57.9599 116.636 57.6799 117.196 57.2599C117.756 56.8399 118.036 56.1399 118.036 55.1599H121.256V55.4399Z"   />
<path d="M132.876 53.9002H126.716V58.1002H133.996V60.7602H123.496V45.0802H133.996V47.6002H126.716V51.3802H132.876V53.9002Z"   />
<path d="M139.036 55.1602V60.6202H135.816V45.0802H141.976C143.096 45.0802 144.216 45.3602 145.056 45.7802C145.896 46.2002 146.596 46.7602 147.156 47.6002C147.716 48.4402 147.856 49.2802 147.856 50.2602C147.856 51.8002 147.296 53.0602 146.316 53.9002C145.196 54.7402 143.796 55.1602 141.976 55.1602H139.036ZM139.036 52.5002H141.976C142.816 52.5002 143.516 52.3602 143.936 51.9402C144.356 51.5202 144.636 50.9602 144.636 50.2602C144.636 49.5602 144.356 48.8602 143.936 48.4402C143.516 48.0202 142.816 47.7402 142.116 47.7402H139.176V52.5002H139.036Z"   />
<path d="M149.956 60.6202V45.0802H155.416C157.376 45.0802 158.776 45.5002 159.756 46.2002C160.736 46.9002 161.296 48.0202 161.296 49.4202C161.296 50.1202 161.156 50.8202 160.736 51.3802C160.316 51.9402 159.756 52.3602 159.056 52.6402C159.896 52.7802 160.456 53.2002 161.016 53.9002C161.436 54.4602 161.716 55.3002 161.716 56.1402C161.716 57.6802 161.296 58.8002 160.316 59.5002C159.336 60.3402 157.936 60.6202 156.256 60.6202H149.956ZM153.176 51.5202H155.556C157.236 51.5202 157.936 50.8202 157.936 49.5602C157.936 48.8602 157.796 48.3002 157.376 48.0202C156.956 47.7402 156.256 47.6002 155.416 47.6002H153.176V51.5202ZM153.176 53.9002V58.1002H155.976C156.676 58.1002 157.376 57.9602 157.796 57.5402C158.216 57.1202 158.496 56.7002 158.496 56.0002C158.496 54.6002 157.796 53.9002 156.256 53.7602H153.176V53.9002Z"   />
<path d="M173.476 45.0802H176.696V60.7602H173.476V50.4002L167.176 60.7602H163.956V45.0802H167.176V55.4402L173.476 45.0802Z"   />
<path d="M191.816 55.4399C191.676 57.1199 191.116 58.5199 189.996 59.3599C188.876 60.3399 187.336 60.7599 185.516 60.7599C183.556 60.7599 181.876 60.0599 180.756 58.7999C179.636 57.3999 179.076 55.5799 179.076 53.1999V52.2199C179.076 50.6799 179.356 49.4199 179.916 48.2999C180.476 47.1799 181.176 46.3399 182.156 45.6399C183.136 45.0799 184.256 44.6599 185.656 44.6599C187.476 44.6599 188.876 45.0799 189.996 46.0599C191.116 47.0399 191.676 48.4399 191.956 50.1199H188.736C188.596 49.1399 188.316 48.4399 187.896 47.8799C187.476 47.4599 186.636 47.1799 185.656 47.1799C184.536 47.1799 183.836 47.5999 183.276 48.2999C182.716 49.1399 182.436 50.2599 182.436 51.9399V53.0599C182.436 54.7399 182.716 55.9999 183.136 56.8399C183.696 57.6799 184.396 57.9599 185.516 57.9599C186.496 57.9599 187.196 57.6799 187.756 57.2599C188.316 56.8399 188.596 56.1399 188.596 55.1599H191.816V55.4399Z"   />
</svg>
