<svg width="253" height="65" viewBox="0 0 253 65" fill="#252525"    xmlns="http://www.w3.org/2000/svg">
<path d="M26.0001 26V28.6277H5.25537V26H26.0001ZM22.4043 5.25537H8.85112V7.88303H22.4043V5.25537ZM24.3405 15.6277H6.63835V18.2554H24.3405V15.6277ZM5.25537 39.0001H13.0001V46.7447H5.25537V39.0001ZM7.74473 44.2554H10.3724V41.6277H7.74473V44.2554ZM26.0001 39.0001H33.7447V46.7447H26.0001V39.0001ZM28.6277 44.2554H31.2554V41.6277H28.6277V44.2554ZM5.25537 49.3724H13.0001V57.1171H5.25537V49.3724ZM7.74473 54.6277H10.3724V52H7.74473V54.6277ZM15.6277 49.3724H23.3724V57.1171H15.6277V49.3724ZM18.2554 54.6277H20.7447V52H18.1171V54.6277H18.2554ZM15.6277 39.0001H23.3724V46.7447H15.6277V39.0001ZM18.2554 44.2554H20.7447V41.6277H18.1171V44.2554H18.2554ZM26.0001 49.3724H33.7447V57.1171H26.0001V49.3724ZM28.6277 54.6277H31.2554V52H28.6277V54.6277ZM36.3724 39.0001H44.2554V46.7447H36.5107V39.0001H36.3724ZM39.0001 44.2554H41.6277V41.6277H39.0001V44.2554ZM36.3724 49.3724H44.2554V57.1171H36.5107V49.3724H36.3724ZM39.0001 54.6277H41.6277V52H39.0001V54.6277ZM46.7447 49.3724H54.4894V57.1171H46.7447V49.3724ZM49.3724 54.6277H52.0001V52H49.3724V54.6277ZM46.7447 39.0001H54.4894V46.7447H46.7447V39.0001ZM49.3724 44.2554H52.0001V41.6277H49.3724V44.2554ZM57.2554 49.3724H65.0001V57.1171H57.2554V49.3724ZM59.7447 54.6277H62.3724V52H59.7447V54.6277ZM65.0001 39.0001V46.7447H57.2554V39.0001H65.0001ZM62.3724 41.6277H59.7447V44.2554H62.3724V41.6277Z"/>
<path d="M67.6277 15.6277H59.883V31.2553H54.6277V15.6277H46.883V31.2553H41.6277V15.6277H33.883V31.2553H28.3511L23.3723 0H7.74468L3.04255 31.2553H0V65H70.2553V31.2553H67.6277V15.6277ZM62.3723 18.2553H65V31.2553H62.3723V18.2553ZM49.3723 18.2553H52V31.2553H49.3723V18.2553ZM36.3723 18.2553H39V31.2553H36.3723V18.2553ZM10.0957 2.62766H21.2979L25.7234 31.2553H5.67021L10.0957 2.62766ZM67.6277 62.3723H2.62766V33.7447H67.6277V62.3723Z"    />
<path d="M95.8406 26.1384C95.7023 27.9362 95.0109 29.4575 93.7662 30.4256C92.5215 31.532 90.8619 31.9469 88.9258 31.9469C86.713 31.9469 85.0534 31.2554 83.8087 29.7341C82.564 28.2128 81.8726 26.2767 81.8726 23.649V22.5426C81.8726 20.8831 82.1492 19.5001 82.7023 18.2554C83.2555 17.0107 84.0853 16.0426 85.1917 15.3511C86.2981 14.6597 87.5428 14.3831 88.9258 14.3831C90.8619 14.3831 92.5215 14.9362 93.6279 15.9043C94.8726 17.0107 95.564 18.3937 95.7023 20.3299H92.2449C92.1066 19.2235 91.83 18.3937 91.2768 17.9788C90.7236 17.4256 89.8938 17.2873 88.9258 17.2873C87.8194 17.2873 86.8513 17.7022 86.2981 18.532C85.7449 19.3618 85.4683 20.7448 85.4683 22.4043V23.649C85.4683 25.4469 85.7449 26.8299 86.2981 27.6597C86.8513 28.4894 87.6811 28.9043 88.9258 28.9043C90.0321 28.9043 90.8619 28.6277 91.4151 28.2128C91.9683 27.6597 92.2449 26.9682 92.3832 25.8618H95.8406V26.1384Z"    />
<path d="M112.16 23.649C112.16 25.3086 111.883 26.8299 111.33 28.0746C110.777 29.3192 109.947 30.2873 108.841 30.9788C107.734 31.6703 106.49 31.9469 104.968 31.9469C103.585 31.9469 102.341 31.6703 101.234 30.9788C100.128 30.2873 99.2983 29.3192 98.6068 28.0746C98.0536 26.8299 97.6387 25.3086 97.6387 23.7873V22.9575C97.6387 21.298 97.9153 19.7767 98.6068 18.532C99.16 17.2873 100.128 16.3192 101.234 15.6278C102.341 14.9363 103.585 14.6597 104.968 14.6597C106.351 14.6597 107.596 14.9363 108.703 15.6278C109.809 16.3192 110.639 17.2873 111.33 18.532C111.883 19.7767 112.298 21.298 112.298 22.9575V23.649H112.16ZM108.564 22.9575C108.564 21.1597 108.288 19.7767 107.596 18.8086C106.905 17.8405 106.075 17.4256 104.83 17.4256C103.585 17.4256 102.756 17.8405 102.064 18.8086C101.373 19.7767 101.096 21.0214 101.096 22.8192V23.649C101.096 25.4469 101.373 26.6916 102.064 27.6597C102.756 28.6278 103.585 29.0426 104.83 29.0426C106.075 29.0426 106.905 28.6278 107.596 27.6597C108.288 26.6916 108.564 25.4469 108.564 23.649V22.9575Z"    />
<path d="M125.851 17.5641H118.245V20.8832H121.011C123.085 20.8832 124.607 21.4364 125.851 22.4045C127.096 23.3726 127.649 24.7555 127.649 26.2768C127.649 27.9364 127.096 29.3194 125.851 30.2875C124.745 31.2555 123.085 31.8087 121.149 31.8087H114.787V14.7981H125.851V17.5641ZM118.245 23.7875V29.0428H121.011C121.841 29.0428 122.67 28.7662 123.224 28.3513C123.777 27.7981 124.053 27.2449 124.053 26.4151C124.053 25.5853 123.777 25.0321 123.224 24.6172C122.67 24.2024 121.979 23.9258 121.149 23.9258H118.245V23.7875Z"    />
<path d="M143.138 26.1384C143 27.9362 142.309 29.4575 141.064 30.4256C139.819 31.532 138.16 31.9469 136.224 31.9469C134.011 31.9469 132.351 31.2554 131.107 29.7341C129.862 28.2128 129.17 26.2767 129.17 23.649V22.5426C129.17 20.8831 129.447 19.5001 130 18.2554C130.553 17.0107 131.383 16.0426 132.49 15.3511C133.596 14.6597 134.841 14.3831 136.224 14.3831C138.16 14.3831 139.819 14.9362 140.926 15.9043C142.17 17.0107 142.862 18.3937 143 20.3299H139.681C139.543 19.2235 139.266 18.3937 138.713 17.9788C138.16 17.4256 137.33 17.2873 136.362 17.2873C135.256 17.2873 134.287 17.7022 133.734 18.532C133.181 19.5001 132.766 20.7448 132.766 22.5426V23.7873C132.766 25.5852 133.043 26.9682 133.596 27.798C134.149 28.6277 134.979 29.0426 136.224 29.0426C137.33 29.0426 138.16 28.766 138.713 28.3511C139.266 27.798 139.543 27.1065 139.681 26.0001H143.138V26.1384Z"    />
<path d="M157.936 17.5639H152.681V31.8086H149.223V17.5639H144.106V14.6597H158.075V17.5639H157.936Z"    />
<path d="M159.873 31.8087V14.7981H165.819C167.894 14.7981 169.415 15.213 170.522 16.0428C171.628 16.8726 172.181 17.9789 172.181 19.5002C172.181 20.33 171.904 21.0215 171.49 21.713C171.075 22.4045 170.521 22.8194 169.692 23.096C170.521 23.3726 171.213 23.7875 171.766 24.4789C172.319 25.1704 172.458 26.0002 172.458 26.9683C172.458 28.6279 171.904 29.8726 170.936 30.7024C169.968 31.5321 168.447 31.947 166.511 31.947H159.873V31.8087ZM163.468 21.8513H166.096C167.894 21.8513 168.724 21.1598 168.724 19.7768C168.724 18.947 168.447 18.3938 168.032 18.1172C167.617 17.8406 166.926 17.5641 165.958 17.5641H163.468V21.8513ZM163.468 24.3406V29.0428H166.511C167.341 29.0428 168.032 28.9045 168.447 28.4896C168.862 28.0747 169.139 27.5215 169.139 26.83C169.139 25.3087 168.309 24.4789 166.649 24.4789H163.468V24.3406Z"    />
<path d="M185.458 24.4789H178.681V29.0428H186.564V31.8087H175.085V14.7981H186.564V17.7024H178.681V21.713H185.458V24.4789Z"    />
<path d="M202.607 31.8087H199.149V24.4789H192.234V31.8087H188.777V14.7981H192.234V21.713H199.149V14.7981H202.607V31.8087Z"    />
<path d="M219.617 31.8087H216.16V24.4789H209.245V31.8087H205.788V14.7981H209.245V21.713H216.16V14.7981H219.617V31.8087Z"    />
<path d="M236.766 23.649C236.766 25.3086 236.489 26.8299 235.936 28.0746C235.383 29.3192 234.553 30.2873 233.447 30.9788C232.34 31.6703 231.096 31.9469 229.574 31.9469C228.191 31.9469 226.947 31.6703 225.84 30.9788C224.734 30.2873 223.904 29.3192 223.213 28.0746C222.66 26.8299 222.245 25.3086 222.245 23.7873V22.9575C222.245 21.298 222.521 19.7767 223.213 18.532C223.766 17.2873 224.734 16.3192 225.84 15.6278C226.947 14.9363 228.191 14.6597 229.574 14.6597C230.957 14.6597 232.202 14.9363 233.308 15.6278C234.415 16.3192 235.245 17.2873 235.936 18.532C236.489 19.7767 236.904 21.298 236.904 22.9575V23.649H236.766ZM233.17 22.9575C233.17 21.1597 232.894 19.7767 232.202 18.8086C231.511 17.8405 230.681 17.4256 229.436 17.4256C228.191 17.4256 227.362 17.8405 226.67 18.8086C225.979 19.7767 225.702 21.0214 225.702 22.8192V23.649C225.702 25.4469 225.979 26.6916 226.67 27.6597C227.362 28.6278 228.191 29.0426 229.436 29.0426C230.681 29.0426 231.511 28.6278 232.202 27.6597C232.894 26.6916 233.17 25.4469 233.17 23.649V22.9575Z"    />
<path d="M249.489 24.4789H242.713V29.0428H250.596V31.8087H239.255V14.7981H250.734V17.7024H242.851V21.713H249.628V24.4789H249.489Z"    />
<path d="M94.7342 57.8088H91.5533V44.9471H85.4682V57.8088H82.2874V42.4578H94.7342V57.8088Z"    />
<path d="M100.681 52.4152V57.8088H97.5V42.4578H103.447C104.553 42.4578 105.66 42.7344 106.489 43.1493C107.319 43.5641 108.011 44.1173 108.564 44.9471C108.979 45.7769 109.255 46.6067 109.255 47.5748C109.255 49.0961 108.702 50.2024 107.734 51.1705C106.766 52.0003 105.245 52.4152 103.447 52.4152H100.681ZM100.681 49.7876H103.447C104.277 49.7876 104.968 49.6493 105.383 49.2344C105.798 48.8195 106.074 48.2663 106.074 47.5748C106.074 46.8833 105.798 46.1918 105.383 45.7769C104.968 45.362 104.277 45.0854 103.585 45.0854H100.681V49.7876Z"    />
<path d="M124.053 50.4788C124.053 52.0001 123.777 53.383 123.224 54.4894C122.67 55.5958 121.979 56.5639 120.873 57.1171C119.905 57.6703 118.798 58.0852 117.415 58.0852C116.17 58.0852 115.064 57.8086 113.958 57.1171C112.99 56.5639 112.16 55.5958 111.607 54.4894C111.053 53.383 110.777 52.0001 110.777 50.6171V49.7873C110.777 48.266 111.053 46.883 111.607 45.7767C112.16 44.6703 112.99 43.7022 113.958 43.149C114.926 42.5958 116.032 42.1809 117.415 42.1809C118.66 42.1809 119.766 42.4575 120.873 43.149C121.841 43.7022 122.67 44.6703 123.224 45.7767C123.777 46.883 124.053 48.266 124.053 49.7873V50.4788ZM120.873 49.7873C120.873 48.1277 120.596 47.0213 120.043 46.0532C119.49 45.2235 118.66 44.8086 117.553 44.8086C116.447 44.8086 115.617 45.2235 115.064 46.0532C114.511 46.883 114.234 48.1277 114.234 49.649V50.3405C114.234 51.8618 114.511 53.1064 115.064 53.9362C115.617 54.766 116.447 55.1809 117.553 55.1809C118.66 55.1809 119.49 54.766 120.043 53.9362C120.596 53.1064 120.873 51.8618 120.873 50.3405V49.7873Z"    />
<path d="M135.67 42.4578H138.851V57.8088H135.67V47.5748L129.585 57.8088H126.404V42.4578H129.585V52.6918L135.67 42.4578Z"    />
<path d="M149.085 46.6064C149.085 46.0532 148.809 45.5001 148.394 45.2235C147.979 44.9469 147.287 44.6703 146.596 44.6703C145.904 44.6703 145.351 44.8086 144.936 45.2235C144.521 45.5001 144.245 46.0532 144.245 46.4681H141.064C141.064 45.6384 141.34 44.9469 141.755 44.2554C142.17 43.5639 142.862 43.0107 143.691 42.7341C144.521 42.3192 145.489 42.1809 146.457 42.1809C148.255 42.1809 149.638 42.5958 150.606 43.2873C151.574 43.9788 152.128 45.0852 152.128 46.4681C152.128 47.1596 151.989 47.8511 151.574 48.4043C151.16 48.9575 150.606 49.5107 149.777 49.7873C150.606 50.0639 151.298 50.4788 151.713 51.1703C152.128 51.7235 152.404 52.5532 152.404 53.383C152.404 54.766 151.851 55.8724 150.745 56.7022C149.638 57.532 148.255 57.9469 146.457 57.9469C145.351 57.9469 144.383 57.8086 143.415 57.3937C142.585 56.9788 141.894 56.4256 141.34 55.8724C140.926 55.1809 140.649 54.4894 140.649 53.5213H143.83C143.83 54.0745 144.106 54.4894 144.521 54.9043C144.936 55.3192 145.628 55.4575 146.319 55.4575C147.149 55.4575 147.84 55.3192 148.255 54.9043C148.809 54.4894 148.947 54.0745 148.947 53.5213C148.947 52.6915 148.67 52.1384 148.255 51.8618C147.84 51.4469 147.149 51.3086 146.319 51.3086H144.383V48.8192H146.319C148.394 48.6809 149.085 47.9894 149.085 46.6064Z"    />
<path d="M154.894 57.8088V42.4578H160.287C162.085 42.4578 163.606 42.8727 164.574 43.5641C165.542 44.2556 165.957 45.362 165.957 46.745C165.957 47.4365 165.819 48.128 165.404 48.6812C164.989 49.2344 164.436 49.6493 163.745 49.9258C164.574 50.0641 165.128 50.479 165.542 51.1705C165.957 51.7237 166.234 52.5535 166.234 53.3833C166.234 54.9046 165.819 56.011 164.851 56.7024C163.883 57.3939 162.5 57.8088 160.84 57.8088H154.894ZM158.074 48.8195H160.425C162.085 48.8195 162.777 48.128 162.777 46.8833C162.777 46.1918 162.638 45.6386 162.223 45.362C161.808 45.0854 161.117 44.9471 160.287 44.9471H158.074V48.8195ZM158.074 51.0322V55.1812H160.84C161.532 55.1812 162.223 55.0429 162.638 54.628C163.053 54.2131 163.33 53.7982 163.33 53.1067C163.33 51.7237 162.638 51.0322 161.117 51.0322H158.074Z"    />
<path d="M181.309 50.4788C181.309 52.0001 181.032 53.383 180.479 54.4894C179.926 55.5958 179.234 56.5639 178.128 57.1171C177.16 57.6703 176.054 58.0852 174.671 58.0852C173.426 58.0852 172.319 57.8086 171.213 57.1171C170.245 56.5639 169.415 55.5958 168.862 54.4894C168.309 53.383 168.032 52.0001 168.032 50.6171V49.7873C168.032 48.266 168.309 46.883 168.862 45.7767C169.415 44.6703 170.245 43.7022 171.213 43.149C172.181 42.5958 173.288 42.1809 174.671 42.1809C175.915 42.1809 177.022 42.4575 178.128 43.149C179.096 43.7022 179.926 44.6703 180.479 45.7767C181.032 46.883 181.309 48.266 181.309 49.7873V50.4788ZM178.128 49.7873C178.128 48.1277 177.851 47.0213 177.298 46.0532C176.745 45.2235 175.915 44.8086 174.809 44.8086C173.702 44.8086 172.873 45.2235 172.319 46.0532C171.766 46.883 171.49 48.1277 171.49 49.649V50.3405C171.49 51.8618 171.766 53.1064 172.319 53.9362C172.873 54.766 173.702 55.1809 174.809 55.1809C175.915 55.1809 176.745 54.766 177.298 53.9362C177.851 53.1064 178.128 51.8618 178.128 50.3405V49.7873Z"    />
<path d="M197.213 61.5427H194.309V57.8087H185.043V61.5427H182L181.862 55.181H182.968C183.66 54.6278 184.075 53.9364 184.351 52.83C184.628 51.8619 184.904 50.6172 185.043 49.0959L185.458 42.3193H195.553V55.181H197.351L197.213 61.5427ZM186.702 55.181H192.511V44.947H188.638L188.362 48.9576C188.085 51.7236 187.532 53.7981 186.702 55.181Z"    />
<path d="M210.904 52.6915C210.766 54.3511 210.213 55.5958 209.106 56.5639C208 57.532 206.617 57.9469 204.819 57.9469C202.883 57.9469 201.362 57.2554 200.117 56.0107C199.011 54.6277 198.458 52.8298 198.458 50.6171V49.649C198.458 48.1277 198.734 46.883 199.287 45.7767C199.841 44.6703 200.532 43.8405 201.5 43.149C202.468 42.5958 203.575 42.1809 204.819 42.1809C206.617 42.1809 208 42.5958 209.106 43.5639C210.213 44.532 210.766 45.915 211.043 47.5745H207.862C207.723 46.6064 207.447 45.9149 207.032 45.3618C206.617 44.9469 205.787 44.6703 204.819 44.6703C203.713 44.6703 203.021 45.0852 202.468 45.7767C201.915 46.4681 201.638 47.7128 201.638 49.2341V50.3405C201.638 52.0001 201.915 53.2447 202.33 53.9362C202.883 54.766 203.575 55.0426 204.681 55.0426C205.649 55.0426 206.341 54.766 206.894 54.3511C207.309 53.9362 207.585 53.2447 207.723 52.2767H210.904V52.6915Z"    />
<path d="M224.181 44.947H219.479V57.8087H216.298V44.947H211.596V42.3193H224.181V44.947Z"    />
<path d="M225.979 57.8088V42.4578H231.373C233.171 42.4578 234.692 42.8727 235.66 43.5641C236.628 44.2556 237.043 45.362 237.043 46.745C237.043 47.4365 236.905 48.128 236.49 48.6812C236.075 49.2344 235.522 49.6493 234.83 49.9258C235.66 50.0641 236.213 50.479 236.628 51.1705C237.043 51.7237 237.319 52.5535 237.319 53.3833C237.319 54.9046 236.905 56.011 235.936 56.7024C234.968 57.3939 233.585 57.8088 231.926 57.8088H225.979ZM229.16 48.8195H231.511C233.17 48.8195 233.862 48.128 233.862 46.8833C233.862 46.1918 233.724 45.6386 233.309 45.362C232.894 45.0854 232.202 44.9471 231.373 44.9471H229.16V48.8195ZM229.16 51.0322V55.1812H231.926C232.617 55.1812 233.309 55.0429 233.724 54.628C234.139 54.2131 234.415 53.7982 234.415 53.1067C234.415 51.7237 233.724 51.0322 232.202 51.0322H229.16Z"    />
<path d="M252.394 50.4788C252.394 52.0001 252.117 53.383 251.564 54.4894C251.011 55.5958 250.319 56.5639 249.213 57.1171C248.245 57.6703 247.138 58.0852 245.755 58.0852C244.511 58.0852 243.404 57.8086 242.298 57.1171C241.33 56.5639 240.5 55.5958 239.947 54.4894C239.394 53.383 239.117 52.0001 239.117 50.6171V49.7873C239.117 48.266 239.394 46.883 239.947 45.7767C240.5 44.6703 241.33 43.7022 242.298 43.149C243.266 42.5958 244.373 42.1809 245.755 42.1809C247 42.1809 248.107 42.4575 249.213 43.149C250.181 43.7022 251.011 44.6703 251.564 45.7767C252.117 46.883 252.394 48.266 252.394 49.7873V50.4788ZM249.213 49.7873C249.213 48.1277 248.936 47.0213 248.383 46.0532C247.83 45.2235 247 44.8086 245.894 44.8086C244.787 44.8086 243.958 45.2235 243.404 46.0532C242.851 46.883 242.575 48.1277 242.575 49.649V50.3405C242.575 51.8618 242.851 53.1064 243.404 53.9362C243.958 54.766 244.787 55.1809 245.894 55.1809C247 55.1809 247.83 54.766 248.383 53.9362C248.936 53.1064 249.213 51.8618 249.213 50.3405V49.7873Z"    />
</svg>
