<svg width="164" height="70" viewBox="0 0 164 70" fill="none" xmlns="http://www.w3.org/2000/svg">
<path d="M95.8 18L91.4 28.1C90.8 29.4 90.3 30.3 89.8 30.8C89.3 31.3 88.7 31.8 88.1 32C87.5 32.2 86.6 32.4 85.7 32.4C84.9 32.4 84.1 32.3 83.4 32.1V29.5C84 29.7 84.7 29.9 85.5 29.9C86 29.9 86.5 29.8 86.8 29.5C87.1 29.2 87.4 28.8 87.6 28.2L82.7 18H85.9L89.4 26H89.5C89.6 25.6 89.8 25.1 90.2 24.3L92.7 18.1H95.8V18Z" fill="#252525"/>
<path d="M103.5 20.3C102.4 20.3 101.5 20.7 100.9 21.6C100.3 22.5 100 23.6 100 25.2C100 28.4 101.2 30 103.6 30C104.6 30 105.8 29.7 107.2 29.2V31.7C106 32.2 104.7 32.4 103.3 32.4C101.2 32.4 99.6 31.8 98.5 30.5C97.4 29.2 96.8 27.4 96.8 25.1C96.8 23.6 97.1 22.3 97.6 21.2C98.1 20.1 98.9 19.2 99.9 18.6C100.9 18 102.1 17.7 103.5 17.7C104.9 17.7 106.3 18 107.7 18.7L106.7 21.2C106.2 20.9 105.6 20.7 105.1 20.5C104.6 20.3 104.1 20.3 103.5 20.3Z" fill="#252525"/>
<path d="M121.5 32.3H118.5V20.5H115L114.8 21.8C114.4 25.1 114 27.5 113.7 28.8C113.4 30.1 112.9 31.1 112.4 31.6C111.9 32.1 111 32.4 110 32.4C109.5 32.4 109 32.3 108.6 32.2V29.7C109 29.8 109.3 29.9 109.7 29.9C110 29.9 110.3 29.7 110.5 29.4C110.7 29.1 110.9 28.5 111.1 27.6C111.3 26.7 111.5 25.3 111.8 23.4C112.1 21.5 112.3 19.6 112.6 17.9H121.6V32.3H121.5Z" fill="#252525"/>
<path d="M136.6 18L132.2 28.1C131.6 29.4 131.1 30.3 130.6 30.8C130.1 31.3 129.5 31.8 128.9 32C128.3 32.2 127.4 32.4 126.5 32.4C125.7 32.4 124.9 32.3 124.2 32.1V29.5C124.8 29.7 125.5 29.9 126.3 29.9C126.8 29.9 127.3 29.8 127.6 29.5C127.9 29.2 128.2 28.8 128.4 28.2L123.5 18H126.7L130.2 26H130.3C130.4 25.6 130.6 25.1 131 24.3L133.5 18.1H136.6V18Z" fill="#252525"/>
<path d="M147.4 18V20.5H141.4V32.3H138.4V18H147.4Z" fill="#252525"/>
<path d="M149.6 18H152.3V24.9V26.7L152.2 28.8H152.3L158.9 18H162.5V32.3H159.8V25.4C159.8 24.5 159.9 23.1 160 21.3H159.9L153.3 32.2H149.7V18H149.6Z" fill="#252525"/>
<path d="M84 40.2H86.2V45.8V47.3L86.1 49L91.5 40.2H94.4V51.8H92.2V46.2C92.2 45.5 92.2 44.3 92.3 42.9H92.2L86.8 51.8H83.8V40.2H84Z" fill="#252525"/>
<path d="M106.5 42C105.6 42 104.9 42.3 104.3 43C103.7 43.7 103.5 44.7 103.5 45.9C103.5 48.5 104.5 49.8 106.4 49.8C107.2 49.8 108.2 49.6 109.4 49.2V51.3C108.4 51.7 107.4 51.9 106.2 51.9C104.5 51.9 103.2 51.4 102.3 50.4C101.4 49.4 101 47.9 101 46C101 44.8 101.2 43.7 101.7 42.8C102.1 41.9 102.8 41.2 103.6 40.7C104.4 40.2 105.4 40 106.5 40C107.6 40 108.8 40.3 109.9 40.8L109.1 42.8C108.7 42.6 108.2 42.4 107.8 42.3C107.4 42.2 106.9 42 106.5 42Z" fill="#252525"/>
<path d="M118.6 51.8H111.9V40.2H118.6V42.2H114.4V44.7H118.3V46.7H114.4V49.7H118.6V51.8Z" fill="#252525"/>
<path d="M129 43.8C129 45 128.6 46 127.8 46.7C127 47.4 125.9 47.7 124.5 47.7H123.4V51.8H121V40.2H124.7C126.1 40.2 127.2 40.5 127.9 41.1C128.7 41.7 129 42.6 129 43.8ZM123.5 45.6H124.3C125.1 45.6 125.6 45.5 126 45.2C126.4 44.9 126.6 44.5 126.6 43.9C126.6 43.3 126.4 42.9 126.1 42.6C125.8 42.3 125.3 42.2 124.6 42.2H123.5V45.6Z" fill="#252525"/>
<path d="M131.2 40.2H134.8C136.4 40.2 137.6 40.4 138.4 40.9C139.2 41.4 139.5 42.1 139.5 43.1C139.5 43.8 139.3 44.4 139 44.8C138.7 45.2 138.2 45.5 137.7 45.6V45.7C138.4 45.9 139 46.2 139.3 46.6C139.6 47 139.8 47.6 139.8 48.4C139.8 49.5 139.4 50.3 138.7 50.9C137.9 51.5 136.9 51.8 135.6 51.8H131.3V40.2H131.2ZM133.7 44.7H135.1C135.8 44.7 136.2 44.6 136.5 44.4C136.8 44.2 136.9 43.9 136.9 43.4C136.9 43 136.7 42.6 136.4 42.4C136.1 42.2 135.6 42.1 134.9 42.1H133.6V44.7H133.7ZM133.7 46.7V49.7H135.3C136 49.7 136.5 49.6 136.8 49.3C137.1 49 137.3 48.6 137.3 48.1C137.3 47.1 136.6 46.7 135.2 46.7H133.7Z" fill="#252525"/>
<path d="M142.1 40.2H144.3V45.8V47.3L144.2 49L149.6 40.2H152.5V51.8H150.3V46.2C150.3 45.5 150.3 44.3 150.4 42.9H150.3L144.9 51.8H141.9V40.2H142.1Z" fill="#252525"/>
<path d="M160.5 42C159.6 42 158.9 42.3 158.3 43C157.7 43.7 157.5 44.7 157.5 45.9C157.5 48.5 158.5 49.8 160.4 49.8C161.2 49.8 162.2 49.6 163.4 49.2V51.3C162.4 51.7 161.4 51.9 160.2 51.9C158.5 51.9 157.2 51.4 156.3 50.4C155.4 49.4 155 47.9 155 46C155 44.8 155.2 43.7 155.7 42.8C156.1 41.9 156.8 41.2 157.6 40.7C158.4 40.2 159.4 40 160.5 40C161.6 40 162.8 40.3 163.9 40.8L163.1 42.8C162.7 42.6 162.2 42.4 161.8 42.3C161.4 42.2 160.9 42 160.5 42Z" fill="#252525"/>
<path d="M28.4 34.2L23.8 29.6L18.8 31.3H17.6L10.8 24.3L12.5 18.1L12.8 17.8C13.2 17.4 13.7 17.2 14.2 17.2C14.7 17.2 15.2 17.4 15.6 17.8L19.3 21.5L21.9 20.6L22.8 18L19.1 14.3C18.5 13.7 18.3 12.9 18.6 12.1C18.8 11.5 19.4 11.1 20 11L25.6 9.5L32.6 16.3V17.5L31.1 22L35.9001 26.8L33.4001 29.3L27.1 23L28.9 17.6L24.6 13.5L23.5 13.8L26.8 17.1L24.6 23.4L18.3 25.6L15 22.1L14.7 23.2L18.8 27.5L24.6 25.6L30.8 31.8L28.4 34.2Z" fill="#F8AA1B"/>
<path d="M45.0001 58.3L38.0001 51.5V50.3L39.5001 45.8L34.9001 41.3L37.3001 38.8L43.5001 44.8L41.7001 50.2L46.0001 54.3L47.1001 54L43.8001 50.7L46.0001 44.4L52.3001 42.2L55.6001 45.5L55.9001 44.4L51.8001 40.1L45.9001 42.1L40.0001 35.9L42.5001 33.5L46.8001 38.1L51.7001 36.5H52.9001L59.7001 43.5L58.1001 49.7L57.8001 50C57.7001 50.1 57.4001 50.4 57.0001 50.5C56.3001 50.7 55.5001 50.5 55.0001 50L51.3001 46.3L48.7001 47.2L47.8001 49.8L51.5001 53.5C52.1001 54.1 52.3001 54.9 52.0001 55.7C51.8001 56.3 51.2001 56.7 50.6001 56.8L45.0001 58.3Z" fill="#F8AA1B"/>
<path d="M27.1295 33.3977L24.676 35.8939L33.8763 44.9368L36.3298 42.4406L27.1295 33.3977Z" fill="#252525"/>
<path d="M32.9001 42L30.4001 39.5L49.5001 20.4L50.0001 20.9L52.3001 18.4L51.0001 17L48.7001 19.2L49.1001 19.6L29.9001 38.9L27.4001 36.5L44.1001 19.6L43.6001 19L51.1001 12.2L57.1001 18.2L50.5001 25.6L49.8001 25.1L32.9001 42Z" fill="#252525"/>
<path d="M16.9 58.1C15.6 58.1 14.3 57.6 13.3 56.6C11.3 54.6 11.3 51.3 13.3 49.4L26.8 35.9L29.3 38.4L15.7 51.8C15.4 52.1 15.3 52.5 15.3 52.9C15.3 53.3 15.5 53.8 15.7 54C16.3 54.6 17.4 54.6 18 54L31.5 40.5L34 43L20.5 56.6C19.5 57.6 18.2 58.1 16.9 58.1Z" fill="#252525"/>
<path d="M34.7 69.4C15.6 69.4 0 53.8 0 34.7C0 15.6 15.6 0 34.7 0V3.5C17.5 3.5 3.5 17.5 3.5 34.7C3.5 51.9 17.5 65.9 34.7 65.9C51.9 65.9 65.9 51.9 65.9 34.7H69.4C69.4 53.8 53.8 69.4 34.7 69.4Z" fill="#252525"/>
<path d="M65.9 34.7V34.5H69.4V34.6L65.9 34.7ZM65.8 32.7C65.8 32.1 65.6999 31.4 65.5999 30.8L69.0999 30.4C69.1999 31.1 69.2 31.8 69.3 32.5L65.8 32.7ZM65.3 28.9C65.2 28.3 65.1 27.7 64.9 27.1L68.3 26.3C68.5 27 68.5999 27.7 68.6999 28.3L65.3 28.9ZM64.4 25.3C64.2 24.7 64 24.1 63.7999 23.5L67.0999 22.3C67.2999 22.9 67.6 23.6 67.8 24.3L64.4 25.3ZM63.0999 21.8C62.7999 21.2 62.5999 20.7 62.2999 20.1L65.4 18.5C65.7 19.1 66 19.7 66.3 20.4L63.0999 21.8ZM61.2999 18.5C61 18 60.5999 17.4 60.2999 16.9L63.2 14.9C63.6 15.5 64 16.1 64.3 16.7L61.2999 18.5ZM59.2 15.4C58.8 14.9 58.4 14.4 58 14L60.5999 11.7C61.0999 12.2 61.5 12.8 61.9 13.3L59.2 15.4ZM56.7 12.6C56.3 12.2 55.7999 11.7 55.2999 11.3L57.5999 8.7C58.0999 9.2 58.5999 9.6 59.0999 10.1L56.7 12.6ZM53.9 10.1C53.4 9.7 52.9 9.3 52.4 9L54.4 6.1C55 6.5 55.4999 6.9 56.0999 7.3L53.9 10.1ZM50.7999 8C50.2999 7.7 49.7 7.4 49.2 7.1L50.7999 4C51.4 4.3 51.9999 4.7 52.5999 5L50.7999 8ZM47.5 6.2C46.9 5.9 46.2999 5.7 45.7999 5.5L47 2.2C47.7 2.4 48.3 2.7 48.9 3L47.5 6.2ZM43.9 4.9C43.3 4.7 42.6999 4.5 42.0999 4.4L43 1C43.7 1.2 44.4 1.4 45 1.6L43.9 4.9ZM40.2999 4C39.6999 3.9 39.1 3.8 38.4 3.7L38.7999 0.2C39.4999 0.3 40.2 0.4 40.9 0.5L40.2999 4ZM36.5999 3.6C35.9999 3.6 35.4 3.5 34.7 3.5V0C35.4 0 36.0999 0 36.7999 0.1L36.5999 3.6Z" fill="#F8AA1B"/>
</svg>
