<svg width="79" height="80" viewBox="0 0 79 80" fill="none" xmlns="http://www.w3.org/2000/svg">
<path d="M18.6922 73.3883C18.031 73.3883 17.5502 72.8473 17.5502 72.2462V7.87372C17.5502 4.80836 14.1843 2.34408 9.97695 2.34408C9.3158 2.34408 8.83496 1.80305 8.83496 1.202C8.83496 0.540841 9.3759 0.0600586 9.97695 0.0600586H10.0371L60.285 0.180239C66.7763 0.180239 72.0655 4.3876 72.0655 9.49653V61.2471C72.0655 61.9083 71.5246 62.389 70.9235 62.389C70.2624 62.389 69.7816 61.8482 69.7816 61.2471V9.49653C69.7816 5.64981 65.5141 2.52428 60.345 2.52428L17.0694 2.4041C18.8725 3.84662 19.9544 5.76996 19.9544 7.93374V72.3064C19.8943 72.8473 19.3534 73.3883 18.6922 73.3883Z" fill="#252525"/>
<path d="M18.6927 23.8617H1.14199C0.480837 23.8617 0 23.3208 0 22.7198V7.87383C0 3.54626 4.44778 0 9.91735 0C15.3869 0 19.8347 3.54626 19.8347 7.87383V22.7198C19.8948 23.3208 19.3539 23.8617 18.6927 23.8617ZM2.3441 21.5177H17.5507V7.87383C17.5507 4.80847 14.1247 2.34419 9.97746 2.34419C5.7701 2.34419 2.40421 4.80847 2.40421 7.87383V21.5177H2.3441Z" fill="#252525"/>
<path d="M27.4678 80.0003C27.1672 80.0003 26.8667 80.0002 26.5061 79.9401C21.3971 79.5795 17.4903 76.2136 17.4903 72.1264C17.4903 71.4653 18.0312 70.9845 18.6323 70.9845C19.2333 70.9845 19.7743 71.5254 19.7743 72.1264C19.7743 74.9514 22.7796 77.3555 26.6263 77.6561C26.8667 77.6561 27.1071 77.6561 27.4076 77.6561C31.615 77.6561 34.9809 75.1918 34.9809 72.1264V61.3677C34.9809 60.7065 35.5218 60.2256 36.1229 60.2256C36.784 60.2256 37.2649 60.7666 37.2649 61.3677V72.1264C37.3851 76.5141 32.9373 80.0003 27.4678 80.0003Z" fill="#252525"/>
<path d="M68.8801 80.0002H27.5278C26.8667 80.0002 26.3858 79.4591 26.3858 78.8581C26.3858 78.257 26.9268 77.7161 27.5278 77.7161C31.7352 77.7161 35.101 75.2518 35.101 72.1865V61.4276C35.101 60.7664 35.642 60.2856 36.2431 60.2856H77.5954C78.2565 60.2856 78.7374 60.8265 78.7374 61.4276V72.1865C78.7975 76.5141 74.3497 80.0002 68.8801 80.0002ZM34.5 77.7161H68.8801C73.0875 77.7161 76.4534 75.2518 76.4534 72.1865V62.5697H37.3851V72.1865C37.3851 74.2902 36.3032 76.2736 34.5 77.7161Z" fill="#252525"/>
<path d="M54.9357 57.7015C54.6953 57.7015 54.515 57.6413 54.2746 57.5211C53.9741 57.2807 53.7336 56.9201 53.7336 56.5595V46.8825C53.7336 46.3416 54.0943 45.8608 54.6352 45.7406C55.1762 45.6204 55.7171 45.8608 55.9575 46.3416L56.3783 47.1831L57.5804 46.582C57.8809 46.4017 58.3016 46.4017 58.6022 46.582L59.8043 47.1831L60.225 46.3416C60.4654 45.8608 61.0064 45.6204 61.5473 45.7406C62.0883 45.8608 62.4489 46.3416 62.4489 46.8825V56.5595C62.4489 56.9803 62.2686 57.3408 61.9079 57.5211C61.6074 57.7615 61.1867 57.7617 60.8261 57.6414L58.1213 56.4994L55.4166 57.6414C55.2964 57.6414 55.1161 57.7015 54.9357 57.7015ZM58.1213 53.975C58.3016 53.975 58.4218 54.035 58.6022 54.0951L60.1048 54.7564V49.8278C59.9846 49.8278 59.9245 49.7676 59.8043 49.7074L58.1213 48.866L56.4384 49.7074C56.3182 49.7676 56.2581 49.7677 56.1378 49.8278V54.7564L57.6405 54.0951C57.8208 54.035 57.941 53.975 58.1213 53.975Z" fill="#F49300"/>
<path d="M55.8974 49.8272C55.4767 49.8272 55.056 49.5868 54.8757 49.2261L53.9741 47.5432L52.1108 47.2426C51.5098 47.1224 51.089 46.5815 51.1491 45.9204L51.3896 44.057L50.0673 42.7348C49.6465 42.2539 49.6465 41.5928 50.0673 41.112L51.3896 39.7895L51.1491 37.9264C51.089 37.3253 51.5098 36.7243 52.1108 36.6041L53.9741 36.3035L54.8757 34.6206C55.1762 34.0796 55.8373 33.8392 56.4384 34.1397L58.1213 34.9811L59.8043 34.1397C60.3452 33.8392 61.0665 34.0796 61.367 34.6206L62.2686 36.3035L64.1319 36.6041C64.7329 36.7243 65.1536 37.2652 65.0935 37.9264L64.8531 39.7895L66.1754 41.112C66.5962 41.5928 66.5962 42.2539 66.1754 42.7348L64.8531 44.057L65.0935 45.9204C65.1536 46.5214 64.7329 47.1224 64.1319 47.2426L62.2686 47.5432L61.367 49.2261C61.0665 49.7671 60.4053 50.0074 59.8043 49.7069L58.1213 48.8655L56.4384 49.7069C56.2581 49.767 56.0778 49.8272 55.8974 49.8272ZM58.1213 46.4011C58.3017 46.4011 58.482 46.4613 58.6623 46.5214L59.8644 47.1225L60.4654 45.9804C60.6458 45.6799 60.9463 45.4394 61.3069 45.3793L62.6292 45.139L62.4489 43.8167C62.3888 43.4561 62.509 43.0954 62.7494 42.8549L63.651 41.8932L62.7494 40.9316C62.509 40.6912 62.3888 40.3305 62.4489 39.9699L62.6292 38.6476L61.3069 38.4072C60.9463 38.3471 60.6458 38.1067 60.4654 37.8062L59.8644 36.6641L58.6623 37.2651C58.3618 37.4455 57.941 37.4455 57.6405 37.2651L56.4384 36.6641L55.8373 37.8062C55.657 38.1067 55.3565 38.3471 54.9959 38.4072L53.6736 38.6476L53.8539 39.9699C53.914 40.3305 53.7938 40.6912 53.5534 40.9316L52.6518 41.8932L53.5534 42.8549C53.7938 43.0954 53.914 43.4561 53.8539 43.8167L53.6736 45.139L54.9959 45.3793C55.3565 45.4394 55.657 45.6799 55.8373 45.9804L56.4384 47.1225L57.6405 46.5214C57.7607 46.4613 57.941 46.4011 58.1213 46.4011Z" fill="#F49300"/>
<path d="M60.1048 14.9661H29.4512C28.79 14.9661 28.3092 14.425 28.3092 13.824V10.0975C28.3092 9.43635 28.8501 8.95557 29.4512 8.95557H60.1048C60.766 8.95557 61.2468 9.49645 61.2468 10.0975V13.824C61.2468 14.425 60.7059 14.9661 60.1048 14.9661ZM30.5932 12.6219H58.9027V11.1794H30.5932V12.6219Z" fill="#F49300"/>
<path d="M65.3338 21.3377H25.9048C25.2437 21.3377 24.7628 20.7968 24.7628 20.1958C24.7628 19.5346 25.3038 19.0537 25.9048 19.0537H65.3338C65.9949 19.0537 66.4758 19.5947 66.4758 20.1958C66.4758 20.7968 65.9348 21.3377 65.3338 21.3377Z" fill="#252525"/>
<path d="M65.3338 26.2059H25.9048C25.2437 26.2059 24.7628 25.6649 24.7628 25.0638C24.7628 24.4027 25.3038 23.9219 25.9048 23.9219H65.3338C65.9949 23.9219 66.4758 24.4628 66.4758 25.0638C66.4758 25.6649 65.9348 26.2059 65.3338 26.2059Z" fill="#252525"/>
<path d="M65.3338 31.014H25.9048C25.2437 31.014 24.7628 30.473 24.7628 29.8719C24.7628 29.2108 25.3038 28.73 25.9048 28.73H65.3338C65.9949 28.73 66.4758 29.2709 66.4758 29.8719C66.4758 30.5331 65.9348 31.014 65.3338 31.014Z" fill="#252525"/>
</svg>
