<svg width="80" height="80" viewBox="0 0 80 80" fill="none" xmlns="http://www.w3.org/2000/svg">
<path d="M27.2301 25.7811C27.2301 25.7811 27.1697 25.7811 27.2301 25.7811C26.747 25.7811 26.3848 25.5396 26.2037 25.117L21.7358 16.0604C21.4339 15.4566 21.6754 14.7925 22.2792 14.4906C22.8829 14.1887 23.5471 14.4302 23.849 15.034L27.3509 22.1585L32.8452 12.6189C33.1471 12.0755 33.8717 11.8943 34.4151 12.1962C34.9585 12.4981 35.1396 13.2226 34.8377 13.766L28.2566 25.1773C28.0151 25.5396 27.6527 25.7811 27.2301 25.7811Z" fill="#F49300"/>
<path d="M64.4226 63.5773C62.3697 63.5773 60.6792 61.8868 60.6792 59.8339C60.6792 57.7811 62.3697 56.0906 64.4226 56.0906C66.4754 56.0906 68.1659 57.7811 68.1659 59.8339C68.1659 61.8868 66.4754 63.5773 64.4226 63.5773ZM64.4226 58.4452C63.6377 58.4452 63.0339 59.049 63.0339 59.8339C63.0339 60.6188 63.6377 61.2227 64.4226 61.2227C65.2075 61.2227 65.8113 60.6188 65.8113 59.8339C65.8113 59.049 65.2075 58.4452 64.4226 58.4452Z" fill="#F49300"/>
<path d="M15.3358 63.4565C13.2829 63.4565 11.5924 61.766 11.5924 59.7132C11.5924 57.6603 13.2829 55.9697 15.3358 55.9697C17.3886 55.9697 19.0791 57.6603 19.0791 59.7132C19.0791 61.8264 17.3886 63.4565 15.3358 63.4565ZM15.3358 58.3245C14.5509 58.3245 13.9471 58.9283 13.9471 59.7132C13.9471 60.4981 14.5509 61.1018 15.3358 61.1018C16.1207 61.1018 16.7245 60.4981 16.7245 59.7132C16.7245 58.9886 16.1207 58.3245 15.3358 58.3245Z" fill="#F49300"/>
<path d="M50.3547 62.0076H23.4867C23.1245 62.0076 22.8226 61.8868 22.5811 61.5849C22.3396 61.3434 22.2792 60.9812 22.2792 60.6793C22.3396 60.317 22.3396 60.0151 22.3396 59.7133C22.3396 59.351 22.2793 58.9887 22.2189 58.5661C21.6755 55.1246 18.717 52.5887 15.2151 52.5887C11.7132 52.5887 8.75463 55.0642 8.21123 58.5661C8.15086 58.9887 8.09051 59.351 8.09051 59.7133C8.09051 60.0151 8.09057 60.317 8.15094 60.6793C8.21132 61.0415 8.09057 61.3434 7.84906 61.5849C7.60755 61.8265 7.30566 62.0076 6.9434 62.0076H3.50192C1.56984 62.0076 0 60.4378 0 58.5057V20.3472C0 18.4151 1.56984 16.8453 3.50192 16.8453H9.84154C10.3849 16.8453 10.8075 17.2075 10.9887 17.6906C11.3509 18.9585 11.7131 20.166 12.1358 21.3132C12.3773 21.917 12.5585 22.4604 12.8604 23.0642C13.7057 24.9962 14.6716 26.868 15.7584 28.6189C18.7773 33.4491 22.7018 37.6151 27.4113 40.9358C34.1735 36.166 39.366 29.7057 42.3849 22.1585C42.4453 21.9774 42.5057 21.7962 42.566 21.6151L42.6868 21.3132C43.1094 20.166 43.532 18.8981 43.8339 17.6906C43.9546 17.2075 44.4377 16.8453 44.9811 16.8453H50.1735C52.1056 16.8453 53.6754 18.4151 53.6754 20.3472V58.5057C53.9169 60.4378 52.3471 62.0076 50.3547 62.0076ZM24.7547 59.6528H50.3547C51.0188 59.6528 51.5622 59.1094 51.5622 58.4453V20.2868C51.5622 19.6227 51.0188 19.0793 50.3547 19.0793H46.0075C45.7056 20.1057 45.4038 21.0717 44.9811 22.0378L44.8604 22.3397C44.8 22.5208 44.7396 22.7019 44.6188 22.9434C41.2981 31.1548 35.6226 38.1585 28.1358 43.2906C27.7131 43.5321 27.2301 43.5321 26.8075 43.2906C21.4943 39.7283 17.1471 35.1397 13.8264 29.8265C12.6792 27.9548 11.6529 25.9623 10.7472 23.9698C10.5057 23.366 10.2641 22.7623 10.0226 22.1585C9.66029 21.1925 9.29806 20.2264 8.99617 19.2H3.56221C2.89805 19.2 2.35466 19.7434 2.35466 20.4075V58.5661C2.35466 59.2302 2.89805 59.7736 3.56221 59.7736H5.73585C5.73585 59.2906 5.7962 58.868 5.85658 58.3246C6.5811 53.7359 10.5056 50.4151 15.1546 50.4151C19.8037 50.4151 23.7283 53.7359 24.4528 58.3246C24.6943 58.7472 24.7547 59.2302 24.7547 59.6528Z" fill="#252525"/>
<path d="M27.5924 43.5321C27.3509 43.5321 27.1093 43.4717 26.9282 43.3509C21.615 39.7886 17.2678 35.2 13.947 29.8868C12.7999 28.0151 11.7735 26.0226 10.8679 24.0301C10.6264 23.4264 10.3849 22.8226 10.1434 22.2188C9.66037 21.0113 9.23766 19.683 8.8754 18.3547C7.84899 14.6717 7.36597 10.9283 7.36597 7.18492V1.14718C7.36597 0.483034 7.9093 0 8.51308 0H46.6113C47.2754 0 47.7584 0.543411 47.7584 1.14718V7.18492C47.7584 10.9283 47.2753 14.6717 46.2489 18.3547C45.8867 19.683 45.4641 20.9509 44.9811 22.2188L44.8604 22.5207C44.8 22.7018 44.7395 22.883 44.6188 23.1245C41.298 31.3358 35.6225 38.3396 28.1357 43.4717C28.0753 43.4717 27.8339 43.5321 27.5924 43.5321ZM9.72062 2.2943V7.18492C9.72062 10.6868 10.2037 14.2491 11.1698 17.751C11.532 19.0189 11.8942 20.2264 12.3169 21.3736C12.5584 21.9774 12.7395 22.5207 13.0414 23.1245C13.8867 25.0566 14.8527 26.9283 15.9395 28.6792C18.9584 33.5094 22.8829 37.6755 27.5924 40.9962C34.3546 36.2264 39.5471 29.766 42.566 22.2188C42.6264 22.0377 42.6868 21.8566 42.7472 21.6755L42.8679 21.3736C43.2905 20.2264 43.7131 18.9585 44.015 17.751C44.981 14.3094 45.4641 10.7472 45.4641 7.18492V2.2943H9.72062Z" fill="#252525"/>
<path d="M15.3358 69.1923C12.1961 69.1923 9.23766 67.6225 7.48671 65.0263C6.70181 63.8187 6.15841 62.4904 5.97728 61.0414C5.9169 60.6187 5.91699 60.1961 5.91699 59.7735C5.91699 59.2904 5.97734 58.8074 6.03772 58.264C6.76225 53.6754 10.6867 50.3546 15.3358 50.3546C19.9848 50.3546 23.9094 53.6754 24.634 58.264C24.6943 58.8074 24.7547 59.2904 24.7547 59.7735C24.7547 60.1961 24.7546 60.6187 24.6943 61.0414C24.5131 62.4904 23.9697 63.8187 23.1848 65.0263C21.3735 67.6225 18.4754 69.1923 15.3358 69.1923ZM15.3358 52.6489C11.8339 52.6489 8.87548 55.1244 8.33209 58.6263C8.27171 59.0489 8.21121 59.4112 8.21121 59.7735C8.21121 60.0754 8.21127 60.3772 8.27165 60.7395C8.3924 61.8263 8.81499 62.8527 9.41876 63.7584C10.7471 65.7508 12.9207 66.8979 15.3358 66.8979C17.7509 66.8979 19.9245 65.6904 21.2528 63.7584C21.8566 62.8527 22.2188 61.8263 22.3999 60.7395C22.4603 60.3772 22.4603 60.0754 22.4603 59.7735C22.4603 59.4112 22.4 59.0489 22.3396 58.6263C21.7358 55.1244 18.8377 52.6489 15.3358 52.6489Z" fill="#252525"/>
<path d="M56.1509 61.2829H52.7094C52.0452 61.2829 51.5621 60.7395 51.5621 60.1357V30.0678C51.5621 29.4036 52.1056 28.9207 52.7094 28.9207H63.1546C68.347 28.9207 72.6339 33.147 72.6339 38.3999C72.6339 39.8489 73.8414 41.0565 75.2905 41.0565C77.6452 41.0565 79.6376 42.9885 79.6376 45.4036V53.132C79.6376 57.1169 76.8 60.498 72.9358 61.1621C72.5735 61.2225 72.2112 61.1018 71.9697 60.9207C71.7282 60.6791 71.5471 60.3773 71.5471 60.015C71.5471 60.015 71.5471 59.9546 71.5471 59.8942C71.5471 59.5319 71.4868 59.1697 71.4264 58.747C70.883 55.3055 67.9244 52.7697 64.4225 52.7697C60.9207 52.7697 57.9621 55.2451 57.4187 58.747C57.3583 59.1697 57.298 59.5319 57.298 59.8942V60.1357C57.298 60.4376 57.1772 60.7395 56.9961 60.981C56.7546 61.1018 56.4528 61.2829 56.1509 61.2829ZM53.9169 58.9282H55.0641C55.0641 58.747 55.1245 58.5659 55.1245 58.3244C55.849 53.7357 59.7735 50.415 64.4225 50.415C69.0716 50.415 72.9961 53.7357 73.7206 58.3244C73.7206 58.3848 73.7206 58.3847 73.7206 58.4451C75.8338 57.5395 77.2225 55.4263 77.2225 53.0716V45.3433C77.2225 44.2565 76.3168 43.3508 75.23 43.3508C72.4527 43.3508 70.2188 41.1169 70.2188 38.3395C70.2188 34.415 67.0188 31.2149 63.0943 31.2149H53.8565V58.9282H53.9169Z" fill="#252525"/>
<path d="M64.4226 69.2529C61.283 69.2529 58.3245 67.683 56.5735 65.0868C55.6075 63.6378 55.064 61.8868 55.0037 60.1359C55.0037 60.0151 55.0037 59.8944 55.0037 59.834C55.0037 59.351 55.0642 58.868 55.1245 58.3246C55.8491 53.7359 59.7735 50.4152 64.4226 50.4152C69.0716 50.4152 72.9961 53.7359 73.7206 58.3246C73.781 58.868 73.8415 59.351 73.8415 59.834V59.9547C73.8415 61.8264 73.2377 63.5774 72.2716 65.0868C70.5207 67.7434 67.5622 69.2529 64.4226 69.2529ZM64.4226 52.7699C60.9207 52.7699 57.9622 55.2453 57.4188 58.7472C57.3584 59.1698 57.298 59.5321 57.298 59.8944V60.1359C57.3584 61.4642 57.7207 62.7925 58.5056 63.8793C59.8339 65.8717 62.0075 67.0189 64.4226 67.0189C66.7773 67.0189 69.0113 65.8113 70.3396 63.8793C71.1245 62.7321 71.4868 61.4039 71.5471 60.0152C71.5471 60.0152 71.5471 59.9548 71.5471 59.8944C71.5471 59.5321 71.4868 59.1698 71.4264 58.7472C70.883 55.2453 67.9245 52.7699 64.4226 52.7699Z" fill="#252525"/>
<path d="M67.381 43.2302H56.1509C55.4868 43.2302 55.0037 42.6868 55.0037 42.083V33.8717C55.0037 33.2075 55.5471 32.7245 56.1509 32.7245H63.8188C64.966 32.7245 65.9924 33.1471 66.717 33.9924C68.9509 36.4075 68.5887 41.6 68.5283 42.2038C68.4679 42.8076 67.9848 43.2302 67.381 43.2302ZM57.298 40.9358H66.2339C66.2339 39.3056 66.0528 36.7094 65.0264 35.5623C64.7245 35.2 64.3018 35.0189 63.8188 35.0189H57.298V40.9358Z" fill="#252525"/>
<path d="M78.4301 51.683H76.1961C74.4452 51.683 72.9961 50.2339 72.9961 48.483V47.3359C72.9961 45.585 74.4452 44.1359 76.1961 44.1359H78.4301C79.0942 44.1359 79.5773 44.6793 79.5773 45.283V50.4151C79.5773 51.1397 79.0942 51.683 78.4301 51.683ZM76.1961 46.4906C75.7131 46.4906 75.3509 46.8529 75.3509 47.3359V48.483C75.3509 48.966 75.7131 49.3283 76.1961 49.3283H77.2829V46.4906H76.1961Z" fill="#252525"/>
<path d="M78.1282 80.0001H1.63014C0.965992 80.0001 0.483032 79.4567 0.483032 78.8529V67.985C0.483032 67.3208 1.02637 66.8378 1.63014 66.8378H78.1282C78.7924 66.8378 79.2755 67.3812 79.2755 67.985V78.7925C79.2755 79.4567 78.732 80.0001 78.1282 80.0001ZM2.77725 77.6453H76.9207V69.1925H2.77725V77.6453Z" fill="#252525"/>
</svg>
