<svg width="80" height="80" viewBox="0 0 80 80" fill="none" xmlns="http://www.w3.org/2000/svg">
<path d="M78.3156 66.7191H1.97052C1.30874 66.7191 0.827209 66.1777 0.827209 65.5761C0.827209 64.9143 1.3689 64.4331 1.97052 64.4331H78.3156C78.9774 64.4331 79.4586 64.9745 79.4586 65.5761C79.4586 66.1777 78.9774 66.7191 78.3156 66.7191Z" fill="#F49300"/>
<path d="M66.2832 51.3179H48.2348C47.573 51.3179 47.0917 50.7764 47.0917 50.1748C47.0316 46.4447 43.9631 43.4367 40.2331 43.4367C36.5031 43.4367 33.4349 46.4447 33.3747 50.1748C33.3747 50.8365 32.8333 51.3179 32.2317 51.3179H14.1832C13.6418 51.3179 13.2207 50.9569 13.0402 50.4756C12.9199 49.9943 13.1003 49.4529 13.5816 49.152L16.7101 47.2871L14.123 44.7602C13.8222 44.4594 13.7019 44.0384 13.8222 43.6774C13.9425 43.2563 14.2435 42.9554 14.6045 42.8351L18.0937 41.7521L16.2286 38.684C15.988 38.323 15.9879 37.9018 16.1684 37.5408C16.3489 37.1799 16.7099 36.9392 17.1311 36.9392L20.7408 36.7588L19.658 33.3295C19.5377 32.9685 19.5978 32.4873 19.8986 32.1865C20.1994 31.8857 20.5602 31.7653 20.9814 31.8255L24.5311 32.4873L24.2902 28.8776C24.2902 28.4565 24.4709 28.0955 24.7717 27.8549C25.1327 27.6142 25.5538 27.6143 25.9147 27.7346L29.2236 29.2386L29.8855 25.689C29.9456 25.2679 30.2462 24.9671 30.6072 24.7866C30.9682 24.6663 31.4497 24.7264 31.7505 24.9671L34.5779 27.193L36.0218 23.8842C36.2022 23.5232 36.5632 23.2225 36.9242 23.2225C37.3453 23.1623 37.7065 23.3428 38.0073 23.6436L40.2331 26.5314L42.4592 23.6436C42.6998 23.3428 43.1208 23.1623 43.542 23.2225C43.9631 23.2826 44.3241 23.5232 44.4444 23.8842L45.8885 27.193L48.7159 24.9671C49.0167 24.7264 49.498 24.6663 49.8589 24.7866C50.2199 24.9069 50.5208 25.2679 50.581 25.689L51.2428 29.2386L54.5517 27.7346C54.9127 27.5541 55.3338 27.6142 55.6947 27.8549C56.0557 28.0955 56.2361 28.4565 56.1759 28.8776L55.9353 32.4873L59.4848 31.8255C59.9059 31.7653 60.3272 31.8857 60.5679 32.1865C60.8687 32.4873 60.9288 32.9084 60.8085 33.3295L59.7257 36.7588L63.3354 36.9392C63.7565 36.9392 64.1173 37.1799 64.2977 37.5408C64.4782 37.9018 64.4785 38.323 64.2378 38.684L62.3727 41.7521L65.862 42.8351C66.2831 42.9554 66.5841 43.2563 66.6443 43.6774C66.7646 44.0986 66.6443 44.5196 66.3435 44.7602L63.7563 47.2871L66.8849 49.152C67.306 49.3927 67.5466 49.9341 67.4263 50.4756C67.2458 51.017 66.8247 51.3179 66.2832 51.3179ZM49.3175 49.0318H62.0719L61.2897 48.5504C60.9888 48.3699 60.7483 48.0692 60.7483 47.7082C60.6881 47.3473 60.8085 46.9862 61.1093 46.7456L63.3953 44.5196L60.3872 43.6172C60.0263 43.4969 59.7858 43.2563 59.6655 42.8953C59.5451 42.5343 59.545 42.1734 59.7856 41.8726L61.4703 39.1653L58.2816 38.9848C57.9206 38.9848 57.6198 38.8043 57.3792 38.5035C57.1987 38.2027 57.1386 37.8417 57.1988 37.4807L58.1614 34.4727L55.0329 35.0743C54.6719 35.1344 54.3109 35.0141 54.0703 34.7735C53.8296 34.5328 53.6494 34.1718 53.7095 33.8108L53.9501 30.6222L51.0622 31.9459C50.7614 32.0662 50.3404 32.0662 50.0396 31.9459C49.7388 31.7654 49.4981 31.4645 49.438 31.1036L48.8966 27.9752L46.4299 29.9605C46.1291 30.2012 45.768 30.2613 45.407 30.2011C45.0461 30.141 44.7454 29.9004 44.6251 29.5394L43.3616 26.6517L41.4363 29.1784C41.0152 29.7199 40.0528 29.7199 39.5715 29.1784L37.6462 26.6517L36.3828 29.5394C36.2625 29.8402 35.9618 30.0808 35.6008 30.2011C35.2398 30.2613 34.8788 30.2012 34.5779 29.9605L32.1113 27.9752L31.5699 31.1036C31.5097 31.4645 31.2691 31.7654 30.9682 31.9459C30.6674 32.1264 30.2465 32.1264 29.9457 31.9459L27.0577 30.6222L27.2983 33.8108C27.2983 34.1718 27.1782 34.5328 26.9376 34.7735C26.6969 35.0141 26.2758 35.1344 25.9749 35.0743L22.8464 34.4727L23.8091 37.4807C23.9294 37.8417 23.8693 38.2027 23.6287 38.5035C23.4482 38.8043 23.0872 38.9848 22.7263 38.9848L19.5375 39.1653L21.2222 41.8726C21.4027 42.1734 21.4627 42.5343 21.3424 42.8953C21.2221 43.2563 20.9214 43.4969 20.6206 43.6172L17.6125 44.5196L19.8986 46.7456C20.1392 46.9862 20.2596 47.3473 20.2596 47.7082C20.1994 48.0692 20.019 48.3699 19.7182 48.5504L18.9359 49.0318H31.6903C32.2919 44.5798 36.1423 41.0904 40.7748 41.0904C44.8658 41.0904 48.7159 44.5798 49.3175 49.0318Z" fill="#252525"/>
<path d="M43.542 51.3179H36.8642C36.5634 51.3179 36.2624 51.1975 36.0217 50.9569C35.7811 50.7162 35.661 50.4155 35.661 50.1147C35.661 47.648 37.7065 45.6025 40.1731 45.6025C42.6398 45.6025 44.6853 47.648 44.6853 50.1147C44.6853 50.4155 44.5649 50.7162 44.3242 50.9569C44.1437 51.1975 43.9029 51.3179 43.542 51.3179ZM38.3683 49.0317H42.0379C41.6769 48.4301 40.9552 48.009 40.1731 48.009C39.391 48.009 38.7894 48.4301 38.3683 49.0317Z" fill="#F49300"/>
<path d="M78.3156 79.8346H1.97052C1.30874 79.8346 0.827209 79.2932 0.827209 78.6915V50.2351C0.827209 49.5733 1.3689 49.092 1.97052 49.092H78.3156C78.9774 49.092 79.4586 49.6334 79.4586 50.2351V78.6915C79.4586 79.2932 78.9774 79.8346 78.3156 79.8346ZM3.11353 77.4883H77.1123V51.318H3.11353V77.4883Z" fill="#252525"/>
<path d="M10.9948 51.3179H2.03046C1.36869 51.3179 0.887451 50.7763 0.887451 50.1747V43.6171C0.887451 42.9554 1.42885 42.4741 2.03046 42.4741H4.9184C8.88907 42.4741 12.1378 45.7228 12.1378 49.6935V50.2349C12.1378 50.8365 11.5964 51.3179 10.9948 51.3179ZM3.17377 49.0317H9.79155C9.49074 46.6252 7.38503 44.7601 4.9184 44.7601H3.17377V49.0317Z" fill="#252525"/>
<path d="M78.3156 51.3179H69.3516C68.6898 51.3179 68.2083 50.7764 68.2083 50.1747V49.6333C68.2083 45.6627 71.457 42.4139 75.4276 42.4139H78.3156C78.9774 42.4139 79.4586 42.9553 79.4586 43.557V50.1147C79.4586 50.7764 78.9774 51.3179 78.3156 51.3179ZM70.5548 48.9715H77.1726V44.7001H75.4276C72.9009 44.7001 70.8556 46.565 70.5548 48.9715Z" fill="#252525"/>
<path d="M39.2707 17.1461H1.18824C0.526461 17.1461 0.0452271 16.6047 0.0452271 16.003C0.0452271 15.3413 0.586623 14.8599 1.18824 14.8599H38.1274V2.82755H1.18824C0.526461 2.82755 0.0452271 2.28616 0.0452271 1.68454C0.0452271 1.02276 0.586623 0.541382 1.18824 0.541382H39.2707C39.9325 0.541382 40.4137 1.08292 40.4137 1.68454V16.0631C40.4739 16.6046 39.9325 17.1461 39.2707 17.1461Z" fill="#252525"/>
<path d="M1.18825 16.9654C0.947605 16.9654 0.706899 16.9053 0.526414 16.7249C-0.0150404 16.3639 -0.135364 15.642 0.225606 15.1005L1.00788 14.0176L0.225606 12.9346C-0.075202 12.5135 -0.075202 11.9721 0.225606 11.6111L1.00788 10.5282L0.225606 9.44524C0.0451212 9.20459 -0.0149229 8.84362 0.0452387 8.54281C0.1054 8.242 0.285827 7.94117 0.586635 7.76068L1.72965 7.09899L0.526414 6.25664C0.285768 6.07615 0.1054 5.83563 0.0452387 5.47466C-0.0149229 5.17385 0.0451212 4.87304 0.225606 4.57223L1.00788 3.48929L0.225606 2.40635C-0.135364 1.8649 -0.0150404 1.14299 0.526414 0.782019C1.06787 0.421049 1.78993 0.541372 2.1509 1.08283L3.41435 2.82746C3.71516 3.24859 3.71516 3.79001 3.41435 4.15098L2.87295 4.93311L4.61758 6.13635C4.91839 6.37699 5.09876 6.73793 5.09876 7.15906C5.09876 7.5802 4.85817 7.94122 4.55736 8.12171L2.93288 9.08435L3.47457 9.80626C3.77538 10.2274 3.77538 10.7688 3.47457 11.1298L2.69229 12.2127L3.47457 13.2957C3.77538 13.7168 3.77538 14.2582 3.47457 14.6192L2.21112 16.3638C1.91031 16.785 1.54922 16.9654 1.18825 16.9654Z" fill="#252525"/>
<path d="M5.82084 11.6713H2.45173C1.78995 11.6713 1.30872 11.1299 1.30872 10.5283C1.30872 9.86649 1.85011 9.38525 2.45173 9.38525H5.82084C6.48262 9.38525 6.96385 9.92665 6.96385 10.5283C6.96385 11.19 6.48262 11.6713 5.82084 11.6713Z" fill="#252525"/>
<path d="M78.857 16.6047H43.1813C42.5195 16.6047 42.038 16.0631 42.038 15.4615C42.038 14.7997 42.5797 14.3185 43.1813 14.3185H77.6538V2.28617H43.1813C42.5195 2.28617 42.038 1.74463 42.038 1.14301C42.038 0.481234 42.5797 0 43.1813 0H78.857C79.5188 0 80 0.541396 80 1.14301V15.5217C80 16.0632 79.4586 16.6047 78.857 16.6047Z" fill="#252525"/>
<path d="M43.1812 16.4242C42.9406 16.4242 42.76 16.364 42.5194 16.2437C41.9779 15.8827 41.8576 15.1608 42.2186 14.6194L42.9403 13.5364L42.2186 12.4535C41.9779 12.0925 41.9779 11.5511 42.2186 11.1902L42.9403 10.1072L42.2186 9.0243C42.0381 8.78365 41.9777 8.42268 42.0379 8.12188C42.0981 7.82107 42.2788 7.52029 42.5796 7.39997L43.6624 6.67806L42.4591 5.77563C41.9779 5.41466 41.8575 4.69266 42.1583 4.21137L42.8804 3.12843L42.1583 2.04549C41.7974 1.50404 41.9779 0.782127 42.4591 0.421157C43.0006 0.0601872 43.7227 0.240672 44.0836 0.721965L45.2266 2.46674C45.4673 2.82771 45.4673 3.36908 45.2266 3.73005L44.6852 4.5724L46.3094 5.77563C46.6102 6.01628 46.7909 6.37716 46.7909 6.73813C46.7909 7.0991 46.55 7.46013 46.2492 7.70077L44.7452 8.66327L45.2266 9.4454C45.4673 9.80637 45.4673 10.3479 45.2266 10.7089L44.5046 11.7918L45.2266 12.8746C45.4673 13.2356 45.4673 13.7771 45.2266 14.138L44.0836 15.8827C43.9633 16.2436 43.6023 16.4242 43.1812 16.4242Z" fill="#252525"/>
<path d="M47.5127 11.1299H44.3845C43.7227 11.1299 43.2412 10.5885 43.2412 9.98691C43.2412 9.32513 43.7829 8.84375 44.3845 8.84375H47.5127C48.1745 8.84375 48.6558 9.38529 48.6558 9.98691C48.6558 10.6487 48.1745 11.1299 47.5127 11.1299Z" fill="#252525"/>
</svg>
