<svg width="80" height="80" viewBox="0 0 80 80" fill="none" xmlns="http://www.w3.org/2000/svg">
<path d="M62.5983 79.058H1.14798C0.483325 79.058 0 78.5142 0 77.91V1.23326C0 0.568604 0.543748 0.0852051 1.14798 0.0852051H44.3504C45.0151 0.0852051 45.4986 0.629027 45.4986 1.23326V18.3329H62.5983C63.2629 18.3329 63.7463 18.8767 63.7463 19.481V77.8496C63.7463 78.5142 63.2629 79.058 62.5983 79.058ZM2.2961 76.7015H61.3898V20.629H44.2901C43.6254 20.629 43.142 20.0852 43.142 19.481V2.38123H2.2961V76.7015Z" fill="#252525"/>
<path d="M62.5984 20.629H44.2902C43.6256 20.629 43.1421 20.0852 43.1421 19.4809V1.17273C43.1421 0.689351 43.4443 0.266434 43.8673 0.0851651C44.2902 -0.096104 44.834 0.0247568 45.1361 0.326872L63.4443 18.635C63.8068 18.9975 63.8672 19.4809 63.6859 19.9039C63.5046 20.3268 63.0818 20.629 62.5984 20.629ZM45.4987 18.2725H59.8189L45.4987 3.95225V18.2725Z" fill="#252525"/>
<path d="M78.7917 71.7469H68.8824C68.2177 71.7469 67.7344 71.2031 67.7344 70.5988V18.3933C67.7344 17.7287 68.2781 17.2454 68.8824 17.2454H78.7917C79.4563 17.2454 79.9398 17.7891 79.9398 18.3933V70.5988C80.0002 71.2635 79.4563 71.7469 78.7917 71.7469ZM70.0908 69.4508H77.6437V19.5414H70.0908V69.4508Z" fill="#252525"/>
<path d="M76.0723 12.5322H71.7219C71.3594 12.5322 70.9969 12.3509 70.7552 12.0488C70.5135 11.7467 70.5134 11.3238 70.6343 10.9613L72.8096 5.40229C72.9908 4.97933 73.4138 4.67725 73.8972 4.67725C74.3806 4.67725 74.8036 4.97933 74.9848 5.40229L77.16 10.9613C77.2808 11.3238 77.2809 11.7467 77.0392 12.0488C76.7975 12.3509 76.4349 12.5322 76.0723 12.5322ZM73.4138 10.1757H74.3806L73.8972 8.96726L73.4138 10.1757Z" fill="#252525"/>
<path d="M78.7914 19.5412H68.8821C68.5196 19.5412 68.157 19.36 67.9153 19.0579C67.6736 18.7558 67.6736 18.3328 67.7945 17.9703L70.574 10.9612C70.7553 10.5382 71.1783 10.2361 71.6616 10.2361H76.0121C76.4954 10.2361 76.9184 10.5382 77.0997 10.9612L79.8791 17.9703C79.9999 18.3328 80 18.7558 79.7583 19.0579C79.577 19.36 79.2144 19.5412 78.7914 19.5412ZM70.6343 17.1847H77.0997L75.2265 12.4718H72.447L70.6343 17.1847Z" fill="#252525"/>
<path d="M73.8972 79.7227C70.5135 79.7227 67.7944 77.0037 67.7944 73.62V70.901C67.7944 70.2363 68.3383 69.7529 68.9426 69.7529H78.8519C79.5165 69.7529 79.9999 70.2968 79.9999 70.901V73.62C79.9999 76.9433 77.2205 79.7227 73.8972 79.7227ZM70.0905 72.049V73.62C70.0905 75.6744 71.7824 77.4267 73.8972 77.4267C76.012 77.4267 77.7039 75.7348 77.7039 73.62V72.049H70.0905Z" fill="#252525"/>
<path d="M23.0816 23.2272H7.97586C7.31121 23.2272 6.82788 22.6834 6.82788 22.0792V8.60484C6.82788 7.94019 7.37163 7.45679 7.97586 7.45679H23.0816C23.7463 7.45679 24.2297 8.00061 24.2297 8.60484V22.0792C24.2902 22.6834 23.7463 23.2272 23.0816 23.2272ZM9.18432 20.8707H21.9336V9.75289H9.18432V20.8707Z" fill="#F49300"/>
<path d="M23.0816 61.3541H7.97586C7.31121 61.3541 6.82788 60.8103 6.82788 60.206V27.5172C6.82788 26.8525 7.37163 26.3691 7.97586 26.3691H23.0816C23.7463 26.3691 24.2297 26.913 24.2297 27.5172V60.206C24.2902 60.8707 23.7463 61.3541 23.0816 61.3541ZM9.18432 59.058H21.9336V28.7257H9.18432V59.058Z" fill="#F49300"/>
<path d="M23.0816 73.3178H7.97586C7.31121 73.3178 6.82788 72.774 6.82788 72.1698V65.4024C6.82788 64.7378 7.37163 64.2544 7.97586 64.2544H23.0816C23.7463 64.2544 24.2297 64.7982 24.2297 65.4024V72.1094C24.2902 72.774 23.7463 73.3178 23.0816 73.3178ZM9.18432 70.9613H21.9336V66.5505H9.18432V70.9613Z" fill="#F49300"/>
<path d="M57.8247 28.4841H29.6677C29.003 28.4841 28.5195 27.9403 28.5195 27.336C28.5195 26.7318 29.0634 26.188 29.6677 26.188H57.8247C58.4893 26.188 58.9728 26.7318 58.9728 27.336C58.9728 27.9403 58.4893 28.4841 57.8247 28.4841Z" fill="#252525"/>
<path d="M57.8247 39.5414H29.6677C29.003 39.5414 28.5195 38.9976 28.5195 38.3934C28.5195 37.7288 29.0634 37.2454 29.6677 37.2454H57.8247C58.4893 37.2454 58.9728 37.7892 58.9728 38.3934C58.9728 38.9976 58.4893 39.5414 57.8247 39.5414Z" fill="#252525"/>
<path d="M57.8247 50.5988H29.6677C29.003 50.5988 28.5195 50.055 28.5195 49.4508C28.5195 48.7861 29.0634 48.3027 29.6677 48.3027H57.8247C58.4893 48.3027 58.9728 48.8466 58.9728 49.4508C58.9728 50.055 58.4893 50.5988 57.8247 50.5988Z" fill="#252525"/>
<path d="M57.8247 61.6562H29.6677C29.003 61.6562 28.5195 61.1124 28.5195 60.5082C28.5195 59.8435 29.0634 59.3601 29.6677 59.3601H57.8247C58.4893 59.3601 58.9728 59.9039 58.9728 60.5082C58.9728 61.1124 58.4893 61.6562 57.8247 61.6562Z" fill="#252525"/>
<path d="M57.8247 72.7136H29.6677C29.003 72.7136 28.5195 72.1698 28.5195 71.5656C28.5195 70.9009 29.0634 70.4176 29.6677 70.4176H57.8247C58.4893 70.4176 58.9728 70.9614 58.9728 71.5656C58.9728 72.1698 58.4893 72.7136 57.8247 72.7136Z" fill="#252525"/>
</svg>
