<svg width="80" height="76" viewBox="0 0 80 76" fill="none" xmlns="http://www.w3.org/2000/svg">
<path d="M75.0077 33.96C73.8983 33.96 72.5424 33.6519 70.8783 32.6658C70.3236 32.3576 70.077 31.618 70.4468 31.0633C70.755 30.5086 71.4946 30.2621 72.0493 30.6319C73.775 31.618 75.1926 31.8645 76.0555 31.3715C76.8567 30.94 77.0416 29.8923 77.0416 29.4608C77.0416 29.2759 76.98 28.9061 76.9183 28.598C76.7951 28.1665 76.6718 27.6735 76.6718 27.1188C76.6718 26.0094 77.0416 25.393 77.3498 24.9C77.5347 24.5918 77.6579 24.4069 77.6579 23.9755C77.6579 23.544 77.5347 23.4208 77.3498 23.051C77.0416 22.6195 76.6718 22.0032 76.6718 20.8322C76.6718 19.7228 77.0416 19.1064 77.3498 18.6134C77.5347 18.3052 77.6579 18.1203 77.6579 17.6889C77.6579 17.0109 78.2126 16.5178 78.829 16.5178C79.4453 16.5178 80 17.0725 80 17.6889C80 18.7983 79.6302 19.4146 79.322 19.9077C79.1371 20.2158 79.0139 20.4007 79.0139 20.8322C79.0139 21.2636 79.1371 21.3869 79.322 21.7567C79.6302 22.1881 80 22.8044 80 23.9755C80 25.0849 79.6302 25.7012 79.322 26.1943C79.1371 26.5024 79.0139 26.6873 79.0139 27.1188C79.0139 27.3653 79.0755 27.7351 79.1988 28.0433C79.322 28.4747 79.4453 28.9678 79.3837 29.4608C79.3837 30.6935 78.7673 32.4809 77.1649 33.4054C76.6718 33.7135 75.9938 33.96 75.0077 33.96Z" fill="#252525"/>
<path d="M59.661 75.0694H46.6564C45.9785 75.0694 45.4854 74.5147 45.4854 73.8984V66.6256C41.6641 67.3036 37.7196 67.3652 33.8983 66.7489V73.8984C33.8983 74.5763 33.3436 75.0694 32.7273 75.0694H19.7227C19.0447 75.0694 18.5516 74.5147 18.5516 73.8984V60.339C11.7103 55.2235 7.27273 47.7042 6.22497 39.6302H4.00617C1.78737 39.6302 0 37.8428 0 35.624V26.9954C0 24.7766 1.78737 22.9892 4.00617 22.9892H8.81356C9.92295 20.6472 11.4022 18.4284 13.1279 16.3328C11.8336 15.9014 10.7242 15.2234 9.86133 14.1757C7.2111 11.094 8.5054 1.97225 8.6903 0.986118C8.75193 0.431418 9.30663 0 9.86133 0C10.9091 0 20.0925 0.123252 22.7427 3.14328C23.8521 4.43758 24.4068 5.97845 24.4684 7.64255C29.0909 5.48538 34.1448 4.37595 39.322 4.37595C57.6888 4.37595 72.6657 18.4284 72.6657 35.7473C72.6657 44.9923 68.3513 53.6826 60.8937 59.661V73.8367C60.8937 74.5147 60.339 75.0694 59.661 75.0694ZM47.8891 72.6657H58.49V59.1064C58.49 58.7366 58.6749 58.3668 58.9831 58.1819C66.1942 52.6349 70.3236 44.4993 70.3236 35.7473C70.3236 19.7843 56.4561 6.71805 39.322 6.71805C33.775 6.71805 28.3513 8.07398 23.6055 10.7242C23.1741 10.9707 22.6811 10.9091 22.3113 10.6009C21.9415 10.2928 21.7566 9.7997 21.8798 9.36827C22.3729 7.64254 22.0031 5.9168 20.9553 4.6225C19.661 3.08167 14.4838 2.40369 10.9091 2.34206C10.4777 5.91679 10.3544 11.094 11.7103 12.6348C12.6348 13.6826 13.9908 14.2989 15.5316 14.2989C16.0247 14.2989 16.4561 14.6071 16.641 15.0385C16.8259 15.47 16.7026 15.963 16.3945 16.3328C13.9908 18.7982 12.0801 21.6333 10.7242 24.6533C10.5393 25.0848 10.1079 25.3929 9.6148 25.3929H4.00617C3.1433 25.3929 2.4037 26.1325 2.4037 26.9954V35.624C2.4037 36.4869 3.1433 37.2265 4.00617 37.2265H7.27272C7.88906 37.2265 8.38214 37.7196 8.44377 38.3359C9.18337 46.4099 13.5593 53.8675 20.4006 58.7982C20.7088 59.0447 20.8937 59.3529 20.8937 59.7843V72.7273H31.4946V65.3929C31.4946 65.0231 31.6795 64.715 31.926 64.4684C32.1726 64.2219 32.5424 64.1603 32.9122 64.2219C37.3498 65.0848 41.9723 65.0232 46.4099 64.037C46.7797 63.9754 47.1495 64.037 47.396 64.2835C47.7042 64.5301 47.8274 64.8382 47.8274 65.208V72.6657H47.8891Z" fill="#252525"/>
<path d="M17.319 22.9892C17.319 22.3113 17.8737 21.8182 18.49 21.8182C19.168 21.8182 19.661 22.3729 19.661 22.9892C19.661 23.6672 19.1063 24.1603 18.49 24.1603C17.8737 24.2219 17.319 23.6672 17.319 22.9892Z" fill="#252525"/>
<path d="M39.8768 53.1896C31.2481 53.1896 24.1603 46.1634 24.1603 37.4731C24.1603 28.8444 31.1865 21.7566 39.8768 21.7566C48.5054 21.7566 55.5933 28.7828 55.5933 37.4731C55.5316 46.1634 48.5054 53.1896 39.8768 53.1896ZM39.8768 24.2219C32.5424 24.2219 26.564 30.2004 26.564 37.5347C26.564 44.8691 32.5424 50.8475 39.8768 50.8475C47.2111 50.8475 53.1896 44.8691 53.1896 37.5347C53.1896 30.2004 47.2111 24.2219 39.8768 24.2219Z" fill="#F49300"/>
<path d="M39.2605 47.4577V44.9924C37.8429 44.9924 36.3637 44.4993 35.5009 43.883L36.1172 42.2189C36.9801 42.8352 38.2743 43.2666 39.6303 43.2666C41.356 43.2666 42.527 42.2805 42.527 40.8629C42.527 39.507 41.5409 38.7057 39.7535 37.9661C37.2266 36.98 35.6857 35.8706 35.6857 33.7135C35.6857 31.6796 37.1649 30.1387 39.3837 29.7689V27.3036H40.9246V29.7073C42.4038 29.7689 43.3899 30.1387 44.1295 30.5701L43.5132 32.1726C43.0201 31.8645 41.9724 31.3098 40.4315 31.3098C38.5209 31.3098 37.8429 32.4192 37.8429 33.4053C37.8429 34.6996 38.7674 35.3159 40.8629 36.1788C43.3899 37.2266 44.6842 38.4592 44.6842 40.678C44.6842 42.5887 43.3283 44.4377 40.8013 44.8691V47.3961H39.2605V47.4577Z" fill="#F49300"/>
</svg>
