<svg width="78" height="80" viewBox="0 0 78 80" fill="none" xmlns="http://www.w3.org/2000/svg">
<path d="M73.2294 28.6858C73.0513 28.6858 72.8731 28.6264 72.7543 28.5671C72.2198 28.3295 71.6258 28.2106 71.0319 28.2106H70.9131C70.3192 28.2106 69.7253 28.3295 69.1908 28.5671C68.8345 28.7452 68.4187 28.6858 68.1218 28.5076C67.8248 28.3294 67.5873 27.9731 67.5873 27.6167C67.5873 27.5574 67.5873 27.498 67.5873 27.3792C67.5873 16.095 59.6289 6.8894 49.8888 6.8894H27.7954C18.0553 6.8894 10.0969 16.095 10.0969 27.3792C10.0969 27.4386 10.0969 27.5574 10.0969 27.6167C10.0969 27.9731 9.85929 28.3294 9.56233 28.5076C9.26538 28.6858 8.84976 28.6858 8.49341 28.5671C7.9589 28.3295 7.3649 28.2106 6.77099 28.2106H6.65224C6.05833 28.2106 5.46448 28.3295 4.92996 28.5671C4.57362 28.7452 4.15785 28.6858 3.8609 28.5076C3.56394 28.3294 3.32629 27.9731 3.32629 27.6167C3.32629 27.5574 3.32629 27.498 3.32629 27.3792C3.32629 12.294 14.3731 0 27.9142 0H50.0076C63.5487 0 74.5953 12.294 74.5953 27.3792C74.5953 27.4386 74.5953 27.5574 74.5953 27.6167C74.5953 27.9731 74.3578 28.3294 74.0608 28.5076C73.6451 28.6858 73.467 28.6858 73.2294 28.6858ZM27.6765 4.63251H49.7701C60.401 4.63251 69.072 14.135 69.7253 26.0132C70.0816 25.9538 70.4381 25.8945 70.8538 25.8945H70.9725C71.3289 25.8945 71.6853 25.8944 72.0416 25.9538C71.4477 12.8284 61.6482 2.25688 49.7701 2.25688H27.6765C15.7984 2.25688 6.05827 12.769 5.40497 25.9538C5.76132 25.8944 6.11769 25.8945 6.47404 25.8945H6.59279C6.94914 25.8945 7.36496 25.9538 7.7213 26.0132C8.31521 14.135 17.0456 4.63251 27.6765 4.63251Z" fill="#252525"/>
<path d="M6.5923 52.3237H6.47354C2.91009 52.3237 0 49.4135 0 45.85V32.4871C0 29.9333 1.48471 27.617 3.80096 26.548C4.63243 26.1323 5.58268 25.9541 6.47354 25.9541H6.5923C7.54255 25.9541 8.43341 26.1323 9.26489 26.548C11.5811 27.617 13.066 29.9333 13.066 32.4871V45.85C13.1254 49.4135 10.2151 52.3237 6.5923 52.3237ZM6.47354 28.211C5.87964 28.211 5.28579 28.3298 4.75127 28.5674C3.2665 29.2207 2.25688 30.7648 2.25688 32.3683V45.7313C2.25688 48.0475 4.1573 49.9481 6.47354 49.9481H6.5923C8.90854 49.9481 10.8091 48.0475 10.8091 45.7313V32.3683C10.8091 30.7054 9.85888 29.2207 8.31472 28.5674C7.7802 28.3298 7.18621 28.211 6.5923 28.211H6.47354Z" fill="#252525"/>
<path d="M71.0314 52.3237H70.9126C67.3492 52.3237 64.4391 49.4135 64.4391 45.85V32.4871C64.4391 29.9333 65.9238 27.617 68.24 26.548C69.0715 26.1323 70.0218 25.9541 70.9126 25.9541H71.0314C71.9816 25.9541 72.8725 26.1323 73.704 26.548C76.0202 27.617 77.5051 29.9333 77.5051 32.4871V45.85C77.5051 49.4135 74.5948 52.3237 71.0314 52.3237ZM70.8533 28.211C70.2594 28.211 69.6654 28.3298 69.1309 28.5674C67.6461 29.2207 66.6365 30.7648 66.6365 32.3683V45.7313C66.6365 48.0475 68.5371 49.9481 70.8533 49.9481H70.9721C73.2883 49.9481 75.1887 48.0475 75.1887 45.7313V32.3683C75.1887 30.7054 74.2385 29.2207 72.6944 28.5674C72.1598 28.3298 71.566 28.211 70.9721 28.211H70.8533Z" fill="#252525"/>
<path d="M51.3729 74.7732H48.2252C47.5719 74.7732 47.0968 74.2387 47.0968 73.6448C47.0968 73.0509 47.6313 72.5164 48.2252 72.5164H51.3729C61.4694 72.5164 69.6653 64.3205 69.6653 54.224V51.2545C69.6653 50.6012 70.1998 50.126 70.7937 50.126C71.447 50.126 71.9221 50.6606 71.9221 51.2545V54.224C72.0408 65.5083 62.776 74.7732 51.3729 74.7732Z" fill="#252525"/>
<path d="M42.6426 80.0004H34.8028C31.0612 80.0004 28.0918 76.9714 28.0918 73.2892C28.0918 69.5476 31.1206 66.5781 34.8028 66.5781H42.6426C46.3842 66.5781 49.3536 69.6069 49.3536 73.2892C49.413 76.9714 46.3842 80.0004 42.6426 80.0004ZM34.8028 68.7756C32.3678 68.7756 30.3485 70.7948 30.3485 73.2299C30.3485 75.6649 32.3678 77.6842 34.8028 77.6842H42.6426C45.0776 77.6842 47.0969 75.6649 47.0969 73.2299C47.0969 70.7948 45.0776 68.7756 42.6426 68.7756H34.8028Z" fill="#252525"/>
<path d="M26.9635 46.0875C24.1127 46.0875 21.7965 43.7712 21.7965 40.9204C21.7965 38.0696 24.1127 35.7534 26.9635 35.7534C29.8142 35.7534 32.1305 38.0696 32.1305 40.9204C32.1305 43.7712 29.8142 46.0875 26.9635 46.0875ZM26.9635 38.0697C25.3599 38.0697 24.1127 39.3762 24.1127 40.9204C24.1127 42.4646 25.4193 43.7712 26.9635 43.7712C28.567 43.7712 29.8143 42.4646 29.8143 40.9204C29.8143 39.3762 28.567 38.0697 26.9635 38.0697Z" fill="#F49300"/>
<path d="M38.9009 46.0875C36.0501 46.0875 33.7339 43.7712 33.7339 40.9204C33.7339 38.0696 36.0501 35.7534 38.9009 35.7534C41.7516 35.7534 44.0678 38.0696 44.0678 40.9204C44.0678 43.7712 41.7516 46.0875 38.9009 46.0875ZM38.9009 38.0697C37.2973 38.0697 36.0501 39.3762 36.0501 40.9204C36.0501 42.4646 37.3567 43.7712 38.9009 43.7712C40.5044 43.7712 41.7516 42.4646 41.7516 40.9204C41.7516 39.3762 40.5044 38.0697 38.9009 38.0697Z" fill="#F49300"/>
<path d="M50.8979 46.0875C48.0472 46.0875 45.731 43.7712 45.731 40.9204C45.731 38.0696 48.0472 35.7534 50.8979 35.7534C53.7487 35.7534 56.0649 38.0696 56.0649 40.9204C56.0649 43.7712 53.7487 46.0875 50.8979 46.0875ZM50.8979 38.0697C49.2944 38.0697 48.0471 39.3762 48.0471 40.9204C48.0471 42.4646 49.3538 43.7712 50.8979 43.7712C52.4421 43.7712 53.7487 42.4646 53.7487 40.9204C53.7487 39.3762 52.5015 38.0697 50.8979 38.0697Z" fill="#F49300"/>
</svg>
