<svg width="80" height="80" viewBox="0 0 80 80" fill="none" xmlns="http://www.w3.org/2000/svg">
<path d="M33.4883 63.6158C24.3661 63.6158 16.9242 56.174 16.9242 47.0517C16.9242 37.9294 24.3661 30.4875 33.4883 30.4875C42.6106 30.4875 50.0525 37.9294 50.0525 47.0517C50.0525 56.174 42.6707 63.6158 33.4883 63.6158ZM33.4883 32.7681C25.6264 32.7681 19.2647 39.1297 19.2647 46.9917C19.2647 54.8537 25.6264 61.2152 33.4883 61.2152C41.3503 61.2152 47.7119 54.8537 47.7119 46.9917C47.7719 39.1897 41.3503 32.7681 33.4883 32.7681Z" fill="#F49300"/>
<path d="M32.8882 55.1539C32.8882 55.1539 32.8282 55.1539 32.8882 55.1539C32.3481 55.1539 31.9879 54.8538 31.8079 54.3737L28.5071 45.3714C28.267 44.7713 28.5671 44.1111 29.1672 43.8711C29.7674 43.631 30.4275 43.9311 30.6676 44.5313L33.0082 50.9529L38.3496 39.67C38.6496 39.0699 39.3098 38.8299 39.9099 39.1299C40.5101 39.43 40.7502 40.0902 40.4501 40.6903L33.9084 54.4938C33.7284 54.8539 33.3083 55.1539 32.8882 55.1539Z" fill="#F49300"/>
<path d="M37.6894 7.08181H25.3263C24.6661 7.08181 24.186 6.54166 24.186 5.94151C24.186 2.64068 26.8867 0 30.1275 0H32.8882C36.189 0 38.8297 2.70069 38.8297 5.94151C38.8897 6.54166 38.3495 7.08181 37.6894 7.08181ZM26.7066 4.74121H36.369C35.8889 3.30084 34.5086 2.2806 32.8882 2.2806H30.1275C28.5071 2.2806 27.1867 3.30084 26.7066 4.74121Z" fill="#252525"/>
<path d="M39.6699 24.9061H23.7659C23.1057 24.9061 22.6257 24.366 22.6257 23.7658V17.8244C22.6257 17.1642 23.1657 16.6841 23.7659 16.6841H39.6699C40.3301 16.6841 40.8102 17.2242 40.8102 17.8244V23.7658C40.8102 24.366 40.27 24.9061 39.6699 24.9061ZM24.8462 22.5655H38.4696V18.9646H24.8462V22.5655Z" fill="#252525"/>
<path d="M61.9356 80H1.1403C0.480135 80 0 79.4599 0 78.8597V9.42228C0 8.76212 0.540151 8.28198 1.1403 8.28198H19.0248C19.3249 8.28198 19.6249 8.402 19.865 8.64206C20.105 8.88212 20.2251 9.18221 20.1651 9.48228C20.1651 9.5423 20.1651 9.60227 20.1651 9.66229V14.1634C20.1651 14.2834 20.1651 14.2835 20.1651 14.3435C20.1651 14.6436 20.105 15.0037 19.865 15.2437C19.6249 15.4838 19.3249 15.6038 19.0248 15.6038H8.22211V71.838H55.2139V15.6038H44.0511C43.751 15.6038 43.3909 15.4838 43.2109 15.2437C42.9708 15.0037 42.9108 14.7036 42.9108 14.3435C42.9108 14.2835 42.9108 14.2234 42.9108 14.1634V9.60229C42.9108 9.54227 42.9108 9.48228 42.9108 9.48228C42.9108 9.18221 43.0308 8.88212 43.2109 8.64206C43.4509 8.402 43.751 8.28198 44.0511 8.28198H61.9356C62.5958 8.28198 63.0758 8.82213 63.0758 9.42228V78.8597C63.0758 79.4599 62.5358 80 61.9356 80ZM2.2806 77.6594H60.7353V10.5625H45.1914V13.2632H56.3542C57.0144 13.2632 57.4945 13.8033 57.4945 14.4035V72.9782C57.4945 73.6384 56.9543 74.1185 56.3542 74.1185H7.08181C6.42164 74.1185 5.94151 73.5784 5.94151 72.9782V14.4035C5.94151 13.7433 6.48166 13.2632 7.08181 13.2632H17.8245V10.5625H2.2806V77.6594Z" fill="#252525"/>
<path d="M56.3541 74.1784H7.08171C6.42154 74.1784 5.94141 73.6383 5.94141 73.0381V14.4633C5.94141 13.8032 6.48156 13.3231 7.08171 13.3231H19.0247C19.6249 13.3231 20.1049 13.8032 20.165 14.4033C20.285 15.7237 21.3653 16.684 22.6256 16.684H40.3301C41.6504 16.684 42.7307 15.7237 42.7907 14.4033C42.8507 13.8032 43.3308 13.3231 43.931 13.3231H56.2941C56.9543 13.3231 57.4344 13.8632 57.4344 14.4633V73.0381C57.4944 73.6983 57.0143 74.1784 56.3541 74.1784ZM8.22201 71.8978H55.2138V15.6637H44.9512C44.3511 17.6441 42.4906 19.0246 40.3901 19.0246H22.6856C20.5251 19.0246 18.7247 17.6441 18.1245 15.6637H8.28201V71.8978H8.22201Z" fill="#252525"/>
<path d="M40.3901 18.9646H22.6857C20.165 18.9646 18.1245 17.0442 17.8845 14.5236C17.8845 14.3435 17.8245 14.2235 17.8245 14.1034V9.5423C17.8245 9.48228 17.8245 9.36224 17.8245 9.30222C17.9445 6.78159 20.045 4.74109 22.6257 4.74109H40.3301C42.9108 4.74109 45.0113 6.78157 45.1313 9.36222C45.1313 9.42224 45.1313 9.54228 45.1313 9.6023V14.1634C45.1313 14.2835 45.1313 14.4035 45.1313 14.5236C44.9513 17.1042 42.9108 18.9646 40.3901 18.9646ZM20.165 9.6623V14.1634C20.165 14.2835 20.165 14.2835 20.165 14.3435C20.285 15.6638 21.3654 16.6241 22.6257 16.6241H40.3301C41.6505 16.6241 42.7307 15.6638 42.7907 14.3435C42.7907 14.2835 42.7907 14.2234 42.7907 14.1634V9.6023C42.7907 9.54228 42.7907 9.4823 42.7907 9.4823C42.7307 8.16196 41.6504 7.08169 40.2701 7.08169H22.5656C21.2453 7.08169 20.105 8.16196 20.045 9.4823C20.165 9.4823 20.165 9.60228 20.165 9.6623Z" fill="#252525"/>
<path d="M74.2386 72.6181H66.6166C65.9565 72.6181 65.4763 72.0779 65.4763 71.4778V18.1244C65.4763 17.4643 66.0165 16.9841 66.6166 16.9841H74.2386C74.8987 16.9841 75.3788 17.5243 75.3788 18.1244V71.4778C75.3788 72.138 74.8987 72.6181 74.2386 72.6181ZM67.7569 70.3376H73.0383V19.3247H67.7569V70.3376Z" fill="#252525"/>
<path d="M78.1995 69.0172H74.2386C73.5784 69.0172 73.0983 68.477 73.0983 67.8769C73.0983 67.2167 73.6384 66.7366 74.2386 66.7366H77.0592V48.7321C77.0592 48.0719 77.5994 47.5918 78.1995 47.5918C78.8597 47.5918 79.3399 48.1319 79.3399 48.7321V67.8769C79.3399 68.537 78.8597 69.0172 78.1995 69.0172Z" fill="#252525"/>
<path d="M74.1185 19.2646H66.6766C66.3165 19.2646 65.9565 19.0846 65.7764 18.7846C65.5363 18.4845 65.4764 18.1244 65.5964 17.7643L69.3173 4.86103C69.4373 4.38091 69.9175 4.02087 70.4576 4.02087C70.9977 4.02087 71.4179 4.38091 71.5979 4.86103L75.3188 17.7643C75.4388 18.1244 75.3789 18.4845 75.1388 18.7846C74.8387 19.0846 74.4786 19.2646 74.1185 19.2646ZM68.2371 16.9241H72.5581L70.3976 9.42223L68.2371 16.9241Z" fill="#252525"/>
<path d="M72.1981 78.5596H68.5972C67.937 78.5596 67.4569 78.0194 67.4569 77.4193V71.4778C67.4569 70.8176 67.9971 70.3375 68.5972 70.3375H72.1981C72.8583 70.3375 73.3384 70.8776 73.3384 71.4778V77.4193C73.3984 78.0794 72.8583 78.5596 72.1981 78.5596ZM69.7975 76.279H71.0578V72.6781H69.7975V76.279Z" fill="#252525"/>
</svg>
