<svg width="78" height="80" viewBox="0 0 78 80" fill="none" xmlns="http://www.w3.org/2000/svg">
<path d="M3.5601 20.6598H1.18649C0.533746 20.6598 0.059082 20.1258 0.059082 19.5324C0.059082 18.8797 0.593086 18.405 1.18649 18.405H3.5601C4.21284 18.405 4.6875 18.939 4.6875 19.5324C4.6875 20.1258 4.1535 20.6598 3.5601 20.6598Z" fill="#F49300"/>
<path d="M3.5601 28.9083H1.18649C0.533746 28.9083 0.059082 28.3741 0.059082 27.7807C0.059082 27.128 0.593086 26.6533 1.18649 26.6533H3.5601C4.21284 26.6533 4.6875 27.1873 4.6875 27.7807C4.6875 28.3741 4.1535 28.9083 3.5601 28.9083Z" fill="#F49300"/>
<path d="M3.5601 37.1564H1.18649C0.533746 37.1564 0.059082 36.6224 0.059082 36.029C0.059082 35.4356 0.593086 34.9015 1.18649 34.9015H3.5601C4.21284 34.9015 4.6875 35.4356 4.6875 36.029C4.6875 36.6224 4.1535 37.1564 3.5601 37.1564Z" fill="#F49300"/>
<path d="M3.5601 45.4049H1.18649C0.533746 45.4049 0.059082 44.8707 0.059082 44.2773C0.059082 43.6246 0.593086 43.1499 1.18649 43.1499H3.5601C4.21284 43.1499 4.6875 43.6839 4.6875 44.2773C4.6875 44.8707 4.1535 45.4049 3.5601 45.4049Z" fill="#F49300"/>
<path d="M3.5601 53.653H1.18649C0.533746 53.653 0.059082 53.119 0.059082 52.5256C0.059082 51.9322 0.593086 51.3981 1.18649 51.3981H3.5601C4.21284 51.3981 4.6875 51.9322 4.6875 52.5256C4.6875 53.119 4.1535 53.653 3.5601 53.653Z" fill="#F49300"/>
<path d="M3.5601 61.9013H1.18649C0.533746 61.9013 0.059082 61.3673 0.059082 60.7739C0.059082 60.1211 0.593086 59.6465 1.18649 59.6465H3.5601C4.21284 59.6465 4.6875 60.1805 4.6875 60.7739C4.6875 61.3673 4.1535 61.9013 3.5601 61.9013Z" fill="#F49300"/>
<path d="M3.5601 70.1497H1.18649C0.533746 70.1497 0.059082 69.6156 0.059082 69.0222C0.059082 68.3694 0.593086 67.8948 1.18649 67.8948H3.5601C4.21284 67.8948 4.6875 68.4288 4.6875 69.0222C4.6875 69.6156 4.1535 70.1497 3.5601 70.1497Z" fill="#F49300"/>
<path d="M5.93402 16.506H1.12741C0.474664 16.506 0 15.972 0 15.3786C0 14.7259 0.534004 14.2512 1.12741 14.2512H5.93402C6.58677 14.2512 7.06143 14.7852 7.06143 15.3786C7.06143 16.0314 6.58677 16.506 5.93402 16.506Z" fill="#F49300"/>
<path d="M5.93402 24.8137H1.12741C0.474664 24.8137 0 24.2796 0 23.6862C0 23.0335 0.534004 22.5588 1.12741 22.5588H5.93402C6.58677 22.5588 7.06143 23.0928 7.06143 23.6862C7.06143 24.2796 6.58677 24.8137 5.93402 24.8137Z" fill="#F49300"/>
<path d="M5.93402 33.0621H1.12741C0.474664 33.0621 0 32.5279 0 31.9345C0 31.3411 0.534004 30.8071 1.12741 30.8071H5.93402C6.58677 30.8071 7.06143 31.3411 7.06143 31.9345C7.06143 32.5279 6.58677 33.0621 5.93402 33.0621Z" fill="#F49300"/>
<path d="M5.93402 41.3103H1.12741C0.474664 41.3103 0 40.7763 0 40.1828C0 39.5301 0.534004 39.0553 1.12741 39.0553H5.93402C6.58677 39.0553 7.06143 39.5894 7.06143 40.1828C7.06143 40.7763 6.58677 41.3103 5.93402 41.3103Z" fill="#F49300"/>
<path d="M5.93402 49.5587H1.12741C0.474664 49.5587 0 49.0245 0 48.4311C0 47.7784 0.534004 47.3037 1.12741 47.3037H5.93402C6.58677 47.3037 7.06143 47.8377 7.06143 48.4311C7.06143 49.0245 6.58677 49.5587 5.93402 49.5587Z" fill="#F49300"/>
<path d="M5.93402 57.8068H1.12741C0.474664 57.8068 0 57.2728 0 56.6794C0 56.0267 0.534004 55.5519 1.12741 55.5519H5.93402C6.58677 55.5519 7.06143 56.086 7.06143 56.6794C7.06143 57.2728 6.58677 57.8068 5.93402 57.8068Z" fill="#F49300"/>
<path d="M5.93402 66.0551H1.12741C0.474664 66.0551 0 65.5211 0 64.9277C0 64.275 0.534004 63.8003 1.12741 63.8003H5.93402C6.58677 63.8003 7.06143 64.3343 7.06143 64.9277C7.06143 65.5211 6.58677 66.0551 5.93402 66.0551Z" fill="#F49300"/>
<path d="M5.93402 74.3035H1.12741C0.474664 74.3035 0 73.7694 0 73.176C0 72.5232 0.534004 72.0486 1.12741 72.0486H5.93402C6.58677 72.0486 7.06143 72.5826 7.06143 73.176C7.06143 73.7694 6.58677 74.3035 5.93402 74.3035Z" fill="#F49300"/>
<path d="M56.4323 80H1.18649C0.533746 80 0.059082 79.466 0.059082 78.8726V1.1369C0.059082 0.662175 0.355667 0.187424 0.830389 0.0687437C1.30511 -0.109277 1.83929 0.0687147 2.13599 0.484096L57.3818 78.2198C57.6192 78.5758 57.6783 79.0506 57.4409 79.4066C57.2629 79.7626 56.8477 80 56.4323 80ZM2.31389 77.6858H54.1772L2.31389 4.69731V77.6858ZM35.9599 70.2683H12.8766C12.2239 70.2683 11.7489 69.7343 11.7489 69.1409V36.6224C11.7489 36.1477 12.0458 35.6729 12.5205 35.5542C12.9953 35.3762 13.5291 35.5542 13.8258 35.9696L36.9094 68.4881C37.1468 68.8441 37.2059 69.3188 36.9685 69.6749C36.7312 70.0309 36.3753 70.2683 35.9599 70.2683ZM13.9446 67.954H33.7048L13.9446 40.1828V67.954Z" fill="#252525"/>
<path d="M56.2545 47.9563C46.2854 47.9563 38.1558 39.8267 38.1558 29.8576C38.1558 19.8884 46.2854 11.7588 56.2545 11.7588C66.2237 11.7588 74.3533 19.8884 74.3533 29.8576C74.3533 39.8267 66.2237 47.9563 56.2545 47.9563ZM56.2545 14.0731C47.5315 14.0731 40.4703 21.1345 40.4703 29.8576C40.4703 38.5806 47.5315 45.6421 56.2545 45.6421C64.9775 45.6421 72.0391 38.5806 72.0391 29.8576C72.0391 21.1345 64.9775 14.0731 56.2545 14.0731Z" fill="#F49300"/>
<path d="M56.3139 60.1805C55.6612 60.1805 55.1865 59.6465 55.1865 59.0531V3.74789C55.1865 3.09515 55.7205 2.62048 56.3139 2.62048C56.9667 2.62048 57.4413 3.15449 57.4413 3.74789V59.0531C57.5007 59.7058 56.9667 60.1805 56.3139 60.1805Z" fill="#252525"/>
<path d="M52.457 8.31714L56.3141 4.40063L60.2307 8.31714V4.99403L56.3141 1.07751L52.457 4.99403V8.31714Z" fill="#252525"/>
<path d="M76.7857 31.2225H29.9663C29.3135 31.2225 28.8389 30.6885 28.8389 30.0951C28.8389 29.4423 29.3729 28.9675 29.9663 28.9675H76.7857C77.4384 28.9675 77.9131 29.5017 77.9131 30.0951C77.9131 30.6885 77.4384 31.2225 76.7857 31.2225Z" fill="#252525"/>
<path d="M34.5948 33.9521L30.6786 30.095L34.5948 26.1785H31.272L27.3555 30.095L31.272 33.9521H34.5948Z" fill="#252525"/>
</svg>
