<svg width="79" height="80" viewBox="0 0 79 80" fill="none" xmlns="http://www.w3.org/2000/svg">
<path d="M70.2129 80H8.63231C7.96361 80 7.47729 79.4529 7.47729 78.845V70.7599C7.47729 70.0912 8.0244 69.6049 8.63231 69.6049C9.301 69.6049 9.78732 70.152 9.78732 70.7599V77.6899H69.0578V70.7599C69.0578 70.0912 69.605 69.6049 70.2129 69.6049C70.8816 69.6049 71.3679 70.152 71.3679 70.7599V78.845C71.3679 79.4529 70.8816 80 70.2129 80Z" fill="#252525"/>
<path d="M39.3922 79.757C38.7235 79.757 38.2372 79.2098 38.2372 78.6019V70.5776C38.2372 69.9089 38.7843 69.4226 39.3922 69.4226C40.0609 69.4226 40.5472 69.9697 40.5472 70.5776V78.5412C40.5472 79.2098 40.0609 79.757 39.3922 79.757Z" fill="#252525"/>
<path d="M8.63231 56.7783C7.96361 56.7783 7.47729 56.2312 7.47729 55.6233V42.3102C7.47729 41.6415 8.0244 41.1552 8.63231 41.1552C9.301 41.1552 9.78732 41.7023 9.78732 42.3102V55.6233C9.78732 56.292 9.24021 56.7783 8.63231 56.7783Z" fill="#252525"/>
<path d="M39.3922 56.7781C38.7235 56.7781 38.2372 56.231 38.2372 55.6231V41.8845C38.2372 41.2158 38.7843 40.7295 39.3922 40.7295C40.0609 40.7295 40.5472 41.2766 40.5472 41.8845V55.6231C40.5472 56.2918 40.0609 56.7781 39.3922 56.7781Z" fill="#252525"/>
<path d="M70.2129 56.7783C69.5442 56.7783 69.0579 56.2312 69.0579 55.6233V42.3102C69.0579 41.6415 69.605 41.1552 70.2129 41.1552C70.8816 41.1552 71.3679 41.7023 71.3679 42.3102V55.6233C71.3679 56.292 70.8816 56.7783 70.2129 56.7783Z" fill="#252525"/>
<path d="M39.4529 27.7203C38.7842 27.7203 38.2979 27.1732 38.2979 26.5653V16.0486C38.2979 15.3799 38.845 14.8936 39.4529 14.8936C40.0608 14.8936 40.6079 15.4407 40.6079 16.0486V26.5653C40.6687 27.234 40.1216 27.7203 39.4529 27.7203Z" fill="#252525"/>
<path d="M16.1095 28.1457C15.8663 28.1457 15.5624 28.0241 15.3192 27.8418C14.8329 27.4162 14.7721 26.6868 15.1976 26.2004L24.4378 15.319C24.8633 14.8326 25.5928 14.7719 26.0791 15.1974C26.5654 15.623 26.6262 16.3524 26.2007 16.8387L16.9606 27.7202C16.7782 27.9634 16.4135 28.1457 16.1095 28.1457Z" fill="#252525"/>
<path d="M62.6748 28.1457C62.3709 28.1457 62.0061 28.0242 61.763 27.7202L52.5228 16.8387C52.0973 16.3524 52.1581 15.623 52.6444 15.1974C53.1308 14.7719 53.8602 14.8326 54.2858 15.319L63.5867 26.2004C64.0122 26.6868 63.9514 27.4162 63.4651 27.8418C63.2219 28.0241 62.9788 28.1457 62.6748 28.1457Z" fill="#252525"/>
<path d="M16.1094 71.7935H1.15501C0.486319 71.7935 0 71.2464 0 70.6385V55.6841C0 55.0154 0.547109 54.5291 1.15501 54.5291H16.1094C16.7781 54.5291 17.2644 55.0762 17.2644 55.6841V70.6385C17.3252 71.2464 16.7781 71.7935 16.1094 71.7935ZM2.37082 69.4227H14.9544V56.8391H2.37082V69.4227Z" fill="#F49300"/>
<path d="M46.9302 71.7935H31.9758C31.3071 71.7935 30.8208 71.2464 30.8208 70.6385V55.6841C30.8208 55.0154 31.3679 54.5291 31.9758 54.5291H46.9302C47.5989 54.5291 48.0852 55.0762 48.0852 55.6841V70.6385C48.0852 71.2464 47.5381 71.7935 46.9302 71.7935ZM33.1308 69.4227H45.7144V56.8391H33.1308V69.4227Z" fill="#F49300"/>
<path d="M77.69 71.7935H62.7356C62.0669 71.7935 61.5806 71.2464 61.5806 70.6385V55.6841C61.5806 55.0154 62.1277 54.5291 62.7356 54.5291H77.69C78.3587 54.5291 78.845 55.0762 78.845 55.6841V70.6385C78.845 71.2464 78.3587 71.7935 77.69 71.7935ZM63.8906 69.4227H76.4742V56.8391H63.8906V69.4227Z" fill="#F49300"/>
<path d="M16.1094 43.1004H1.15501C0.486319 43.1004 0 42.5533 0 41.9454V26.991C0 26.3223 0.547109 25.8359 1.15501 25.8359H16.1094C16.7781 25.8359 17.2644 26.3831 17.2644 26.991V41.9454C17.2644 42.5533 16.7173 43.1004 16.1094 43.1004ZM2.31004 40.7296H14.8936V28.1459H2.31004V40.7296Z" fill="#252525"/>
<path d="M46.8694 43.1004H31.915C31.2463 43.1004 30.76 42.5533 30.76 41.9454V26.991C30.76 26.3223 31.3071 25.8359 31.915 25.8359H46.8694C47.5381 25.8359 48.0244 26.3831 48.0244 26.991V41.9454C48.0244 42.5533 47.5381 43.1004 46.8694 43.1004ZM33.07 40.7296H45.6536V28.1459H33.07V40.7296Z" fill="#252525"/>
<path d="M77.6293 43.1004H62.6749C62.0062 43.1004 61.5199 42.5533 61.5199 41.9454V26.991C61.5199 26.3223 62.067 25.8359 62.6749 25.8359H77.6293C78.298 25.8359 78.7843 26.3831 78.7843 26.991V41.9454C78.8451 42.5533 78.298 43.1004 77.6293 43.1004ZM63.8907 40.7296H76.4743V28.1459H63.8907V40.7296Z" fill="#252525"/>
<path d="M53.4347 17.2645H25.3496C24.6809 17.2645 24.1946 16.7173 24.1946 16.1094V1.15503C24.1946 0.486337 24.7417 0 25.3496 0H53.4347C54.1034 0 54.5897 0.547127 54.5897 1.15503V16.1094C54.5897 16.7173 54.0426 17.2645 53.4347 17.2645ZM26.5046 14.8936H52.2189V2.30999H26.5046V14.8936Z" fill="#F49300"/>
</svg>
