<svg width="78" height="80" viewBox="0 0 78 80" fill="none" xmlns="http://www.w3.org/2000/svg">
<path d="M55.8742 79.9998H1.15642C0.486899 79.9998 0 79.452 0 78.8433V1.1794C0 0.509885 0.547764 0.0229492 1.15642 0.0229492H44.9185C45.588 0.0229492 46.0749 0.57075 46.0749 1.1794V12.1351H55.8742C56.5437 12.1351 57.0307 12.6829 57.0307 13.2915V78.8433C57.0915 79.452 56.5437 79.9998 55.8742 79.9998ZM2.37372 77.626H54.7178V14.448H44.9185C44.249 14.448 43.762 13.9002 43.762 13.2915V2.33578H2.37372V77.626Z" fill="#252525"/>
<path d="M55.8743 14.448H44.9186C44.2491 14.448 43.7621 13.9002 43.7621 13.2916V1.17949C43.7621 0.692571 44.0665 0.266485 44.4925 0.08389C44.9186 -0.0987054 45.4664 0.0230249 45.7707 0.388216L56.7265 12.5004C57.0308 12.8656 57.0916 13.3525 56.909 13.7785C56.7873 14.2046 56.3612 14.448 55.8743 14.448ZM46.1359 12.0743H53.2571L46.1359 4.16183V12.0743Z" fill="#252525"/>
<path d="M69.9341 26.6213H64.8215C64.1519 26.6213 63.665 26.0735 63.665 25.4649V20.6566C61.1695 19.3176 59.587 16.7003 59.587 13.8397C59.587 12.3789 60.0131 10.979 60.7435 9.76173C62.326 7.2054 63.1172 4.52732 63.1172 1.91012V1.48409C63.1172 0.814573 63.665 0.327637 64.2737 0.327637H70.4211C71.0906 0.327637 71.5775 0.875438 71.5775 1.48409V1.91012C71.5775 4.52732 72.4296 7.26626 73.9512 9.76173C74.6816 10.979 75.1076 12.3789 75.1076 13.8397C75.1076 16.7003 73.5252 19.3176 71.0297 20.6566V25.4649C71.0906 26.1344 70.6036 26.6213 69.9341 26.6213ZM65.9779 24.3085H68.7777V19.9262C68.7777 19.4393 69.082 19.0133 69.5081 18.8307C71.5166 17.9785 72.8557 16.0308 72.8557 13.7788C72.8557 12.7441 72.5513 11.7703 72.0644 10.9182C70.421 8.24012 69.4472 5.37943 69.3255 2.51877H65.491C65.3692 5.31856 64.3954 8.24012 62.752 10.9182C62.2042 11.7703 61.9608 12.7441 61.9608 13.7788C61.9608 15.97 63.2998 17.9785 65.3084 18.8307C65.7344 19.0133 66.0388 19.4393 66.0388 19.9262V24.3085H65.9779Z" fill="#F49300"/>
<path d="M67.3777 16.578C65.5517 16.578 64.0301 15.0563 64.0301 13.2304C64.0301 11.4044 65.5517 9.88281 67.3777 9.88281C69.2036 9.88281 70.7253 11.4044 70.7253 13.2304C70.7253 15.0563 69.2036 16.578 67.3777 16.578ZM67.3777 12.1957C66.8299 12.1957 66.343 12.6218 66.343 13.1695C66.343 13.7173 66.769 14.2042 67.3777 14.2042C67.9255 14.2042 68.3515 13.7782 68.3515 13.1695C68.3515 12.6218 67.9255 12.1957 67.3777 12.1957Z" fill="#F49300"/>
<path d="M67.3778 12.196C66.7082 12.196 66.2213 11.6482 66.2213 11.0396V1.36202C66.2213 0.692502 66.7691 0.205566 67.3778 0.205566C67.9864 0.205566 68.5342 0.753368 68.5342 1.36202V11.0396C68.5342 11.6482 68.0473 12.196 67.3778 12.196Z" fill="#F49300"/>
<path d="M67.3778 79.9997C63.7259 79.9997 60.8044 77.0173 60.8044 73.4262V30.8815C60.8044 27.2296 63.7868 24.3081 67.3778 24.3081C71.0298 24.3081 73.9513 27.2905 73.9513 30.8815V73.4262C73.9513 77.0173 71.0298 79.9997 67.3778 79.9997ZM67.3778 26.6209C65.065 26.6209 63.1173 28.5078 63.1173 30.8815V73.4262C63.1173 75.7391 65.0041 77.6868 67.3778 77.6868C69.7516 77.6868 71.6384 75.8 71.6384 73.4262V30.8815C71.5775 28.5078 69.6907 26.6209 67.3778 26.6209Z" fill="#252525"/>
<path d="M72.7948 53.9496H61.9608C61.2913 53.9496 60.8044 53.4018 60.8044 52.7932C60.8044 52.1237 61.3522 51.6367 61.9608 51.6367H72.7948C73.4643 51.6367 73.9513 52.1845 73.9513 52.7932C73.9513 53.4627 73.4035 53.9496 72.7948 53.9496Z" fill="#252525"/>
<path d="M76.6292 73H72.7947C72.1251 73 71.6382 72.4522 71.6382 71.8436C71.6382 71.1741 72.186 70.6871 72.7947 70.6871H75.4727V52.1232C75.4727 51.4537 76.0205 50.9668 76.6292 50.9668C77.2987 50.9668 77.7856 51.5146 77.7856 52.1232V71.8436C77.7856 72.4522 77.2987 73 76.6292 73Z" fill="#252525"/>
<path d="M45.4054 24.9775H11.6861C11.0166 24.9775 10.5297 24.4297 10.5297 23.821C10.5297 23.1515 11.0775 22.6646 11.6861 22.6646H45.4054C46.0749 22.6646 46.5618 23.2124 46.5618 23.821C46.6227 24.4905 46.0749 24.9775 45.4054 24.9775Z" fill="#F49300"/>
<path d="M45.4054 32.6469H11.6861C11.0166 32.6469 10.5297 32.0991 10.5297 31.4904C10.5297 30.8209 11.0775 30.334 11.6861 30.334H45.4054C46.0749 30.334 46.5618 30.8818 46.5618 31.4904C46.6227 32.0991 46.0749 32.6469 45.4054 32.6469Z" fill="#F49300"/>
<path d="M45.4054 40.2548H11.6861C11.0166 40.2548 10.5297 39.707 10.5297 39.0983C10.5297 38.4288 11.0775 37.9419 11.6861 37.9419H45.4054C46.0749 37.9419 46.5618 38.4897 46.5618 39.0983C46.6227 39.707 46.0749 40.2548 45.4054 40.2548Z" fill="#F49300"/>
<path d="M45.4054 47.8632H11.6861C11.0166 47.8632 10.5297 47.3154 10.5297 46.7067C10.5297 46.0372 11.0775 45.5503 11.6861 45.5503H45.4054C46.0749 45.5503 46.5618 46.0981 46.5618 46.7067C46.6227 47.3154 46.0749 47.8632 45.4054 47.8632Z" fill="#F49300"/>
<path d="M44.9184 63.14H28.5457C27.8762 63.14 27.3893 62.5922 27.3893 61.9835C27.3893 61.314 27.937 60.8271 28.5457 60.8271H44.9184C45.588 60.8271 46.0749 61.3749 46.0749 61.9835C46.1358 62.653 45.588 63.14 44.9184 63.14Z" fill="#252525"/>
<path d="M44.9184 68.618H28.5457C27.8762 68.618 27.3893 68.0702 27.3893 67.4616C27.3893 66.8529 27.937 66.3052 28.5457 66.3052H44.9184C45.588 66.3052 46.0749 66.8529 46.0749 67.4616C46.0749 68.0702 45.588 68.618 44.9184 68.618Z" fill="#252525"/>
</svg>
