<svg width="440" height="415" viewBox="0 0 440 415" fill="none" xmlns="http://www.w3.org/2000/svg">
<rect y="50" width="320" height="320" rx="3" fill="#FAAA17"/>
<rect x="400" y="80" width="40" height="40" rx="3" fill="#FAAA17"/>
<rect x="340" width="60" height="60" rx="3" fill="#FAAA17"/>
<g filter="url(#filter0_d)">
<rect x="40" y="90" width="320" height="320" rx="3" fill="white"/>
</g>
<rect x="51" y="101" width="298" height="298" rx="2" stroke="#F49300" stroke-width="2"/>
<path d="M145.073 309H137.825V280.776H129.425C129.233 282.248 129.025 283.848 128.801 285.576C128.609 287.304 128.385 289.064 128.129 290.856C127.905 292.616 127.665 294.296 127.409 295.896C127.153 297.464 126.897 298.856 126.641 300.072C126.225 302.056 125.665 303.752 124.961 305.16C124.289 306.568 123.345 307.64 122.129 308.376C120.945 309.112 119.393 309.48 117.473 309.48C116.225 309.48 115.073 309.304 114.017 308.952V303C114.433 303.16 114.833 303.288 115.217 303.384C115.633 303.448 116.081 303.48 116.561 303.48C117.489 303.48 118.193 303 118.673 302.04C119.185 301.048 119.697 299.208 120.209 296.52C120.401 295.496 120.673 293.896 121.025 291.72C121.377 289.544 121.761 287 122.177 284.088C122.625 281.144 123.041 278.024 123.425 274.728H145.073V309ZM173.446 309H153.718V274.728H173.446V280.68H160.966V288.216H172.582V294.168H160.966V303H173.446V309ZM193.778 309H186.53V280.776H177.218V274.728H203.09V280.776H193.778V309ZM248.923 309H241.675V294.216H228.091V309H220.843V274.728H228.091V288.168H241.675V274.728H248.923V309ZM278.523 309L276.027 300.84H263.547L261.051 309H253.227L265.323 274.584H274.203L286.347 309H278.523ZM274.299 294.744L271.803 286.776C271.643 286.232 271.435 285.544 271.179 284.712C270.923 283.88 270.667 283.032 270.411 282.168C270.155 281.304 269.947 280.552 269.787 279.912C269.627 280.552 269.403 281.352 269.115 282.312C268.859 283.24 268.603 284.136 268.347 285C268.123 285.832 267.947 286.424 267.819 286.776L265.371 294.744H274.299ZM130.537 324.728C134.953 324.728 138.169 325.688 140.185 327.608C142.233 329.496 143.257 332.104 143.257 335.432C143.257 337.448 142.841 339.32 142.009 341.048C141.177 342.776 139.785 344.168 137.833 345.224C135.913 346.28 133.289 346.808 129.961 346.808H126.841V359H119.593V324.728H130.537ZM130.153 330.68H126.841V340.856H129.241C131.289 340.856 132.905 340.456 134.089 339.656C135.305 338.824 135.913 337.496 135.913 335.672C135.913 332.344 133.993 330.68 130.153 330.68ZM149.734 359V324.728H156.982V337.88H159.334C162.502 337.88 165.094 338.328 167.11 339.224C169.158 340.12 170.678 341.352 171.67 342.92C172.662 344.488 173.158 346.28 173.158 348.296C173.158 351.688 172.038 354.328 169.798 356.216C167.558 358.072 163.99 359 159.094 359H149.734ZM177.334 359V324.728H184.582V359H177.334ZM156.982 353.048H158.902C161.046 353.048 162.726 352.696 163.942 351.992C165.19 351.288 165.814 350.056 165.814 348.296C165.814 346.472 165.174 345.272 163.894 344.696C162.646 344.12 160.87 343.832 158.566 343.832H156.982V353.048ZM221.314 359H214.066V344.216H200.482V359H193.234V324.728H200.482V338.168H214.066V324.728H221.314V359ZM257.873 359H249.617L237.185 341.624V359H229.937V324.728H237.185V341.336L249.473 324.728H257.201L244.721 341.192L257.873 359ZM281.915 359H262.187V324.728H281.915V330.68H269.435V338.216H281.051V344.168H269.435V353H281.915V359Z" fill="#252525"/>
<path d="M171.11 248H148.46V186.05C148.46 183.55 148.51 180.2 148.61 176C148.71 171.7 148.86 167.95 149.06 164.75C148.56 165.35 147.46 166.45 145.76 168.05C144.16 169.55 142.66 170.9 141.26 172.1L128.96 182L118.01 168.35L152.51 140.9H171.11V248ZM237.9 139.55C244.1 139.55 249.75 140.5 254.85 142.4C260.05 144.3 264.2 147.2 267.3 151.1C270.5 154.9 272.1 159.65 272.1 165.35C272.1 171.85 270.25 177.15 266.55 181.25C262.95 185.35 258.4 188.75 252.9 191.45C256.7 193.45 260.3 195.8 263.7 198.5C267.2 201.1 270 204.2 272.1 207.8C274.3 211.4 275.4 215.55 275.4 220.25C275.4 226.15 273.8 231.3 270.6 235.7C267.5 240.1 263.1 243.5 257.4 245.9C251.8 248.3 245.3 249.5 237.9 249.5C225.9 249.5 216.6 246.95 210 241.85C203.5 236.75 200.25 229.75 200.25 220.85C200.25 213.55 202.25 207.65 206.25 203.15C210.25 198.55 215.1 194.85 220.8 192.05C216 189.05 211.9 185.45 208.5 181.25C205.2 176.95 203.55 171.6 203.55 165.2C203.55 159.6 205.15 154.9 208.35 151.1C211.55 147.2 215.75 144.3 220.95 142.4C226.25 140.5 231.9 139.55 237.9 139.55ZM237.75 156.05C234.05 156.05 230.95 157.05 228.45 159.05C226.05 160.95 224.85 163.6 224.85 167C224.85 170.7 226.15 173.7 228.75 176C231.35 178.3 234.4 180.3 237.9 182C241.3 180.4 244.3 178.5 246.9 176.3C249.5 174 250.8 170.9 250.8 167C250.8 163.6 249.55 160.95 247.05 159.05C244.55 157.05 241.45 156.05 237.75 156.05ZM221.25 219.5C221.25 223.4 222.6 226.6 225.3 229.1C228.1 231.6 232.2 232.85 237.6 232.85C243.2 232.85 247.4 231.65 250.2 229.25C253 226.85 254.4 223.65 254.4 219.65C254.4 216.95 253.6 214.6 252 212.6C250.4 210.5 248.4 208.65 246 207.05C243.6 205.35 241.2 203.8 238.8 202.4L236.85 201.35C232.15 203.55 228.35 206.1 225.45 209C222.65 211.9 221.25 215.4 221.25 219.5Z" fill="#F49300"/>
<defs>
<filter id="filter0_d" x="35" y="85" width="330" height="330" filterUnits="userSpaceOnUse" color-interpolation-filters="sRGB">
<feFlood flood-opacity="0" result="BackgroundImageFix"/>
<feColorMatrix in="SourceAlpha" type="matrix" values="0 0 0 0 0 0 0 0 0 0 0 0 0 0 0 0 0 0 127 0" result="hardAlpha"/>
<feOffset/>
<feGaussianBlur stdDeviation="2.5"/>
<feColorMatrix type="matrix" values="0 0 0 0 0 0 0 0 0 0 0 0 0 0 0 0 0 0 0.2 0"/>
<feBlend mode="normal" in2="BackgroundImageFix" result="effect1_dropShadow"/>
<feBlend mode="normal" in="SourceGraphic" in2="effect1_dropShadow" result="shape"/>
</filter>
</defs>
</svg>
