<svg width="80" height="80" viewBox="0 0 80 80" fill="none" xmlns="http://www.w3.org/2000/svg">
<path d="M71.1787 79.209H8.76069C3.95461 79.209 0 75.3154 0 70.4485V22.5094C0 17.7034 3.89377 13.7489 8.76069 13.7489H71.1787C75.9848 13.7489 79.9394 17.6425 79.9394 22.5094V70.4485C79.8786 75.3154 75.9848 79.209 71.1787 79.209ZM8.76069 16.1824C5.23218 16.1824 2.37286 19.0417 2.37286 22.5702V70.5094C2.37286 74.0379 5.23218 76.8972 8.76069 76.8972H71.1787C74.7072 76.8972 77.5665 74.0379 77.5665 70.5094V22.5702C77.5665 19.0417 74.7072 16.1824 71.1787 16.1824H8.76069Z" fill="#252525"/>
<path d="M66.5554 53.2319H53.232C52.5628 53.2319 52.0761 52.6843 52.0761 52.0759V46.2964H27.8024V52.0759C27.8024 52.7451 27.2549 53.2319 26.6466 53.2319H13.3234C12.6542 53.2319 12.1673 52.6843 12.1673 52.0759V46.2964H1.21675C0.547546 46.2964 0.0609131 45.749 0.0609131 45.1406V22.5702C0.0609131 17.7641 3.95439 13.8098 8.82131 13.8098H71.2396C76.0457 13.8098 80 17.7033 80 22.5702V45.1406C80 45.8098 79.4525 46.2964 78.8442 46.2964H67.8936V52.0759C67.7111 52.7451 67.2246 53.2319 66.5554 53.2319ZM54.4487 50.9201H65.3993V45.1406C65.3993 44.4714 65.947 43.9846 66.5554 43.9846H77.506V22.5702C77.506 19.0417 74.6466 16.1824 71.1181 16.1824H8.69981C5.1713 16.1824 2.31198 19.0417 2.31198 22.5702V43.9846H13.2626C13.9318 43.9846 14.4184 44.5322 14.4184 45.1406V50.9201H25.369V45.1406C25.369 44.4714 25.9164 43.9846 26.5248 43.9846H53.1105C53.7797 43.9846 54.2663 44.5322 54.2663 45.1406V50.9201H54.4487Z" fill="#252525"/>
<path d="M22.5094 49.1558H17.5819C16.9127 49.1558 16.4258 48.6083 16.4258 48C16.4258 47.3307 16.9735 46.8441 17.5819 46.8441H22.5094C23.1786 46.8441 23.6656 47.3916 23.6656 48C23.7264 48.6083 23.1786 49.1558 22.5094 49.1558Z" fill="#F49300"/>
<path d="M62.3573 49.1558H57.4298C56.7606 49.1558 56.2737 48.6083 56.2737 48C56.2737 47.3307 56.8214 46.8441 57.4298 46.8441H62.3573C63.0265 46.8441 63.5135 47.3916 63.5135 48C63.5135 48.6083 63.0265 49.1558 62.3573 49.1558Z" fill="#F49300"/>
<path d="M53.3537 16.1824H26.5247C25.8555 16.1824 25.3689 15.635 25.3689 15.0266V1.15583C25.3689 0.486633 25.9164 0 26.5247 0H53.3537C54.0229 0 54.5095 0.547469 54.5095 1.15583V15.0266C54.5095 15.635 53.9621 16.1824 53.3537 16.1824ZM27.6806 13.8099H52.137V2.31167H27.6806V13.8099Z" fill="#252525"/>
<path d="M68.3805 69.962C68.2588 69.962 68.0762 69.962 67.9545 69.962L46.9659 68.3193C46.3575 68.2584 45.871 67.7718 45.871 67.1634V60.8365C45.871 60.2281 46.3575 59.7413 46.9659 59.6805L67.9545 58.0379C69.2321 57.9163 70.4489 58.3421 71.4223 59.2547C72.639 60.3497 73.3689 62.1139 73.3689 64.0607C73.3689 66.0075 72.639 67.711 71.4223 68.8669C70.5706 69.5361 69.4755 69.962 68.3805 69.962ZM48.2435 66.0076L68.1369 67.5892C68.9278 67.6501 69.4755 67.2851 69.8405 66.9809C70.5705 66.3117 70.9963 65.2166 70.9963 63.9391C70.9963 62.6615 70.5705 61.5664 69.8405 60.8972C69.4755 60.593 68.9278 60.228 68.1369 60.2889L48.2435 61.8707V66.0076Z" fill="#F49300"/>
<path d="M18.2509 69.4752H9.73384C9.06464 69.4752 8.578 68.9276 8.578 68.3192V59.6197C8.578 58.9505 9.12547 58.4637 9.73384 58.4637H18.2509C18.4943 58.4637 18.7378 58.5247 18.9811 58.7072L21.962 61.0188H47.0877C47.7569 61.0188 48.2435 61.5665 48.2435 62.1748V65.7641C48.2435 66.4333 47.6961 66.9201 47.0877 66.9201H21.962L18.9811 69.2318C18.7378 69.3534 18.4943 69.4752 18.2509 69.4752ZM10.89 67.1025H17.8253L20.8062 64.7908C20.9887 64.6083 21.293 64.5474 21.5364 64.5474H45.871V63.3307H21.5364C21.293 63.3307 21.0495 63.2699 20.8062 63.0874L17.8253 60.7756H10.89V67.1025Z" fill="#F49300"/>
<path d="M41.3082 41.2471H38.5706C37.293 41.2471 36.2586 40.213 36.2586 38.9354C35.4678 39.848 33.8861 39.848 32.9735 38.9354L31.0266 36.9885C30.1141 36.076 30.1141 34.616 31.0266 33.7034C29.7491 33.7034 28.715 32.6692 28.715 31.3916V28.6539C28.715 27.3764 29.7491 26.3421 31.0266 26.3421C30.1141 25.4904 30.1141 23.9696 31.0266 23.057L32.9735 21.1103C33.8861 20.1977 35.3461 20.1977 36.2586 21.1103C36.1978 19.8327 37.293 18.7985 38.5706 18.7985H41.3082C42.5858 18.7985 43.6199 19.8327 43.6199 21.1103C44.4716 20.1977 45.9925 20.1977 46.905 21.1103L48.8519 23.057C49.2778 23.4829 49.5212 24.0912 49.5212 24.6996C49.5212 25.3079 49.2778 25.8554 48.8519 26.3421C50.1295 26.3421 51.1636 27.3764 51.1636 28.6539V31.3916C51.1636 32.6692 50.1295 33.7034 48.8519 33.7034C49.2778 34.1293 49.5212 34.6768 49.5212 35.2852C49.5212 35.8936 49.2778 36.5019 48.8519 36.9278L46.905 38.8745C46.0533 39.7262 44.4716 39.7262 43.6199 38.8745C43.6199 40.2129 42.5858 41.2471 41.3082 41.2471ZM36.2586 36.5627C36.5628 36.5627 36.867 36.6236 37.1712 36.7452C38.0229 37.1103 38.6312 37.962 38.6312 38.8745H41.3688C41.3688 37.962 41.9165 37.1103 42.7683 36.7452C43.62 36.3802 44.654 36.5628 45.3232 37.232L47.2092 35.2852C46.54 34.616 46.3576 33.6426 46.7226 32.7909C47.0877 31.9391 47.9394 31.3308 48.8519 31.3308V28.6539C47.9394 28.6539 47.0877 28.1065 46.7226 27.1939C46.3576 26.3422 46.54 25.308 47.2092 24.6388L45.2626 22.7528C44.6542 23.422 43.62 23.6046 42.7683 23.2396C41.9165 22.8745 41.3082 22.0228 41.3082 21.1103H38.5706C38.5706 22.0228 38.0229 22.8745 37.1712 23.2396C36.3195 23.6046 35.2854 23.422 34.6162 22.7528L32.7302 24.6996C33.3994 25.3688 33.5818 26.3422 33.2168 27.1939C32.8518 28.0456 32.0001 28.6539 31.0875 28.6539V31.3916C32.0001 31.3916 32.8518 31.9391 33.2168 32.7909C33.5818 33.6426 33.3994 34.6768 32.7302 35.346L34.6768 37.232C35.0418 36.8061 35.6503 36.5627 36.2586 36.5627Z" fill="#252525"/>
<path d="M39.9088 33.8859C37.7795 33.8859 36.0762 32.1825 36.0762 30.0532C36.0762 29.384 36.6236 28.8974 37.232 28.8974C37.8404 28.8974 38.3878 29.4448 38.3878 30.0532C38.3878 30.8441 39.057 31.5132 39.8479 31.5132C40.6387 31.5132 41.3082 30.8441 41.3082 30.0532C41.3082 29.2623 40.6387 28.5932 39.8479 28.5932C39.1787 28.5932 38.692 28.0456 38.692 27.4372C38.692 26.768 39.2395 26.2814 39.8479 26.2814C41.9771 26.2814 43.6807 27.9848 43.6807 30.1141C43.6807 32.2434 42.038 33.8859 39.9088 33.8859Z" fill="#F49300"/>
</svg>
