<svg width="81" height="80" viewBox="0 0 81 80" fill="none" xmlns="http://www.w3.org/2000/svg">
<path d="M73.0568 20.6487H62.9133C62.2492 20.6487 61.7662 20.1053 61.7662 19.5015V9.35805C61.7662 8.6939 62.3096 8.21094 62.9133 8.21094H73.0568C73.721 8.21094 74.2039 8.75428 74.2039 9.35805V19.5015C74.2643 20.1657 73.721 20.6487 73.0568 20.6487ZM64.1209 18.3543H71.9095V10.5656H64.1209V18.3543Z" fill="#252525"/>
<path d="M73.0568 39.7278H62.9133C62.2492 39.7278 61.7662 39.1844 61.7662 38.5806V28.4372C61.7662 27.7731 62.3096 27.29 62.9133 27.29H73.0568C73.721 27.29 74.2039 27.8335 74.2039 28.4372V38.5806C74.2643 39.1844 73.721 39.7278 73.0568 39.7278ZM64.1209 37.3731H71.9095V29.5843H64.1209V37.3731Z" fill="#252525"/>
<path d="M67.5021 71.6678C65.0266 71.6678 63.0341 69.6754 63.0341 67.1999C63.0341 64.7244 65.0266 62.7319 67.5021 62.7319C69.9776 62.7319 71.97 64.7244 71.97 67.1999C71.9096 69.6754 69.9172 71.6678 67.5021 71.6678ZM67.5021 65.0867C66.3549 65.0867 65.3889 66.0527 65.3889 67.1999C65.3889 68.3471 66.3549 69.3131 67.5021 69.3131C68.6493 69.3131 69.6153 68.3471 69.6153 67.1999C69.5549 66.0527 68.6493 65.0867 67.5021 65.0867Z" fill="#252525"/>
<path d="M30.2491 37.7366C29.9472 37.7366 29.6453 37.6158 29.4038 37.3743L22.2793 30.2498C21.7962 29.7668 21.7962 29.0422 22.2793 28.6196L29.4038 21.4951C29.8869 21.0121 30.6114 21.0121 31.034 21.4951L38.1586 28.6196C38.6416 29.1026 38.6416 29.8272 38.1586 30.2498L31.034 37.3743C30.8529 37.6762 30.551 37.7366 30.2491 37.7366ZM24.7548 29.4649L30.2491 34.9592L35.7435 29.4649L30.2491 23.9705L24.7548 29.4649Z" fill="#F49300"/>
<path d="M43.7133 51.1995C43.4114 51.1995 43.1096 51.0788 42.8681 50.8373L35.7435 43.7127C35.2605 43.2297 35.2605 42.5052 35.7435 42.0825L42.8681 34.958C43.3511 34.4749 44.0756 34.4749 44.4982 34.958L51.6228 42.0825C51.8643 42.3241 51.985 42.626 51.985 42.9278C51.985 43.2297 51.8643 43.5316 51.6228 43.7731L44.4982 50.8977C44.3171 51.0788 44.0152 51.1995 43.7133 51.1995ZM38.219 42.9278L43.7133 48.4222L49.2077 42.9278L43.7133 37.4334L38.219 42.9278Z" fill="#F49300"/>
<path d="M67.2002 71.5472C65.9927 71.5472 64.9057 71.0642 64.0605 70.2189C63.2152 69.3736 62.7322 68.2868 62.7322 67.0793C62.7322 65.8717 63.2152 64.7849 64.0605 63.9396C64.9057 63.0943 65.9927 62.6113 67.2002 62.6113C68.4078 62.6113 69.4945 63.0943 70.3398 63.9396C71.1851 64.7849 71.6681 65.8717 71.6681 67.0793C71.6681 68.2868 71.1851 69.3736 70.3398 70.2189C69.4945 71.1245 68.3474 71.5472 67.2002 71.5472ZM67.2002 65.0264C66.6568 65.0264 66.1134 65.2679 65.6908 65.6302C65.2681 66.0528 65.087 66.5359 65.087 67.1396C65.087 67.7434 65.3285 68.2264 65.6908 68.6491C66.4757 69.434 67.8643 69.434 68.6492 68.6491C69.0719 68.2264 69.253 67.7434 69.253 67.1396C69.253 66.5359 69.0115 66.0528 68.6492 65.6302C68.2869 65.2679 67.7436 65.0264 67.2002 65.0264Z" fill="#252525"/>
<path d="M66.5965 79.9999H8.9962C4.04524 79.9999 0 75.9547 0 71.0037V63.215C0 58.2641 4.04524 54.2188 8.9962 54.2188H38.8831C39.185 54.2188 39.4869 54.3395 39.7285 54.581L56.8152 71.6679C56.9963 71.849 57.0567 72.0302 57.1171 72.2113C57.8416 75.3509 60.619 77.5245 63.819 77.5245H68.0455C68.6492 77.5245 69.1322 78.0075 69.1926 78.6113C69.253 79.2151 68.8304 79.7585 68.2266 79.8792C67.6832 79.9396 67.1399 79.9999 66.5965 79.9999ZM8.9962 56.5735C5.31317 56.5735 2.35467 59.532 2.35467 63.215V71.0037C2.35467 74.6868 5.31317 77.6453 8.9962 77.6453H57.8417C56.453 76.4981 55.4266 74.9282 54.9436 73.0565L38.4 56.5131H8.9962V56.5735Z" fill="#252525"/>
<path d="M55.97 73.6604C55.6681 73.6604 55.3662 73.5397 55.1247 73.2982L16.8453 35.0188C15.1547 33.3282 14.1887 31.0339 14.1887 28.6792C14.1887 26.2641 15.0943 24.0301 16.8453 22.3395L22.3397 16.8452C25.8416 13.3433 31.5774 13.3433 35.0793 16.8452L56.5737 38.3396C56.8152 38.5811 56.9361 38.883 56.9361 39.1849V70.702C56.9361 71.2454 56.9963 71.7284 57.1171 72.2718C57.2378 72.7548 56.9964 73.2982 56.5737 73.5397C56.3926 73.6001 56.2115 73.6604 55.97 73.6604ZM28.7396 16.5433C27.0491 16.5433 25.3586 17.2075 24.0303 18.4754L18.5359 23.9698C17.2679 25.2377 16.6038 26.9282 16.6038 28.6792C16.6038 30.4301 17.2679 32.1207 18.5359 33.3886L54.5812 69.434V39.6076L33.4491 18.4754C32.1812 17.2075 30.4906 16.5433 28.7396 16.5433Z" fill="#252525"/>
<path d="M71.1247 79.8795H63.819C59.5322 79.8795 55.8491 76.9814 54.8831 72.755C54.7019 72.0304 54.6416 71.3059 54.6416 70.6417V9.23779C54.6416 4.16608 58.8077 0 63.8794 0H71.185C76.2567 0 80.4228 4.16608 80.4228 9.23779V70.7022C80.3624 75.7135 76.2568 79.8795 71.1247 79.8795ZM63.819 2.35474C60.0152 2.35474 56.936 5.43401 56.936 9.23779V70.7022C56.936 71.2456 56.9962 71.7286 57.117 72.272C57.8415 75.4116 60.6189 77.5852 63.819 77.5852H71.1247C74.9285 77.5852 78.0077 74.506 78.0077 70.7022V9.23779C78.0077 5.43401 74.9285 2.35474 71.1247 2.35474H63.819Z" fill="#252525"/>
<path d="M19.5021 72.8148H9.35869C8.69453 72.8148 8.21143 72.2714 8.21143 71.6676V61.5241C8.21143 60.86 8.75491 60.377 9.35869 60.377H19.5021C20.1663 60.377 20.6493 60.9204 20.6493 61.5241V71.6676C20.7096 72.3318 20.1663 72.8148 19.5021 72.8148ZM10.5662 70.5204H18.3549V62.7317H10.5662V70.5204Z" fill="#252525"/>
<path d="M38.5209 72.8148H28.3775C27.7133 72.8148 27.2302 72.2714 27.2302 71.6676V61.5241C27.2302 60.86 27.7737 60.377 28.3775 60.377H38.5209C39.1851 60.377 39.6681 60.9204 39.6681 61.5241V71.6676C39.7284 72.3318 39.1851 72.8148 38.5209 72.8148ZM29.585 70.5204H37.3737V62.7317H29.585V70.5204Z" fill="#252525"/>
<path d="M67.2002 71.5472C64.7247 71.5472 62.7322 69.5548 62.7322 67.0793C62.7322 64.6038 64.7247 62.6113 67.2002 62.6113C69.6757 62.6113 71.6076 64.6038 71.6076 67.0793C71.668 69.5548 69.6757 71.5472 67.2002 71.5472ZM67.2002 65.0264C66.053 65.0264 65.087 65.9925 65.087 67.1396C65.087 68.2868 66.053 69.2529 67.2002 69.2529C68.3474 69.2529 69.3134 68.2868 69.3134 67.1396C69.3134 65.9925 68.4078 65.0264 67.2002 65.0264Z" fill="#252525"/>
</svg>
