<svg width="440" height="405" viewBox="0 0 440 405" fill="none" xmlns="http://www.w3.org/2000/svg">
<rect y="40" width="320" height="320" rx="3" fill="#FAAA17"/>
<rect x="400" y="80" width="40" height="40" rx="3" fill="#FAAA17"/>
<rect x="340" width="60" height="60" rx="3" fill="#FAAA17"/>
<g filter="url(#filter0_d_1012_695)">
<rect x="40" y="80" width="320" height="320" rx="3" fill="white"/>
</g>
<rect x="51" y="91" width="298" height="298" rx="2" stroke="#F49300" stroke-width="2"/>
<path d="M99.5789 134.296C102.891 134.296 105.303 135.016 106.815 136.456C108.351 137.872 109.119 139.828 109.119 142.324C109.119 143.836 108.807 145.24 108.183 146.536C107.559 147.832 106.515 148.876 105.051 149.668C103.611 150.46 101.643 150.856 99.1469 150.856H96.8069V160H91.3709V134.296H99.5789ZM99.2909 138.76H96.8069V146.392H98.6069C100.143 146.392 101.355 146.092 102.243 145.492C103.155 144.868 103.611 143.872 103.611 142.504C103.611 140.008 102.171 138.76 99.2909 138.76ZM127.915 160L126.043 153.88H116.683L114.811 160H108.943L118.015 134.188H124.675L133.783 160H127.915ZM124.747 149.308L122.875 143.332C122.755 142.924 122.599 142.408 122.407 141.784C122.215 141.16 122.023 140.524 121.831 139.876C121.639 139.228 121.483 138.664 121.363 138.184C121.243 138.664 121.075 139.264 120.859 139.984C120.667 140.68 120.475 141.352 120.283 142C120.115 142.624 119.983 143.068 119.887 143.332L118.051 149.308H124.747ZM137.039 160V134.296H153.275V138.796H142.475V144.16H144.635C147.059 144.16 149.039 144.496 150.575 145.168C152.135 145.84 153.287 146.764 154.031 147.94C154.775 149.116 155.147 150.46 155.147 151.972C155.147 154.516 154.295 156.496 152.591 157.912C150.911 159.304 148.223 160 144.527 160H137.039ZM142.475 155.536H144.311C145.967 155.536 147.263 155.272 148.199 154.744C149.159 154.216 149.639 153.292 149.639 151.972C149.639 150.604 149.123 149.704 148.091 149.272C147.059 148.84 145.655 148.624 143.879 148.624H142.475V155.536ZM183.324 147.112C183.324 149.776 182.88 152.104 181.992 154.096C181.128 156.064 179.784 157.6 177.96 158.704C176.16 159.808 173.868 160.36 171.084 160.36C168.3 160.36 165.996 159.808 164.172 158.704C162.372 157.6 161.028 156.052 160.14 154.06C159.276 152.068 158.844 149.74 158.844 147.076C158.844 144.412 159.276 142.096 160.14 140.128C161.028 138.16 162.372 136.636 164.172 135.556C165.996 134.452 168.312 133.9 171.12 133.9C173.904 133.9 176.196 134.452 177.996 135.556C179.796 136.636 181.128 138.172 181.992 140.164C182.88 142.132 183.324 144.448 183.324 147.112ZM164.568 147.112C164.568 149.8 165.084 151.924 166.116 153.484C167.148 155.02 168.804 155.788 171.084 155.788C173.412 155.788 175.08 155.02 176.088 153.484C177.096 151.924 177.6 149.8 177.6 147.112C177.6 144.424 177.096 142.312 176.088 140.776C175.08 139.216 173.424 138.436 171.12 138.436C168.816 138.436 167.148 139.216 166.116 140.776C165.084 142.312 164.568 144.424 164.568 147.112ZM197.458 160H192.022V138.832H185.038V134.296H204.442V138.832H197.458V160ZM221.607 160L219.735 153.88H210.375L208.503 160H202.635L211.707 134.188H218.367L227.475 160H221.607ZM218.439 149.308L216.567 143.332C216.447 142.924 216.291 142.408 216.099 141.784C215.907 141.16 215.715 140.524 215.523 139.876C215.331 139.228 215.175 138.664 215.055 138.184C214.935 138.664 214.767 139.264 214.551 139.984C214.359 140.68 214.167 141.352 213.975 142C213.807 142.624 213.675 143.068 213.579 143.332L211.743 149.308H218.439ZM245.526 160H230.73V134.296H245.526V138.76H236.166V144.412H244.878V148.876H236.166V155.5H245.526V160ZM261.747 160L255.555 139.84H255.411C255.435 140.32 255.471 141.04 255.519 142C255.567 142.96 255.615 143.992 255.663 145.096C255.711 146.2 255.735 147.184 255.735 148.048V160H250.875V134.296H258.291L264.375 153.952H264.483L270.927 134.296H278.343V160H273.267V147.832C273.267 147.016 273.279 146.08 273.303 145.024C273.351 143.968 273.387 142.972 273.411 142.036C273.459 141.076 273.495 140.356 273.519 139.876H273.375L266.751 160H261.747ZM305.095 138.472C303.007 138.472 301.411 139.252 300.307 140.812C299.203 142.372 298.651 144.508 298.651 147.22C298.651 149.956 299.155 152.08 300.163 153.592C301.195 155.08 302.839 155.824 305.095 155.824C306.127 155.824 307.171 155.704 308.227 155.464C309.283 155.224 310.423 154.888 311.647 154.456V159.028C310.519 159.484 309.403 159.82 308.299 160.036C307.195 160.252 305.959 160.36 304.591 160.36C301.927 160.36 299.743 159.82 298.039 158.74C296.335 157.636 295.075 156.1 294.259 154.132C293.443 152.14 293.035 149.824 293.035 147.184C293.035 144.592 293.503 142.3 294.439 140.308C295.375 138.316 296.731 136.756 298.507 135.628C300.307 134.5 302.503 133.936 305.095 133.936C306.367 133.936 307.639 134.104 308.911 134.44C310.207 134.752 311.443 135.184 312.619 135.736L310.855 140.164C309.895 139.708 308.923 139.312 307.939 138.976C306.979 138.64 306.031 138.472 305.095 138.472ZM130.042 280.024V290.524H104.842V340H92.1577V280.024H130.042ZM192.035 309.928C192.035 316.144 190.999 321.576 188.927 326.224C186.911 330.816 183.775 334.4 179.519 336.976C175.319 339.552 169.971 340.84 163.475 340.84C156.979 340.84 151.603 339.552 147.347 336.976C143.147 334.4 140.011 330.788 137.939 326.14C135.923 321.492 134.915 316.06 134.915 309.844C134.915 303.628 135.923 298.224 137.939 293.632C140.011 289.04 143.147 285.484 147.347 282.964C151.603 280.388 157.007 279.1 163.559 279.1C170.055 279.1 175.403 280.388 179.603 282.964C183.803 285.484 186.911 289.068 188.927 293.716C190.999 298.308 192.035 303.712 192.035 309.928ZM148.271 309.928C148.271 316.2 149.475 321.156 151.883 324.796C154.291 328.38 158.155 330.172 163.475 330.172C168.907 330.172 172.799 328.38 175.151 324.796C177.503 321.156 178.679 316.2 178.679 309.928C178.679 303.656 177.503 298.728 175.151 295.144C172.799 291.504 168.935 289.684 163.559 289.684C158.183 289.684 154.291 291.504 151.883 295.144C149.475 298.728 148.271 303.656 148.271 309.928ZM249.774 280.024V329.416H257.754V357.472H245.49V340H207.942V357.472H195.678V329.416H200.298C202.426 325.272 204.414 320.792 206.262 315.976C208.11 311.16 209.762 305.812 211.218 299.932C212.674 294.052 213.878 287.416 214.83 280.024H249.774ZM237.09 290.608H224.91C224.406 294.528 223.594 298.728 222.474 303.208C221.41 307.688 220.122 312.196 218.61 316.732C217.098 321.212 215.446 325.44 213.654 329.416H237.09V290.608ZM303.674 340L299.306 325.72H277.466L273.098 340H259.406L280.574 279.772H296.114L317.366 340H303.674ZM296.282 315.052L291.914 301.108C291.634 300.156 291.27 298.952 290.822 297.496C290.374 296.04 289.926 294.556 289.478 293.044C289.03 291.532 288.666 290.216 288.386 289.096C288.106 290.216 287.714 291.616 287.21 293.296C286.762 294.92 286.314 296.488 285.866 298C285.474 299.456 285.166 300.492 284.942 301.108L280.658 315.052H296.282Z" fill="#252525"/>
<path d="M140.447 250H90.5469V239.5L108.447 221.4C112.047 217.667 114.947 214.567 117.147 212.1C119.347 209.567 120.947 207.3 121.947 205.3C122.947 203.233 123.447 201.033 123.447 198.7C123.447 195.833 122.647 193.7 121.047 192.3C119.514 190.9 117.414 190.2 114.747 190.2C112.014 190.2 109.347 190.833 106.747 192.1C104.147 193.367 101.414 195.167 98.5469 197.5L90.3469 187.8C92.3469 186.067 94.5135 184.433 96.8469 182.9C99.1802 181.3 101.847 180.033 104.847 179.1C107.914 178.1 111.58 177.6 115.847 177.6C120.514 177.6 124.514 178.467 127.847 180.2C131.247 181.867 133.847 184.167 135.647 187.1C137.514 189.967 138.447 193.233 138.447 196.9C138.447 200.833 137.647 204.433 136.047 207.7C134.514 210.967 132.247 214.2 129.247 217.4C126.314 220.6 122.747 224.133 118.547 228L109.347 236.6V237.3H140.447V250ZM197.273 214.3C197.273 221.967 196.44 228.533 194.773 234C193.173 239.467 190.54 243.667 186.873 246.6C183.207 249.533 178.34 251 172.273 251C163.673 251 157.373 247.767 153.373 241.3C149.373 234.833 147.373 225.833 147.373 214.3C147.373 206.633 148.173 200.067 149.773 194.6C151.373 189.067 154.007 184.833 157.673 181.9C161.34 178.967 166.207 177.5 172.273 177.5C180.807 177.5 187.107 180.733 191.173 187.2C195.24 193.667 197.273 202.7 197.273 214.3ZM162.373 214.3C162.373 222.433 163.073 228.567 164.473 232.7C165.873 236.767 168.473 238.8 172.273 238.8C176.007 238.8 178.607 236.767 180.073 232.7C181.54 228.633 182.273 222.5 182.273 214.3C182.273 206.167 181.54 200.033 180.073 195.9C178.607 191.767 176.007 189.7 172.273 189.7C168.473 189.7 165.873 191.767 164.473 195.9C163.073 200.033 162.373 206.167 162.373 214.3ZM254.5 214.3C254.5 221.967 253.667 228.533 252 234C250.4 239.467 247.767 243.667 244.1 246.6C240.433 249.533 235.567 251 229.5 251C220.9 251 214.6 247.767 210.6 241.3C206.6 234.833 204.6 225.833 204.6 214.3C204.6 206.633 205.4 200.067 207 194.6C208.6 189.067 211.233 184.833 214.9 181.9C218.567 178.967 223.433 177.5 229.5 177.5C238.033 177.5 244.333 180.733 248.4 187.2C252.467 193.667 254.5 202.7 254.5 214.3ZM219.6 214.3C219.6 222.433 220.3 228.567 221.7 232.7C223.1 236.767 225.7 238.8 229.5 238.8C233.233 238.8 235.833 236.767 237.3 232.7C238.767 228.633 239.5 222.5 239.5 214.3C239.5 206.167 238.767 200.033 237.3 195.9C235.833 191.767 233.233 189.7 229.5 189.7C225.7 189.7 223.1 191.767 221.7 195.9C220.3 200.033 219.6 206.167 219.6 214.3ZM309.327 194.6C309.327 199.533 307.827 203.467 304.827 206.4C301.893 209.333 298.26 211.333 293.927 212.4V212.7C299.593 213.433 303.927 215.2 306.927 218C309.927 220.8 311.427 224.533 311.427 229.2C311.427 233.333 310.393 237.067 308.327 240.4C306.327 243.667 303.193 246.267 298.927 248.2C294.727 250.067 289.293 251 282.627 251C274.893 251 268.027 249.7 262.027 247.1V234.3C265.093 235.833 268.293 237 271.627 237.8C274.96 238.6 278.093 239 281.027 239C286.427 239 290.193 238.067 292.327 236.2C294.527 234.333 295.627 231.7 295.627 228.3C295.627 226.367 295.127 224.7 294.127 223.3C293.127 221.9 291.36 220.867 288.827 220.2C286.36 219.467 282.893 219.1 278.427 219.1H273.027V207.5H278.527C282.927 207.5 286.26 207.1 288.527 206.3C290.86 205.433 292.427 204.3 293.227 202.9C294.093 201.433 294.527 199.767 294.527 197.9C294.527 195.367 293.727 193.4 292.127 192C290.593 190.533 287.993 189.8 284.327 189.8C280.927 189.8 277.96 190.4 275.427 191.6C272.893 192.8 270.793 193.933 269.127 195L262.127 184.6C264.927 182.6 268.193 180.933 271.927 179.6C275.727 178.267 280.227 177.6 285.427 177.6C292.76 177.6 298.56 179.1 302.827 182.1C307.16 185.033 309.327 189.2 309.327 194.6Z" fill="#F49300"/>
<defs>
<filter id="filter0_d_1012_695" x="35" y="75" width="330" height="330" filterUnits="userSpaceOnUse" color-interpolation-filters="sRGB">
<feFlood flood-opacity="0" result="BackgroundImageFix"/>
<feColorMatrix in="SourceAlpha" type="matrix" values="0 0 0 0 0 0 0 0 0 0 0 0 0 0 0 0 0 0 127 0" result="hardAlpha"/>
<feOffset/>
<feGaussianBlur stdDeviation="2.5"/>
<feColorMatrix type="matrix" values="0 0 0 0 0 0 0 0 0 0 0 0 0 0 0 0 0 0 0.2 0"/>
<feBlend mode="normal" in2="BackgroundImageFix" result="effect1_dropShadow_1012_695"/>
<feBlend mode="normal" in="SourceGraphic" in2="effect1_dropShadow_1012_695" result="shape"/>
</filter>
</defs>
</svg>
