<svg width="70" height="63" viewBox="0 0 70 63" fill="none" xmlns="http://www.w3.org/2000/svg">
<path d="M36.12 13.9703C35.8167 13.9794 35.525 14.102 35.3103 14.3153L29.155 20.2854L25.3633 16.608C24.3017 15.5321 22.5867 17.1937 23.695 18.2243L28.322 22.7143C28.7817 23.1615 29.5283 23.1615 29.9903 22.7143L36.9787 15.9338C37.7487 15.2074 37.1817 13.9703 36.1223 13.9703H36.12ZM1.16667 23.0503H8.16667C8.813 23.0503 9.33333 23.5565 9.33333 24.1853C9.33333 24.814 8.813 25.3203 8.16667 25.3203H1.16667C0.520333 25.3203 0 24.814 0 24.1853C0 23.5565 0.520333 23.0503 1.16667 23.0503ZM1.16667 13.9703H8.16667C8.813 13.9703 9.33333 14.4765 9.33333 15.1053C9.33333 15.7341 8.813 16.2403 8.16667 16.2403H1.16667C0.520333 16.2403 0 15.7341 0 15.1053C0 14.4765 0.520333 13.9703 1.16667 13.9703ZM1.16667 4.89033H8.16667C8.813 4.89033 9.33333 5.39653 9.33333 6.02532C9.33333 6.65411 8.813 7.16032 8.16667 7.16032H1.16667C0.520333 7.16032 0 6.65411 0 6.02532C0 5.39653 0.520333 4.89033 1.16667 4.89033ZM57.1667 29.8602C53.9583 29.8602 51.3333 32.414 51.3333 35.5352C51.3333 38.6565 53.9583 41.2102 57.1667 41.2102C60.375 41.2102 63 38.6565 63 35.5352C63 32.414 60.375 29.8602 57.1667 29.8602ZM57.1667 32.1302C59.1127 32.1302 60.6667 33.642 60.6667 35.5352C60.6667 37.4284 59.1127 38.9402 57.1667 38.9402C55.2207 38.9402 53.6667 37.4284 53.6667 35.5352C53.6667 33.642 55.2207 32.1302 57.1667 32.1302ZM26.8333 29.8602C23.625 29.8602 21 32.414 21 35.5352C21 38.6565 23.625 41.2102 26.8333 41.2102C30.0417 41.2102 32.6667 38.6565 32.6667 35.5352C32.6667 32.414 30.0417 29.8602 26.8333 29.8602ZM26.8333 32.1302C28.7793 32.1302 30.3333 33.642 30.3333 35.5352C30.3333 37.4284 28.7793 38.9402 26.8333 38.9402C24.8873 38.9402 23.3333 37.4284 23.3333 35.5352C23.3333 33.642 24.8873 32.1302 26.8333 32.1302ZM15.1667 0.350342C13.2487 0.350342 11.6667 1.8894 11.6667 3.75533V28.7252C11.6667 30.5912 13.2487 32.1302 15.1667 32.1302H19.8333C21.4107 32.1529 21.4107 29.8375 19.8333 29.8602H15.1667C14.4993 29.8602 14 29.3745 14 28.7252V3.75533C14 3.10611 14.4993 2.62033 15.1667 2.62033H45.5C46.1673 2.62033 46.6667 3.10611 46.6667 3.75533V29.8602H33.8333C32.2933 29.8602 32.3213 32.1529 33.8333 32.1302H50.1667C51.7067 32.1302 51.6927 29.8602 50.1667 29.8602H49V9.43031H58.863L67.6667 22.8142V28.7252C67.6667 29.3745 67.1673 29.8602 66.5 29.8602H64.1667C62.6407 29.8602 62.6407 32.1302 64.1667 32.1302H66.5C68.418 32.1302 70 30.5912 70 28.7252V22.4828C70 22.2671 69.937 22.0515 69.818 21.8699L60.4847 7.68242C60.27 7.35781 59.9013 7.16032 59.5 7.16032H49V3.75533C49 1.8894 47.418 0.350342 45.5 0.350342H15.1667Z" fill="#FAAA17"/>
<path d="M36.12 13.9703C35.8167 13.9794 35.525 14.102 35.3103 14.3153L29.155 20.2854L25.3633 16.608C24.3017 15.5321 22.5867 17.1937 23.695 18.2243L28.322 22.7143C28.7817 23.1615 29.5283 23.1615 29.9903 22.7143L36.9787 15.9338C37.7487 15.2074 37.1817 13.9703 36.1223 13.9703H36.12ZM1.16667 23.0503H8.16667C8.813 23.0503 9.33333 23.5565 9.33333 24.1853C9.33333 24.814 8.813 25.3203 8.16667 25.3203H1.16667C0.520333 25.3203 0 24.814 0 24.1853C0 23.5565 0.520333 23.0503 1.16667 23.0503ZM1.16667 13.9703H8.16667C8.813 13.9703 9.33333 14.4765 9.33333 15.1053C9.33333 15.7341 8.813 16.2403 8.16667 16.2403H1.16667C0.520333 16.2403 0 15.7341 0 15.1053C0 14.4765 0.520333 13.9703 1.16667 13.9703ZM1.16667 4.89033H8.16667C8.813 4.89033 9.33333 5.39653 9.33333 6.02532C9.33333 6.65411 8.813 7.16032 8.16667 7.16032H1.16667C0.520333 7.16032 0 6.65411 0 6.02532C0 5.39653 0.520333 4.89033 1.16667 4.89033ZM57.1667 29.8602C53.9583 29.8602 51.3333 32.414 51.3333 35.5352C51.3333 38.6565 53.9583 41.2102 57.1667 41.2102C60.375 41.2102 63 38.6565 63 35.5352C63 32.414 60.375 29.8602 57.1667 29.8602ZM57.1667 32.1302C59.1127 32.1302 60.6667 33.642 60.6667 35.5352C60.6667 37.4284 59.1127 38.9402 57.1667 38.9402C55.2207 38.9402 53.6667 37.4284 53.6667 35.5352C53.6667 33.642 55.2207 32.1302 57.1667 32.1302ZM26.8333 29.8602C23.625 29.8602 21 32.414 21 35.5352C21 38.6565 23.625 41.2102 26.8333 41.2102C30.0417 41.2102 32.6667 38.6565 32.6667 35.5352C32.6667 32.414 30.0417 29.8602 26.8333 29.8602ZM26.8333 32.1302C28.7793 32.1302 30.3333 33.642 30.3333 35.5352C30.3333 37.4284 28.7793 38.9402 26.8333 38.9402C24.8873 38.9402 23.3333 37.4284 23.3333 35.5352C23.3333 33.642 24.8873 32.1302 26.8333 32.1302ZM15.1667 0.350342C13.2487 0.350342 11.6667 1.8894 11.6667 3.75533V28.7252C11.6667 30.5912 13.2487 32.1302 15.1667 32.1302H19.8333C21.4107 32.1529 21.4107 29.8375 19.8333 29.8602H15.1667C14.4993 29.8602 14 29.3745 14 28.7252V3.75533C14 3.10611 14.4993 2.62033 15.1667 2.62033H45.5C46.1673 2.62033 46.6667 3.10611 46.6667 3.75533V29.8602H33.8333C32.2933 29.8602 32.3213 32.1529 33.8333 32.1302H50.1667C51.7067 32.1302 51.6927 29.8602 50.1667 29.8602H49V9.43031H58.863L67.6667 22.8142V28.7252C67.6667 29.3745 67.1673 29.8602 66.5 29.8602H64.1667C62.6407 29.8602 62.6407 32.1302 64.1667 32.1302H66.5C68.418 32.1302 70 30.5912 70 28.7252V22.4828C70 22.2671 69.937 22.0515 69.818 21.8699L60.4847 7.68242C60.27 7.35781 59.9013 7.16032 59.5 7.16032H49V3.75533C49 1.8894 47.418 0.350342 45.5 0.350342H15.1667Z" stroke="#FAAA17"/>
<line x1="5.6001" y1="61.6499" x2="70.0001" y2="61.6499" stroke="#FAAA17" stroke-width="1.5"/>
</svg>
