<svg width="60" height="60" viewBox="0 0 60 60" fill="none" xmlns="http://www.w3.org/2000/svg">
<g clip-path="url(#clip0)">
<path d="M56.9941 25.01C55.9325 11.0411 44.2262 0 29.99 0C15.754 0 4.04869 11.0411 2.98718 25.01C2.93734 25.1452 2.90869 39.3871 2.90869 39.3871C2.90869 40.0782 3.46779 40.6372 4.15865 40.6372H8.01126C11.0959 40.6372 13.6045 38.1287 13.6045 35.0438V29.7863C13.6045 26.7016 11.0959 24.193 8.01126 24.193H5.57918C7.01343 11.9947 17.4124 2.50004 29.99 2.50004C42.5676 2.50004 52.9677 11.9947 54.4019 24.1932H51.97C48.8852 24.1932 46.3755 26.7017 46.3755 29.7866V35.0441C46.3755 38.1288 48.8852 40.6374 51.97 40.6374H54.3465C53.9232 43.3697 52.8468 46.9395 50.19 49.8648C47.1037 53.2622 42.5088 55.1083 36.5202 55.3623C36.3031 53.4833 34.7029 52.0193 32.7669 52.0193H28.1294C26.0457 52.0193 24.3501 53.7147 24.3501 55.7984C24.3501 56.0097 24.1711 59.8189 28.1294 60.0003H32.7669C34.2572 60.0003 35.5488 59.1325 36.1636 57.8754C43.0671 57.6723 48.4062 55.5458 52.0406 51.5457C55.5123 47.7234 56.7336 43.0574 57.0724 39.8687C57.1345 39.7201 57.0286 25.1033 56.9941 25.01ZM8.01126 26.6932C9.71649 26.6932 11.1046 28.081 11.1046 29.7865V35.0439C11.1046 36.7494 9.71661 38.1372 8.01126 38.1372H5.40873C5.40873 38.1372 5.41167 26.8226 5.41363 26.6933H8.01126V26.6932ZM32.7671 57.5H28.1296C27.424 57.5 26.7166 56.8756 26.8504 55.7982C26.9373 55.098 27.3234 54.519 28.1296 54.519H32.7671C33.5953 54.519 33.9758 55.0963 34.0464 55.7982C34.1623 56.9518 33.4727 57.5 32.7671 57.5ZM51.9701 38.1371C50.2634 38.1371 48.8756 36.7493 48.8756 35.0438V29.7863C48.8756 28.0809 50.2634 26.693 51.9701 26.693H54.5676C54.5697 26.8223 54.5725 38.137 54.5725 38.137H51.9701V38.1371Z" fill="#FAAA17"/>
<path d="M23.1177 21.7871L18.4249 26.5016V28.7153H29.0062V26.2141H21.9886L25.6189 22.5175C26.7261 21.3816 27.4855 20.4517 27.8989 19.728C28.3123 19.0053 28.5185 18.245 28.5185 17.448C28.5185 16.0314 28.0317 14.9142 27.0583 14.0944C26.0838 13.2754 24.9507 12.8661 23.6601 12.8661C22.3683 12.8661 21.3137 13.1248 20.4947 13.6412C19.6758 14.1577 18.9265 14.9249 18.2476 15.9431L20.351 17.1605C21.1916 15.8619 22.2464 15.2125 23.5163 15.2125C24.239 15.2125 24.8368 15.4305 25.3097 15.8658C25.7815 16.301 26.0174 16.8283 26.0174 17.448C26.0174 18.0685 25.7963 18.6801 25.3532 19.2858C24.911 19.8906 24.1656 20.7244 23.1177 21.7871Z" fill="#FAAA17"/>
<path d="M36.6868 13.2428L30.9976 22.5176V24.8194H37.6383V28.7153H40.1177V24.8194H41.9775V22.4512H40.1177V19.6181H37.6383V22.4512H33.9417L39.5417 13.2428H36.6868Z" fill="#FAAA17"/>
<path d="M25.4997 41.1813C25.4997 40.5071 25.696 39.9947 26.0876 39.6437C26.4792 39.2929 26.9401 39.1173 27.4685 39.1173C28.5797 39.1173 29.1359 39.7864 29.1359 41.1266V45.1177H30.6665V40.6618C30.6665 39.7141 30.4137 38.9894 29.9081 38.4889C29.4027 37.9872 28.7394 37.7364 27.9197 37.7364C27.4091 37.7364 26.9334 37.8642 26.4912 38.1189C26.049 38.3747 25.7189 38.7257 25.4999 39.1717V34.9894H23.9692V45.1177H25.4999V41.1813H25.4997Z" fill="#FAAA17"/>
<path d="M32.7988 37.8453V45.1177H34.3293V42.001C34.3293 41.1722 34.5207 40.511 34.9034 40.0194C35.286 39.5267 35.856 39.2808 36.6124 39.2808C36.6391 39.2808 36.6669 39.2808 36.6947 39.2808L36.6808 37.7365C36.2069 37.7453 35.7578 37.896 35.3346 38.1874C34.9103 38.48 34.5753 38.8526 34.3293 39.3086V37.8453H32.7988Z" fill="#FAAA17"/>
</g>
<defs>
<clipPath id="clip0">
<rect width="60" height="60" fill="white"/>
</clipPath>
</defs>
</svg>
