<svg width="60" height="55" viewBox="0 0 60 55" fill="none" xmlns="http://www.w3.org/2000/svg">
<path d="M59 8.1825C59.552 8.1825 60 7.74666 60 7.20964V5.26393C60 2.5808 57.758 0.399658 55 0.399658H53C52.448 0.399658 52 0.835497 52 1.37251C52 1.90953 52.448 2.34537 53 2.34537H55C56.654 2.34537 58 3.65483 58 5.26393V7.20964C58 7.74666 58.448 8.1825 59 8.1825Z" fill="#FAAA17"/>
<path d="M0 50.0152V48.0695C0 47.5325 0.448 47.0967 1 47.0967H43C43.552 47.0967 44 47.5325 44 48.0695V50.0152C44 51.6243 45.346 52.9337 47 52.9337C47.552 52.9337 48 53.3695 48 53.9066C48 54.4436 47.552 54.8794 47 54.8794H5C2.242 54.8794 0 52.6983 0 50.0152ZM42 50.0152V49.0424H2V50.0152C2 51.6243 3.346 52.9337 5 52.9337H43.002C42.374 52.1204 42 51.1106 42 50.0152Z" fill="#FAAA17"/>
<path d="M42.022 31.5504C41.632 31.9318 41.632 32.5466 42.022 32.928L44.85 35.6792C45.24 36.0586 45.874 36.0586 46.264 35.6792C46.654 35.2998 46.654 34.683 46.264 34.3036L43.436 31.5504C43.044 31.1691 42.412 31.1691 42.022 31.5504Z" fill="#FAAA17"/>
<path d="M32 37.3681C23.178 37.3681 16 30.3849 16 21.8024C16 13.2199 23.178 6.23669 32 6.23669C35.32 6.23669 38.504 7.21733 41.21 9.07354C41.662 9.38097 41.77 9.98997 41.452 10.4278C41.134 10.8675 40.508 10.9745 40.058 10.6612C37.692 9.03852 34.906 8.18241 32 8.18241C24.28 8.18241 18 14.2939 18 21.8024C18 29.3109 24.28 35.4224 32 35.4224C39.72 35.4224 46 29.3109 46 21.8024C46 20.4034 45.784 19.0259 45.356 17.7067C45.19 17.193 45.482 16.6463 46.01 16.4867C46.538 16.3291 47.098 16.6093 47.264 17.121C47.752 18.6309 48 20.2069 48 21.8024C48 30.3849 40.822 37.3681 32 37.3681Z" fill="#FAAA17"/>
<path d="M48 35.4223C48.512 35.4223 49.024 35.613 49.414 35.9924L57.414 43.7752C58.196 44.536 58.196 45.7657 57.414 46.5265C57.024 46.9059 56.512 47.0966 56 47.0966C55.488 47.0966 54.976 46.9059 54.586 46.5265L46.586 38.7436C45.804 37.9828 45.804 36.7531 46.586 35.9924C46.976 35.613 47.488 35.4223 48 35.4223ZM48 33.4766C46.932 33.4766 45.928 33.8813 45.172 34.6168C44.416 35.3522 44 36.329 44 37.368C44 38.407 44.416 39.3838 45.172 40.1192L53.172 47.9021C53.928 48.6376 54.932 49.0423 56 49.0423C57.068 49.0423 58.072 48.6376 58.828 47.9021C59.584 47.1666 60 46.1899 60 45.1509C60 44.1119 59.584 43.1351 58.828 42.3996L50.828 34.6168C50.072 33.8813 49.068 33.4766 48 33.4766Z" fill="#FAAA17"/>
<path d="M30.9999 27.6408C30.9919 27.6408 30.9839 27.6408 30.9759 27.6408C30.6859 27.6331 30.4159 27.5066 30.2299 27.2906L25.2299 21.4535C24.8779 21.0391 24.9359 20.4262 25.3579 20.0818C25.7839 19.7393 26.4119 19.7958 26.7679 20.2063L31.0339 25.1893L45.2619 10.4447C45.6379 10.0478 46.2699 10.0245 46.6739 10.3844C47.0799 10.7483 47.1079 11.3631 46.7339 11.76L31.7359 27.3256C31.5459 27.526 31.2819 27.6408 30.9999 27.6408Z" fill="#FAAA17"/>
<path d="M55 2.34537C55.552 2.34537 56 1.90953 56 1.37251C56 0.835498 55.552 0.399658 55 0.399658H15C12.242 0.399658 10 2.5808 10 5.26394V44.1782C10 44.7152 10.448 45.151 11 45.151C11.552 45.151 12 44.7152 12 44.1782V5.26394C12 3.65483 13.346 2.34537 15 2.34537H51.002C50.374 3.15868 50 4.17045 50 5.26394V30.5582C50 31.0952 50.448 31.531 51 31.531C51.552 31.531 52 31.0952 52 30.5582V5.26394C52 3.65483 53.346 2.34537 55 2.34537Z" fill="#FAAA17"/>
<path d="M47 52.9338H43.5V54.8795H47C49.758 54.8795 52 52.6983 52 50.0152C52 49.4782 51.552 49.0424 51 49.0424C50.448 49.0424 50 49.4782 50 50.0152C50 51.6243 48.654 52.9338 47 52.9338Z" fill="#FAAA17"/>
</svg>
